<?xml version="1.0" encoding="UTF-8"?>
<!DOCTYPE svg PUBLIC "-//W3C//DTD SVG 1.1//EN" "http://www.w3.org/Graphics/SVG/1.1/DTD/svg11.dtd">
<!-- Creator: CorelDRAW X7 -->
<svg xmlns="http://www.w3.org/2000/svg" xml:space="preserve" width="7.96082in" height="2.75294in" version="1.1" shape-rendering="geometricPrecision" text-rendering="geometricPrecision" image-rendering="optimizeQuality" fill-rule="evenodd" clip-rule="evenodd"
viewBox="0 0 2127 736"
 xmlns:xlink="http://www.w3.org/1999/xlink">
 <g id="Layer_x0020_1">
  <metadata id="CorelCorpID_0Corel-Layer"/>
  <g>
   <path fill="#0A0A0A" d="M2048 9l0 0 0 0zm79 533l0 9c-12,8 -37,22 -41,23l1 -55c7,3 17,10 24,14 6,3 11,6 16,9zm-518 5l0 -1 -5 -2c0,1 0,2 0,3 0,2 0,1 1,2 2,-1 2,-1 4,-2zm-373 -288l-5 -2 0 6 5 -4zm243 219l6 -3 -5 -3 -1 6zm206 140l5 4 0 -7 -5 3zm-330 -212l5 -2c-1,-2 2,0 -2,-3 -2,-1 0,0 -3,0l0 5zm-105 -109c4,0 2,1 6,1l0 -5c-3,0 -1,0 -3,1 -4,2 -1,0 -3,3zm167 146l6 -4 -6 -4 0 8zm-229 -255c1,1 0,0 3,2 1,1 1,1 3,1l0 -6 -6 3zm-19 -32c3,-1 3,-2 6,-3l-6 -4 0 7zm-62 -108c1,-1 2,-1 3,-2 4,-2 1,0 3,-2l-6 -3 0 7zm559 537c3,0 3,0 6,-2 -3,-3 -3,-3 -7,-4l1 6zm-540 -504c3,2 3,2 6,3l0 -7 -4 2c0,0 -1,0 -1,0 -1,1 -1,1 -1,2zm0 -72l3 2c1,1 1,1 3,2l0 -8 -6 4zm185 322l7 5 0 -8 -7 3zm-61 -108l7 5 0 -9 -7 4zm49 73c0,0 1,0 1,0 0,-1 0,-1 0,-1l-7 -4 0 9 6 -4zm490 434c4,-1 5,-2 8,-4l-8 -5 0 9zm-559 -538c4,-1 6,-2 8,-4l-8 -5 0 9zm-62 -107l8 -4 -3 -3c-2,-1 -3,-1 -5,-2l0 9zm0 -72l8 -4c-2,-2 -5,-3 -8,-5l0 9zm453 498c2,1 4,3 8,4l0 -9 -8 5zm-435 -395c2,2 5,4 9,5l0 -9 -9 4zm373 359l8 5 0 -10c-4,2 -6,3 -8,5zm186 179l9 6 0 -11c-3,1 -2,1 -4,2 -1,0 -2,1 -2,1l-3 2zm-560 -609l10 5 0 -11 -10 6zm187 322l4 3c2,1 3,1 5,3l0 -11 -9 5zm-18 -30l9 -5 -9 -6 0 11zm142 101c2,3 6,5 10,6l0 -10c-4,1 -6,3 -10,4zm231 186c1,-1 3,-2 4,-2l5 -4c0,0 0,0 0,0l-9 -5 0 11zm390 -616l10 7 0 -12 -10 5zm-797 258l-1 -12 -10 6 11 6zm114 137l10 6 0 -12c-7,3 -9,5 -10,6 0,0 0,0 0,0zm168 77c4,0 7,-3 10,-5 -1,0 0,0 -2,-2 0,0 -2,-1 -3,-1 -1,-1 -3,-2 -5,-3l0 11zm-355 -472l10 7 1 -12 -11 5zm-18 114c4,0 3,-1 6,-2 3,-2 3,-1 4,-4l-9 -6 -1 12zm446 388l-11 -6 0 13 11 -7zm-384 -280c5,-1 7,-4 11,-5 -2,-3 -6,-6 -10,-7l-1 12zm-44 -77l11 5 0 -12c-4,1 -9,4 -11,7zm446 400l0 -12c-4,1 -9,3 -11,6l11 6zm-464 -502c4,-1 9,-4 11,-7l-10 -6 -1 13zm870 0c4,-2 8,-4 11,-7l-11 -6 0 13zm-356 -43l12 8 0 -14 -12 6zm-203 437c3,-1 3,-1 6,-3 4,-2 3,-1 5,-4l-11 -6 0 13zm576 -364l11 6 0 -13c-3,1 -9,4 -11,7zm-328 -66l12 -6c-3,-3 -9,-6 -12,-7l0 13zm79 -7l12 8 0 -14 -12 6zm-576 7l12 -6 -12 -7 0 13zm-45 66l12 7 0 -15c-4,2 -10,5 -12,8zm666 -65l12 -7 -12 -8 0 15zm-435 394l13 -6c-2,-3 -10,-7 -13,-8l0 14zm514 -402l12 8 0 -15 -12 7zm45 8c3,-1 10,-5 12,-7l0 0 0 0 -12 -8 0 12 0 3zm-616 357c1,-2 1,-1 2,-2 2,-2 3,-1 5,-5 -5,-1 -7,-4 -12,-6l0 14 5 -1zm633 -328l12 7 1 -15c-4,1 -10,5 -13,8zm-746 143l13 8 1 -16 -14 8zm356 -172c4,-1 10,-5 13,-7 -3,-3 -9,-6 -13,-7l0 14zm-45 -7l13 8 0 -16 -13 8zm-252 250l-9 -5 0 0 -5 -2 1 16 13 -9zm-76 -170l13 -10c-1,0 -1,0 -2,-1l-11 -6 0 17zm82 204c-3,3 -1,1 -3,3l14 7 0 -15 -11 5zm442 404l2 1c2,-2 1,1 1,-3l0 -13 -13 8c4,4 6,3 10,7zm-445 -688l14 8 0 -16 -12 6c-3,2 -1,0 -2,2zm-79 151l14 -7c-2,-3 -10,-7 -14,-8l0 15zm810 -35c2,-3 8,-7 12,-7l-14 -10 -1 13c1,5 -1,2 3,4zm-313 537c5,-2 10,-5 14,-8l-14 -8 0 16zm-481 -618l15 9 0 -6 0 -11 -15 8zm636 9l0 -6 0 -1 0 -9c-5,1 -9,5 -15,7l15 9zm-93 0c3,-1 13,-6 15,-9l-15 -8 0 17zm-108 529c3,3 11,8 15,9l0 -17 -15 8zm-327 -565c5,-2 11,-5 15,-8l-15 -9 0 17zm564 34l1 0c1,-1 1,-1 2,-2 1,-1 2,-1 3,-2 3,-1 2,0 4,-3l-15 -8 0 17 5 -2zm-439 -34c3,-1 11,-6 14,-8 -2,-2 -11,-8 -15,-8l1 16zm264 26c3,5 10,8 15,10 0,-3 0,-6 0,-9 0,-8 -1,-6 -3,-7 -1,2 -9,6 -12,6zm-78 10l15 -8c-4,-3 -12,-8 -15,-9l0 17zm-233 -45c2,3 2,1 2,3 6,2 9,4 13,6l0 -17c-5,2 -9,6 -15,8zm244 536l1 0c-5,-2 -7,-4 -12,-6l0 17c4,-2 11,-5 15,-9l-4 -2zm-384 -491l16 -9 -16 -8 0 17zm683 36c4,-1 11,-6 15,-8 -3,-4 -11,-7 -15,-9l0 17zm-729 26c1,2 0,1 2,3l13 7 0 -17c-5,0 -10,6 -15,7zm311 324c1,2 11,8 15,9l0 -10 0 -7c-4,0 -13,5 -15,8zm372 -358l15 9 1 -19 -16 10zm-545 260l1 0 1 -19 -16 9c4,5 11,5 14,10zm683 -197l0 17 -14 -8c2,-3 10,-8 14,-9zm-775 53c3,-1 12,-6 16,-9l-16 -9 0 18zm326 -153c2,3 13,9 16,9l0 -17c-3,0 -13,6 -16,8zm-124 359l16 10 0 -8 0 -11c-4,1 -14,6 -16,9zm123 71l0 1c5,2 12,8 17,9l0 -18 -17 8zm378 -355c1,1 2,2 4,2 3,2 5,4 8,4l0 -18c-5,2 -12,6 -17,9l5 3zm-684 102c0,0 -2,2 -2,2 -2,1 0,-1 -2,2 6,1 11,7 17,8l-1 -18 -12 6zm229 -167l17 -9 -17 -10 0 19zm264 671c2,3 5,4 8,6 3,2 5,3 8,4l1 -14c-1,-6 0,-2 -2,-5 -2,2 -4,3 -7,5 -1,1 -2,1 -4,2 -3,2 -1,1 -4,2zm17 -634l0 -20 -17 10 17 10zm-467 212l-1 2c7,-1 11,-7 17,-8 -2,-4 -10,-8 -16,-11l0 2 0 15zm86 71l8 3 0 -17c-1,-2 1,-4 -8,2 -4,2 -6,3 -9,5l1 1c4,4 4,1 8,6zm411 -284c4,-2 12,-6 17,-9 -1,-1 -1,-1 -1,-1l-2 -1c0,0 -1,-1 -2,-2 -1,0 -3,-1 -4,-2 -3,-2 -6,-4 -9,-4l1 19zm-108 -9c-3,-4 -12,-8 -17,-10l0 20 17 -10zm-250 -37c3,3 14,9 18,11l0 -21 -18 10zm-202 82c3,0 10,-5 13,-7 2,-1 1,0 2,-1 3,-1 2,-1 2,-2 -5,-4 -11,-7 -17,-10l0 20zm86 -76c4,2 5,3 8,5l1 -3 0 -18c-6,2 -12,7 -18,10 3,4 5,3 9,6zm-71 31c4,2 14,8 18,10l0 -21c-3,2 -6,3 -9,5 -1,1 -3,2 -4,2 -1,1 -2,1 -2,2l-2 1c0,0 0,0 -1,1zm233 333l19 -10 -9 -6c-3,-2 -6,-4 -10,-5l0 21zm-124 -359c5,-2 15,-8 18,-11l-18 -10 0 21zm264 26c3,2 14,9 17,10l1 -9 0 -3 0 -9c-5,2 -15,7 -18,11zm-59 359l0 0c-2,-3 -14,-10 -18,-11l0 20c6,-2 11,-7 18,-9zm-315 -288l19 11 1 -22 -20 11zm110 189l-1 1c5,0 2,0 6,-2l13 -8c-1,-2 -15,-11 -18,-11l0 20zm376 359l3 -1c3,-4 5,-4 9,-7l3 -3 -18 -10c0,26 -1,20 3,21zm-314 -322c6,-2 15,-7 19,-11l-19 -11 0 13 0 3 0 6zm434 -251c4,0 17,-8 20,-11 -4,-2 -15,-10 -19,-10 0,7 1,15 -1,21zm-310 -35l20 -11c-3,-3 -16,-10 -20,-12l0 23 0 0zm94 408l0 0c-4,4 -12,7 -17,11l1 1c0,0 1,1 1,1l18 9 0 -18c-2,-4 1,-2 -3,-4zm-328 -240l10 6c3,2 6,4 10,5l0 -23 -19 11c0,0 0,0 -1,1l0 0zm-12 -169c2,-2 3,-2 6,-3 3,-3 7,-4 11,-7 -3,-4 -14,-9 -19,-12 0,31 -2,20 2,22zm-2 143c0,2 1,1 3,0 1,-1 1,-1 2,-1 1,-1 1,-1 1,-1 5,-3 10,-6 14,-7 -3,-3 0,0 -2,-2l-13 -8c-4,-2 -2,-2 -5,-2l0 21zm201 -153l19 11 0 -12 0 -11c-4,2 -17,9 -19,12zm310 35c1,2 17,11 20,11l0 -22c-4,1 -17,9 -20,11l0 0zm110 48c6,-3 14,-9 20,-11 -1,-2 0,-1 -2,-3 0,0 -3,-1 -3,-1 -2,-1 -3,-2 -5,-3 -3,-2 -6,-4 -10,-5l0 23 0 0zm-545 -83l20 12 0 -24 -20 12 0 0zm304 510c2,-3 8,-6 12,-8 -1,-2 0,0 -2,-2l-1 -1 -17 -9 0 23 8 -3 0 0zm55 -463c3,-2 6,-3 10,-6 4,-2 7,-3 9,-6l-20 -12 1 24 0 0zm248 72c4,-3 17,-9 20,-12 -4,-3 -16,-11 -20,-11l0 23 0 0zm-297 418c3,3 6,4 10,6 3,2 7,5 11,6l0 -24 -21 12 0 0zm-76 -131l1 -1 19 -11c-2,-3 -16,-10 -20,-12l0 24 0 0zm76 -371c1,1 1,1 3,2l18 10 0 -23c-3,0 -17,9 -21,11l0 0zm-263 -24c4,-1 18,-9 21,-11 -3,-3 -7,-5 -10,-7 -4,-2 -7,-4 -11,-6l0 24 0 0zm378 644l-5 0 0 -1 0 -22 21 13c-2,2 -6,4 -9,6 -2,1 -5,2 -7,4l0 0zm72 -586c-2,5 3,3 6,8 6,1 10,5 14,7l0 -25c-7,2 -12,8 -20,10l0 0zm-573 15c4,-4 14,-8 21,-13 -5,-3 -10,-4 -13,-8 -4,-1 -5,-3 -9,-4 0,6 -1,20 1,25l0 0zm74 130c5,4 19,12 23,13l0 -7 0 -5 0 -13 -23 12zm235 -166c5,-2 15,-8 20,-11 0,-1 1,-1 1,-1 1,-1 1,-1 1,-1l-21 -13 -1 21 0 5 0 0zm-289 54l-7 5 19 12c3,-1 3,3 3,-11 0,-5 0,-9 0,-13l-15 7zm116 148l23 14 0 -9 0 -9 0 -8 -23 12zm-124 -215l4 3c7,3 12,8 19,10l0 -25 -23 12 0 0zm271 301l0 -27 -23 14 23 13 0 0zm-72 -42l1 1 9 4 0 -26 -22 12c3,5 5,4 10,8l2 1 0 0zm-150 -102c3,-1 20,-11 22,-13 -1,-2 -18,-12 -22,-13l0 26 0 0zm653 -60l0 22c-4,-2 -8,-5 -12,-7 -2,-2 -4,-2 -7,-3l2 -3 17 -9 0 0zm-454 -97c3,3 20,12 24,13 -2,-7 -1,-18 -1,-25 -4,0 -18,9 -23,12l0 0zm396 58l0 0 -23 14c3,3 18,10 23,13l0 -27 0 0zm-471 -44l24 -13 -24 -15 0 28 0 0zm-125 0c6,-2 21,-11 24,-14l-23 -13 -1 27 0 0zm442 11c-2,0 -1,2 -3,-1 -3,-1 -1,-1 -4,-1l0 26c5,-1 19,-10 24,-12 -4,-5 -13,-6 -17,-12l0 0zm-38 0c-4,5 -13,6 -18,12 3,1 9,4 10,6 6,2 9,5 14,7l0 -27c-3,1 -3,1 -6,2l0 0zm-69 12c0,-3 -2,-1 -5,-4 -7,-3 -13,-8 -19,-11l0 28c7,-2 16,-10 24,-13l0 0zm-248 144l0 -2 -24 -13 -1 27c8,-2 17,-10 25,-12l0 0zm-11 -181c2,3 19,12 24,14l-1 -27c-3,0 -8,4 -12,6 -4,2 -8,5 -11,7l0 0zm110 265c4,-1 23,-12 25,-14l-25 -13 0 7 0 6 0 4 0 10zm-186 -199l0 20c5,-2 22,-12 24,-14l-17 -11c-4,-2 -4,-2 -7,-2l0 7 0 0zm124 159c0,6 1,3 2,4l23 -13c-3,-3 -21,-13 -25,-15l0 24 0 0zm-111 -117c8,4 17,11 24,14l1 -28c-8,3 -21,10 -25,14l0 0zm0 -72l24 14 1 -28c-5,1 -10,5 -13,7 -4,2 -9,4 -12,7l0 0zm248 1l25 13 0 -28c-4,1 -13,7 -18,10 -1,1 -2,1 -3,2 -1,0 -1,0 -2,1 -2,2 1,-1 -2,2l0 0zm126 503l23 13 0 -20 0 -8c-1,-2 -20,11 -24,12 0,2 1,3 1,3l0 0zm-58 -140c0,-2 -2,1 1,-1l5 -4 -15 -10 -10 -5 1 29 18 -9 0 0zm-267 -349c8,-3 17,-11 26,-14l-26 -16 0 30 0 0zm286 365c-5,3 -21,11 -25,15l25 14 0 -29 0 0zm-1 -328l2 0 0 -31 -25 17c5,3 20,10 23,14l0 0zm-86 236l1 1 24 12 0 -28c-4,1 -9,4 -13,7 -3,1 -4,2 -7,4 -4,2 -4,1 -5,4l0 0zm136 181l1 -3c-4,-2 -8,-5 -13,-8 -2,-1 -4,-2 -7,-3 -7,-5 -5,-4 -6,-2l0 28 18 -10c3,-1 4,-2 7,-2l0 0zm-335 -382c8,-3 18,-12 26,-15l-26 -15 0 30 0 0zm186 179l2 0c4,-5 19,-10 24,-15l-26 -15 0 30 0 0zm248 -215c4,-1 24,-12 26,-15 -4,-3 -8,-5 -12,-8 -4,-2 -9,-4 -12,-7 -2,1 -2,2 -2,6 0,3 0,5 0,8 0,5 1,11 0,16l0 0zm-359 -51c1,1 6,5 12,8 5,3 11,6 13,7l0 -11 0 -1 0 -18 -25 15 0 0zm49 -8l0 3 0 12 0 8c7,-3 20,-11 26,-14 -1,-2 -8,-6 -15,-10l0 0c-5,-3 -9,-5 -11,-6l0 7zm-93 127c3,2 4,3 7,3l0 -27c-1,-2 2,-2 -2,-2 -4,5 -18,9 -23,15 2,3 13,9 18,11l0 0zm44 23c-1,2 -1,0 0,3l25 14 0 -30c-8,2 -16,10 -25,13l0 0zm61 37l26 16 1 -31 -27 15 0 0zm50 -127l27 -16 -27 -16 0 32 0 0zm-125 45l1 26c3,-1 3,-2 6,-2 4,-5 16,-8 20,-13l-26 -16 -1 5 0 0zm337 -70c-3,4 -10,6 -13,9 2,2 22,14 26,15l0 -28c-1,-4 1,-1 -3,-2 -1,2 1,0 -2,2 0,0 -2,1 -3,2 -2,2 -2,2 -5,2l0 0zm-386 9c2,3 22,14 26,15l0 -26 0 0 0 -4c-4,2 -21,11 -26,15l0 0zm309 -9l-4 -4 -7 -3 0 32 25 -15c1,-1 1,0 2,-1l-16 -9 0 0zm201 46l2 -1c-9,-4 -20,-13 -28,-16l0 31c9,-3 18,-11 26,-14l0 0zm40 50c3,-6 18,-10 23,-15 -3,-3 -23,-14 -27,-15l0 30 4 0 0 0zm-439 -35c9,-3 20,-13 28,-15l-28 -17c0,10 2,23 0,32l0 0zm-62 -36c5,-3 10,-5 14,-8 3,-1 12,-6 14,-9l-27 -15 -1 32 0 0zm39 35l1 1 0 -32c-4,1 -26,14 -28,16l27 15 0 0zm35 -51c1,0 1,0 1,0 0,1 0,1 1,1l26 15 0 -32c-5,2 -23,12 -28,16l0 0zm-12 123l25 -13c0,0 1,-1 2,-1 1,-1 0,-1 1,-2l-28 -16 0 32 0 0zm74 -87l28 17 0 -34 -28 17 0 0zm248 -1l1 2c4,1 12,6 17,9l3 2c0,0 1,1 1,1l1 1 6 2 -1 -32c-8,3 -19,12 -28,15l0 0zm-310 36c2,3 25,16 28,17l0 -13 0 -5 0 -7 0 -8 -28 16zm50 90l1 0c5,-6 22,-12 28,-17l-29 -17 0 34 0 0zm198 340c3,4 27,17 29,18l0 -33c-10,3 -21,13 -29,15l0 0zm150 -446c-2,3 -21,14 -26,16l2 3c8,3 21,13 28,14 -2,-7 -1,-24 -1,-33 -3,1 0,0 -3,0l0 0zm-337 123c2,2 1,1 2,3l27 15 0 -34 -29 16 0 0zm-11 -89l27 -16c1,0 1,-1 2,-1 0,-1 -1,-1 -1,-1 0,0 0,0 0,0 -1,-1 -1,-1 -2,-2l-11 -6c-4,-2 -10,-6 -15,-8l0 34 0 0zm85 -49c2,-2 3,-2 6,-3 -1,-2 1,-1 -1,-3 -8,-3 -21,-13 -28,-15l0 34c7,-3 15,-10 23,-13l0 0zm59 2c3,0 3,0 5,2 6,2 10,7 16,9l-1 -34 -22 12c-3,3 -5,3 -7,6 4,1 7,2 9,5l0 0zm-63 202c-8,-3 -12,-8 -20,-10 2,7 1,26 1,34 5,-1 16,-9 22,-12 1,-1 4,-3 4,-3 4,-2 2,0 4,-3 -3,-1 -4,-2 -7,-3l-4 -3 0 0zm326 -151l0 29c-7,-4 -18,-12 -24,-14l5 -4 2 -1c5,-2 12,-6 17,-10l0 0zm-192 -56l1 -1 -5 -4c-7,-3 -20,-12 -25,-13l0 34c4,-1 22,-13 29,-16l0 0zm-204 70c3,3 25,16 30,18l0 -35c-9,3 -21,13 -30,17l0 0zm175 376c2,0 9,-4 16,-8 6,-4 12,-7 14,-9 -3,-2 -26,-16 -30,-17l0 20 0 14 0 0zm-113 -196c8,5 22,14 30,17l0 -34c-4,0 -11,5 -15,8l-14 8c0,0 0,1 0,1 0,-1 -1,0 -1,0l0 0zm216 261l-14 0c-7,-4 -13,-8 -16,-10 4,-3 28,-17 30,-17l0 27 0 0zm-186 -461c0,-6 0,-12 0,-17 0,-5 2,-13 -1,-16 -1,0 -1,0 -1,0 0,2 -12,8 -14,9 -5,3 -10,6 -14,9 0,0 0,0 0,0 1,1 1,1 1,1l22 13c1,0 4,2 4,2 5,2 2,1 3,-1zm31 308l31 17 0 -36c-3,1 -28,16 -31,19l0 0zm-72 -270l24 -13c2,-2 4,-3 7,-4 -2,-3 -11,-7 -15,-9 -5,-3 -11,-7 -17,-9l1 35 0 0zm64 -35c4,-6 23,-13 29,-19l-23 -13c-3,-1 -5,-3 -8,-4 0,7 0,13 0,20 0,11 -2,16 2,16zm-1 287c3,-3 27,-17 30,-18 -3,-3 -6,-4 -11,-7 -7,-4 -7,-3 -11,-7l-9 -4c-1,6 -2,33 1,36l0 0zm154 -307c-3,0 -1,1 -4,-1 -2,-1 -3,-2 -3,-2 -7,-3 -18,-10 -24,-13l0 36c5,-2 11,-6 16,-9 3,-2 5,-3 8,-5 4,-2 6,-2 7,-6l0 0zm-202 100l-16 -9 0 37c6,-3 28,-16 32,-19l-16 -9 0 0zm248 378l-15 0 0 -2 0 -17 0 -10c4,2 29,16 32,19l-17 10 0 0zm-105 -490c-6,3 -20,9 -24,14 3,2 27,16 32,18l0 -32c0,-9 1,-2 -3,-4l-5 4 0 0zm187 465l0 25 0 0 -9 0c-3,-3 -8,-5 -10,-5 -3,-3 -3,-3 -6,-5 2,-2 12,-8 16,-10 1,-1 6,-3 9,-5l0 0zm-303 -399c-5,3 -30,17 -33,20 5,3 27,16 33,18l0 -38 0 0zm-33 92l2 1 31 17 0 -35c-1,-4 1,-1 -2,-3 -5,6 -28,14 -31,20l0 0zm176 305c5,-2 31,-17 33,-19l-33 -20 0 9 0 30 0 0zm63 -394c1,0 1,-1 2,-2l22 -12c4,-3 6,-3 8,-6l-32 -18c-1,5 -2,34 0,38l0 0zm-177 -20c3,3 28,18 33,20l0 -11 0 -18 0 -10 -33 19zm158 -17c-1,-4 0,0 -3,-2 -1,2 -27,17 -32,19 2,2 2,2 5,3l12 7c4,3 14,9 18,10l0 -37 0 0zm-135 54c0,-2 2,-1 -6,-5l-22 -13c-3,-1 -3,-1 -5,-2l0 39 33 -19 0 0zm63 -36c-3,-4 -12,-8 -17,-11 -5,-3 -12,-7 -17,-9l0 40 34 -20 0 0zm-97 159l0 0 1 40c4,-1 12,-7 17,-10 6,-3 12,-6 17,-10 -3,-3 -32,-19 -35,-20l0 0zm10 56c2,2 30,18 35,20l0 -40 -35 20 0 0zm272 -177l2 -3 -30 -17c0,-1 0,-1 -1,-1 0,0 0,0 0,-1l-2 0c-2,0 -2,-2 -2,8 0,4 0,7 0,11 0,7 0,14 0,21 10,-5 25,-16 33,-18zm-87 -2l36 20 0 -41 -36 21 0 0zm-125 286c3,2 4,3 8,4l28 17 1 -1 0 -40c-11,3 -26,16 -37,20l0 0zm-62 -251l37 22 0 -43 -37 21 0 0zm54 236l36 -20c-2,-3 -33,-20 -36,-21l0 41 0 0zm-60 -179c1,-2 5,-3 8,-5l26 -15c-1,-1 0,-1 -2,-2l-16 -9c-5,-4 -12,-8 -18,-11 0,7 0,14 0,21 0,4 0,7 0,11 0,1 -1,4 -1,5 1,7 0,3 3,5l0 0zm106 -71l-1 -43c-5,2 -13,7 -18,10l-18 12 37 21 0 0zm85 337c6,4 14,7 20,11 4,3 15,10 19,11l0 -44c-4,2 -14,8 -19,11 -6,3 -13,8 -20,11l0 0zm92 -1l0 1 0 1c-4,3 -36,20 -37,21l0 -44c6,3 13,7 19,11 5,3 14,9 18,10l0 0zm-268 -257l-9 7c4,3 34,21 38,22l0 -44c-9,3 -20,13 -29,15l0 0zm108 -78c3,-4 29,-17 36,-22 -3,-3 -14,-9 -18,-12 -5,-3 -15,-10 -20,-10 2,7 0,15 0,22 0,6 -1,18 2,22l0 0zm160 -4l0 35c-10,-6 -27,-15 -29,-19 3,-1 24,-12 26,-15 1,0 2,-1 3,-1l0 0zm-115 327l0 -45c-4,1 -37,20 -39,23l39 22zm-109 -144c2,0 35,-19 39,-22l-39 -23 0 45 0 0zm3 -144l37 -21c-4,-4 -15,-9 -20,-12 -5,-3 -15,-10 -20,-11l0 45 3 -1 0 0zm121 1c2,0 34,-18 39,-21l1 -2c-4,-2 -15,-9 -20,-12 -5,-3 -16,-9 -20,-11l0 46 0 0zm-55 -23c3,4 38,23 41,24l0 -47 -41 23 0 0zm-8 274c4,0 40,-21 42,-23 -7,-3 -14,-8 -21,-12 -5,-3 -16,-11 -21,-11l0 46 0 0zm-54 -94c13,6 28,18 41,23l0 -47c-6,2 -38,21 -41,24l0 0zm-8 -84c5,-2 28,-16 36,-20l5 -4 -41 -24 0 48zm140 207c4,-4 20,-11 26,-16 -3,-2 -38,-23 -42,-24l0 48c6,-2 11,-7 16,-8zm-132 -265l0 0c11,3 33,20 41,22l0 -48c-6,4 -13,8 -21,12l-18 10c-2,2 -2,0 -2,4l0 0zm217 230l0 38c-11,-6 -28,-16 -31,-19l2 -2c4,-3 19,-11 29,-17l0 0zm-219 -159c6,1 16,8 22,12 4,2 17,10 22,12l0 -50 -44 26 0 0zm219 -75l0 4c-9,7 -35,21 -39,22l0 -48c6,2 16,8 22,12 4,2 12,6 17,10l0 0zm-163 27c7,-3 14,-8 21,-12 7,-4 15,-8 22,-13l-43 -25 0 50 0 0zm69 -25l42 25c1,-16 1,-33 1,-50 -6,2 -16,9 -22,12l-21 13 0 0zm-64 179l23 14c7,4 14,8 22,12l0 -51 -45 25 0 0zm39 -34c-1,-2 0,-1 -2,-2 -5,-5 -29,-16 -32,-20 -5,-1 -6,-4 -11,-5l0 51c7,-1 38,-23 45,-24zm119 -129l0 40c0,0 0,0 0,0l-34 -20c3,-2 22,-13 34,-20l0 0zm-96 198c3,5 42,26 45,28l0 -53c-10,4 -37,23 -45,25l0 0zm-68 -116l46 -26c-2,-2 -40,-24 -46,-27l0 53 0 0zm6 -62l2 1c0,0 0,1 0,1 1,0 2,1 3,2 9,5 35,20 41,22l-1 -52 -45 26 0 0zm158 175l0 8c-11,7 -38,22 -40,23l1 -53 39 22 0 0zm-159 -104c3,4 8,4 11,8 9,2 27,17 36,19l0 -53c-12,5 -35,21 -47,26zm57 -45c3,0 44,-24 46,-26 -5,-3 -43,-26 -46,-26l0 52 0 0zm-1 144c4,-1 44,-24 47,-26 -7,-8 -39,-21 -43,-27 -2,0 -1,0 -3,0 -1,12 1,45 -1,53l0 0zm103 -47l0 41c-13,-7 -33,-19 -35,-21l35 -20 0 0zm0 -91l0 8c-5,4 -11,7 -17,10 -7,4 -17,11 -23,13l0 -54 40 23zm-98 4c6,2 18,11 24,14 7,4 18,11 24,13l0 -55 -48 28 0 0zm-4 19l0 44c4,-1 18,-10 23,-13 3,-2 22,-12 24,-14 -3,-3 -43,-26 -47,-28l0 11 0 0zm102 -4l0 42c-13,-8 -33,-19 -35,-21 6,-5 16,-10 24,-14 2,-2 7,-5 11,-7l0 0zm-93 53l-5 5 5 2c11,4 35,21 43,24l0 -55c-8,3 -34,22 -43,24l0 0z"/>
  </g>
  <g>
   <path fill="#0A0A0A" d="M79 727l0 0 0 0zm-79 -534l0 -8c13,-8 37,-22 41,-24l0 56c-7,-3 -17,-10 -24,-14 -6,-3 -12,-6 -17,-10zm518 -4l0 0 6 3c0,-1 0,-2 0,-3 -1,-2 -1,-2 -1,-2 -2,1 -3,1 -5,2zm373 287l5 3 0 -6 -5 3zm-243 -218l-5 3 5 3 0 -6zm-206 -140l-5 -4 0 7 5 -3zm330 212l-5 2c2,2 -1,0 2,3 2,1 0,0 3,0l0 -5zm105 109c-3,-1 -2,-1 -5,-2l0 6c2,-1 1,0 3,-1 3,-2 0,-1 2,-3zm-167 -146l-6 3 6 4 0 -7zm229 255c0,-1 1,0 -2,-2 -1,-1 -2,-1 -4,-2l1 7 5 -3zm20 32c-3,1 -4,2 -7,3l7 4 0 -7zm62 108c-2,0 -3,1 -4,1 -4,3 0,0 -2,3l6 3 0 -7zm-559 -538c-3,0 -4,1 -6,3 2,3 3,3 6,3l0 -6zm540 505c-3,-2 -3,-2 -7,-3l1 6 3 -1c1,0 1,0 1,0 1,-1 1,-1 2,-2zm0 72l-3 -3c-2,0 -2,0 -4,-1l0 8 7 -4zm-186 -322l-7 -5 0 8 7 -3zm62 108l-7 -6 0 9 7 -3zm-50 -74c0,1 0,1 0,1 0,0 0,1 -1,1l8 3 0 -8 -7 3zm-490 -434c-3,2 -5,3 -8,5l8 4 0 -9zm559 538c-3,1 -6,2 -8,5l8 4 0 -9zm62 108l-8 4 3 3c2,1 3,1 6,2l-1 -9zm0 71l-8 5c2,2 5,3 9,5l-1 -10zm-453 -497c-1,-2 -3,-3 -8,-5l0 10 8 -5zm435 395c-2,-3 -5,-4 -8,-5l0 9 8 -4zm-372 -360l-9 -4 0 10c4,-3 7,-3 9,-6zm-187 -178l-8 -6 0 11c2,-1 1,-1 4,-3 0,0 2,-1 2,-1l2 -1zm560 609l-9 -6 0 11 9 -5zm-187 -322l-4 -3c-1,-2 -2,-2 -5,-3l0 11 9 -5zm19 30l-10 5 9 6 1 -11zm-143 -102c-2,-2 -5,-5 -9,-5l0 10c4,-1 6,-3 9,-5zm-230 -185c-2,1 -4,2 -5,2l-4 3c-1,1 -1,1 -1,1l10 5 0 -11zm-391 615l-9 -6 0 12 9 -6zm798 -257l0 12 10 -6 -10 -6zm-114 -138l-10 -6 0 12c7,-2 9,-5 9,-5 0,0 0,-1 1,-1zm-169 -77c-3,1 -7,3 -10,6 1,0 0,0 2,2 1,0 2,1 3,1 2,1 3,2 5,2l0 -11zm356 472l-11 -7 0 13 11 -6zm17 -113c-3,0 -2,0 -5,2 -3,2 -3,1 -5,4l10 6 0 -12zm-446 -389l12 6 0 -13 -12 7zm384 281c-4,1 -7,4 -11,5 3,3 7,5 11,7l0 -12zm45 77l-11 -6 0 13c4,-2 8,-4 11,-7zm-446 -400l0 12c4,-1 8,-4 11,-7l-11 -5zm463 502c-3,1 -8,4 -11,6l11 6 0 -12zm-869 0c-4,1 -9,4 -11,7l11 5 0 -12zm355 42l-11 -7 0 14 11 -7zm204 -437c-3,2 -4,2 -7,3 -4,3 -2,1 -4,4l11 6 0 -13zm-577 365l-11 -6 0 12c3,0 9,-3 11,-6zm328 65l-11 7c3,2 8,5 12,7l-1 -14zm-78 7l-12 -7 -1 14 13 -7zm575 -7l-12 7 12 7 0 -14zm45 -65l-11 -7 -1 14c4,-1 10,-4 12,-7zm-666 65l-12 7 12 7 0 -14zm435 -395l-12 7c2,3 9,7 12,7l0 -14zm-513 402l-13 -8 0 15 13 -7zm-46 -7c-3,1 -9,4 -12,7l0 0 0 0 12 7 0 -11 0 -3zm616 -357c-1,1 0,1 -2,2 -2,2 -2,1 -5,4 5,2 7,4 13,6l-1 -13 -5 1zm-632 328l-13 -7 0 14c3,-1 10,-5 13,-7zm745 -143l-13 -8 0 15 13 -7zm-356 172c-4,1 -10,4 -12,7 3,3 8,6 12,7l0 -14zm46 7l-14 -8 0 16 14 -8zm251 -251l10 5 0 1 4 2 0 -16 -14 8zm76 171l-13 9c1,1 1,1 2,2l11 6 0 -17zm-82 -205c4,-2 2,-1 3,-3l-13 -6 0 15 10 -6zm-442 -404l-1 0c-2,1 -1,-1 -2,3l0 13 13 -8c-4,-4 -6,-3 -10,-8zm445 689l-13 -8 -1 16 13 -7c2,-1 0,0 1,-1zm79 -151l-14 7c3,3 10,7 14,8l0 -15zm-810 35c-2,3 -8,6 -12,7l15 9 0 -13c-1,-4 2,-2 -3,-3zm313 -538c-5,2 -10,5 -14,9l14 8 0 -17zm481 618l-14 -8 -1 5 0 11 15 -8zm-636 -8l0 6 0 0 0 10c6,-1 10,-5 15,-7l-15 -9zm93 0c-3,1 -12,6 -14,9l14 7 0 -16zm108 -529c-2,-3 -11,-8 -14,-9l0 16 14 -7zm327 565c-5,2 -10,4 -14,8l14 9 0 -17zm-564 -34l-1 0c-1,1 0,1 -2,2 -1,0 -2,1 -2,1 -3,2 -2,1 -5,4l15 8 0 -17 -5 2zm440 34c-3,1 -12,6 -14,8 2,2 11,8 14,8l0 -16zm-265 -27c-3,-4 -9,-7 -15,-9 0,3 0,6 0,9 0,8 1,6 3,7 2,-2 10,-6 12,-7zm79 -9l-16 8c4,3 12,7 15,9l1 -17zm232 45c-1,-3 -1,-1 -2,-3 -5,-2 -8,-5 -13,-7l0 17c5,-1 9,-5 15,-7zm-244 -537l-1 1c5,1 8,4 13,5l0 -16c-5,1 -12,5 -16,8l4 2zm384 491l-15 10 15 8 0 -18zm-683 -35c-4,0 -11,5 -15,8 3,3 11,7 15,9l0 -17zm730 -27c-1,-1 -1,-1 -2,-2l-14 -7 0 17c6,-1 11,-6 16,-8zm-311 -323c-2,-2 -12,-8 -15,-9l0 10 0 7c3,-1 12,-6 15,-8zm-372 358l-16 -9 0 19 16 -10zm544 -261l-1 0 0 19 16 -8c-5,-5 -11,-6 -15,-11zm-683 198l0 -17 15 8c-3,3 -11,7 -15,9zm776 -54c-4,2 -13,7 -16,10l15 9 1 -19zm-327 153c-2,-2 -12,-8 -16,-9l0 18c4,-1 14,-7 16,-9zm124 -359l-15 -9 -1 7 0 12c5,-2 14,-7 16,-10zm-123 -71l0 0c-5,-3 -12,-8 -17,-9l0 18 17 -9zm-377 355c-2,0 -3,-1 -4,-2 -4,-2 -5,-3 -9,-4l1 19c5,-2 11,-7 16,-9l-4 -4zm684 -102c0,0 2,-1 2,-1 2,-2 0,0 2,-2 -6,-2 -12,-7 -17,-9l0 19 13 -7zm-229 167l-18 10 17 10 1 -20zm-265 -670c-1,-4 -4,-4 -8,-6 -3,-2 -5,-3 -8,-5l0 15c0,6 -1,2 2,4 1,-2 4,-3 6,-4 2,-1 3,-2 4,-2 4,-3 1,-2 4,-2zm-17 634l1 20 17 -10 -18 -10zm468 -213l1 -1c-7,1 -12,6 -18,8 2,4 11,8 16,10l1 -1 0 -16zm-86 -70l-8 -3 -1 17c2,2 -1,4 8,-2 4,-2 6,-4 10,-5l-2 -1c-4,-4 -4,-2 -7,-6zm-411 283c-5,2 -12,7 -17,10 0,0 0,1 0,1l2 1c1,0 2,1 2,1 2,1 3,2 5,3 2,1 6,3 8,4l0 -20zm107 10c3,3 13,8 17,10l0 -20 -17 10zm251 37c-3,-3 -14,-10 -18,-11l0 20 18 -9zm201 -82c-3,0 -9,4 -13,6 -1,1 0,0 -2,2 -2,1 -1,1 -2,2 6,4 11,7 17,10l0 -20zm-86 75c-3,-1 -5,-2 -8,-4l-1 2 0 18c6,-2 12,-7 18,-9 -3,-4 -4,-3 -9,-7zm71 -30c-4,-3 -14,-8 -18,-10l0 21c3,-2 7,-4 9,-5 2,-1 3,-2 5,-3 0,0 1,-1 2,-1l2 -1c0,0 0,-1 0,-1zm-233 -333l-18 10 8 6c4,2 6,4 10,5l0 -21zm124 359c-5,2 -15,7 -18,11l18 10 0 -21zm-264 -26c-2,-2 -14,-9 -17,-10l0 9 0 3 0 8c4,-1 15,-7 17,-10zm60 -359l0 0c1,3 14,9 18,11l0 -21c-7,2 -12,7 -18,10zm314 288l-19 -12 0 22 19 -10zm-110 -190l1 0c-4,0 -2,0 -6,2l-13 8c1,2 15,10 18,10l0 -20zm-375 -358l-3 1c-4,4 -6,4 -10,7l-3 2 19 10c0,-26 1,-19 -3,-20zm313 322c-6,2 -14,7 -18,11l18 10 0 -12 0 -4 0 -5zm-434 251c-4,0 -17,7 -20,11 4,2 16,10 20,10 0,-7 -2,-16 0,-21zm310 35l-19 11c2,3 16,10 19,11l0 -22 0 0zm-93 -408l0 0c3,-4 12,-7 16,-11l-1 -1c0,0 -1,-1 -1,-1l-17 -9 0 17c1,5 -1,3 3,5zm327 240l-9 -6c-4,-2 -7,-4 -10,-6l-1 23 19 -11c1,0 1,0 1,0l0 0zm12 169c-1,2 -3,2 -5,2 -3,4 -8,5 -12,8 4,4 14,9 20,11 0,-30 1,-19 -3,-21zm3 -143c-1,-2 -1,-1 -4,0 0,0 -1,1 -2,1 0,0 -1,1 -1,1 -4,2 -9,6 -13,7 2,3 -1,0 2,2l12 8c4,2 3,2 6,1l0 -20zm-201 153l-20 -12 0 13 0 11c4,-2 18,-9 20,-12zm-310 -36c-2,-1 -17,-11 -20,-11l0 23c3,-1 16,-9 20,-12l0 0zm-110 -47c-6,3 -15,9 -21,11 2,2 0,1 3,2 0,0 3,2 3,2 2,1 3,1 4,2 4,2 7,4 11,6l0 -23 0 0zm544 83l-20 -12 0 24 20 -12 0 0zm-303 -510c-3,3 -8,6 -12,7 0,2 0,1 1,3l1 1 17 9 0 -23 -7 3 0 0zm-55 463c-3,1 -7,3 -10,5 -4,2 -8,4 -10,7l20 11 0 -23 0 0zm-248 -72c-5,2 -18,9 -21,12 5,2 17,10 21,11l0 -23 0 0zm296 -418c-3,-3 -5,-4 -9,-7 -4,-1 -7,-4 -11,-5l0 23 20 -11 0 0zm76 131l0 0 -20 11c3,3 17,11 20,12l0 -23 0 0zm-76 371c-1,-1 0,-1 -2,-2l-18 -10 0 23c3,0 16,-9 20,-11l0 0zm263 23c-3,1 -18,10 -21,12 3,3 7,5 10,7 4,2 8,4 11,5l0 -24 0 0zm-378 -643l5 0 0 0 0 22 -21 -12c3,-3 6,-4 10,-6 2,-1 4,-3 6,-4l0 0zm-72 585c3,-5 -3,-2 -6,-7 -5,-1 -9,-5 -14,-7l0 25c7,-2 13,-9 20,-11l0 0zm574 -14c-4,3 -15,8 -21,13 4,3 9,4 13,8 4,1 4,3 8,4 0,-6 2,-21 0,-25l0 0zm-75 -131c-5,-3 -18,-11 -22,-12l0 6 0 6 0 13 22 -13zm-235 167c-5,1 -15,8 -20,11 0,0 0,0 0,1 -1,0 -2,1 -2,1l22 12 0 -21 0 -4 0 0zm290 -54l6 -5 -19 -13c-3,2 -2,-2 -2,12 0,4 0,9 0,13l15 -7zm-117 -148l-22 -14 -1 9 0 8 0 9 23 -12zm124 215l-3 -4c-7,-2 -13,-7 -19,-9l0 25 22 -12 0 0zm-271 -301l0 27 23 -14 -23 -13 0 0zm72 41l-1 0 -8 -4 0 25 22 -12c-3,-4 -6,-3 -11,-7l-2 -2 0 0zm151 103c-4,1 -20,11 -23,13 2,1 19,12 23,13l0 -26 0 0zm-654 60l0 -22c4,2 8,5 13,6 2,3 3,3 6,4l-1 3 -18 9 0 0zm454 97c-2,-3 -19,-12 -23,-14 1,7 0,19 0,26 5,0 18,-10 23,-12l0 0zm-395 -59l0 1 22 -14c-3,-4 -17,-11 -22,-13l0 26 0 0zm471 45l-24 13 23 14 1 -27 0 0zm124 0c-5,2 -21,11 -23,14l23 13 0 -27 0 0zm-442 -12c2,1 2,-1 3,2 3,1 2,0 4,0l0 -26c-4,1 -19,10 -23,13 4,5 12,6 16,11l0 0zm38 1c4,-5 14,-6 18,-12 -2,-1 -8,-4 -10,-6 -5,-2 -8,-5 -13,-7l0 27c3,-1 2,-1 5,-2l0 0zm70 -13c0,4 1,1 4,5 7,3 13,8 19,11l1 -28c-8,2 -17,10 -24,12l0 0zm248 -143l0 2 24 13 0 -28c-7,3 -16,11 -24,13l0 0zm11 181c-2,-3 -19,-13 -24,-14l0 27c3,-1 9,-4 12,-6 4,-2 8,-5 12,-7l0 0zm-111 -266c-4,2 -23,12 -24,15l24 13 0 -7 0 -6 0 -4 0 -11zm186 200l0 -20c-4,1 -22,11 -24,14l17 10c4,2 4,3 7,3l0 -7 0 0zm-124 -159c0,-6 0,-4 -1,-4l-23 13c2,3 20,13 24,14l0 -23 0 0zm111 116c-7,-4 -16,-10 -24,-13l0 28c7,-3 20,-11 24,-15l0 0zm0 72l-24 -14 0 29c4,-2 9,-5 13,-7 4,-3 8,-5 11,-8l0 0zm-248 0l-24 -14 -1 29c5,-2 14,-8 18,-10 1,-1 3,-1 4,-2 0,-1 0,-1 1,-1 3,-3 0,1 2,-2l0 0zm-126 -504l-23 -12 0 20 0 8c2,2 20,-11 25,-13 -1,-1 -2,-2 -2,-3l0 0zm59 141c-1,2 2,-1 -1,1l-6 4 15 10 10 4 0 -28 -18 9 0 0zm266 349c-8,3 -17,11 -25,14l26 15 -1 -29 0 0zm-285 -365c5,-3 20,-11 25,-15l-26 -15 1 30 0 0zm0 328l-2 0 0 31 25 -17c-5,-4 -20,-10 -23,-14l0 0zm87 -237l-2 0 -24 -13 0 29c5,-2 10,-5 14,-7 2,-1 4,-3 6,-4 4,-2 4,-1 6,-5l0 0zm-136 -180l-2 3c5,2 9,5 13,7 3,2 4,2 7,4 7,4 5,3 6,1l0 -28 -18 11c-3,1 -3,2 -6,2l0 0zm335 382c-9,3 -19,11 -27,14l26 16 1 -30 0 0zm-187 -180l-1 0c-4,5 -19,11 -25,16l26 14 0 -30 0 0zm-248 216c-3,1 -23,12 -26,15 4,2 8,5 13,7 3,2 9,5 11,8 3,-2 2,-2 2,-7 0,-2 0,-5 0,-7 0,-5 -1,-11 0,-16l0 0zm360 51c-2,-2 -7,-5 -12,-8 -6,-4 -12,-7 -14,-7l0 11 0 0 0 19 26 -15 0 0zm-50 8l0 -3 0 -12 0 -8c-6,3 -19,10 -25,14 1,1 8,6 14,10l1 0c4,2 9,5 10,5l0 -6zm93 -127c-3,-2 -3,-3 -7,-3l0 26c1,3 -1,2 2,3 4,-5 18,-10 24,-15 -3,-3 -14,-9 -19,-11l0 0zm-44 -24c1,-2 1,0 1,-2l-26 -14 0 30c8,-3 17,-10 25,-14l0 0zm-60 -36l-27 -17 -1 32 28 -15 0 0zm-50 127l-27 16 27 16 0 -32 0 0zm124 -46l0 -26c-4,2 -3,2 -7,3 -3,5 -15,8 -20,13l26 15 1 -5 0 0zm-336 71c3,-4 9,-6 13,-9 -2,-3 -23,-15 -27,-16l0 28c1,5 0,2 3,3 1,-2 0,-1 3,-2 0,-1 1,-2 2,-2 3,-2 3,-2 6,-2l0 0zm385 -9c-1,-3 -22,-14 -26,-16l0 26 0 1 0 4c5,-2 22,-12 26,-15l0 0zm-309 9l5 3 6 3 0 -31 -24 14c-2,1 -1,1 -2,2l15 9 0 0zm-201 -47l-2 2c9,4 20,12 28,15l0 -30c-9,3 -17,11 -26,13l0 0zm-39 -49c-4,5 -19,10 -24,15 4,3 23,14 27,15l0 -30 -3 0 0 0zm439 34c-10,4 -21,14 -29,16l28 17c0,-10 -1,-23 1,-33l0 0zm61 37c-5,2 -9,5 -14,8 -3,1 -11,6 -13,8l27 16 0 -32 0 0zm-38 -36l-1 -1 0 33c3,-1 26,-15 27,-17l-26 -15 0 0zm-36 52c0,0 -1,0 -1,-1 0,0 0,0 0,0l-27 -15 0 32c5,-2 23,-13 28,-16l0 0zm12 -124l-24 14c-1,0 -2,1 -2,1 -1,1 -1,1 -2,2l28 15 0 -32 0 0zm-73 87l-29 -16 0 33 29 -17 0 0zm-248 2l-2 -3c-4,-1 -12,-6 -16,-8l-4 -3c0,0 0,0 0,0l-1 -1 -6 -2 0 32c9,-3 19,-13 29,-15l0 0zm310 -37c-3,-2 -26,-15 -29,-16l0 13 0 5 0 6 0 8 29 -16zm-51 -89l-1 0c-5,6 -21,11 -27,17l28 17 0 -34 0 0zm-197 -341c-4,-4 -27,-16 -29,-17l0 33c9,-3 21,-13 29,-16l0 0zm-150 446c2,-3 21,-14 26,-16l-2 -2c-9,-3 -21,-13 -28,-15 2,8 0,25 0,34 4,-2 0,0 4,-1l0 0zm336 -123c-1,-2 0,0 -2,-2l-27 -15 0 33 29 -16 0 0zm12 90l-28 15c-1,1 -1,1 -2,2 1,0 1,1 1,0 0,0 1,1 1,1 1,1 1,1 2,1l10 6c4,3 11,7 16,9l0 -34 0 0zm-86 48c-2,3 -3,3 -6,4 1,2 0,0 1,3 8,3 22,13 28,14l0 -33c-7,2 -15,10 -23,12l0 0zm-58 -1c-3,-1 -3,0 -5,-3 -6,-2 -11,-6 -16,-8l0 34 22 -13c3,-2 5,-2 7,-5 -3,-1 -6,-2 -8,-5l0 0zm63 -202c7,3 12,8 19,10 -2,-7 -1,-26 0,-34 -6,1 -17,9 -23,12 -1,1 -4,2 -4,2 -4,3 -1,0 -3,4 2,0 4,1 6,3l5 3 0 0zm-327 150l0 -28c7,4 19,11 24,14l-5 4 -1 1c-6,2 -12,6 -18,9l0 0zm192 56l0 2 5 4c7,2 19,12 24,13l0 -34c-4,0 -22,12 -29,15l0 0zm205 -69c-3,-4 -25,-16 -30,-18l0 34c8,-3 20,-12 30,-16l0 0zm-176 -376c-2,0 -9,4 -16,8 -6,3 -12,7 -13,9 2,2 25,15 29,17l0 -20 0 -14 0 0zm113 196c-7,-6 -22,-14 -30,-18l0 35c4,-1 12,-6 16,-8l13 -8c1,0 1,-1 1,-1 0,0 0,0 0,0l0 0zm-216 -261l15 0c6,3 12,7 15,10 -3,3 -27,16 -30,17l0 -27 0 0zm186 460c0,6 0,12 0,18 0,5 -1,13 2,16 0,0 0,0 0,-1 1,-1 13,-7 14,-8 5,-3 11,-6 15,-9 -1,0 -1,0 -1,-1 0,0 0,0 -1,0l-21 -13c-1,0 -4,-2 -4,-2 -5,-2 -3,-2 -4,0zm-31 -307l-31 -18 0 36c3,-1 29,-15 31,-18l0 0zm73 269l-25 14c-2,1 -4,3 -6,3 2,4 10,7 14,10 5,2 11,7 17,9l0 -36 0 0zm-64 36c-4,6 -24,12 -29,18l22 13c3,2 6,4 9,5 0,-7 0,-14 0,-20 0,-12 2,-16 -2,-16zm0 -287c-2,3 -27,16 -29,17 2,4 5,5 10,7 7,5 7,4 11,8l10 4c0,-6 1,-33 -2,-36l0 0zm-153 306c2,1 1,0 4,2 2,1 2,1 2,2 7,2 18,10 25,13l0 -36c-5,2 -11,6 -16,9 -3,1 -6,3 -9,5 -3,1 -6,2 -6,5l0 0zm201 -99l16 9 0 -37c-6,2 -28,15 -32,19l16 9 0 0zm-248 -378l16 0 0 1 0 18 0 9c-4,-1 -30,-16 -32,-19l16 -9 0 0zm106 490c6,-3 19,-10 23,-14 -2,-3 -27,-17 -31,-19l0 33c-1,9 -1,2 2,4l6 -4 0 0zm-188 -465l0 -25 0 0 9 0c4,2 8,5 11,5 2,3 3,2 6,4 -2,3 -13,8 -16,11 -2,0 -6,3 -10,5l0 0zm303 399c5,-3 31,-18 33,-20 -4,-3 -27,-17 -32,-19l-1 39 0 0zm33 -93l-2 -1 -30 -17 0 36c0,3 -1,1 2,2 5,-6 27,-13 30,-20l0 0zm-176 -305c-5,3 -31,17 -33,20l33 19 0 -8 0 -31 0 0zm-63 394c-1,1 -1,1 -2,2l-22 13c-4,2 -6,2 -8,6l33 18c1,-5 1,-34 -1,-39l0 0zm178 21c-3,-4 -28,-18 -34,-20l0 10 0 19 1 10 33 -19zm-158 16c0,5 -1,1 2,3 2,-3 28,-18 32,-19 -2,-2 -1,-2 -4,-4l-13 -7c-4,-2 -13,-8 -17,-9l0 36 0 0zm134 -54c0,3 -2,1 7,6l21 13c3,1 3,1 6,2l0 -39 -34 18 0 0zm-63 37c4,3 12,7 18,10 5,3 12,8 17,10l0 -40 -35 20 0 0zm98 -159l-1 -1 0 -39c-4,1 -13,7 -17,9 -6,4 -13,7 -18,11 3,2 32,19 36,20l0 0zm-10 -56c-3,-3 -31,-19 -35,-20l0 40 35 -20 0 0zm-273 177l-1 3 29 17c1,0 1,0 1,0 0,1 0,1 1,1l1 1c2,-1 3,1 3,-8 0,-4 0,-7 0,-11 0,-7 0,-14 0,-21 -11,5 -26,16 -34,18zm87 2l-36 -21 0 42 36 -21 0 0zm125 -286c-2,-2 -4,-3 -7,-5l-29 -16 -1 1 0 40c11,-3 26,-17 37,-20l0 0zm62 251l-37 -22 0 43 37 -21 0 0zm-54 -237l-36 21c2,3 33,20 37,21l-1 -42 0 0zm61 180c-2,2 -6,3 -8,5l-27 15c1,1 1,1 2,2l16 9c6,4 12,8 19,11 0,-8 0,-15 0,-22 0,-3 0,-7 0,-10 0,-1 0,-5 0,-5 -1,-7 0,-4 -2,-5l0 0zm-106 71l0 43c5,-2 13,-8 18,-10l19 -12 -37 -21 0 0zm-86 -337c-5,-4 -13,-8 -19,-12 -5,-2 -16,-9 -19,-10l-1 43c4,-1 15,-7 19,-10 7,-4 14,-8 20,-11l0 0zm-92 0l0 0 1 -1c3,-3 35,-21 37,-21l-1 44c-6,-4 -12,-8 -19,-11 -5,-3 -13,-9 -18,-11l0 0zm268 257l10 -6c-5,-4 -35,-21 -38,-22l0 44c8,-4 20,-14 28,-16l0 0zm-108 79c-3,4 -29,16 -36,22 3,3 14,9 19,12 5,2 15,9 19,10 -1,-7 0,-16 0,-23 0,-5 2,-18 -2,-21l0 0zm-160 4l0 -35c11,6 27,15 30,18 -4,1 -25,13 -27,16 -1,0 -2,0 -3,1l0 0zm115 -327l0 45c4,-1 37,-20 39,-23l-39 -22zm109 143c-1,1 -35,19 -39,23l39 23 0 -46 0 0zm-3 145l-36 21c4,3 15,9 19,12 6,3 16,10 20,10l0 -44 -3 1 0 0zm-121 -2c-1,1 -34,19 -38,22l-2 2c5,2 15,8 20,11 5,3 16,10 21,11l-1 -46 0 0zm55 24c-3,-4 -38,-23 -40,-24l0 47 40 -23 0 0zm8 -275c-4,0 -40,22 -41,24 7,3 13,8 20,12 6,2 16,10 21,10l0 -46 0 0zm55 94c-14,-6 -28,-17 -41,-23l0 48c5,-2 38,-21 41,-25l0 0zm7 85c-5,1 -28,16 -36,20l-5 4 41 23 0 -47zm-140 -208c-3,5 -19,12 -25,17 2,2 38,22 41,23l0 -48c-5,3 -11,8 -16,8zm133 266l0 0c-11,-4 -33,-21 -42,-22l0 48c7,-4 14,-8 21,-12l18 -10c3,-3 2,-1 3,-4l0 0zm-218 -231l0 -37c11,6 28,16 32,19l-3 1c-4,3 -19,12 -29,17l0 0zm219 160c-5,-2 -15,-9 -22,-12 -4,-3 -17,-11 -21,-12l0 49 43 -25 0 0zm-219 75l0 -5c10,-6 36,-21 39,-22l0 49c-6,-2 -15,-9 -22,-12 -4,-2 -12,-7 -17,-10l0 0zm164 -27c-8,3 -14,7 -22,12 -7,4 -15,8 -21,12l43 26 0 -50 0 0zm-69 24l-43 -25c-1,17 0,34 0,51 5,-2 16,-9 21,-13l22 -13 0 0zm63 -178l-22 -14c-8,-4 -15,-9 -22,-13l-1 52 45 -25 0 0zm-39 34c2,2 1,1 2,2 6,5 30,15 33,20 4,1 6,4 10,4l0 -50c-6,1 -38,23 -45,24zm-119 129l0 -40c0,0 1,0 1,0l33 20c-3,2 -21,13 -34,20l0 0zm96 -199c-3,-4 -41,-25 -45,-27l0 52c10,-3 38,-23 45,-25l0 0zm68 116l-45 27c2,2 40,24 45,26l0 -53 0 0zm-6 63l-1 -2c0,0 -1,0 -1,0 -1,-1 -2,-1 -3,-2 -9,-5 -35,-21 -40,-23l0 53 45 -26 0 0zm-158 -176l0 -7c11,-7 39,-22 40,-23l0 53 -40 -23 0 0zm159 105c-2,-4 -7,-4 -11,-8 -8,-3 -27,-17 -35,-19l0 52c11,-4 34,-20 46,-25zm-56 44c-3,1 -44,24 -47,27 5,3 43,25 47,26l0 -53 0 0zm0 -144c-4,1 -44,24 -47,27 8,7 39,21 44,27 2,0 1,-1 3,0 0,-12 -2,-45 0,-54l0 0zm-103 48l0 -42c13,8 33,19 35,22l-35 20 0 0zm0 90l0 -7c6,-4 11,-7 17,-10 7,-4 17,-11 24,-13l0 54 -41 -24zm98 -4c-5,-2 -18,-10 -24,-13 -7,-4 -18,-12 -24,-14l0 55 48 -28 0 0zm5 -18l0 -45c-5,2 -19,11 -24,14 -3,1 -21,12 -23,14 3,3 42,26 47,28l0 -11 0 0zm-103 4l0 -42c14,7 34,19 35,21 -6,5 -16,10 -23,14 -3,2 -7,4 -12,7l0 0zm93 -53l5 -5 -4 -2c-12,-5 -35,-22 -44,-24l0 55c9,-3 35,-22 43,-24l0 0z"/>
  </g>
 </g>
</svg>
