<?xml version="1.0" encoding="UTF-8"?>
<!DOCTYPE svg PUBLIC "-//W3C//DTD SVG 1.1//EN" "http://www.w3.org/Graphics/SVG/1.1/DTD/svg11.dtd">
<!-- Creator: CorelDRAW X7 -->
<svg xmlns="http://www.w3.org/2000/svg" xml:space="preserve" width="4.85123in" height="6.72763in" version="1.1" shape-rendering="geometricPrecision" text-rendering="geometricPrecision" image-rendering="optimizeQuality" fill-rule="evenodd" clip-rule="evenodd"
viewBox="0 0 4851 6728"
 xmlns:xlink="http://www.w3.org/1999/xlink">
 <g id="Layer_x0020_1">
  <metadata id="CorelCorpID_0Corel-Layer"/>
  <g id="_2273969982928">
   <rect fill="#373435" width="4851" height="6728"/>
   <path fill="#EB1C24" fill-rule="nonzero" d="M0 0l4851 0 0 36c-1617,-2 -3234,0 -4851,-1l0 -35zm0 62c1617,0 3234,-1 4851,0l0 68c-1617,0 -3234,0 -4851,0l0 -68zm0 94c1617,0 3234,0 4851,0l0 62c-1617,0 -3234,0 -4851,0l0 -62zm0 90c1617,0 3234,0 4851,0l0 35c-1617,0 -3234,0 -4851,0l0 -35zm0 62c1617,0 3234,0 4851,0l0 67c-1617,0 -3234,0 -4851,0l0 -67zm0 94c1617,0 3234,0 4851,0l0 191c-1617,1 -3234,0 -4851,1l0 -192zm0 221c1617,0 3234,0 4851,0l0 66c-1617,0 -3234,0 -4851,0l0 -66zm0 92c1617,0 3234,1 4851,0l0 35c-1617,0 -3234,0 -4851,0l0 -35zm0 62c1617,0 3234,0 4851,0l0 69c-1617,0 -3234,0 -4851,1l0 -70zm0 95c1617,0 3234,0 4851,0l0 69c-1617,0 -3234,0 -4851,0l0 -69zm0 94c1617,0 3234,0 4851,1l0 36c-1617,0 -3234,0 -4851,0l0 -37zm0 63c1617,0 3234,0 4851,0l0 63c-1617,0 -3234,-1 -4851,0l0 -63zm0 94c1617,0 3234,1 4851,0l0 62c-1617,0 -3234,0 -4851,0l0 -62zm0 91c1617,0 3234,0 4851,1l0 34c-1617,-1 -3234,3 -4851,-2l0 -33zm0 63c1617,0 3234,-1 4851,0l0 39c-1617,0 -3234,0 -4851,0l0 -39zm0 92c1617,0 3234,0 4851,0l0 38c-1617,0 -3234,0 -4851,-1l0 -37zm0 157c1617,0 3234,0 4851,0l0 35c-1617,0 -3234,0 -4851,0l0 -35zm0 96c1617,0 3234,0 4851,0l0 35c-1617,0 -3234,0 -4851,0l0 -35zm0 62c1617,0 3234,0 4851,0l0 66c-1617,0 -3234,0 -4851,0l0 -66zm0 124c1617,0 3234,0 4851,0l0 36c-1617,0 -3234,0 -4851,0l0 -36zm0 189c1617,0 3234,0 4851,0l0 35c-1617,0 -3234,0 -4851,0l0 -35zm0 121c1617,0 3234,0 4851,0l0 36c-1617,0 -3234,0 -4851,0l0 -36zm0 96c1617,0 3234,0 4851,0l0 36c-1617,0 -3234,0 -4851,0l0 -36zm0 121c1617,0 3234,0 4851,0l0 40c-1617,0 -3234,0 -4851,0l0 -40zm0 131c1617,0 3234,0 4851,0l0 35c-1617,0 -3234,0 -4851,0l0 -35zm0 150c1617,0 3234,0 4851,0l0 36c-1617,0 -3234,0 -4851,0l0 -36zm0 95c1617,0 3234,0 4851,0l0 36c-1617,0 -3234,0 -4851,0l0 -36zm0 279c1302,0 2604,1 3906,1 315,9 630,-4 945,-1l0 39c-1617,0 -3234,0 -4851,0l0 -39zm0 129c1617,0 3234,0 4851,0l0 38c-1617,0 -3234,0 -4851,0l0 -38zm0 155c630,5 1260,1 1890,2 987,1 1974,2 2961,-2l0 39c-1617,0 -3234,0 -4851,0l0 -39z"/>
  </g>
 </g>
</svg>
