<?xml version="1.0" encoding="UTF-8"?>
<!DOCTYPE svg PUBLIC "-//W3C//DTD SVG 1.1//EN" "http://www.w3.org/Graphics/SVG/1.1/DTD/svg11.dtd">
<!-- Creator: CorelDRAW X7 -->
<svg xmlns="http://www.w3.org/2000/svg" xml:space="preserve" width="4.85123in" height="6.72763in" version="1.1" shape-rendering="geometricPrecision" text-rendering="geometricPrecision" image-rendering="optimizeQuality" fill-rule="evenodd" clip-rule="evenodd"
viewBox="0 0 4851 6728"
 xmlns:xlink="http://www.w3.org/1999/xlink">
 <g id="Layer_x0020_1">
  <metadata id="CorelCorpID_0Corel-Layer"/>
  <g id="_2274012548016">
   <rect fill="#373435" width="4851" height="6728"/>
   <g>
    <path fill="#FEFEFE" d="M1059 89c8,11 8,11 0,0l0 0zm2209 4560c-9,7 -9,7 0,0l0 0zm524 292c-8,10 -8,10 0,0l0 0zm-261 -122c-8,9 -8,9 0,0l0 0zm-48 95c9,7 9,7 0,0l0 0zm1006 1275c-7,9 -7,9 0,0l0 0zm-2906 -1540c9,7 9,7 0,0l0 0zm-524 292c8,10 8,10 0,0l0 0zm262 -122c7,9 7,9 0,0l0 0zm47 95c-9,7 -9,7 0,0l0 0zm-1005 1275c6,9 6,9 0,0l0 0zm2905 -2234c-9,-7 -9,-7 0,0l0 0zm524 -292c-8,-10 -8,-10 0,0l0 0zm-261 122c-8,-9 -8,-9 0,0l0 0zm-48 -95c9,-7 9,-7 0,0l0 0zm1006 -1274c-7,-10 -7,-10 0,0l0 0zm-697 -2327c-8,11 -8,11 0,0l0 0zm-309 -26c9,7 9,7 0,0l0 0zm1006 1274c-7,9 -7,9 0,0l0 0zm-2906 2618c9,-7 9,-7 0,0l0 0zm-524 -292c8,-10 8,-10 0,0l0 0zm262 122c7,-9 7,-9 0,0l0 0zm47 -95c-9,-7 -9,-7 0,0l0 0zm-1005 -1274c6,-10 6,-10 0,0l0 0zm1005 -2353c-9,7 -9,7 0,0l0 0zm-1005 1274c6,9 6,9 0,0l0 0zm37 -1337l96 0c-15,68 -31,137 -44,205 -27,-50 -63,-102 -121,-118 -36,-17 -71,10 -104,21 43,6 87,14 123,40 47,31 75,82 99,131 29,-94 60,-188 98,-279l26 0c-53,125 -92,256 -129,385 -8,-68 -28,-139 -78,-189 -56,-58 -146,-72 -220,-49 -67,22 -112,80 -146,138l0 -49c19,-34 60,-56 71,-92 -21,13 -48,13 -71,18l0 -26c141,-20 276,-67 400,-136zm559 0l34 0c-29,34 -56,70 -81,105 24,-3 57,11 70,-17 23,-31 50,-58 74,-88l19 0 -11 7 34 7c-12,5 -24,11 -36,17 7,5 20,16 27,21 3,-23 16,-41 38,-50 -32,60 -42,128 -63,191 9,21 18,42 28,63 16,-85 35,-171 55,-256l24 0c-39,165 -69,332 -105,498 -11,-96 -11,-209 -87,-279 -65,-48 -145,5 -197,48 52,-93 108,-185 177,-267zm140 0l29 0 1 2c-8,0 -24,1 -32,1l2 -3zm165 0l25 0c19,85 36,170 57,255 8,-21 16,-42 25,-62 -18,-65 -37,-129 -57,-193l21 0 -10 25 37 -18c-5,12 -12,23 -22,31l8 23 7 -32c4,12 8,23 13,34l8 0c12,-20 3,-47 -14,-63l16 0c28,32 55,65 83,97 15,19 42,4 62,7 -25,-34 -52,-70 -81,-104l34 0c69,82 125,175 178,267 -43,-33 -90,-69 -147,-67 -41,2 -73,34 -90,69 -36,71 -41,152 -47,229 -37,-165 -67,-333 -106,-498zm597 0l27 0c38,91 70,185 97,280 25,-50 53,-102 102,-133 36,-25 81,-33 124,-39 -34,-9 -68,-37 -104,-22 -60,15 -97,68 -124,120 -14,-69 -27,-138 -44,-206l96 0c121,67 253,115 391,135l0 0c137,-20 269,-68 390,-135l96 0c-16,68 -30,137 -44,206 -27,-52 -64,-105 -124,-120 -36,-15 -69,13 -103,22 43,6 87,14 123,39 49,31 77,83 102,133 27,-95 60,-189 97,-280l27 0c-33,80 -61,163 -88,244 -18,49 -26,103 -50,149 0,-3 0,-10 -1,-13 10,-62 -20,-125 -58,-172 -59,-73 -167,-89 -250,-53 -52,23 -90,68 -117,116l0 0 0 0 0 0 0 0c-27,-48 -66,-93 -117,-116 -83,-36 -192,-20 -251,53 -38,47 -67,110 -58,172 0,3 -1,10 -1,13 -24,-46 -32,-100 -50,-149 -27,-81 -54,-164 -88,-244zm1514 0l34 0c-29,34 -55,70 -81,104 20,-3 48,12 62,-7 28,-32 56,-65 83,-97l16 0c-17,16 -25,43 -14,63l8 0c5,-11 10,-22 13,-34l7 32 9 -23c-10,-8 -18,-19 -23,-31l37 18 -9 -25 20 0c-20,64 -38,128 -57,193 9,20 17,41 25,62 21,-85 38,-170 57,-255l25 0c-39,165 -69,333 -106,498 -5,-77 -11,-158 -46,-229 -18,-35 -49,-67 -91,-69 -57,-2 -104,34 -147,67 53,-92 109,-185 178,-267zm305 0l25 0c20,85 38,171 55,256 9,-21 18,-42 28,-63 -22,-63 -32,-131 -64,-191 23,9 35,27 38,50 7,-5 20,-16 27,-21 -12,-6 -24,-12 -36,-17l34 -7 -11 -7 19 0c24,30 52,57 74,88 14,28 47,14 71,17 -26,-35 -53,-71 -82,-105l34 0c69,82 125,174 178,267 -53,-43 -132,-96 -198,-48 -76,70 -76,183 -87,279 -36,-166 -66,-333 -105,-498zm43 0l30 0 1 3c-7,0 -23,-1 -31,-1l0 -2zm555 0l26 0c38,91 69,185 98,279 24,-49 52,-100 100,-131 35,-26 80,-34 123,-40 -34,-11 -69,-38 -105,-21 -58,16 -94,68 -121,118 -13,-68 -28,-137 -43,-205l95 0c124,69 259,116 400,136l0 26c-23,-5 -49,-5 -70,-18 10,36 52,58 70,92l0 49c-34,-58 -79,-116 -145,-138 -75,-23 -165,-9 -221,49 -50,50 -70,121 -77,189 -38,-129 -77,-260 -130,-385zm573 781l0 55c-23,33 -57,58 -76,93 -1,50 7,99 12,149 23,-41 45,-83 64,-126l0 69 -2 -18c-17,33 -40,64 -48,101 16,17 34,32 50,48l0 20c-20,-20 -41,-38 -63,-56 -10,5 -29,15 -39,20 23,23 45,46 68,69 9,-4 26,-13 34,-17l0 26c-10,7 -20,15 -30,22 -5,26 -9,52 -13,78 11,2 32,5 43,6l0 42c-27,19 -56,36 -84,53 11,13 23,26 34,40 17,-10 34,-20 50,-31l0 31c-16,10 -33,20 -50,30 -3,17 -6,34 -8,51 19,-11 39,-22 58,-34l0 39c-154,94 -316,179 -491,226 -105,27 -223,41 -323,-10 -76,-38 -124,-115 -145,-196 -29,-106 -24,-219 0,-325 4,-30 26,-50 49,-68 -22,28 -43,59 -48,95 -28,135 -25,288 55,405 23,39 78,36 114,19 67,-34 110,-98 146,-161 77,-140 124,-294 166,-448 187,-38 373,-132 477,-297zm0 305l0 22c-20,-10 -20,-18 0,-22zm0 1126l0 38c-19,-12 -39,-22 -58,-33 2,17 5,34 8,51 17,10 34,19 50,30l0 30c-16,-10 -33,-20 -50,-30 -11,13 -23,27 -34,40 28,17 57,34 84,53l0 42c-11,1 -32,4 -43,5 4,27 8,53 13,79 10,7 20,14 30,22l0 26c-8,-5 -25,-13 -34,-17 -23,23 -45,46 -68,69 10,5 29,15 39,20 22,-18 43,-36 63,-56l0 20c-16,16 -34,31 -50,48 8,37 31,68 48,101l2 -18 0 69c-19,-43 -41,-85 -64,-126 -5,49 -13,99 -12,148 19,36 53,61 76,94l0 55c-104,-165 -290,-259 -477,-297 -42,-154 -89,-308 -166,-448 -36,-63 -79,-128 -146,-161 -36,-17 -91,-20 -114,19 -80,117 -83,270 -55,405 5,36 26,67 48,95 -23,-18 -45,-38 -49,-68 -24,-107 -29,-220 0,-326 21,-80 69,-157 145,-195 100,-51 218,-37 323,-10 175,47 337,132 491,226zm0 433l0 22c-20,-4 -20,-12 0,-22zm0 823l0 49c-18,34 -60,56 -70,92 21,-13 47,-13 70,-18l0 26c-255,35 -490,163 -677,338 113,-180 175,-385 234,-588 7,69 27,140 77,190 56,58 146,72 221,49 66,-22 111,-80 145,-138zm0 550l0 32c-15,5 -30,11 -45,16 -22,45 -38,93 -63,136 -2,-2 -5,-6 -7,-7 11,-44 36,-83 49,-126 -44,15 -35,67 -58,98l-7 3c3,-27 10,-52 16,-78 -34,19 -68,38 -102,57 17,31 35,62 52,93 -39,18 -76,38 -112,60 36,22 73,42 112,60 -17,31 -35,62 -52,93 34,19 68,38 102,57 -6,-26 -13,-51 -16,-78l7 3c23,31 14,83 58,99 -13,-44 -38,-83 -49,-127 2,-1 5,-5 7,-7 25,43 41,91 63,136 15,5 30,11 45,16l0 32c-173,-52 -327,-155 -453,-284l0 0c126,-129 280,-232 453,-284zm0 104l0 34c-27,47 -53,96 -75,146l13 0 -13 0c22,50 48,99 75,146l0 34c-31,-59 -65,-118 -90,-180l0 0c25,-62 59,-121 90,-180zm0 115l0 40c-3,7 -9,19 -13,25 4,6 10,19 13,25l0 40c-18,-15 -33,-42 -20,-65 -13,-23 2,-50 20,-65zm0 750l0 26c-23,-5 -49,-5 -70,-18 10,36 52,58 70,92l0 49c-34,-58 -79,-115 -145,-138 -75,-23 -165,-9 -221,49 -50,50 -70,121 -77,190 -59,-203 -121,-408 -234,-588 187,175 422,303 677,338zm0 645l0 55c-23,33 -57,58 -76,94 -1,49 7,99 12,148 23,-41 45,-83 64,-126l0 69 -2 -18c-17,33 -40,64 -48,101 16,17 34,32 50,48l0 20c-20,-19 -41,-37 -63,-56 -10,5 -29,15 -39,20 23,23 45,46 68,69 9,-4 26,-12 34,-16l0 25c-10,8 -20,15 -30,22 -5,26 -9,52 -13,79 11,1 32,4 43,5l0 42c-27,19 -56,36 -84,53 11,13 23,27 34,40 17,-10 34,-20 50,-30l0 30c-16,11 -33,20 -50,30 -3,17 -6,34 -8,51 19,-11 39,-21 58,-33l0 38c-154,94 -316,179 -491,226 -105,27 -223,41 -323,-10 -76,-38 -124,-115 -145,-195 -29,-106 -24,-219 0,-326 4,-30 26,-50 49,-68 -22,28 -43,59 -48,95 -28,135 -25,288 55,405 23,39 78,36 114,19 67,-33 110,-98 146,-161 77,-140 124,-294 166,-448 187,-38 373,-132 477,-297zm0 305l0 22c-20,-10 -20,-18 0,-22zm-961 791l-5 0c-68,-118 -159,-222 -251,-321 -95,98 -181,206 -255,321l-6 0c2,-6 7,-18 10,-24 67,-108 105,-234 120,-360 13,-110 -11,-221 -67,-317 74,6 144,36 197,88 54,-52 124,-83 198,-88 -66,111 -84,244 -59,370 19,116 66,226 118,331zm-2412 0l-5 0c-75,-115 -161,-223 -256,-321 -92,99 -183,203 -250,321l-6 0c52,-105 100,-215 119,-331 24,-126 6,-259 -60,-370 74,5 144,36 198,88 53,-52 123,-82 197,-88 -56,96 -80,207 -66,317 14,126 52,252 120,360 2,6 7,18 9,24zm-1478 -336l0 -38c19,12 39,22 59,33 -3,-17 -6,-34 -9,-51 -17,-10 -34,-19 -50,-30l0 -30c17,10 34,20 51,30 11,-13 22,-27 33,-40 -28,-17 -57,-34 -84,-53l0 -42c11,-1 32,-4 43,-5 -4,-27 -8,-53 -12,-79 -11,-7 -21,-14 -31,-22l0 -25c9,4 26,12 34,16 23,-23 46,-46 69,-69 -10,-5 -30,-15 -40,-20 -21,19 -43,37 -63,56l0 -20c16,-16 34,-31 50,-48 -8,-37 -31,-68 -48,-101l-2 18 0 -69c20,43 41,85 64,126 6,-49 13,-99 12,-148 -19,-36 -53,-61 -76,-94l0 -55c104,165 290,259 477,297 42,154 89,308 166,448 36,63 79,128 146,161 36,17 91,20 114,-19 81,-117 83,-270 55,-405 -5,-36 -25,-67 -47,-95 22,18 44,38 49,68 23,107 29,220 -1,326 -20,80 -69,157 -145,195 -100,51 -218,37 -323,10 -175,-47 -337,-132 -491,-226zm0 -433l0 -22c20,4 20,12 0,22zm0 -823l0 -49c19,-34 60,-56 71,-92 -21,13 -48,13 -71,18l0 -26c255,-35 490,-163 677,-338 -112,180 -175,385 -233,588 -8,-69 -28,-140 -78,-190 -56,-58 -146,-72 -220,-49 -67,23 -112,80 -146,138zm0 -550l0 -32c15,-5 30,-11 45,-16 22,-45 38,-93 63,-136 2,2 5,6 7,7 -11,44 -36,83 -49,127 44,-16 35,-68 58,-99l7 -3c-3,27 -10,52 -16,78 34,-19 68,-38 102,-57 -17,-31 -35,-62 -51,-93 38,-18 75,-38 112,-60 -37,-22 -74,-42 -112,-60 16,-31 34,-62 51,-93 -34,-19 -68,-38 -102,-57 6,26 13,51 16,78l-7 -3c-23,-31 -14,-83 -58,-98 13,43 38,82 49,126 -2,1 -5,5 -7,7 -25,-43 -41,-91 -63,-136 -15,-5 -30,-11 -45,-16l0 -32c173,52 327,155 453,284l0 0c-126,129 -280,232 -453,284zm0 -104l0 -34c27,-47 53,-96 75,-146l-12 0 12 0c-22,-50 -48,-99 -75,-146l0 -34c32,59 65,118 90,180 -25,62 -58,121 -90,180zm0 -115l0 -40c3,-6 10,-19 13,-25 -3,-6 -10,-18 -13,-25l0 -40c19,15 34,42 20,65 14,23 -1,50 -20,65zm0 -750l0 -26c23,5 50,5 71,18 -11,-36 -52,-58 -71,-92l0 -49c34,58 79,116 146,138 74,23 164,9 220,-49 50,-50 70,-121 78,-190 58,203 121,408 233,588 -187,-175 -422,-303 -677,-338zm0 -645l0 -55c23,-33 57,-58 76,-94 1,-49 -6,-99 -12,-148 -23,41 -44,83 -64,126l0 -69 2 18c17,-33 40,-64 48,-101 -16,-17 -34,-32 -50,-48l0 -20c20,20 42,38 63,56 10,-5 30,-15 40,-20 -23,-23 -46,-46 -69,-69 -8,4 -25,12 -34,17l0 -26c10,-8 20,-15 31,-22 4,-26 8,-52 12,-79 -11,-1 -32,-4 -43,-5l0 -42c27,-19 56,-36 84,-53 -11,-13 -22,-27 -33,-40 -17,10 -34,20 -51,30l0 -30c16,-11 33,-20 50,-30 3,-17 6,-34 9,-51 -20,11 -40,21 -59,33l0 -38c154,-94 316,-179 491,-226 105,-27 223,-41 323,10 76,38 125,115 145,195 30,106 24,219 1,326 -5,30 -27,50 -49,68 22,-28 42,-59 47,-95 28,-135 26,-288 -55,-405 -23,-39 -78,-36 -114,-19 -67,33 -110,98 -146,161 -77,140 -124,294 -166,448 -187,38 -373,132 -477,297zm0 -305l0 -22c20,10 20,18 0,22zm0 -1126l0 -39c19,12 39,23 59,34 -3,-17 -6,-34 -9,-51 -17,-10 -34,-20 -50,-30l0 -31c17,11 34,21 51,31 11,-14 22,-27 33,-40 -28,-17 -57,-34 -84,-53l0 -42c11,-1 32,-4 43,-6 -4,-26 -8,-52 -12,-78 -11,-7 -21,-15 -31,-22l0 -26c9,4 26,13 34,17 23,-23 46,-46 69,-69 -10,-5 -30,-15 -40,-20 -21,18 -43,36 -63,56l0 -20c16,-16 34,-31 50,-48 -8,-37 -31,-68 -48,-101l-2 18 0 -69c20,43 41,85 64,126 6,-50 13,-99 12,-149 -19,-35 -53,-60 -76,-93l0 -55c104,165 290,259 477,297 42,154 89,308 166,448 36,63 79,127 146,161 36,17 91,20 114,-19 81,-117 83,-270 55,-405 -5,-36 -25,-67 -47,-95 22,18 44,38 49,68 23,106 29,219 -1,325 -20,81 -69,158 -145,196 -100,51 -218,37 -323,10 -175,-47 -337,-132 -491,-226zm0 -433l0 -22c20,4 20,12 0,22zm4690 3194c6,38 12,76 22,113 2,0 7,0 10,0 3,-6 10,-19 13,-26 0,-30 -24,-56 -33,-84l9 -3 -9 -3c9,-28 33,-54 33,-84 -3,-7 -10,-20 -13,-26 -3,0 -8,0 -10,0 -10,37 -16,75 -22,113zm-189 0c-6,17 -18,24 -36,20 4,-5 10,-15 13,-20l0 0c-3,-5 -9,-15 -13,-20 18,-4 30,3 36,20zm164 67c-14,26 -29,51 -44,77 -17,-11 -33,-22 -50,-33 -8,-34 -15,-67 -20,-101 39,18 76,38 114,57zm-130 -59c6,28 11,57 16,86 -25,-18 -49,-38 -72,-58 19,-10 37,-19 56,-28zm-630 -8c7,17 14,35 21,53 -35,-17 -65,-45 -104,-53l0 0c39,-8 69,-36 104,-53 -7,18 -14,36 -21,53zm-126 0l0 0c53,21 107,42 154,75 18,18 26,43 39,64 -75,-55 -160,-95 -248,-126l36 -13 -36 -13c88,-31 173,-71 248,-126 -13,21 -21,46 -39,64 -47,33 -101,54 -154,75zm-50 0l-4 7 -6 -1 2 -6 0 0 -2 -6 6 -1 4 7zm-31 0c-9,13 -19,26 -28,40 45,2 90,8 131,27 115,49 212,132 305,215 -82,-78 -135,-180 -180,-282 45,-102 98,-204 180,-282 -93,83 -190,166 -305,215 -41,19 -86,25 -131,27 9,14 19,27 28,40zm-278 0c-22,23 -51,39 -79,54 5,-14 17,-41 22,-54l0 0c-5,-13 -17,-40 -22,-53 28,14 57,30 79,53zm-79 0c-37,87 -83,170 -141,245 116,-93 241,-202 399,-206 -12,-19 -28,-32 -48,-39 2,6 5,18 6,24 -8,-6 -25,-18 -33,-24l8 32c-15,-11 -30,-22 -45,-32 15,-10 30,-21 45,-32l-8 32c8,-6 25,-18 33,-24 -1,6 -4,18 -6,24 20,-7 36,-20 48,-39 -158,-4 -283,-113 -399,-206 58,75 104,158 141,245zm162 26c-73,30 -144,67 -207,114 11,-21 21,-44 35,-64 35,-23 73,-41 111,-58 20,-10 43,-5 61,8zm-731 -26l0 0 -16 -6c19,-8 37,-15 57,-23l-26 28c20,0 61,-1 81,-1 -124,-125 -273,-227 -442,-279l0 0c-169,52 -319,154 -443,279 20,0 61,1 81,1l-25 -28c19,8 38,15 57,23l-17 6 0 0 17 6c-19,8 -38,15 -57,23l25 -28c-20,0 -61,1 -81,1 124,125 274,227 443,280l0 0c169,-53 318,-155 442,-280 -20,0 -61,-1 -81,-1l26 28c-20,-8 -38,-15 -57,-23l16 -6zm-69 0c-42,17 -81,41 -122,62 18,30 35,60 52,91 -27,16 -54,31 -83,45 -25,3 -47,18 -68,31 13,-30 26,-60 39,-89 -6,-6 -12,-11 -17,-16 -7,40 -25,76 -43,112 -9,4 -26,11 -35,14 -9,-3 -27,-10 -36,-14 -18,-36 -36,-72 -42,-112 -6,5 -12,10 -18,16 14,29 27,59 40,89 -22,-13 -43,-28 -69,-31 -29,-14 -56,-29 -83,-45 17,-31 35,-61 52,-91 -41,-21 -80,-45 -122,-62l0 0c42,-17 81,-41 122,-62 -17,-30 -35,-60 -52,-91 27,-16 54,-31 83,-45 26,-3 47,-18 69,-31 -13,30 -26,60 -40,89 6,6 12,11 18,16 6,-40 24,-76 42,-112 9,-4 27,-11 36,-14 9,3 26,10 35,14 18,36 36,72 43,112 5,-5 11,-10 17,-16 -13,-29 -26,-59 -39,-89 21,13 43,28 68,31 29,14 56,29 83,45 -17,31 -34,61 -52,91 41,21 80,45 122,62zm84 34c-21,23 -46,42 -70,61 0,-12 1,-35 1,-47 -23,12 -9,46 -26,63 -14,12 -30,23 -46,33 -15,-26 -29,-51 -44,-77 36,-12 71,-50 107,-42l10 2c4,-3 13,-9 17,-12 19,1 35,12 51,19zm-221 -34c-16,33 -30,67 -45,101 6,2 17,5 23,7 -7,18 -13,36 -20,54 5,9 10,19 15,28 11,-63 28,-126 40,-190 -12,-64 -29,-127 -40,-190 -5,9 -10,19 -15,29 7,18 13,36 20,54 -6,1 -17,4 -23,6 15,34 29,68 45,101zm-73 0l0 0c-22,43 -41,87 -65,129l-2 -14 0 0 0 0 0 0 0 0 -3 14c-24,-42 -43,-86 -65,-129 22,-43 41,-87 65,-129l3 14 0 0 0 0 0 0 0 0 2 -14c24,42 43,86 65,129zm-67 167l0 0 0 0 0 0 0 0c29,-55 58,-110 82,-167 -24,-57 -53,-112 -82,-167l0 0 0 0 0 0 0 0c-29,55 -58,110 -83,167 25,57 54,112 83,167zm9 -167l0 0c17,-15 4,-39 -9,-51l0 0 0 0 0 0c-14,12 -27,36 -10,51 -17,15 -4,39 10,51l0 0 0 0 0 0c13,-12 26,-36 9,-51zm1218 139c-18,-8 -38,-1 -56,-1 5,18 8,37 11,55 7,-3 21,-8 28,-11 118,90 217,202 307,319 -3,-31 -23,-68 -1,-97 22,-10 48,-6 68,-20 -46,-17 -97,5 -96,58 -18,-25 -38,-49 -59,-73 27,-45 80,-11 117,-36 -44,-8 -98,-17 -128,24 -7,-8 -20,-24 -27,-32 57,-44 126,-12 185,10 -4,4 -43,11 -24,23 31,19 67,30 93,58 -12,-6 -35,-18 -47,-23 -9,4 -17,9 -26,13 53,11 96,48 140,77 -33,-73 -92,-130 -155,-177 -100,-73 -213,-126 -330,-167zm53 35c22,10 43,19 64,30l-25 6c-10,-6 -29,-18 -39,-24 2,11 6,21 8,32 -14,-2 -27,-8 -38,-18 7,-8 14,-15 21,-22l-28 -12c10,2 28,6 37,8zm107 48c1,18 -45,19 -43,0 14,-9 29,-9 43,0zm16 78c-5,4 -15,13 -21,18 -32,-32 -61,-68 -100,-92 2,-2 5,-6 6,-8l6 -3c39,24 78,50 109,85zm107 -10c-31,-2 -61,-4 -92,1 -16,-15 -32,-30 -47,-45 50,-1 98,14 139,44zm-353 -136c-23,3 -68,10 -70,36 18,1 34,-12 52,-12 -5,5 -15,14 -20,19l10 10c10,-4 28,-12 37,-16 -44,42 -90,81 -132,125 -6,-4 -19,-14 -25,-18 20,-16 40,-31 61,-46 -18,-11 -36,-22 -54,-33 12,0 37,-1 49,-2 5,10 10,20 15,30 16,-14 32,-27 49,-40 -14,0 -28,1 -42,4 -4,-5 -12,-14 -16,-19l-8 -3c-142,64 -288,152 -362,295 38,-22 71,-61 118,-62 -4,-8 -8,-16 -12,-24l-33 16c36,-35 85,-55 133,-69 29,-10 60,-1 79,23 -20,24 -41,49 -59,75 -7,-19 -6,-44 -25,-56 -18,-5 -37,-8 -55,-9 -4,7 -12,19 -16,25 22,-1 58,-19 73,8 13,32 -3,66 -9,98 82,-116 180,-220 288,-311 -7,-6 -23,-18 -31,-23 1,-5 4,-16 5,-21zm-111 92c-16,15 -33,30 -50,45 -30,-4 -60,-4 -91,-1 41,-30 90,-45 141,-44zm-22 76c-9,12 -17,24 -26,35 -25,-28 -64,-30 -94,-50 41,-9 83,-4 120,15zm-117 9c-22,4 -42,17 -65,16 6,-18 30,-24 46,-30 12,-1 18,4 19,14zm1015 187c18,78 36,157 51,237 27,-51 63,-103 121,-119 36,-17 71,10 105,22 -43,5 -88,14 -123,40 -48,30 -76,81 -100,131 -38,-126 -81,-251 -138,-370 28,20 56,40 84,59zm128 95c-21,15 -41,31 -61,48 -7,-33 -14,-66 -21,-98 27,16 54,33 82,50zm-1378 -269c-186,173 -419,302 -672,341 -254,-39 -486,-168 -673,-341 93,137 145,295 196,450 18,49 26,102 50,148 0,-3 1,-9 1,-12 -9,-63 20,-125 58,-173 59,-72 168,-89 251,-53 51,23 90,68 117,117l0 0 0 0 0 0 0 0c27,-49 65,-94 117,-117 83,-36 191,-19 250,53 38,48 68,110 58,173 1,3 1,9 1,12 24,-46 32,-99 50,-148 52,-155 104,-313 196,-450zm-672 367c23,-5 47,-9 71,-13 -25,24 -50,49 -71,76 -22,-27 -47,-52 -72,-76 24,4 48,8 72,13l0 0zm576 -251c-54,119 -100,243 -136,369 -25,-50 -53,-102 -102,-133 -36,-25 -80,-33 -123,-39 34,-9 67,-37 103,-22 60,15 97,69 124,120 16,-78 32,-156 51,-233 25,-24 55,-42 83,-62zm-129 103c-7,33 -14,66 -21,99 -19,-17 -38,-32 -57,-49 24,-19 52,-34 78,-50zm932 -105c-48,-42 -103,-86 -171,-84 65,221 103,448 151,673 11,-95 11,-208 87,-278 66,-49 145,4 198,47 -73,-129 -154,-257 -265,-358zm135 196c-24,-2 -57,11 -71,-17 -33,-45 -77,-83 -104,-133 -7,8 -13,16 -20,24 10,7 31,21 42,29l-34 6c12,6 24,11 36,17 -7,5 -20,16 -27,22 -3,-24 -15,-42 -38,-50 32,59 42,127 64,190 -10,21 -19,43 -28,64 -20,-99 -41,-197 -64,-295 -4,-16 -10,-33 -4,-49 2,-1 8,-1 11,-2 7,30 26,60 20,91 8,0 24,1 31,1 -8,-13 -24,-39 -33,-52 8,0 23,1 31,1 -15,-19 -31,-37 -48,-53 -17,-10 -39,-20 -37,-45 119,45 200,152 273,251zm-128 -64c0,17 -24,31 -39,31 -3,-19 23,-34 39,-31zm25 22c-4,8 -14,23 -18,31 21,-15 39,-10 54,13 -31,17 -58,40 -78,69 -18,-29 -10,-74 30,-78 -11,-3 -22,-6 -33,-8l-12 -3c16,-15 36,-23 57,-24zm116 59c13,21 26,42 40,63 -38,-11 -82,-20 -118,1 -55,30 -76,93 -94,149 -27,-47 2,-99 24,-141 28,-53 89,-84 148,-72zm-321 -297c-61,-2 -114,36 -159,74 -117,101 -199,235 -276,368 43,-33 90,-69 147,-67 42,2 73,34 91,69 35,71 41,152 46,230 50,-225 88,-452 151,-674zm-34 31c-36,132 -61,266 -93,399 -8,-21 -16,-42 -25,-62 30,-103 60,-205 92,-307 -63,69 -120,141 -182,211 -14,20 -42,5 -62,8 72,-99 152,-205 270,-249zm-86 131c3,10 11,29 14,38l-37 -17c5,12 13,22 23,31l-9 23 -7 -33c-3,12 -8,23 -13,34l-8 1c-16,-29 7,-69 37,-77zm-50 92l-9 4c-38,-9 15,-35 9,-4zm9 7c-2,-2 -7,-5 -9,-7 2,2 7,5 9,7zm10 9l-8 0 -2 -9c3,2 8,7 10,9zm-6 80c-23,-26 -50,-50 -80,-68 6,-6 20,-20 26,-26 41,11 77,51 54,94zm15 171c-20,-58 -37,-125 -95,-158 -36,-23 -81,-14 -121,-4 15,-21 29,-43 44,-65 118,-15 201,122 172,227zm1161 -42c-26,-20 -62,-19 -90,-5 -41,21 -55,93 -7,115 -17,-32 -22,-80 16,-100 52,-26 105,22 124,69 -20,52 -46,119 -109,129 -71,6 -123,-51 -169,-96 31,134 22,273 20,409 93,-27 187,-72 244,-154 53,-76 59,-177 33,-264 -12,-38 -28,-79 -62,-103zm47 150c1,31 2,61 1,92 -65,54 -154,68 -233,39 -2,-29 -5,-59 -8,-88 43,29 97,59 150,40 42,-11 66,-50 90,-83zm-6 125c-23,85 -95,141 -168,183 -7,0 -19,0 -25,-1 -9,6 -25,18 -33,24 1,-55 -4,-109 4,-163 16,39 25,82 23,125 9,-2 19,-4 28,-6 35,-73 101,-126 171,-162zm-126 52c-16,18 -33,37 -49,55 -4,-20 -9,-40 -14,-59 21,1 42,3 63,4zm-1871 -337c-44,-18 -94,10 -115,51 -51,96 -58,222 1,316 55,88 153,136 250,164 0,-138 -14,-280 24,-415 -46,49 -101,108 -174,101 -62,-11 -87,-76 -108,-128 19,-43 63,-89 115,-73 43,14 50,71 22,103 57,-18 35,-105 -15,-119zm-26 246c51,12 99,-16 140,-43 -3,29 -5,58 -7,87 -78,31 -168,16 -233,-38 -2,-30 -1,-60 0,-90 27,34 54,76 100,84zm94 226c-83,-34 -163,-96 -186,-187 80,41 147,106 186,187zm38 -144c1,53 0,106 2,159 -13,-5 -39,-5 -32,-27 4,-44 6,-92 30,-132zm-36 5c-6,20 -10,40 -15,60 -15,-18 -31,-37 -47,-56 21,-1 41,-3 62,-4zm1401 132c13,-150 -23,-299 -76,-439 1,99 -29,213 -121,266 -23,18 -54,4 -68,-18 -38,-47 -28,-112 -15,-166 19,-35 58,-60 99,-49 6,19 13,39 21,58 -6,-25 2,-63 -27,-74 -41,-17 -85,17 -103,52 -26,104 -1,221 65,305 53,67 146,84 225,65zm-62 -325c9,35 20,71 13,107 10,9 16,19 17,32 8,53 12,107 9,160 -49,-51 -29,-128 -28,-191 -40,57 -85,117 -157,135 -12,-18 -24,-36 -36,-55 100,-1 157,-104 182,-188zm-12 173c1,26 2,53 5,80 -21,-8 -42,-16 -63,-23 20,-18 40,-37 58,-57zm50 132c-67,8 -138,-10 -184,-62 65,2 134,17 184,62zm-752 -352c-19,-35 -64,-69 -104,-49 -31,17 -20,56 -14,83 2,-27 -5,-73 35,-72 48,5 86,50 83,99 12,55 -5,139 -71,147 -106,-40 -138,-163 -145,-265 -50,135 -86,280 -72,425 50,21 111,12 159,-10 85,-40 122,-136 138,-222 4,-45 4,-92 -9,-136zm-45 235c-22,37 -48,75 -87,96 -41,22 -88,23 -134,20 48,-41 112,-55 172,-63 -66,-25 -111,-82 -145,-141 1,65 24,145 -26,198 -9,-101 18,-198 37,-296 28,83 84,186 183,186zm-112 42c-21,8 -42,15 -63,23 3,-26 5,-52 7,-77 18,18 37,37 56,54zm420 -149c-7,-15 -14,-31 -21,-47 -9,26 -18,52 -28,78l13 -2c3,15 1,39 21,43 4,-24 7,-48 15,-72zm17 41c-6,1 -18,4 -24,6 9,16 19,17 29,5l-5 -11zm-59 -1c-20,-3 -16,38 -24,52 -1,12 3,17 11,16 2,-6 6,-17 8,-22l6 -13c0,-8 -1,-25 -1,-33zm67 31c-5,-1 -14,-3 -19,-4 7,25 14,50 18,76 -33,-15 -21,-57 -25,-85 -3,4 -11,11 -14,14 -10,26 7,52 6,78 7,1 22,3 29,4 9,14 13,29 11,45l26 -2c-12,-42 -24,-83 -32,-126zm106 11c-16,163 14,326 12,489 10,-37 16,-81 49,-104 28,-20 63,-19 95,-17 -110,-88 -128,-239 -156,-368zm93 340c-5,3 -14,7 -19,9 -13,-6 -23,-35 -7,-42 14,7 22,18 26,33zm-50 -30c4,24 14,49 2,73 -19,-13 -16,-36 -19,-55 4,-5 13,-13 17,-18zm-200 -306c-3,0 -10,0 -14,-1 0,12 -1,35 -2,46 -13,-4 -26,-7 -38,-11 0,54 -32,110 -25,162 24,-24 30,-62 55,-86 14,47 -9,86 -44,116 4,9 8,17 13,26 9,-31 32,-66 65,-72 68,39 87,127 88,200 -3,0 -10,0 -14,0 -1,17 -3,49 -4,66l30 -4c9,-83 -2,-165 -8,-248 -5,-3 -15,-10 -20,-13 2,16 6,46 8,62 -17,-24 -34,-47 -54,-68 0,-17 1,-33 2,-50 6,-12 10,-25 11,-39 -12,2 -22,7 -31,15 2,21 4,42 5,64 -8,-1 -24,-2 -32,-2 0,-22 2,-44 -2,-65 -2,-3 -8,-9 -11,-12l-5 -4c-5,10 -16,30 -21,39 -5,-22 7,-42 24,-56 3,2 10,5 13,7 23,-13 4,-51 11,-72zm-160 485c6,-163 33,-327 14,-490 -22,130 -46,275 -150,367 34,1 71,0 98,24 29,25 32,64 38,99zm-11 -238c11,14 9,38 -1,52 -16,-4 -19,-51 1,-52zm-21 16c-4,22 -6,44 -16,64 4,10 9,20 14,30l7 -50c23,17 13,46 15,71 -19,-19 -45,-28 -70,-37 18,-25 34,-51 50,-78zm274 -134c-6,-1 -18,-2 -24,-3 2,16 12,55 33,48 -2,-11 -7,-34 -9,-45zm1046 212c3,31 5,63 8,95 -20,-21 -42,-39 -67,-55 20,-13 39,-27 59,-40zm9 137c-106,-35 -214,19 -311,59 4,-12 10,-36 13,-48 73,-22 143,-53 208,-93 42,13 71,45 90,82zm3 29c-11,6 -33,17 -44,22 24,27 50,51 74,77 0,11 -5,16 -16,17 -26,-24 -48,-52 -72,-78 -24,11 -49,21 -73,32 24,28 48,56 69,87l-23 1c-26,-27 -45,-58 -68,-87 -25,14 -50,28 -74,43 22,27 43,54 64,82 -8,3 -25,10 -33,13 -19,-30 -38,-59 -57,-89 -31,21 -62,44 -101,49 12,-38 24,-75 34,-114 76,-36 155,-69 238,-76 29,-4 57,6 82,21zm-328 -9c-40,152 -88,303 -167,441 -41,70 -91,140 -161,185 -17,14 -39,15 -60,10 51,-30 101,-65 134,-115 109,-153 161,-336 214,-514 13,-2 26,-5 40,-7zm326 135c-16,6 -32,12 -49,18 -18,-23 -36,-45 -55,-68 11,-5 33,-15 44,-19 20,22 41,45 60,69zm-97 42c-16,8 -33,15 -49,22 -19,-24 -38,-48 -56,-72 16,-9 31,-18 47,-27 19,26 39,51 58,77zm135 -17c-4,23 -9,46 -13,68 19,3 37,7 56,10 -23,23 -51,39 -78,55 4,-36 9,-72 14,-108 -5,1 -17,3 -22,4 3,29 -1,59 -5,88 -18,-6 -36,-12 -54,-17 8,-27 16,-53 24,-79 14,-7 27,-13 41,-20 7,8 15,17 23,25 0,-12 0,-34 0,-46 3,5 10,15 14,20zm-246 64c-16,6 -32,13 -48,19 -13,-22 -27,-44 -41,-65 11,-7 31,-21 41,-28 16,25 32,49 48,74zm152 -32c-4,12 -9,23 -14,35 -13,3 -25,5 -38,5 2,35 -11,68 -19,102 -12,-2 -36,-6 -48,-8 -7,1 -21,5 -28,6 24,29 64,5 94,21 -39,7 -77,18 -113,33 3,-28 23,-59 15,-86 -25,11 -17,46 -27,67 -17,1 -33,1 -50,1 13,-29 10,-60 0,-90 6,7 16,21 22,28 -2,-34 26,-48 54,-55 0,9 0,26 0,34 23,-12 15,-50 48,-54 -7,24 -15,49 -25,72 5,8 9,16 14,23 7,-34 18,-66 28,-99 13,-6 27,-12 40,-18 8,5 17,10 26,15l-4 -25c6,-2 19,-6 25,-7zm-247 -1c5,12 11,23 16,34 -7,0 -21,-2 -27,-2 4,9 12,28 16,37 -17,6 -35,12 -52,18 -4,-24 -8,-48 -11,-72 8,-5 24,-15 32,-20l7 24c6,-6 12,-12 19,-19zm219 49c-6,48 54,40 83,58 -36,19 -75,32 -110,52 8,-37 8,-78 27,-110zm-282 17c14,16 -6,49 -25,36 -8,-14 7,-48 25,-36zm69 31c-16,40 -34,80 -50,119 -23,-7 -46,-14 -69,-22 31,-42 61,-91 119,-97zm8 33l5 9c-3,4 -10,13 -13,17 0,-6 0,-17 -1,-23l9 -3zm301 79c-24,-18 -51,-33 -79,-45 21,-6 43,-18 64,-9 13,15 10,36 15,54zm-309 -53l5 13c-13,27 -32,-22 -5,-13zm304 94c-59,-26 -126,-20 -183,8 -114,59 -238,106 -367,113 10,-14 20,-28 30,-42 126,-28 241,-89 362,-131 58,-21 124,0 158,52zm-237 -52c-35,16 -69,33 -106,42 2,-20 7,-39 14,-57 6,6 12,12 17,17 25,-2 50,-2 75,-2zm-119 35c0,4 1,11 1,15 -47,18 -94,35 -142,49 17,-30 34,-61 51,-92 30,9 60,17 90,28zm336 36c-99,59 -204,109 -312,148 -101,35 -209,62 -317,45 25,-21 51,-42 75,-64 138,0 271,-49 393,-111 49,-26 107,-36 161,-18zm-1858 -481c-182,-36 -362,-127 -468,-283l0 0 0 0 0 0 0 0c-107,156 -287,247 -469,283 -48,173 -100,349 -198,501 -41,59 -99,126 -177,119 -39,0 -57,-38 -73,-67 -53,-99 -48,-215 -40,-324 3,-49 23,-95 47,-138 -41,37 -51,93 -55,146 -6,109 -10,224 43,324 41,89 137,144 233,150 104,9 208,-18 306,-53 134,-50 261,-116 383,-190 122,74 249,140 382,190 98,35 202,62 307,53 96,-6 191,-61 233,-150 52,-100 49,-215 42,-324 -4,-53 -14,-109 -55,-146 25,43 44,89 47,138 9,109 13,225 -40,324 -16,29 -34,67 -72,67 -79,7 -137,-60 -177,-119 -99,-152 -151,-328 -199,-501zm-468 -231c21,28 46,54 70,79 -5,52 -8,103 -13,155 -21,-35 -40,-71 -57,-108l0 0 0 0 0 0 0 0c-17,37 -36,73 -58,108 -5,-52 -8,-103 -13,-155 24,-25 49,-51 71,-79zm0 173c16,27 31,54 46,81 -15,15 -31,29 -46,44 -16,-15 -31,-29 -47,-44 15,-27 30,-54 47,-81zm0 146l0 0 0 0 0 0c17,-17 35,-34 53,-50 10,5 29,15 39,20 -28,24 -48,70 -92,64l0 0c-44,6 -65,-40 -93,-64 10,-5 29,-15 39,-20 18,16 36,33 54,50zm0 49c29,25 29,65 35,99 -8,2 -26,4 -35,6 -9,-2 -27,-4 -36,-6 7,-34 7,-74 36,-99zm0 152c24,17 49,32 74,48 -11,13 -21,26 -31,40 -15,-9 -29,-17 -43,-25l0 13 0 0 -1 -13c-14,8 -28,16 -42,25 -11,-14 -21,-27 -32,-40 25,-16 51,-31 75,-48zm0 92c14,10 28,19 43,28 2,16 4,33 7,49 -17,-9 -34,-19 -50,-29l0 12 0 0 -1 -12c-16,10 -33,20 -49,29 2,-16 4,-33 7,-49 14,-9 29,-18 43,-28zm145 -476c-26,15 -48,34 -68,56 4,-33 7,-66 10,-99 19,14 38,29 58,43zm231 108c4,15 7,31 11,47 -97,-41 -204,-93 -311,-59 20,-37 49,-69 90,-82 66,40 137,71 210,94zm18 72c11,38 22,76 34,114 -39,-4 -70,-28 -101,-50 -19,30 -36,62 -59,89 -5,-2 -17,-5 -22,-7 -1,-35 39,-59 56,-89 -25,-14 -50,-28 -76,-41 -22,30 -41,62 -68,88l-22 -3c22,-30 46,-58 69,-87 -24,-10 -48,-21 -73,-31 -30,24 -50,86 -94,71 25,-30 54,-58 80,-87 -11,-5 -32,-16 -43,-21 26,-19 58,-26 90,-22 80,10 156,42 229,76zm49 -56c41,146 86,291 157,424 43,85 105,161 191,204 -20,6 -39,4 -56,-7 -76,-47 -129,-123 -172,-199 -75,-135 -123,-282 -160,-431 10,2 30,7 40,9zm-264 76c-18,24 -37,47 -56,70 -16,-7 -31,-14 -47,-21 20,-22 40,-44 60,-67 11,4 33,13 43,18zm100 43c-19,24 -38,48 -57,72 -16,-7 -32,-14 -48,-22 19,-26 38,-51 57,-77 16,9 32,18 48,27zm-204 167c-25,-17 -55,-30 -70,-57 15,-3 31,-6 47,-8 -6,-31 -11,-61 -11,-92 32,45 21,105 34,157zm275 -85c8,-1 22,-2 29,-2 -7,15 -16,30 -24,45 -22,-12 -47,-19 -70,-27 15,-26 31,-51 48,-76 21,15 58,34 17,60zm-234 -28c8,26 17,53 24,80 -18,5 -35,10 -53,15 -5,-39 -11,-77 -16,-116 15,7 30,14 45,21zm322 22c-5,18 -6,37 -4,55 6,-4 17,-11 23,-14 3,17 7,35 11,52 -10,-7 -21,-13 -32,-18 -23,-5 -45,-12 -66,-19 11,-24 22,-47 37,-69 8,3 23,10 31,13zm-284 -2l4 11c-17,24 -33,-24 -4,-11zm65 26c11,35 22,70 33,105 -13,0 -37,0 -50,0 -10,-42 -20,-84 -31,-126 16,7 32,14 48,21zm-56 -10c5,44 17,87 28,129 28,1 55,2 82,2 -12,-39 -26,-77 -35,-117 16,8 23,28 39,35l7 -6c27,-21 40,25 60,29l8 -5c6,5 11,10 17,16 61,-20 92,48 124,86 -23,7 -46,14 -69,21 -16,-35 -32,-70 -43,-107 -5,6 -11,13 -16,19 21,33 35,71 51,107 33,-10 67,-21 100,-30 16,31 33,62 50,92 -89,-27 -176,-61 -261,-99 26,0 52,0 78,0 -2,-21 -11,-38 -26,-50 1,7 2,21 3,28 -17,1 -34,1 -50,0 -10,-25 -4,-61 -28,-78 -9,27 12,66 16,97 -75,-24 -150,-50 -219,-89 26,-9 52,-18 78,-26 -11,-19 -1,-37 6,-54zm334 137c-16,6 -39,-18 -32,-34 17,-6 38,17 32,34zm-356 2c-26,12 -52,27 -77,41 4,-17 4,-35 14,-50 21,-10 43,1 63,9zm94 35c117,43 230,101 353,129 11,14 22,28 32,42 -127,-7 -248,-52 -361,-109 -57,-30 -125,-39 -186,-15 32,-55 104,-68 162,-47zm15 86c122,63 256,112 395,112 23,22 48,42 71,64 -91,14 -183,-3 -270,-30 -125,-39 -242,-97 -355,-161 51,-22 110,-9 159,15zm1030 -674c-18,-31 -32,-71 -69,-82 -33,3 -48,36 -67,57 5,9 10,18 15,26 4,-28 22,-63 53,-67 33,19 50,58 53,94 5,-9 10,-19 15,-28zm-159 -88c-2,2 -7,6 -10,9 -15,109 -16,221 19,327 4,-27 8,-54 11,-81 -20,-20 -15,-52 -16,-78 8,23 11,48 16,72 11,-44 13,-96 48,-130 58,-19 70,58 78,98l11 1c-1,-34 -9,-69 -30,-98 -18,-28 -66,-27 -82,3 -12,20 -21,41 -32,62 7,-23 1,-46 -7,-67 -4,10 -12,31 -16,41 4,-38 16,-74 25,-111 -8,-15 -9,-32 -15,-48zm26 96c-33,-4 -4,37 7,8l-7 -8zm146 32c-16,-27 -34,33 -7,23 2,-6 5,-17 7,-23zm407 92c-51,-16 -103,-27 -152,-48 53,42 80,108 89,174l16 -1c-5,-31 -12,-62 -19,-93 36,16 23,65 19,95 -3,2 -11,6 -15,8 12,67 1,134 0,201 41,-97 64,-201 70,-306 -5,0 -16,0 -21,1 -8,32 1,68 -10,101 -12,-41 11,-89 -19,-123 19,4 38,8 57,12l-15 -21zm-57 2c8,20 1,26 -21,17 -8,-20 -1,-26 21,-17zm-777 -51c-21,9 -42,21 -66,20 0,17 0,33 0,50 -15,0 -29,-3 -42,-9 8,-4 24,-12 32,-16 -25,-39 -48,11 -42,39 -41,4 -2,-26 -16,-47l-23 19c-1,40 4,80 7,120l14 -2c6,-27 -17,-70 16,-85 -11,29 5,79 -29,94 16,72 33,144 67,209 -13,-59 -10,-121 -14,-180 -22,-22 -9,-60 -22,-87 6,-2 18,-4 24,-6 -9,25 -11,51 -7,77l9 0c7,-30 9,-62 22,-90 -14,0 -31,5 -38,-12 20,-2 39,-4 58,-5l-14 -9c19,-28 40,-56 64,-80zm445 66c-13,-1 -27,-1 -40,-1 6,33 9,66 12,100 11,-33 20,-66 28,-99zm-1 188c-54,76 -81,167 -102,258 -20,-91 -51,-179 -100,-259 38,20 72,49 98,83 30,-33 63,-65 104,-82zm-220 27c51,80 77,172 95,264 -34,35 -65,72 -99,107 32,-121 40,-250 4,-371zm233 8c-34,119 -24,245 6,364 -33,-36 -65,-73 -99,-107 19,-89 41,-181 93,-257zm-968 133c-36,4 19,36 0,0zm-2619 -1956c-7,38 -13,76 -22,113 -3,0 -8,0 -10,0 -4,-6 -11,-19 -14,-26 0,-30 24,-56 33,-84l-9 -3 9 -3c-9,-28 -33,-54 -33,-84 3,-7 10,-20 14,-26 2,0 7,0 10,0 9,37 15,75 22,113zm189 0c5,17 17,24 35,20 -4,-5 -10,-15 -13,-20l0 0c3,-5 9,-15 13,-20 -18,-4 -30,3 -35,20l0 0zm-165 67c15,26 29,51 44,77 17,-11 33,-22 50,-33 9,-34 15,-67 20,-101 -39,18 -76,38 -114,57zm130 -59c-6,28 -11,57 -15,86 24,-18 48,-38 71,-58 -18,-10 -37,-19 -56,-28zm630 -8c-7,17 -14,35 -21,53 35,-17 65,-45 105,-53 -40,-8 -70,-36 -105,-53 7,18 14,36 21,53zm127 0c-54,21 -108,42 -155,75 -17,18 -26,43 -39,64 75,-55 160,-95 248,-126l-36 -13 36 -13c-88,-31 -173,-71 -248,-126 13,21 22,46 39,64 47,33 101,54 155,75zm50 0l3 7 6 -1 -2 -6 0 0 2 -6 -6 -1 -3 7zm30 0c10,13 19,26 29,40 -45,2 -90,8 -132,27 -115,49 -212,132 -304,215 81,-78 134,-180 179,-282 -45,-102 -98,-204 -179,-282 92,83 189,166 304,215 42,19 87,25 132,27 -10,14 -19,27 -29,40zm211 0l0 0c-15,-10 -30,-21 -45,-32l8 32c-8,-6 -25,-18 -33,-24 1,6 4,18 6,24 -20,-7 -36,-20 -48,-39 158,-4 283,-113 400,-206 -59,75 -104,158 -142,245 38,87 84,170 142,245 -117,-93 -242,-202 -400,-206 12,-19 28,-32 48,-39 -2,6 -5,18 -6,24 8,-6 25,-18 33,-24l-8 32c15,-11 30,-22 45,-32zm67 0c23,23 51,39 79,54 -5,-14 -16,-41 -22,-54l0 0c6,-13 17,-40 22,-53 -28,14 -56,30 -79,53zm-83 26c74,30 144,67 207,114 -11,-21 -20,-44 -35,-64 -35,-23 -73,-41 -111,-58 -20,-10 -43,-5 -61,8zm716 8c21,23 46,42 71,61 -1,-12 -2,-35 -2,-47 23,12 10,46 26,63 14,12 31,23 46,33 15,-26 30,-51 44,-77 -36,-12 -70,-50 -107,-42l-10 2c-4,-3 -13,-9 -17,-12 -18,1 -34,12 -51,19zm208 -34l0 0c12,-64 29,-127 41,-190 4,9 9,19 14,29 -7,18 -13,36 -20,54 6,1 17,4 23,6 -15,34 -29,68 -45,101 16,33 30,67 45,101 -6,2 -17,5 -23,7 7,18 13,36 20,54 -5,9 -10,19 -14,28 -12,-63 -29,-126 -41,-190zm-1074 139c18,-8 38,-1 56,-1 -5,18 -8,37 -10,55 -8,-3 -22,-8 -29,-11 -118,90 -217,202 -307,319 3,-31 23,-68 1,-97 -22,-10 -48,-6 -68,-20 46,-17 98,5 96,58 19,-25 39,-49 59,-73 -27,-45 -80,-11 -117,-36 44,-8 98,-17 128,24 7,-8 21,-24 27,-32 -57,-44 -126,-12 -185,10 4,4 43,11 24,23 -31,19 -67,30 -92,58 11,-6 35,-18 46,-23 9,4 18,9 26,13 -53,11 -95,48 -140,77 33,-73 92,-130 155,-177 100,-73 214,-126 330,-167zm-53 35c-21,10 -43,19 -63,30l24 6c10,-6 29,-18 39,-24 -2,11 -5,21 -8,32 14,-2 27,-8 38,-18 -7,-8 -14,-15 -21,-22l28 -12c-9,2 -28,6 -37,8zm-107 48c-1,18 45,19 44,0 -15,-9 -30,-9 -44,0zm-16 78c6,4 16,13 21,18 32,-32 61,-68 100,-92 -1,-2 -4,-6 -6,-8l-6 -3c-39,24 -78,50 -109,85zm-107 -10c31,-2 62,-4 92,1 16,-15 32,-30 48,-45 -51,-1 -99,14 -140,44zm353 -136c23,3 68,10 70,36 -18,1 -34,-12 -52,-12 5,5 15,14 20,19l-10 10c-9,-4 -27,-12 -36,-16 43,42 90,81 131,125 7,-4 19,-14 25,-18 -20,-16 -40,-31 -61,-46 18,-11 36,-22 55,-33 -13,0 -37,-1 -50,-2 -4,10 -10,20 -15,30 -16,-14 -32,-27 -49,-40 14,0 28,1 43,4 4,-5 12,-14 16,-19l7 -3c143,64 288,152 362,295 -38,-22 -71,-61 -118,-62 4,-8 8,-16 13,-24l32 16c-36,-35 -85,-55 -132,-69 -30,-10 -60,-1 -80,23 20,24 41,49 59,75 8,-19 6,-44 25,-56 18,-5 37,-8 56,-9 4,7 11,19 15,25 -22,-1 -57,-19 -72,8 -13,32 2,66 8,98 -82,-116 -180,-220 -288,-311 8,-6 23,-18 31,-23 -1,-5 -4,-16 -5,-21zm111 92c17,15 33,30 50,45 30,-4 61,-4 91,-1 -41,-30 -90,-45 -141,-44zm22 76c9,12 17,24 26,35 25,-28 64,-30 94,-50 -41,-9 -82,-4 -120,15zm117 9c22,4 43,17 65,16 -6,-18 -30,-24 -46,-30 -12,-1 -18,4 -19,14zm-1015 187c-18,78 -35,157 -51,237 -27,-51 -63,-103 -121,-119 -36,-17 -71,10 -104,22 43,5 87,14 123,40 47,30 75,81 99,131 39,-126 82,-251 138,-370 -28,20 -56,40 -84,59zm-127 95c20,15 41,31 60,48 7,-33 14,-66 21,-98 -27,16 -54,33 -81,50zm1473 -153c54,119 100,243 136,369 25,-50 53,-102 102,-133 36,-25 81,-33 124,-39 -34,-9 -68,-37 -104,-22 -60,15 -97,69 -124,120 -15,-78 -31,-156 -50,-233 -26,-24 -56,-42 -84,-62zm129 103c7,33 14,66 21,99 19,-17 39,-32 57,-49 -24,-19 -51,-34 -78,-50zm-932 -105c48,-42 104,-86 171,-84 -64,221 -102,448 -151,673 -11,-95 -11,-208 -87,-278 -65,-49 -145,4 -197,47 73,-129 153,-257 264,-358zm-134 196c24,-2 57,11 70,-17 33,-45 78,-83 104,-133 7,8 14,16 20,24 -10,7 -31,21 -42,29l34 6c-12,6 -24,11 -36,17 7,5 20,16 27,22 3,-24 16,-42 38,-50 -32,59 -42,127 -63,190 9,21 18,43 28,64 19,-99 40,-197 64,-295 3,-16 9,-33 4,-49 -3,-1 -9,-1 -12,-2 -7,30 -26,60 -19,91 -8,0 -24,1 -32,1 8,-13 25,-39 33,-52 -8,0 -23,1 -31,1 15,-19 31,-37 49,-53 17,-10 39,-20 36,-45 -119,45 -200,152 -272,251zm127 -64c0,17 24,31 40,31 2,-19 -23,-34 -40,-31zm-25 22c5,8 14,23 19,31 -22,-15 -40,-10 -54,13 30,17 57,40 77,69 18,-29 10,-74 -30,-78 11,-3 22,-6 33,-8l12 -3c-16,-15 -35,-23 -57,-24zm-116 59c-12,21 -26,42 -40,63 39,-11 82,-20 118,1 55,30 76,93 94,149 27,-47 -2,-99 -24,-141 -28,-53 -89,-84 -148,-72zm321 -297c62,-2 114,36 159,74 117,101 200,235 276,368 -43,-33 -90,-69 -147,-67 -41,2 -73,34 -90,69 -36,71 -41,152 -47,230 -50,-225 -88,-452 -151,-674zm35 31c35,132 60,266 92,399 8,-21 16,-42 25,-62 -29,-103 -59,-205 -92,-307 63,69 121,141 182,211 15,20 42,5 62,8 -72,-99 -152,-205 -269,-249zm86 131c-4,10 -11,29 -15,38l37 -17c-5,12 -12,22 -22,31l8 23 7 -33c4,12 8,23 13,34l8 1c16,-29 -7,-69 -36,-77zm50 92l8 4c38,-9 -15,-35 -8,-4zm-10 7c3,-2 7,-5 10,-7 -3,2 -7,5 -10,7zm-10 9l9 0 1 -9c-2,2 -7,7 -10,9zm6 80c23,-26 50,-50 80,-68 -6,-6 -20,-20 -26,-26 -40,11 -77,51 -54,94zm-15 171c21,-58 38,-125 95,-158 37,-23 81,-14 121,-4 -15,-21 -29,-43 -43,-65 -118,-15 -201,122 -173,227zm-1161 -42c26,-20 62,-19 90,-5 42,21 55,93 8,115 17,-32 22,-80 -17,-100 -52,-26 -105,22 -123,69 20,52 46,119 109,129 70,6 122,-51 168,-96 -31,134 -22,273 -20,409 -93,-27 -187,-72 -244,-154 -53,-76 -58,-177 -32,-264 12,-38 27,-79 61,-103zm-47 150c-1,31 -2,61 0,92 64,54 153,68 232,39 3,-29 5,-59 8,-88 -43,29 -96,59 -150,40 -42,-11 -65,-50 -90,-83zm7 125c22,85 95,141 168,183 6,0 18,0 24,-1 9,6 25,18 34,24 -2,-55 3,-109 -5,-163 -16,39 -25,82 -22,125 -10,-2 -19,-4 -29,-6 -35,-73 -100,-126 -170,-162zm125 52c17,18 33,37 49,55 5,-20 9,-40 14,-59 -21,1 -42,3 -63,4zm1871 -337c45,-18 94,10 115,51 51,96 58,222 -1,316 -55,88 -153,136 -250,164 0,-138 14,-280 -24,-415 46,49 102,108 175,101 61,-11 86,-76 107,-128 -19,-43 -63,-89 -115,-73 -43,14 -50,71 -22,103 -57,-18 -35,-105 15,-119zm26 246c-51,12 -99,-16 -140,-43 3,29 5,58 7,87 78,31 169,16 233,-38 2,-30 2,-60 0,-90 -27,34 -54,76 -100,84zm-94 226c83,-34 163,-96 186,-187 -79,41 -147,106 -186,187zm-37 -144c-2,53 0,106 -3,159 13,-5 39,-5 32,-27 -3,-44 -6,-92 -29,-132zm36 5c5,20 10,40 14,60 16,-18 31,-37 47,-56 -21,-1 -41,-3 -61,-4zm-1402 132c-12,-150 24,-299 76,-439 -1,99 29,213 121,266 23,18 54,4 68,-18 38,-47 29,-112 15,-166 -19,-35 -58,-60 -98,-49 -7,19 -14,39 -22,58 6,-25 -2,-63 27,-74 41,-17 85,17 103,52 26,104 2,221 -64,305 -54,67 -147,84 -226,65zm62 -325c-9,35 -20,71 -13,107 -10,9 -16,19 -17,32 -8,53 -12,107 -9,160 49,-51 29,-128 28,-191 40,57 85,117 157,135 12,-18 24,-36 36,-55 -99,-1 -157,-104 -182,-188zm12 173c-1,26 -2,53 -5,80 21,-8 42,-16 63,-23 -20,-18 -39,-37 -58,-57zm-50 132c67,8 139,-10 184,-62 -65,2 -134,17 -184,62zm752 -352c19,-35 64,-69 105,-49 30,17 19,56 13,83 -1,-27 5,-73 -34,-72 -49,5 -86,50 -84,99 -11,55 5,139 71,147 106,-40 138,-163 146,-265 49,135 85,280 71,425 -50,21 -110,12 -159,-10 -84,-40 -122,-136 -137,-222 -5,-45 -5,-92 8,-136zm45 235c23,37 48,75 88,96 40,22 88,23 133,20 -48,-41 -111,-55 -172,-63 66,-25 111,-82 145,-141 -1,65 -24,145 27,198 9,-101 -19,-198 -38,-296 -28,83 -83,186 -183,186zm112 42c21,8 42,15 63,23 -2,-26 -5,-52 -6,-77 -19,18 -38,37 -57,54zm-420 -149c7,-15 14,-31 21,-47 9,26 19,52 29,78l-14 -2c-3,15 -1,39 -20,43 -5,-24 -8,-48 -16,-72zm-17 41c6,1 18,4 24,6 -9,16 -18,17 -28,5l4 -11zm59 -1c20,-3 16,38 24,52 1,12 -2,17 -11,16 -2,-6 -6,-17 -8,-22l-6 -13c0,-8 1,-25 1,-33zm-67 31c5,-1 14,-3 19,-4 -7,25 -13,50 -18,76 33,-15 21,-57 25,-85 4,4 11,11 15,14 10,26 -8,52 -7,78 -7,1 -22,3 -29,4 -9,14 -13,29 -11,45l-25 -2c11,-42 24,-83 31,-126zm-106 11c16,163 -14,326 -12,489 -10,-37 -15,-81 -49,-104 -27,-20 -63,-19 -95,-17 110,-88 128,-239 156,-368zm-93 340c5,3 15,7 20,9 13,-6 22,-35 6,-42 -14,7 -22,18 -26,33zm51 -30c-4,24 -15,49 -3,73 20,-13 17,-36 19,-55 -4,-5 -12,-13 -16,-18zm199 -306c3,0 11,0 14,-1 1,12 1,35 2,46 13,-4 26,-7 39,-11 -1,54 31,110 24,162 -24,-24 -30,-62 -55,-86 -14,47 9,86 44,116 -4,9 -8,17 -13,26 -9,-31 -31,-66 -65,-72 -68,39 -87,127 -88,200 4,0 10,0 14,0 1,17 3,49 4,66l-30 -4c-9,-83 3,-165 8,-248 5,-3 15,-10 20,-13 -2,16 -5,46 -7,62 17,-24 34,-47 53,-68 0,-17 -1,-33 -2,-50 -6,-12 -10,-25 -11,-39 12,2 22,7 32,15 -3,21 -5,42 -6,64 8,-1 24,-2 32,-2 0,-22 -1,-44 2,-65 3,-3 8,-9 11,-12l5 -4c6,10 16,30 22,39 5,-22 -7,-42 -25,-56 -3,2 -9,5 -13,7 -23,-13 -4,-51 -11,-72zm160 485c-6,-163 -33,-327 -13,-490 21,130 46,275 149,367 -33,1 -71,0 -97,24 -29,25 -33,64 -39,99zm11 -238c-11,14 -9,38 1,52 17,-4 19,-51 -1,-52zm22 16c3,22 6,44 15,64 -4,10 -9,20 -14,30l-7 -50c-23,17 -13,46 -15,71 20,-19 45,-28 70,-37 -17,-25 -34,-51 -49,-78zm-275 -134c6,-1 19,-2 25,-3 -3,16 -13,55 -34,48 2,-11 7,-34 9,-45zm-1046 212c-3,31 -5,63 -8,95 20,-21 42,-39 67,-55 -20,-13 -39,-27 -59,-40zm-9 137c106,-35 214,19 311,59 -3,-12 -10,-36 -13,-48 -73,-22 -143,-53 -208,-93 -42,13 -71,45 -90,82zm-2 29c10,6 32,17 43,22 -24,27 -50,51 -73,77 -1,11 4,16 16,17 26,-24 48,-52 71,-78 25,11 49,21 73,32 -24,28 -48,56 -69,87l24 1c25,-27 45,-58 67,-87 25,14 50,28 74,43 -21,27 -43,54 -64,82 8,3 25,10 33,13 19,-30 39,-59 57,-89 31,21 63,44 101,49 -12,-38 -23,-75 -34,-114 -75,-36 -154,-69 -238,-76 -29,-4 -57,6 -81,21zm327 -9c40,152 89,303 167,441 41,70 91,140 161,185 18,14 40,15 61,10 -52,-30 -102,-65 -135,-115 -108,-153 -161,-336 -214,-514 -13,-2 -26,-5 -40,-7zm-325 135c16,6 32,12 48,18 18,-23 36,-45 55,-68 -11,-5 -33,-15 -43,-19 -21,22 -41,45 -60,69zm97 42c16,8 32,15 48,22 19,-24 38,-48 56,-72 -15,-9 -31,-18 -47,-27 -19,26 -38,51 -57,77zm-136 -17c5,23 9,46 13,68 -18,3 -37,7 -55,10 22,23 50,39 78,55 -5,-36 -10,-72 -15,-108 6,1 17,3 23,4 -4,29 0,59 5,88 18,-6 36,-12 54,-17 -9,-27 -17,-53 -25,-79 -14,-7 -27,-13 -41,-20 -7,8 -15,17 -22,25 0,-12 -1,-34 -1,-46 -3,5 -10,15 -14,20zm246 64c16,6 32,13 48,19 14,-22 27,-44 41,-65 -10,-7 -31,-21 -41,-28 -16,25 -32,49 -48,74zm-152 -32c5,12 9,23 15,35 12,3 24,5 37,5 -2,35 11,68 19,102 12,-2 36,-6 48,-8 7,1 21,5 28,6 -24,29 -64,5 -94,21 39,7 77,18 114,33 -4,-28 -23,-59 -16,-86 25,11 18,46 27,67 17,1 34,1 50,1 -13,-29 -10,-60 0,-90 -6,7 -16,21 -22,28 2,-34 -25,-48 -54,-55 0,9 0,26 0,34 -23,-12 -15,-50 -47,-54 6,24 14,49 24,72 -5,8 -9,16 -14,23 -7,-34 -18,-66 -28,-99 -13,-6 -26,-12 -39,-18 -9,5 -18,10 -27,15l5 -25c-7,-2 -20,-6 -26,-7zm248 -1c-6,12 -11,23 -16,34 6,0 20,-2 27,-2 -4,9 -13,28 -17,37 17,6 35,12 52,18 4,-24 8,-48 12,-72 -8,-5 -25,-15 -33,-20l-7 24c-6,-6 -12,-12 -18,-19zm-220 49c6,48 -54,40 -82,58 36,19 74,32 109,52 -7,-37 -7,-78 -27,-110zm282 17c-14,16 7,49 26,36 7,-14 -7,-48 -26,-36zm-69 31c16,40 34,80 51,119 22,-7 45,-14 68,-22 -31,-42 -60,-91 -119,-97zm-8 33l-5 9c3,4 10,13 13,17 0,-6 1,-17 1,-23l-9 -3zm-301 79c25,-18 51,-33 79,-45 -20,-6 -42,-18 -64,-9 -13,15 -10,36 -15,54zm309 -53l-4 13c12,27 32,-22 4,-13zm-304 94c59,-26 127,-20 183,8 115,59 238,106 368,113 -11,-14 -21,-28 -31,-42 -126,-28 -241,-89 -362,-131 -58,-21 -124,0 -158,52zm238 -52c34,16 68,33 105,42 -2,-20 -7,-39 -14,-57 -6,6 -11,12 -17,17 -25,-2 -50,-2 -74,-2zm119 35c-1,4 -1,11 -2,15 47,18 94,35 143,49 -18,-30 -35,-61 -52,-92 -29,9 -60,17 -89,28zm-336 36c98,59 203,109 311,148 101,35 209,62 317,45 -25,-21 -50,-42 -75,-64 -138,0 -271,-49 -393,-111 -49,-26 -107,-36 -160,-18zm2181 -576c25,15 47,34 67,56 -4,-33 -7,-66 -9,-99 -20,14 -39,29 -58,43zm-232 108c-4,15 -7,31 -11,47 97,-41 204,-93 311,-59 -20,-37 -49,-69 -90,-82 -66,40 -136,71 -210,94zm-18 72c-10,38 -22,76 -34,114 39,-4 70,-28 101,-50 19,30 36,62 59,89 6,-2 17,-5 23,-7 0,-35 -40,-59 -56,-89 25,-14 50,-28 75,-41 22,30 41,62 68,88l22 -3c-21,-30 -46,-58 -69,-87 24,-10 49,-21 73,-31 30,24 50,86 94,71 -25,-30 -53,-58 -80,-87 11,-5 32,-16 43,-21 -26,-19 -58,-26 -89,-22 -81,10 -157,42 -230,76zm-49 -56c-40,146 -86,291 -157,424 -43,85 -105,161 -191,204 21,6 40,4 57,-7 75,-47 128,-123 171,-199 75,-135 123,-282 160,-431 -10,2 -30,7 -40,9zm264 76c18,24 37,47 56,70 16,-7 31,-14 47,-21 -20,-22 -40,-44 -60,-67 -11,4 -32,13 -43,18zm-99 43c18,24 37,48 57,72 15,-7 31,-14 47,-22 -19,-26 -38,-51 -57,-77 -16,9 -32,18 -47,27zm204 167c24,-17 54,-30 70,-57 -16,-3 -32,-6 -47,-8 5,-31 10,-61 11,-92 -33,45 -21,105 -34,157zm-276 -85c-7,-1 -22,-2 -29,-2 7,15 16,30 24,45 23,-12 47,-19 71,-27 -16,-26 -32,-51 -48,-76 -22,15 -59,34 -18,60zm234 -28c-8,26 -16,53 -24,80 18,5 35,10 53,15 6,-39 11,-77 16,-116 -15,7 -30,14 -45,21zm-321 22c4,18 5,37 3,55 -6,-4 -17,-11 -22,-14 -4,17 -8,35 -12,52 10,-7 21,-13 33,-18 22,-5 44,-12 66,-19 -12,-24 -23,-47 -38,-69 -7,3 -23,10 -30,13zm283 -2l-4 11c17,24 34,-24 4,-11zm-65 26c-11,35 -22,70 -33,105 13,0 38,0 50,0 10,-42 21,-84 31,-126 -16,7 -32,14 -48,21zm56 -10c-5,44 -17,87 -28,129 -27,1 -54,2 -81,2 12,-39 25,-77 35,-117 -17,8 -24,28 -40,35l-6 -6c-28,-21 -41,25 -60,29l-9 -5c-5,5 -11,10 -17,16 -60,-20 -92,48 -123,86 23,7 46,14 69,21 15,-35 31,-70 42,-107 6,6 11,13 16,19 -21,33 -35,71 -50,107 -34,-10 -67,-21 -101,-30 -16,31 -33,62 -50,92 89,-27 176,-61 261,-99 -26,0 -52,0 -78,0 2,-21 11,-38 26,-50 -1,7 -2,21 -2,28 16,1 33,1 50,0 10,-25 3,-61 27,-78 9,27 -12,66 -16,97 75,-24 150,-50 219,-89 -26,-9 -52,-18 -78,-26 12,-19 2,-37 -6,-54zm-334 137c16,6 39,-18 32,-34 -17,-6 -38,17 -32,34zm356 2c27,12 52,27 78,41 -5,-17 -5,-35 -15,-50 -21,-10 -43,1 -63,9zm-93 35c-118,43 -231,101 -354,129 -11,14 -21,28 -32,42 127,-7 249,-52 361,-109 57,-30 126,-39 186,-15 -32,-55 -104,-68 -161,-47zm-16 86c-122,63 -256,112 -395,112 -23,22 -48,42 -71,64 91,14 183,-3 270,-30 125,-39 242,-97 356,-161 -52,-22 -111,-9 -160,15zm-1030 -674c18,-31 32,-71 70,-82 32,3 47,36 66,57 -5,9 -10,18 -15,26 -4,-28 -21,-63 -53,-67 -33,19 -49,58 -53,94 -5,-9 -10,-19 -15,-28zm159 -88c3,2 7,6 10,9 15,109 16,221 -18,327 -5,-27 -9,-54 -12,-81 20,-20 15,-52 16,-78 -8,23 -11,48 -16,72 -11,-44 -13,-96 -48,-130 -58,-19 -70,58 -78,98l-11 1c2,-34 10,-69 30,-98 18,-28 66,-27 82,3 12,20 21,41 33,62 -8,-23 -2,-46 7,-67 4,10 11,31 15,41 -4,-38 -16,-74 -25,-111 9,-15 10,-32 15,-48zm-25 96c32,-4 3,37 -7,8l7 -8zm-147 32c16,-27 34,33 7,23 -2,-6 -5,-17 -7,-23zm-407 92c51,-16 103,-27 152,-48 -53,42 -79,108 -89,174l-16 -1c5,-31 12,-62 19,-93 -36,16 -22,65 -19,95 4,2 11,6 15,8 -12,67 0,134 1,201 -41,-97 -65,-201 -71,-306 6,0 16,0 21,1 8,32 -1,68 10,101 12,-41 -10,-89 19,-123 -19,4 -37,8 -56,12l14 -21zm57 2c-8,20 -1,26 21,17 8,-20 1,-26 -21,-17zm777 -51c21,9 43,21 66,20 0,17 0,33 0,50 15,0 29,-3 42,-9 -8,-4 -23,-12 -31,-16 24,-39 48,11 41,39 41,4 2,-26 16,-47l23 19c1,40 -4,80 -7,120l-13 -2c-7,-27 16,-70 -17,-85 11,29 -5,79 29,94 -16,72 -33,144 -66,209 12,-59 9,-121 14,-180 21,-22 8,-60 21,-87 -6,-2 -18,-4 -24,-6 9,25 11,51 7,77l-9 0c-7,-30 -9,-62 -22,-90 14,0 31,5 38,-12 -19,-2 -39,-4 -58,-5l14 -9c-19,-28 -39,-56 -64,-80zm-445 66c13,-1 27,-1 40,-1 -5,33 -9,66 -12,100 -11,-33 -20,-66 -28,-99zm1 188c54,76 81,167 102,258 20,-91 51,-179 100,-259 -38,20 -72,49 -98,83 -30,-33 -63,-65 -104,-82zm221 27c-52,80 -78,172 -96,264 34,35 65,72 99,107 -31,-121 -40,-250 -3,-371zm-234 8c34,119 24,245 -6,364 33,-36 65,-73 99,-107 -19,-89 -40,-181 -93,-257zm968 133c37,4 -18,36 0,0zm2595 -2023c-14,-26 -29,-51 -44,-77 -17,11 -33,22 -50,33 -8,34 -15,67 -20,101 39,-18 76,-37 114,-57zm-130 59c6,-28 11,-57 16,-86 -25,18 -49,38 -72,58 19,10 37,19 56,28zm-1032 -18c-73,-30 -144,-67 -207,-114 11,21 21,44 35,64 35,23 73,41 111,58 20,10 43,5 61,-8zm-716 -8c-21,-23 -46,-42 -70,-61 0,12 1,35 1,47 -23,-12 -9,-46 -26,-63 -14,-12 -30,-23 -46,-33 -15,26 -29,51 -44,77 36,12 71,50 107,42l10 -2c4,3 13,9 17,12 19,-1 35,-12 51,-19zm866 -105c-18,8 -38,1 -56,1 5,-18 8,-37 11,-55 7,3 21,8 28,11 118,-90 217,-202 307,-319 -3,31 -23,68 -1,97 22,10 48,6 68,21 -46,16 -97,-6 -96,-59 -18,25 -38,49 -59,73 27,45 80,11 117,36 -44,8 -98,17 -128,-24 -7,8 -20,24 -27,32 57,44 126,12 185,-10 -4,-4 -43,-11 -24,-23 31,-19 67,-30 93,-58 -12,6 -35,18 -47,23 -9,-4 -17,-9 -26,-13 53,-11 96,-48 140,-77 -33,73 -92,130 -155,177 -100,73 -213,126 -330,167zm53 -35c22,-10 43,-19 64,-30l-25 -6c-10,6 -29,18 -39,24 2,-11 6,-21 8,-32 -14,2 -27,8 -38,18 7,8 14,15 21,22l-28 12c10,-2 28,-6 37,-8zm107 -48c1,-18 -45,-19 -43,0 14,9 29,9 43,0zm16 -78c-5,-4 -15,-13 -21,-18 -32,32 -61,68 -100,92 2,2 5,6 6,8l6 3c39,-24 78,-50 109,-85zm107 10c-31,2 -61,4 -92,-1 -16,15 -32,30 -47,45 50,1 98,-14 139,-44zm-353 136c-23,-3 -68,-10 -70,-36 18,-1 34,12 52,12 -5,-5 -15,-14 -20,-19l10 -10c10,4 28,12 37,16 -44,-42 -90,-81 -132,-125 -6,4 -19,14 -25,18 20,16 40,31 61,46 -18,11 -36,22 -54,33 12,0 37,1 49,2 5,-10 10,-20 15,-30 16,14 32,27 49,40 -14,0 -28,-1 -42,-4 -4,5 -12,14 -16,19l-8 3c-142,-64 -288,-152 -362,-295 38,22 71,61 118,62 -4,8 -8,16 -12,24l-33 -16c36,35 85,55 133,69 29,10 60,1 79,-23 -20,-24 -41,-49 -59,-75 -7,19 -6,44 -25,56 -18,5 -37,8 -55,9 -4,-7 -12,-19 -16,-25 22,1 58,19 73,-8 13,-32 -3,-66 -9,-98 82,116 180,220 288,312 -7,5 -23,17 -31,22 1,5 4,16 5,21zm-111 -91c-16,-16 -33,-31 -50,-46 -30,4 -60,4 -91,1 41,30 90,45 141,45zm-22 -77c-9,-12 -17,-24 -26,-35 -25,28 -64,30 -94,50 41,9 83,4 120,-15zm-117 -9c-22,-4 -42,-17 -65,-16 6,18 30,24 46,30 12,1 18,-4 19,-14zm1015 -187c18,-78 36,-157 51,-236 27,50 63,102 121,118 36,17 71,-10 105,-22 -43,-5 -88,-14 -123,-40 -48,-30 -76,-81 -100,-131 -38,126 -81,251 -138,370 28,-20 56,-40 84,-59zm128 -95c-21,-15 -41,-31 -61,-48 -7,33 -14,66 -21,98 27,-16 54,-33 82,-50zm-1378 269c-186,-173 -419,-302 -672,-341l0 0c-254,39 -486,168 -673,341 93,-137 145,-295 196,-450 18,-49 26,-102 50,-148 0,3 1,9 1,12 -9,63 20,125 58,173 59,72 168,89 251,53 51,-23 90,-68 117,-117l0 0 0 0 0 0 0 0c27,49 65,94 117,117 83,36 191,19 250,-53 38,-48 68,-110 58,-173 1,-3 1,-9 1,-12 24,46 32,99 50,148 52,155 104,313 196,450zm-672 -367c23,5 47,9 71,13 -25,-24 -50,-49 -71,-76 -22,27 -47,52 -72,76 24,-4 48,-8 72,-13l0 0zm576 251c-54,-119 -100,-243 -136,-369 -25,50 -53,102 -102,133 -36,25 -80,33 -123,39 34,9 67,37 103,22 60,-15 97,-69 124,-120 16,78 32,156 51,234 25,23 55,41 83,61zm-129 -103c-7,-33 -14,-66 -21,-99 -19,17 -38,32 -57,49 24,19 52,34 78,50zm932 105c-48,42 -103,86 -171,84 65,-221 103,-448 151,-673 11,95 11,208 87,278 66,49 145,-4 198,-47 -73,129 -154,257 -265,358zm135 -196c-24,2 -57,-11 -71,17 -33,45 -77,83 -104,133 -7,-8 -13,-16 -20,-23 10,-8 31,-22 42,-29l-34 -7c12,-6 24,-11 36,-17 -7,-5 -20,-16 -27,-22 -3,24 -15,42 -38,51 32,-60 42,-128 64,-191 -10,-21 -19,-42 -28,-64 -20,99 -41,197 -64,295 -4,16 -10,33 -4,50 2,0 8,0 11,1 7,-30 26,-60 20,-91 8,0 24,-1 31,-1 -8,13 -24,39 -33,52 8,0 23,-1 31,-1 -15,19 -31,37 -48,53 -17,10 -39,20 -37,45 119,-45 200,-152 273,-251zm-128 64c0,-17 -24,-31 -39,-31 -3,19 23,34 39,31zm25 -22c-4,-8 -14,-23 -18,-31 21,15 39,10 54,-13 -31,-17 -58,-40 -78,-68 -18,28 -10,73 30,77 -11,3 -22,6 -33,8l-12 3c16,15 36,23 57,24zm116 -59c13,-21 26,-42 40,-63 -38,11 -82,20 -118,-1 -55,-30 -76,-93 -94,-149 -27,47 2,99 24,141 28,53 89,84 148,72zm-321 297c-61,2 -114,-36 -159,-74 -117,-101 -199,-235 -276,-368 43,33 90,69 147,67 42,-2 73,-34 91,-69 35,-71 41,-152 46,-230 50,225 88,452 151,674zm-34 -31c-36,-132 -61,-266 -93,-399 -8,21 -16,42 -25,62 30,103 60,205 92,307 -63,-69 -120,-141 -182,-211 -14,-20 -42,-5 -62,-8 72,99 152,205 270,249zm-86 -131c3,-10 11,-29 14,-38l-37 18c5,-13 13,-23 23,-32l-9 -23 -7 33c-3,-12 -8,-23 -13,-34l-8 -1c-16,29 7,69 37,77zm-50 -92l-9 -4c-38,9 15,35 9,4zm9 -7c-2,2 -7,5 -9,7 2,-2 7,-5 9,-7zm10 -9l-8 0 -2 9c3,-2 8,-7 10,-9zm-6 -80c-23,26 -50,50 -80,68 6,6 20,20 26,26 41,-11 77,-51 54,-94zm15 -171c-20,58 -37,125 -95,158 -36,23 -81,14 -121,4 15,21 29,43 44,65 118,15 201,-122 172,-227zm1161 42c-26,20 -62,19 -90,5 -41,-21 -55,-92 -7,-115 -17,32 -22,80 16,100 52,26 105,-22 124,-69 -20,-52 -46,-119 -109,-129 -71,-5 -123,51 -169,96 31,-134 22,-273 20,-409 93,27 187,72 244,154 53,76 59,177 33,264 -12,38 -28,79 -62,103zm47 -150c1,-31 2,-61 1,-92 -65,-54 -154,-68 -233,-39 -2,29 -5,59 -8,88 43,-29 97,-59 150,-40 42,11 66,50 90,83zm-6 -125c-23,-85 -95,-141 -168,-183 -7,0 -19,0 -25,1 -9,-6 -25,-18 -33,-24 1,55 -4,109 4,163 16,-39 25,-82 23,-125 9,2 19,4 28,6 35,73 101,126 171,162zm-126 -52c-16,-18 -33,-37 -49,-55 -4,20 -9,40 -14,59 21,-1 42,-3 63,-4zm-1871 337c-44,18 -94,-10 -115,-51 -51,-96 -58,-222 1,-316 55,-88 153,-136 250,-164 0,138 -14,280 24,415 -46,-49 -101,-108 -174,-101 -62,11 -87,76 -108,128 19,43 63,89 115,73 43,-14 50,-71 22,-103 57,18 35,105 -15,119zm-26 -246c51,-12 99,16 140,43 -3,-29 -5,-58 -7,-87 -78,-31 -168,-16 -233,38 -2,30 -1,60 0,90 27,-34 54,-76 100,-84zm94 -226c-83,34 -163,96 -186,187 80,-41 147,-106 186,-187zm38 144c1,-53 0,-106 2,-159 -13,5 -39,5 -32,27 4,44 6,92 30,132zm-36 -5c-6,-20 -10,-40 -15,-60 -15,18 -31,37 -47,56 21,1 41,3 62,4zm1401 -132c13,150 -23,299 -76,439 1,-99 -29,-213 -121,-266 -23,-18 -54,-4 -68,18 -38,47 -28,112 -15,166 19,35 58,60 99,49 6,-19 13,-38 21,-58 -6,25 2,63 -27,74 -41,17 -85,-17 -103,-52 -26,-104 -1,-221 65,-305 53,-67 146,-84 225,-65zm-62 325c9,-35 20,-71 13,-107 10,-9 16,-19 17,-32 8,-53 12,-107 9,-160 -49,51 -29,128 -28,191 -40,-57 -85,-117 -157,-135 -12,18 -24,36 -36,55 100,1 157,104 182,188zm-12 -173c1,-26 2,-53 5,-80 -21,8 -42,16 -63,23 20,18 40,37 58,57zm50 -131c-67,-9 -138,9 -184,61 65,-2 134,-17 184,-61zm-752 351c-19,35 -64,69 -104,49 -31,-17 -20,-56 -14,-83 2,27 -5,73 35,72 48,-5 86,-50 83,-99 12,-55 -5,-139 -71,-146 -106,39 -138,162 -145,264 -50,-135 -86,-280 -72,-425 50,-21 111,-12 159,10 85,40 122,136 138,222 4,45 4,92 -9,136zm-45 -235c-22,-37 -48,-75 -87,-96 -41,-22 -88,-23 -134,-20 48,42 112,55 172,63 -66,25 -111,82 -145,141 1,-65 24,-145 -26,-198 -9,101 18,198 37,296 28,-83 84,-186 183,-186zm-112 -42c-21,-8 -42,-15 -63,-23 3,26 5,52 7,77 18,-18 37,-37 56,-54zm420 149c-7,15 -14,31 -21,47 -9,-26 -18,-52 -28,-78l13 2c3,-15 1,-39 21,-43 4,24 7,48 15,72zm17 -41c-6,-1 -18,-4 -24,-6 9,-16 19,-17 29,-5l-5 11zm-59 1c-20,3 -16,-38 -24,-52 -1,-12 3,-17 11,-16 2,6 6,17 8,22l6 13c0,8 -1,25 -1,33zm67 -31c-5,1 -14,3 -19,4 7,-25 14,-50 18,-76 -33,16 -21,57 -25,85 -3,-4 -11,-11 -14,-14 -10,-26 7,-52 6,-78 7,-1 22,-3 29,-4 9,-14 13,-29 11,-45l26 2c-12,42 -24,83 -32,126zm106 -11c-16,-163 14,-326 12,-489 10,37 16,81 49,104 28,20 63,19 95,17 -110,88 -128,239 -156,368zm93 -340c-5,-3 -14,-7 -19,-9 -13,6 -23,35 -7,42 14,-7 22,-18 26,-33zm-50 30c4,-24 14,-49 2,-73 -19,13 -16,36 -19,55 4,5 13,13 17,18zm-200 306c-3,0 -10,1 -14,1 0,-12 -1,-35 -2,-46 -13,4 -26,7 -38,11 0,-54 -32,-110 -25,-162 24,24 30,62 55,86 14,-47 -9,-86 -44,-116 4,-9 8,-17 13,-26 9,31 32,66 65,72 68,-39 87,-127 88,-200 -3,0 -10,0 -14,0 -1,-17 -3,-49 -4,-66l30 4c9,83 -2,165 -8,248 -5,3 -15,10 -20,13 2,-16 6,-46 8,-62 -17,24 -34,47 -54,68 0,17 1,33 2,50 6,12 10,25 11,39 -12,-2 -22,-7 -31,-15 2,-21 4,-42 5,-64 -8,1 -24,2 -32,2 0,22 2,44 -2,65 -2,3 -8,9 -11,12l-5 4c-5,-10 -16,-30 -21,-39 -5,22 7,42 24,56 3,-2 10,-5 13,-7 23,13 4,51 11,72zm-160 -485c6,163 33,327 14,490 -22,-130 -46,-275 -150,-367 34,-1 71,0 98,-24 29,-25 32,-64 38,-99zm-11 238c11,-14 9,-38 -1,-52 -16,4 -19,51 1,52zm-21 -16c-4,-22 -6,-44 -16,-64 4,-10 9,-20 14,-30l7 50c23,-17 13,-46 15,-71 -19,19 -45,28 -70,37 18,25 34,51 50,78zm274 134c-6,1 -18,2 -24,3 2,-16 12,-55 33,-48 -2,11 -7,34 -9,45zm1046 -212c3,-31 5,-63 8,-95 -20,21 -42,39 -67,55 20,13 39,27 59,40zm9 -137c-106,35 -214,-19 -311,-59 4,12 10,36 13,48 73,22 143,53 208,93 42,-13 71,-45 90,-82zm3 -29c-11,-6 -33,-17 -44,-22 24,-27 50,-51 74,-77 0,-11 -5,-16 -16,-17 -26,24 -48,52 -72,78 -24,-11 -49,-21 -73,-32 24,-28 48,-56 69,-87l-23 -1c-26,27 -45,58 -68,87 -25,-14 -50,-28 -74,-43 22,-27 43,-54 64,-82 -8,-3 -25,-10 -33,-13 -19,30 -38,59 -57,89 -31,-21 -62,-44 -101,-49 12,38 24,75 34,114 76,36 155,69 238,76 29,4 57,-6 82,-21zm-328 9c-40,-152 -88,-303 -167,-441 -41,-70 -91,-140 -161,-185 -17,-14 -39,-15 -60,-10 51,30 101,65 134,115 109,153 161,336 214,514 13,2 26,5 40,7zm326 -135c-16,-6 -32,-12 -49,-18 -18,23 -36,46 -55,68 11,5 33,15 44,19 20,-22 41,-45 60,-69zm-97 -42c-16,-7 -33,-15 -49,-22 -19,24 -38,48 -56,72 16,9 31,18 47,27 19,-26 39,-51 58,-77zm135 17c-4,-23 -9,-46 -13,-68 19,-3 37,-7 56,-10 -23,-23 -51,-39 -78,-55 4,36 9,72 14,109 -5,-2 -17,-4 -22,-5 3,-29 -1,-59 -5,-88 -18,6 -36,12 -54,17 8,27 16,53 24,79 14,7 27,13 41,20 7,-8 15,-17 23,-25 0,12 0,34 0,46 3,-5 10,-15 14,-20zm-246 -64c-16,-6 -32,-13 -48,-19 -13,22 -27,44 -41,65 11,7 31,21 41,28 16,-25 32,-49 48,-74zm152 32c-4,-12 -9,-23 -14,-35 -13,-3 -25,-5 -38,-5 2,-35 -11,-68 -19,-102 -12,2 -36,6 -48,8 -7,-1 -21,-5 -28,-6 24,-29 64,-5 94,-21 -39,-7 -77,-18 -113,-33 3,28 23,59 15,86 -25,-11 -17,-46 -27,-67 -17,-1 -33,-1 -50,-1 13,29 10,60 0,90 6,-7 16,-21 22,-28 -2,34 26,48 54,55 0,-9 0,-26 0,-34 23,12 15,50 48,54 -7,-24 -15,-49 -25,-72 5,-8 9,-16 14,-23 7,34 18,66 28,99 13,6 27,12 40,18 8,-5 17,-10 26,-15l-4 25c6,2 19,6 25,7zm-247 1c5,-12 11,-23 16,-34 -7,0 -21,2 -27,2 4,-9 12,-28 16,-37 -17,-6 -35,-12 -52,-18 -4,24 -8,48 -11,72 8,5 24,15 32,20l7 -24c6,6 12,12 19,19zm219 -49c-6,-48 54,-40 83,-58 -36,-19 -75,-32 -110,-52 8,37 8,78 27,110zm-282 -17c14,-16 -6,-49 -25,-36 -8,14 7,48 25,36zm69 -31c-16,-40 -34,-80 -50,-119 -23,7 -46,14 -69,22 31,42 61,91 119,97zm8 -33l5 -9c-3,-4 -10,-13 -13,-17 0,6 0,17 -1,23l9 3zm301 -79c-24,18 -51,33 -79,45 21,6 43,18 64,9 13,-15 10,-36 15,-54zm-309 53l5 -13c-13,-27 -32,22 -5,13zm304 -94c-59,26 -126,20 -183,-8 -114,-59 -238,-106 -367,-113 10,14 20,28 30,42 126,28 241,89 362,131 58,21 124,1 158,-52zm-237 52c-35,-16 -69,-33 -106,-42 2,20 7,39 14,57 6,-6 12,-12 17,-17 25,2 50,2 75,2zm-119 -35c0,-4 1,-11 1,-15 -47,-18 -94,-35 -142,-49 17,30 34,61 51,92 30,-9 60,-17 90,-28zm336 -36c-99,-59 -204,-109 -312,-148 -101,-35 -209,-61 -317,-45 25,21 51,42 75,64 138,0 271,49 393,111 49,26 107,36 161,18zm-1858 481c-182,36 -362,127 -468,283l0 0 0 0 0 0 0 0c-107,-156 -287,-247 -469,-283 -48,-173 -100,-349 -198,-501 -41,-59 -99,-126 -177,-119 -39,0 -57,38 -73,67 -53,99 -48,216 -40,324 3,49 23,95 47,138 -41,-37 -51,-93 -55,-146 -6,-109 -10,-224 42,-324 42,-89 138,-144 234,-150 104,-9 208,18 306,53 134,50 261,117 383,190 122,-73 249,-140 382,-190 98,-35 202,-62 307,-53 96,6 191,61 233,150 52,100 49,215 42,324 -4,53 -14,109 -55,146 25,-43 44,-89 47,-138 9,-108 13,-225 -40,-324 -16,-29 -34,-67 -72,-67 -79,-7 -137,60 -177,119 -99,152 -151,328 -199,501zm-468 231c21,-28 46,-53 70,-79 -5,-52 -8,-103 -13,-154 -21,34 -40,70 -57,107l0 0 0 0 0 0 0 0c-17,-37 -36,-73 -58,-107 -5,51 -8,102 -13,154 24,26 49,51 71,79zm0 -173c16,-27 31,-54 46,-81 -15,-15 -31,-29 -46,-44 -16,15 -31,29 -47,44 15,27 30,54 47,81zm0 -146c17,17 35,34 53,50 10,-5 29,-15 39,-20 -28,-24 -48,-70 -92,-64l0 0c-44,-6 -65,40 -93,64 10,5 29,15 39,20 18,-16 36,-33 54,-50l0 0 0 0 0 0zm0 -49c29,-25 29,-65 35,-99 -8,-2 -26,-4 -35,-5l0 0c-9,1 -27,3 -36,5 7,34 7,74 36,99zm0 -152c24,-17 49,-32 74,-48 -11,-13 -21,-26 -31,-40 -15,9 -29,17 -43,25l0 -13 0 0 -1 13c-14,-8 -28,-16 -42,-25 -11,14 -21,27 -32,40 25,16 51,31 75,48zm0 -92c14,-10 28,-19 43,-28 2,-16 4,-33 7,-49 -17,9 -34,19 -50,29l0 -12 -1 12c-16,-10 -33,-20 -49,-29 2,16 4,33 7,49 14,9 29,18 43,28zm145 476c-26,-15 -48,-34 -68,-56 4,33 7,66 10,99 19,-14 38,-29 58,-43zm231 -108c4,-15 7,-31 11,-47 -97,41 -204,93 -311,59 20,37 49,69 90,82 66,-40 137,-71 210,-94zm18 -72c11,-38 22,-76 34,-114 -39,4 -70,28 -101,50 -19,-30 -36,-62 -59,-89 -5,2 -17,5 -22,7 -1,35 39,59 56,89 -25,14 -50,28 -76,41 -22,-30 -41,-62 -68,-88l-22 3c22,30 46,58 69,87 -24,10 -48,21 -73,31 -30,-24 -50,-86 -94,-71 25,30 54,58 80,87 -11,5 -32,16 -43,21 26,19 58,26 90,22 80,-10 156,-41 229,-76zm49 56c41,-146 86,-291 157,-424 43,-85 105,-161 191,-204 -20,-6 -39,-4 -56,7 -76,47 -129,123 -172,199 -75,135 -123,282 -160,431 10,-2 30,-7 40,-9zm-264 -76c-18,-24 -37,-47 -56,-70 -16,7 -31,14 -47,21 20,22 40,45 60,67 11,-4 33,-13 43,-18zm100 -43c-19,-24 -38,-48 -57,-72 -16,7 -32,15 -48,22 19,26 38,51 57,77 16,-9 32,-18 48,-27zm-204 -167c-25,17 -55,30 -70,57 15,3 31,6 47,8 -6,31 -11,61 -11,92 32,-45 21,-105 34,-157zm275 85c8,1 22,2 29,2 -7,-15 -16,-30 -24,-45 -22,12 -47,19 -70,27 15,26 31,51 48,76 21,-15 58,-34 17,-60zm-234 28c8,-26 17,-53 24,-80 -18,-5 -35,-10 -53,-15 -5,39 -11,77 -16,116 15,-7 30,-14 45,-21zm322 -22c-5,-18 -6,-37 -4,-55 6,4 17,11 23,14 3,-17 7,-35 11,-52 -10,7 -21,13 -32,18 -23,5 -45,12 -66,19 11,24 22,47 37,69 8,-3 23,-10 31,-13zm-284 2l4 -11c-17,-24 -33,24 -4,11zm65 -26c11,-35 22,-70 33,-105 -13,0 -37,0 -50,0 -10,42 -20,84 -31,126 16,-7 32,-14 48,-21zm-56 10c5,-44 17,-87 28,-129 28,-1 55,-2 82,-2 -12,39 -26,77 -35,117 16,-7 23,-28 39,-35l7 6c27,21 40,-25 60,-29l8 5c6,-5 11,-10 17,-16 61,20 92,-48 124,-86 -23,-7 -46,-14 -69,-21 -16,35 -32,70 -43,107 -5,-6 -11,-13 -16,-19 21,-33 35,-71 51,-107 33,10 67,21 100,30 16,-31 33,-62 50,-92 -89,27 -176,61 -261,99 26,0 52,0 78,0 -2,21 -11,38 -26,50 1,-7 2,-21 3,-28 -17,-1 -34,-1 -50,0 -10,25 -4,61 -28,78 -9,-27 12,-66 16,-97 -75,24 -150,50 -219,89 26,9 52,18 78,26 -11,19 -1,37 6,54zm334 -137c-16,-6 -39,18 -32,34 17,6 38,-17 32,-34zm-356 -2c-26,-12 -52,-27 -77,-41 4,17 4,35 14,50 21,10 43,-1 63,-9zm94 -35c117,-43 230,-101 353,-129 11,-14 22,-28 32,-42 -127,7 -248,52 -361,109 -57,30 -125,39 -186,15 32,55 104,68 162,47zm15 -86c122,-63 256,-112 395,-112 23,-22 48,-42 71,-64 -91,-14 -183,3 -270,30 -125,39 -242,97 -355,161 51,22 110,9 159,-15zm1030 674c-18,31 -32,71 -69,82 -33,-3 -48,-36 -67,-57 5,-9 10,-17 15,-26 4,28 22,63 53,67 33,-19 50,-58 53,-94 5,9 10,19 15,28zm-159 88c-2,-2 -7,-6 -10,-9 -15,-109 -16,-221 19,-327 4,27 8,54 11,81 -20,20 -15,52 -16,79 8,-24 11,-49 16,-73 11,44 13,96 48,130 58,19 70,-58 78,-98l11 -1c-1,34 -9,69 -30,98 -18,28 -66,27 -82,-3 -12,-20 -21,-41 -32,-62 7,23 1,46 -7,67 -4,-10 -12,-31 -16,-41 4,38 16,74 25,111 -8,15 -9,32 -15,48zm26 -96c-33,4 -4,-37 7,-8l-7 8zm146 -32c-16,27 -34,-33 -7,-23 2,6 5,17 7,23zm407 -92c-51,16 -103,27 -152,48 53,-42 80,-108 89,-174l16 1c-5,31 -12,62 -19,93 36,-16 23,-65 19,-95 -3,-2 -11,-6 -15,-8 12,-67 1,-134 0,-201 41,97 64,201 70,306 -5,0 -16,0 -21,-1 -8,-32 1,-68 -10,-101 -12,41 11,89 -19,123 19,-4 38,-8 57,-12l-15 21zm-57 -2c8,-20 1,-26 -21,-17 -8,20 -1,26 21,17zm-777 51c-21,-9 -42,-21 -66,-20 0,-17 0,-33 0,-50 -15,0 -29,3 -42,9 8,4 24,12 32,16 -25,39 -48,-11 -42,-38 -41,-5 -2,25 -16,46l-23 -19c-1,-40 4,-80 7,-120l14 2c6,27 -17,70 16,85 -11,-29 5,-79 -29,-94 16,-72 33,-144 67,-209 -13,59 -10,121 -14,180 -22,22 -9,60 -22,87 6,2 18,4 24,6 -9,-25 -11,-51 -7,-77l9 0c7,30 9,62 22,90 -14,0 -31,-5 -38,12 20,2 39,4 58,5l-14 9c19,28 40,56 64,80zm445 -66c-13,1 -27,1 -40,1 6,-33 9,-66 12,-100 11,33 20,66 28,99zm94 -125c-74,-5 -144,-36 -198,-88 -53,53 -123,82 -197,88 56,-96 80,-207 67,-317 -15,-126 -53,-252 -120,-360 -3,-6 -8,-18 -10,-24 2,-5 7,-17 10,-23 67,-108 105,-234 120,-360 13,-110 -11,-222 -67,-317 74,5 144,35 197,88 54,-52 124,-83 198,-88 -66,110 -84,244 -59,370 19,116 66,225 118,330 -52,105 -99,215 -118,331 -25,126 -7,259 59,370zm-452 -701c74,115 160,223 255,321 92,-99 183,-203 251,-321 -68,-118 -159,-221 -251,-320 -95,98 -181,206 -255,320zm357 638c-54,-76 -81,-167 -102,-258 -20,91 -51,179 -100,259 38,-20 72,-49 98,-83 30,33 63,65 104,82zm-220 -27c51,-80 77,-172 95,-264 -34,-35 -65,-72 -99,-107 32,121 40,250 4,371zm233 -8c-34,-119 -24,-245 6,-364 -33,36 -65,73 -99,107 19,89 41,181 93,257zm-968 -133c-36,-4 19,-36 0,0zm1695 -2283c-21,16 -41,32 -61,49 -7,-33 -14,-66 -21,-99 27,17 54,34 82,50zm-2050 99c23,-5 47,-9 71,-14 -25,25 -50,50 -71,77 -22,-27 -47,-52 -72,-77 24,5 48,9 72,14l0 0zm447 -148c-7,32 -14,66 -21,99 -19,-17 -38,-32 -57,-50 24,-18 52,-34 78,-49zm939 27c0,17 -24,30 -39,30 -3,-18 23,-33 39,-30zm25 22c-4,7 -14,23 -18,31 21,-15 39,-11 54,13 -31,17 -58,40 -78,68 -18,-29 -10,-73 30,-77 -11,-3 -22,-6 -33,-9l-12 -2c16,-15 36,-23 57,-24zm116 59c13,21 26,42 40,62 -38,-10 -82,-19 -118,2 -55,30 -76,93 -94,148 -27,-46 2,-98 24,-140 28,-53 89,-84 148,-72zm-491 -43l-9 4c-38,-9 15,-35 9,-4zm9 7c-2,-2 -7,-5 -9,-7 2,2 7,5 9,7zm10 9l-8 0 -2 -9c3,2 8,7 10,9zm-6 80c-23,-27 -50,-50 -80,-68 6,-7 20,-20 26,-27 41,12 77,51 54,95zm15 170c-20,-57 -37,-125 -95,-157 -36,-23 -81,-14 -121,-4 15,-21 29,-43 44,-65 118,-15 201,122 172,226zm1161 -42c-26,-19 -62,-19 -90,-5 -41,22 -55,93 -7,116 -17,-33 -22,-80 16,-100 52,-26 105,22 124,69 -20,52 -46,119 -109,129 -71,5 -123,-52 -169,-96 31,134 22,273 20,409 93,-27 187,-72 244,-154 53,-76 59,-177 33,-264 -12,-38 -28,-80 -62,-104zm47 151c1,30 2,61 1,91 -65,55 -154,69 -233,40 -2,-29 -5,-59 -8,-88 43,29 97,58 150,40 42,-12 66,-50 90,-83zm-6 125c-23,85 -95,141 -168,183 -7,0 -19,-1 -25,-1 -9,6 -25,18 -33,24 1,-55 -4,-110 4,-164 16,40 25,83 23,126 9,-2 19,-5 28,-7 35,-72 101,-125 171,-161zm-126 52c-16,18 -33,36 -49,55 -4,-20 -9,-40 -14,-60 21,2 42,3 63,5zm-1871 -337c-44,-19 -94,10 -115,51 -51,96 -58,221 1,316 55,88 153,136 250,164 0,-138 -14,-281 24,-415 -46,49 -101,108 -174,101 -62,-11 -87,-76 -108,-128 19,-44 63,-89 115,-73 43,14 50,71 22,103 57,-19 35,-106 -15,-119zm-26 246c51,12 99,-16 140,-44 -3,29 -5,59 -7,88 -78,31 -168,16 -233,-38 -2,-30 -1,-60 0,-90 27,34 54,76 100,84zm94 226c-83,-34 -163,-96 -186,-187 80,41 147,106 186,187zm38 -144c1,53 0,106 2,159 -13,-6 -39,-6 -32,-27 4,-45 6,-92 30,-132zm-36 4c-6,20 -10,41 -15,61 -15,-19 -31,-37 -47,-56 21,-1 41,-3 62,-5zm1401 133c13,-150 -23,-300 -76,-440 1,100 -29,213 -121,267 -23,18 -54,4 -68,-18 -38,-47 -28,-112 -15,-167 19,-34 58,-60 99,-49 6,20 13,39 21,58 -6,-24 2,-62 -27,-73 -41,-17 -85,16 -103,52 -26,104 -1,220 65,305 53,66 146,83 225,65zm-62 -325c9,35 20,71 13,107 10,8 16,19 17,32 8,53 12,107 9,160 -49,-52 -29,-128 -28,-192 -40,58 -85,118 -157,136 -12,-19 -24,-37 -36,-55 100,-2 157,-104 182,-188zm-12 173c1,26 2,53 5,79 -21,-7 -42,-15 -63,-22 20,-18 40,-37 58,-57zm50 131c-67,9 -138,-9 -184,-61 65,2 134,17 184,61zm-752 -351c-19,-35 -64,-69 -104,-49 -31,16 -20,56 -14,82 2,-26 -5,-73 35,-71 48,5 86,50 83,99 12,55 -5,138 -71,146 -106,-40 -138,-163 -145,-264 -50,135 -86,280 -72,425 50,21 111,12 159,-10 85,-41 122,-136 138,-222 4,-46 4,-92 -9,-136zm-45 235c-22,37 -48,75 -87,95 -41,23 -88,24 -134,21 48,-42 112,-55 172,-63 -66,-26 -111,-82 -145,-142 1,66 24,146 -26,199 -9,-101 18,-199 37,-296 28,82 84,186 183,186zm-112 42c-21,7 -42,15 -63,22 3,-25 5,-51 7,-76 18,18 37,36 56,54zm420 -149c-7,-15 -14,-31 -21,-47 -9,26 -18,52 -28,78l13 -3c3,16 1,39 21,44 4,-24 7,-49 15,-72zm17 40c-6,2 -18,5 -24,6 9,16 19,18 29,5l-5 -11zm-59 0c-20,-3 -16,37 -24,52 -1,12 3,17 11,15 2,-5 6,-16 8,-22l6 -12c0,-9 -1,-25 -1,-33zm67 31c-5,-1 -14,-3 -19,-4 7,25 14,50 18,75 -33,-15 -21,-56 -25,-84 -3,4 -11,10 -14,14 -10,25 7,52 6,78 7,1 22,3 29,4 9,14 13,29 11,45l26 -3c-12,-41 -24,-82 -32,-125zm106 11c-16,163 14,326 12,489 10,-37 16,-81 49,-104 28,-20 63,-19 95,-17 -110,-88 -128,-239 -156,-368zm93 340c-5,2 -14,7 -19,9 -13,-7 -23,-35 -7,-42 14,7 22,18 26,33zm-50 -30c4,24 14,49 2,72 -19,-12 -16,-35 -19,-54 4,-5 13,-14 17,-18zm-200 -306c-3,0 -10,-1 -14,-1 0,11 -1,34 -2,46 -13,-4 -26,-8 -38,-12 0,55 -32,111 -25,162 24,-23 30,-61 55,-86 14,48 -9,87 -44,117 4,9 8,17 13,25 9,-30 32,-65 65,-71 68,38 87,127 88,199 -3,0 -10,1 -14,1 -1,16 -3,49 -4,65l30 -3c9,-83 -2,-166 -8,-248 -5,-3 -15,-10 -20,-13 2,16 6,46 8,61 -17,-23 -34,-46 -54,-67 0,-17 1,-33 2,-50 6,-12 10,-25 11,-39 -12,2 -22,7 -31,14 2,22 4,43 5,64 -8,0 -24,-1 -32,-1 0,-22 2,-44 -2,-66 -2,-2 -8,-8 -11,-11l-5 -4c-5,10 -16,29 -21,39 -5,-23 7,-42 24,-56 3,2 10,5 13,7 23,-13 4,-51 11,-72zm-160 485c6,-163 33,-327 14,-490 -22,130 -46,275 -150,367 34,1 71,0 98,24 29,24 32,64 38,99zm-11 -238c11,14 9,37 -1,52 -16,-4 -19,-51 1,-52zm-21 16c-4,22 -6,44 -16,64 4,10 9,20 14,30l7 -51c23,17 13,47 15,71 -19,-18 -45,-27 -70,-37 18,-25 34,-51 50,-77zm274 -134c-6,-1 -18,-2 -24,-3 2,16 12,55 33,48 -2,-11 -7,-34 -9,-45zm1046 211c3,32 5,64 8,96 -20,-21 -42,-39 -67,-55 20,-14 39,-27 59,-41zm9 138c-106,-35 -214,18 -311,59 4,-12 10,-36 13,-48 73,-22 143,-53 208,-93 42,13 71,45 90,82zm3 29c-11,5 -33,16 -44,22 24,26 50,51 74,77 0,11 -5,16 -16,17 -26,-24 -48,-52 -72,-78 -24,10 -49,21 -73,31 24,29 48,57 69,88l-23 1c-26,-27 -45,-59 -68,-88 -25,14 -50,29 -74,44 22,27 43,54 64,82 -8,3 -25,10 -33,13 -19,-30 -38,-60 -57,-90 -31,22 -62,45 -101,50 12,-38 24,-76 34,-114 76,-36 155,-69 238,-76 29,-4 57,6 82,21zm-328 -10c-40,153 -88,304 -167,441 -41,71 -91,141 -161,186 -17,14 -39,15 -60,10 51,-30 101,-65 134,-115 109,-154 161,-336 214,-514 13,-3 26,-5 40,-8zm326 136c-16,6 -32,12 -49,18 -18,-23 -36,-46 -55,-68 11,-5 33,-15 44,-20 20,23 41,46 60,70zm-97 42c-16,7 -33,14 -49,21 -19,-23 -38,-47 -56,-71 16,-10 31,-19 47,-28 19,26 39,52 58,78zm135 -17c-4,23 -9,45 -13,68 19,3 37,6 56,10 -23,23 -51,39 -78,55 4,-36 9,-73 14,-109 -5,1 -17,4 -22,5 3,29 -1,59 -5,87 -18,-5 -36,-11 -54,-17 8,-26 16,-52 24,-78 14,-7 27,-13 41,-20 7,8 15,16 23,25 0,-12 0,-35 0,-46 3,5 10,15 14,20zm-246 63c-16,7 -32,13 -48,20 -13,-22 -27,-44 -41,-66 11,-7 31,-20 41,-27 16,24 32,49 48,73zm152 -31c-4,11 -9,23 -14,34 -13,4 -25,6 -38,6 2,35 -11,68 -19,102 -12,-2 -36,-6 -48,-8 -7,1 -21,4 -28,6 24,29 64,5 94,20 -39,8 -77,19 -113,34 3,-28 23,-59 15,-86 -25,11 -17,46 -27,67 -17,0 -33,1 -50,1 13,-30 10,-60 0,-90 6,7 16,21 22,28 -2,-35 26,-48 54,-55 0,8 0,25 0,34 23,-12 15,-50 48,-54 -7,24 -15,49 -25,72 5,8 9,15 14,23 7,-34 18,-67 28,-99 13,-6 27,-12 40,-19 8,5 17,11 26,16l-4 -26c6,-1 19,-5 25,-6zm-247 -1c5,11 11,23 16,34 -7,-1 -21,-2 -27,-2 4,9 12,27 16,37 -17,6 -35,12 -52,18 -4,-25 -8,-49 -11,-73 8,-5 24,-14 32,-19l7 24c6,-6 12,-13 19,-19zm219 48c-6,49 54,41 83,59 -36,18 -75,31 -110,52 8,-37 8,-78 27,-111zm-282 18c14,15 -6,48 -25,36 -8,-15 7,-48 25,-36zm69 31c-16,40 -34,79 -50,119 -23,-7 -46,-14 -69,-22 31,-43 61,-91 119,-97zm8 33l5 9c-3,4 -10,12 -13,17 0,-6 0,-18 -1,-23l9 -3zm301 79c-24,-18 -51,-33 -79,-45 21,-6 43,-18 64,-9 13,14 10,36 15,54zm-309 -53l5 12c-13,28 -32,-22 -5,-12zm304 93c-59,-26 -126,-19 -183,9 -114,59 -238,106 -367,113 10,-14 20,-28 30,-42 126,-28 241,-89 362,-131 58,-21 124,-1 158,51zm-237 -52c-35,17 -69,34 -106,43 2,-20 7,-39 14,-57 6,5 12,11 17,17 25,-2 50,-2 75,-3zm-119 36c0,3 1,11 1,14 -47,19 -94,36 -142,50 17,-31 34,-61 51,-92 30,9 60,16 90,28zm336 36c-99,59 -204,109 -312,148 -101,35 -209,61 -317,45 25,-22 51,-43 75,-65 138,1 271,-49 393,-111 49,-25 107,-35 161,-17zm-1858 -481c-182,-36 -362,-127 -468,-284l0 0 0 0 0 0 0 0c-107,157 -287,248 -469,284 -48,173 -100,349 -198,501 -41,58 -99,126 -177,119 -39,-1 -57,-39 -73,-67 -53,-99 -48,-216 -40,-324 3,-50 23,-95 47,-138 -41,37 -51,93 -55,145 -6,110 -10,225 42,325 42,89 138,143 234,150 104,9 208,-18 306,-54 134,-49 261,-116 383,-190 122,74 249,141 382,190 98,36 202,63 307,54 96,-7 191,-61 233,-150 52,-100 49,-215 42,-325 -4,-52 -14,-108 -55,-145 25,43 44,88 47,138 9,108 13,225 -40,324 -16,28 -34,66 -72,67 -79,7 -137,-61 -177,-119 -99,-152 -151,-328 -199,-501zm-468 -231c21,28 46,53 70,79 -5,51 -8,103 -13,154 -21,-34 -40,-70 -57,-107l0 0 0 0 0 0 0 0c-17,37 -36,73 -58,107 -5,-51 -8,-103 -13,-154 24,-26 49,-51 71,-79zm0 173c16,27 31,54 46,81 -15,15 -31,29 -46,43 -16,-14 -31,-28 -47,-43 15,-27 30,-54 47,-81zm0 145c17,-17 35,-33 53,-49 10,5 29,14 39,19 -28,25 -48,71 -92,65l0 0c-44,6 -65,-40 -93,-65 10,-5 29,-14 39,-19 18,16 36,32 54,49l0 0 0 0 0 0zm0 49c29,26 29,65 35,100 -8,1 -26,4 -35,5l0 0c-9,-1 -27,-4 -36,-5 7,-35 7,-74 36,-100zm0 153c24,17 49,32 74,48 -11,13 -21,26 -31,39 -15,-8 -29,-16 -43,-25l0 14 0 0 -1 -14c-14,9 -28,17 -42,25 -11,-13 -21,-26 -32,-39 25,-16 51,-31 75,-48zm0 92c14,10 28,19 43,28 2,16 4,33 7,49 -17,-10 -34,-19 -50,-29l0 12 -1 -12c-16,10 -33,19 -49,29 2,-16 4,-33 7,-49 14,-9 29,-18 43,-28zm145 -477c-26,16 -48,35 -68,57 4,-33 7,-66 10,-100 19,15 38,29 58,43zm231 108c4,16 7,32 11,48 -97,-41 -204,-93 -311,-59 20,-37 49,-69 90,-82 66,40 137,71 210,93zm18 73c11,38 22,76 34,113 -39,-3 -70,-27 -101,-49 -19,30 -36,62 -59,89 -5,-2 -17,-5 -22,-7 -1,-35 39,-59 56,-89 -25,-14 -50,-28 -76,-41 -22,29 -41,62 -68,88l-22 -3c22,-30 46,-58 69,-87 -24,-10 -48,-21 -73,-31 -30,24 -50,85 -94,70 25,-30 54,-57 80,-86 -11,-6 -32,-16 -43,-21 26,-19 58,-26 90,-22 80,9 156,41 229,76zm49 -56c41,145 86,291 157,424 43,84 105,161 191,204 -20,6 -39,4 -56,-7 -76,-48 -129,-123 -172,-199 -75,-135 -123,-282 -160,-431 10,2 30,7 40,9zm-264 75c-18,25 -37,48 -56,71 -16,-7 -31,-14 -47,-21 20,-23 40,-45 60,-67 11,4 33,13 43,17zm100 44c-19,24 -38,48 -57,72 -16,-8 -32,-15 -48,-22 19,-26 38,-52 57,-77 16,9 32,17 48,27zm-204 166c-25,-17 -55,-29 -70,-56 15,-3 31,-6 47,-8 -6,-31 -11,-61 -11,-92 32,44 21,105 34,156zm275 -84c8,-1 22,-2 29,-2 -7,15 -16,30 -24,45 -22,-12 -47,-19 -70,-27 15,-26 31,-51 48,-76 21,15 58,34 17,60zm-234 -29c8,27 17,54 24,80 -18,6 -35,11 -53,16 -5,-39 -11,-77 -16,-116 15,7 30,14 45,20zm322 23c-5,18 -6,36 -4,55 6,-4 17,-11 23,-15 3,18 7,35 11,53 -10,-7 -21,-13 -32,-19 -23,-5 -45,-11 -66,-18 11,-24 22,-48 37,-69 8,3 23,9 31,13zm-284 -2l4 11c-17,23 -33,-24 -4,-11zm65 26c11,35 22,70 33,105 -13,0 -37,0 -50,0 -10,-42 -20,-85 -31,-127 16,7 32,15 48,22zm-56 -10c5,44 17,87 28,129 28,1 55,2 82,2 -12,-39 -26,-77 -35,-117 16,7 23,27 39,34l7 -5c27,-21 40,25 60,29l8 -5c6,5 11,10 17,15 61,-20 92,48 124,87 -23,7 -46,14 -69,21 -16,-35 -32,-70 -43,-107 -5,6 -11,12 -16,19 21,33 35,71 51,107 33,-11 67,-21 100,-30 16,31 33,61 50,92 -89,-27 -176,-61 -261,-99 26,0 52,0 78,0 -2,-22 -11,-38 -26,-50 1,7 2,21 3,28 -17,0 -34,0 -50,0 -10,-25 -4,-62 -28,-78 -9,27 12,65 16,96 -75,-23 -150,-50 -219,-89 26,-9 52,-17 78,-26 -11,-18 -1,-36 6,-53zm334 137c-16,6 -39,-18 -32,-34 17,-6 38,17 32,34zm-356 2c-26,12 -52,26 -77,40 4,-16 4,-35 14,-49 21,-10 43,0 63,9zm94 35c117,43 230,101 353,129 11,14 22,28 32,42 -127,-7 -248,-52 -361,-110 -57,-30 -125,-38 -186,-14 32,-56 104,-68 162,-47zm15 86c122,63 256,111 395,112 23,22 48,42 71,64 -91,14 -183,-3 -270,-30 -125,-39 -242,-97 -355,-161 51,-22 110,-9 159,15zm1030 -674c-18,-31 -32,-71 -69,-83 -33,4 -48,36 -67,58 5,9 10,17 15,26 4,-28 22,-63 53,-67 33,19 50,57 53,94 5,-10 10,-19 15,-28zm-159 -89c-2,3 -7,7 -10,10 -15,108 -16,221 19,326 4,-26 8,-53 11,-80 -20,-20 -15,-53 -16,-79 8,24 11,49 16,73 11,-44 13,-96 48,-130 58,-20 70,58 78,98l11 1c-1,-35 -9,-70 -30,-98 -18,-28 -66,-27 -82,2 -12,20 -21,42 -32,63 7,-24 1,-46 -7,-67 -4,10 -12,31 -16,41 4,-38 16,-74 25,-111 -8,-15 -9,-33 -15,-49zm26 97c-33,-4 -4,37 7,8l-7 -8zm146 32c-16,-27 -34,33 -7,23 2,-6 5,-17 7,-23zm407 91c-51,-15 -103,-26 -152,-47 53,42 80,108 89,174l16 -1c-5,-31 -12,-62 -19,-93 36,15 23,64 19,95 -3,2 -11,6 -15,8 12,66 1,134 0,200 41,-97 64,-201 70,-305 -5,0 -16,0 -21,0 -8,33 1,69 -10,101 -12,-40 11,-88 -19,-123 19,5 38,9 57,13l-15 -22zm-57 3c8,20 1,26 -21,17 -8,-20 -1,-26 21,-17zm-777 -51c-21,9 -42,21 -66,20 0,16 0,33 0,50 -15,-1 -29,-3 -42,-10 8,-3 24,-11 32,-15 -25,-39 -48,11 -42,38 -41,5 -2,-26 -16,-46l-23 19c-1,40 4,79 7,119l14 -1c6,-27 -17,-70 16,-85 -11,29 5,79 -29,94 16,72 33,144 67,209 -13,-59 -10,-121 -14,-181 -22,-22 -9,-59 -22,-86 6,-2 18,-5 24,-6 -9,25 -11,51 -7,77l9 -1c7,-30 9,-61 22,-89 -14,0 -31,5 -38,-12 20,-2 39,-4 58,-5l-14 -9c19,-29 40,-56 64,-80zm445 65c-13,0 -27,0 -40,-1 6,34 9,67 12,101 11,-33 20,-66 28,-100zm-1 188c-54,77 -81,168 -102,258 -20,-90 -51,-179 -100,-258 38,20 72,48 98,83 30,-33 63,-65 104,-83zm-220 28c51,79 77,172 95,264 -34,35 -65,72 -99,107 32,-121 40,-250 4,-371zm233 8c-34,119 -24,245 6,364 -33,-36 -65,-73 -99,-108 19,-89 41,-180 93,-256zm-968 132c-36,4 19,37 0,0zm-2595 2829c15,-26 29,-51 44,-77 17,11 33,22 50,33 9,34 15,67 20,101 -39,-18 -76,-37 -114,-57zm130 59c-6,-28 -11,-57 -15,-86 24,18 48,38 71,58 -18,10 -37,19 -56,28zm1032 -18c74,-30 144,-67 207,-114 -11,21 -20,44 -35,64 -35,23 -73,41 -111,58 -20,10 -43,5 -61,-8zm716 -8c21,-23 46,-42 71,-61 -1,12 -2,35 -2,47 23,-12 10,-46 26,-63 14,-12 31,-23 46,-33 15,26 30,51 44,77 -36,12 -70,50 -107,42l-10 -2c-4,3 -13,9 -17,12 -18,-1 -34,-12 -51,-19zm-866 -105c18,8 38,1 56,1 -5,-18 -8,-37 -10,-55 -8,3 -22,8 -29,11 -118,-90 -217,-202 -307,-319 3,31 23,68 1,97 -22,10 -48,6 -68,21 46,16 98,-6 96,-59 19,25 39,49 59,73 -27,45 -80,11 -117,36 44,8 98,17 128,-24 7,8 21,24 27,32 -57,44 -126,12 -185,-10 4,-4 43,-11 24,-23 -31,-19 -67,-30 -92,-58 11,6 35,18 46,23 9,-4 18,-9 26,-13 -53,-11 -95,-48 -140,-77 33,73 92,130 155,177 100,73 214,126 330,167zm-53 -35c-21,-10 -43,-19 -63,-30l24 -6c10,6 29,18 39,24 -2,-11 -5,-21 -8,-32 14,2 27,8 38,18 -7,8 -14,15 -21,22l28 12c-9,-2 -28,-6 -37,-8zm-107 -48c-1,-18 45,-19 44,0 -15,9 -30,9 -44,0zm-16 -78c6,-4 16,-13 21,-18 32,32 61,68 100,92 -1,2 -4,6 -6,8l-6 3c-39,-24 -78,-50 -109,-85zm-107 10c31,2 62,4 92,-1 16,15 32,30 48,45 -51,1 -99,-14 -140,-44zm353 136c23,-3 68,-10 70,-36 -18,-1 -34,12 -52,12 5,-5 15,-14 20,-19l-10 -10c-9,4 -27,12 -36,16 43,-42 90,-81 131,-125 7,4 19,14 25,18 -20,16 -40,31 -61,46 18,11 36,22 55,33 -13,0 -37,1 -50,2 -4,-10 -10,-20 -15,-30 -16,14 -32,27 -49,40 14,0 28,-1 43,-4 4,5 12,14 16,19l7 3c143,-64 288,-152 362,-295 -38,22 -71,61 -118,62 4,8 8,16 13,24l32 -16c-36,35 -85,55 -132,69 -30,10 -60,1 -80,-23 20,-24 41,-49 59,-75 8,19 6,44 25,56 18,5 37,8 56,9 4,-7 11,-19 15,-25 -22,1 -57,19 -72,-8 -13,-32 2,-66 8,-98 -82,116 -180,220 -288,312 8,5 23,17 31,22 -1,5 -4,16 -5,21zm111 -91c17,-16 33,-31 50,-46 30,4 61,4 91,1 -41,30 -90,45 -141,45zm22 -77c9,-12 17,-24 26,-35 25,28 64,30 94,50 -41,9 -82,4 -120,-15zm117 -9c22,-4 43,-17 65,-16 -6,18 -30,24 -46,30 -12,1 -18,-4 -19,-14zm-1015 -187c-18,-78 -35,-157 -51,-236 -27,50 -63,102 -121,118 -36,17 -71,-10 -104,-22 43,-5 87,-14 123,-40 47,-30 75,-81 99,-131 39,126 82,251 138,370 -28,-20 -56,-40 -84,-59zm-127 -95c20,-15 41,-31 60,-48 7,33 14,66 21,98 -27,-16 -54,-33 -81,-50zm1473 153c54,-119 100,-243 136,-369 25,50 53,102 102,133 36,25 81,33 124,39 -34,9 -68,37 -104,22 -60,-15 -97,-69 -124,-120 -15,78 -31,156 -50,234 -26,23 -56,41 -84,61zm129 -103c7,-33 14,-66 21,-99 19,17 39,32 57,49 -24,19 -51,34 -78,50zm-932 105c48,42 104,86 171,84 -64,-221 -102,-448 -151,-673 -11,95 -11,208 -87,278 -65,49 -145,-4 -197,-47 73,129 153,257 264,358zm-134 -196c24,2 57,-11 70,17 33,45 78,83 104,133 7,-8 14,-16 20,-23 -10,-8 -31,-22 -42,-29l34 -7c-12,-6 -24,-11 -36,-17 7,-5 20,-16 27,-22 3,24 16,42 38,50 -32,-59 -42,-127 -63,-190 9,-21 18,-42 28,-64 19,99 40,197 64,295 3,16 9,33 4,50 -3,0 -9,0 -12,1 -7,-30 -26,-60 -19,-91 -8,0 -24,-1 -32,-1 8,13 25,39 33,52 -8,0 -23,-1 -31,-1 15,19 31,37 49,53 17,10 39,20 36,45 -119,-45 -200,-152 -272,-251zm127 64c0,-17 24,-31 40,-31 2,19 -23,34 -40,31zm-25 -22c5,-8 14,-23 19,-31 -22,15 -40,10 -54,-13 30,-17 57,-40 77,-68 18,28 10,73 -30,77 11,3 22,6 33,8l12 3c-16,15 -35,23 -57,24zm-116 -59c-12,-21 -26,-42 -40,-63 39,11 82,20 118,-1 55,-30 76,-93 94,-149 27,47 -2,99 -24,141 -28,53 -89,84 -148,72zm321 297c62,2 114,-36 159,-74 117,-101 200,-235 276,-368 -43,33 -90,69 -147,67 -41,-2 -73,-34 -90,-69 -36,-71 -41,-152 -47,-230 -50,225 -88,452 -151,674zm35 -31c35,-132 60,-266 92,-399 8,21 16,42 25,62 -29,103 -59,205 -92,307 63,-69 121,-141 182,-211 15,-20 42,-5 62,-8 -72,99 -152,205 -269,249zm86 -131c-4,-10 -11,-29 -15,-38l37 18c-5,-13 -12,-23 -22,-32l8 -23 7 33c4,-12 8,-23 13,-34l8 -1c16,29 -7,69 -36,77zm50 -92l8 -4c38,9 -15,35 -8,4zm-10 -7c3,2 7,5 10,7 -3,-2 -7,-5 -10,-7zm-10 -9l9 0 1 9c-2,-2 -7,-7 -10,-9zm6 -80c23,26 50,50 80,68 -6,6 -20,20 -26,26 -40,-11 -77,-51 -54,-94zm-15 -171c21,58 38,125 95,158 37,23 81,14 121,4 -15,21 -29,43 -43,65 -118,15 -201,-122 -173,-227zm-1161 42c26,20 62,19 90,5 42,-21 55,-92 8,-115 17,32 22,80 -17,100 -52,26 -105,-22 -123,-69 20,-52 46,-119 109,-129 70,-5 122,51 168,96 -31,-134 -22,-273 -20,-409 -93,27 -187,72 -244,154 -53,76 -58,177 -32,264 12,38 27,79 61,103zm-47 -150c-1,-31 -2,-61 0,-92 64,-54 153,-68 232,-39 3,29 5,59 8,88 -43,-29 -96,-59 -150,-40 -42,11 -65,50 -90,83zm7 -125c22,-85 95,-141 168,-183 6,0 18,0 24,1 9,-6 25,-18 34,-24 -2,55 3,109 -5,163 -16,-39 -25,-82 -22,-125 -10,2 -19,4 -29,6 -35,73 -100,126 -170,162zm125 -52c17,-18 33,-37 49,-55 5,20 9,40 14,59 -21,-1 -42,-3 -63,-4zm1871 337c45,18 94,-10 115,-51 51,-96 58,-222 -1,-316 -55,-88 -153,-136 -250,-164 0,138 14,280 -24,415 46,-49 102,-108 175,-101 61,11 86,76 107,128 -19,43 -63,89 -115,73 -43,-14 -50,-71 -22,-103 -57,18 -35,105 15,119zm26 -246c-51,-12 -99,16 -139,43 2,-29 4,-58 6,-87 78,-31 169,-16 233,38 2,30 2,60 0,90 -27,-34 -54,-76 -100,-84zm-94 -226c83,34 163,96 186,187 -79,-41 -147,-106 -186,-187zm-37 144c-2,-53 0,-106 -3,-159 13,5 39,5 32,27 -3,44 -6,92 -29,132zm36 -5c5,-20 10,-40 14,-60 16,18 31,37 47,56 -21,1 -41,3 -61,4zm-1402 -132c-12,150 24,299 76,439 -1,-99 29,-213 121,-266 23,-18 54,-4 68,18 38,47 29,112 15,166 -19,35 -58,60 -98,49 -7,-19 -14,-38 -22,-58 6,25 -2,63 27,74 41,17 85,-17 103,-52 26,-104 2,-221 -64,-305 -54,-67 -147,-84 -226,-65zm62 325c-9,-35 -20,-71 -13,-107 -10,-9 -16,-19 -17,-32 -8,-53 -12,-107 -9,-160 49,51 29,128 28,191 40,-57 85,-117 157,-135 12,18 24,36 36,55 -99,1 -157,104 -182,188zm12 -173c-1,-26 -2,-53 -5,-80 21,8 42,16 63,23 -20,18 -39,37 -58,57zm-50 -131c67,-9 139,9 184,61 -65,-2 -134,-17 -184,-61zm752 351c19,35 64,69 105,49 30,-17 19,-56 13,-83 -1,27 5,73 -34,72 -49,-5 -86,-50 -84,-99 -11,-55 5,-139 71,-146 106,39 138,162 146,264 49,-135 85,-280 71,-425 -50,-21 -110,-12 -159,10 -84,40 -122,136 -137,222 -5,45 -5,92 8,136zm45 -235c23,-37 48,-75 87,-96 41,-22 89,-23 134,-20 -48,42 -111,55 -172,63 66,25 111,82 145,141 -1,-65 -24,-145 27,-198 9,101 -19,198 -38,296 -28,-83 -83,-186 -183,-186zm112 -42c21,-8 42,-15 63,-23 -2,26 -5,52 -6,77 -19,-18 -38,-37 -57,-54zm-420 149c7,15 14,31 21,47 9,-26 19,-52 29,-78l-14 2c-3,-15 -1,-39 -20,-43 -5,24 -8,48 -16,72zm-17 -41c6,-1 18,-4 24,-6 -9,-16 -18,-17 -28,-5l4 11zm59 1c20,3 16,-38 24,-52 1,-12 -2,-17 -11,-16 -2,6 -6,17 -8,22l-6 13c0,8 1,25 1,33zm-67 -31c5,1 14,3 19,4 -7,-25 -13,-50 -18,-76 33,16 21,57 25,85 4,-4 11,-11 15,-14 10,-26 -8,-52 -7,-78 -7,-1 -22,-3 -29,-4 -9,-14 -13,-29 -11,-45l-25 2c11,42 24,83 31,126zm-106 -11c16,-163 -14,-326 -12,-489 -10,37 -15,81 -49,104 -27,20 -63,19 -95,17 110,88 128,239 156,368zm-93 -340c5,-3 15,-7 20,-9 13,6 22,35 6,42 -14,-7 -22,-18 -26,-33zm51 30c-4,-24 -15,-49 -3,-73 20,13 17,36 19,55 -4,5 -12,13 -16,18zm199 306c3,0 11,1 14,1 1,-12 1,-35 2,-46 13,4 26,7 39,11 -1,-54 31,-110 24,-162 -24,24 -30,62 -55,86 -14,-47 9,-86 44,-116 -4,-9 -8,-17 -13,-26 -9,31 -31,66 -65,72 -68,-39 -87,-127 -88,-200 4,0 10,0 14,0 1,-17 3,-49 4,-66l-30 4c-9,83 3,165 8,248 5,3 15,10 20,13 -2,-16 -5,-46 -7,-62 17,24 34,47 53,68 0,17 -1,33 -2,50 -6,12 -10,25 -11,39 12,-2 22,-7 32,-15 -3,-21 -5,-42 -6,-64 8,1 24,2 32,2 0,22 -1,44 2,65 3,3 8,9 11,12l5 4c6,-10 16,-30 22,-39 5,22 -7,42 -25,56 -3,-2 -9,-5 -13,-7 -23,13 -4,51 -11,72zm160 -485c-6,163 -33,327 -13,490 21,-130 46,-275 149,-367 -33,-1 -71,0 -97,-24 -29,-25 -33,-64 -39,-99zm11 238c-11,-14 -9,-38 1,-52 17,4 19,51 -1,52zm22 -16c3,-22 6,-44 15,-64 -4,-10 -9,-20 -14,-30l-7 50c-23,-17 -13,-46 -15,-71 20,19 45,28 70,37 -17,25 -34,51 -49,78zm-275 134c6,1 19,2 25,3 -3,-16 -13,-55 -34,-48 2,11 7,34 9,45zm-1046 -212c-3,-31 -5,-63 -8,-95 20,21 42,39 67,55 -20,13 -39,27 -59,40zm-9 -137c106,35 214,-19 311,-59 -3,12 -10,36 -13,48 -73,22 -143,53 -208,93 -42,-13 -71,-45 -90,-82zm-2 -29c10,-6 32,-17 43,-22 -24,-27 -50,-51 -73,-77 -1,-11 4,-16 16,-17 26,24 48,52 71,78 25,-11 49,-21 73,-32 -24,-28 -48,-56 -69,-87l24 -1c25,27 45,58 67,87 25,-14 50,-28 74,-43 -21,-27 -43,-54 -64,-82 8,-3 25,-10 33,-13 19,30 39,59 57,89 31,-21 63,-44 101,-49 -12,38 -23,75 -34,114 -75,36 -154,69 -238,76 -29,4 -57,-6 -81,-21zm327 9c40,-152 89,-303 167,-441 41,-70 91,-140 161,-185 18,-14 40,-15 61,-10 -52,30 -102,65 -135,115 -108,153 -161,336 -214,514 -13,2 -26,5 -40,7zm-325 -135c16,-6 32,-12 48,-18 18,23 36,46 55,68 -11,5 -33,15 -43,19 -21,-22 -41,-45 -60,-69zm97 -42c16,-7 32,-15 48,-22 19,24 38,48 56,72 -15,9 -31,18 -47,27 -19,-26 -38,-51 -57,-77zm-136 17c5,-23 9,-46 13,-68 -18,-3 -37,-7 -55,-10 22,-23 50,-39 78,-55 -5,36 -10,72 -15,109 6,-2 17,-4 23,-5 -4,-29 0,-59 5,-88 18,6 36,12 54,17 -9,27 -17,53 -25,79 -14,7 -27,13 -41,20 -7,-8 -15,-17 -22,-25 0,12 -1,34 -1,46 -3,-5 -10,-15 -14,-20zm246 -64c16,-6 32,-13 48,-19 14,22 27,44 41,65 -10,7 -31,21 -41,28 -16,-25 -32,-49 -48,-74zm-152 32c5,-12 9,-23 15,-35 12,-3 24,-5 37,-5 -2,-35 11,-68 19,-102 12,2 36,6 48,8 7,-1 21,-5 28,-6 -24,-29 -64,-5 -94,-21 39,-7 77,-18 114,-33 -4,28 -23,59 -16,86 25,-11 18,-46 27,-67 17,-1 34,-1 50,-1 -13,29 -10,60 0,90 -6,-7 -16,-21 -22,-28 2,34 -25,48 -54,55 0,-9 0,-26 0,-34 -23,12 -15,50 -47,54 6,-24 14,-49 24,-72 -5,-8 -9,-16 -14,-23 -7,34 -18,66 -28,99 -13,6 -26,12 -39,18 -9,-5 -18,-10 -27,-15l5 25c-7,2 -20,6 -26,7zm248 1c-6,-12 -11,-23 -16,-34 6,0 20,2 27,2 -4,-9 -13,-28 -17,-37 17,-6 35,-12 52,-18 4,24 8,48 12,72 -8,5 -25,15 -33,20l-7 -24c-6,6 -12,12 -18,19zm-220 -49c6,-48 -54,-40 -82,-58 36,-19 74,-32 109,-52 -7,37 -7,78 -27,110zm282 -17c-14,-16 7,-49 26,-36 7,14 -7,48 -26,36zm-69 -31c16,-40 34,-80 51,-119 22,7 45,14 68,22 -31,42 -60,91 -119,97zm-8 -33l-5 -9c3,-4 10,-13 13,-17 0,6 1,17 1,23l-9 3zm-301 -79c25,18 51,33 79,45 -20,6 -42,18 -64,9 -13,-15 -10,-36 -15,-54zm309 53l-4 -13c12,-27 32,22 4,13zm-304 -94c59,26 127,20 183,-8 115,-59 238,-106 368,-113 -11,14 -21,28 -31,42 -126,28 -241,89 -362,131 -58,21 -124,1 -158,-52zm238 52c34,-16 68,-33 105,-42 -2,20 -7,39 -14,57 -6,-6 -11,-12 -17,-17 -25,2 -50,2 -74,2zm119 -35c-1,-4 -1,-11 -2,-15 47,-18 94,-35 143,-49 -18,30 -35,61 -52,92 -29,-9 -60,-17 -89,-28zm-336 -36c98,-59 203,-109 311,-148 101,-35 209,-61 317,-45 -25,21 -50,42 -75,64 -138,0 -271,49 -393,111 -49,26 -107,36 -160,18zm2181 576c25,-15 47,-34 67,-56 -4,33 -7,66 -9,99 -20,-14 -39,-29 -58,-43zm-232 -108c-4,-15 -7,-31 -11,-47 97,41 204,93 311,59 -20,37 -49,69 -90,82 -66,-40 -136,-71 -210,-94zm-18 -72c-10,-38 -22,-76 -34,-114 39,4 70,28 101,50 19,-30 36,-62 59,-89 6,2 17,5 23,7 0,35 -40,59 -56,89 25,14 50,28 75,41 22,-30 41,-62 68,-88l22 3c-21,30 -46,58 -69,87 24,10 49,21 73,31 30,-24 50,-86 94,-71 -25,30 -53,58 -80,87 11,5 32,16 43,21 -26,19 -58,26 -89,22 -81,-10 -157,-41 -230,-76zm-49 56c-40,-146 -86,-291 -157,-424 -43,-85 -105,-161 -191,-204 21,-6 40,-4 57,7 75,47 128,123 171,199 75,135 123,282 160,431 -10,-2 -30,-7 -40,-9zm264 -76c18,-24 37,-47 56,-70 16,7 31,14 47,21 -20,22 -40,45 -60,67 -11,-4 -32,-13 -43,-18zm-99 -43c18,-24 37,-48 57,-72 15,7 31,15 47,22 -19,26 -38,51 -57,77 -16,-9 -32,-18 -47,-27zm204 -167c24,17 54,30 70,57 -16,3 -32,6 -47,8 5,31 10,61 11,92 -33,-45 -21,-105 -34,-157zm-276 85c-7,1 -22,2 -29,2 7,-15 16,-30 24,-45 23,12 47,19 71,27 -16,26 -32,51 -48,76 -22,-15 -59,-34 -18,-60zm234 28c-8,-26 -16,-53 -24,-80 18,-5 35,-10 53,-15 6,39 11,77 16,116 -15,-7 -30,-14 -45,-21zm-321 -22c4,-18 5,-37 3,-55 -6,4 -17,11 -22,14 -4,-17 -8,-35 -12,-52 10,7 21,13 33,18 22,5 44,12 66,19 -12,24 -23,47 -38,69 -7,-3 -23,-10 -30,-13zm283 2l-4 -11c17,-24 34,24 4,11zm-65 -26c-11,-35 -22,-70 -33,-105 13,0 38,0 50,0 10,42 21,84 31,126 -16,-7 -32,-14 -48,-21zm56 10c-5,-44 -17,-87 -28,-129 -27,-1 -54,-2 -81,-2 12,39 25,77 35,117 -17,-7 -24,-28 -40,-35l-6 6c-28,21 -41,-25 -60,-29l-9 5c-5,-5 -11,-10 -17,-16 -60,20 -92,-48 -123,-86 23,-7 46,-14 69,-21 15,35 31,70 42,107 6,-6 11,-13 16,-19 -21,-33 -35,-71 -50,-107 -34,10 -67,21 -101,30 -16,-31 -33,-62 -50,-92 89,27 176,61 261,99 -26,0 -52,0 -78,0 2,21 11,38 26,50 -1,-7 -2,-21 -2,-28 16,-1 33,-1 50,0 10,25 3,61 27,78 9,-27 -12,-66 -16,-97 75,24 150,50 219,89 -26,9 -52,18 -78,26 12,19 2,37 -6,54zm-334 -137c16,-6 39,18 32,34 -17,6 -38,-17 -32,-34zm356 -2c27,-12 52,-27 78,-41 -5,17 -5,35 -15,50 -21,10 -43,-1 -63,-9zm-93 -35c-118,-43 -231,-101 -354,-129 -11,-14 -21,-28 -32,-42 127,7 249,52 361,109 57,30 126,39 186,15 -32,55 -104,68 -161,47zm-16 -86c-122,-63 -256,-112 -395,-112 -23,-22 -48,-42 -71,-64 91,-14 183,3 270,30 125,39 242,97 356,161 -52,22 -111,9 -160,-15zm-1030 674c18,31 32,71 70,82 32,-3 47,-36 66,-57 -5,-9 -10,-17 -15,-26 -4,28 -21,63 -53,67 -33,-19 -49,-58 -53,-94 -5,9 -10,19 -15,28zm159 88c3,-2 7,-6 10,-9 15,-109 16,-221 -18,-327 -5,27 -9,54 -12,81 20,20 15,52 16,79 -8,-24 -11,-49 -16,-73 -11,44 -13,96 -48,130 -58,19 -70,-58 -78,-98l-11 -1c2,34 10,69 30,98 18,28 66,27 82,-3 12,-20 21,-41 33,-62 -8,23 -2,46 7,67 4,-10 11,-31 15,-41 -4,38 -16,74 -25,111 9,15 10,32 15,48zm-25 -96c32,4 3,-37 -7,-8l7 8zm-147 -32c16,27 34,-33 7,-23 -2,6 -5,17 -7,23zm-407 -92c51,16 103,27 152,48 -53,-42 -79,-108 -89,-174l-16 1c5,31 12,62 19,93 -36,-16 -22,-65 -19,-95 4,-2 11,-6 15,-8 -12,-67 0,-134 1,-201 -41,97 -65,201 -71,306 6,0 16,0 21,-1 8,-32 -1,-68 10,-101 12,41 -10,89 19,123 -19,-4 -37,-8 -56,-12l14 21zm57 -2c-8,-20 -1,-26 21,-17 8,20 1,26 -21,17zm777 51c21,-9 43,-21 66,-20 0,-17 0,-33 0,-50 15,0 29,3 42,9 -8,4 -23,12 -31,16 24,39 48,-11 41,-38 41,-5 2,25 16,46l23 -19c1,-40 -4,-80 -7,-120l-13 2c-7,27 16,70 -17,85 11,-29 -5,-79 29,-94 -16,-72 -33,-144 -66,-209 12,59 9,121 14,180 21,22 8,60 21,87 -6,2 -18,4 -24,6 9,-25 11,-51 7,-77l-9 0c-7,30 -9,62 -22,90 14,0 31,-5 38,12 -19,2 -39,4 -58,5l14 9c-19,28 -39,56 -64,80zm-445 -66c13,1 27,1 40,1 -5,-33 -9,-66 -12,-100 -11,33 -20,66 -28,99zm-94 -125c74,-5 144,-36 198,-88 53,53 123,82 197,88 -56,-96 -80,-207 -66,-317 14,-126 52,-252 120,-360 2,-6 7,-18 9,-24 -2,-5 -7,-17 -9,-23 -68,-108 -106,-234 -120,-360 -14,-110 10,-222 66,-317 -74,5 -144,35 -197,88 -54,-52 -124,-83 -198,-88 66,110 84,244 60,370 -19,116 -67,225 -119,330 52,105 100,215 119,331 24,126 6,259 -60,370zm453 -701c-75,115 -161,223 -256,321 -92,-99 -183,-203 -250,-321 67,-118 158,-221 250,-320 95,98 181,206 256,320zm-358 638c54,-76 81,-167 102,-258 20,91 51,179 100,259 -38,-20 -72,-49 -98,-83 -30,33 -63,65 -104,82zm221 -27c-52,-80 -78,-172 -96,-264 34,-35 65,-72 99,-107 -31,121 -40,250 -3,371zm-234 -8c34,-119 24,-245 -6,-364 33,36 65,73 99,107 -19,89 -40,181 -93,257zm968 -133c37,-4 -18,-36 0,0zm-1694 -2283c20,16 41,32 60,49 7,-33 14,-66 21,-99 -27,17 -54,34 -81,50zm1602 -49c7,32 14,66 21,99 19,-17 39,-32 57,-50 -24,-18 -51,-34 -78,-49zm-939 27c0,17 24,30 40,30 2,-18 -23,-33 -40,-30zm-25 22c5,7 14,23 19,31 -22,-15 -40,-11 -54,13 30,17 57,40 77,68 18,-29 10,-73 -30,-77 11,-3 22,-6 33,-9l12 -2c-16,-15 -35,-23 -57,-24zm-116 59c-12,21 -26,42 -40,62 39,-10 82,-19 118,2 55,30 76,93 94,148 27,-46 -2,-98 -24,-140 -28,-53 -89,-84 -148,-72zm492 -43l8 4c38,-9 -15,-35 -8,-4zm-10 7c3,-2 7,-5 10,-7 -3,2 -7,5 -10,7zm-10 9l9 0 1 -9c-2,2 -7,7 -10,9zm6 80c23,-27 50,-50 80,-68 -6,-7 -20,-20 -26,-27 -40,12 -77,51 -54,95zm-15 170c21,-57 38,-125 95,-157 37,-23 81,-14 121,-4 -15,-21 -29,-43 -43,-65 -118,-15 -201,122 -173,226zm-1161 -42c26,-19 62,-19 90,-5 42,22 55,93 8,116 17,-33 22,-80 -17,-100 -52,-26 -105,22 -123,69 20,52 46,119 109,129 70,5 122,-52 168,-96 -31,134 -22,273 -20,409 -93,-27 -187,-72 -244,-154 -53,-76 -58,-177 -32,-264 12,-38 27,-80 61,-104zm-47 151c-1,30 -2,61 0,91 64,55 153,69 232,40 3,-29 5,-59 8,-88 -43,29 -96,58 -150,40 -42,-12 -65,-50 -90,-83zm7 125c22,85 95,141 168,183 6,0 18,-1 24,-1 9,6 25,18 34,24 -2,-55 3,-110 -5,-164 -16,40 -25,83 -22,126 -10,-2 -19,-5 -29,-7 -35,-72 -100,-125 -170,-161zm125 52c17,18 33,36 49,55 5,-20 9,-40 14,-60 -21,2 -42,3 -63,5zm1871 -337c45,-19 94,10 115,51 51,96 58,221 -1,316 -55,88 -153,136 -250,164 0,-138 14,-281 -24,-415 46,49 102,108 175,101 61,-11 86,-76 107,-128 -19,-44 -63,-89 -115,-73 -43,14 -50,71 -22,103 -57,-19 -35,-106 15,-119zm26 246c-51,12 -99,-16 -139,-44 2,29 4,59 6,88 78,31 169,16 233,-38 2,-30 2,-60 0,-90 -27,34 -54,76 -100,84zm-94 226c83,-34 163,-96 186,-187 -79,41 -147,106 -186,187zm-37 -144c-2,53 0,106 -3,159 13,-6 39,-6 32,-27 -3,-45 -6,-92 -29,-132zm36 4c5,20 10,41 14,61 16,-19 31,-37 47,-56 -21,-1 -41,-3 -61,-5zm-1402 133c-12,-150 24,-300 76,-440 -1,100 29,213 121,267 23,18 54,4 68,-18 38,-47 29,-112 15,-167 -19,-34 -58,-60 -98,-49 -7,20 -14,39 -22,58 6,-24 -2,-62 27,-73 41,-17 85,16 103,52 26,104 2,220 -64,305 -54,66 -147,83 -226,65zm62 -325c-9,35 -20,71 -13,107 -10,8 -16,19 -17,32 -8,53 -12,107 -9,160 49,-52 29,-128 28,-192 40,58 85,118 157,136 12,-19 24,-37 36,-55 -99,-2 -157,-104 -182,-188zm12 173c-1,26 -2,53 -5,79 21,-7 42,-15 63,-22 -20,-18 -39,-37 -58,-57zm-50 131c67,9 139,-9 184,-61 -65,2 -134,17 -184,61zm752 -351c19,-35 64,-69 105,-49 30,16 19,56 13,82 -1,-26 5,-73 -34,-71 -49,5 -86,50 -84,99 -11,55 5,138 71,146 106,-40 138,-163 146,-264 49,135 85,280 71,425 -50,21 -110,12 -159,-10 -84,-41 -122,-136 -137,-222 -5,-46 -5,-92 8,-136zm45 235c23,37 48,75 87,95 41,23 89,24 134,21 -48,-42 -111,-55 -172,-63 66,-26 111,-82 145,-142 -1,66 -24,146 27,199 9,-101 -19,-199 -38,-296 -28,82 -83,186 -183,186zm112 42c21,7 42,15 63,22 -2,-25 -5,-51 -6,-76 -19,18 -38,36 -57,54zm-420 -149c7,-15 14,-31 21,-47 9,26 19,52 29,78l-14 -3c-3,16 -1,39 -20,44 -5,-24 -8,-49 -16,-72zm-17 40c6,2 18,5 24,6 -9,16 -18,18 -28,5l4 -11zm59 0c20,-3 16,37 24,52 1,12 -2,17 -11,15 -2,-5 -6,-16 -8,-22l-6 -12c0,-9 1,-25 1,-33zm-67 31c5,-1 14,-3 19,-4 -7,25 -13,50 -18,75 33,-15 21,-56 25,-84 4,4 11,10 15,14 10,25 -8,52 -7,78 -7,1 -22,3 -29,4 -9,14 -13,29 -11,45l-25 -3c11,-41 24,-82 31,-125zm-106 11c16,163 -14,326 -12,489 -10,-37 -15,-81 -49,-104 -27,-20 -63,-19 -95,-17 110,-88 128,-239 156,-368zm-93 340c5,2 15,7 20,9 13,-7 22,-35 6,-42 -14,7 -22,18 -26,33zm51 -30c-4,24 -15,49 -3,72 20,-12 17,-35 19,-54 -4,-5 -12,-14 -16,-18zm199 -306c3,0 11,-1 14,-1 1,11 1,34 2,46 13,-4 26,-8 39,-12 -1,55 31,111 24,162 -24,-23 -30,-61 -55,-86 -14,48 9,87 44,117 -4,9 -8,17 -13,25 -9,-30 -31,-65 -65,-71 -68,38 -87,127 -88,199 4,0 10,1 14,1 1,16 3,49 4,65l-30 -3c-9,-83 3,-166 8,-248 5,-3 15,-10 20,-13 -2,16 -5,46 -7,61 17,-23 34,-46 53,-67 0,-17 -1,-33 -2,-50 -6,-12 -10,-25 -11,-39 12,2 22,7 32,14 -3,22 -5,43 -6,64 8,0 24,-1 32,-1 0,-22 -1,-44 2,-66 3,-2 8,-8 11,-11l5 -4c6,10 16,29 22,39 5,-23 -7,-42 -25,-56 -3,2 -9,5 -13,7 -23,-13 -4,-51 -11,-72zm160 485c-6,-163 -33,-327 -13,-490 21,130 46,275 149,367 -33,1 -71,0 -97,24 -29,24 -33,64 -39,99zm11 -238c-11,14 -9,37 1,52 17,-4 19,-51 -1,-52zm22 16c3,22 6,44 15,64 -4,10 -9,20 -14,30l-7 -51c-23,17 -13,47 -15,71 20,-18 45,-27 70,-37 -17,-25 -34,-51 -49,-77zm-275 -134c6,-1 19,-2 25,-3 -3,16 -13,55 -34,48 2,-11 7,-34 9,-45zm-1046 211c-3,32 -5,64 -8,96 20,-21 42,-39 67,-55 -20,-14 -39,-27 -59,-41zm-9 138c106,-35 214,18 311,59 -3,-12 -10,-36 -13,-48 -73,-22 -143,-53 -208,-93 -42,13 -71,45 -90,82zm-2 29c10,5 32,16 43,22 -24,26 -50,51 -73,77 -1,11 4,16 16,17 26,-24 48,-52 71,-78 25,10 49,21 73,31 -24,29 -48,57 -69,88l24 1c25,-27 45,-59 67,-88 25,14 50,29 74,44 -21,27 -43,54 -64,82 8,3 25,10 33,13 19,-30 39,-60 57,-90 31,22 63,45 101,50 -12,-38 -23,-76 -34,-114 -75,-36 -154,-69 -238,-76 -29,-4 -57,6 -81,21zm327 -10c40,153 89,304 167,441 41,71 91,141 161,186 18,14 40,15 61,10 -52,-30 -102,-65 -135,-115 -108,-154 -161,-336 -214,-514 -13,-3 -26,-5 -40,-8zm-325 136c16,6 32,12 48,18 18,-23 36,-46 55,-68 -11,-5 -33,-15 -43,-20 -21,23 -41,46 -60,70zm97 42c16,7 32,14 48,21 19,-23 38,-47 56,-71 -15,-10 -31,-19 -47,-28 -19,26 -38,52 -57,78zm-136 -17c5,23 9,45 13,68 -18,3 -37,6 -55,10 22,23 50,39 78,55 -5,-36 -10,-73 -15,-109 6,1 17,4 23,5 -4,29 0,59 5,87 18,-5 36,-11 54,-17 -9,-26 -17,-52 -25,-78 -14,-7 -27,-13 -41,-20 -7,8 -15,16 -22,25 0,-12 -1,-35 -1,-46 -3,5 -10,15 -14,20zm246 63c16,7 32,13 48,20 14,-22 27,-44 41,-66 -10,-7 -31,-20 -41,-27 -16,24 -32,49 -48,73zm-152 -31c5,11 9,23 15,34 12,4 24,6 37,6 -2,35 11,68 19,102 12,-2 36,-6 48,-8 7,1 21,4 28,6 -24,29 -64,5 -94,20 39,8 77,19 114,34 -4,-28 -23,-59 -16,-86 25,11 18,46 27,67 17,0 34,1 50,1 -13,-30 -10,-60 0,-90 -6,7 -16,21 -22,28 2,-35 -25,-48 -54,-55 0,8 0,25 0,34 -23,-12 -15,-50 -47,-54 6,24 14,49 24,72 -5,8 -9,15 -14,23 -7,-34 -18,-67 -28,-99 -13,-6 -26,-12 -39,-19 -9,5 -18,11 -27,16l5 -26c-7,-1 -20,-5 -26,-6zm248 -1c-6,11 -11,23 -16,34 6,-1 20,-2 27,-2 -4,9 -13,27 -17,37 17,6 35,12 52,18 4,-25 8,-49 12,-73 -8,-5 -25,-14 -33,-19l-7 24c-6,-6 -12,-13 -18,-19zm-220 48c6,49 -54,41 -82,59 36,18 74,31 109,52 -7,-37 -7,-78 -27,-111zm282 18c-14,15 7,48 26,36 7,-15 -7,-48 -26,-36zm-69 31c16,40 34,79 51,119 22,-7 45,-14 68,-22 -31,-43 -60,-91 -119,-97zm-8 33l-5 9c3,4 10,12 13,17 0,-6 1,-18 1,-23l-9 -3zm-301 79c25,-18 51,-33 79,-45 -20,-6 -42,-18 -64,-9 -13,14 -10,36 -15,54zm309 -53l-4 12c12,28 32,-22 4,-12zm-304 93c59,-26 127,-19 183,9 115,59 238,106 368,113 -11,-14 -21,-28 -31,-42 -126,-28 -241,-89 -362,-131 -58,-21 -124,-1 -158,51zm238 -52c34,17 68,34 105,43 -2,-20 -7,-39 -14,-57 -6,5 -11,11 -17,17 -25,-2 -50,-2 -74,-3zm119 36c-1,3 -1,11 -2,14 47,19 94,36 143,50 -18,-31 -35,-61 -52,-92 -29,9 -60,16 -89,28zm-336 36c98,59 203,109 311,148 101,35 209,61 317,45 -25,-22 -50,-43 -75,-65 -138,1 -271,-49 -393,-111 -49,-25 -107,-35 -160,-17zm2181 -577c25,16 47,35 67,57 -4,-33 -7,-66 -9,-100 -20,15 -39,29 -58,43zm-232 108c-4,16 -7,32 -11,48 97,-41 204,-93 311,-59 -20,-37 -49,-69 -90,-82 -66,40 -136,71 -210,93zm-18 73c-10,38 -22,76 -34,113 39,-3 70,-27 101,-49 19,30 36,62 59,89 6,-2 17,-5 23,-7 0,-35 -40,-59 -56,-89 25,-14 50,-28 75,-41 22,29 41,62 68,88l22 -3c-21,-30 -46,-58 -69,-87 24,-10 49,-21 73,-31 30,24 50,85 94,70 -25,-30 -53,-57 -80,-86 11,-6 32,-16 43,-21 -26,-19 -58,-26 -89,-22 -81,9 -157,41 -230,76zm-49 -56c-40,145 -86,291 -157,424 -43,84 -105,161 -191,204 21,6 40,4 57,-7 75,-48 128,-123 171,-199 75,-135 123,-282 160,-431 -10,2 -30,7 -40,9zm264 75c18,25 37,48 56,71 16,-7 31,-14 47,-21 -20,-23 -40,-45 -60,-67 -11,4 -32,13 -43,17zm-99 44c18,24 37,48 57,72 15,-8 31,-15 47,-22 -19,-26 -38,-52 -57,-77 -16,9 -32,17 -47,27zm204 166c24,-17 54,-29 70,-56 -16,-3 -32,-6 -47,-8 5,-31 10,-61 11,-92 -33,44 -21,105 -34,156zm-276 -84c-7,-1 -22,-2 -29,-2 7,15 16,30 24,45 23,-12 47,-19 71,-27 -16,-26 -32,-51 -48,-76 -22,15 -59,34 -18,60zm234 -29c-8,27 -16,54 -24,80 18,6 35,11 53,16 6,-39 11,-77 16,-116 -15,7 -30,14 -45,20zm-321 23c4,18 5,36 3,55 -6,-4 -17,-11 -22,-15 -4,18 -8,35 -12,53 10,-7 21,-13 33,-19 22,-5 44,-11 66,-18 -12,-24 -23,-48 -38,-69 -7,3 -23,9 -30,13zm283 -2l-4 11c17,23 34,-24 4,-11zm-65 26c-11,35 -22,70 -33,105 13,0 38,0 50,0 10,-42 21,-85 31,-127 -16,7 -32,15 -48,22zm56 -10c-5,44 -17,87 -28,129 -27,1 -54,2 -81,2 12,-39 25,-77 35,-117 -17,7 -24,27 -40,34l-6 -5c-28,-21 -41,25 -60,29l-9 -5c-5,5 -11,10 -17,15 -60,-20 -92,48 -123,87 23,7 46,14 69,21 15,-35 31,-70 42,-107 6,6 11,12 16,19 -21,33 -35,71 -50,107 -34,-11 -67,-21 -101,-30 -16,31 -33,61 -50,92 89,-27 176,-61 261,-99 -26,0 -52,0 -78,0 2,-22 11,-38 26,-50 -1,7 -2,21 -2,28 16,0 33,0 50,0 10,-25 3,-62 27,-78 9,27 -12,65 -16,96 75,-23 150,-50 219,-89 -26,-9 -52,-17 -78,-26 12,-18 2,-36 -6,-53zm-334 137c16,6 39,-18 32,-34 -17,-6 -38,17 -32,34zm356 2c27,12 52,26 78,40 -5,-16 -5,-35 -15,-49 -21,-10 -43,0 -63,9zm-93 35c-118,43 -231,101 -354,129 -11,14 -21,28 -32,42 127,-7 249,-52 361,-110 57,-30 126,-38 186,-14 -32,-56 -104,-68 -161,-47zm-16 86c-122,63 -256,111 -395,112 -23,22 -48,42 -71,64 91,14 183,-3 270,-30 125,-39 242,-97 356,-161 -52,-22 -111,-9 -160,15zm-1030 -674c18,-31 32,-71 70,-83 32,4 47,36 66,58 -5,9 -10,17 -15,26 -4,-28 -21,-63 -53,-67 -33,19 -49,57 -53,94 -5,-10 -10,-19 -15,-28zm159 -89c3,3 7,7 10,10 15,108 16,221 -18,326 -5,-26 -9,-53 -12,-80 20,-20 15,-53 16,-79 -8,24 -11,49 -16,73 -11,-44 -13,-96 -48,-130 -58,-20 -70,58 -78,98l-11 1c2,-35 10,-70 30,-98 18,-28 66,-27 82,2 12,20 21,42 33,63 -8,-24 -2,-46 7,-67 4,10 11,31 15,41 -4,-38 -16,-74 -25,-111 9,-15 10,-33 15,-49zm-25 97c32,-4 3,37 -7,8l7 -8zm-147 32c16,-27 34,33 7,23 -2,-6 -5,-17 -7,-23zm-407 91c51,-15 103,-26 152,-47 -53,42 -79,108 -89,174l-16 -1c5,-31 12,-62 19,-93 -36,15 -22,64 -19,95 4,2 11,6 15,8 -12,66 0,134 1,200 -41,-97 -65,-201 -71,-305 6,0 16,0 21,0 8,33 -1,69 10,101 12,-40 -10,-88 19,-123 -19,5 -37,9 -56,13l14 -22zm57 3c-8,20 -1,26 21,17 8,-20 1,-26 -21,-17zm777 -51c21,9 43,21 66,20 0,16 0,33 0,50 15,-1 29,-3 42,-10 -8,-3 -23,-11 -31,-15 24,-39 48,11 41,38 41,5 2,-26 16,-46l23 19c1,40 -4,79 -7,119l-13 -1c-7,-27 16,-70 -17,-85 11,29 -5,79 29,94 -16,72 -33,144 -66,209 12,-59 9,-121 14,-181 21,-22 8,-59 21,-86 -6,-2 -18,-5 -24,-6 9,25 11,51 7,77l-9 -1c-7,-30 -9,-61 -22,-89 14,0 31,5 38,-12 -19,-2 -39,-4 -58,-5l14 -9c-19,-29 -39,-56 -64,-80zm-445 65c13,0 27,0 40,-1 -5,34 -9,67 -12,101 -11,-33 -20,-66 -28,-100zm1 188c54,77 81,168 102,258 20,-90 51,-179 100,-258 -38,20 -72,48 -98,83 -30,-33 -63,-65 -104,-83zm221 28c-52,79 -78,172 -96,264 34,35 65,72 99,107 -31,-121 -40,-250 -3,-371zm-234 8c34,119 24,245 -6,364 33,-36 65,-73 99,-108 -19,-89 -40,-180 -93,-256zm968 132c37,4 -18,37 0,0z"/>
   </g>
  </g>
 </g>
</svg>
