<?xml version="1.0" encoding="UTF-8"?>
<!DOCTYPE svg PUBLIC "-//W3C//DTD SVG 1.1//EN" "http://www.w3.org/Graphics/SVG/1.1/DTD/svg11.dtd">
<!-- Creator: CorelDRAW X7 -->
<svg xmlns="http://www.w3.org/2000/svg" xml:space="preserve" width="4.85123in" height="6.72763in" version="1.1" shape-rendering="geometricPrecision" text-rendering="geometricPrecision" image-rendering="optimizeQuality" fill-rule="evenodd" clip-rule="evenodd"
viewBox="0 0 4851 6728"
 xmlns:xlink="http://www.w3.org/1999/xlink">
 <g id="Layer_x0020_1">
  <metadata id="CorelCorpID_0Corel-Layer"/>
  <g id="_2272066854048">
   <path fill="#D02228" fill-rule="nonzero" d="M0 0l654 0c-100,130 -200,261 -309,383 -36,50 -90,93 -103,155 161,-169 303,-356 450,-538l1734 0 1734 0c146,182 288,369 450,538 -14,-62 -68,-105 -104,-155 -109,-122 -209,-253 -308,-383l653 0 0 652c-61,-5 -134,14 -178,-39 3,12 6,25 9,38 -214,-2 -429,8 -643,-8 -55,-62 -117,-120 -170,-184 -28,-28 -49,-72 -91,-77 68,97 165,170 231,268 -77,3 -154,0 -231,1 46,83 108,156 176,220 66,63 118,138 185,198 125,114 218,257 346,367 43,-7 64,27 94,46 -8,-63 66,-34 102,-37 55,70 111,140 170,206l0 284c-21,13 -54,24 -52,55 18,1 35,2 52,3l0 375c-125,-112 -208,-263 -322,-386 -111,-132 -227,-259 -334,-394 -8,-11 -18,-18 -31,-21 34,58 73,113 120,162 186,231 377,459 567,687l0 10 0 9c-190,228 -381,456 -567,688 -47,48 -86,104 -120,162 13,-4 23,-11 31,-22 107,-135 223,-262 334,-393 114,-124 197,-274 322,-387l0 375c-17,1 -34,2 -52,3 -2,31 31,42 52,56l0 283c-59,66 -115,136 -170,206 -36,-3 -110,26 -102,-37 -30,19 -51,54 -94,46 -128,110 -221,254 -346,367 -67,61 -119,135 -185,198 -68,65 -130,137 -176,220 77,1 154,-2 231,1 -66,98 -163,171 -231,269 42,-6 63,-50 91,-77 53,-65 115,-122 170,-185 214,-16 429,-5 643,-7 -3,12 -6,25 -9,38 44,-54 117,-35 178,-40l0 652 0 652c-61,-5 -134,14 -178,-39 3,13 6,25 9,38 -214,-2 -429,8 -643,-7 -55,-63 -117,-120 -170,-185 -28,-28 -49,-72 -91,-77 68,97 165,170 231,269 -77,2 -154,-1 -231,1 46,82 108,155 176,220 66,62 118,137 185,198 125,113 218,256 346,367 43,-8 64,26 94,46 -8,-63 66,-34 102,-38 55,70 111,140 170,207l0 225 -412 0c-82,-96 -166,-190 -244,-289 -8,-10 -18,-18 -31,-21 34,58 73,113 120,162 40,49 79,99 120,148l-322 0 2 -2c-15,-26 -36,-49 -50,-75 7,-39 24,-76 26,-116 -41,12 -72,52 -112,60 -36,-19 -68,-45 -105,-60 -9,45 28,83 24,127 -29,24 -68,38 -94,66l-474 0c8,-22 16,-43 24,-64 18,56 79,37 126,37 -32,-29 -69,-52 -103,-78 -2,-48 14,-93 24,-138 -47,3 -71,51 -115,64 -39,-13 -63,-50 -102,-65 -7,46 18,84 25,126 -27,28 -87,35 -89,78 35,4 68,10 102,15 14,3 22,12 28,25l-620 0c5,-10 10,-18 19,-25 17,-22 58,-46 37,-77 -23,-46 26,-94 13,-142 -43,1 -63,51 -102,66 -41,-17 -72,-54 -116,-66 2,43 32,82 25,126 -14,14 -32,25 -49,34 -18,-9 -36,-20 -50,-34 -6,-44 23,-83 25,-126 -44,12 -74,49 -116,66 -39,-15 -58,-65 -102,-66 -13,48 36,96 13,142 -20,31 20,55 37,77 9,7 15,15 19,25l-620 0c6,-13 14,-22 28,-25 34,-5 68,-11 102,-15 -2,-43 -61,-50 -89,-78 7,-42 33,-80 25,-126 -39,15 -63,52 -102,65 -43,-13 -68,-61 -115,-64 10,45 26,90 24,138 -34,26 -71,49 -103,78 47,0 108,19 126,-37 8,21 16,42 24,64l-474 0c-26,-28 -65,-42 -94,-66 -3,-44 33,-82 24,-127 -37,15 -69,41 -104,60 -41,-8 -72,-48 -113,-60 2,40 19,77 26,116 -14,26 -35,49 -50,75l2 2 -321 0c40,-49 80,-99 119,-148 47,-49 86,-104 120,-162 -13,3 -23,11 -31,21 -78,99 -161,193 -244,289l-412 0 0 -225c59,-67 115,-137 170,-207 36,4 111,-25 102,38 30,-20 51,-54 94,-46 128,-111 221,-254 346,-367 67,-61 119,-136 185,-198 68,-65 130,-138 177,-220 -78,-2 -155,1 -232,-1 66,-99 163,-172 231,-269 -42,5 -63,49 -91,77 -53,65 -115,122 -170,185 -213,15 -429,5 -643,7 3,-13 6,-25 9,-38 -44,53 -117,34 -178,39l0 -652 0 -652c61,5 134,-14 178,40 -3,-13 -6,-26 -9,-38 214,2 430,-9 643,7 55,63 117,120 170,185 28,27 49,71 91,77 -68,-98 -165,-171 -231,-269 77,-3 154,0 232,-1 -47,-83 -109,-155 -177,-220 -66,-63 -118,-137 -185,-198 -125,-113 -218,-257 -346,-367 -43,8 -64,-27 -94,-46 9,63 -66,34 -102,37 -55,-70 -111,-140 -170,-206l0 -283c21,-14 54,-25 52,-56 -17,-1 -35,-2 -52,-3l0 -375c125,113 208,263 322,387 111,131 227,258 334,393 8,11 18,18 31,22 -34,-58 -73,-114 -120,-162 -186,-232 -377,-460 -567,-688l0 -9 0 -10c190,-228 381,-456 567,-687 47,-49 86,-104 120,-162 -13,3 -23,10 -31,21 -107,135 -223,262 -334,394 -114,123 -197,274 -322,386l0 -375c17,-1 35,-2 52,-3 2,-31 -31,-42 -52,-55l0 -284c59,-66 115,-136 170,-206 36,3 111,-26 102,37 30,-19 51,-53 94,-46 128,-110 221,-253 346,-367 67,-60 119,-135 185,-198 68,-64 130,-137 177,-220 -78,-1 -155,2 -232,-1 66,-98 163,-171 231,-268 -42,5 -63,49 -91,77 -53,64 -115,122 -170,184 -213,16 -429,6 -643,8 3,-13 6,-26 9,-38 -44,53 -117,34 -178,39l0 -652zm4198 4851c99,-130 199,-260 308,-383 36,-50 90,-92 104,-155 -162,169 -304,356 -450,538 146,182 288,370 450,538 -14,-62 -68,-105 -104,-155 -109,-122 -209,-252 -308,-383zm-1772 304c-22,22 -56,35 -66,67 23,-11 45,-25 66,-41 20,16 42,30 66,41 -10,-32 -44,-45 -66,-67zm0 631c-16,-15 -41,-22 -50,-43 1,-39 3,-80 24,-115 -41,14 -74,44 -112,63 -36,-20 -63,-56 -105,-63 -5,50 22,98 61,126 -47,18 -114,34 -127,91 31,1 95,4 126,5 17,38 27,79 51,113 25,-61 31,-165 132,-130 100,-35 106,69 131,130 24,-34 34,-75 51,-113 32,-1 95,-4 126,-5 -13,-57 -79,-73 -127,-91 39,-28 67,-76 61,-126 -42,7 -69,43 -104,63 -39,-19 -72,-49 -113,-63 21,35 23,76 24,115 -8,21 -34,28 -49,43zm94 942c-3,-8 -6,-15 -9,-22 -28,-10 -56,-16 -85,-19 -29,3 -58,9 -86,19 -3,7 -6,14 -9,22l95 0 94 0zm1101 -1668c36,20 59,53 82,85 -6,-1 -17,-2 -23,-3 -19,-33 -64,-49 -68,-87l9 5zm-562 563c38,31 97,38 121,84 -50,-22 -112,-44 -143,-91 6,2 17,5 22,7zm742 380c121,135 246,267 362,406 -6,-1 -18,-2 -24,-3 -118,-137 -242,-270 -362,-406 6,1 18,2 24,3zm-945 64c31,43 78,65 129,74 -27,-41 33,-66 67,-65 2,26 -12,47 -21,69 -2,32 5,64 6,95 -30,20 -65,16 -97,3 1,13 1,25 0,38 16,-4 32,-10 48,-13 -3,41 -18,81 -41,114 -36,-6 -33,-77 -38,-99 -47,-5 -94,-11 -141,-17 23,-33 62,-50 91,-76 0,-44 -24,-83 -25,-127 5,1 17,3 22,4zm858 33c14,55 -31,99 -23,152 35,8 87,22 89,66 -32,1 -95,2 -126,3 -23,27 -19,67 -31,100 -52,4 -32,-74 -64,-99 -21,-44 -129,24 -111,-40 35,-26 72,-49 111,-69 -29,-32 -56,-68 -62,-111 44,1 69,44 106,61 40,-14 72,-46 111,-63zm-1024 557c19,14 44,23 57,45 -24,0 -70,0 -93,0 0,-18 19,-51 36,-45zm2161 -561c-71,-35 -106,-120 -179,-149 47,76 115,136 179,197l0 -48zm-169 75l-9 -6c-5,38 40,58 65,77 -10,-30 -29,-54 -56,-71zm169 125c-43,-5 -86,-16 -129,0 31,61 80,109 129,155l0 -155zm-4159 -1445c-147,-182 -289,-369 -450,-538 13,63 67,105 103,155 109,123 209,253 309,383 -100,131 -200,261 -309,383 -36,50 -90,93 -103,155 161,-168 303,-356 450,-538zm538 209c-36,20 -59,53 -82,85 6,-1 18,-2 23,-3 19,-33 65,-49 68,-87l-9 5zm562 563c-38,31 -97,38 -121,84 50,-22 112,-44 143,-91 -6,2 -17,5 -22,7zm-742 380c-121,135 -246,267 -362,406 6,-1 18,-2 24,-3 119,-137 242,-270 362,-406 -6,1 -18,2 -24,3zm945 64c-31,43 -78,65 -128,74 26,-41 -33,-66 -67,-65 -3,26 11,47 20,69 2,32 -5,64 -6,95 30,20 65,16 97,3 -1,13 -1,25 0,38 -16,-4 -32,-10 -48,-13 3,41 18,81 41,114 36,-6 33,-77 39,-99 46,-5 93,-11 140,-17 -23,-33 -62,-50 -91,-76 1,-44 24,-83 26,-127 -6,1 -18,3 -23,4zm-858 33c-14,55 32,99 24,152 -36,8 -88,22 -90,66 32,1 95,2 127,3 23,27 18,67 30,100 52,4 32,-74 64,-99 22,-44 129,24 112,-40 -36,-26 -73,-49 -112,-69 29,-32 56,-68 62,-111 -44,1 -68,44 -105,61 -40,-14 -73,-46 -112,-63zm1024 557c-19,14 -44,23 -56,45 23,0 69,0 92,0 0,-18 -18,-51 -36,-45zm-2161 -561c71,-35 106,-120 179,-149 -47,76 -115,136 -179,197l0 -48zm170 75l9 -6c4,38 -40,58 -66,77 11,-30 30,-54 57,-71zm-170 125c43,-5 87,-16 129,0 -30,61 -80,109 -129,155l0 -155zm3690 -3870c11,-29 20,-58 29,-87 35,-2 105,-4 140,-5 -31,-33 -69,-57 -101,-89 6,-38 15,-76 20,-114 -41,-1 -68,35 -102,52 -41,-16 -69,-57 -114,-65 9,41 27,81 24,125 -30,27 -64,48 -90,78 42,6 88,-3 126,18 23,22 23,58 33,87 -10,28 -10,64 -33,86 -38,21 -84,12 -126,18 26,30 60,52 90,78 3,44 -15,84 -24,126 45,-8 73,-50 114,-66 34,17 61,53 102,52 -5,-38 -14,-76 -20,-114 32,-32 70,-56 101,-88 -35,-2 -105,-4 -140,-5 -9,-30 -18,-59 -29,-87zm-744 0c16,-38 29,-76 45,-113 34,-1 104,-3 139,-4 -38,-26 -74,-55 -105,-89 3,-40 25,-75 27,-115 -43,5 -74,40 -114,51 -35,-20 -69,-43 -105,-63 -2,44 25,82 26,125 -28,27 -68,44 -89,78 39,17 83,16 124,19 17,35 27,74 42,111 -15,36 -25,75 -42,111 -41,2 -85,1 -124,18 21,34 61,51 89,78 -1,43 -28,81 -26,125 36,-20 70,-43 105,-63 40,11 71,47 114,51 -2,-40 -24,-75 -27,-115 31,-34 67,-63 105,-89 -35,-1 -105,-3 -139,-4 -16,-37 -29,-75 -45,-112zm-520 590c-29,-4 -58,-10 -86,-20 -17,-36 -29,-75 -46,-111 -36,28 -25,85 -61,114 -17,23 -57,46 -37,78 23,46 -26,93 -13,142 44,-2 63,-52 102,-66 42,17 72,53 116,66 -2,-44 -31,-83 -25,-127 14,-14 32,-24 50,-34 17,10 35,20 49,34 7,44 -23,83 -25,127 44,-13 75,-49 116,-66 39,14 59,64 102,66 13,-49 -36,-96 -13,-142 21,-32 -20,-55 -37,-78 -36,-29 -25,-86 -61,-114 -17,36 -29,75 -46,111 -28,10 -56,16 -85,20zm0 854c-101,34 -107,-70 -132,-131 -24,34 -34,76 -51,114 -31,1 -95,3 -126,5 13,56 80,72 127,90 -39,28 -66,76 -61,126 42,-6 69,-43 105,-62 38,18 71,48 112,62 -21,-35 -23,-75 -24,-115 9,-20 34,-27 50,-42 15,15 41,22 49,42 -1,40 -3,80 -24,115 41,-14 74,-44 113,-62 35,19 62,56 104,62 6,-50 -22,-98 -61,-126 48,-18 114,-34 127,-90 -31,-2 -94,-4 -126,-5 -17,-38 -27,-80 -51,-114 -25,61 -31,165 -131,131zm0 651c-21,-16 -43,-30 -66,-40 10,31 44,44 66,66 22,-22 56,-35 66,-66 -24,10 -46,24 -66,40zm1195 121c36,-20 59,-53 82,-85 -6,1 -17,3 -23,3 -19,33 -64,49 -68,88l9 -6zm-562 -562c38,-32 97,-39 121,-85 -50,23 -112,44 -143,91 6,-2 17,-5 22,-6zm742 -381c121,-134 246,-266 362,-406 -6,1 -18,2 -24,3 -118,138 -242,270 -362,406 6,0 18,-2 24,-3zm-945 -64c31,-43 78,-64 129,-74 -27,42 33,66 67,65 2,-25 -12,-46 -21,-69 -2,-31 5,-63 6,-95 -30,-19 -65,-15 -97,-3 1,-12 1,-25 0,-37 16,3 32,9 48,12 -3,-40 -18,-80 -41,-113 -36,6 -33,76 -38,99 -47,5 -94,10 -141,16 23,34 62,51 91,77 0,43 -24,83 -25,126 5,-1 17,-3 22,-4zm858 -33c14,-54 -31,-99 -23,-152 35,-7 87,-22 89,-66 -32,0 -95,-2 -126,-3 -23,-27 -19,-67 -31,-99 -52,-4 -32,73 -64,98 -21,45 -129,-24 -111,40 35,26 72,50 111,69 -29,32 -56,68 -62,112 44,-2 69,-44 106,-61 40,14 72,46 111,62zm-344 -384c-10,-46 -26,-90 -24,-138 34,-27 71,-50 103,-79 -47,0 -108,-18 -126,38 -17,-47 -36,-95 -57,-140 -50,-3 -25,91 -75,100 -34,5 -67,12 -102,16 2,43 62,50 89,77 -7,42 -32,81 -25,126 39,-15 63,-51 102,-65 44,13 68,62 115,65zm690 -51c-2,-39 -19,-76 -26,-115 14,-27 35,-49 50,-75 -24,-21 -46,-46 -85,-31 -26,-31 -26,-75 -44,-111 -44,19 -12,96 -61,115 -39,24 -89,4 -130,14 25,35 71,49 103,77 4,44 -33,81 -24,126 37,-15 69,-41 105,-60 40,9 71,49 112,60zm-1370 -121c19,-14 44,-24 57,-45 -24,0 -70,0 -93,0 0,18 19,50 36,45zm2161 561c-71,34 -106,120 -179,148 47,-76 115,-136 179,-197l0 49zm-169 -75l-9 6c-5,-39 40,-58 65,-78 -10,30 -29,54 -56,72zm169 -125c-43,4 -86,15 -129,-1 31,-61 80,-109 129,-155l0 156zm-2936 -981c15,-37 25,-76 42,-111 42,-3 85,-2 125,-19 -22,-34 -61,-51 -90,-78 2,-43 28,-81 26,-125 -36,20 -69,43 -105,63 -40,-11 -71,-46 -114,-51 3,40 25,75 27,115 -31,34 -67,63 -105,89 35,1 105,3 140,4 15,37 28,75 44,113 -16,37 -29,75 -44,112 -35,1 -105,3 -140,4 38,26 74,55 105,89 -2,40 -24,75 -27,115 43,-4 74,-40 114,-51 36,20 69,43 105,63 2,-44 -24,-82 -26,-125 29,-27 68,-44 90,-78 -40,-17 -83,-16 -125,-18 -17,-36 -27,-75 -42,-111zm-718 0c9,-29 9,-65 32,-87 38,-21 84,-12 126,-18 -26,-30 -60,-51 -89,-78 -4,-44 14,-84 23,-125 -45,8 -73,49 -114,65 -34,-17 -61,-53 -102,-52 5,38 14,76 20,114 -31,32 -69,56 -101,89 35,1 105,3 140,5 9,29 18,58 29,87 -11,28 -20,57 -29,87 -35,1 -105,3 -140,5 32,32 70,56 101,88 -6,38 -15,76 -20,114 41,1 68,-35 102,-52 41,16 69,58 114,66 -9,-42 -27,-82 -23,-126 29,-26 63,-48 89,-78 -42,-6 -88,3 -126,-18 -23,-22 -23,-58 -32,-86zm33 2216c-36,-20 -59,-53 -82,-85 6,1 18,3 23,3 19,33 65,49 68,88l-9 -6zm562 -562c-38,-32 -97,-39 -121,-85 50,23 112,44 143,91 -6,-2 -17,-5 -22,-6zm-742 -381c-121,-134 -246,-266 -362,-406 6,1 18,2 24,3 119,138 242,270 362,406 -6,0 -18,-2 -24,-3zm945 -64c-31,-43 -78,-64 -128,-74 26,42 -33,66 -67,65 -3,-25 11,-46 20,-69 2,-31 -5,-63 -6,-95 30,-19 65,-15 97,-3 -1,-12 -1,-25 0,-37 -16,3 -32,9 -48,12 3,-40 18,-80 41,-113 36,6 33,76 39,99 46,5 93,10 140,16 -23,34 -62,51 -91,77 1,43 24,83 26,126 -6,-1 -18,-3 -23,-4zm-858 -33c-14,-54 32,-99 24,-152 -36,-7 -88,-22 -90,-66 32,0 95,-2 127,-3 23,-27 18,-67 30,-99 52,-4 32,73 64,98 22,45 129,-24 112,40 -36,26 -73,50 -112,69 29,32 56,68 62,112 -44,-2 -68,-44 -105,-61 -40,14 -73,46 -112,62zm344 -384c10,-46 26,-90 24,-138 -34,-27 -71,-50 -103,-79 47,0 108,-18 126,38 17,-47 36,-95 57,-140 50,-3 25,91 75,100 34,5 68,12 102,16 -2,43 -61,50 -89,77 7,42 33,81 25,126 -39,-15 -63,-51 -102,-65 -43,13 -68,62 -115,65zm-690 -51c2,-39 19,-76 26,-115 -14,-27 -35,-49 -50,-75 24,-21 46,-46 86,-31 25,-31 26,-75 43,-111 44,19 12,96 61,115 39,24 89,4 130,14 -24,35 -70,49 -103,77 -3,44 33,81 24,126 -37,-15 -69,-41 -104,-60 -41,9 -72,49 -113,60zm1370 -121c-19,-14 -44,-24 -56,-45 23,0 69,0 92,0 0,18 -18,50 -36,45zm-2161 561c71,34 106,120 179,148 -47,-76 -115,-136 -179,-197l0 49zm170 -75l9 6c4,-39 -40,-58 -66,-78 11,30 30,54 57,72zm-170 -125c43,4 87,15 129,-1 -30,-61 -80,-109 -129,-155l0 156zm2426 -3103c-22,22 -56,35 -66,66 23,-10 45,-24 66,-40 20,16 42,30 66,40 -10,-31 -44,-44 -66,-66zm0 631c-16,-15 -41,-23 -50,-43 1,-40 3,-80 24,-115 -41,14 -74,44 -112,62 -36,-19 -63,-56 -105,-62 -5,50 22,98 61,126 -47,18 -114,34 -127,91 31,1 95,3 126,5 17,37 27,79 51,113 25,-61 31,-165 132,-130 100,-35 106,69 131,130 24,-34 34,-76 51,-113 32,-2 95,-4 126,-5 -13,-57 -79,-73 -127,-91 39,-28 67,-76 61,-126 -42,6 -69,43 -104,62 -39,-18 -72,-48 -113,-62 21,35 23,75 24,115 -8,20 -34,28 -49,43zm0 858c-18,-9 -36,-20 -50,-34 -6,-44 23,-83 25,-126 -44,12 -74,48 -116,65 -39,-14 -58,-64 -102,-65 -13,48 36,96 13,142 -20,31 20,54 37,77 36,29 25,86 61,115 17,-37 29,-76 46,-112 28,-10 57,-16 86,-19 29,3 57,9 85,19 17,36 29,75 46,112 36,-29 25,-86 61,-115 17,-23 58,-46 37,-77 -23,-46 26,-94 13,-142 -43,1 -63,51 -102,65 -41,-17 -72,-53 -116,-65 2,43 32,82 25,126 -14,14 -32,25 -49,34zm1195 -1584c36,20 59,53 82,85 -6,-1 -17,-2 -23,-3 -19,-33 -64,-49 -68,-88l9 6zm-562 562c38,32 97,39 121,85 -50,-23 -112,-44 -143,-91 6,2 17,5 22,6zm742 381c121,135 246,266 362,406 -6,-1 -18,-2 -24,-3 -118,-137 -242,-270 -362,-406 6,1 18,2 24,3zm-945 64c31,43 78,64 129,74 -27,-41 33,-66 67,-65 2,25 -12,47 -21,69 -2,32 5,63 6,95 -30,20 -65,16 -97,3 1,12 1,25 0,37 16,-3 32,-9 48,-12 -3,40 -18,80 -41,114 -36,-7 -33,-77 -38,-99 -47,-6 -94,-11 -141,-17 23,-33 62,-50 91,-77 0,-43 -24,-83 -25,-126 5,1 17,3 22,4zm858 33c14,55 -31,99 -23,152 35,7 87,22 89,66 -32,1 -95,2 -126,3 -23,27 -19,67 -31,99 -52,5 -32,-73 -64,-98 -21,-44 -129,24 -111,-40 35,-26 72,-50 111,-69 -29,-32 -56,-68 -62,-112 44,2 69,44 106,61 40,-13 72,-46 111,-62zm-344 384c-10,46 -26,91 -24,139 34,26 71,49 103,78 -47,0 -108,18 -126,-38 -17,48 -36,95 -57,140 -50,3 -25,-91 -75,-100 -34,-5 -67,-12 -102,-15 2,-44 62,-50 89,-78 -7,-42 -32,-81 -25,-126 39,15 63,52 102,65 44,-13 68,-62 115,-65zm690 51c-2,40 -19,76 -26,115 14,27 35,49 50,75 -24,21 -46,46 -85,31 -26,31 -26,76 -44,112 -44,-20 -12,-97 -61,-116 -39,-24 -89,-4 -130,-13 25,-35 71,-50 103,-78 4,-44 -33,-81 -24,-126 37,15 69,41 105,60 40,-8 71,-49 112,-60zm-1370 122c19,14 44,23 57,44 -24,0 -70,1 -93,1 0,-19 19,-51 36,-45zm2161 -562c-71,-34 -106,-119 -179,-148 47,76 115,136 179,197l0 -49zm-169 76l-9 -6c-5,38 40,57 65,77 -10,-30 -29,-54 -56,-71zm169 124c-43,-4 -86,-15 -129,1 31,61 80,109 129,155l0 -156zm-3621 -1235c-36,20 -59,53 -82,85 6,-1 18,-2 23,-3 19,-33 65,-49 68,-88l-9 6zm562 562c-38,32 -97,39 -121,85 50,-23 112,-44 143,-91 -6,2 -17,5 -22,6zm-742 381c-121,135 -246,266 -362,406 6,-1 18,-2 24,-3 119,-137 242,-270 362,-406 -6,1 -18,2 -24,3zm945 64c-31,43 -78,64 -128,74 26,-41 -33,-66 -67,-65 -3,25 11,47 20,69 2,32 -5,63 -6,95 30,20 65,16 97,3 -1,12 -1,25 0,37 -16,-3 -32,-9 -48,-12 3,40 18,80 41,114 36,-7 33,-77 39,-99 46,-6 93,-11 140,-17 -23,-33 -62,-50 -91,-77 1,-43 24,-83 26,-126 -6,1 -18,3 -23,4zm-858 33c-14,55 32,99 24,152 -36,7 -88,22 -90,66 32,1 95,2 127,3 23,27 18,67 30,99 52,5 32,-73 64,-98 22,-44 129,24 112,-40 -36,-26 -73,-50 -112,-69 29,-32 56,-68 62,-112 -44,2 -68,44 -105,61 -40,-13 -73,-46 -112,-62zm344 384c10,46 26,91 24,139 -34,26 -71,49 -103,78 47,0 108,18 126,-38 17,48 36,95 57,140 50,3 25,-91 75,-100 34,-5 68,-12 102,-15 -2,-44 -61,-50 -89,-78 7,-42 33,-81 25,-126 -39,15 -63,52 -102,65 -43,-13 -68,-62 -115,-65zm-690 51c2,40 19,76 26,115 -14,27 -35,49 -50,75 24,21 46,46 86,31 25,31 26,76 43,112 44,-20 12,-97 61,-116 39,-24 89,-4 130,-13 -24,-35 -70,-50 -103,-78 -3,-44 33,-81 24,-126 -37,15 -69,41 -104,60 -41,-8 -72,-49 -113,-60zm1370 122c-19,14 -44,23 -56,44 23,0 69,1 92,1 0,-19 -18,-51 -36,-45zm-2161 -562c71,-34 106,-119 179,-148 -47,76 -115,136 -179,197l0 -49zm170 76l9 -6c4,38 -40,57 -66,77 11,-30 30,-54 57,-71zm-170 124c43,-4 87,-15 129,1 -30,61 -80,109 -129,155l0 -156z"/>
   <path fill="#AE1B2B" fill-rule="nonzero" d="M654 0l38 0c-147,182 -289,369 -450,538 13,-62 67,-105 103,-155 109,-122 209,-253 309,-383zm3506 4851c146,182 288,370 450,538 -14,-62 -68,-105 -104,-155 -109,-122 -209,-252 -308,-383 99,-130 199,-260 308,-383 36,-50 90,-92 104,-155 -162,169 -304,356 -450,538zm-539 209l-9 -5c4,38 49,54 68,87 6,1 17,2 23,3 -23,-32 -46,-65 -82,-85zm-1129 162c-10,-32 -44,-45 -66,-67 -22,22 -56,35 -66,67 23,-11 45,-25 66,-41 20,16 42,30 66,41zm1377 88c-28,-28 -49,-72 -91,-77 68,97 165,170 231,269 -77,2 -154,-1 -231,1 46,82 108,155 176,220 66,62 118,137 185,198 125,113 218,256 346,367 43,-8 64,26 94,46 -8,-63 66,-34 102,-38 55,70 111,140 170,207l0 -52c-49,-46 -98,-94 -129,-155 43,-16 86,-5 129,0l0 -152c-64,-61 -132,-121 -179,-197 73,29 108,114 179,149l0 -593c-61,-5 -134,14 -178,-39 3,13 6,25 9,38 -214,-2 -429,8 -643,-7 -55,-63 -117,-120 -170,-185zm813 861c27,17 46,41 56,71 -25,-19 -70,-39 -65,-77l9 6zm-1623 -548c-5,-2 -16,-5 -22,-7 31,47 93,69 143,91 -24,-46 -83,-53 -121,-84zm-391 5c-42,7 -69,43 -104,63 -39,-19 -72,-49 -113,-63 21,35 23,76 24,115 -8,21 -34,28 -49,43 -16,-15 -41,-22 -50,-43 1,-39 3,-80 24,-115 -41,14 -74,44 -112,63 -36,-20 -63,-56 -105,-63 -5,50 22,98 61,126 -47,18 -114,34 -127,91 31,1 95,4 126,5 17,38 27,79 51,113 25,-61 31,-165 132,-130 100,-35 106,69 131,130 24,-34 34,-75 51,-113 32,-1 95,-4 126,-5 -13,-57 -79,-73 -127,-91 39,-28 67,-76 61,-126zm1133 375c-6,-1 -18,-2 -24,-3 120,136 244,269 362,406 6,1 18,2 24,3 -116,-139 -241,-271 -362,-406zm-945 64c-5,-1 -17,-3 -22,-4 1,44 25,83 25,127 -29,26 -68,43 -91,76 47,6 94,12 141,17 5,22 2,93 38,99 23,-33 38,-73 41,-114 -16,3 -32,9 -48,13 1,-13 1,-25 0,-38 32,13 67,17 97,-3 -1,-31 -8,-63 -6,-95 9,-22 23,-43 21,-69 -34,-1 -94,24 -67,65 -51,-9 -98,-31 -129,-74zm858 33c-39,17 -71,49 -111,63 -37,-17 -62,-60 -106,-61 6,43 33,79 62,111 -39,20 -76,43 -111,69 -18,64 90,-4 111,40 32,25 12,103 64,99 12,-33 8,-73 31,-100 31,-1 94,-2 126,-3 -2,-44 -54,-58 -89,-66 -8,-53 37,-97 23,-152zm481 339c-8,-10 -18,-18 -31,-21 34,58 73,113 120,162 40,49 79,99 120,148l35 0c-82,-96 -166,-190 -244,-289zm-825 46c-47,3 -71,51 -115,64 -39,-13 -63,-50 -102,-65 -7,46 18,84 25,126 -27,28 -87,35 -89,78 35,4 68,10 102,15 14,3 22,12 28,25l80 0c8,-22 16,-43 24,-64 18,56 79,37 126,37 -32,-29 -69,-52 -103,-78 -2,-48 14,-93 24,-138zm-702 -1c-43,1 -63,51 -102,66 -41,-17 -72,-54 -116,-66 2,43 32,82 25,126 -14,14 -32,25 -49,34 -18,-9 -36,-20 -50,-34 -6,-44 23,-83 25,-126 -44,12 -74,49 -116,66 -39,-15 -58,-65 -102,-66 -13,48 36,96 13,142 -20,31 20,55 37,77 9,7 15,15 19,25l79 0c3,-8 6,-15 9,-22 28,-10 57,-16 86,-19 29,3 57,9 85,19 3,7 6,14 9,22l79 0c5,-10 10,-18 19,-25 17,-22 58,-46 37,-77 -23,-46 26,-94 13,-142zm1392 51c-41,12 -72,52 -112,60 -36,-19 -68,-45 -105,-60 -9,45 28,83 24,127 -29,24 -68,38 -94,66l309 0 2 -2c-15,-26 -36,-49 -50,-75 7,-39 24,-76 26,-116zm-1370 122c-17,-6 -36,27 -36,45 23,0 69,0 93,0 -13,-22 -38,-31 -57,-45zm-1998 -1806c-147,182 -289,370 -450,538 13,-62 67,-105 103,-155 109,-122 209,-252 309,-383 -100,-130 -200,-260 -309,-383 -36,-50 -90,-92 -103,-155 161,169 303,356 450,538zm538 209l9 -5c-3,38 -49,54 -68,87 -5,1 -17,2 -23,3 23,-32 46,-65 82,-85zm-248 250c28,-28 49,-72 91,-77 -68,97 -165,170 -231,269 77,2 154,-1 232,1 -47,82 -109,155 -177,220 -66,62 -118,137 -185,198 -125,113 -218,256 -346,367 -43,-8 -64,26 -94,46 9,-63 -66,-34 -102,-38 -55,70 -111,140 -170,207l0 -52c49,-46 99,-94 129,-155 -42,-16 -86,-5 -129,0l0 -152c64,-61 132,-121 179,-197 -73,29 -108,114 -179,149l0 -593c61,-5 134,14 178,-39 -3,13 -6,25 -9,38 214,-2 430,8 643,-7 55,-63 117,-120 170,-185zm-812 861c-27,17 -46,41 -57,71 26,-19 70,-39 66,-77l-9 6zm1622 -548c5,-2 16,-5 22,-7 -31,47 -93,69 -143,91 24,-46 83,-53 121,-84zm-742 380c6,-1 18,-2 24,-3 -120,136 -243,269 -362,406 -6,1 -18,2 -24,3 116,-139 241,-271 362,-406zm945 64c5,-1 17,-3 23,-4 -2,44 -25,83 -26,127 29,26 68,43 91,76 -47,6 -94,12 -140,17 -6,22 -3,93 -39,99 -23,-33 -38,-73 -41,-114 16,3 32,9 48,13 -1,-13 -1,-25 0,-38 -32,13 -67,17 -97,-3 1,-31 8,-63 6,-95 -9,-22 -23,-43 -20,-69 34,-1 93,24 67,65 50,-9 97,-31 128,-74zm-858 33c39,17 72,49 112,63 37,-17 61,-60 105,-61 -6,43 -33,79 -62,111 39,20 76,43 112,69 17,64 -90,-4 -112,40 -32,25 -12,103 -64,99 -12,-33 -7,-73 -30,-100 -32,-1 -95,-2 -127,-3 2,-44 54,-58 90,-66 8,-53 -38,-97 -24,-152zm-481 339c8,-10 18,-18 31,-21 -34,58 -73,113 -120,162 -39,49 -79,99 -119,148l-36 0c83,-96 166,-190 244,-289zm825 46c47,3 72,51 115,64 39,-13 63,-50 102,-65 8,46 -18,84 -25,126 28,28 87,35 89,78 -34,4 -68,10 -102,15 -14,3 -22,12 -28,25l-80 0c-8,-22 -16,-43 -24,-64 -18,56 -79,37 -126,37 32,-29 69,-52 103,-78 2,-48 -14,-93 -24,-138zm-690 50c41,12 72,52 113,60 35,-19 67,-45 104,-60 9,45 -27,83 -24,127 29,24 68,38 94,66l-309 0 -2 -2c15,-26 36,-49 50,-75 -7,-39 -24,-76 -26,-116zm1370 122c18,-6 36,27 36,45 -23,0 -69,0 -92,0 12,-22 37,-31 56,-45zm1460 -2015l-9 6c4,-39 49,-55 68,-88 6,0 17,-2 23,-3 -23,32 -46,65 -82,85zm-1129 -161c-10,31 -44,44 -66,66 -22,-22 -56,-35 -66,-66 23,10 45,24 66,40 20,-16 42,-30 66,-40zm1377 -88c-28,27 -49,71 -91,77 68,-98 165,-171 231,-269 -77,-3 -154,0 -231,-1 46,-83 108,-155 176,-220 66,-63 118,-137 185,-198 125,-113 218,-257 346,-367 43,8 64,-27 94,-46 -8,63 66,34 102,37 55,-70 111,-140 170,-206l0 51c-49,46 -98,94 -129,155 43,16 86,5 129,1l0 151c-64,61 -132,121 -179,197 73,-28 108,-114 179,-148l0 592c-61,5 -134,-14 -178,40 3,-13 6,-26 9,-38 -214,2 -429,-9 -643,7 -55,63 -117,120 -170,185zm813 -861c27,-18 46,-42 56,-72 -25,20 -70,39 -65,78l9 -6zm-1623 548c-5,1 -16,4 -22,6 31,-47 93,-68 143,-91 -24,46 -83,53 -121,85zm-391 -6c-42,-6 -69,-43 -104,-62 -39,18 -72,48 -113,62 21,-35 23,-75 24,-115 -8,-20 -34,-27 -49,-42 -16,15 -41,22 -50,42 1,40 3,80 24,115 -41,-14 -74,-44 -112,-62 -36,19 -63,56 -105,62 -5,-50 22,-98 61,-126 -47,-18 -114,-34 -127,-90 31,-2 95,-4 126,-5 17,-38 27,-80 51,-114 25,61 31,165 132,131 100,34 106,-70 131,-131 24,34 34,76 51,114 32,1 95,3 126,5 -13,56 -79,72 -127,90 39,28 67,76 61,126zm1133 -375c-6,1 -18,3 -24,3 120,-136 244,-268 362,-406 6,-1 18,-2 24,-3 -116,140 -241,272 -362,406zm-945 -64c-5,1 -17,3 -22,4 1,-43 25,-83 25,-126 -29,-26 -68,-43 -91,-77 47,-6 94,-11 141,-16 5,-23 2,-93 38,-99 23,33 38,73 41,113 -16,-3 -32,-9 -48,-12 1,12 1,25 0,37 32,-12 67,-16 97,3 -1,32 -8,64 -6,95 9,23 23,44 21,69 -34,1 -94,-23 -67,-65 -51,10 -98,31 -129,74zm858 -33c-39,-16 -71,-48 -111,-62 -37,17 -62,59 -106,61 6,-44 33,-80 62,-112 -39,-19 -76,-43 -111,-69 -18,-64 90,5 111,-40 32,-25 12,-102 64,-98 12,32 8,72 31,99 31,1 94,3 126,3 -2,44 -54,59 -89,66 -8,53 37,98 23,152zm481 -339c-8,11 -18,18 -31,22 34,-58 73,-114 120,-162 186,-232 377,-460 567,-688l0 48c-125,113 -208,263 -322,387 -111,131 -227,258 -334,393zm-825 -45c-47,-3 -71,-52 -115,-65 -39,14 -63,50 -102,65 -7,-45 18,-84 25,-126 -27,-27 -87,-34 -89,-77 35,-4 68,-11 102,-16 50,-9 25,-103 75,-100 21,45 40,93 57,140 18,-56 79,-38 126,-38 -32,29 -69,52 -103,79 -2,48 14,92 24,138zm-702 1c-43,-2 -63,-52 -102,-66 -41,17 -72,53 -116,66 2,-44 32,-83 25,-127 -14,-14 -32,-24 -49,-34 -18,10 -36,20 -50,34 -6,44 23,83 25,127 -44,-13 -74,-49 -116,-66 -39,14 -58,64 -102,66 -13,-49 36,-96 13,-142 -20,-32 20,-55 37,-78 36,-29 25,-86 61,-114 17,36 29,75 46,111 28,10 57,16 86,20 29,-4 57,-10 85,-20 17,-36 29,-75 46,-111 36,28 25,85 61,114 17,23 58,46 37,78 -23,46 26,93 13,142zm1392 -52c-41,-11 -72,-51 -112,-60 -36,19 -68,45 -105,60 -9,-45 28,-82 24,-126 -32,-28 -78,-42 -103,-77 41,-10 91,10 130,-14 49,-19 17,-96 61,-115 18,36 18,80 44,111 39,-15 61,10 85,31 -15,26 -36,48 -50,75 7,39 24,76 26,115zm-1370 -121c-17,5 -36,-27 -36,-45 23,0 69,0 93,0 -13,21 -38,31 -57,45zm2161 -129c-21,-14 -54,-25 -52,-56 18,-1 35,-2 52,-3l0 59zm-1913 -222c-35,20 -69,43 -105,63 -2,-44 25,-82 26,-125 -28,-27 -68,-44 -89,-78 39,-17 83,-16 124,-18 17,-36 27,-75 42,-111 -15,-37 -25,-76 -42,-111 -41,-3 -85,-2 -124,-19 21,-34 61,-51 89,-78 -1,-43 -28,-81 -26,-125 36,20 70,43 105,63 40,-11 71,-46 114,-51 -2,40 -24,75 -27,115 31,34 67,63 105,89 -35,1 -105,3 -139,4 -16,37 -29,75 -45,113 16,37 29,75 45,112 34,1 104,3 139,4 -38,26 -74,55 -105,89 3,40 25,75 27,115 -43,-4 -74,-40 -114,-51zm738 -27c-41,16 -69,58 -114,66 9,-42 27,-82 24,-126 -30,-26 -64,-48 -90,-78 42,-6 88,3 126,-18 23,-22 23,-58 33,-86 -10,-29 -10,-65 -33,-87 -38,-21 -84,-12 -126,-18 26,-30 60,-51 90,-78 3,-44 -15,-84 -24,-125 45,8 73,49 114,65 34,-17 61,-53 102,-52 -5,38 -14,76 -20,114 32,32 70,56 101,89 -35,1 -105,3 -140,5 -9,29 -18,58 -29,87 11,28 20,57 29,87 35,1 105,3 140,5 -31,32 -69,56 -101,88 6,38 15,76 20,114 -41,1 -68,-35 -102,-52zm-2446 1974l9 6c-3,-39 -49,-55 -68,-88 -5,0 -17,-2 -23,-3 23,32 46,65 82,85zm-248 -249c28,27 49,71 91,77 -68,-98 -165,-171 -231,-269 77,-3 154,0 232,-1 -47,-83 -109,-155 -177,-220 -66,-63 -118,-137 -185,-198 -125,-113 -218,-257 -346,-367 -43,8 -64,-27 -94,-46 9,63 -66,34 -102,37 -55,-70 -111,-140 -170,-206l0 51c49,46 99,94 129,155 -42,16 -86,5 -129,1l0 151c64,61 132,121 179,197 -73,-28 -108,-114 -179,-148l0 592c61,5 134,-14 178,40 -3,-13 -6,-26 -9,-38 214,2 430,-9 643,7 55,63 117,120 170,185zm-812 -861c-27,-18 -46,-42 -57,-72 26,20 70,39 66,78l-9 -6zm1622 548c5,1 16,4 22,6 -31,-47 -93,-68 -143,-91 24,46 83,53 121,85zm-742 -381c6,1 18,3 24,3 -120,-136 -243,-268 -362,-406 -6,-1 -18,-2 -24,-3 116,140 241,272 362,406zm945 -64c5,1 17,3 23,4 -2,-43 -25,-83 -26,-126 29,-26 68,-43 91,-77 -47,-6 -94,-11 -140,-16 -6,-23 -3,-93 -39,-99 -23,33 -38,73 -41,113 16,-3 32,-9 48,-12 -1,12 -1,25 0,37 -32,-12 -67,-16 -97,3 1,32 8,64 6,95 -9,23 -23,44 -20,69 34,1 93,-23 67,-65 50,10 97,31 128,74zm-858 -33c39,-16 72,-48 112,-62 37,17 61,59 105,61 -6,-44 -33,-80 -62,-112 39,-19 76,-43 112,-69 17,-64 -90,5 -112,-40 -32,-25 -12,-102 -64,-98 -12,32 -7,72 -30,99 -32,1 -95,3 -127,3 2,44 54,59 90,66 8,53 -38,98 -24,152zm-481 -339c8,11 18,18 31,22 -34,-58 -73,-114 -120,-162 -186,-232 -377,-460 -567,-688l0 48c125,113 208,263 322,387 111,131 227,258 334,393zm825 -45c47,-3 72,-52 115,-65 39,14 63,50 102,65 8,-45 -18,-84 -25,-126 28,-27 87,-34 89,-77 -34,-4 -68,-11 -102,-16 -50,-9 -25,-103 -75,-100 -21,45 -40,93 -57,140 -18,-56 -79,-38 -126,-38 32,29 69,52 103,79 2,48 -14,92 -24,138zm-690 -51c41,-11 72,-51 113,-60 35,19 67,45 104,60 9,-45 -27,-82 -24,-126 33,-28 79,-42 103,-77 -41,-10 -91,10 -130,-14 -49,-19 -17,-96 -61,-115 -17,36 -18,80 -43,111 -40,-15 -62,10 -86,31 15,26 36,48 50,75 -7,39 -24,76 -26,115zm1370 -121c18,5 36,-27 36,-45 -23,0 -69,0 -92,0 12,21 37,31 56,45zm-2161 -129c21,-14 54,-25 52,-56 -17,-1 -35,-2 -52,-3l0 59zm1913 -222c36,20 69,43 105,63 2,-44 -24,-82 -26,-125 29,-27 68,-44 90,-78 -40,-17 -83,-16 -125,-18 -17,-36 -27,-75 -42,-111 15,-37 25,-76 42,-111 42,-3 85,-2 125,-19 -22,-34 -61,-51 -90,-78 2,-43 28,-81 26,-125 -36,20 -69,43 -105,63 -40,-11 -71,-46 -114,-51 3,40 25,75 27,115 -31,34 -67,63 -105,89 35,1 105,3 140,4 15,37 28,75 44,113 -16,37 -29,75 -44,112 -35,1 -105,3 -140,4 38,26 74,55 105,89 -2,40 -24,75 -27,115 43,-4 74,-40 114,-51zm-738 -27c41,16 69,58 114,66 -9,-42 -27,-82 -23,-126 29,-26 63,-48 89,-78 -42,-6 -88,3 -126,-18 -23,-22 -23,-58 -32,-86 9,-29 9,-65 32,-87 38,-21 84,-12 126,-18 -26,-30 -60,-51 -89,-78 -4,-44 14,-84 23,-125 -45,8 -73,49 -114,65 -34,-17 -61,-53 -102,-52 5,38 14,76 20,114 -31,32 -69,56 -101,89 35,1 105,3 140,5 9,29 18,58 29,87 -11,28 -20,57 -29,87 -35,1 -105,3 -140,5 32,32 70,56 101,88 -6,38 -15,76 -20,114 41,1 68,-35 102,-52zm3023 -2668l-38 0c146,182 288,369 450,538 -14,-62 -68,-105 -104,-155 -109,-122 -209,-253 -308,-383zm-577 209l-9 -6c4,39 49,55 68,88 6,1 17,2 23,3 -23,-32 -46,-65 -82,-85zm-1129 161c-10,-31 -44,-44 -66,-66 -22,22 -56,35 -66,66 23,-10 45,-24 66,-40 20,16 42,30 66,40zm1377 89c-28,-28 -49,-72 -91,-77 68,97 165,170 231,268 -77,3 -154,0 -231,1 46,83 108,156 176,220 66,63 118,138 185,198 125,114 218,257 346,367 43,-7 64,27 94,46 -8,-63 66,-34 102,-37 55,70 111,140 170,206l0 -51c-49,-46 -98,-94 -129,-155 43,-16 86,-5 129,-1l0 -151c-64,-61 -132,-121 -179,-197 73,29 108,114 179,148l0 -592c-61,-5 -134,14 -178,-39 3,12 6,25 9,38 -214,-2 -429,8 -643,-8 -55,-62 -117,-120 -170,-184zm813 861c27,17 46,41 56,71 -25,-20 -70,-39 -65,-77l9 6zm-1623 -549c-5,-1 -16,-4 -22,-6 31,47 93,68 143,91 -24,-46 -83,-53 -121,-85zm-391 6c-42,6 -69,43 -104,62 -39,-18 -72,-48 -113,-62 21,35 23,75 24,115 -8,20 -34,28 -49,43 -16,-15 -41,-23 -50,-43 1,-40 3,-80 24,-115 -41,14 -74,44 -112,62 -36,-19 -63,-56 -105,-62 -5,50 22,98 61,126 -47,18 -114,34 -127,91 31,1 95,3 126,5 17,37 27,79 51,113 25,-61 31,-165 132,-130 100,-35 106,69 131,130 24,-34 34,-76 51,-113 32,-2 95,-4 126,-5 -13,-57 -79,-73 -127,-91 39,-28 67,-76 61,-126zm1133 375c-6,-1 -18,-2 -24,-3 120,136 244,269 362,406 6,1 18,2 24,3 -116,-140 -241,-271 -362,-406zm-945 64c-5,-1 -17,-3 -22,-4 1,43 25,83 25,126 -29,27 -68,44 -91,77 47,6 94,11 141,17 5,22 2,92 38,99 23,-34 38,-74 41,-114 -16,3 -32,9 -48,12 1,-12 1,-25 0,-37 32,13 67,17 97,-3 -1,-32 -8,-63 -6,-95 9,-22 23,-44 21,-69 -34,-1 -94,24 -67,65 -51,-10 -98,-31 -129,-74zm858 33c-39,16 -71,49 -111,62 -37,-17 -62,-59 -106,-61 6,44 33,80 62,112 -39,19 -76,43 -111,69 -18,64 90,-4 111,40 32,25 12,103 64,98 12,-32 8,-72 31,-99 31,-1 94,-2 126,-3 -2,-44 -54,-59 -89,-66 -8,-53 37,-97 23,-152zm481 339c-8,-11 -18,-18 -31,-21 34,58 73,113 120,162 186,231 377,459 567,687l0 -48c-125,-112 -208,-263 -322,-386 -111,-132 -227,-259 -334,-394zm-825 45c-47,3 -71,52 -115,65 -39,-13 -63,-50 -102,-65 -7,45 18,84 25,126 -27,28 -87,34 -89,78 35,3 68,10 102,15 50,9 25,103 75,100 21,-45 40,-92 57,-140 18,56 79,38 126,38 -32,-29 -69,-52 -103,-78 -2,-48 14,-93 24,-139zm-702 0c-43,1 -63,51 -102,65 -41,-17 -72,-53 -116,-65 2,43 32,82 25,126 -14,14 -32,25 -49,34 -18,-9 -36,-20 -50,-34 -6,-44 23,-83 25,-126 -44,12 -74,48 -116,65 -39,-14 -58,-64 -102,-65 -13,48 36,96 13,142 -20,31 20,54 37,77 36,29 25,86 61,115 17,-37 29,-76 46,-112 28,-10 57,-16 86,-19 29,3 57,9 85,19 17,36 29,75 46,112 36,-29 25,-86 61,-115 17,-23 58,-46 37,-77 -23,-46 26,-94 13,-142zm1392 51c-41,11 -72,52 -112,60 -36,-19 -68,-45 -105,-60 -9,45 28,82 24,126 -32,28 -78,43 -103,78 41,9 91,-11 130,13 49,19 17,96 61,116 18,-36 18,-81 44,-112 39,15 61,-10 85,-31 -15,-26 -36,-48 -50,-75 7,-39 24,-75 26,-115zm-1370 122c-17,-6 -36,26 -36,45 23,0 69,-1 93,-1 -13,-21 -38,-30 -57,-44zm2161 129c-21,13 -54,24 -52,55 18,1 35,2 52,3l0 -58zm-3621 -1726l9 -6c-3,39 -49,55 -68,88 -5,1 -17,2 -23,3 23,-32 46,-65 82,-85zm-248 250c28,-28 49,-72 91,-77 -68,97 -165,170 -231,268 77,3 154,0 232,1 -47,83 -109,156 -177,220 -66,63 -118,138 -185,198 -125,114 -218,257 -346,367 -43,-7 -64,27 -94,46 9,-63 -66,-34 -102,-37 -55,70 -111,140 -170,206l0 -51c49,-46 99,-94 129,-155 -42,-16 -86,-5 -129,-1l0 -151c64,-61 132,-121 179,-197 -73,29 -108,114 -179,148l0 -592c61,-5 134,14 178,-39 -3,12 -6,25 -9,38 214,-2 430,8 643,-8 55,-62 117,-120 170,-184zm-812 861c-27,17 -46,41 -57,71 26,-20 70,-39 66,-77l-9 6zm1622 -549c5,-1 16,-4 22,-6 -31,47 -93,68 -143,91 24,-46 83,-53 121,-85zm-742 381c6,-1 18,-2 24,-3 -120,136 -243,269 -362,406 -6,1 -18,2 -24,3 116,-140 241,-271 362,-406zm945 64c5,-1 17,-3 23,-4 -2,43 -25,83 -26,126 29,27 68,44 91,77 -47,6 -94,11 -140,17 -6,22 -3,92 -39,99 -23,-34 -38,-74 -41,-114 16,3 32,9 48,12 -1,-12 -1,-25 0,-37 -32,13 -67,17 -97,-3 1,-32 8,-63 6,-95 -9,-22 -23,-44 -20,-69 34,-1 93,24 67,65 50,-10 97,-31 128,-74zm-858 33c39,16 72,49 112,62 37,-17 61,-59 105,-61 -6,44 -33,80 -62,112 39,19 76,43 112,69 17,64 -90,-4 -112,40 -32,25 -12,103 -64,98 -12,-32 -7,-72 -30,-99 -32,-1 -95,-2 -127,-3 2,-44 54,-59 90,-66 8,-53 -38,-97 -24,-152zm-481 339c8,-11 18,-18 31,-21 -34,58 -73,113 -120,162 -186,231 -377,459 -567,687l0 -48c125,-112 208,-263 322,-386 111,-132 227,-259 334,-394zm825 45c47,3 72,52 115,65 39,-13 63,-50 102,-65 8,45 -18,84 -25,126 28,28 87,34 89,78 -34,3 -68,10 -102,15 -50,9 -25,103 -75,100 -21,-45 -40,-92 -57,-140 -18,56 -79,38 -126,38 32,-29 69,-52 103,-78 2,-48 -14,-93 -24,-139zm-690 51c41,11 72,52 113,60 35,-19 67,-45 104,-60 9,45 -27,82 -24,126 33,28 79,43 103,78 -41,9 -91,-11 -130,13 -49,19 -17,96 -61,116 -17,-36 -18,-81 -43,-112 -40,15 -62,-10 -86,-31 15,-26 36,-48 50,-75 -7,-39 -24,-75 -26,-115zm1370 122c18,-6 36,26 36,45 -23,0 -69,-1 -92,-1 12,-21 37,-30 56,-44zm-2161 129c21,13 54,24 52,55 -17,1 -35,2 -52,3l0 -58z"/>
  </g>
 </g>
</svg>
