<svg id="svg" version="1.1" xmlns="http://www.w3.org/2000/svg" xmlns:xlink="http://www.w3.org/1999/xlink" width="400" height="523.867478025693" viewBox="0, 0, 400,523.867478025693"><g id="svgg"><path id="path0" d="M130.131 8.212 C 129.257 8.595,117.419 12.502,113.974 13.545 C 110.071 14.726,107.761 15.379,105.895 15.830 C 105.235 15.989,103.564 16.409,102.183 16.762 C 99.254 17.512,95.615 18.348,92.467 18.995 C 91.747 19.143,90.862 19.344,90.502 19.442 C 90.142 19.540,89.405 19.682,88.865 19.757 C 88.324 19.833,87.391 19.986,86.790 20.097 C 86.190 20.209,84.078 20.600,82.096 20.966 C 78.675 21.597,77.517 21.836,75.764 22.269 C 75.344 22.373,74.067 22.669,72.926 22.927 C 71.785 23.184,70.606 23.475,70.306 23.572 C 70.005 23.669,69.367 23.853,68.886 23.982 C 65.726 24.826,63.740 25.423,60.308 26.562 C 57.711 27.424,53.009 29.158,51.856 29.680 C 51.616 29.788,50.142 30.446,48.581 31.141 C 45.419 32.549,39.289 35.636,38.394 36.270 C 38.075 36.496,37.747 36.681,37.665 36.681 C 37.499 36.681,31.834 40.163,31.659 40.372 C 31.599 40.443,30.813 40.993,29.913 41.592 C 29.012 42.191,28.085 42.854,27.852 43.066 C 27.619 43.277,27.356 43.450,27.267 43.450 C 27.178 43.450,26.976 43.573,26.817 43.723 C 26.658 43.873,25.988 44.406,25.328 44.909 C 24.667 45.411,23.852 46.108,23.516 46.459 L 22.906 47.097 24.888 50.568 C 33.507 65.658,40.175 86.530,40.175 98.416 L 40.175 99.127 199.872 99.127 L 359.569 99.127 359.688 98.308 C 359.754 97.858,359.868 96.752,359.943 95.852 C 361.191 80.793,366.623 64.050,374.989 49.476 C 377.178 45.661,377.099 46.037,375.902 45.144 C 375.378 44.753,374.334 43.951,373.583 43.362 C 371.683 41.873,365.487 37.773,365.136 37.773 C 364.977 37.773,364.847 37.675,364.847 37.555 C 364.847 37.434,364.747 37.336,364.624 37.336 C 364.502 37.336,364.012 37.090,363.537 36.790 C 362.747 36.292,356.473 33.106,354.913 32.411 C 354.552 32.251,353.717 31.880,353.057 31.588 C 352.396 31.295,351.390 30.848,350.821 30.593 C 350.252 30.339,349.731 30.131,349.663 30.131 C 349.595 30.131,349.127 29.948,348.623 29.725 C 348.120 29.501,346.971 29.047,346.070 28.716 C 345.169 28.385,344.236 28.030,343.996 27.928 C 343.506 27.718,337.833 25.844,335.480 25.115 C 333.258 24.426,330.014 23.510,326.528 22.589 C 323.406 21.764,323.004 21.666,318.450 20.629 C 315.835 20.034,315.213 19.906,310.480 18.994 C 300.713 17.113,295.046 15.865,292.576 15.054 C 292.276 14.955,291.687 14.809,291.266 14.730 C 290.846 14.651,290.011 14.442,289.410 14.267 C 288.810 14.092,287.680 13.763,286.900 13.536 C 286.119 13.309,284.449 12.810,283.188 12.429 C 281.927 12.047,280.257 11.545,279.476 11.312 C 278.695 11.079,277.664 10.757,277.183 10.597 C 276.703 10.437,275.278 9.989,274.017 9.602 C 272.757 9.215,271.010 8.665,270.137 8.379 C 267.966 7.669,267.996 7.662,266.038 9.421 C 224.451 46.796,179.959 46.809,133.036 9.458 C 131.932 8.579,130.999 7.864,130.962 7.869 C 130.925 7.874,130.551 8.028,130.131 8.212 " stroke="none" fill="#04fbfb" fill-rule="evenodd"></path><path id="path1" d="M2.522 107.041 C 1.901 109.051,1.681 110.092,0.897 114.738 C 0.597 116.518,0.119 122.442,0.114 124.454 L 0.109 126.092 2.838 126.230 C 8.023 126.494,12.216 126.992,16.282 127.829 C 30.055 130.665,35.410 137.524,38.535 156.332 C 38.704 157.353,38.950 158.777,39.082 159.498 C 41.278 171.553,41.289 190.271,39.103 197.134 L 38.730 198.307 41.891 206.577 C 43.629 211.126,45.126 214.847,45.218 214.847 C 45.732 214.847,48.917 201.455,49.995 194.756 C 52.468 179.404,52.440 162.205,49.914 145.046 C 47.715 130.108,37.956 118.525,22.098 112.032 C 15.617 109.378,2.809 106.113,2.522 107.041 M393.555 107.409 C 380.627 110.192,372.104 113.663,365.369 118.889 C 357.350 125.112,351.562 135.017,350.086 145.046 C 347.526 162.437,347.539 180.074,350.124 195.524 C 351.202 201.964,354.307 214.847,354.782 214.847 C 354.874 214.847,356.370 211.138,358.107 206.605 L 361.266 198.362 360.960 197.380 C 358.716 190.178,358.695 171.697,360.918 159.498 C 361.050 158.777,361.296 157.353,361.465 156.332 C 364.236 139.654,368.765 132.586,378.930 129.074 C 383.047 127.652,389.746 126.607,397.162 126.230 C 400.414 126.065,400.180 126.447,399.793 121.943 C 399.163 114.614,398.676 111.254,397.766 107.969 C 397.388 106.607,397.322 106.598,393.555 107.409 " stroke="none" fill="#060404" fill-rule="evenodd"></path><path id="path2" d="M40.459 106.059 C 40.462 109.872,40.348 114.170,40.206 115.611 C 39.858 119.146,39.524 122.062,39.404 122.628 C 39.334 122.962,39.664 123.524,40.559 124.595 C 45.598 130.623,48.933 137.995,49.979 145.415 C 53.409 169.755,51.704 196.185,45.542 214.222 L 45.196 215.234 46.046 216.514 C 46.835 217.701,47.946 219.788,48.764 221.616 C 49.137 222.448,49.812 224.490,50.172 225.873 C 50.297 226.354,50.511 227.140,50.647 227.620 C 51.007 228.889,51.182 236.010,50.908 238.210 C 50.781 239.230,50.529 241.048,50.347 242.249 C 48.493 254.505,49.229 295.562,51.526 307.969 C 51.716 308.994,51.992 310.757,52.740 315.721 C 52.912 316.861,53.157 318.433,53.285 319.214 C 53.413 319.995,53.656 321.616,53.826 322.817 C 53.996 324.017,54.239 325.688,54.366 326.528 C 54.630 328.275,55.111 331.883,55.589 335.699 C 55.770 337.140,56.005 338.957,56.113 339.738 C 56.221 340.519,56.459 342.385,56.642 343.886 C 56.825 345.388,57.076 347.402,57.200 348.362 C 57.415 350.028,57.619 351.804,58.417 358.952 C 58.611 360.693,58.860 362.904,58.969 363.865 C 59.079 364.825,59.313 367.036,59.490 368.777 C 59.666 370.519,59.916 372.877,60.044 374.017 C 60.265 375.995,60.456 377.955,61.245 386.354 C 61.437 388.395,61.688 391.048,61.802 392.249 C 61.917 393.450,62.157 396.152,62.336 398.253 C 62.516 400.355,62.757 403.057,62.872 404.258 C 64.190 417.969,64.787 426.230,65.493 440.502 C 66.175 454.294,66.285 458.782,66.514 482.164 L 66.654 496.533 65.995 497.229 C 64.555 498.752,64.348 500.945,65.166 506.004 C 65.361 507.205,65.607 508.826,65.714 509.607 C 66.118 512.546,67.011 513.964,69.056 514.914 C 70.597 515.629,70.266 515.571,79.476 516.718 C 80.977 516.905,82.893 517.150,83.734 517.263 C 84.574 517.376,86.539 517.611,88.100 517.785 C 89.662 517.959,91.774 518.209,92.795 518.340 C 94.785 518.596,98.920 519.026,104.367 519.544 C 106.228 519.721,108.734 519.967,109.934 520.090 C 111.135 520.213,113.936 520.463,116.157 520.646 C 118.379 520.829,121.326 521.075,122.707 521.192 C 128.045 521.644,139.825 522.375,150.546 522.921 C 154.349 523.115,160.583 523.333,175.655 523.800 C 184.921 524.087,211.297 524.087,220.742 523.800 C 244.112 523.089,244.757 523.065,257.533 522.393 C 264.554 522.025,273.113 521.504,277.293 521.191 C 278.794 521.078,282.134 520.833,284.716 520.644 C 287.298 520.456,290.442 520.209,291.703 520.096 C 292.964 519.982,295.764 519.738,297.926 519.554 C 304.968 518.953,309.241 518.569,311.354 518.348 C 312.495 518.228,314.902 517.984,316.703 517.806 C 331.996 516.291,334.062 515.250,334.915 508.624 C 335.039 507.664,335.292 506.043,335.477 505.022 C 336.223 500.914,335.928 498.672,334.557 498.035 L 333.852 497.707 333.843 485.371 C 333.833 471.387,333.983 465.442,334.947 441.594 C 335.325 432.250,336.413 414.366,337.106 406.114 C 337.222 404.733,337.469 401.736,337.654 399.454 C 337.840 397.172,338.093 394.274,338.217 393.013 C 338.341 391.752,338.584 389.198,338.756 387.336 C 339.168 382.902,339.692 377.646,339.954 375.328 C 340.070 374.307,340.314 372.096,340.496 370.415 C 340.679 368.734,340.925 366.572,341.044 365.611 C 341.163 364.651,341.404 362.636,341.580 361.135 C 342.409 354.073,342.585 352.632,342.777 351.310 C 342.891 350.529,343.140 348.761,343.331 347.380 C 343.521 345.999,343.773 344.378,343.890 343.777 C 344.120 342.598,344.573 339.995,345.076 336.954 C 345.251 335.903,345.502 334.454,345.635 333.734 C 345.768 333.013,346.015 331.490,346.182 330.349 C 346.350 329.209,346.591 327.636,346.717 326.856 C 347.048 324.815,347.550 321.257,347.934 318.231 C 348.117 316.790,348.364 314.874,348.483 313.974 C 348.602 313.073,348.848 310.961,349.029 309.279 C 349.209 307.598,349.456 305.338,349.576 304.258 C 350.089 299.633,350.490 293.784,351.094 282.096 C 351.627 271.786,351.155 255.683,350.113 248.581 C 349.399 243.718,349.302 242.586,349.191 237.773 C 349.014 230.103,349.858 225.397,352.434 219.690 C 352.777 218.931,353.057 218.270,353.057 218.220 C 353.057 218.171,353.452 217.484,353.935 216.695 L 354.813 215.261 354.463 214.235 C 353.438 211.235,350.977 200.624,350.124 195.524 C 347.557 180.181,347.522 163.148,350.021 145.415 C 351.067 137.995,354.402 130.623,359.441 124.595 C 360.336 123.524,360.666 122.962,360.596 122.628 C 360.481 122.088,360.166 119.351,359.787 115.611 C 359.641 114.170,359.516 109.872,359.510 106.059 L 359.498 99.127 199.975 99.127 L 40.452 99.127 40.459 106.059 " stroke="none" fill="#fb0404" fill-rule="evenodd"></path><path id="path3" d="M146.310 0.345 C 145.782 0.511,143.964 1.351,142.271 2.212 C 132.964 6.947,131.535 7.685,131.375 7.843 C 131.043 8.168,139.321 14.425,145.415 18.457 C 187.480 46.286,227.571 43.548,265.066 10.286 C 268.316 7.402,268.048 7.747,267.325 7.380 C 266.983 7.207,265.942 6.655,265.011 6.153 C 262.004 4.531,256.423 1.570,255.131 0.910 C 252.525 -0.420,248.567 0.096,246.943 1.978 C 246.005 3.066,234.653 9.421,229.803 11.573 C 228.060 12.347,227.135 12.721,225.218 13.430 C 224.017 13.874,222.838 14.312,222.598 14.403 C 222.358 14.493,221.572 14.740,220.852 14.952 C 220.131 15.163,219.296 15.417,218.996 15.517 C 205.845 19.882,186.055 18.516,172.756 12.327 C 172.122 12.032,171.550 11.790,171.484 11.790 C 171.256 11.790,164.954 8.592,164.033 8.008 C 163.525 7.687,163.057 7.424,162.993 7.424 C 162.857 7.424,158.893 4.999,158.734 4.818 C 158.674 4.750,157.740 4.108,156.659 3.392 C 155.579 2.676,154.645 2.027,154.585 1.951 C 153.454 0.518,148.699 -0.405,146.310 0.345 " stroke="none" fill="#cc04fb" fill-rule="evenodd"></path><path id="path4" d="M375.037 49.386 C 364.549 67.704,359.504 86.255,359.521 106.441 C 359.526 112.467,359.635 114.438,360.284 120.306 C 360.606 123.211,360.506 123.142,362.173 121.608 C 369.893 114.507,380.008 110.031,394.771 107.182 L 397.292 106.696 397.146 105.695 C 396.327 100.085,394.894 92.982,393.421 87.227 C 393.175 86.266,392.840 84.940,392.677 84.279 C 392.514 83.619,392.219 82.489,392.022 81.769 C 391.825 81.048,391.612 80.187,391.549 79.855 C 391.486 79.524,391.347 79.199,391.241 79.133 C 391.135 79.067,391.048 78.831,391.048 78.609 C 391.048 78.055,388.746 71.142,387.229 67.140 C 386.000 63.896,385.783 63.364,384.826 61.245 C 384.555 60.644,384.007 59.416,383.608 58.515 C 382.725 56.522,379.560 50.318,379.040 49.563 C 378.833 49.263,378.492 48.649,378.281 48.199 C 378.070 47.748,377.811 47.380,377.704 47.380 C 377.598 47.380,377.511 47.251,377.511 47.094 C 377.511 45.546,376.925 46.089,375.037 49.386 M22.115 47.970 C 20.391 50.742,17.811 55.593,16.332 58.843 C 14.524 62.814,14.235 63.477,13.857 64.520 C 13.640 65.120,13.398 65.710,13.320 65.830 C 13.242 65.950,12.855 66.932,12.460 68.013 C 12.065 69.094,11.657 70.175,11.553 70.415 C 11.312 70.972,9.596 76.240,8.957 78.384 C 8.689 79.285,8.385 80.267,8.281 80.568 C 8.176 80.868,7.884 81.949,7.630 82.969 C 7.377 83.990,6.992 85.464,6.776 86.245 C 6.416 87.542,6.244 88.275,5.364 92.249 C 4.387 96.658,3.406 101.917,2.854 105.697 L 2.707 106.699 5.775 107.309 C 19.940 110.126,29.916 114.609,37.736 121.670 C 39.610 123.362,39.395 123.823,40.057 116.703 C 42.240 93.209,36.334 69.002,23.208 47.643 L 22.766 46.923 22.115 47.970 " stroke="none" fill="#34f905" fill-rule="evenodd"></path></g></svg>