<svg id="svg" version="1.1" xmlns="http://www.w3.org/2000/svg" xmlns:xlink="http://www.w3.org/1999/xlink" width="400" height="900.8303677342823" viewBox="0, 0, 400,900.8303677342823"><g id="svgg"><path id="path0" d="M205.258 51.490 C 158.707 55.296,126.901 76.347,107.418 116.244 C 104.123 122.990,100.893 130.882,100.960 132.019 C 100.985 132.432,100.150 135.981,99.105 139.906 C 98.060 143.831,96.890 148.225,96.505 149.671 C 96.120 151.117,95.287 154.244,94.654 156.620 C 90.210 173.284,87.760 198.550,87.041 235.131 L 86.948 239.840 88.037 237.760 C 101.108 212.805,141.204 201.175,205.822 203.596 C 212.948 203.863,221.653 204.040,225.164 203.990 C 279.483 203.215,317.422 214.231,333.300 235.388 C 337.191 240.572,341.784 250.645,341.784 253.993 C 341.784 258.050,347.850 237.469,350.419 224.697 C 360.282 175.658,353.395 130.798,331.318 100.282 C 328.835 96.850,327.470 95.174,322.635 89.619 C 307.344 72.054,277.908 57.910,246.761 53.162 C 244.592 52.831,242.310 52.473,241.690 52.367 C 235.544 51.309,213.858 50.787,205.258 51.490 " stroke="none" fill="#25fb4c" fill-rule="evenodd"></path><path id="path1" d="M178.779 203.445 C 121.334 205.002,88.809 221.053,83.776 250.329 C 83.528 251.775,82.840 255.324,82.249 258.216 C 67.403 330.786,105.699 386.662,180.845 402.071 C 235.167 413.210,287.640 397.099,316.894 360.300 C 338.992 332.503,348.851 291.014,341.969 254.778 C 335.471 220.565,295.812 203.453,224.225 203.975 C 220.197 204.004,212.169 203.843,206.385 203.616 C 196.789 203.240,188.280 203.188,178.779 203.445 M232.300 234.877 C 242.216 234.950,252.610 235.196,255.399 235.423 C 265.503 236.248,271.781 237.015,277.183 238.084 C 278.113 238.268,279.887 238.618,281.127 238.860 C 301.951 242.941,316.231 253.742,319.875 268.169 C 321.872 276.076,321.910 284.173,320.012 298.028 C 319.186 304.061,316.529 314.123,314.556 318.685 C 314.288 319.305,313.679 320.742,313.203 321.878 C 306.955 336.776,291.875 353.265,277.746 360.645 C 267.997 365.738,263.154 367.925,257.840 369.634 C 256.601 370.033,255.249 370.504,254.836 370.682 C 252.769 371.569,247.551 373.052,240.939 374.632 C 238.667 375.176,236.469 375.702,236.056 375.803 C 235.297 375.988,230.806 376.799,226.667 377.499 C 224.266 377.905,218.656 378.651,212.207 379.422 C 205.973 380.168,205.633 380.149,193.991 378.406 C 191.925 378.097,189.474 377.691,188.545 377.503 C 187.615 377.316,185.502 376.896,183.850 376.570 C 182.197 376.245,180.254 375.818,179.531 375.621 C 178.808 375.424,176.610 374.842,174.648 374.328 C 169.262 372.917,160.967 370.075,157.469 368.443 C 156.593 368.034,155.782 367.700,155.667 367.700 C 154.355 367.700,138.774 358.752,136.549 356.721 C 136.148 356.355,135.696 356.056,135.543 356.056 C 135.390 356.056,135.042 355.842,134.769 355.581 C 134.496 355.319,132.751 353.822,130.892 352.253 C 114.338 338.289,103.138 317.788,98.193 292.394 C 97.014 286.339,96.863 285.166,96.650 280.394 C 95.934 264.381,103.579 252.499,119.437 244.981 C 124.833 242.423,131.342 240.173,136.526 239.075 C 147.571 236.734,148.587 236.573,159.437 235.441 C 167.574 234.592,173.750 234.438,193.615 234.588 C 204.977 234.674,222.385 234.804,232.300 234.877 " stroke="none" fill="#040404" fill-rule="evenodd"></path><path id="path2" d="M75.117 161.370 C 74.394 161.437,71.690 161.674,69.108 161.895 C 66.526 162.117,62.554 162.543,60.282 162.842 C 58.009 163.140,55.659 163.423,55.058 163.469 C 54.120 163.542,53.841 163.846,53.074 165.627 C 52.583 166.767,52.025 168.038,51.834 168.451 C 51.643 168.864,50.203 172.244,48.635 175.962 C 47.066 179.681,45.369 183.674,44.863 184.836 C 44.358 185.998,43.944 187.050,43.944 187.174 C 43.944 187.298,43.460 188.460,42.868 189.756 C 42.277 191.052,41.663 192.535,41.505 193.052 C 41.346 193.568,40.909 194.667,40.533 195.493 C 40.158 196.319,39.160 198.770,38.317 200.939 C 37.474 203.108,36.598 205.305,36.370 205.822 C 35.879 206.935,36.112 206.326,32.492 215.962 C 27.907 228.165,27.612 228.980,25.886 234.178 C 25.475 235.418,24.982 236.770,24.790 237.183 C 24.599 237.596,24.166 238.864,23.829 240.000 C 23.492 241.136,22.910 242.911,22.536 243.944 C 22.162 244.977,21.143 248.103,20.271 250.892 C 19.400 253.681,18.437 256.723,18.130 257.653 C 17.824 258.582,17.157 260.779,16.648 262.535 C 16.139 264.291,15.573 266.235,15.390 266.854 C 13.534 273.136,8.786 292.065,7.902 296.714 C 7.685 297.850,7.171 300.300,6.759 302.160 C 6.346 304.019,5.762 306.977,5.460 308.732 C 5.159 310.488,4.724 312.939,4.496 314.178 C 4.119 316.216,3.685 319.162,2.614 326.948 C 1.893 332.187,1.504 335.675,1.129 340.282 C 0.918 342.864,0.578 346.947,0.373 349.355 C -0.110 355.021,-0.110 380.513,0.373 385.893 C 0.577 388.178,0.917 392.075,1.126 394.554 C 1.515 399.153,1.962 402.930,2.594 406.948 C 3.457 412.435,4.190 416.855,4.527 418.592 C 4.727 419.624,5.135 422.329,5.434 424.601 C 6.559 433.161,6.757 434.502,7.680 439.812 C 9.378 449.583,11.617 456.670,14.526 461.483 L 15.842 463.662 15.605 468.732 C 15.091 479.720,17.039 494.001,20.189 502.347 C 20.797 503.959,21.159 505.630,21.124 506.667 C 21.093 507.596,20.952 522.385,20.811 539.531 C 20.498 577.572,21.067 599.117,23.462 640.000 C 24.036 649.791,24.426 655.501,25.156 664.789 C 25.359 667.371,25.784 672.864,26.101 676.995 C 26.417 681.127,26.834 686.282,27.029 688.451 C 27.223 690.620,27.643 695.521,27.963 699.343 C 28.504 705.802,28.742 708.339,29.691 717.746 C 29.889 719.709,30.315 724.188,30.639 727.700 C 30.962 731.211,31.370 735.437,31.546 737.089 C 31.722 738.742,32.131 742.798,32.456 746.103 C 33.021 751.858,33.339 754.876,34.188 762.535 C 34.399 764.446,34.819 768.460,35.120 771.455 C 35.421 774.451,35.845 778.423,36.063 780.282 C 36.280 782.141,36.700 786.028,36.996 788.920 C 37.594 794.774,38.087 799.268,38.686 804.319 C 38.906 806.178,39.331 810.150,39.630 813.146 C 39.930 816.141,40.351 820.113,40.567 821.972 C 42.101 835.194,42.175 836.482,42.235 851.268 C 42.299 866.705,42.316 866.930,43.933 872.848 C 44.462 874.785,46.144 877.382,47.397 878.194 C 48.502 878.911,52.914 879.117,82.441 879.833 C 95.042 880.139,111.099 880.551,118.122 880.749 C 125.146 880.947,141.371 881.370,154.178 881.690 C 180.141 882.338,193.937 882.831,200.939 883.360 C 210.922 884.115,220.431 884.901,223.850 885.252 C 225.812 885.454,229.953 885.875,233.052 886.186 C 238.591 886.743,241.553 887.083,247.887 887.888 C 249.643 888.111,253.023 888.534,255.399 888.828 C 257.775 889.121,260.986 889.548,262.535 889.776 C 266.863 890.413,269.504 890.799,273.803 891.422 C 275.972 891.737,278.845 892.177,280.188 892.400 C 281.531 892.623,284.235 893.064,286.197 893.381 C 290.348 894.052,292.649 894.446,295.775 895.023 C 297.014 895.251,299.465 895.698,301.221 896.016 C 304.572 896.623,305.778 896.850,310.986 897.859 C 316.350 898.897,317.019 899.033,322.066 900.107 C 324.751 900.679,327.610 901.226,328.418 901.323 L 329.887 901.499 329.644 894.599 C 328.090 850.531,327.654 840.705,327.168 838.685 C 326.944 837.756,326.516 835.643,326.217 833.991 C 325.918 832.338,325.485 829.972,325.255 828.732 C 325.025 827.493,324.599 824.958,324.309 823.099 C 324.019 821.239,323.604 818.620,323.386 817.277 C 322.775 813.501,322.273 809.663,321.666 804.131 C 321.361 801.343,320.949 797.624,320.751 795.869 C 320.009 789.296,318.676 771.096,318.137 760.188 C 317.938 756.160,317.685 751.850,317.575 750.610 C 317.465 749.371,317.196 740.075,316.978 729.953 C 316.571 711.086,316.653 708.264,318.127 690.329 C 318.323 687.953,318.656 683.897,318.868 681.315 C 319.081 678.732,319.516 673.070,319.837 668.732 C 320.157 664.394,320.569 658.986,320.751 656.714 C 320.934 654.441,321.346 649.033,321.667 644.695 C 322.390 634.946,322.879 630.176,323.380 627.981 C 323.593 627.052,324.018 624.939,324.324 623.286 C 324.631 621.634,325.051 619.521,325.258 618.592 C 325.465 617.662,325.883 615.549,326.188 613.897 C 326.493 612.244,327.086 609.286,327.507 607.324 C 327.927 605.362,328.520 602.404,328.824 600.751 C 329.128 599.099,329.558 596.901,329.779 595.869 C 330.000 594.836,330.424 592.723,330.720 591.174 C 331.016 589.624,331.604 586.751,332.026 584.789 C 332.448 582.826,333.032 579.615,333.323 577.653 C 333.614 575.690,334.038 573.070,334.266 571.831 C 334.493 570.592,334.838 568.563,335.033 567.324 C 335.227 566.085,335.557 564.225,335.767 563.192 C 336.208 561.017,337.438 554.738,338.010 551.737 C 338.227 550.601,338.568 548.911,338.768 547.981 C 339.787 543.249,341.139 537.128,341.423 535.962 C 341.600 535.239,341.990 533.549,342.291 532.207 C 343.094 528.621,345.087 521.047,347.778 511.362 C 347.950 510.742,348.451 509.052,348.891 507.606 C 349.331 506.160,350.125 503.540,350.654 501.784 C 351.184 500.028,351.764 498.254,351.942 497.840 C 352.121 497.427,353.137 494.385,354.200 491.080 C 355.262 487.775,356.439 484.141,356.815 483.005 C 357.191 481.869,358.195 478.657,359.045 475.869 C 359.896 473.080,361.184 468.854,361.909 466.479 C 362.634 464.103,363.626 460.808,364.114 459.155 C 364.602 457.502,365.519 454.460,366.153 452.394 C 366.786 450.329,367.464 447.962,367.658 447.136 C 367.853 446.310,368.874 442.616,369.929 438.927 C 370.983 435.238,371.997 431.604,372.183 430.852 C 372.368 430.099,373.122 427.202,373.858 424.413 C 376.751 413.444,382.297 390.419,382.904 386.854 C 383.133 385.507,383.373 384.420,384.414 380.000 C 384.743 378.605,385.274 376.070,385.594 374.366 C 385.914 372.662,386.311 370.592,386.476 369.765 C 386.641 368.939,386.962 367.249,387.191 366.009 C 387.419 364.770,387.775 362.911,387.982 361.878 C 389.031 356.652,389.577 353.685,390.056 350.610 C 390.345 348.751,390.767 346.216,390.994 344.977 C 391.221 343.737,391.642 341.117,391.930 339.155 C 392.219 337.192,392.633 334.488,392.851 333.146 C 393.456 329.411,393.947 325.902,394.583 320.751 C 394.902 318.169,395.321 314.873,395.513 313.427 C 395.830 311.036,396.399 305.607,397.403 295.399 C 398.110 288.209,398.479 283.335,398.868 276.056 C 399.083 272.028,399.426 265.690,399.630 261.972 C 400.110 253.251,400.110 228.237,399.630 219.531 C 398.879 205.914,398.437 198.793,398.128 195.305 C 397.954 193.343,397.688 190.264,397.536 188.463 C 397.385 186.661,397.158 185.252,397.031 185.330 C 396.814 185.464,393.337 185.967,366.197 189.787 L 354.742 191.400 354.492 193.822 C 354.355 195.154,354.048 198.610,353.811 201.502 C 352.569 216.650,348.954 234.125,343.804 249.872 L 342.111 255.050 342.711 259.638 C 354.929 353.111,282.326 419.513,185.915 403.040 C 108.084 389.741,67.065 332.437,82.249 258.216 C 82.840 255.324,83.528 251.775,83.776 250.329 C 84.025 248.883,84.882 245.621,85.682 243.080 C 87.135 238.464,87.136 238.457,87.136 231.995 C 87.136 210.659,89.310 183.725,92.442 166.249 C 93.112 162.510,93.158 161.741,92.724 161.466 C 92.248 161.164,78.143 161.087,75.117 161.370 " stroke="none" fill="#fb0404" fill-rule="evenodd"></path><path id="path3" d="M217.058 0.153 C 216.972 0.237,215.016 0.494,212.713 0.723 C 210.409 0.953,208.043 1.295,207.454 1.483 C 206.866 1.671,205.117 2.193,203.568 2.643 C 183.571 8.445,163.325 19.860,142.347 37.158 C 139.972 39.117,137.841 40.896,137.611 41.111 C 137.382 41.326,135.861 42.685,134.231 44.130 C 128.756 48.985,117.222 60.702,112.040 66.673 C 110.967 67.909,109.721 69.343,109.271 69.859 C 108.821 70.376,107.501 71.981,106.339 73.427 C 105.176 74.873,104.017 76.277,103.763 76.546 C 103.265 77.073,97.796 84.385,95.140 88.075 C 94.248 89.315,93.390 90.498,93.232 90.704 C 92.918 91.117,88.969 97.255,87.346 99.853 C 86.784 100.754,86.491 101.387,86.695 101.261 C 87.123 100.997,97.798 89.498,105.039 81.502 C 125.316 59.111,162.493 27.709,179.318 18.763 C 185.335 15.563,197.280 11.059,203.192 9.760 C 204.329 9.510,205.934 9.154,206.761 8.968 C 229.123 3.944,267.364 8.989,285.820 19.397 C 287.116 20.127,337.699 43.208,340.257 44.236 C 340.599 44.374,340.411 43.776,339.743 42.602 C 339.164 41.584,338.141 39.737,337.471 38.498 C 336.246 36.232,330.602 26.224,328.575 22.723 C 327.977 21.690,327.389 20.549,327.268 20.188 C 327.147 19.826,326.918 19.531,326.757 19.531 C 326.597 19.531,326.362 19.114,326.234 18.605 C 326.058 17.901,325.620 17.582,324.409 17.273 C 323.534 17.049,322.394 16.723,321.878 16.547 C 321.362 16.371,319.925 15.947,318.685 15.604 C 317.446 15.262,315.333 14.656,313.991 14.257 C 312.648 13.859,310.197 13.177,308.545 12.741 C 306.892 12.305,305.033 11.808,304.413 11.636 C 302.333 11.058,292.412 8.582,290.704 8.214 C 289.775 8.014,287.662 7.528,286.009 7.134 C 283.328 6.495,279.466 5.689,276.244 5.096 C 275.624 4.982,274.272 4.707,273.239 4.485 C 270.682 3.935,265.204 3.038,257.277 1.871 C 255.934 1.673,253.061 1.335,250.892 1.118 C 248.723 0.902,245.398 0.562,243.504 0.363 C 240.211 0.016,217.383 -0.165,217.058 0.153 " stroke="none" fill="#cf00ff" fill-rule="evenodd"></path><path id="path4" d="M93.897 132.619 C 90.901 133.006,84.901 133.753,80.563 134.279 C 67.019 135.920,66.912 135.940,66.624 136.849 C 66.484 137.291,65.109 140.272,63.570 143.474 C 62.030 146.676,60.009 150.901,59.078 152.864 C 58.148 154.826,56.655 157.946,55.762 159.797 C 53.779 163.904,53.665 163.727,57.915 163.135 C 67.494 161.802,73.762 161.361,83.451 161.338 L 93.474 161.315 94.434 157.559 C 94.961 155.493,95.800 152.282,96.299 150.423 C 99.836 137.223,101.033 132.629,101.033 132.257 C 101.033 131.728,100.630 131.749,93.897 132.619 " stroke="none" fill="#ffd400" fill-rule="evenodd"></path><path id="path5" d="M221.972 7.383 C 204.888 8.556,192.076 11.974,179.318 18.762 C 161.797 28.084,125.236 59.176,103.337 83.376 C 99.694 87.402,94.221 93.348,91.174 96.591 C 88.127 99.833,85.634 102.589,85.634 102.716 C 85.634 102.843,85.042 103.872,84.319 105.002 C 83.596 106.132,83.005 107.183,83.005 107.338 C 83.005 107.493,82.582 108.241,82.066 109.001 C 81.549 109.761,80.733 111.110,80.250 111.999 C 78.645 114.958,77.258 117.345,75.993 119.322 C 75.305 120.398,74.742 121.357,74.742 121.453 C 74.742 121.549,74.008 122.869,73.111 124.386 C 70.681 128.497,67.438 135.169,67.729 135.459 C 67.944 135.675,87.353 133.474,97.626 132.069 L 100.793 131.635 102.803 126.569 C 122.656 76.528,161.533 51.102,218.216 51.088 C 225.000 51.086,238.534 51.823,241.690 52.367 C 242.310 52.473,244.592 52.831,246.761 53.162 C 277.908 57.910,307.344 72.054,322.635 89.619 C 327.470 95.174,328.835 96.850,331.318 100.282 C 347.263 122.322,356.318 155.525,354.748 186.197 C 354.458 191.869,354.149 191.444,358.091 190.801 C 359.348 190.597,365.362 189.750,371.455 188.921 C 377.549 188.091,383.465 187.257,384.601 187.066 C 385.737 186.876,388.991 186.421,391.831 186.055 C 394.795 185.674,396.990 185.222,396.982 184.996 C 396.966 184.524,396.158 180.967,395.356 177.840 C 395.038 176.601,394.359 173.897,393.846 171.831 C 393.334 169.765,392.383 166.047,391.733 163.568 C 391.083 161.089,390.394 158.425,390.202 157.648 C 389.885 156.365,387.812 149.032,386.301 143.850 C 384.531 137.781,380.504 125.416,378.410 119.624 C 377.663 117.559,376.790 115.108,376.470 114.178 C 376.150 113.249,375.634 111.897,375.323 111.174 C 374.279 108.742,374.127 108.368,372.566 104.413 C 371.710 102.244,370.628 99.624,370.161 98.592 C 369.694 97.559,368.659 95.192,367.861 93.333 C 362.330 80.447,345.244 49.544,341.234 45.176 C 340.810 44.713,328.683 39.000,313.991 32.341 C 299.427 25.740,286.582 19.832,285.446 19.212 C 269.795 10.671,244.028 5.870,221.972 7.383 " stroke="none" fill="#00ffff" fill-rule="evenodd"></path></g></svg>