<svg id="svg" version="1.1" xmlns="http://www.w3.org/2000/svg" xmlns:xlink="http://www.w3.org/1999/xlink" width="400" height="900.8303677342823" viewBox="0, 0, 400,900.8303677342823"><g id="svgg"><path id="path0" d="M166.009 51.645 C 105.007 56.568,63.770 87.930,50.202 139.718 C 41.747 171.990,43.904 212.584,56.055 249.897 C 57.158 253.284,57.705 254.516,57.890 254.029 C 58.035 253.646,58.607 251.812,59.161 249.953 C 68.378 219.011,108.724 203.004,175.023 203.984 C 178.432 204.035,187.052 203.859,194.178 203.594 C 257.388 201.242,296.441 212.136,310.892 236.153 L 312.864 239.430 312.861 237.556 C 312.839 223.108,311.327 195.893,309.837 183.099 C 308.058 167.830,307.715 166.249,299.331 134.668 C 298.950 133.233,298.718 131.931,298.815 131.774 C 299.090 131.329,295.785 123.212,292.779 116.948 C 269.800 69.072,226.494 46.764,166.009 51.645 " stroke="none" fill="#25fb4c" fill-rule="evenodd"></path><path id="path1" d="M192.488 203.602 C 188.150 203.790,180.967 203.942,176.526 203.939 C 98.710 203.895,62.523 220.894,57.047 260.064 C 52.022 296.014,61.976 334.084,83.424 360.938 C 115.426 401.006,175.716 415.805,234.742 398.082 C 298.576 378.915,331.083 325.372,318.062 260.845 C 317.436 257.746,316.612 253.437,316.229 251.268 C 310.089 216.479,268.145 200.322,192.488 203.602 M231.174 234.756 C 239.827 235.277,250.294 236.413,255.023 237.344 C 255.953 237.527,257.643 237.860,258.779 238.083 C 267.612 239.819,276.626 242.812,282.066 245.813 C 283.202 246.440,284.776 247.290,285.563 247.702 C 289.460 249.741,295.457 255.481,298.120 259.718 C 304.539 269.936,304.924 280.711,299.603 301.221 C 298.345 306.073,295.655 314.067,294.106 317.559 C 291.486 323.467,286.172 333.194,284.805 334.583 C 284.535 334.858,284.119 335.449,283.880 335.898 C 283.024 337.506,278.007 343.534,274.902 346.685 C 264.517 357.223,253.313 364.329,237.746 370.251 C 229.789 373.279,223.975 374.905,213.521 377.026 C 200.387 379.692,194.704 380.217,187.606 379.419 C 181.255 378.705,175.444 377.934,172.958 377.474 C 171.718 377.245,169.690 376.895,168.451 376.697 C 167.211 376.498,165.521 376.174,164.695 375.977 C 163.869 375.779,161.333 375.184,159.061 374.655 C 135.333 369.130,116.478 359.502,103.111 346.084 C 96.241 339.188,90.268 330.459,86.803 322.254 C 86.324 321.117,85.707 319.681,85.432 319.061 C 84.602 317.185,82.371 310.197,81.712 307.409 C 80.527 302.387,80.404 301.759,79.844 297.840 C 76.396 273.732,79.589 260.251,90.923 251.058 C 92.181 250.037,93.415 249.013,93.665 248.783 C 96.967 245.730,109.617 240.766,119.249 238.744 C 121.683 238.233,122.772 238.032,128.732 236.995 C 130.869 236.624,135.116 236.195,144.225 235.431 C 146.808 235.214,159.381 234.975,172.166 234.899 C 184.951 234.823,195.500 234.672,195.609 234.563 C 195.951 234.221,224.896 234.377,231.174 234.756 " stroke="none" fill="#040404" fill-rule="evenodd"></path><path id="path2" d="M306.900 161.437 C 306.616 161.633,306.478 161.948,306.594 162.135 C 306.903 162.636,308.991 175.582,309.642 181.033 C 311.140 193.576,311.955 205.785,312.652 226.103 L 313.135 240.188 314.315 243.625 C 314.963 245.516,315.816 248.896,316.209 251.137 C 316.603 253.378,317.436 257.746,318.062 260.845 C 331.083 325.372,298.576 378.915,234.742 398.082 C 175.716 415.805,115.426 401.006,83.424 360.938 C 62.011 334.127,51.997 295.860,57.036 260.094 L 57.724 255.211 56.252 250.704 C 50.259 232.351,45.448 206.980,45.446 193.716 C 45.446 191.792,45.357 191.543,44.601 191.371 C 43.667 191.158,41.068 190.787,24.789 188.546 C 18.695 187.707,11.446 186.688,8.679 186.281 C 5.913 185.873,3.445 185.540,3.195 185.540 C 2.555 185.540,1.428 195.942,0.693 208.638 C 0.049 219.757,-0.160 255.308,0.359 265.352 C 1.190 281.440,1.683 288.444,2.616 297.465 C 4.098 311.798,4.265 313.272,5.410 322.066 C 5.971 326.371,6.317 328.778,7.124 333.991 C 7.324 335.282,7.737 338.028,8.041 340.094 C 8.345 342.160,8.782 344.864,9.011 346.103 C 9.240 347.343,9.664 349.793,9.953 351.549 C 10.472 354.699,11.045 357.817,11.644 360.751 C 11.813 361.577,12.141 363.352,12.374 364.695 C 12.607 366.038,13.063 368.404,13.388 369.953 C 13.713 371.502,14.227 374.038,14.531 375.587 C 15.072 378.348,15.418 379.996,16.130 383.192 C 16.326 384.070,16.668 385.718,16.892 386.854 C 17.115 387.991,17.619 390.272,18.011 391.925 C 18.675 394.721,20.709 403.371,22.030 409.014 C 22.344 410.357,22.756 411.962,22.946 412.582 C 23.136 413.202,23.615 415.061,24.012 416.714 C 25.055 421.066,28.353 433.503,29.688 438.122 C 29.867 438.742,30.286 440.263,30.618 441.502 C 31.371 444.309,31.617 445.175,32.859 449.390 C 33.406 451.249,33.998 453.277,34.173 453.897 C 34.575 455.319,36.302 461.187,37.046 463.662 C 37.357 464.695,37.752 466.047,37.925 466.667 C 38.279 467.938,39.552 472.023,40.558 475.117 C 40.928 476.254,41.946 479.465,42.821 482.254 C 43.697 485.042,45.300 490.028,46.385 493.333 C 50.506 505.892,53.855 517.196,55.788 525.070 C 56.118 526.413,56.550 528.103,56.748 528.826 C 56.946 529.549,57.367 531.324,57.683 532.770 C 57.999 534.216,58.408 535.991,58.591 536.714 C 58.775 537.437,59.359 540.056,59.891 542.535 C 60.422 545.014,61.023 547.803,61.228 548.732 C 61.432 549.662,61.865 551.859,62.190 553.615 C 62.515 555.371,62.952 557.653,63.160 558.685 C 63.369 559.718,63.693 561.324,63.881 562.254 C 64.068 563.183,64.465 565.465,64.764 567.324 C 65.062 569.183,65.494 571.718,65.723 572.958 C 65.952 574.197,66.383 576.732,66.680 578.592 C 67.231 582.033,67.678 584.393,68.355 587.418 C 68.563 588.347,68.983 590.460,69.289 592.113 C 69.596 593.765,70.027 595.962,70.248 596.995 C 70.470 598.028,70.911 600.225,71.229 601.878 C 72.048 606.134,72.429 608.017,72.862 609.953 C 73.070 610.883,73.490 612.995,73.796 614.648 C 74.103 616.300,74.534 618.498,74.755 619.531 C 74.977 620.563,75.419 622.761,75.737 624.413 C 76.056 626.066,76.477 628.178,76.672 629.108 C 77.079 631.043,77.445 634.953,78.292 646.385 C 78.621 650.826,79.056 656.488,79.259 658.967 C 79.462 661.446,79.890 667.023,80.210 671.362 C 80.852 680.061,81.280 685.496,81.881 692.582 C 83.675 713.772,83.282 742.478,80.740 775.775 C 79.484 792.236,79.547 791.521,78.330 802.817 C 77.805 807.688,77.495 810.053,76.607 815.962 C 76.421 817.202,76.019 819.906,75.713 821.972 C 75.408 824.038,74.980 826.657,74.762 827.793 C 74.544 828.930,74.114 831.296,73.807 833.052 C 73.500 834.808,73.077 837.005,72.867 837.934 C 71.936 842.066,71.758 844.712,71.355 860.469 C 71.120 869.662,70.777 879.380,70.594 882.066 C 70.411 884.751,70.255 890.202,70.248 894.178 L 70.235 901.408 71.143 901.408 C 71.643 901.408,73.037 901.174,74.242 900.888 C 75.446 900.601,77.446 900.165,78.685 899.918 C 79.925 899.671,81.615 899.322,82.441 899.143 C 86.704 898.216,91.759 897.256,101.221 895.578 C 103.080 895.248,105.362 894.833,106.291 894.654 C 110.168 893.909,112.636 893.481,115.117 893.123 C 116.563 892.914,118.676 892.589,119.812 892.400 C 120.948 892.211,124.244 891.714,127.136 891.296 C 130.028 890.878,133.534 890.359,134.928 890.142 C 136.321 889.925,138.519 889.585,139.811 889.385 C 141.103 889.185,143.765 888.840,145.728 888.618 C 147.690 888.396,150.648 888.047,152.300 887.842 C 161.106 886.749,160.915 886.769,175.962 885.250 C 177.822 885.062,182.723 884.642,186.854 884.316 C 190.986 883.991,196.394 883.562,198.873 883.363 C 205.437 882.836,219.051 882.348,245.822 881.681 C 258.836 881.357,274.977 880.939,281.690 880.752 C 288.404 880.565,304.460 880.157,317.371 879.845 C 351.626 879.018,351.600 879.019,353.114 877.663 C 356.804 874.359,358.291 864.461,357.644 847.512 C 357.494 843.587,357.490 839.108,357.635 837.559 C 357.935 834.352,358.900 825.118,359.461 820.094 C 359.668 818.235,360.087 814.347,360.390 811.455 C 360.694 808.563,361.107 804.761,361.307 803.005 C 361.882 797.950,362.369 793.472,362.980 787.606 C 363.293 784.610,363.725 780.638,363.940 778.779 C 364.156 776.920,364.583 772.864,364.889 769.765 C 365.195 766.667,365.606 762.695,365.802 760.939 C 366.680 753.061,367.014 749.869,367.515 744.601 C 367.810 741.502,368.229 737.362,368.447 735.399 C 368.665 733.437,369.090 729.127,369.390 725.822 C 369.691 722.516,370.110 718.122,370.322 716.056 C 370.920 710.213,371.399 705.014,372.034 697.465 C 372.355 693.643,372.778 688.742,372.974 686.573 C 373.169 684.404,373.581 679.249,373.889 675.117 C 374.198 670.986,374.622 665.408,374.833 662.723 C 375.406 655.428,375.870 648.504,376.305 640.751 C 376.519 636.930,376.866 630.845,377.075 627.230 C 378.458 603.298,378.942 587.461,379.236 556.432 C 379.372 542.028,379.280 529.167,378.972 519.687 C 378.647 509.655,378.619 504.847,378.884 504.287 C 382.364 496.944,384.541 482.398,384.114 469.333 L 383.931 463.737 385.122 461.822 C 388.066 457.088,390.562 449.530,391.956 441.127 C 393.246 433.348,393.413 432.218,394.558 423.474 C 394.856 421.202,395.274 418.498,395.487 417.465 C 395.843 415.734,396.196 413.603,397.382 406.009 C 398.202 400.762,398.530 397.396,399.631 382.911 C 400.110 376.610,400.107 358.867,399.626 352.320 C 398.537 337.500,398.330 335.258,397.399 328.263 C 396.765 323.496,395.860 317.278,395.513 315.305 C 395.332 314.272,394.926 311.906,394.612 310.047 C 394.073 306.855,393.550 304.218,392.862 301.221 C 392.696 300.498,392.370 298.892,392.137 297.653 C 391.905 296.413,391.383 294.047,390.978 292.394 C 390.574 290.742,389.917 287.953,389.519 286.197 C 388.652 282.372,386.506 274.159,385.152 269.484 C 384.614 267.624,384.028 265.596,383.850 264.977 C 383.672 264.357,383.249 262.920,382.911 261.784 C 382.572 260.648,382.154 259.211,381.981 258.592 C 380.805 254.380,374.424 235.156,372.007 228.545 C 371.252 226.479,370.244 223.690,369.766 222.347 C 368.690 219.321,361.816 201.539,361.127 200.000 C 360.850 199.380,360.503 198.451,360.356 197.934 C 360.210 197.418,359.788 196.319,359.420 195.493 C 358.265 192.904,355.681 186.682,355.681 186.492 C 355.681 186.392,355.174 185.203,354.554 183.850 C 353.934 182.497,353.427 181.300,353.427 181.191 C 353.427 181.081,353.110 180.283,352.722 179.416 C 352.334 178.549,351.224 175.981,350.254 173.709 C 349.285 171.437,348.105 168.732,347.631 167.700 C 347.158 166.667,346.573 165.309,346.331 164.682 C 346.006 163.840,345.624 163.521,344.871 163.462 C 344.309 163.418,341.822 163.132,339.343 162.827 C 336.864 162.522,333.230 162.087,331.268 161.861 C 326.456 161.307,307.566 160.978,306.900 161.437 " stroke="none" fill="#fb0404" fill-rule="evenodd"></path><path id="path3" d="M157.934 0.190 C 157.728 0.277,154.685 0.615,151.174 0.941 C 144.703 1.542,141.725 1.905,137.653 2.589 C 136.413 2.797,133.793 3.234,131.831 3.560 C 129.869 3.887,127.502 4.301,126.573 4.482 C 125.643 4.662,123.488 5.072,121.784 5.392 C 120.080 5.712,117.630 6.227,116.338 6.535 C 115.047 6.844,112.723 7.383,111.174 7.734 C 106.676 8.754,93.715 12.060,88.357 13.556 C 87.082 13.912,86.506 14.074,81.878 15.378 C 80.329 15.815,78.638 16.328,78.122 16.519 C 77.606 16.710,76.479 17.046,75.619 17.265 C 74.259 17.612,73.898 17.944,72.839 19.818 C 72.169 21.003,71.286 22.563,70.875 23.286 C 70.464 24.009,69.756 25.277,69.302 26.103 C 68.847 26.930,67.918 28.620,67.237 29.859 C 66.191 31.762,65.089 33.713,61.506 40.000 C 60.281 42.151,59.325 44.051,59.422 44.146 C 59.482 44.204,68.488 40.206,79.437 35.262 C 108.080 22.325,108.970 21.916,114.554 19.145 C 122.618 15.144,127.245 13.419,136.150 11.095 C 149.254 7.676,169.225 6.328,184.601 7.826 C 196.286 8.964,207.608 12.336,219.124 18.109 C 236.509 26.823,275.524 59.739,296.715 83.568 C 300.471 87.792,308.406 96.440,312.568 100.845 L 313.278 101.596 313.005 100.845 C 312.725 100.074,311.727 98.363,311.362 98.028 C 311.249 97.925,310.406 96.657,309.488 95.211 C 306.005 89.726,301.657 83.640,298.052 79.205 C 297.781 78.872,297.411 78.346,297.230 78.036 C 297.049 77.727,296.283 76.732,295.528 75.826 C 294.772 74.920,293.102 72.911,291.816 71.362 C 282.458 60.087,268.892 46.522,258.028 37.577 C 254.231 34.451,254.544 34.699,250.516 31.612 C 248.554 30.108,246.610 28.599,246.197 28.258 C 244.814 27.118,231.737 18.461,229.564 17.247 C 225.606 15.035,222.560 13.424,218.967 11.641 C 213.640 8.998,207.897 6.385,207.413 6.385 C 207.251 6.385,205.771 5.858,204.123 5.215 C 200.943 3.973,199.386 3.487,192.941 1.723 C 188.775 0.583,184.521 0.272,171.455 0.153 C 164.225 0.087,158.141 0.104,157.934 0.190 " stroke="none" fill="#cb04fc" fill-rule="evenodd"></path><path id="path4" d="M298.742 132.488 C 298.852 132.850,299.186 134.075,299.482 135.211 C 301.327 142.270,305.465 157.859,305.913 159.437 L 306.447 161.315 316.510 161.337 C 326.214 161.358,330.631 161.669,341.878 163.125 C 346.142 163.677,346.027 163.849,344.076 159.826 C 343.272 158.166,341.934 155.371,341.105 153.615 C 340.276 151.859,338.428 147.972,337.000 144.977 C 335.571 141.981,334.008 138.650,333.526 137.574 C 333.044 136.497,332.539 135.685,332.403 135.769 C 332.268 135.853,330.985 135.758,329.553 135.558 C 325.884 135.045,299.516 131.831,298.982 131.831 C 298.736 131.831,298.630 132.121,298.742 132.488 M312.596 229.296 C 312.599 230.329,312.671 230.707,312.758 230.136 C 312.844 229.565,312.842 228.720,312.753 228.258 C 312.664 227.796,312.593 228.263,312.596 229.296 " stroke="none" fill="#fbd304" fill-rule="evenodd"></path><path id="path5" d="M160.939 7.387 C 154.352 7.794,148.214 8.548,142.723 9.627 C 132.081 11.717,124.108 14.389,115.137 18.871 C 110.202 21.337,106.154 23.193,78.010 35.896 L 58.930 44.507 57.734 46.385 C 57.076 47.418,56.396 48.432,56.223 48.638 C 55.755 49.197,48.940 60.336,47.605 62.723 C 46.970 63.859,46.111 65.380,45.697 66.103 C 43.756 69.492,40.389 75.818,38.181 80.226 C 36.293 83.995,33.456 89.959,32.036 93.146 C 31.713 93.869,31.149 95.136,30.782 95.962 C 30.414 96.789,29.699 98.394,29.193 99.531 C 28.687 100.667,28.141 102.019,27.981 102.535 C 27.821 103.052,27.291 104.351,26.803 105.422 C 26.315 106.493,25.915 107.552,25.915 107.774 C 25.915 107.997,25.761 108.473,25.571 108.831 C 25.024 109.869,24.161 111.971,23.530 113.803 C 23.210 114.732,22.336 117.183,21.589 119.249 C 20.842 121.315,19.292 125.878,18.144 129.390 C 16.997 132.901,15.916 136.113,15.743 136.526 C 15.570 136.939,15.152 138.291,14.814 139.531 C 14.477 140.770,13.949 142.545,13.642 143.474 C 13.334 144.404,12.674 146.643,12.175 148.451 C 11.676 150.258,10.829 153.300,10.294 155.211 C 9.264 158.883,7.203 166.806,5.971 171.831 C 5.566 173.484,4.969 175.850,4.645 177.089 C 4.040 179.400,3.037 183.802,2.896 184.764 C 2.812 185.336,4.037 185.534,28.357 188.876 C 34.554 189.727,40.540 190.593,41.659 190.799 C 45.313 191.472,44.938 192.685,45.177 179.437 C 46.558 102.764,90.692 56.905,168.333 51.466 C 231.659 47.030,276.171 73.159,297.281 127.159 L 299.052 131.688 307.742 132.731 C 312.521 133.305,317.362 133.914,318.498 134.086 C 322.988 134.766,332.033 135.698,332.229 135.501 C 332.344 135.387,331.275 133.035,329.854 130.276 C 327.074 124.877,326.547 123.929,323.044 117.998 C 321.783 115.863,320.751 114.050,320.751 113.967 C 320.751 113.885,320.160 112.893,319.437 111.762 C 318.714 110.632,318.122 109.629,318.122 109.532 C 318.122 109.018,313.510 101.649,312.741 100.934 C 311.354 99.646,301.944 89.449,296.715 83.568 C 275.524 59.739,236.509 26.823,219.124 18.109 C 208.842 12.955,199.305 9.945,187.981 8.280 C 181.836 7.377,168.333 6.931,160.939 7.387 " stroke="none" fill="#00ffff" fill-rule="evenodd"></path></g></svg>