<svg id="svg" version="1.1" xmlns="http://www.w3.org/2000/svg" xmlns:xlink="http://www.w3.org/1999/xlink" width="400" height="400" viewBox="0, 0, 400,400"><g id="svgg"><path id="path0" d="M258.041 29.694 C 255.583 53.602,245.291 79.128,232.268 93.612 C 230.395 95.695,228.984 97.445,229.133 97.501 C 229.282 97.556,238.043 94.921,248.602 91.644 C 259.161 88.368,277.160 82.789,288.600 79.246 C 300.040 75.703,309.729 72.664,310.130 72.493 C 310.585 72.299,311.442 70.639,312.404 68.091 C 314.501 62.534,317.529 56.860,320.651 52.637 C 322.082 50.702,323.196 49.067,323.126 49.003 C 315.685 42.175,297.002 34.521,278.800 30.843 C 270.610 29.189,259.321 25.971,258.773 25.134 C 258.647 24.943,258.318 26.995,258.041 29.694 M134.529 27.422 C 131.410 28.375,126.640 29.626,123.929 30.202 C 109.322 33.308,98.403 36.598,91.400 40.003 C 88.438 41.443,77.269 48.291,76.078 49.398 C 76.011 49.460,77.181 51.040,78.678 52.909 C 82.854 58.121,86.317 64.486,88.896 71.690 C 88.953 71.850,98.360 74.884,109.800 78.434 C 121.240 81.983,139.503 87.649,150.384 91.026 C 161.265 94.403,170.224 97.109,170.292 97.041 C 170.360 96.973,169.216 95.586,167.749 93.959 C 154.590 79.361,144.706 55.225,141.189 29.100 C 140.929 27.175,140.601 25.620,140.459 25.645 C 140.316 25.670,137.648 26.469,134.529 27.422 " stroke="none" fill="#00ffff" fill-rule="evenodd"></path><path id="path1" d="M162.216 16.375 C 161.537 17.472,144.346 24.000,142.134 24.000 C 140.465 24.000,140.751 28.251,143.225 40.222 C 148.151 64.052,156.312 81.285,169.638 95.995 C 182.655 110.364,199.798 129.000,199.998 129.000 C 200.126 129.000,202.185 126.840,204.574 124.200 C 206.963 121.560,209.588 118.680,210.407 117.800 C 212.939 115.081,215.922 111.787,225.805 100.800 C 245.598 78.795,255.161 57.622,258.016 29.481 C 258.584 23.885,259.175 24.683,252.917 22.586 C 244.093 19.630,240.661 18.307,238.718 17.111 C 236.900 15.993,235.200 16.016,235.200 17.160 C 235.200 20.715,216.081 30.935,206.200 32.662 C 193.470 34.887,173.737 27.918,165.389 18.249 C 163.509 16.071,162.699 15.593,162.216 16.375 M232.201 49.859 C 229.264 58.642,221.548 71.880,213.624 81.735 C 209.423 86.959,200.611 96.400,199.935 96.400 C 198.299 96.400,187.731 84.357,182.453 76.479 C 177.426 68.974,169.022 53.455,167.281 48.461 L 166.876 47.299 170.674 48.850 C 189.203 56.418,212.371 55.943,230.588 47.622 C 233.569 46.260,233.456 46.104,232.201 49.859 " stroke="none" fill="#cf00ff" fill-rule="evenodd"></path><path id="path2" d="M88.984 72.695 C 89.628 74.360,91.220 81.612,91.465 84.000 C 91.612 85.430,91.803 86.389,91.889 86.132 C 91.999 85.802,92.901 85.957,94.923 86.651 C 97.348 87.483,125.335 96.528,144.377 102.633 L 149.754 104.356 139.977 94.596 L 130.200 84.836 110.000 78.608 C 98.890 75.183,89.555 72.293,89.255 72.186 C 88.873 72.049,88.792 72.200,88.984 72.695 M289.400 79.074 L 268.200 85.634 258.400 95.469 C 253.010 100.878,248.878 105.211,249.217 105.096 C 249.556 104.982,262.786 100.705,278.617 95.591 C 294.448 90.477,307.531 86.177,307.692 86.035 C 307.852 85.893,308.269 84.252,308.617 82.388 C 308.966 80.525,309.609 77.584,310.046 75.854 C 310.483 74.123,310.787 72.664,310.720 72.611 C 310.654 72.558,301.060 75.466,289.400 79.074 " stroke="none" fill="#ffd400" fill-rule="evenodd"></path><path id="path3" d="M140.035 94.631 L 149.800 104.393 168.969 110.594 C 179.512 114.004,188.189 116.744,188.251 116.682 C 188.313 116.621,184.429 112.256,179.620 106.984 L 170.876 97.398 165.938 95.902 C 163.222 95.079,154.086 92.260,145.635 89.637 L 130.271 84.869 140.035 94.631 M248.400 91.755 C 237.730 95.095,228.806 97.911,228.569 98.014 C 227.997 98.260,211.159 116.893,211.342 117.076 C 211.420 117.154,219.835 114.513,230.042 111.208 L 248.600 105.198 258.399 95.399 C 263.788 90.010,268.108 85.619,267.999 85.641 C 267.890 85.664,259.070 88.415,248.400 91.755 " stroke="none" fill="#ffffff" fill-rule="evenodd"></path><path id="path4" d="M320.622 52.677 C 312.069 64.243,307.664 79.223,307.367 97.752 L 307.233 106.103 310.116 103.308 C 316.401 97.215,325.151 92.929,335.687 90.782 C 339.625 89.980,339.794 89.976,340.328 90.675 C 340.855 91.363,340.872 91.360,340.674 90.600 C 339.939 87.792,338.621 83.741,338.337 83.420 C 338.151 83.211,338.000 82.581,337.999 82.020 C 337.993 75.971,326.228 49.200,323.576 49.200 C 323.365 49.200,322.036 50.765,320.622 52.677 M74.998 50.140 C 71.350 55.093,64.367 70.007,63.453 74.800 C 62.926 77.565,61.833 81.771,60.803 85.000 C 59.118 90.283,59.057 90.536,59.538 90.239 C 60.155 89.857,67.407 91.417,71.700 92.854 C 78.527 95.139,84.816 98.796,89.200 103.028 L 91.815 105.552 92.007 101.476 C 92.968 81.137,88.649 65.309,78.800 53.079 C 76.007 49.610,75.613 49.305,74.998 50.140 M58.093 98.400 C 58.093 99.170,58.175 99.485,58.276 99.100 C 58.376 98.715,58.376 98.085,58.276 97.700 C 58.175 97.315,58.093 97.630,58.093 98.400 M341.293 98.400 C 341.293 99.170,341.375 99.485,341.476 99.100 C 341.576 98.715,341.576 98.085,341.476 97.700 C 341.375 97.315,341.293 97.630,341.293 98.400 M80.278 124.995 C 80.644 125.762,81.014 126.319,81.101 126.232 C 81.284 126.049,80.070 123.600,79.796 123.600 C 79.695 123.600,79.912 124.228,80.278 124.995 M102.540 136.400 C 102.540 138.270,102.609 139.035,102.693 138.100 C 102.777 137.165,102.777 135.635,102.693 134.700 C 102.609 133.765,102.540 134.530,102.540 136.400 M296.940 136.400 C 296.940 138.270,297.009 139.035,297.093 138.100 C 297.177 137.165,297.177 135.635,297.093 134.700 C 297.009 133.765,296.940 134.530,296.940 136.400 " stroke="none" fill="#30ff00" fill-rule="evenodd"></path><path id="path5" d="M92.174 91.500 C 92.310 94.525,92.272 98.800,92.088 101.000 L 91.755 105.000 93.883 107.800 C 105.012 122.447,105.796 149.359,95.719 170.800 L 93.933 174.600 94.463 177.400 C 95.193 181.261,95.101 186.512,94.204 192.200 C 92.297 204.280,93.627 228.354,97.606 253.800 C 98.260 257.980,99.067 263.740,99.399 266.600 C 100.895 279.460,102.456 294.738,103.386 305.600 C 105.515 330.486,105.723 334.928,105.809 357.325 L 105.892 378.851 107.164 380.163 C 108.445 381.485,113.201 382.662,118.600 382.995 C 123.755 383.312,129.676 383.943,129.935 384.202 C 130.040 384.307,130.368 384.193,130.663 383.948 C 131.047 383.629,131.348 383.625,131.718 383.932 C 132.004 384.169,133.129 384.450,134.218 384.557 C 135.308 384.664,136.200 384.782,136.200 384.819 C 136.200 384.856,138.090 384.941,140.400 385.008 C 144.360 385.122,146.628 385.266,152.800 385.795 C 154.230 385.918,157.740 386.103,160.600 386.206 C 163.460 386.310,167.060 386.497,168.600 386.623 C 170.140 386.749,175.810 386.856,181.200 386.861 C 186.590 386.866,191.769 387.011,192.709 387.183 C 193.648 387.355,194.486 387.384,194.570 387.248 C 194.655 387.112,197.036 387.051,199.862 387.112 C 202.688 387.174,205.270 387.211,205.600 387.194 C 205.930 387.177,211.060 387.098,217.000 387.019 C 222.940 386.940,229.330 386.760,231.200 386.619 C 233.070 386.478,236.816 386.290,239.524 386.200 C 242.232 386.110,245.652 385.919,247.124 385.777 C 251.729 385.331,254.054 385.177,258.800 385.005 C 264.463 384.799,267.654 384.441,268.264 383.941 C 268.564 383.696,268.827 383.720,269.005 384.008 C 269.157 384.254,269.578 384.330,269.940 384.178 C 270.303 384.026,271.050 383.860,271.600 383.809 C 273.845 383.602,280.293 383.081,281.600 383.000 C 286.187 382.716,291.052 381.488,292.416 380.269 L 293.800 379.033 293.841 359.616 C 293.870 346.291,294.093 336.938,294.553 329.800 C 296.305 302.621,299.340 272.100,301.993 255.000 C 306.089 228.596,307.522 202.451,305.496 191.104 C 304.659 186.422,304.607 180.672,305.372 177.421 L 305.932 175.043 304.005 171.021 C 293.932 149.997,294.535 122.780,305.396 108.200 L 307.183 105.800 307.351 97.200 C 307.442 92.470,307.648 88.020,307.807 87.311 L 308.095 86.023 305.148 86.991 C 303.526 87.524,282.670 94.278,258.800 102.001 C 234.930 109.723,214.306 116.396,212.969 116.830 C 210.659 117.580,210.282 117.903,205.400 123.310 C 202.573 126.439,200.147 129.000,200.007 129.000 C 199.868 129.000,197.373 126.394,194.463 123.208 C 191.553 120.023,188.954 117.297,188.686 117.150 C 187.652 116.584,92.956 86.000,92.238 86.000 C 92.066 86.000,92.037 88.475,92.174 91.500 " stroke="none" fill="#ff0000" fill-rule="evenodd"></path><path id="path6" d="M59.159 91.100 C 58.686 92.335,57.871 101.888,58.172 102.672 C 58.279 102.950,60.669 104.331,63.484 105.742 C 71.084 109.550,76.066 114.308,78.003 119.607 C 78.410 120.721,79.186 122.390,79.729 123.316 C 81.838 126.919,83.847 133.015,85.359 140.400 C 86.424 145.600,86.607 146.871,87.056 152.200 C 87.204 153.960,87.361 155.760,87.404 156.200 C 87.447 156.640,87.621 158.584,87.790 160.521 C 88.068 163.694,88.228 164.197,89.414 165.616 C 91.330 167.910,92.206 169.501,93.030 172.185 L 93.763 174.571 95.483 170.985 C 103.188 154.918,104.781 129.917,98.941 116.703 C 93.010 103.281,80.802 94.224,64.037 90.807 C 59.180 89.818,59.661 89.789,59.159 91.100 M335.316 90.831 C 318.668 94.328,306.549 103.374,300.659 116.703 C 294.819 129.917,296.412 154.918,304.117 170.985 L 305.837 174.571 306.567 172.185 C 307.400 169.465,309.236 166.344,310.667 165.219 C 311.203 164.797,311.632 164.351,311.621 164.226 C 311.609 164.102,311.614 163.955,311.630 163.900 C 311.664 163.789,311.911 160.785,312.116 157.984 C 312.189 156.985,312.347 155.995,312.468 155.784 C 312.589 155.573,312.636 154.813,312.574 154.095 C 312.510 153.349,312.624 152.891,312.841 153.025 C 313.342 153.335,313.116 152.285,312.600 151.906 C 312.355 151.726,312.402 151.610,312.720 151.606 C 313.102 151.602,313.182 151.112,313.023 149.757 C 312.904 148.743,312.933 147.708,313.088 147.457 C 313.244 147.206,313.319 146.505,313.255 145.900 C 313.192 145.295,313.326 144.800,313.554 144.800 C 313.781 144.800,313.966 144.215,313.964 143.500 C 313.957 140.818,314.020 140.400,314.428 140.400 C 314.659 140.400,314.736 140.220,314.600 140.000 C 314.464 139.780,314.493 139.375,314.665 139.100 C 315.054 138.477,315.107 138.281,315.569 135.727 C 315.775 134.586,316.139 133.289,316.377 132.843 C 316.616 132.397,316.775 131.890,316.731 131.716 C 316.687 131.542,316.972 130.680,317.363 129.800 C 317.755 128.920,318.331 127.496,318.643 126.635 C 318.955 125.774,319.410 124.829,319.654 124.535 C 319.898 124.241,319.973 124.000,319.820 124.000 C 319.668 124.000,319.827 123.715,320.175 123.368 C 320.523 123.020,320.705 122.570,320.580 122.368 C 320.455 122.165,320.554 122.000,320.800 122.000 C 321.046 122.000,321.136 121.820,321.000 121.600 C 320.864 121.380,320.927 121.200,321.139 121.200 C 321.352 121.200,321.757 120.300,322.039 119.200 C 322.321 118.100,322.682 117.200,322.843 117.200 C 323.003 117.200,323.878 116.085,324.788 114.722 C 325.698 113.360,327.041 111.839,327.771 111.342 C 328.502 110.846,329.209 110.152,329.344 109.801 C 329.479 109.450,330.132 108.973,330.795 108.742 C 331.458 108.511,332.000 108.198,332.000 108.048 C 332.000 107.897,334.144 106.713,336.765 105.418 C 341.572 103.040,343.035 101.290,341.553 99.691 C 341.404 99.531,341.219 97.600,341.141 95.400 C 341.044 92.633,340.818 91.184,340.411 90.700 C 339.710 89.867,339.933 89.861,335.316 90.831 " stroke="none" fill="#000000" fill-rule="evenodd"></path></g></svg>