<?xml version="1.0" encoding="UTF-8"?>
<!DOCTYPE svg PUBLIC "-//W3C//DTD SVG 1.1//EN" "http://www.w3.org/Graphics/SVG/1.1/DTD/svg11.dtd">
<!-- Creator: CorelDRAW X7 -->
<svg xmlns="http://www.w3.org/2000/svg" xml:space="preserve" width="7.69534in" height="10.1298in" version="1.1" shape-rendering="geometricPrecision" text-rendering="geometricPrecision" image-rendering="optimizeQuality" fill-rule="evenodd" clip-rule="evenodd"
viewBox="0 0 744 979"
 xmlns:xlink="http://www.w3.org/1999/xlink">
 <g id="Layer_x0020_1">
  <metadata id="CorelCorpID_0Corel-Layer"/>
  <path fill="#177300" d="M98 205c0,7 1,44 -4,51 15,18 22,50 20,80 0,17 -11,71 -19,80 0,8 3,8 2,26 0,19 -8,43 -4,80 2,17 2,34 5,51 2,18 4,33 6,50 5,28 18,145 19,178 0,7 1,19 2,26 1,19 1,36 1,55 0,18 -2,40 0,54 0,7 -1,11 8,19 3,3 6,3 12,5 12,3 31,3 36,4 3,1 5,2 6,2 1,0 1,0 2,0 5,-1 15,4 31,3l46 5c1,0 1,0 2,0 1,0 3,0 4,0 6,0 30,4 35,4 13,-2 49,1 66,1l40 -1c10,-1 17,0 29,-1 3,0 3,0 6,-1l44 -3c3,-1 4,-1 6,-1 9,0 14,-1 21,-3 5,0 11,2 21,-1 3,-1 4,-1 6,-1 2,-1 5,-1 5,-1 6,-1 -5,-1 2,0 5,1 4,-2 13,-2 1,0 2,0 5,0l20 -3c9,-3 18,-1 23,-13l3 -12c1,-8 1,-19 0,-27 -2,-14 1,-78 2,-95l7 -91c4,-35 7,-69 12,-101 5,-27 6,-51 9,-75 3,-16 4,-65 1,-80 -2,-21 -5,-31 0,-50 -5,-5 -11,-29 -13,-37 -7,-29 -10,-59 -3,-88 2,-7 4,-13 7,-19 2,-6 6,-11 8,-16 -5,-6 -2,-44 -1,-54 -6,2 -33,4 -43,6 -14,2 -27,5 -40,8 -47,12 -97,33 -137,58 -32,20 -32,21 -56,41 -6,-2 -84,-83 -231,-106 -14,-2 -28,-3 -42,-5z"/>
  <path fill="#177300" d="M49 86c5,0 7,7 10,11 15,22 26,46 33,73 2,11 3,24 6,35 14,2 28,3 42,5 147,23 225,104 231,106 24,-20 24,-21 56,-41 40,-25 90,-46 137,-58 13,-3 26,-6 40,-8 10,-2 37,-4 43,-6 2,-9 4,-24 6,-34 3,-11 7,-22 10,-32 9,-21 18,-36 30,-52 -5,-5 -19,-13 -26,-17 -30,-16 -62,-25 -97,-31 -9,-2 -36,-10 -44,-14 0,25 -11,66 -18,89 -9,27 -21,52 -35,72 -14,18 -19,20 -25,28 -4,5 -9,9 -13,14l-63 70c-2,-1 -1,0 -3,-2l-23 -26c-17,-18 -49,-56 -64,-70 -19,-19 -37,-60 -46,-87 -7,-20 -19,-66 -19,-89 -1,3 1,2 -3,3 -18,9 -85,16 -129,39 -7,3 -12,6 -19,10l-17 12z"/>
  <path fill="#FED32F" d="M459 80c-1,8 -13,32 -16,39 -6,11 -12,23 -20,34 -11,16 -23,31 -36,44 -4,4 -12,11 -16,12 -16,-10 -40,-41 -51,-57 -10,-15 -31,-54 -36,-73 36,19 91,26 134,15 7,-2 14,-4 21,-6l20 -8zm0 0l0 0zm-242 -58c0,23 12,69 19,89 9,27 27,68 46,87 15,14 47,52 64,70l23 26c2,2 1,1 3,2l63 -70c4,-5 9,-9 13,-14 6,-8 11,-10 25,-28 14,-20 26,-45 35,-72 7,-23 18,-64 18,-89 0,-3 -6,-3 -14,-6l-29 -10c-25,-11 -8,-8 -32,10 -10,7 -36,19 -48,23 -20,7 -39,6 -60,1 -12,-3 -16,-7 -25,-11l-24 -12 -14 -13c-7,-9 -5,-4 -18,1l-30 11c-4,1 -12,3 -15,5z"/>
  <path fill="#177300" d="M95 416c8,-9 19,-63 19,-80 2,-30 -5,-62 -20,-80 -5,-11 -22,-21 -37,-26 -17,-6 -36,-9 -55,-9 -4,8 -2,10 -1,19 1,8 -1,13 -1,21 11,5 18,7 31,16 22,17 22,19 34,44 4,8 10,41 11,51 1,5 1,10 2,14 3,18 4,5 12,20 2,4 3,8 5,10zm553 -159c-2,5 -6,10 -8,16 -3,6 -5,12 -7,19 -7,29 -4,59 3,88 2,8 8,32 13,37 4,-10 4,-12 12,-19 5,-5 3,-4 5,-11l3 -28c1,-15 11,-46 19,-58 7,-10 15,-17 25,-24 8,-5 15,-10 25,-14 6,-2 6,-2 5,-12 -1,-10 1,-18 1,-22 0,-4 -2,-5 -2,-9 -25,0 -59,6 -78,20 -14,11 -8,9 -16,17z"/>
  <path fill="#177300" d="M2 221c19,0 38,3 55,9 15,5 32,15 37,26 5,-7 4,-44 4,-51 -3,-11 -4,-24 -6,-35 -7,-27 -18,-51 -33,-73 -3,-4 -5,-11 -10,-11 -5,3 -7,6 -10,12 -7,14 -9,15 -15,31 -3,6 -5,12 -7,17 -3,10 -5,23 -7,29 0,0 0,0 0,0 -6,15 -7,21 -8,36l0 10zm645 -18c-1,10 -4,48 1,54 8,-8 2,-6 16,-17 19,-14 53,-20 78,-20 0,-34 -5,-29 -11,-58 -4,-16 -25,-73 -38,-77 -12,16 -21,31 -30,52 -3,10 -7,21 -10,32 -2,10 -4,25 -6,34z"/>
 </g>
</svg>
