<?xml version="1.0" encoding="UTF-8"?>
<!DOCTYPE svg PUBLIC "-//W3C//DTD SVG 1.1//EN" "http://www.w3.org/Graphics/SVG/1.1/DTD/svg11.dtd">
<!-- Creator: CorelDRAW X7 -->
<svg xmlns="http://www.w3.org/2000/svg" xml:space="preserve" width="3.81846in" height="9.08002in" version="1.1" shape-rendering="geometricPrecision" text-rendering="geometricPrecision" image-rendering="optimizeQuality" fill-rule="evenodd" clip-rule="evenodd"
viewBox="0 0 339 805"
 xmlns:xlink="http://www.w3.org/1999/xlink">
 <g id="Layer_x0020_1">
  <metadata id="CorelCorpID_0Corel-Layer"/>
  <g id="_1960201472976">
   <path fill="#0424FC" fill-rule="nonzero" d="M276 5c-4,-3 -9,-6 -14,-5 -1,5 -2,10 -2,14l-1 1c-19,-7 -39,-9 -59,-9 -27,-1 -54,2 -79,12 -15,7 -29,15 -43,25 -6,5 -13,10 -20,14 -10,4 -22,3 -32,9 1,-2 1,-3 0,-4 -4,-2 -9,-2 -13,-3 -5,1 -10,4 -12,9 -2,4 -2,10 1,14 1,2 3,5 5,3 0,4 0,8 1,12 0,-4 0,-8 0,-12l-2 0c1,-3 0,-7 2,-9 0,0 2,-1 2,-1 9,-2 18,-1 27,-3 0,12 0,24 0,36 -7,3 -15,3 -22,3 -1,2 -1,3 -1,5 -2,-1 -4,-4 -4,-6 -1,0 -2,0 -2,-1l0 0c-2,-1 -3,2 -4,4 -2,7 -2,16 1,23 1,4 6,5 10,6 3,0 8,0 10,-3 0,1 0,3 0,5 -2,25 -7,49 -11,73 -3,16 -7,32 -7,48 0,19 3,39 12,55 2,3 6,7 5,11 -2,6 -6,11 -9,17 -3,7 -4,15 -5,23 -2,20 -1,40 -1,60 1,28 2,56 5,85 2,19 5,38 12,56 5,10 12,18 20,25 4,3 6,9 8,14 3,11 3,24 -1,35 -4,20 1,39 5,58 4,20 9,39 16,58 0,2 2,3 1,5 4,5 5,10 9,14 2,2 5,4 7,6 2,5 3,10 5,15 1,3 5,3 7,3 6,0 12,1 18,-2 20,-2 39,-6 58,-11 20,-6 40,-12 58,-22 4,-3 8,-5 11,-8 3,-4 0,-8 -1,-12 -1,-6 -2,-13 -2,-20 1,-16 0,-31 1,-47 1,-20 3,-40 6,-60 1,-6 2,-12 4,-17 2,-12 2,-24 5,-35 2,-11 2,-22 5,-33 6,-45 10,-89 11,-134 1,-19 2,-37 7,-55 0,-6 4,-10 7,-15 3,-6 5,-12 9,-18 4,-6 7,-13 11,-20 1,0 2,-1 2,-2 2,-1 1,-4 2,-6 5,-5 8,-12 12,-18 4,-6 6,-13 7,-21 4,-19 5,-38 4,-58 0,-17 -2,-35 -6,-52 -4,-15 -9,-29 -14,-43 -2,-5 -4,-11 -7,-16 -1,-4 -3,-7 -4,-11 -6,-13 -12,-26 -18,-40 -3,-8 -7,-17 -13,-24z"/>
   <path fill="#F0050F" fill-rule="nonzero" d="M37 72c-9,2 -18,1 -27,3 -2,3 -2,6 -2,10 0,4 0,8 0,12 -1,4 2,8 1,12 0,0 -1,0 -1,0 0,1 1,1 2,1 0,2 2,5 4,6 0,-2 0,-3 1,-5 7,0 15,0 22,-3 0,-12 0,-24 0,-36z"/>
  </g>
 </g>
</svg>
