<?xml version="1.0" encoding="UTF-8"?>
<!DOCTYPE svg PUBLIC "-//W3C//DTD SVG 1.1//EN" "http://www.w3.org/Graphics/SVG/1.1/DTD/svg11.dtd">
<!-- Creator: CorelDRAW X7 -->
<svg xmlns="http://www.w3.org/2000/svg" xml:space="preserve" width="6.35843in" height="9.07354in" version="1.1" shape-rendering="geometricPrecision" text-rendering="geometricPrecision" image-rendering="optimizeQuality" fill-rule="evenodd" clip-rule="evenodd"
viewBox="0 0 59095 84329"
 xmlns:xlink="http://www.w3.org/1999/xlink">
 <g id="Layer_x0020_1">
  <metadata id="CorelCorpID_0Corel-Layer"/>
  <path fill="#0024FF" fill-rule="nonzero" d="M25079 629c1224,-434 2526,-599 3820,-625 1718,-30 3457,110 5111,602 880,251 1659,755 2388,1295 434,398 1048,490 1612,534 385,34 735,-170 1115,-183 995,-69 1966,-299 2954,-418 2468,-336 4875,-1038 7354,-1287 677,-40 1399,-121 2040,150 330,137 381,520 466,824 437,1784 776,3592 1019,5412 145,904 267,1814 493,2701 264,818 362,1679 671,2485 197,501 193,1050 368,1558 76,245 90,505 145,756 250,660 269,1378 466,2054 371,1979 772,3953 1169,5927 459,2168 907,4349 1026,6568 80,1418 142,2845 -8,4261 -32,472 -319,883 -333,1359 -68,1147 156,2315 657,3350 381,953 646,1951 801,2966 408,1810 386,3675 637,5505 63,2439 54,4879 5,7319 10,453 -140,886 -178,1334 -107,1072 -437,2102 -660,3152 -206,530 -407,1063 -627,1586 -81,519 -71,1048 -83,1572 -4,2623 92,5248 329,7861 70,1037 395,2029 556,3052 173,1081 407,2160 416,3259 42,1354 -89,2710 35,4060 32,510 132,1077 -157,1536 -471,777 -1300,1220 -2075,1635 -1450,710 -3006,1284 -4631,1373 -143,77 -296,136 -460,133 -1016,48 -2034,40 -3050,5 -342,2 -655,-152 -988,-200 -973,-138 -1936,-376 -2846,-748 -539,-197 -662,-852 -716,-1353 -176,-695 -551,-1316 -815,-1977 -455,-1024 -811,-2087 -1265,-3111 -116,-288 -169,-598 -277,-888 -765,-1857 -1487,-3737 -2075,-5659 -270,-459 -411,-971 -544,-1482 -770,-2020 -1316,-4120 -2031,-6159 -235,-579 -341,-1201 -609,-1767 -490,-1463 -1224,-2830 -1763,-4275 -165,-388 -464,-714 -553,-1135 -53,-351 -275,-635 -402,-958 -198,-483 -373,-976 -579,-1456 -365,-800 -588,-1655 -898,-2478 -627,-1741 -1091,-3536 -1473,-5345 -156,-1022 -340,-2039 -592,-3041 -141,-939 -87,-1908 -339,-2832 -34,-135 -104,-245 -212,-332 -270,756 -328,1562 -338,2357 -129,1147 -440,2264 -620,3402 -138,988 -444,1941 -637,2918 -702,2399 -1521,4768 -2505,7066 -239,370 -272,822 -490,1202 -100,191 -209,377 -313,566 -625,1556 -1342,3076 -1923,4651 -640,1908 -1264,3824 -1861,5748 -241,872 -646,1688 -847,2573 -61,302 -261,546 -370,830 -493,1690 -1145,3329 -1800,4961 -328,681 -435,1441 -786,2112 -270,865 -698,1666 -1004,2519 -262,692 -680,1330 -832,2061 -49,505 -212,1146 -766,1308 -867,342 -1779,578 -2702,707 -347,36 -666,203 -1015,212 -1018,40 -2038,43 -3056,2 -229,5 -432,-120 -655,-150 -1559,-104 -3049,-663 -4444,-1338 -794,-422 -1650,-872 -2125,-1671 -262,-423 -190,-937 -158,-1408 189,-1948 -144,-3920 200,-5859 182,-1280 446,-2546 716,-3808 347,-2914 422,-5856 428,-8788 -43,-644 70,-1344 -280,-1921 -165,-525 -425,-1020 -531,-1563 -190,-899 -475,-1781 -551,-2702 -30,-419 -186,-819 -184,-1241 -54,-2515 -67,-5033 11,-7549 216,-1420 201,-2865 435,-4284 190,-1099 347,-2211 710,-3269 208,-758 644,-1434 786,-2212 212,-1026 313,-2172 -218,-3121 -149,-256 -94,-555 -90,-834 72,-1870 39,-3751 295,-5609 185,-1133 378,-2266 609,-3391 759,-3481 1328,-7007 2162,-10463 82,-780 454,-1487 588,-2255 88,-475 233,-936 361,-1401 195,-867 326,-1747 460,-2627 242,-1792 579,-3572 1009,-5329 83,-317 155,-717 515,-833 782,-279 1635,-150 2443,-78 2187,275 4322,851 6501,1181 1201,154 2389,402 3597,511 742,192 1574,157 2254,-213 711,-720 1670,-1110 2607,-1445zm-6427 7284c-74,1086 -79,2175 -70,3263 917,61 1835,103 2752,156 -14,44 -42,134 -55,179 -488,695 -503,1575 -564,2390 -110,2146 -99,4297 -236,6442 -40,444 -98,894 -13,1336 100,563 -27,1130 22,1695 -3,120 54,201 170,243 240,-580 200,-1228 420,-1813 143,-390 259,-793 314,-1207 352,-2490 149,-5017 402,-7514 31,-576 311,-1081 515,-1607 -118,-23 -353,-71 -470,-93 1023,11 2042,101 3064,145 399,52 820,6 1196,165 -284,95 -621,216 -741,520 -41,309 367,409 596,317 492,-148 1005,-323 1390,-676 63,-52 112,-116 148,-193 706,26 1411,80 2119,81 10,-188 31,-376 30,-564 232,298 635,389 947,582 3,72 7,216 9,287 305,-26 614,-32 917,-75 63,60 188,180 250,240 177,-7 243,-181 301,-317 417,-471 715,-1058 765,-1691 82,-779 -228,-1571 -787,-2113 -409,8 -825,4 -1223,109 -227,64 -263,340 -282,538 -26,750 11,1501 32,2251 -205,-306 -623,-389 -929,-570 7,-872 15,-1743 -3,-2615 -1333,-18 -2664,-103 -3998,-93 -2258,105 -4512,-153 -6768,-180 -224,-34 -195,240 -220,382zm13922 6c494,657 862,1444 792,2286 16,647 -346,1199 -521,1798 -222,113 -389,316 -455,557 365,144 797,-231 707,-609 1193,-45 2390,40 3575,197 164,18 321,74 477,134 15,66 48,201 64,268 332,2280 134,4595 308,6887 80,851 64,1762 523,2516 276,484 123,1218 625,1552 7,-1589 -128,-3178 -241,-4763 -108,-1990 12,-3994 -249,-5974 -3,-207 -145,-359 -334,-422 1654,261 3256,762 4836,1306 392,-560 608,-1218 873,-1844 229,-633 519,-1257 597,-1932 -1061,-372 -2144,-670 -3223,-981 -611,-203 -226,-1119 -628,-1460 -2554,396 -5149,367 -7726,484zm-4715 5591c-25,321 128,607 261,886 -815,383 -1668,685 -2462,1114 -248,102 -332,483 -129,664 305,56 602,-74 887,-167 882,-335 1742,-722 2610,-1094 116,-41 240,-122 366,-61 896,292 1799,574 2650,986 253,113 512,267 799,252 262,-25 427,-397 189,-568 -681,-570 -1565,-819 -2382,-1130 -35,-289 -54,-579 -71,-868 -413,152 -825,306 -1236,462 -495,-155 -981,-338 -1482,-476zm3 4183c-32,331 59,651 222,936 -700,303 -1413,576 -2098,909 -206,116 -459,225 -547,464 6,195 107,417 315,463 242,-9 439,-174 656,-264 934,-420 1904,-755 2854,-1134 1059,390 2134,741 3156,1225 230,112 543,33 665,-200 99,-224 -99,-421 -277,-522 -690,-415 -1466,-649 -2218,-924 0,-304 0,-607 -4,-910 -336,143 -661,315 -1007,435 -581,-119 -1119,-414 -1717,-478zm-20 3885c4,377 -45,815 287,1076 -791,302 -1605,554 -2360,941 -168,106 -417,216 -409,450 122,267 441,414 723,318 1123,-317 2123,-995 3260,-1264 1088,285 2141,699 3167,1158 188,67 453,70 577,-116 135,-285 -142,-530 -355,-671 -630,-401 -1352,-617 -2043,-883 0,-303 0,-607 -2,-911 -444,152 -888,302 -1332,454 -505,-184 -1007,-374 -1513,-552zm5 3662c0,398 0,797 -1,1196 -732,263 -1505,459 -2158,893 -151,108 -379,296 -256,502 193,259 543,203 790,64 964,-481 1987,-842 3019,-1148 1080,290 2136,679 3161,1127 249,124 624,61 740,-214 13,-220 -211,-333 -363,-442 -672,-394 -1421,-624 -2134,-927 -8,-325 85,-659 19,-980 -384,194 -797,321 -1195,478 -540,-184 -1082,-365 -1622,-549zm48 4218c-75,340 -85,753 241,966 -800,354 -1644,606 -2422,1006 -202,94 -459,330 -254,554 126,277 461,173 686,103 1081,-366 2136,-809 3207,-1206 956,367 1901,766 2873,1094 272,71 658,233 849,-72 169,-218 -103,-424 -271,-528 -684,-403 -1442,-656 -2169,-964 -32,-316 -63,-632 -93,-947 -364,154 -730,307 -1094,463 -519,-152 -1037,-310 -1553,-469z"/>
  <path fill="red" fill-rule="nonzero" d="M18652 7913c25,-142 -4,-416 220,-382 2256,27 4510,285 6768,180 1334,-10 2665,75 3998,93 18,872 10,1743 3,2615 -4,252 -4,505 0,759 1,188 -20,376 -30,564 -708,-1 -1413,-55 -2119,-81 -36,77 -85,141 -148,193 -24,-45 -72,-135 -97,-181 -380,-69 -768,-29 -1148,20 -376,-159 -797,-113 -1196,-165 -1022,-44 -2041,-134 -3064,-145 -195,-1 -410,-19 -560,128 13,-45 41,-135 55,-179 -917,-53 -1835,-95 -2752,-156 -9,-1088 -4,-2177 70,-3263zm13922 6c2577,-117 5172,-88 7726,-484 402,341 17,1257 628,1460 1079,311 2162,609 3223,981 -78,675 -368,1299 -597,1932 -265,626 -481,1284 -873,1844 -1580,-544 -3182,-1045 -4836,-1306 -229,-46 -459,-94 -687,-141 14,86 41,259 55,345 -16,-67 -49,-202 -64,-268 -156,-60 -313,-116 -477,-134 -1185,-157 -2382,-242 -3575,-197 -63,12 -189,39 -252,52 175,-599 537,-1151 521,-1798 70,-842 -298,-1629 -792,-2286zm-1754 281c398,-105 814,-101 1223,-109 559,542 869,1334 787,2113 -50,633 -348,1220 -765,1691 -185,21 -368,47 -551,77 -303,43 -612,49 -917,75 -2,-71 -6,-215 -9,-287 -4,-258 -3,-514 -18,-771 -21,-750 -58,-1501 -32,-2251 19,-198 55,-474 282,-538z"/>
  <path fill="#FEDA01" fill-rule="nonzero" d="M29641 10419c306,181 724,264 929,570 15,257 14,513 18,771 -312,-193 -715,-284 -947,-582 -4,-254 -4,-507 0,-759zm-8362 1092c150,-147 365,-129 560,-128 117,22 352,70 470,93 -204,526 -484,1031 -515,1607 -253,2497 -50,5024 -402,7514 -55,414 -171,817 -314,1207 -220,585 -180,1233 -420,1813 -116,-42 -173,-123 -170,-243 -49,-565 78,-1132 -22,-1695 -85,-442 -27,-892 13,-1336 137,-2145 126,-4296 236,-6442 61,-815 76,-1695 564,-2390zm4820 182c380,-49 768,-89 1148,-20 25,46 73,136 97,181 -385,353 -898,528 -1390,676 -229,92 -637,-8 -596,-317 120,-304 457,-425 741,-520zm5415 279c183,-30 366,-56 551,-77 -58,136 -124,310 -301,317 -62,-60 -187,-180 -250,-240zm876 588c66,-241 233,-444 455,-557 63,-13 189,-40 252,-52 90,378 -342,753 -707,609zm4768 -355c228,47 458,95 687,141 189,63 331,215 334,422 261,1980 141,3984 249,5974 113,1585 248,3174 241,4763 -502,-334 -349,-1068 -625,-1552 -459,-754 -443,-1665 -523,-2516 -174,-2292 24,-4607 -308,-6887 -14,-86 -41,-259 -55,-345zm-9299 1305c501,138 987,321 1482,476 411,-156 823,-310 1236,-462 17,289 36,579 71,868 817,311 1701,560 2382,1130 238,171 73,543 -189,568 -287,15 -546,-139 -799,-252 -851,-412 -1754,-694 -2650,-986 -126,-61 -250,20 -366,61 -868,372 -1728,759 -2610,1094 -285,93 -582,223 -887,167 -203,-181 -119,-562 129,-664 794,-429 1647,-731 2462,-1114 -133,-279 -286,-565 -261,-886zm3 4183c598,64 1136,359 1717,478 346,-120 671,-292 1007,-435 4,303 4,606 4,910 752,275 1528,509 2218,924 178,101 376,298 277,522 -122,233 -435,312 -665,200 -1022,-484 -2097,-835 -3156,-1225 -950,379 -1920,714 -2854,1134 -217,90 -414,255 -656,264 -208,-46 -309,-268 -315,-463 88,-239 341,-348 547,-464 685,-333 1398,-606 2098,-909 -163,-285 -254,-605 -222,-936zm-20 3885c506,178 1008,368 1513,552 444,-152 888,-302 1332,-454 2,304 2,608 2,911 691,266 1413,482 2043,883 213,141 490,386 355,671 -124,186 -389,183 -577,116 -1026,-459 -2079,-873 -3167,-1158 -1137,269 -2137,947 -3260,1264 -282,96 -601,-51 -723,-318 -8,-234 241,-344 409,-450 755,-387 1569,-639 2360,-941 -332,-261 -283,-699 -287,-1076zm5 3662c540,184 1082,365 1622,549 398,-157 811,-284 1195,-478 66,321 -27,655 -19,980 713,303 1462,533 2134,927 152,109 376,222 363,442 -116,275 -491,338 -740,214 -1025,-448 -2081,-837 -3161,-1127 -1032,306 -2055,667 -3019,1148 -247,139 -597,195 -790,-64 -123,-206 105,-394 256,-502 653,-434 1426,-630 2158,-893 1,-399 1,-798 1,-1196zm48 4218c516,159 1034,317 1553,469 364,-156 730,-309 1094,-463 30,315 61,631 93,947 727,308 1485,561 2169,964 168,104 440,310 271,528 -191,305 -577,143 -849,72 -972,-328 -1917,-727 -2873,-1094 -1071,397 -2126,840 -3207,1206 -225,70 -560,174 -686,-103 -205,-224 52,-460 254,-554 778,-400 1622,-652 2422,-1006 -326,-213 -316,-626 -241,-966z"/>
 </g>
</svg>
