<?xml version="1.0" encoding="UTF-8"?>
<!DOCTYPE svg PUBLIC "-//W3C//DTD SVG 1.1//EN" "http://www.w3.org/Graphics/SVG/1.1/DTD/svg11.dtd">
<!-- Creator: CorelDRAW X7 -->
<svg xmlns="http://www.w3.org/2000/svg" xml:space="preserve" width="7.69548in" height="10.13in" version="1.1" shape-rendering="geometricPrecision" text-rendering="geometricPrecision" image-rendering="optimizeQuality" fill-rule="evenodd" clip-rule="evenodd"
viewBox="0 0 7695 10130"
 xmlns:xlink="http://www.w3.org/1999/xlink">
 <g id="Layer_x0020_1">
  <metadata id="CorelCorpID_0Corel-Layer"/>
  <path fill="#37C9DA" d="M1009 2120c3,70 18,460 -33,530 155,189 224,519 208,827 -9,174 -114,732 -199,827 0,84 28,83 23,267 -6,199 -86,448 -43,828 19,173 23,357 47,533 24,180 39,337 67,512 47,295 182,1503 190,1842 2,78 18,196 22,273 11,190 11,370 11,569 0,185 -17,406 -2,559 7,68 -12,110 86,198 29,26 67,30 127,45 122,30 319,36 371,47 27,5 47,14 59,15 10,2 10,1 20,0 58,-4 156,43 326,38l471 46c8,0 10,-1 24,0 8,0 27,1 37,2 64,3 311,40 362,35 137,-12 512,19 687,17l412 -14c107,-9 173,5 304,-8 27,-3 30,-3 60,-8l455 -37c28,-6 42,-10 57,-10 101,-2 145,-12 217,-23 53,-8 115,14 223,-16 29,-8 35,-6 66,-12 14,-3 44,-12 46,-12 58,-3 -50,-5 17,3 56,6 42,-20 137,-21 16,0 21,1 50,-2l209 -32c90,-23 190,-7 244,-128l28 -125c4,-82 7,-202 -5,-280 -22,-146 12,-809 26,-988l76 -942c37,-358 67,-707 123,-1045 47,-279 57,-527 92,-771 24,-163 34,-671 11,-833 -28,-208 -56,-314 -6,-517 -50,-48 -114,-290 -136,-379 -74,-295 -98,-610 -25,-909 17,-70 39,-136 65,-197 28,-63 63,-114 86,-170 -50,-62 -19,-453 -11,-555 -64,27 -342,47 -443,63 -141,23 -281,51 -416,85 -489,122 -1002,336 -1416,596 -326,204 -324,215 -577,425 -60,-22 -871,-855 -2390,-1097 -149,-23 -292,-31 -440,-51z"/>
  <path fill="#37C9DA" d="M504 885c50,10 79,74 106,115 156,232 268,480 337,757 29,118 35,248 62,363 148,20 291,28 440,51 1519,242 2330,1075 2390,1097 253,-210 251,-221 577,-425 414,-260 927,-474 1416,-596 135,-34 275,-62 416,-85 101,-16 379,-36 443,-63 27,-93 42,-247 69,-355 27,-113 65,-223 104,-322 87,-218 185,-375 301,-546 -47,-45 -193,-134 -260,-171 -313,-170 -647,-257 -1006,-327 -96,-18 -379,-96 -455,-136 -3,252 -120,683 -192,912 -88,280 -213,541 -359,745 -139,193 -195,211 -262,295 -42,52 -85,96 -127,147l-655 725c-23,-12 -7,0 -28,-20l-240 -274c-182,-189 -504,-579 -660,-727 -199,-189 -389,-613 -481,-896 -69,-211 -193,-685 -191,-917 -18,27 1,11 -33,28 -187,93 -880,167 -1340,398 -70,35 -121,65 -189,106l-183 121z"/>
  <path fill="#201E1E" d="M4745 833c-6,75 -130,325 -164,393 -62,123 -127,240 -203,354 -111,165 -238,324 -379,463 -34,34 -119,113 -161,123 -164,-110 -414,-424 -525,-590 -104,-157 -328,-567 -371,-754 366,193 938,262 1385,151 74,-19 143,-40 212,-62l206 -78zm0 0l0 0zm-2496 -601c-2,232 122,706 191,917 92,283 282,707 481,896 156,148 478,538 660,727l240 274c21,20 5,8 28,20l655 -725c42,-51 85,-95 127,-147 67,-84 123,-102 262,-295 146,-204 271,-465 359,-745 72,-229 189,-660 192,-912 0,-34 -66,-38 -143,-64l-305 -110c-259,-114 -83,-76 -332,104 -98,71 -370,202 -491,241 -208,68 -409,63 -624,9 -121,-31 -161,-68 -262,-109l-242 -130 -144 -130c-79,-96 -59,-43 -192,12l-305 110c-48,13 -127,28 -155,57z"/>
  <path fill="#201E1E" d="M985 4304c85,-95 190,-653 199,-827 16,-308 -53,-638 -208,-827 -59,-119 -226,-220 -386,-274 -173,-59 -368,-89 -566,-92 -40,84 -20,108 -12,200 7,77 -10,133 -10,217 110,53 186,68 315,166 227,172 230,191 355,453 41,86 107,420 116,529 4,51 12,104 19,145 36,190 38,56 123,205 24,41 34,87 55,105zm5717 -1650c-23,56 -58,107 -86,170 -26,61 -48,127 -65,197 -73,299 -49,614 25,909 22,89 86,331 136,379 46,-101 43,-119 123,-195 51,-48 36,-38 51,-113l34 -282c13,-156 113,-477 202,-607 73,-105 146,-170 250,-242 85,-60 162,-107 259,-146 64,-25 68,-20 55,-122 -12,-105 11,-191 9,-228 -1,-43 -17,-52 -21,-96 -257,0 -604,55 -806,208 -143,107 -86,86 -166,168z"/>
  <path fill="#37C9DA" d="M24 2284c198,3 393,33 566,92 160,54 327,155 386,274 51,-70 36,-460 33,-530 -27,-115 -33,-245 -62,-363 -69,-277 -181,-525 -337,-757 -27,-41 -56,-105 -106,-115 -48,39 -72,70 -102,130 -72,144 -89,154 -157,323 -23,58 -48,121 -67,174 -38,106 -57,240 -76,295 -1,3 -2,5 -3,8 -57,153 -70,215 -78,369l3 100zm6667 -185c-8,102 -39,493 11,555 80,-82 23,-61 166,-168 202,-153 549,-208 806,-208 0,-351 -48,-300 -114,-599 -37,-170 -255,-761 -395,-803 -116,171 -214,328 -301,546 -39,99 -77,209 -104,322 -27,108 -42,262 -69,355z"/>
  <path fill="#A9ABAE" d="M7435 1309l-698 550c-15,86 -28,177 -46,240 -8,102 -39,493 11,555 80,-82 23,-61 166,-168 95,-72 221,-122 355,-155l428 -337c-21,-85 -53,-141 -91,-315 -16,-72 -64,-221 -125,-370zm-7177 -2l710 560c14,85 23,173 41,253 3,70 18,460 -33,530 -59,-119 -226,-220 -386,-274 -33,-11 -66,-21 -100,-30l-447 -353c11,-52 28,-104 56,-178 1,-3 2,-5 3,-8 19,-55 38,-189 76,-295 19,-53 44,-116 67,-174 5,-11 9,-21 13,-31z"/>
  <path fill="black" d="M7522 1547l-839 662c-6,89 -11,207 -8,300l912 -719c-8,-31 -18,-68 -27,-111 -7,-32 -20,-78 -38,-132zm-7354 -4l844 666c2,81 3,197 -4,291l-901 -710c16,-56 33,-157 61,-247z"/>
 </g>
</svg>
