<?xml version="1.0" encoding="UTF-8"?>
<!DOCTYPE svg PUBLIC "-//W3C//DTD SVG 1.1//EN" "http://www.w3.org/Graphics/SVG/1.1/DTD/svg11.dtd">
<!-- Creator: CorelDRAW X7 -->
<svg xmlns="http://www.w3.org/2000/svg" xml:space="preserve" width="8.97012in" height="10.042in" version="1.1" shape-rendering="geometricPrecision" text-rendering="geometricPrecision" image-rendering="optimizeQuality" fill-rule="evenodd" clip-rule="evenodd"
viewBox="0 0 1600 1791"
 xmlns:xlink="http://www.w3.org/1999/xlink">
 <g id="Layer_x0020_1">
  <metadata id="CorelCorpID_0Corel-Layer"/>
  <g id="_1976829518928">
   <path id="Body" fill="#FFB400" fill-rule="nonzero" d="M1164 1752c-32,3 -64,7 -96,10 -141,16 -282,15 -423,9 -47,-3 -93,-8 -140,-12 -23,-2 -47,-4 -70,-7l-1 -56c9,-64 18,-128 26,-193 7,-44 13,-89 19,-133 -4,-19 0,-34 5,-48 -1,-9 -1,-18 -1,-28 -4,-33 -3,-40 3,-73 0,-10 -1,-21 -1,-31 0,-10 0,-21 0,-32 -5,-11 -8,-23 -8,-37 1,-9 2,-18 2,-27 2,-9 -1,-19 -8,-33 -3,-13 -7,-25 -10,-37 -23,-65 -45,-131 -67,-196l-80 -169 0 -1c-8,-23 -16,-46 -25,-69 -10,-52 -9,-115 2,-190 10,-64 41,-117 86,-162 31,-32 70,-56 111,-87 47,-38 103,-66 142,-116 8,1 17,2 25,3 108,12 214,11 319,0 17,26 55,51 92,77 39,26 84,55 120,83 85,67 134,149 131,256 -4,50 -8,100 -12,150 -6,19 -12,38 -18,57l-8 26c-40,78 -72,159 -99,241 -13,38 -25,77 -38,115 -2,8 -4,16 -6,24 -6,22 -3,31 -7,51 0,4 -1,8 -2,11 -7,24 -6,28 -7,53 -2,17 -5,28 -2,45 1,2 1,5 2,7 7,29 2,57 1,87 2,7 4,15 5,23 1,6 2,12 2,18 0,7 -7,16 -6,35 11,63 24,126 28,189l14 167z"/>
   <path id="Sides" fill="#0080C5" fill-rule="nonzero" d="M1269 721c-1,3 -2,7 -3,10l0 0c-1,4 -2,8 -3,11 -12,45 -29,88 -41,132 -8,25 -14,49 -21,74 -10,33 -16,68 -25,102 -4,13 5,25 1,37 -1,7 -6,12 -8,19 1,9 6,18 5,27 1,15 -11,30 -4,44 7,13 5,28 2,42 1,11 8,20 8,31 1,9 -2,18 -2,27 3,16 11,30 10,46 0,16 -1,33 3,48 21,88 41,176 51,265 2,13 2,27 8,40 -2,14 3,28 4,42 -1,7 -8,13 -15,16 -21,10 -45,13 -68,17 -2,0 -4,0 -7,1l-14 -167c-4,-63 -17,-126 -28,-189 -1,-19 6,-28 6,-35 0,-6 -1,-12 -2,-18 -1,-8 -3,-16 -5,-23 1,-30 6,-58 -1,-87 -1,-2 -1,-5 -2,-7 -3,-17 0,-28 2,-45 1,-25 0,-29 7,-53 1,-3 2,-7 2,-11 4,-20 1,-29 7,-51 2,-8 4,-16 6,-24 13,-38 25,-77 38,-115 27,-82 59,-163 99,-241l-10 35zm-834 1031c-17,-2 -33,-5 -49,-8 -11,-4 -22,-7 -32,-13 -6,-3 -12,-9 -10,-16 2,-12 5,-25 3,-37 -1,-5 2,-9 4,-12 11,-99 31,-197 56,-294 4,-13 3,-27 1,-41 -1,-15 10,-28 11,-43 2,-9 -4,-18 -1,-28 2,-6 2,-13 3,-20 0,-9 8,-17 4,-26 -3,-11 -1,-22 2,-33 3,-17 -4,-34 -1,-51 2,-6 4,-13 4,-20 -2,-7 -8,-13 -7,-21 -2,-13 5,-26 2,-39 -3,-10 -5,-21 -7,-31 -6,-33 -16,-65 -27,-96 -9,-31 -19,-62 -28,-92 -12,-33 -22,-67 -30,-101 -1,-3 -2,-6 -3,-9l0 0 -16 -62 80 169c22,65 44,131 67,196 3,12 7,24 10,37 7,14 10,24 8,33 0,9 -1,18 -2,27 0,14 3,26 8,37 0,11 0,22 0,32 0,10 1,21 1,31 -6,33 -7,40 -3,73 0,10 0,19 1,28 -5,14 -9,29 -5,48 -6,44 -12,89 -19,133 -8,65 -17,129 -26,193l1 56z"/>
   <path id="Sleeves" fill="#00AFEF" fill-rule="nonzero" d="M330 721c-1,-1 -1,-2 -2,-3 -2,12 -2,24 -4,36 -5,33 -14,66 -22,99 -16,58 -26,117 -38,176 -6,30 -13,61 -12,92 1,58 3,117 -3,175 -4,49 -17,96 -27,144 -10,47 -17,95 -22,144 -4,35 -7,71 -6,106 0,9 -1,18 2,27 3,7 0,14 2,21 1,9 4,18 2,26 -5,8 -14,12 -23,16 -33,11 -69,14 -104,8 -8,-2 -19,-3 -24,-11 -1,-11 1,-22 -1,-32 -3,-10 1,-20 -1,-30 -3,-49 -9,-97 -15,-146 -5,-49 -11,-98 -18,-146 -10,-81 -18,-162 -12,-244 3,-38 2,-77 8,-115 4,-25 11,-49 15,-73 6,-34 9,-69 10,-104 3,-37 0,-74 3,-110 1,-27 5,-53 9,-79 5,-25 10,-50 14,-76 4,-31 6,-64 4,-96 -2,-33 -5,-66 -1,-99 7,-69 32,-138 81,-188 23,-25 53,-42 85,-52 23,-7 45,-13 67,-21 2,-1 4,-2 6,-2 3,-2 7,-3 10,-4 9,-4 18,-8 27,-12 15,-7 31,-15 46,-22 50,-25 100,-49 147,-79 3,-7 11,-12 18,-14 1,0 2,-1 3,-1l0 0c24,-2 50,-1 76,2 -39,50 -95,78 -142,116 -41,31 -80,55 -111,87 -45,45 -76,98 -86,162 -11,75 -12,138 -2,190 9,23 17,46 25,69 5,21 11,42 16,63l0 0zm717 -689c6,2 11,5 15,9 1,2 1,4 1,5l2 -1 0 2c11,5 20,12 30,18 5,3 10,6 15,9l1 1c0,0 2,0 3,0 10,7 21,11 31,17 12,7 24,12 35,18 1,0 3,0 3,0l1 3c1,0 3,-1 3,-1l1 3c1,0 3,-1 4,-1l0 3c1,0 3,-1 4,-1l0 3c1,0 3,-1 4,-1l0 3c1,0 3,-1 4,-1l1 3c1,0 2,0 3,-1l1 3c0,0 2,0 3,0 14,9 28,15 43,22 10,4 20,8 29,13 37,15 76,22 112,39l0 2c1,-1 3,-1 4,-1l0 3c1,-1 3,-1 4,-1l1 2c0,0 2,0 3,0 8,5 15,10 22,16 16,11 29,25 41,40 17,23 31,48 41,75 21,58 27,120 22,181 0,23 -4,46 -1,69 1,41 12,81 19,121 6,28 7,58 9,87 0,28 2,56 2,84 0,50 5,99 15,148 7,28 13,56 13,85 1,33 4,66 6,98 1,8 -2,16 3,23l0 36c-2,3 -3,5 -3,8 -3,77 -16,154 -26,231 -9,67 -16,134 -23,201 -1,8 -2,17 0,25 1,4 0,9 -1,13 -1,10 0,21 -1,31 -1,5 -6,7 -10,8 -19,5 -38,7 -57,6 -25,-1 -51,-4 -73,-17 -4,-3 -10,-6 -10,-12 -1,-12 4,-25 3,-37 6,-25 3,-51 3,-76 -4,-72 -14,-144 -28,-215 -8,-40 -19,-80 -24,-120 -6,-50 -7,-100 -5,-151 0,-29 2,-58 -3,-87 -6,-35 -13,-69 -19,-103 -9,-42 -18,-83 -28,-124 -9,-34 -18,-69 -22,-104 -1,-8 0,-17 -3,-25 0,1 -1,1 -1,2l18 -61c6,-19 12,-38 18,-57 4,-50 8,-100 12,-150 3,-107 -46,-189 -131,-256 -36,-28 -81,-57 -120,-83 -37,-26 -75,-51 -92,-77 24,-2 47,-7 73,-5z"/>
   <path id="Neck" fill="#0080C5" fill-rule="nonzero" d="M571 15c6,-9 16,-12 26,-13 26,-4 52,0 79,2 94,6 188,7 281,-3 20,-1 41,-3 60,6 9,5 14,14 21,21 3,2 6,3 9,4 -26,-2 -49,3 -73,5 -105,11 -211,12 -319,0 -34,-4 -69,-8 -101,-5l0 0c7,-3 11,-11 17,-17z"/>
  </g>
 </g>
</svg>
