<?xml version="1.0" encoding="UTF-8"?>
<!DOCTYPE svg PUBLIC "-//W3C//DTD SVG 1.1//EN" "http://www.w3.org/Graphics/SVG/1.1/DTD/svg11.dtd">
<!-- Creator: CorelDRAW X7 -->
<svg xmlns="http://www.w3.org/2000/svg" xml:space="preserve" width="4.49953in" height="10.13in" version="1.1" shape-rendering="geometricPrecision" text-rendering="geometricPrecision" image-rendering="optimizeQuality" fill-rule="evenodd" clip-rule="evenodd"
viewBox="0 0 322 726"
 xmlns:xlink="http://www.w3.org/1999/xlink">
 <g id="Layer_x0020_1">
  <metadata id="CorelCorpID_0Corel-Layer"/>
  <g id="_2474613878416">
   <path fill="#55FF00" d="M44 132c-1,0 -3,4 -3,6l-4 8c0,1 0,2 -1,2l-5 13c0,1 -1,2 -1,3l-7 18c-2,6 -5,14 -7,21 -1,1 -1,3 -2,5l-1 5c-3,10 -7,24 -9,34 0,2 0,5 -1,7 0,3 -1,8 -1,12 -2,9 -2,18 -2,27l0 7c0,2 0,4 0,7l0 0c0,6 2,21 3,25 0,2 0,4 1,6 0,2 0,4 1,6 1,8 2,21 7,28 1,2 1,1 1,3 0,2 -1,3 -1,4 0,2 0,4 1,7l0 6c1,4 1,8 3,12 1,2 1,2 1,6 0,9 0,18 0,28 0,9 0,19 0,28 0,1 0,2 0,3l0 7c0,2 0,2 0,4 0,1 0,2 0,3l0 7c1,1 0,2 1,3 0,5 0,9 0,14l1 13c0,2 0,5 0,7 0,1 1,2 1,3l1 16c0,5 1,9 1,13l1 7c0,4 0,9 1,13l2 25c1,3 1,5 1,7 1,4 1,8 1,13l2 12c1,9 1,17 3,26 1,9 1,18 1,27 0,5 0,9 1,13 1,5 3,6 8,6l7 1c2,0 4,0 7,0 1,0 2,0 3,0l7 0c1,0 2,0 3,0 5,0 9,0 14,0 1,0 2,1 3,1 2,0 3,0 4,0 1,-1 2,0 3,0l21 0c1,0 2,0 3,0 2,0 6,0 7,0l28 1 20 2c1,0 2,0 3,0l10 1c10,1 21,2 31,4 2,0 4,0 6,1 8,1 17,2 24,4 4,0 13,3 15,3l4 0 0 0c0,-1 0,-2 0,-3 0,-1 0,-1 0,-2 0,-2 0,-4 0,-5 -1,-5 -1,-11 -1,-15 0,-1 0,-3 0,-5l-1 -14c0,-2 0,-4 0,-5 0,-2 -1,-3 -1,-5l-1 -8c-1,-5 -2,-9 -2,-14 -1,-5 -2,-9 -2,-14l-1 -9c0,-1 0,-4 0,-5l0 -7c0,-1 0,-2 -1,-3 0,-1 0,-3 0,-4 0,-1 0,-2 0,-3 0,-1 0,-1 0,-2 0,-4 0,-7 0,-11 0,-1 -1,-2 0,-4 0,-2 0,-4 0,-5 0,-3 -1,-5 -1,-8 0,-1 0,-1 1,-2 0,-5 0,-20 1,-24 0,-2 0,-3 0,-5 1,-1 1,-3 1,-5 0,-4 2,-30 3,-33l6 -34c2,-6 2,-12 4,-18 1,-8 3,-17 5,-25l2 -8c2,-10 5,-19 8,-28l5 -15c1,-2 1,-3 1,-4 1,-3 2,-5 3,-8l1 -6c2,-6 4,-12 6,-18 0,-2 0,-3 1,-4 0,-2 0,-3 1,-5 0,-4 2,-11 4,-16 5,-23 11,-57 12,-79 1,-4 1,-7 1,-10l1 -20c0,0 0,0 0,-1l0 -27c0,-1 0,-1 0,-2 0,-1 0,-2 0,-3 0,-2 0,-5 0,-7 0,-3 -1,-6 -1,-9 0,-2 0,-8 -1,-9 0,0 0,-1 0,-1 0,0 0,0 0,0 -2,0 -6,1 -8,2 -3,0 -6,0 -9,1 -6,1 -11,2 -17,2l0 0c-1,5 -1,9 -1,14 -1,4 -2,9 -3,13 -1,8 -4,16 -6,24 0,1 1,8 1,10 0,7 0,15 0,22l-2 10 0 0 0 1 0 0c0,2 -1,5 -2,6l0 1 0 0 0 0 0 1 0 0c0,1 -1,3 -1,4l0 0 0 0 -1 1 0 0 0 1c0,1 -1,3 -1,4l-1 0c0,1 -3,8 -4,9 -6,13 -18,25 -30,33 -28,20 -68,23 -102,13 -51,-16 -76,-57 -68,-107 1,-6 3,-17 5,-21 0,-2 0,-6 0,-8 0,-8 1,-17 1,-24 1,-11 2,-21 4,-31 -2,0 -13,0 -16,0 -3,0 -5,1 -8,1 -2,0 -5,1 -7,1z"/>
   <path fill="#55FF00" d="M81 106c1,2 -2,10 -3,12 0,2 -2,12 -3,12 -2,10 -3,20 -4,31 0,7 -1,16 -1,24 0,2 0,6 0,8 0,0 1,-2 2,-3 7,-13 26,-20 41,-23 21,-4 43,-3 65,-3 12,1 20,0 33,2 17,2 39,6 52,17 3,3 5,5 8,10 2,2 3,5 4,9 0,1 0,2 1,3 2,-8 5,-16 6,-24 1,-4 2,-9 3,-13 0,-5 0,-9 1,-14l0 0c0,-4 0,-8 0,-12 0,-4 0,-7 -1,-11 -3,-31 -18,-59 -45,-74 -23,-13 -52,-18 -80,-15 -26,3 -46,14 -62,33 -6,7 -14,22 -17,31z"/>
   <path fill="black" d="M81 106c0,1 0,3 -1,6l1 0 -1 0c-1,3 -1,5 -2,6 0,1 0,2 0,3l206 0c-2,-7 -4,-15 -7,-22l0 0 -1 2 0 -2 -2 -3 2 2 1 0c-1,-2 -2,-4 -3,-6l-1 1 -1 2 -1 -3 -1 -2 2 1 1 0c-1,-2 -2,-4 -4,-7l-2 1 -1 3 0 -3 -1 -2 2 1 2 0c-1,-2 -3,-4 -4,-6l-2 1 -1 2 0 -3 -2 -2 3 1 1 0c-1,-2 -3,-4 -5,-6l-1 1 -1 2 0 -3 -2 -2 2 1 1 0c-2,-1 -3,-3 -5,-4l0 1 0 -2c-4,-3 -8,-6 -13,-8l-1 1 -1 2 0 -3 -2 -2 2 1 1 0c-4,-2 -8,-4 -13,-6l-1 1 -1 2 0 -3 -1 -1c-4,-2 -9,-3 -13,-4l-1 1 0 -1c-2,-1 -5,-1 -7,-2l-1 1 -1 2 0 -3 0 0c-2,0 -4,-1 -6,-1l-2 2 -2 2 0 -3 -1 -1c-3,-1 -6,-1 -9,-1l2 2 3 -1 -2 2 -1 2 -1 -3 -1 -2c-3,0 -6,0 -9,0l2 2 3 -1 -3 2 -1 2 0 -3 -1 -2c-3,0 -6,1 -9,1l1 1 3 -1 -2 2 -1 2 -1 -3 0 -1c-1,0 -1,0 -2,0 -1,0 -2,0 -4,1l-2 1 -1 2 0 -3c-3,1 -6,1 -9,2l0 1 0 -1c-5,1 -9,3 -13,5l3 -1 -3 2 -1 2 0 -3 0 0c-4,2 -8,4 -11,6l0 0 -1 1c-1,0 -1,1 -2,1l-1 2 0 -1c-2,1 -3,2 -5,4l2 0 3 0 -3 2 -1 2 0 -3 -1 -1c-4,3 -8,8 -12,12 -4,5 -9,14 -13,22l2 1 4 0 -3 1 -1 2 0 -2 -2 -2c-1,2 -2,5 -3,7l1 1 3 0 -2 1 -2 3 0 -3 0 -1c0,0 -1,1 -1,1zm113 -64c-1,0 -3,0 -4,0l1 1 3 -1zm-4 70l0 3 2 -2 2 -1 -3 0 -2 -2 1 2zm10 0l0 3 1 -2 3 -1 -3 0 -3 -2 2 2zm9 0l0 3 1 -2 3 -1 -3 0 -2 -2 1 2zm10 0l0 3 1 -2 3 -1 -3 0 -3 -2 2 2zm9 0l0 3 1 -2 3 -1 -3 0 -2 -2 1 2zm10 0l0 3 1 -2 3 -1 -4 0 -2 -2 2 2zm9 0l0 3 1 -2 3 -1 -3 0 -2 -2 1 2zm10 0l0 3 1 -2 3 -1 -4 0 -2 -2 2 2zm9 0l0 3 1 -2 3 -1 -3 0 -2 -2 1 2zm10 0l0 3 1 -2 3 -1 -4 0 -2 -2 2 2zm-80 -6l0 3 1 -3 3 -1 -4 0 -2 -1 2 2zm9 0l0 3 1 -3 3 -1 -3 0 -3 -1 2 2zm10 0l0 3 1 -3 3 -1 -4 0 -2 -1 2 2zm9 0l0 3 1 -3 3 -1 -3 0 -3 -1 2 2zm10 0l0 3 1 -3 3 -1 -4 0 -2 -1 2 2zm9 0l0 3 1 -3 3 -1 -3 0 -3 -1 2 2zm9 0l1 3 1 -3 3 -1 -4 0 -2 -1 1 2zm10 0l0 3 1 -3 3 -1 -3 0 -3 -1 2 2zm9 0l1 3 1 -3 3 -1 -4 0 -2 -1 1 2zm-81 -7l0 2 2 -2 2 -1 -3 0 -2 -2 1 3zm10 0l0 2 1 -2 3 -1 -3 0 -3 -2 2 3zm9 0l0 2 1 -2 3 -1 -3 0 -2 -2 1 3zm10 0l0 2 1 -2 3 -1 -3 0 -3 -2 2 3zm9 0l0 2 1 -2 3 -1 -3 0 -2 -2 1 3zm10 0l0 2 1 -2 3 -1 -4 0 -2 -2 2 3zm9 0l0 2 1 -2 3 -1 -3 0 -2 -2 1 3zm10 0l0 2 1 -2 3 -1 -4 0 -2 -2 2 3zm9 0l0 2 1 -2 3 -1 -3 0 -2 -2 1 3zm-70 -7l0 3 1 -2 3 -2 -4 0 -2 -1 2 2zm9 0l0 3 1 -2 3 -2 -3 0 -3 -1 2 2zm10 0l0 3 1 -2 3 -2 -4 0 -2 -1 2 2zm9 0l0 3 1 -2 3 -2 -3 0 -3 -1 2 2zm10 0l0 3 1 -2 3 -2 -4 0 -2 -1 2 2zm9 0l0 3 1 -2 3 -2 -3 0 -3 -1 2 2zm9 0l1 3 1 -2 3 -2 -4 0 -2 -1 1 2zm10 0l0 3 1 -2 3 -2 -3 0 -3 -1 2 2zm-72 -7l0 3 2 -3 2 -1 -3 0 -2 -1 1 2zm10 0l0 3 1 -3 3 -1 -3 0 -3 -1 2 2zm9 0l0 3 1 -3 3 -1 -3 0 -2 -1 1 2zm10 0l0 3 1 -3 3 -1 -3 0 -3 -1 2 2zm9 0l0 3 1 -3 3 -1 -3 0 -2 -1 1 2zm10 0l0 3 1 -3 3 -1 -4 0 -2 -1 2 2zm9 0l0 3 1 -3 3 -1 -3 0 -2 -1 1 2zm10 0l0 3 1 -3 3 -1 -4 0 -2 -1 2 2zm-61 -7l0 3 1 -2 3 -2 -4 0 -2 -1 2 2zm9 0l0 3 1 -2 3 -2 -3 0 -3 -1 2 2zm10 0l0 3 1 -2 3 -2 -4 0 -2 -1 2 2zm9 0l0 3 1 -2 3 -2 -3 0 -3 -1 2 2zm10 0l0 3 1 -2 3 -2 -4 0 -2 -1 2 2zm9 0l0 3 1 -2 3 -2 -3 0 -3 -1 2 2zm9 0l1 3 1 -2 3 -2 -4 0 -2 -1 1 2zm-62 -7l0 3 2 -2 2 -2 -3 0 -2 -1 1 2zm10 0l0 3 1 -2 3 -2 -3 0 -3 -1 2 2zm9 0l0 3 1 -2 3 -2 -3 0 -2 -1 1 2zm10 0l0 3 1 -2 3 -2 -3 0 -3 -1 2 2zm9 0l0 3 1 -2 3 -2 -3 0 -2 -1 1 2zm10 0l0 3 1 -2 3 -2 -4 0 -2 -1 2 2zm9 0l0 3 1 -2 3 -2 -3 0 -2 -1 1 2zm-51 -7l0 3 1 -2 3 -2 -4 0 -2 -1 2 2zm9 0l0 3 1 -2 3 -2 -3 0 -3 -1 2 2zm10 0l0 3 1 -2 3 -2 -4 0 -2 -1 2 2zm9 0l0 3 1 -2 3 -2 -3 0 -3 -1 2 2zm10 0l0 3 1 -2 3 -2 -4 0 -2 -1 2 2zm9 0l0 3 1 -2 3 -2 -3 0 -3 -1 2 2zm-53 -7l0 3 2 -2 2 -2 -3 0 -2 -1 1 2zm10 0l0 3 1 -2 3 -2 -3 0 -3 -1 2 2zm9 0l0 3 1 -2 3 -2 -3 0 -2 -1 1 2zm10 0l0 3 1 -2 3 -2 -3 0 -3 -1 2 2zm9 0l0 3 1 -2 3 -2 -3 0 -2 -1 1 2zm-32 -7l0 3 1 -2 3 -2 -4 1 -2 -2 2 2zm9 0l0 3 1 -2 3 -2 -3 1 -3 -2 2 2zm10 0l0 3 1 -2 3 -2 -4 1 -2 -2 2 2zm-34 62l1 3 1 -2 2 -1 -3 0 -2 -2 1 2zm-94 0l0 3 1 -2 3 -1 -4 0 -2 -2 2 2zm9 0l0 3 1 -2 3 -1 -3 0 -3 -2 2 2zm9 0l1 3 1 -2 3 -1 -4 0 -2 -2 1 2zm10 0l0 3 1 -2 3 -1 -3 0 -3 -2 2 2zm9 0l1 3 1 -2 3 -1 -4 0 -2 -2 1 2zm10 0l0 3 1 -2 3 -1 -3 0 -3 -2 2 2zm9 0l1 3 1 -2 2 -1 -3 0 -2 -2 1 2zm10 0l0 3 1 -2 3 -1 -3 0 -3 -2 2 2zm9 0l1 3 1 -2 2 -1 -3 0 -2 -2 1 2zm10 0l0 3 1 -2 3 -1 -3 0 -3 -2 2 2zm15 -6l0 3 1 -3 3 -1 -4 0 -2 -1 2 2zm-95 0l0 3 1 -3 3 -1 -3 0 -3 -1 2 2zm9 0l0 3 2 -3 2 -1 -3 0 -2 -1 1 2zm10 0l0 3 1 -3 3 -1 -3 0 -3 -1 2 2zm9 0l0 3 2 -3 2 -1 -3 0 -2 -1 1 2zm10 0l0 3 1 -3 3 -1 -3 0 -3 -1 2 2zm9 0l0 3 1 -3 3 -1 -3 0 -2 -1 1 2zm10 0l0 3 1 -3 3 -1 -3 0 -3 -1 2 2zm9 0l0 3 1 -3 3 -1 -3 0 -2 -1 1 2zm10 0l0 3 1 -3 3 -1 -3 0 -3 -1 2 2zm9 0l0 3 1 -3 3 -1 -3 0 -2 -1 1 2zm4 -7l1 2 1 -2 2 -1 -3 0 -2 -2 1 3zm-85 0l0 2 1 -2 3 -1 -3 0 -3 -2 2 3zm9 0l1 2 1 -2 3 -1 -4 0 -2 -2 1 3zm10 0l0 2 1 -2 3 -1 -3 0 -3 -2 2 3zm9 0l1 2 1 -2 3 -1 -4 0 -2 -2 1 3zm10 0l0 2 1 -2 3 -1 -3 0 -3 -2 2 3zm9 0l1 2 1 -2 2 -1 -3 0 -2 -2 1 3zm10 0l0 2 1 -2 3 -1 -3 0 -3 -2 2 3zm9 0l1 2 1 -2 2 -1 -3 0 -2 -2 1 3zm10 0l0 2 1 -2 3 -1 -3 0 -3 -2 2 3zm15 -7l0 3 1 -2 3 -2 -4 0 -2 -1 2 2zm-95 0l0 3 1 -2 3 -2 -3 0 -3 -1 2 2zm9 0l0 3 2 -2 2 -2 -3 0 -2 -1 1 2zm10 0l0 3 1 -2 3 -2 -3 0 -3 -1 2 2zm9 0l0 3 2 -2 2 -2 -3 0 -2 -1 1 2zm10 0l0 3 1 -2 3 -2 -3 0 -3 -1 2 2zm9 0l0 3 1 -2 3 -2 -3 0 -2 -1 1 2zm10 0l0 3 1 -2 3 -2 -3 0 -3 -1 2 2zm9 0l0 3 1 -2 3 -2 -3 0 -2 -1 1 2zm10 0l0 3 1 -2 3 -2 -3 0 -3 -1 2 2zm9 0l0 3 1 -2 3 -2 -3 0 -2 -1 1 2zm4 -7l1 3 1 -3 2 -1 -3 0 -2 -1 1 2zm-85 0l0 3 1 -3 3 -1 -3 0 -3 -1 2 2zm9 0l1 3 1 -3 3 -1 -4 0 -2 -1 1 2zm10 0l0 3 1 -3 3 -1 -3 0 -3 -1 2 2zm9 0l1 3 1 -3 3 -1 -4 0 -2 -1 1 2zm10 0l0 3 1 -3 3 -1 -3 0 -3 -1 2 2zm9 0l1 3 1 -3 2 -1 -3 0 -2 -1 1 2zm10 0l0 3 1 -3 3 -1 -3 0 -3 -1 2 2zm9 0l1 3 1 -3 2 -1 -3 0 -2 -1 1 2zm10 0l0 3 1 -3 3 -1 -3 0 -3 -1 2 2zm15 -7l0 3 1 -2 3 -2 -4 0 -2 -1 2 2zm-86 0l0 3 2 -2 2 -2 -3 0 -2 -1 1 2zm10 0l0 3 1 -2 3 -2 -3 0 -3 -1 2 2zm9 0l0 3 2 -2 2 -2 -3 0 -2 -1 1 2zm10 0l0 3 1 -2 3 -2 -3 0 -3 -1 2 2zm9 0l0 3 1 -2 3 -2 -3 0 -2 -1 1 2zm10 0l0 3 1 -2 3 -2 -3 0 -3 -1 2 2zm9 0l0 3 1 -2 3 -2 -3 0 -2 -1 1 2zm10 0l0 3 1 -2 3 -2 -3 0 -3 -1 2 2zm9 0l0 3 1 -2 3 -2 -3 0 -2 -1 1 2zm4 -7l1 3 1 -2 2 -2 -3 0 -2 -1 1 2zm-76 0l1 3 1 -2 3 -2 -4 0 -2 -1 1 2zm10 0l0 3 1 -2 3 -2 -3 0 -3 -1 2 2zm9 0l1 3 1 -2 3 -2 -4 0 -2 -1 1 2zm10 0l0 3 1 -2 3 -2 -3 0 -3 -1 2 2zm9 0l1 3 1 -2 2 -2 -3 0 -2 -1 1 2zm10 0l0 3 1 -2 3 -2 -3 0 -3 -1 2 2zm9 0l1 3 1 -2 2 -2 -3 0 -2 -1 1 2zm10 0l0 3 1 -2 3 -2 -3 0 -3 -1 2 2zm15 -7l0 3 1 -2 3 -2 -4 0 -2 -1 2 2zm-67 0l0 3 2 -2 2 -2 -3 0 -2 -1 1 2zm10 0l0 3 1 -2 3 -2 -3 0 -3 -1 2 2zm9 0l0 3 1 -2 3 -2 -3 0 -2 -1 1 2zm10 0l0 3 1 -2 3 -2 -3 0 -3 -1 2 2zm9 0l0 3 1 -2 3 -2 -3 0 -2 -1 1 2zm10 0l0 3 1 -2 3 -2 -3 0 -3 -1 2 2zm9 0l0 3 1 -2 3 -2 -3 0 -2 -1 1 2zm4 -7l1 3 1 -2 2 -2 -3 0 -2 -1 1 2zm-57 0l1 3 1 -2 3 -2 -4 0 -2 -1 1 2zm10 0l0 3 1 -2 3 -2 -3 0 -3 -1 2 2zm9 0l1 3 1 -2 2 -2 -3 0 -2 -1 1 2zm10 0l0 3 1 -2 3 -2 -3 0 -3 -1 2 2zm9 0l1 3 1 -2 2 -2 -3 0 -2 -1 1 2zm10 0l0 3 1 -2 3 -2 -3 0 -3 -1 2 2zm15 -7l0 3 1 -2 3 -2 -4 1 -2 -2 2 2zm-48 0l0 3 1 -2 3 -2 -3 1 -2 -2 1 2zm10 0l0 3 1 -2 3 -2 -3 1 -3 -2 2 2zm9 0l0 3 1 -2 3 -2 -3 1 -2 -2 1 2zm10 0l0 3 1 -2 3 -2 -3 1 -3 -2 2 2zm9 0l0 3 1 -2 3 -2 -3 1 -2 -2 1 2z"/>
   <path fill="#55FF00" d="M259 226c0,8 -2,20 -5,28 0,1 0,2 -1,4 -1,1 -1,2 -2,3 -5,12 -15,22 -25,28 -3,2 -5,3 -7,4 -3,1 -5,2 -8,3 -1,1 -2,1 -4,2 -1,0 -2,1 -4,1l-12 4c-2,0 -3,0 -5,0 -3,1 -6,1 -9,2 -2,0 -3,0 -5,0 -6,1 -6,1 -12,0 -2,0 -4,0 -6,-1 -10,-1 -19,-4 -28,-8 -1,0 -2,0 -2,-1 -1,0 -2,0 -3,-1l-15 -10c-2,-2 -5,-4 -6,-5 -2,-3 -3,-4 -6,-7 0,-1 -1,-2 -1,-2 -3,-5 -7,-12 -9,-18l-5 -18c-2,-11 -1,-22 7,-30 4,-3 8,-6 13,-8 10,-4 28,-7 39,-7 1,0 1,0 3,0l16 0c3,0 4,0 7,0 8,0 17,0 26,0 4,0 17,1 19,1 4,1 8,1 12,1 4,1 12,3 16,4l4 2c3,2 6,3 8,6 4,3 7,7 8,12 1,3 2,7 2,11zm-189 -33c-2,4 -4,15 -5,21 -8,50 17,91 68,107 34,10 74,7 102,-13 12,-8 24,-20 30,-33 1,-1 4,-8 4,-9l1 0c0,-1 1,-3 1,-4 0,-1 0,-1 0,-1l0 0c0,-1 0,0 1,-1l0 0 0 0c0,-1 1,-3 1,-4 0,-1 0,0 0,0l0 -1 0 0 0 0 0 -1c1,-1 2,-4 2,-6 0,0 0,0 0,0l0 -1 0 0 2 -10c0,-7 0,-15 0,-22 0,-2 -1,-9 -1,-10 -1,-1 -1,-2 -1,-3 -1,-4 -2,-7 -4,-9 -3,-5 -5,-7 -8,-10 -13,-11 -35,-15 -52,-17 -13,-2 -21,-1 -33,-2 -22,0 -44,-1 -65,3 -15,3 -34,10 -41,23 -1,1 -2,3 -2,3z"/>
   <path fill="#55FF00" d="M70 82l-4 6c-2,3 -11,19 -11,21l0 0c-1,1 -1,0 -2,2l-6 14c-1,2 -4,6 -3,7 2,0 5,-1 7,-1 3,0 5,-1 8,-1 3,0 14,0 16,0 1,0 3,-10 3,-12 1,-2 4,-10 3,-12 3,-9 11,-24 17,-31 16,-19 36,-30 62,-33 28,-3 57,2 80,15 27,15 42,43 45,74 1,4 1,7 1,11 0,4 0,8 0,12l0 0c6,0 11,-1 17,-2 3,-1 6,-1 9,-1 2,-1 6,-2 8,-2 0,-2 -1,-6 -2,-8 0,-1 0,-3 -1,-4l-6 -23c-1,-5 -4,-11 -5,-15 -1,-2 -1,-3 -1,-4l-6 -14 -8 -17c-2,-4 -5,-9 -7,-13 -2,-3 -6,-11 -8,-14 -1,-1 -1,-1 -2,-1 -2,-1 -4,-2 -6,-3l-20 -9c-7,-3 -22,-11 -27,-13 -21,-7 -47,-7 -67,0 -16,6 -28,17 -41,27l-5 5c-2,2 -5,5 -7,7l-20 19c-1,2 -10,12 -11,13z"/>
   <path fill="#55FF00" d="M70 82c1,-1 10,-11 11,-13l20 -19c2,-2 5,-5 7,-7l5 -5c13,-10 25,-21 41,-27 20,-7 46,-7 67,0 5,2 20,10 27,13l20 9c2,1 4,2 6,3 1,-1 0,-2 -1,-3 -2,-5 -7,-12 -9,-17l-1 -1c0,0 0,0 0,0l0 0c0,-1 0,-1 -1,-1 -2,-1 -3,-1 -4,-1l-16 -5 -21 -4c-1,-1 -2,-1 -4,-1 -1,0 -3,-1 -4,-1 -9,-1 -13,-2 -23,-2l-13 0c-5,0 -9,1 -15,3l-13 5c0,0 -1,0 -1,0l-5 3c-5,2 -13,7 -17,10 -3,2 -7,5 -9,7 -2,2 -4,3 -6,5 0,0 0,0 -1,1l-4 3c-3,4 -7,7 -10,10 -1,1 -2,2 -2,3l-3 3c-2,2 -9,10 -10,12 -2,3 -5,6 -8,10 0,2 -3,6 -3,7z"/>
   <path fill="black" d="M268 70c0,0 0,0 0,0l0 0 0 0zm0 -3l-2 -1 1 2 1 2c-4,-4 -7,-7 -10,-9l0 -1 -1 1c-2,-2 -5,-4 -7,-6l0 0 3 -2 -4 1 -2 -2 1 2 0 0c-3,-2 -7,-4 -11,-6l2 -1 -3 0 -3 -2 1 2c-4,-2 -8,-4 -13,-5l0 -1 3 -1 -3 0 -3 -2 2 2 0 1c-2,0 -4,-1 -6,-1l1 0 -1 0c-2,-1 -3,-1 -5,-2l0 0 0 0c-4,-1 -8,-1 -12,-2l1 -2 3 -1 -3 0 -3 -2 2 3 0 2c-2,0 -5,0 -7,-1l1 -1 3 -1 -4 0 -2 -2 1 3 1 1c-3,0 -6,0 -9,0l0 -1 3 -1 -3 0 -3 -2 2 3 0 1c-3,0 -6,0 -9,0l1 -1 3 -1 -4 0 -2 -2 1 3 1 1c-4,0 -7,1 -10,1l1 -2 3 -1 -3 0 -3 -2 2 3 0 2c-5,1 -10,2 -15,3l-1 -1 1 2c-3,0 -6,1 -9,2l1 -1 3 -1 -3 0 -3 -2 2 2 0 2c-4,2 -9,4 -13,6l0 0 3 -1 -3 0 -3 -2 2 2 0 2c-2,1 -4,2 -6,4l-1 -1 1 1c-4,2 -7,5 -11,8l-1 0 -2 -2 1 2 0 2c-1,1 -3,3 -5,4l-2 -1 2 2c-2,2 -4,4 -5,6l-1 -1 1 1c-2,2 -4,4 -5,7l-1 -1 1 1c-2,2 -3,4 -4,7l-1 -1 0 1c-1,2 -2,5 -3,7l0 0 -3 -1 2 2 0 1c-3,6 -5,13 -7,20 -7,1 -14,2 -21,3 7,-5 13,-10 20,-14 1,-2 1,-4 2,-6 -6,4 -12,7 -17,10 7,-7 15,-15 22,-23 0,-1 1,-1 1,-2l1 -2 3 -2 -2 0c1,-2 2,-4 3,-6l0 0 0 3 1 -2 3 -2 -3 1 -1 -1c0,0 1,-1 1,-1 1,-2 2,-3 3,-4l0 2 2 -2 2 -2 -2 1c1,-2 2,-3 4,-5l0 1 1 -2 0 0 3 -2 -1 1c3,-3 6,-6 9,-8l1 1 0 3 1 -2 3 -2 -3 1 -2 -2c2,-1 4,-3 7,-4l0 2 1 -2 3 -1 -3 0c4,-3 8,-5 12,-7l0 0 0 3 1 -2 3 -1 -3 0 0 0c4,-2 9,-4 14,-6l0 3 1 -3 3 -1 0 0c1,-1 3,-1 4,-1l2 2 0 3 1 -3 3 -1 -4 0 -2 -1c5,-2 10,-3 15,-3l0 0 1 0c3,-1 6,-1 9,-1l0 1 1 -1c2,-1 5,-1 8,-1l0 2 1 -2c2,0 5,0 7,0l0 2 1 -2c3,0 5,1 8,1l0 1 1 -1c3,0 6,0 9,1l0 0 0 0c8,1 15,2 23,4l1 1 0 3 1 -3 1 0c3,0 5,1 7,2l0 1 1 -1c2,0 4,1 6,2 2,1 5,3 7,5l0 0 0 0c1,0 1,1 2,1l1 -4 1 0 -1 0 2 -7 0 1 0 3 1 -1 1 11 -1 0 -2 -2 1 2 0 3 2 -2 0 0 2 13 -3 0 -2 -2 1 2 0 3 2 -2 2 -1 1 6zm-141 -32l-16 7 17 -3c35,-19 81,-18 129,-2l3 -8 -4 4c-62,-23 -106,-9 -129,2zm131 19l0 3 1 -2 3 -2 -3 1 -3 -2 2 2zm-14 -7l0 3 2 -2 2 -1 -3 0 -2 -2 1 2zm10 0l0 3 1 -2 3 -1 -3 0 -3 -2 2 2zm-24 -7l0 3 1 -2 3 -1 -4 0 -2 -2 2 2zm9 0l0 3 1 -2 3 -1 -3 0 -3 -2 2 2zm9 0l1 3 1 -2 3 -1 -4 0 -2 -2 1 2zm-42 -6l1 3 1 -3 2 -1 -3 0 -2 -2 1 3zm10 0l0 3 1 -3 3 -1 -3 0 -3 -2 2 3zm9 0l0 3 2 -3 2 -1 -3 0 -2 -2 1 3z"/>
  </g>
 </g>
</svg>
