<svg xmlns="http://www.w3.org/2000/svg" xmlns:xlink="http://www.w3.org/1999/xlink" xml:space="preserve" width="100%" height="100%" version="1.1" shape-rendering="geometricPrecision" text-rendering="geometricPrecision" image-rendering="optimizeQuality" fill-rule="evenodd" clip-rule="evenodd" viewBox="0 0 351 788">
 <defs>
   <clipPath id="id0">
    <path d="M76 89l-2 3c-1,1 -1,1 -2,3 -1,3 -2,4 -4,7l-14 27c-2,5 -5,9 -6,15l34 -4c2,-4 6,-22 8,-28 27,-63 82,-78 146,-59 5,1 9,3 14,4 4,2 9,5 13,5 15,-4 26,-9 27,-27 -17,-6 -48,-23 -57,-25 -24,-7 -49,-4 -69,4 -39,15 -70,63 -88,75z" id="svg-part-0"/>
   </clipPath>
 <clipPath id="clip-svg-part-1-left"><path fill="#37C9DA" d="M263 62l16 13c29,26 36,67 31,105 -1,10 -7,39 -11,44 8,17 -1,63 -12,80 -20,31 -62,55 -110,51 -57,-5 -99,-36 -106,-89 -2,-13 -3,-47 6,-55 -5,-10 4,-59 5,-71l-34 4c-9,13 -31,76 -35,94 -10,37 -17,75 -11,115 1,7 2,12 3,19 1,7 3,21 6,27 6,15 1,4 3,18 0,3 0,3 0,5 0,0 1,2 1,2 1,4 -2,1 1,3 -2,6 3,11 3,19 0,8 0,16 0,24 0,7 -1,13 -1,21 0,5 1,6 1,11 0,4 0,8 0,12 0,42 8,128 13,172 3,25 5,38 5,64 0,5 1,11 2,15 1,2 1,3 5,4 8,2 22,1 30,1 6,0 9,1 16,1l33 1c6,0 12,0 17,0 27,1 80,4 103,9l47 7 -2 -35c-1,-23 1,-10 -4,-35 -1,-7 -1,-14 -2,-22 -3,-22 -5,-77 -2,-97 1,-9 2,-37 4,-46 2,-15 4,-28 7,-43l9 -42c2,-7 3,-13 5,-20 1,-4 6,-16 5,-19 2,-2 1,-1 3,-5 14,-45 34,-123 36,-168 0,-9 2,-19 2,-29 -1,-47 0,-65 -14,-107 -9,-28 -19,-53 -35,-77 -1,-2 -2,-3 -4,-5l-8 -3c-1,18 -12,23 -27,27z"/></clipPath><pattern id="pattern-svg-part-1-left" patternUnits="userSpaceOnUse" x="-0.21986675262451172" y="35" width="351.2198791503906" height="753" preserveAspectRatio="xMidYMid meet"><g transform="scale(1) rotate(0)" opacity="1"><svg xmlns="http://www.w3.org/2000/svg" xmlns:xlink="http://www.w3.org/1999/xlink" xml:space="preserve" width="351.2198791503906" height="753" version="1.1" shape-rendering="geometricPrecision" text-rendering="geometricPrecision" image-rendering="optimizeQuality" fill-rule="evenodd" clip-rule="evenodd" viewBox="0 0 4851 6728" preserveAspectRatio="xMidYMid meet">
 <g id="Layer_x0020_1">
  <metadata id="CorelCorpID_0Corel-Layer"/>
  <g id="_2274116326992">
   <rect fill="#FEFEFE" x="6" y="9" width="4845" height="6719"/>
   <path fill="#00549E" fill-rule="nonzero" d="M0 0l101 0c-12,11 -23,22 -34,33 87,87 174,173 259,261 -48,49 -97,98 -146,146 -21,-20 -42,-41 -62,-62 28,-28 56,-56 84,-84 -67,-69 -135,-135 -202,-203l0 -91zm98 5509l3 0c-12,10 -23,22 -34,33l12 12c13,13 26,26 39,39l1 1 1 1c43,43 86,85 129,129 26,26 52,52 78,77l-3 0 2 2c-48,49 -97,97 -146,146 -21,-20 -42,-41 -62,-62 28,-29 56,-57 84,-85 -8,-8 -16,-15 -23,-23 -60,-60 -120,-119 -179,-179l0 -1 0 -90 0 -27c28,-30 58,-58 87,-88 22,21 43,41 64,62 -18,18 -35,35 -53,53zm178 0l1 0c-4,3 -7,6 -11,10 -28,28 -57,57 -85,86l-1 -1 0 0 -17 -17c-15,-15 -30,-29 -45,-44l0 -1 -1 0c9,-9 17,-17 26,-25 19,-20 39,-40 59,-60 -67,-67 -135,-134 -202,-202l0 -115c28,-31 59,-59 88,-89 21,21 42,42 62,63 -27,27 -55,55 -83,83 87,87 174,173 260,261 -17,17 -34,34 -51,51zm176 0l2 0c-42,40 -82,82 -123,123 20,20 40,41 61,61 7,7 15,14 23,21 -21,22 -42,43 -63,64l-1 0 0 1c-49,-49 -98,-97 -146,-146l0 -1 0 -1c86,-87 173,-173 260,-260 -28,-28 -56,-56 -84,-83 21,-22 42,-43 63,-63 49,48 97,97 146,146 -46,46 -92,92 -138,138zm176 0l2 0c-11,10 -23,21 -34,33l8 8c84,84 168,168 252,251l-3 0 3 2c-49,49 -98,98 -147,146 -20,-21 -41,-41 -62,-62 28,-28 56,-56 83,-84 -31,-32 -62,-63 -93,-95 -42,-42 -85,-85 -127,-128l-39 -38 0 0 -1 -1c49,-49 97,-98 146,-146 21,21 42,41 64,62 -18,17 -35,34 -52,52zm178 0l0 0c-3,3 -6,6 -9,9l-1 0c-7,7 -15,15 -22,22 -22,21 -43,43 -65,64l-11 -11c-12,-12 -24,-24 -35,-36l-1 0c-5,-5 -10,-10 -15,-15l0 0 0 -1c10,-9 20,-19 29,-28 19,-19 37,-37 55,-55 -85,-88 -174,-173 -260,-261 49,-49 98,-97 146,-146 21,21 42,42 63,63 -27,28 -57,54 -84,81 86,89 175,174 260,264 -17,17 -34,33 -50,50zm175 0l3 0c-42,40 -83,82 -124,123 14,14 28,28 42,42l0 0c13,13 26,25 38,38l2 2 0 0 1 1c-21,22 -42,43 -63,64 -49,-49 -98,-98 -147,-147 23,-23 46,-46 69,-69 64,-64 128,-128 192,-192 -28,-28 -55,-56 -83,-83 20,-22 41,-42 61,-64 49,49 98,98 147,147 -46,46 -92,92 -138,138zm176 0l1 0c-3,2 -6,5 -8,7 -9,8 -17,17 -25,25 87,87 173,174 261,260l-3 0 2 3c-49,49 -98,96 -147,144 -21,-20 -41,-41 -62,-61 28,-28 56,-56 84,-84 -87,-87 -175,-173 -260,-263l5 -5c47,-46 94,-93 140,-140 21,21 42,41 63,62 -17,18 -34,35 -51,52zm176 0l2 0c-33,31 -64,64 -97,96 -21,-20 -42,-41 -63,-62l2 -2 -1 -1c28,-27 57,-53 84,-81 -86,-89 -174,-176 -260,-264 49,-48 96,-98 147,-145 20,21 40,42 61,62 -27,29 -55,56 -83,84 85,89 173,175 260,263 -18,16 -35,33 -52,50zm70 107l-15 15c28,28 56,56 84,84l1 1c-21,21 -42,42 -64,63 -49,-49 -98,-98 -147,-147 39,-38 77,-78 116,-116 48,-48 97,-97 145,-145 -27,-28 -55,-56 -83,-83 19,-23 40,-44 62,-64 49,49 98,98 147,147 -82,82 -164,164 -246,245zm267 -89l0 1c-1,0 -2,0 -3,0 -4,4 -8,8 -12,12 0,1 0,2 0,3l10 11c2,0 3,0 5,0l0 1 0 3c11,11 22,23 34,34l2 3c43,43 87,85 129,129 26,26 52,52 79,77l-3 0 2 2c-49,49 -98,97 -146,146 -21,-20 -42,-41 -63,-62 28,-29 56,-57 85,-85 -8,-7 -16,-15 -24,-23 -32,-32 -64,-64 -95,-95l0 0c-47,-48 -95,-95 -142,-142 9,-10 19,-20 29,-29 10,-10 20,-20 30,-30l0 -1c28,-30 58,-58 87,-88 21,21 42,41 63,62 -17,18 -35,35 -52,53l2 0c-6,5 -12,11 -17,17l0 1zm-1159 267c-60,61 -121,121 -181,182 28,28 56,56 84,84 -21,21 -42,42 -62,63 -49,-49 -99,-98 -147,-147 58,-59 116,-117 174,-175l-1 0c5,-4 10,-8 14,-13l20 -19c17,-18 35,-36 53,-54 -28,-27 -56,-55 -84,-83l9 -8c17,-20 35,-39 54,-57 49,49 98,98 147,147 -27,27 -53,54 -80,80zm468 -219c47,47 93,93 140,140l0 0 0 0c-26,26 -51,53 -78,78 -60,61 -121,121 -182,182 28,29 56,57 84,84 -20,22 -41,42 -61,64 -51,-48 -99,-99 -148,-147 58,-59 116,-117 174,-175l0 0c2,-2 5,-5 8,-7 26,-26 52,-53 78,-79 -18,-17 -35,-35 -53,-52 -10,-11 -21,-21 -31,-31 20,-22 41,-43 63,-64l6 7zm461 57l0 0 -1 -1c21,-21 42,-42 63,-63l0 1 0 -1c28,29 56,57 85,85l0 0c2,2 4,5 7,7 9,10 19,19 29,29 8,9 17,17 25,25l0 1 1 1 -24 23c-13,13 -26,26 -38,40l0 -1c-66,66 -132,132 -199,198 28,28 56,55 84,83 -21,21 -42,42 -63,64 -50,-48 -98,-97 -147,-147 59,-58 117,-116 176,-175l-3 0c20,-19 41,-39 61,-59 9,-9 18,-18 27,-27 -22,-22 -45,-45 -67,-67l-16 -16zm-1379 83l0 1c-20,21 -41,41 -61,63l0 -2 0 -123 0 -1c20,21 41,41 61,61l0 1zm-61 114c9,-9 18,-19 27,-28l-3 0c22,-20 43,-42 64,-62 21,20 41,42 63,62l0 0 1 1c-28,28 -58,55 -86,83 87,88 175,174 261,262 -48,49 -98,97 -148,145 -20,-21 -40,-41 -60,-62 27,-27 55,-55 83,-83 -67,-68 -135,-134 -202,-203l0 -115zm470 57c28,-29 56,-57 84,-85l0 0c2,-2 4,-4 6,-6 19,-18 37,-37 56,-55l0 0 2 -1c21,21 41,42 63,62l-3 0 1 1c-28,28 -56,56 -83,84 87,87 174,174 261,262 -52,46 -98,98 -149,145 -21,-21 -42,-42 -62,-63 29,-28 59,-54 85,-84 -87,-86 -174,-173 -261,-260zm530 0c27,-29 56,-57 84,-85l-1 0c3,-2 5,-4 7,-6 19,-18 37,-37 55,-55l1 0 0 -1c22,21 42,42 64,62l-2 0 0 1c-27,28 -55,56 -83,84 87,86 173,173 259,260 -48,50 -97,98 -146,147 -21,-21 -42,-41 -62,-63 28,-28 56,-56 84,-84 -87,-86 -173,-173 -260,-260zm529 0c28,-29 56,-57 84,-85l-2 0 -1 0c21,-18 41,-38 60,-59l0 1 4 -4c22,20 42,42 64,62l0 0 0 1c-22,23 -45,44 -68,67l0 0 -1 0c-5,5 -10,10 -15,15 0,1 0,2 0,3l11 11c2,0 3,0 5,-1l0 6c81,81 163,162 244,244 -49,49 -98,97 -148,145 -20,-21 -40,-41 -61,-62 28,-27 56,-55 84,-83 -67,-68 -136,-134 -202,-203l0 -1c-20,-19 -39,-38 -58,-57zm-1148 91c21,-21 42,-42 62,-64 48,50 98,98 147,148 -87,86 -174,173 -261,259 29,27 58,55 85,83 -21,21 -42,43 -64,64 -48,-49 -98,-97 -145,-147 87,-87 174,-174 261,-262 -28,-27 -57,-53 -85,-81zm530 0c19,-22 40,-43 61,-64 49,49 98,98 147,147 -85,87 -173,172 -258,259 23,32 54,57 82,83 -20,22 -42,43 -63,65 -49,-49 -97,-98 -146,-146 86,-87 173,-174 260,-260 -27,-29 -55,-56 -83,-84zm528 -2c21,-20 42,-41 63,-62l85 85 0 -1c19,21 41,41 61,62l0 0 1 1c-87,87 -174,174 -261,261 28,27 56,55 84,83 -21,21 -42,41 -62,63 -50,-49 -99,-98 -148,-148 87,-87 176,-171 261,-259 -28,-28 -56,-56 -84,-85zm-1439 22c20,21 41,41 61,62 -20,21 -41,41 -61,62l0 -124zm0 175c28,-31 59,-59 88,-89 21,21 42,42 62,64 -28,27 -55,55 -83,82 85,88 172,175 259,261 -48,50 -97,98 -146,147 -21,-21 -42,-42 -62,-63 27,-28 55,-56 84,-83 -67,-69 -135,-136 -202,-204l0 -115zm471 57c49,-48 97,-97 146,-145 22,20 42,41 63,62 -28,28 -56,56 -84,84 85,88 173,173 260,261 -50,48 -97,98 -147,146 -21,-21 -41,-42 -62,-63 28,-28 57,-55 83,-84 -87,-86 -174,-172 -259,-261zm529 1c49,-48 97,-97 146,-146 20,21 41,42 63,61 -27,29 -56,57 -84,86 87,86 173,173 260,260 -49,49 -97,97 -146,146 -21,-21 -42,-42 -62,-63 28,-28 55,-55 83,-83 -86,-87 -175,-173 -260,-261zm528 -1c20,-18 39,-37 59,-56l0 -1c28,-31 58,-59 87,-89 22,21 42,42 63,64 -28,27 -56,55 -83,82l14 15c0,-1 1,-1 2,-1l0 3c80,82 161,163 243,244 -48,50 -98,98 -146,147 -21,-21 -42,-42 -63,-63 28,-28 56,-56 84,-83 -39,-40 -79,-80 -118,-120l0 1c-47,-49 -95,-95 -142,-143zm-1084 28c49,49 99,97 147,148 -87,86 -173,173 -260,259 21,22 42,43 63,64l-125 0c-22,-22 -43,-43 -64,-65 87,-86 175,-172 261,-259 -28,-28 -57,-56 -85,-85 21,-20 42,-41 63,-62zm467 62c21,-21 41,-41 62,-62 49,49 98,97 146,146 -86,87 -173,174 -260,260 21,22 43,43 65,65l-128 0c-21,-21 -42,-42 -63,-64 87,-87 173,-175 262,-260 -28,-28 -57,-56 -84,-85zm528 2c20,-21 42,-42 63,-63 28,28 56,57 85,85l0 -1c19,21 41,41 61,62 -21,21 -42,41 -61,62l0 -1c-67,67 -133,133 -200,199 22,21 45,42 66,64l-127 0c-21,-21 -42,-42 -64,-63 86,-88 174,-175 261,-262 -27,-28 -56,-54 -84,-82zm-1439 21c20,21 41,41 61,62 -20,21 -41,41 -61,62l0 -124zm0 175c28,-31 59,-59 88,-89 21,21 42,42 62,63 -27,28 -55,55 -83,83 51,52 103,103 154,154l-126 0c-32,-32 -64,-64 -95,-96l0 -115zm471 57c49,-48 98,-97 146,-146 21,21 42,42 63,63 -27,28 -57,54 -84,82 51,52 102,103 154,155l-125 0c-51,-51 -103,-102 -154,-154zm529 -1c49,-48 96,-99 147,-145 20,21 40,41 61,61 -27,29 -55,56 -83,84 50,52 101,104 152,155l-123 0c-52,-52 -103,-103 -154,-155zm529 0c26,-26 52,-52 78,-78 8,-8 16,-16 24,-24 13,-13 26,-26 39,-39l0 1 4 -5c21,21 42,42 63,63 -22,22 -45,45 -67,67l0 3c-2,0 -3,0 -4,1l-11 11c0,1 0,2 0,2l13 13c0,0 1,0 2,0l0 2c45,46 91,92 137,138l-125 0 -12 -12 0 1c-47,-48 -95,-95 -141,-144zm-1148 92c21,-22 42,-43 63,-63 42,42 84,84 126,126l-125 0c-21,-21 -42,-42 -64,-63zm530 0c20,-21 41,-42 61,-64 43,42 85,85 127,127l-125 0c-21,-21 -42,-42 -63,-63zm529 0c19,-22 40,-44 62,-64 42,42 85,85 127,127l-2 0 -40 0 -83 0c-21,-21 -42,-42 -64,-63zm-1440 22c13,14 27,27 40,41l-40 0 0 -41zm1863 -1178l0 0c-3,3 -7,6 -10,10 -29,28 -57,57 -86,86l0 -1 0 0 -18 -17c-15,-15 -30,-29 -45,-44l1 -1 -1 0c8,-9 17,-17 25,-25 20,-20 40,-40 60,-60 -40,-39 -80,-79 -119,-119l0 2c-47,-48 -95,-95 -141,-144 26,-26 52,-52 78,-78 8,-8 16,-16 24,-24 13,-13 26,-26 39,-39l0 1 4 -5c21,21 42,42 63,63 -22,22 -45,45 -67,67l0 3c-2,0 -3,0 -4,0l-11 12c0,1 0,1 0,2l13 13c0,0 1,0 2,0l0 2c81,82 163,163 244,245 -17,17 -34,34 -51,51zm175 0l3 0c-42,40 -82,82 -124,123 21,20 41,41 61,61 8,7 16,14 24,21 -21,22 -42,43 -64,64l0 0 -1 1c-49,-49 -97,-97 -146,-146l1 -1 -1 -1c86,-87 174,-173 260,-260 -28,-28 -55,-56 -83,-83 20,-22 41,-43 63,-63 48,48 97,97 146,146 -46,46 -93,92 -139,138zm176 0l3 0c-12,10 -23,21 -34,33l8 8c84,83 167,168 252,251l-3 0 2 2c-49,49 -97,98 -146,146 -21,-21 -42,-41 -62,-62 27,-28 55,-56 83,-84 -31,-32 -62,-63 -93,-95 -43,-43 -86,-85 -128,-128l-38 -38 0 0 -1 -1c49,-49 97,-98 146,-146 21,21 42,41 63,62 -17,17 -34,34 -52,52zm178 0l1 0c-4,3 -7,6 -10,9l0 0c-8,7 -15,15 -23,22 -21,21 -42,43 -64,64l-11 -11c-12,-12 -24,-24 -36,-36l0 0c-5,-5 -10,-10 -15,-15l0 0 0 -1c10,-9 19,-19 29,-28 18,-19 36,-37 55,-55 -86,-88 -174,-173 -260,-261 49,-49 97,-97 146,-146 21,21 42,42 63,63 -28,28 -57,54 -85,81 86,89 175,174 260,264 -16,17 -33,33 -50,50zm176 0l2 0c-42,40 -82,82 -123,123 13,14 27,28 41,42 13,12 26,25 39,38l2 2 0 0 1 1c-21,22 -42,43 -64,64 -49,-49 -98,-98 -147,-147 23,-23 46,-46 69,-69 64,-64 129,-128 193,-192 -28,-28 -56,-56 -84,-83 21,-22 42,-42 62,-64 49,49 98,98 147,147 -46,46 -92,92 -138,138zm176 0l0 0c-2,2 -5,5 -8,7 -8,8 -16,16 -25,25 87,87 174,174 261,260l-3 0 3 3c-49,49 -98,96 -148,144 -20,-20 -41,-41 -61,-61 28,-28 56,-56 83,-84 -87,-87 -175,-173 -260,-263l6 -5c47,-46 93,-93 140,-140 21,21 42,41 63,62 -17,18 -34,35 -51,52zm175 0l3 0c-33,31 -65,64 -97,96 -21,-20 -42,-41 -63,-62l1 -2 -1 -1c28,-27 57,-53 84,-81 -85,-89 -173,-176 -259,-264 49,-48 96,-98 146,-145 20,21 41,42 62,62 -28,29 -56,56 -84,84 86,89 174,175 261,263 -18,16 -36,33 -53,50zm71 107l-15 15c28,28 56,56 84,84l1 1c-22,21 -43,42 -64,63 -49,-49 -98,-98 -147,-147 38,-38 76,-78 115,-116 49,-48 98,-97 146,-145 -28,-28 -55,-56 -83,-83 19,-23 40,-44 61,-64 29,29 58,57 87,86l0 0c4,3 7,7 11,11l35 35c5,5 10,10 14,15 -4,5 -9,9 -14,14l-34 34c-4,4 -8,8 -12,13l0 -1c-62,62 -123,123 -185,185zm266 -89l0 1 0 0c-5,4 -9,9 -14,14l12 12 0 0 0 0c1,0 2,0 2,0l0 1 0 1c13,12 25,25 37,37l2 1 0 1c43,43 86,85 129,129 26,26 52,52 78,77l-3 0 2 2c-48,49 -97,97 -146,146 -21,-20 -42,-41 -62,-62 28,-29 56,-57 84,-85 -8,-8 -16,-16 -23,-23 -33,-33 -65,-65 -98,-97l0 0 0 2c-46,-48 -95,-95 -142,-142 10,-10 19,-20 29,-29 15,-14 29,-29 44,-43 16,-17 33,-33 49,-50 7,-7 14,-13 20,-20l0 0 6 -6c22,21 43,41 64,62 -18,18 -35,35 -53,53l3 0c-7,6 -13,12 -20,18zm-1158 267c-61,61 -121,121 -182,182 28,28 57,56 85,84 -21,21 -42,42 -63,63 -49,-49 -98,-98 -147,-147 58,-59 116,-117 174,-175l0 0c5,-4 9,-9 14,-13 6,-6 13,-13 19,-19 18,-18 36,-36 54,-54 -29,-27 -56,-55 -84,-83l8 -9c18,-19 36,-38 54,-56 49,49 98,98 147,147 -26,27 -52,54 -79,80zm468 -219c46,47 93,94 140,140l0 0 0 0c-26,26 -51,53 -78,78 -60,61 -122,121 -182,182 27,29 55,57 84,84 -20,22 -41,42 -61,64 -51,-48 -99,-99 -149,-147 58,-59 117,-117 175,-175l-1 0c3,-2 5,-5 8,-7 26,-26 53,-53 79,-79 -18,-17 -36,-35 -53,-52 -11,-11 -21,-21 -32,-31 21,-22 42,-43 63,-64l7 7zm461 57l0 0 -1 -1c21,-21 41,-42 62,-63l0 1 1 -1c28,29 57,58 86,87l0 -1 0 -1c20,21 41,41 61,61l0 1 0 1c-20,21 -41,41 -61,63l0 -2 0 -1c-67,66 -133,133 -200,200 28,28 56,55 84,83 -22,21 -43,42 -63,64 -50,-48 -99,-97 -147,-147 58,-58 117,-116 175,-175l-3 0c21,-19 42,-39 62,-59 9,-9 18,-18 27,-27 -23,-23 -46,-45 -68,-68l-15 -15zm-970 254c28,-29 56,-57 84,-85l0 0c2,-2 4,-4 6,-6 19,-18 37,-37 56,-55l0 0 2 -1c20,21 40,42 62,62l-2 0 0 1c-27,28 -56,56 -83,84 87,87 175,174 261,262 -52,46 -98,98 -149,145 -20,-21 -41,-42 -61,-63 28,-28 58,-54 85,-84 -88,-86 -174,-173 -261,-260zm530 0c27,-29 55,-57 83,-85l0 0c2,-2 4,-4 7,-6 18,-18 37,-37 55,-55l0 0 1 -1c21,21 42,42 64,62l-3 0 1 1c-28,28 -56,56 -84,84 87,86 174,173 259,260 -47,50 -97,98 -145,147 -22,-21 -43,-41 -63,-63 29,-28 56,-56 85,-84 -87,-86 -174,-173 -260,-260zm529 0c28,-29 56,-57 84,-85l-1 0 -2 0c21,-18 40,-38 59,-59l0 2 0 1c2,-2 5,-4 7,-6 21,20 41,42 63,62l0 0 1 1c-28,28 -58,55 -86,83l12 13c1,0 2,0 3,-1l0 4c82,82 165,164 246,246 -48,49 -98,97 -148,145 -20,-21 -40,-41 -60,-62 27,-27 55,-55 83,-83 -53,-53 -106,-106 -159,-159 -34,-34 -68,-68 -102,-102zm-1148 91c21,-21 42,-42 62,-64 48,50 98,98 146,148 -87,86 -173,173 -260,259 29,27 57,55 85,83 -22,21 -43,43 -64,64 -49,-49 -98,-97 -146,-147 87,-87 175,-174 261,-262 -28,-27 -57,-53 -84,-81zm529 0c20,-22 41,-43 62,-64 49,49 97,98 147,147 -85,87 -173,172 -258,259 22,32 54,57 82,83 -21,22 -42,43 -63,65 -49,-49 -97,-98 -147,-146 86,-87 174,-174 260,-260 -27,-29 -55,-56 -83,-84zm529 -2c21,-20 41,-41 62,-62 29,29 58,58 87,87l0 -3c20,21 41,41 61,62l-1 1 0 0 -51 52c-3,3 -6,6 -9,9l0 0c-67,66 -133,133 -200,200 28,27 56,55 84,83 -21,21 -42,41 -62,63 -50,-49 -99,-98 -148,-148 87,-87 176,-171 261,-259 -28,-28 -57,-56 -84,-85zm-968 254c48,-48 97,-97 145,-145 22,20 43,41 63,62 -28,28 -55,56 -84,84 86,88 174,173 260,261 -49,48 -97,98 -147,146 -20,-21 -41,-42 -61,-63 28,-28 56,-55 83,-84 -87,-86 -174,-172 -259,-261zm529 1c48,-48 97,-97 145,-146 21,21 42,42 64,61 -27,29 -56,57 -85,86 87,86 174,173 261,260 -49,49 -98,97 -146,146 -21,-21 -42,-42 -63,-63 28,-28 56,-55 83,-83 -86,-87 -174,-173 -259,-261zm527 -1c24,-22 47,-44 70,-67 15,-16 31,-31 47,-47 8,-8 17,-17 25,-26l0 1 7 -7c21,21 42,42 62,64 -28,27 -55,55 -83,82l14 14 0 0 0 1c81,83 163,165 245,246 -48,50 -97,98 -146,147 -21,-21 -42,-42 -62,-63 27,-28 55,-56 84,-83 -40,-41 -80,-81 -121,-122l0 3c-46,-49 -95,-95 -142,-143zm-1084 28c49,49 99,97 147,148 -87,86 -173,173 -260,259 21,22 43,43 64,64l-126 0c-21,-22 -43,-43 -64,-65 87,-86 175,-172 261,-259 -28,-28 -56,-56 -84,-85 21,-20 41,-41 62,-62zm467 62c21,-21 42,-41 63,-62 49,49 97,97 146,146 -87,87 -173,174 -260,260 21,22 43,43 64,65l-127 0c-21,-21 -43,-42 -64,-64 88,-87 174,-175 263,-260 -28,-28 -57,-56 -85,-85zm529 2c20,-21 41,-42 62,-63 29,29 58,58 87,87l0 -3c20,21 41,41 61,62 -20,21 -41,41 -61,62l0 -3c-67,67 -134,135 -201,201 22,21 44,42 66,64l-128 0c-21,-21 -42,-42 -63,-63 86,-88 174,-175 261,-262 -27,-28 -57,-54 -84,-82zm-968 253c49,-48 97,-97 146,-146 21,21 42,42 63,63 -28,28 -57,54 -85,82 51,52 103,103 155,155l-125 0c-52,-51 -103,-102 -154,-154zm529 -1c49,-48 96,-99 146,-145 20,21 41,41 62,61 -28,29 -56,56 -84,84 51,52 102,104 153,155l-124 0c-51,-52 -102,-103 -153,-155zm529 0c46,-47 94,-93 140,-141l0 3c2,-2 5,-4 7,-7 21,21 42,42 62,63 -23,23 -46,46 -69,69l0 1 -1 0 -13 13 14 14 0 0 0 0c47,47 93,93 140,140l-126 0 -14 -14 0 3c-46,-48 -94,-95 -140,-144zm-1148 92c20,-22 41,-43 63,-63 42,42 84,84 126,126l-126 0c-21,-21 -42,-42 -63,-63zm529 0c21,-21 42,-42 62,-64 42,42 85,85 127,127l-125 0c-21,-21 -42,-42 -64,-63zm530 0c19,-22 40,-44 61,-64 29,29 58,58 87,87l0 -1c4,4 7,7 11,11l29 30 0 0 -40 0 -85 0c-21,-21 -42,-42 -63,-63zm424 -1156l1 0c-4,3 -7,6 -11,10 -28,28 -57,57 -85,86l-1 -1 0 0 -17 -17c-15,-15 -30,-29 -45,-44l0 -1 -1 0c9,-9 17,-17 26,-25 19,-20 39,-40 59,-60 -40,-40 -80,-80 -121,-120l0 3c-46,-48 -94,-95 -140,-144 46,-47 94,-93 140,-141l0 3c2,-2 5,-5 7,-7 21,21 42,42 62,63 -23,23 -46,46 -69,69l0 1 -1 0 -13 13 14 14 0 0 0 0c82,82 165,164 246,247 -17,17 -34,34 -51,51zm176 0l3 0c-43,40 -83,82 -124,123 20,20 40,41 61,61 7,7 15,14 23,21 -21,22 -42,43 -63,64l-1 0 0 1c-49,-49 -98,-97 -146,-146l0 -1 0 -1c86,-87 173,-173 260,-260 -28,-28 -56,-56 -84,-83 21,-22 42,-43 63,-63 49,48 97,97 146,146 -46,46 -92,92 -138,138zm176 0l2 0c-11,10 -23,21 -34,33l8 7c84,84 168,169 252,252l-3 0 3 2c-49,49 -98,98 -147,146 -20,-21 -41,-41 -62,-62 28,-28 56,-56 83,-84 -30,-32 -61,-63 -92,-94l-1 -1c-43,-43 -85,-85 -128,-128l-38 -38 0 0 -1 -1c49,-49 98,-98 146,-146 21,21 42,41 64,62 -18,17 -35,34 -52,52zm178 0l0 0c-3,3 -6,6 -9,9 -8,7 -16,14 -23,22 -22,21 -43,43 -65,64l-11 -11c-12,-12 -24,-24 -35,-36l-1 0c-5,-5 -10,-10 -15,-15l0 0 0 0 0 -1c10,-9 19,-19 29,-28 19,-19 37,-37 55,-55 -85,-88 -174,-173 -260,-261 49,-49 98,-97 146,-146 21,21 42,42 63,63 -27,28 -57,54 -84,81 86,89 175,174 260,264 -17,17 -34,33 -50,50zm175 0l3 0c-42,40 -83,82 -124,123 14,14 28,28 42,42 13,12 25,25 38,38l2 2 0 0 1 1c-21,22 -42,43 -63,64 -49,-49 -98,-98 -147,-147 23,-23 46,-46 69,-69 64,-64 128,-128 192,-192 -28,-28 -55,-56 -83,-83 20,-22 41,-42 61,-64 49,49 98,98 147,147 -46,46 -92,92 -138,138zm176 0l1 0c-3,2 -6,5 -8,7 -9,8 -17,17 -25,25 87,87 173,174 261,260l-3 0 2 3c-48,49 -98,96 -147,144 -21,-20 -41,-41 -62,-61 28,-28 56,-56 84,-84 -87,-87 -175,-173 -260,-263l5 -5c47,-46 94,-93 140,-140 21,21 42,41 63,62 -17,18 -34,35 -51,52zm176 0l2 0c-33,31 -64,64 -97,96 -21,-20 -42,-41 -63,-62l2 -2 -1 -1c28,-27 57,-53 84,-81 -86,-89 -174,-176 -260,-264 49,-48 96,-98 147,-145 20,21 40,42 61,62 -27,29 -55,56 -83,84 85,89 173,175 260,263 -18,16 -35,33 -52,50zm70 107l-15 15c28,28 56,56 84,84l1 1c-21,21 -42,42 -64,63 -49,-49 -98,-98 -147,-147 39,-38 77,-78 116,-116 48,-48 97,-97 145,-145 -27,-28 -55,-56 -83,-83 19,-23 40,-44 62,-64 49,49 98,98 147,147 -82,82 -164,164 -246,245zm267 -89l0 1c-6,0 -10,2 -12,5l0 1 -1 0c0,1 -1,2 -1,3 -2,5 -1,9 2,13 3,2 7,4 12,4l0 1 0 127 0 2c-47,-48 -95,-95 -142,-142 9,-10 19,-20 29,-29 37,-38 76,-75 113,-113l0 109 0 18zm-1159 267c-60,61 -121,121 -181,182 28,28 56,56 84,84 -21,21 -42,42 -62,63 -49,-49 -99,-98 -147,-147 58,-59 116,-117 174,-175l-1 0c5,-4 10,-9 14,-13l20 -19c18,-18 35,-36 53,-54 -28,-27 -56,-55 -84,-83l9 -9c17,-19 35,-38 54,-56 49,49 98,98 147,147 -27,27 -53,54 -80,80zm468 -219c47,47 93,94 140,140l0 0 0 0c-26,26 -51,53 -78,78 -60,61 -121,121 -182,182 28,29 56,57 84,84 -20,22 -41,42 -61,64 -51,-48 -99,-99 -148,-147 58,-59 116,-117 174,-175l0 0c2,-2 5,-5 8,-7 26,-26 52,-53 78,-79 -18,-17 -35,-35 -53,-53 -10,-10 -21,-20 -31,-30 20,-22 41,-43 63,-64l6 7zm461 57l0 0 -1 -1c21,-21 42,-42 63,-63l0 1 0 -1c49,50 98,98 147,148 -87,86 -174,173 -261,260 28,28 56,55 84,83 -21,21 -42,42 -63,64 -50,-48 -98,-97 -147,-147 59,-58 117,-116 176,-175l-3 0c20,-19 41,-39 61,-59l27 -27c-23,-22 -45,-45 -68,-68l-15 -15zm-970 254c28,-29 56,-57 84,-85l0 0c2,-2 4,-4 6,-6 19,-18 38,-37 56,-55l0 0 2 -1c21,21 41,42 63,62l-3 0 1 1c-28,28 -56,56 -83,84 87,87 175,174 261,262 -52,46 -98,98 -149,145 -21,-21 -42,-42 -62,-63 29,-28 59,-54 85,-84 -87,-86 -174,-173 -261,-260zm530 0c27,-29 56,-57 84,-85l-1 0c3,-2 5,-4 7,-6 19,-18 37,-37 55,-55l1 0 0 -1c22,21 42,42 64,62l-2 0 0 1c-27,28 -55,56 -83,84 87,86 173,173 259,260 -48,50 -97,98 -146,147 -21,-21 -42,-41 -62,-63 28,-28 56,-56 84,-84 -87,-86 -173,-173 -260,-260zm529 0c28,-29 56,-57 84,-85l-3 0c21,-18 41,-38 60,-59l0 2 0 57 0 68c-21,0 -22,38 0,28l0 121 0 8c-48,-47 -94,-94 -141,-140zm-1148 91c21,-21 42,-42 62,-64 48,50 99,98 147,148 -87,86 -174,173 -261,259 29,27 58,55 85,83 -21,21 -42,43 -64,64 -48,-49 -98,-97 -145,-147 87,-87 174,-174 261,-262 -28,-27 -57,-53 -85,-81zm530 0c19,-22 40,-43 61,-64 49,49 98,98 147,147 -85,87 -173,172 -258,259 23,32 54,57 82,83 -20,22 -42,43 -63,65 -49,-49 -97,-98 -146,-146 86,-87 173,-174 260,-260 -27,-29 -55,-56 -83,-84zm528 -2c21,-20 42,-41 63,-62 49,49 98,98 147,147 -87,87 -174,174 -261,261 28,27 56,55 84,83 -21,21 -42,41 -62,63 -50,-49 -99,-98 -148,-148 87,-87 176,-171 261,-259 -28,-28 -56,-56 -84,-85zm-968 254c49,-48 97,-97 146,-145 22,20 42,41 63,62 -28,28 -56,56 -84,84 85,88 173,173 260,261 -50,48 -97,98 -147,146 -21,-21 -41,-42 -62,-63 28,-28 57,-55 83,-84 -87,-86 -174,-172 -259,-261zm529 1c49,-48 97,-97 146,-146 20,21 41,42 63,61 -27,29 -56,57 -84,86 87,86 173,173 260,260 -48,49 -97,97 -146,146 -21,-21 -42,-42 -62,-63 28,-28 55,-55 83,-83 -86,-87 -175,-173 -260,-261zm528 -1c49,-45 95,-92 142,-140l0 122c-22,2 -26,40 0,32l0 129c-47,-49 -95,-95 -142,-143zm-1084 28c49,49 99,97 147,148 -87,86 -173,173 -260,259 21,22 42,43 63,64l-125 0c-22,-22 -43,-43 -64,-65 87,-86 175,-172 261,-259 -28,-28 -57,-56 -85,-85 21,-20 42,-41 63,-62zm467 62c21,-21 41,-41 62,-62 49,49 98,97 146,146 -86,87 -173,174 -260,260 21,22 43,43 65,65l-128 0c-21,-21 -42,-42 -63,-64 87,-87 173,-175 262,-260 -28,-28 -57,-56 -84,-85zm528 2c20,-21 42,-42 63,-63 48,49 97,97 146,146 -87,87 -174,174 -261,260 22,21 45,42 66,64l-127 0c-21,-21 -42,-42 -64,-63 86,-88 174,-175 261,-262 -27,-28 -56,-54 -84,-82zm-968 253c49,-48 98,-97 146,-146 21,21 42,42 63,63 -27,28 -57,54 -84,82 51,52 103,103 154,155l-125 0c-51,-51 -103,-102 -154,-154zm529 -1c49,-48 96,-99 147,-145 20,21 40,41 61,61 -27,29 -55,56 -83,84 50,52 101,104 152,155l-123 0c-52,-52 -103,-103 -154,-155zm529 0c47,-47 95,-93 141,-141l0 129c-20,1 -20,26 0,27l0 129c-47,-48 -95,-95 -141,-144zm-1148 92c21,-22 42,-43 63,-63 42,42 84,84 126,126l-125 0c-21,-21 -42,-42 -64,-63zm530 0c20,-21 41,-42 61,-64 43,42 85,85 127,127l-125 0c-21,-21 -42,-42 -63,-63zm529 0c19,-22 40,-44 62,-64 42,42 85,85 127,127l-125 0c-21,-21 -42,-42 -64,-63zm-4517 -2533l3 0c-12,10 -23,21 -34,32l11 12 1 1c13,13 26,26 39,39l1 1 1 0c43,43 86,86 129,130 26,26 52,51 78,77l-3 0 2 2c-48,49 -97,97 -146,146 -21,-21 -42,-42 -62,-63 28,-28 56,-56 84,-84 -8,-8 -16,-16 -24,-24 -59,-59 -119,-118 -178,-179l0 0 0 -90 0 -27c28,-30 58,-58 87,-88 22,20 43,41 64,62 -18,18 -35,35 -53,53zm178 0l1 0c-4,3 -7,6 -11,9 -28,29 -57,58 -85,86l-1 0 0 0 -17 -17c-15,-15 -30,-30 -45,-44l0 -1 -1 -1c9,-8 17,-16 26,-24 19,-20 39,-40 59,-60 -67,-68 -135,-134 -202,-203l0 -115c28,-30 59,-58 88,-88 21,21 42,42 62,63 -27,27 -55,55 -83,83 87,87 174,173 260,260 -17,18 -34,35 -51,52zm176 0l2 0c-42,40 -82,82 -123,123 20,20 40,41 61,61 7,7 15,14 23,21 -21,22 -42,43 -63,64l-1 0 0 1c-49,-49 -98,-97 -146,-146l0 -1 0 -1c86,-87 173,-174 260,-261 -28,-27 -56,-55 -84,-82 21,-22 42,-43 63,-64 49,49 97,98 146,146 -46,47 -92,93 -138,139zm176 0l2 0c-11,10 -23,21 -34,32l8 8c84,84 168,169 252,252l-3 0 3 2c-49,49 -98,98 -147,146 -20,-21 -41,-42 -62,-63 28,-27 56,-55 83,-83 -31,-32 -62,-63 -93,-95 -42,-42 -85,-85 -127,-128l-39 -39 0 0 -1 -1c49,-48 97,-97 146,-145 21,21 42,41 64,62 -18,17 -35,34 -52,52zm178 0l0 0c-3,3 -6,5 -9,8l-1 1c-7,7 -15,14 -22,22 -22,21 -43,43 -65,64l-10 -11c-13,-12 -25,-24 -37,-36 -5,-5 -10,-10 -15,-15 10,-10 19,-20 29,-30 19,-18 37,-36 55,-54 -85,-88 -174,-174 -260,-262 49,-48 98,-97 146,-145 21,21 42,42 63,63 -27,27 -57,53 -84,81 86,89 175,174 260,263 -17,17 -34,34 -50,51zm175 0l3 0c-42,40 -83,82 -124,123 14,14 28,28 42,41l0 1c13,12 26,25 38,38l2 2 0 0 1 1c-21,21 -42,43 -63,64 -49,-49 -98,-98 -147,-147 23,-23 46,-47 69,-69 64,-64 128,-128 192,-193 -28,-27 -55,-55 -83,-83 20,-21 41,-42 61,-63 49,48 98,97 147,146 -46,47 -92,93 -138,139zm176 0l1 0c-3,2 -6,4 -8,7 -9,8 -17,16 -25,25 87,86 173,174 261,260l-3 0 2 3c-49,48 -98,96 -147,144 -21,-21 -41,-41 -62,-62 28,-27 56,-55 84,-83 -87,-87 -175,-174 -260,-263l5 -5c47,-47 94,-93 140,-140 21,20 42,41 63,62 -17,17 -34,35 -51,52zm176 0l2 0c-33,31 -64,64 -97,96 -21,-21 -42,-41 -63,-62l2 -2 -1 -1c28,-27 57,-53 84,-82 -86,-88 -174,-175 -260,-263 49,-48 96,-98 147,-145 20,21 40,42 61,62 -27,28 -55,56 -83,84 85,89 173,175 260,262 -18,17 -35,34 -52,51zm71 106l-16 16c28,28 56,55 84,83l1 1c-21,22 -42,43 -64,64 -49,-49 -98,-98 -147,-147 39,-39 77,-78 116,-116 48,-48 97,-97 145,-146 -27,-27 -55,-55 -83,-82 19,-23 40,-44 62,-64 49,48 98,97 147,146 -82,82 -164,164 -245,245zm266 -88l0 1c-1,0 -2,0 -3,0 -4,4 -8,8 -12,12 0,1 0,2 0,3l10 10c2,1 3,1 5,1l0 1 0 3c12,12 24,24 36,36 43,43 86,86 129,129 26,26 52,52 79,78l-3 0 2 2c-49,49 -98,97 -146,146 -21,-21 -42,-42 -63,-63 28,-28 56,-56 85,-84 -8,-8 -16,-16 -24,-24 -32,-31 -64,-63 -95,-95l0 1c-47,-48 -95,-95 -142,-143 9,-9 19,-19 29,-28 10,-10 20,-20 30,-30l0 -1c28,-30 58,-58 87,-88 21,20 42,41 63,62 -17,18 -35,35 -52,53l2 0c-6,5 -12,11 -17,16l0 2zm-1159 267c-60,60 -121,121 -181,182 28,28 56,56 84,84 -21,21 -42,42 -62,63 -49,-50 -99,-98 -147,-148 58,-58 116,-116 174,-174l-1 0c5,-4 9,-9 14,-13 7,-6 13,-13 20,-20 18,-17 35,-35 53,-53 -28,-27 -56,-55 -84,-83l9 -9c17,-19 35,-38 54,-56 49,49 98,98 147,147 -27,27 -53,54 -80,80zm469 -219c46,47 92,93 139,139l0 1 0 0c-26,26 -51,53 -78,78 -60,61 -121,121 -182,182 28,29 56,57 84,84 -20,22 -41,42 -61,63 -51,-47 -99,-98 -148,-146 58,-59 116,-117 174,-175l0 0c2,-2 5,-5 7,-7 27,-27 53,-53 79,-79 -18,-18 -35,-35 -53,-53 -10,-10 -21,-20 -31,-30 20,-22 41,-43 63,-64l7 7zm460 57l0 -1 -1 -1c21,-20 42,-41 63,-62l0 0 0 0c28,29 56,57 85,85l0 0c2,2 4,4 6,7 10,10 20,19 30,29 8,8 17,17 25,25l0 0 1 1 -23 23c-13,14 -27,27 -39,40l0 -1c-66,66 -132,133 -199,199 28,27 56,55 84,83 -21,21 -42,42 -63,63 -50,-47 -98,-97 -147,-146 59,-58 117,-116 176,-175l-3 0c20,-19 41,-39 61,-59 9,-9 18,-18 27,-27 -22,-23 -45,-45 -67,-68l-16 -15zm-1379 83l0 1c-20,21 -41,41 -61,62l0 -1 0 -123 0 -1c20,21 41,41 61,61l0 1zm-61 114c9,-9 18,-19 27,-28l-3 0c22,-20 43,-42 64,-63 21,21 41,43 63,63l0 0 1 1c-28,28 -58,55 -86,83 87,88 175,174 261,262 -48,49 -98,97 -148,145 -20,-21 -40,-41 -60,-62 27,-28 55,-55 83,-83 -67,-68 -135,-135 -202,-203l0 -115zm470 57c28,-29 56,-57 84,-85l0 0c2,-2 4,-4 6,-6 19,-18 37,-37 56,-55l0 0 2 -1c21,21 41,42 63,62l-3 0 1 1c-28,28 -56,55 -83,84 87,87 174,174 261,262 -52,45 -98,98 -149,144 -21,-20 -42,-41 -62,-62 29,-28 59,-54 85,-84 -87,-86 -174,-174 -261,-260zm530 0c27,-29 56,-57 84,-85l-1 0c3,-2 5,-4 7,-6 19,-19 37,-37 55,-55l1 0 0 -1c22,20 42,42 64,62l-2 0 0 1c-27,28 -55,55 -83,83 87,87 173,174 259,261 -48,50 -97,98 -146,147 -21,-21 -42,-42 -62,-63 28,-28 56,-57 84,-84 -87,-87 -173,-174 -260,-260zm529 -1c28,-28 56,-56 84,-84l-2 0 -1 0c21,-19 41,-38 60,-59l0 1 4 -5c22,21 42,43 64,63l0 0 0 1c-22,22 -45,44 -68,66l0 1 -1 0c-5,5 -10,10 -15,15 0,1 0,1 0,2l11 12c2,0 3,0 5,-1l0 5c81,82 163,163 244,245 -49,49 -98,97 -148,145 -20,-21 -40,-41 -61,-62 28,-28 56,-55 84,-83 -67,-68 -136,-135 -202,-203l0 -1c-20,-19 -39,-38 -58,-58zm-1148 92c21,-21 42,-42 62,-64 48,50 98,98 147,147 -87,87 -174,174 -261,260 29,27 58,54 85,83 -21,21 -42,42 -64,63 -48,-48 -98,-96 -145,-146 87,-87 174,-174 261,-262 -28,-27 -57,-53 -85,-81zm530 0c19,-22 40,-44 61,-64 49,49 98,98 147,147 -85,87 -173,171 -258,259 23,31 54,56 82,83 -20,22 -42,43 -63,64 -49,-48 -97,-97 -146,-145 86,-88 173,-174 260,-261 -27,-28 -55,-55 -83,-83zm528 -2c21,-21 42,-41 63,-62l85 85 0 -1c19,21 41,41 61,62l0 0 1 1c-87,87 -174,174 -261,260 28,28 56,56 84,84 -21,21 -42,41 -62,62 -50,-48 -99,-98 -148,-147 87,-87 176,-171 261,-259 -28,-28 -56,-56 -84,-85zm-1439 22c20,21 41,41 61,62 -20,21 -41,41 -61,62l0 -124zm0 175c28,-31 59,-59 88,-89 21,21 42,42 62,63 -28,28 -55,55 -83,83 85,88 172,175 259,261 -48,50 -97,98 -146,147 -21,-21 -42,-42 -62,-63 27,-28 55,-56 84,-83 -67,-69 -135,-136 -202,-204l0 -115zm471 57c49,-48 97,-97 146,-145 22,20 42,41 63,62 -28,28 -56,56 -84,84 85,88 173,173 260,261 -50,48 -97,98 -147,146 -21,-21 -41,-42 -62,-63 28,-28 57,-56 83,-84 -87,-86 -174,-173 -259,-261zm529 1c49,-49 97,-97 146,-146 20,21 41,42 63,61 -27,29 -56,57 -84,85 87,87 173,174 260,261 -49,48 -97,97 -146,146 -21,-21 -42,-42 -62,-63 28,-28 55,-56 83,-83 -86,-88 -175,-173 -260,-261zm528 -1c20,-18 39,-37 59,-56l0 -1c28,-31 58,-59 87,-89 22,21 42,42 63,63 -28,28 -56,55 -83,83l14 14c0,0 1,0 2,0l0 2c80,83 161,164 243,245 -48,50 -98,98 -146,147 -21,-21 -42,-42 -63,-63 28,-28 56,-56 84,-83 -39,-40 -79,-80 -118,-120l0 1c-47,-49 -95,-95 -142,-143zm-1084 28c49,49 99,97 147,148 -87,86 -173,173 -260,259 27,28 55,56 83,84 -21,21 -42,42 -62,62 -49,-49 -99,-97 -147,-147 87,-86 175,-172 261,-259 -28,-28 -57,-57 -85,-85 21,-21 42,-41 63,-62zm467 62c21,-21 41,-42 62,-62 49,48 98,97 146,146 -86,87 -173,173 -260,260 28,28 56,56 85,85 -22,21 -43,42 -65,63 -48,-49 -98,-98 -146,-147 87,-87 173,-175 262,-260 -28,-29 -57,-56 -84,-85zm528 2c20,-21 42,-42 63,-63 28,28 56,56 85,85l0 -2c19,22 41,42 61,63 -21,21 -42,41 -61,62l0 -1c-67,66 -133,133 -200,199 29,28 58,55 86,84 -21,21 -42,42 -64,63 -49,-49 -97,-98 -147,-146 86,-88 174,-175 261,-262 -27,-28 -56,-54 -84,-82zm-1439 20c20,22 41,42 61,63 -20,21 -41,41 -61,62l0 -125zm0 346c19,21 40,40 60,61 -20,20 -41,40 -60,61l0 -122zm1863 -1178l0 0c-3,3 -7,6 -10,10 -29,28 -57,57 -86,85l0 0 0 0 -18 -17c-15,-15 -30,-30 -45,-44l1 -1 -1 -1c8,-8 17,-16 25,-24 20,-20 40,-40 60,-60 -40,-40 -80,-79 -119,-119l0 1c-47,-48 -95,-94 -141,-143 26,-26 52,-52 78,-78 8,-8 16,-16 25,-25 12,-12 25,-25 38,-38l0 1 4 -5c21,21 42,42 63,63 -22,22 -45,44 -67,67l0 3c-2,0 -3,0 -4,0l-11 11c0,1 0,2 0,3l13 13c0,0 1,0 2,0l0 2c81,81 163,162 244,244 -17,18 -34,35 -51,52zm175 0l3 0c-42,40 -82,82 -124,123 21,20 41,40 61,61 8,7 16,14 24,21 -21,22 -42,43 -64,64l0 0 -1 1c-49,-49 -97,-97 -146,-146l1 -1 -1 -1c86,-87 174,-174 260,-261 -28,-27 -55,-55 -83,-82 20,-22 41,-43 63,-64 48,49 97,98 146,146 -46,47 -93,93 -139,139zm176 0l3 0c-12,10 -23,21 -34,32l8 8c84,84 167,169 252,252l-3 0 2 2c-49,49 -97,98 -146,146 -21,-21 -42,-42 -62,-63 27,-27 55,-55 83,-83 -31,-32 -62,-63 -93,-95 -43,-43 -85,-85 -128,-128l-38 -39 0 0 -1 -1c49,-48 97,-97 146,-145 21,21 42,41 63,62 -17,17 -35,34 -52,52zm178 0l1 0c-4,3 -7,5 -10,8l0 1c-8,7 -15,14 -23,22 -21,21 -42,43 -64,64l-11 -11c-12,-12 -24,-24 -36,-36l0 0 -15 -15c9,-10 19,-20 29,-30 18,-18 36,-36 55,-54 -86,-88 -174,-174 -260,-262 49,-48 97,-97 146,-145 21,21 42,42 63,63 -28,27 -57,53 -85,81 86,89 175,174 260,263 -16,17 -33,34 -50,51zm176 0l2 0c-42,40 -82,82 -123,123 13,14 27,28 41,41 13,13 26,26 39,39l2 2 0 0 1 1c-21,21 -42,43 -64,64 -49,-49 -98,-98 -147,-147 23,-23 46,-47 69,-69 64,-64 129,-128 193,-193 -28,-27 -56,-55 -84,-83 21,-21 42,-42 62,-63 49,48 98,97 147,146 -46,47 -92,93 -138,139zm176 0l0 0c-2,2 -5,4 -8,7 -8,8 -16,16 -25,25 87,86 174,174 261,260l-3 0 3 3c-49,48 -98,96 -148,144 -20,-21 -41,-41 -61,-62 28,-27 56,-55 83,-83 -87,-87 -175,-174 -260,-263l6 -5c47,-47 93,-93 140,-140 21,20 42,41 63,62 -17,17 -34,35 -51,52zm175 0l3 0c-33,31 -65,64 -97,96 -21,-21 -42,-41 -63,-62l1 -2 -1 -1c28,-27 57,-53 84,-82 -85,-88 -173,-175 -259,-263 49,-48 96,-98 146,-145 20,21 41,42 62,62 -28,28 -56,56 -84,84 86,89 174,175 261,262 -18,17 -36,34 -53,51zm71 106l-15 16c28,28 56,55 84,83l0 0 1 1c-22,22 -43,43 -64,64 -49,-49 -98,-98 -147,-147 38,-39 76,-78 115,-116 49,-48 98,-97 146,-146 -28,-27 -55,-55 -83,-82 19,-23 40,-44 61,-64 29,28 58,57 87,86l0 -1c4,4 7,8 11,12l35 35c5,5 10,10 14,14 -4,5 -9,10 -14,15l-34 34c-4,4 -8,8 -12,13l0 -1c-61,61 -123,123 -185,184zm266 -88l0 1 0 0c-5,4 -9,9 -14,13l12 13 0 0c1,0 2,0 2,0l0 1 0 1c13,13 26,25 39,38l0 0c43,43 86,86 128,129 26,26 53,52 79,78l-3 0 2 2c-48,49 -97,97 -146,146 -21,-21 -42,-42 -62,-63 28,-28 56,-56 84,-84 -8,-8 -16,-16 -24,-24 -32,-32 -64,-64 -97,-96l0 0 0 2c-46,-48 -95,-95 -142,-143 10,-9 19,-19 29,-28 15,-15 29,-29 44,-43 16,-17 33,-34 49,-50 7,-7 14,-14 20,-21l0 1 6 -6c22,20 43,41 64,62 -18,18 -35,35 -53,53l3 0c-7,6 -13,12 -20,18zm-1158 267c-61,60 -121,121 -182,182 28,28 57,56 85,84 -21,21 -42,42 -63,63 -49,-50 -98,-98 -147,-148 58,-58 116,-116 174,-174l0 0c5,-4 9,-9 14,-13 6,-7 13,-13 20,-20 17,-17 35,-35 53,-53 -29,-27 -56,-55 -84,-83l8 -9c18,-19 36,-38 54,-56 49,49 98,98 147,147 -26,27 -52,54 -79,80zm468 -219c47,47 93,93 140,139l0 1 0 0c-26,26 -51,53 -78,78 -60,61 -122,121 -182,182 27,29 55,57 84,84 -20,22 -41,42 -61,63 -51,-47 -99,-98 -149,-146 58,-59 117,-117 175,-175l-1 0c3,-2 5,-5 8,-7 26,-27 53,-53 79,-79 -18,-18 -36,-35 -53,-53 -11,-10 -21,-20 -32,-30 21,-22 42,-43 63,-64l7 7zm461 57l0 -1 -1 -1c21,-20 41,-41 62,-62l0 0 1 0c28,29 57,58 86,87l0 -1 0 -1c20,21 41,41 61,61l0 1 0 1c-20,21 -41,41 -61,62l0 -1 0 -1c-67,66 -133,133 -200,200 28,27 56,55 84,83 -22,21 -43,42 -63,63 -50,-47 -99,-97 -147,-146 58,-58 117,-116 175,-175l-3 0c21,-19 42,-39 62,-59 9,-9 18,-18 27,-27 -23,-23 -46,-45 -68,-68l-15 -15zm-970 254c28,-29 56,-57 84,-85l0 0c2,-2 4,-4 6,-6 19,-18 37,-37 56,-55l0 0 2 -1c20,21 40,42 62,62l-2 0 0 1c-27,28 -56,55 -83,84 87,87 175,174 261,262 -52,45 -98,98 -149,144 -20,-20 -41,-41 -61,-62 28,-28 58,-54 85,-84 -88,-86 -174,-174 -261,-260zm530 0c27,-29 55,-57 83,-85l0 0c2,-2 4,-4 7,-6 18,-19 37,-37 55,-55l0 0 1 -1c21,20 42,42 64,62l-3 0 1 1c-28,28 -56,55 -84,83 87,87 174,174 259,261 -47,50 -97,98 -145,147 -22,-21 -43,-42 -63,-63 29,-28 56,-57 85,-84 -87,-87 -174,-174 -260,-260zm529 -1c28,-28 56,-56 84,-84l-1 0 -2 0c21,-19 40,-38 59,-59l0 2 0 1c2,-2 5,-4 7,-7 21,21 41,43 63,63l0 0 1 1c-28,28 -58,55 -86,83l12 13c1,0 2,-1 3,-1l0 4c82,82 165,163 246,246 -48,49 -98,97 -148,145 -20,-21 -40,-41 -60,-62 27,-28 55,-55 83,-83 -53,-53 -106,-106 -159,-159 -34,-34 -68,-69 -102,-103zm-1148 92c21,-21 42,-42 62,-64 48,50 98,98 146,147 -87,87 -173,174 -260,260 29,27 57,54 85,83 -22,21 -43,42 -64,63 -49,-48 -98,-96 -146,-146 87,-87 175,-174 261,-262 -28,-27 -57,-53 -84,-81zm529 0c20,-22 41,-44 62,-64 49,49 97,98 147,147 -85,87 -173,171 -258,259 22,31 54,56 82,83 -21,22 -42,43 -63,64 -49,-48 -97,-97 -147,-145 86,-88 174,-174 260,-261 -27,-28 -55,-55 -83,-83zm529 -2c21,-21 41,-41 62,-62 29,29 58,58 87,87l0 -3c20,21 41,41 61,62l-1 1 0 0 -51 51c-3,3 -6,7 -9,10l0 0c-67,66 -133,133 -200,199 28,28 56,56 84,84 -21,21 -42,41 -62,62 -50,-48 -99,-98 -148,-147 87,-87 176,-171 261,-259 -28,-28 -57,-56 -84,-85zm-968 254c48,-48 97,-97 145,-145 22,20 43,41 63,62 -28,28 -55,56 -84,84 86,88 174,173 260,261 -49,48 -97,98 -147,146 -20,-21 -41,-42 -61,-63 28,-28 56,-56 83,-84 -87,-86 -174,-173 -259,-261zm529 1c48,-49 97,-97 145,-146 21,21 42,42 64,61 -27,29 -56,57 -85,85 87,87 174,174 261,261 -49,48 -98,97 -146,146 -21,-21 -42,-42 -63,-63 28,-28 56,-56 83,-83 -86,-88 -174,-173 -259,-261zm527 -1c24,-22 47,-44 70,-67 15,-16 31,-31 47,-47 8,-9 17,-17 25,-26l0 1 7 -7c21,21 42,42 62,63 -28,28 -55,55 -83,83l14 14 0 0 0 1c81,83 163,165 245,246 -48,50 -97,98 -146,147 -21,-21 -42,-42 -62,-63 27,-28 55,-56 84,-83 -40,-41 -80,-82 -121,-122l0 3c-46,-49 -95,-95 -142,-143zm-1084 28c49,49 99,97 147,148 -87,86 -173,173 -260,259 28,28 56,56 84,84 -21,21 -42,42 -63,62 -49,-49 -98,-97 -147,-147 87,-86 175,-172 261,-259 -28,-28 -56,-57 -84,-85 21,-21 41,-41 62,-62zm467 62c21,-21 42,-42 63,-62 49,48 97,97 146,146 -87,87 -173,173 -260,260 28,28 56,56 84,85 -21,21 -42,42 -64,63 -49,-49 -98,-98 -147,-147 88,-87 174,-175 263,-260 -28,-29 -57,-56 -85,-85zm529 2c20,-21 41,-42 62,-63 29,29 58,58 87,87l0 -4c20,22 41,42 61,63 -20,21 -41,41 -61,62l0 -3c-67,67 -134,134 -201,201 29,28 58,55 85,84 -21,21 -42,42 -64,63 -48,-49 -97,-98 -146,-146 86,-88 174,-175 261,-262 -27,-28 -57,-54 -84,-82zm425 -812l1 0c-4,3 -7,6 -11,10 -28,28 -57,57 -85,85l-1 0 0 0 -17 -17c-15,-15 -30,-30 -45,-44l0 -1 -1 -1c9,-8 17,-16 26,-24 19,-20 39,-40 59,-60 -40,-40 -80,-80 -121,-120l0 2c-46,-48 -94,-94 -140,-143 46,-48 94,-94 140,-141l0 3c2,-3 5,-5 7,-7 21,21 42,42 62,63 -23,23 -46,46 -69,69l0 1 -1 0 -13 13 14 14 0 0 0 0c82,82 165,164 246,246 -17,18 -34,35 -51,52zm176 0l3 0c-43,40 -83,82 -124,123 20,20 40,40 61,61 7,7 15,14 23,21 -21,22 -42,43 -63,64l-1 0 0 1c-49,-49 -98,-97 -146,-146l0 -1 0 -1c86,-87 173,-174 260,-261 -28,-27 -56,-55 -84,-82 21,-22 42,-43 63,-64 49,49 97,98 146,146 -46,47 -92,93 -138,139zm176 0l2 0c-11,10 -23,21 -34,32l8 8c84,84 168,169 252,252l-3 0 3 2c-49,49 -98,98 -147,146 -20,-21 -41,-42 -62,-63 28,-27 56,-55 83,-83 -30,-32 -61,-63 -92,-95l-1 0c-42,-43 -85,-85 -127,-128l-39 -39 0 0 -1 -1c49,-48 98,-97 146,-145 21,21 42,41 64,62 -18,17 -35,34 -52,52zm178 0l0 0c-3,3 -6,5 -9,8 -8,8 -16,15 -23,23 -22,21 -43,43 -65,64l-10 -11c-13,-12 -25,-24 -37,-36 -5,-5 -10,-10 -15,-15 10,-10 19,-20 29,-30 19,-18 37,-36 55,-54 -85,-88 -174,-174 -260,-262 49,-48 98,-97 146,-145 21,21 42,42 63,63 -27,27 -57,53 -84,81 86,89 175,174 260,263 -17,17 -34,34 -50,51zm175 0l3 0c-42,40 -83,82 -124,123 14,14 28,28 42,41 13,13 25,26 38,39l2 2 0 0 1 1c-21,21 -42,43 -63,64 -49,-49 -98,-98 -147,-147 23,-23 46,-47 69,-69 64,-64 128,-128 192,-193 -28,-27 -55,-55 -83,-83 20,-21 41,-42 61,-63 49,48 98,97 147,146 -46,47 -92,93 -138,139zm176 0l1 0c-3,2 -6,4 -8,7 -9,8 -17,16 -25,25 87,86 173,174 261,260l-3 0 2 3c-48,48 -98,96 -147,144 -21,-21 -41,-41 -62,-62 28,-27 56,-55 84,-83 -87,-87 -175,-174 -260,-263l5 -5c47,-47 94,-93 140,-140 21,20 42,41 63,62 -17,17 -34,35 -51,52zm176 0l2 0c-33,31 -64,64 -97,96 -21,-21 -42,-41 -63,-62l2 -2 -1 -1c28,-27 57,-53 84,-82 -86,-88 -174,-175 -260,-263 49,-48 96,-98 147,-145 20,21 40,42 61,62 -27,28 -55,56 -83,84 85,89 173,175 260,262 -18,17 -35,34 -52,51zm71 106l-16 16c28,28 56,55 84,83l0 0 1 1c-21,22 -42,43 -64,64 -49,-49 -98,-98 -147,-147 39,-39 77,-78 116,-116 48,-48 97,-97 145,-146 -27,-27 -55,-55 -83,-82 19,-23 40,-44 62,-64 49,48 98,97 147,146 -82,82 -164,164 -245,245zm266 -88l0 1c-6,0 -10,2 -12,5l0 0c-1,2 -2,3 -2,4 -2,4 -1,9 2,13 3,2 7,4 12,4l0 1 0 127 0 2c-47,-48 -95,-95 -142,-143 9,-9 19,-19 29,-28 37,-38 76,-75 113,-114l0 110 0 18zm-1159 267c-60,60 -121,121 -181,182 28,28 56,56 84,84 -21,21 -42,42 -62,63 -49,-50 -99,-98 -147,-148 58,-58 116,-116 174,-174l-1 0c5,-4 10,-9 14,-13l20 -20c18,-17 35,-35 53,-53 -28,-27 -56,-55 -84,-83l9 -9c17,-19 35,-38 54,-56 49,49 98,98 147,147 -27,27 -53,54 -80,80zm469 -219c46,47 92,93 139,139l0 1 0 0c-26,26 -51,53 -78,78 -60,61 -121,121 -182,182 28,29 56,57 84,84 -20,22 -41,42 -61,63 -51,-47 -99,-98 -148,-146 58,-59 116,-117 174,-175l0 0c2,-2 5,-5 7,-7 27,-27 53,-53 79,-79 -18,-18 -35,-35 -53,-53 -10,-10 -21,-20 -31,-30 20,-22 41,-43 63,-64l7 7zm460 57l0 -1 -1 -1c21,-20 42,-41 63,-62l0 0 0 0c49,49 98,98 147,147 -87,87 -174,174 -261,261 28,27 56,55 84,83 -21,21 -42,42 -63,63 -50,-47 -98,-97 -147,-146 59,-58 117,-116 176,-175l-3 0c20,-19 41,-39 61,-59 9,-9 18,-18 27,-27 -22,-23 -45,-45 -68,-68l-15 -15zm-970 254c28,-29 56,-57 84,-85l0 0c2,-2 4,-4 6,-6 19,-18 37,-37 56,-55l0 0 2 -1c21,21 41,42 63,62l-3 0 1 1c-28,28 -56,55 -83,84 87,87 175,174 261,262 -52,45 -98,98 -149,144 -21,-20 -42,-41 -62,-62 29,-28 59,-54 85,-84 -87,-86 -174,-174 -261,-260zm530 0c27,-29 56,-57 84,-85l-1 0c3,-2 5,-4 7,-6 19,-19 37,-37 55,-55l1 0 0 -1c22,20 42,42 64,62l-2 0 0 1c-27,28 -55,55 -83,83 87,87 173,174 259,261 -48,50 -97,98 -146,147 -21,-21 -42,-42 -62,-63 28,-28 56,-57 84,-84 -87,-87 -173,-174 -260,-260zm529 -1c28,-28 56,-56 84,-84l-3 0c21,-19 41,-38 60,-59l0 2 0 57 0 68c-21,-1 -22,38 0,28l0 121 0 8c-48,-47 -94,-94 -141,-141zm-1148 92c21,-21 42,-42 62,-64 48,50 99,98 147,147 -87,87 -174,174 -261,260 29,27 58,54 85,83 -21,21 -42,42 -64,63 -48,-48 -98,-96 -145,-146 87,-87 174,-174 261,-262 -28,-27 -57,-53 -85,-81zm530 0c19,-22 40,-44 61,-64 49,49 98,98 147,147 -85,87 -173,171 -258,259 23,31 54,56 82,83 -20,22 -42,43 -63,64 -49,-48 -97,-97 -146,-145 86,-88 173,-174 260,-261 -27,-28 -55,-55 -83,-83zm528 -2c21,-21 42,-41 63,-62 49,49 98,98 147,147 -87,87 -174,174 -261,260 28,28 56,56 84,84 -21,21 -42,41 -62,62 -50,-48 -99,-98 -148,-147 87,-87 176,-171 261,-259 -28,-28 -56,-56 -84,-85zm-968 254c49,-48 97,-97 146,-145 22,20 42,41 63,62 -28,28 -56,56 -84,84 85,88 173,173 260,261 -50,48 -97,98 -147,146 -21,-21 -41,-42 -62,-63 28,-28 57,-56 83,-84 -87,-86 -174,-173 -259,-261zm529 1c49,-49 97,-97 146,-146 20,21 41,42 63,61 -27,29 -56,57 -84,85 87,87 173,174 260,261 -48,48 -97,97 -146,146 -21,-21 -42,-42 -62,-63 28,-28 55,-56 83,-83 -86,-88 -175,-173 -260,-261zm528 -1c49,-45 95,-92 142,-140l0 122c-22,2 -26,39 0,32l0 129c-47,-49 -95,-95 -142,-143zm-1084 28c49,49 99,97 147,148 -87,86 -173,173 -260,259 27,28 55,56 83,84 -21,21 -42,42 -62,62 -49,-49 -99,-97 -147,-147 87,-86 175,-172 261,-259 -28,-28 -57,-57 -85,-85 21,-21 42,-41 63,-62zm467 62c21,-21 41,-42 62,-62 49,48 98,97 146,146 -86,87 -173,173 -260,260 28,28 56,56 85,85 -22,21 -43,42 -65,63 -48,-49 -98,-98 -146,-147 87,-87 173,-175 262,-260 -28,-29 -57,-56 -84,-85zm528 2c20,-21 42,-42 63,-63 48,48 97,97 146,146 -87,87 -174,174 -261,260 29,28 58,55 86,84 -21,21 -42,42 -64,63 -49,-49 -97,-98 -147,-146 86,-88 174,-175 261,-262 -27,-28 -56,-54 -84,-82zm90 252c47,-47 95,-93 141,-141l0 129c-20,1 -20,26 0,27l0 129c-47,-48 -95,-95 -141,-144zm-4606 -2442l3 0c-12,11 -23,22 -34,33l13 13c12,13 25,25 38,38 43,44 87,87 131,131 26,26 52,52 78,78l-3 0 2 2c-48,49 -97,97 -146,146 -21,-21 -42,-42 -62,-63 28,-28 56,-56 84,-84 -8,-8 -16,-16 -23,-24 -60,-59 -120,-119 -179,-179l0 0 0 -91 0 -26c28,-30 58,-59 87,-88 22,20 43,41 64,62 -18,17 -35,35 -53,52zm178 0l1 0c-4,4 -7,7 -11,10 -28,29 -57,57 -85,86l-1 0 0 0 -17 -17c-15,-15 -30,-30 -45,-44l0 -1 -1 -1c9,-8 17,-16 26,-24 19,-20 39,-40 59,-60 -67,-68 -135,-134 -202,-203l0 -115c28,-30 59,-59 88,-88 21,20 42,41 62,62 -27,28 -55,56 -83,84 87,87 174,173 260,260 -17,17 -34,34 -51,51zm176 0l2 0c-42,40 -82,83 -123,123 20,21 40,41 61,62 7,7 15,14 23,21 -21,21 -42,43 -63,64l-1 0 0 0c-49,-48 -98,-97 -146,-146l0 0 0 -1c86,-88 173,-174 260,-261 -28,-27 -56,-55 -84,-83 21,-21 42,-42 63,-63 49,49 97,97 146,146 -46,46 -92,92 -138,138zm176 0l2 0c-11,11 -23,22 -34,33l8 8c84,84 168,169 252,252l-3 0 3 2c-49,48 -98,98 -147,146 -20,-21 -41,-42 -62,-63 28,-28 56,-55 83,-83 -31,-32 -62,-64 -93,-95 -42,-43 -85,-86 -127,-128l-39 -39 0 0 -1 -1c49,-48 97,-97 146,-145 21,20 42,41 64,61 -18,18 -35,35 -52,52zm178 0l0 0c-3,3 -6,6 -9,9 -8,8 -16,15 -23,23 -22,21 -43,43 -65,64l-11 -11c-12,-12 -24,-24 -36,-37 -5,-5 -10,-10 -15,-15 10,-9 19,-19 29,-29 19,-18 37,-36 55,-54 -85,-89 -174,-174 -260,-262 49,-48 98,-97 146,-145 21,20 42,41 63,62 -27,28 -57,54 -84,82 86,88 175,174 260,263 -17,17 -34,34 -50,50zm175 0l3 0c-42,41 -83,83 -124,124 14,13 28,27 42,41l0 1c13,12 26,25 38,38l2 2 0 0 1 1c-21,21 -42,42 -63,63 -49,-48 -98,-98 -147,-147 23,-23 46,-46 69,-68 64,-65 128,-129 192,-193 -28,-28 -55,-55 -83,-83 20,-21 41,-42 61,-64 49,49 98,98 147,147 -46,46 -92,92 -138,138zm176 0l1 0c-3,3 -6,5 -8,8 -9,8 -17,16 -25,24 87,87 173,175 261,261l-3 0 2 3c-49,48 -98,96 -147,144 -21,-21 -41,-41 -62,-62 28,-28 56,-55 84,-83 -87,-88 -175,-174 -260,-263l5 -5c47,-47 94,-93 140,-140 21,20 42,41 63,62 -17,17 -34,34 -51,51zm176 0l2 0c-33,32 -64,65 -97,97 -21,-21 -42,-42 -63,-63l2 -1 -1 -1c28,-27 57,-54 84,-82 -86,-88 -174,-175 -260,-263 49,-48 96,-98 147,-145 20,21 40,42 61,62 -27,28 -55,56 -83,84 85,88 173,175 260,262 -18,17 -35,33 -52,50zm70 108l-15 14c28,28 56,56 84,84l1 1c-21,21 -42,43 -64,63 -49,-48 -98,-97 -147,-147 39,-38 77,-77 116,-115 48,-49 97,-97 145,-146 -27,-27 -55,-55 -83,-82 19,-23 40,-44 62,-65 49,49 98,98 147,147 -82,82 -164,164 -246,246zm267 -89l0 0c-1,0 -2,1 -3,1 -4,4 -8,8 -12,12 0,1 0,2 0,3l10 10c2,0 3,1 5,1l0 1 0 2c11,12 22,23 34,35l2 2c43,43 87,86 129,129 26,26 52,52 79,78l-3 0 2 2c-49,49 -98,97 -146,146 -21,-21 -42,-42 -63,-63 28,-28 56,-56 85,-84 -8,-8 -16,-16 -24,-24 -32,-31 -64,-63 -95,-95l0 1c-47,-49 -95,-95 -142,-143 9,-9 19,-19 29,-28 10,-10 20,-20 30,-30l0 -1c28,-30 58,-59 87,-88 21,20 42,41 63,62 -17,17 -35,35 -52,52l2 0c-6,6 -12,12 -17,17l0 2zm-1159 267c-60,60 -121,121 -181,181 28,29 56,57 84,85 -21,21 -42,42 -62,62 -49,-49 -99,-97 -147,-147 58,-58 116,-116 174,-174l-1 0c5,-4 9,-9 14,-13 7,-7 13,-13 20,-20 18,-17 35,-36 53,-53 -28,-28 -56,-56 -84,-84l9 -8c17,-19 35,-38 54,-56 49,49 98,98 147,147 -27,26 -53,54 -80,80zm469 -219c46,47 92,93 139,139l0 0 0 1c-26,26 -51,52 -78,78 -60,61 -121,121 -182,182 28,28 56,56 84,84 -20,21 -41,42 -61,63 -51,-47 -99,-98 -148,-147 58,-58 116,-116 174,-174l0 0c2,-3 5,-5 8,-8 26,-26 52,-52 78,-78 -18,-18 -35,-35 -53,-53 -10,-10 -21,-20 -31,-30 20,-22 41,-43 63,-64l7 7zm460 56l0 0 -1 -1c21,-21 42,-41 63,-62l0 0 0 0c28,28 56,56 85,85l0 -1c2,3 4,5 6,7 10,10 20,20 30,30 8,8 17,17 25,25l0 0 1 1 -24 23c-13,14 -26,27 -38,40l0 -1c-66,66 -132,132 -199,198 28,28 56,56 84,84 -21,21 -42,42 -63,63 -50,-47 -98,-97 -147,-146 59,-58 117,-117 176,-175l-3 0c20,-19 41,-39 61,-59l27 -27c-22,-23 -45,-45 -67,-68l-16 -16zm-1379 84l0 0c-20,22 -41,42 -61,63l0 -2 0 -122 0 -2c20,21 41,41 61,62l0 1zm-61 114c9,-10 18,-19 27,-28l-3 0c22,-20 43,-42 64,-63 21,21 41,43 63,63l0 0 1 0c-28,29 -58,56 -86,84 87,87 175,174 261,262 -48,49 -98,97 -148,144 -20,-20 -40,-41 -60,-61 27,-28 55,-56 83,-83 -67,-68 -135,-135 -202,-203l0 -115zm470 56c28,-28 56,-56 84,-84l0 0c2,-2 4,-4 6,-6 19,-19 37,-37 56,-56l0 1 2 -2c21,21 41,43 63,63l-3 0 1 1c-28,28 -56,55 -83,84 87,87 174,173 261,261 -52,46 -98,98 -149,145 -21,-21 -42,-41 -62,-62 29,-28 59,-55 85,-84 -87,-87 -174,-174 -261,-261zm530 1c27,-29 56,-57 84,-85l-1 0c3,-2 5,-4 7,-6 19,-19 37,-37 55,-56l1 1 0 -1c22,20 42,42 64,62l-2 0 0 1c-27,28 -55,55 -83,83 87,86 173,174 259,261 -48,50 -97,98 -146,146 -21,-20 -42,-41 -62,-63 28,-27 56,-56 84,-83 -87,-87 -173,-174 -260,-260zm529 -1c28,-28 56,-56 84,-84l-2 0 -1 0c21,-19 41,-39 60,-59l0 1 4 -5c22,21 42,43 64,63l0 0 0 0c-22,23 -45,45 -68,67l0 1 -1 0c-5,5 -10,10 -15,15 0,0 0,1 0,2l11 12c2,0 3,-1 5,-1l0 5c81,82 163,163 244,245 -49,49 -98,97 -148,144 -20,-20 -40,-41 -61,-61 28,-28 56,-56 84,-83 -67,-68 -136,-135 -202,-203l0 -1c-20,-19 -39,-39 -58,-58zm-1148 91c21,-21 42,-42 62,-63 48,49 98,97 147,147 -87,86 -174,174 -261,260 29,27 58,54 85,83 -21,21 -42,42 -64,63 -48,-49 -98,-97 -145,-146 87,-87 174,-174 261,-262 -28,-27 -57,-53 -85,-82zm530 0c19,-22 40,-43 61,-63 49,48 98,98 147,146 -85,88 -173,172 -258,260 23,31 54,56 82,83 -20,22 -42,43 -63,64 -49,-48 -97,-97 -146,-145 86,-88 173,-174 260,-261 -27,-28 -55,-56 -83,-84zm528 -1c21,-21 42,-42 63,-62l85 85 0 -2c19,22 41,42 61,63l0 0 1 1c-87,87 -174,173 -261,260 28,28 56,56 84,84 -21,20 -42,41 -62,62 -50,-48 -99,-98 -148,-147 87,-87 176,-171 261,-260 -28,-27 -56,-55 -84,-84zm-1439 21c20,22 41,42 61,63 -20,21 -41,40 -61,62l0 -125zm0 176c28,-31 59,-59 88,-89 21,21 42,42 62,63 -28,27 -55,55 -83,83 85,88 172,175 259,261 -48,49 -97,98 -146,146 -21,-20 -42,-41 -62,-62 27,-28 55,-56 84,-83 -67,-69 -135,-136 -202,-204l0 -115zm471 57c49,-49 97,-97 146,-145 22,20 42,41 63,62 -28,28 -56,56 -84,83 85,89 173,174 260,262 -50,48 -97,98 -147,145 -21,-21 -41,-42 -62,-63 28,-27 57,-55 83,-84 -87,-85 -174,-172 -259,-260zm529 0c49,-48 97,-96 146,-145 20,21 41,42 63,61 -27,29 -56,57 -84,85 87,87 173,174 260,260 -49,49 -97,98 -146,146 -21,-20 -42,-41 -62,-62 28,-28 55,-56 83,-83 -86,-88 -175,-173 -260,-262zm528 0c20,-19 39,-37 59,-56l0 -1c28,-31 58,-59 87,-89 22,21 42,42 63,63 -28,27 -56,55 -83,83l14 14c0,0 1,0 2,0l0 2c80,83 161,164 243,245 -48,49 -98,98 -146,146 -21,-20 -42,-41 -63,-62 28,-28 56,-56 84,-83 -39,-41 -79,-81 -118,-121l0 2c-47,-49 -95,-95 -142,-143zm-1084 28c49,49 99,97 147,147 -87,87 -173,173 -260,260 27,28 55,56 83,83 -21,21 -42,42 -62,63 -49,-49 -99,-98 -147,-147 87,-87 175,-172 261,-259 -28,-29 -57,-57 -85,-85 21,-21 42,-42 63,-62zm467 61c21,-20 41,-41 62,-61 49,48 98,97 146,146 -86,86 -173,173 -260,260 28,28 56,56 85,84 -22,22 -43,43 -65,64 -48,-49 -98,-98 -146,-147 87,-87 173,-175 262,-260 -28,-29 -57,-56 -84,-86zm528 3c20,-22 42,-43 63,-63 28,28 56,56 85,85l0 -2c19,22 41,42 61,63 -21,20 -42,40 -61,62l0 -1c-67,66 -133,133 -200,199 29,27 58,55 86,83 -21,22 -42,43 -64,64 -49,-49 -97,-98 -147,-146 86,-88 174,-175 261,-262 -27,-28 -56,-54 -84,-82zm-1439 20c20,22 41,42 61,63 -20,20 -41,40 -61,62l0 -125zm0 345c19,21 40,41 60,61 -20,21 -41,40 -60,62l0 -123zm1863 -1178l0 0c-3,4 -7,7 -10,10 -29,29 -57,57 -86,86l0 0 0 0 -18 -17c-15,-15 -30,-30 -45,-44l1 -1 -1 -1c8,-8 17,-16 25,-24 20,-20 40,-40 60,-60 -40,-40 -80,-79 -119,-119l0 1c-47,-48 -95,-95 -141,-144 26,-26 52,-51 78,-77 8,-8 16,-17 25,-25 12,-13 25,-26 38,-39l0 2 4 -5c21,20 42,41 63,62 -22,23 -45,45 -67,68l0 3c-2,0 -3,0 -4,0l-11 11c0,1 0,2 0,3l13 13c0,0 1,0 2,0l0 2c81,81 163,162 244,244 -17,17 -34,34 -51,51zm175 0l3 0c-42,40 -82,83 -124,123 21,21 41,41 61,62 8,7 16,14 24,21 -21,21 -42,43 -64,64l0 0 -1 0c-49,-48 -97,-97 -146,-146l1 0 -1 -1c86,-88 174,-174 260,-261 -28,-27 -55,-55 -83,-83 20,-21 41,-42 63,-63 48,49 97,97 146,146 -46,46 -93,92 -139,138zm176 0l3 0c-12,11 -23,22 -34,33l8 8c84,84 167,169 252,252l-3 0 2 2c-49,48 -97,98 -146,146 -21,-21 -42,-42 -62,-63 27,-28 55,-55 83,-83 -31,-32 -62,-64 -93,-95 -43,-43 -86,-86 -128,-129l-38 -38 0 0 -1 -1c49,-48 97,-97 146,-145 21,20 42,41 63,61 -17,18 -34,35 -52,52zm178 0l1 0c-4,3 -7,6 -10,9 -7,8 -15,15 -23,23 -21,21 -42,43 -64,64l-11 -11c-12,-12 -24,-24 -36,-36 -5,-5 -10,-10 -15,-16 9,-9 19,-19 29,-29 18,-18 36,-36 55,-54 -86,-89 -174,-174 -260,-262 49,-48 97,-97 146,-145 21,20 42,41 63,62 -28,28 -57,54 -85,82 86,88 175,174 260,263 -16,17 -33,34 -50,50zm176 0l2 0c-42,41 -82,83 -123,124 13,13 27,27 41,41 13,13 26,26 39,38l2 3 0 0 1 1c-21,21 -42,42 -64,63 -49,-48 -98,-98 -147,-147 23,-23 46,-46 69,-68 65,-65 129,-129 193,-193 -28,-28 -56,-55 -84,-83 21,-21 42,-42 62,-64 49,49 98,98 147,147 -46,46 -92,92 -138,138zm176 0l0 0c-2,3 -5,5 -8,8 -8,8 -16,16 -25,24 87,87 174,175 261,261l-3 0 3 3c-49,48 -98,96 -148,144 -20,-21 -41,-41 -61,-62 28,-28 56,-55 83,-83 -87,-88 -175,-174 -260,-263l6 -5c47,-47 93,-94 140,-140 21,20 42,41 63,62 -17,17 -34,34 -51,51zm175 0l3 0c-33,32 -65,65 -97,97 -21,-21 -42,-42 -63,-63l1 -1 -1 -1c28,-27 57,-54 84,-82 -85,-88 -173,-175 -259,-263 49,-48 96,-98 146,-145 20,21 41,42 62,62 -28,28 -56,56 -84,84 86,88 174,175 261,262 -18,17 -36,33 -53,50zm71 108l-15 14c28,28 56,56 84,84l0 0 1 1c-22,21 -43,43 -64,63 -49,-48 -98,-97 -147,-147 38,-38 76,-77 115,-115 49,-49 98,-97 146,-146 -28,-27 -55,-55 -83,-82 19,-23 40,-44 61,-65 29,29 58,58 87,87l0 -1c4,4 7,8 11,12l35 35c5,5 10,9 14,14 -4,5 -9,10 -14,15l-34 33c-4,5 -8,9 -12,13l0 0c-62,61 -123,123 -185,185zm266 -89l0 0 0 0c-5,5 -9,10 -14,14l12 13 0 0 0 0c1,0 2,0 2,0l0 1 0 1c12,12 25,24 37,36 43,44 87,87 131,131 26,26 52,52 78,78l-3 0 2 2c-48,49 -97,97 -146,146 -21,-21 -42,-42 -62,-63 28,-28 56,-56 84,-84 -8,-8 -16,-16 -23,-24 -33,-32 -65,-64 -98,-97l0 1 0 2c-46,-49 -95,-95 -142,-143 10,-9 19,-19 29,-28 15,-15 29,-29 44,-44 16,-17 33,-33 49,-49 7,-7 14,-14 20,-21l0 1 6 -6c22,20 43,41 64,62 -18,17 -35,35 -53,52l3 0c-7,6 -13,13 -20,19zm-1158 267c-61,60 -121,121 -182,181 28,29 57,57 85,85 -21,21 -42,42 -63,62 -49,-49 -98,-97 -147,-147 58,-58 116,-116 174,-174l0 0c5,-4 9,-9 14,-13 6,-7 13,-13 20,-20 17,-18 35,-36 53,-53 -29,-28 -56,-56 -84,-84l8 -8c18,-19 36,-38 54,-56 49,49 98,98 147,147 -26,26 -52,54 -79,80zm468 -219c47,47 93,93 140,139l0 0 0 1c-26,26 -51,52 -78,78 -60,61 -122,121 -182,182 27,28 55,56 84,84 -20,21 -41,42 -61,63 -51,-47 -99,-98 -149,-147 58,-58 117,-116 175,-174l-1 0c3,-3 5,-5 8,-8 26,-26 53,-52 79,-78 -18,-18 -36,-35 -53,-53 -11,-10 -21,-20 -32,-30 21,-22 42,-43 63,-64l7 7zm461 56l0 0 -1 -1c21,-21 41,-41 62,-62l0 0 1 0c28,29 57,58 86,86l0 0 0 -2c20,21 41,41 61,62l0 1 0 0c-20,22 -41,42 -61,63l0 -2 0 -1c-67,67 -133,134 -200,200 28,28 56,56 84,84 -22,21 -43,42 -63,63 -50,-47 -99,-97 -147,-146 58,-58 117,-117 175,-175l-3 0c21,-19 41,-39 62,-59 9,-9 18,-18 27,-27 -23,-23 -46,-45 -68,-68l-15 -16zm-970 254c28,-28 56,-56 84,-84l0 0c2,-2 4,-4 6,-6 19,-19 37,-37 56,-56l0 1 2 -2c20,21 40,43 62,63l-2 0 0 1c-27,28 -56,55 -83,84 87,87 175,173 261,261 -52,46 -98,98 -149,145 -20,-21 -41,-41 -61,-62 28,-28 58,-55 85,-84 -88,-87 -174,-174 -261,-261zm530 1c27,-29 55,-57 83,-85l0 0c2,-2 4,-4 7,-6 18,-19 37,-37 55,-56l0 1 1 -1c21,20 42,42 64,62l-3 0 1 1c-28,28 -56,55 -84,83 87,86 174,174 259,261 -47,50 -97,98 -145,146 -22,-20 -43,-41 -63,-63 29,-27 56,-56 85,-83 -87,-87 -174,-174 -260,-260zm529 -1c28,-28 56,-56 84,-84l-1 0 -2 0c21,-19 40,-39 59,-59l0 2 0 1c2,-2 5,-5 7,-7 21,21 41,43 63,63l0 0 1 0c-28,29 -58,56 -86,84l12 13c1,-1 2,-1 3,-1l0 3c82,83 165,164 246,247 -48,49 -98,97 -148,144 -20,-20 -40,-41 -60,-61 27,-28 55,-56 83,-83 -52,-53 -106,-106 -158,-159l0 0 0 0c-35,-34 -69,-69 -103,-103zm-1148 91c21,-21 42,-42 62,-63 48,49 98,97 146,147 -87,86 -173,174 -260,260 29,27 57,54 85,83 -22,21 -43,42 -64,63 -49,-49 -98,-97 -146,-146 87,-87 175,-174 261,-262 -28,-27 -57,-53 -84,-82zm529 0c20,-22 41,-43 62,-63 49,48 97,98 147,146 -85,88 -173,172 -258,260 22,31 54,56 82,83 -21,22 -42,43 -63,64 -49,-48 -97,-97 -147,-145 86,-88 174,-174 260,-261 -27,-28 -55,-56 -83,-84zm529 -1c21,-21 41,-42 62,-62 29,29 58,58 87,86l0 -3c20,22 41,42 61,63l-1 1 0 0 -51 51c-3,3 -6,7 -9,10l0 -1c-67,67 -133,134 -200,200 28,28 56,56 84,84 -21,20 -42,41 -62,62 -50,-48 -99,-98 -148,-147 87,-87 176,-171 261,-260 -28,-27 -57,-55 -84,-84zm-968 254c48,-49 97,-97 145,-145 22,20 43,41 63,62 -28,28 -55,56 -84,83 86,89 174,174 260,262 -49,48 -97,98 -147,145 -20,-21 -41,-42 -61,-63 28,-27 56,-55 83,-84 -87,-85 -174,-172 -259,-260zm529 0c48,-48 97,-96 145,-145 21,21 42,42 64,61 -27,29 -56,57 -85,85 87,87 174,174 261,260 -49,49 -98,98 -146,146 -21,-20 -42,-41 -63,-62 28,-28 56,-56 83,-83 -86,-88 -174,-173 -259,-262zm527 0c24,-22 47,-45 70,-67 15,-16 31,-32 47,-47 8,-9 17,-17 25,-26l0 1c2,-3 5,-5 7,-7 21,21 42,42 62,63 -28,27 -55,55 -83,83l14 14 0 0 0 0c81,83 163,165 245,247 -48,49 -97,98 -146,146 -21,-20 -42,-41 -62,-62 27,-28 55,-56 84,-83 -40,-41 -80,-82 -121,-122l0 3c-46,-49 -95,-95 -142,-143zm-1084 28c49,49 99,97 147,147 -87,87 -173,173 -260,260 28,28 56,56 84,83 -21,21 -42,42 -63,63 -49,-49 -98,-98 -147,-147 87,-87 175,-172 261,-259 -28,-29 -56,-57 -84,-85 21,-21 41,-42 62,-62zm467 61c21,-20 42,-41 63,-61 49,48 97,97 146,146 -87,86 -173,173 -260,260 28,28 56,56 84,84 -21,22 -42,43 -64,64 -49,-49 -98,-98 -147,-147 88,-87 174,-175 263,-260 -28,-29 -57,-56 -85,-86zm529 3c20,-22 41,-43 62,-63 29,28 58,57 87,86l0 -3c20,22 41,42 61,63 -20,20 -41,40 -61,62l0 -3c-67,67 -134,134 -201,201 29,27 58,55 85,83 -21,22 -42,43 -64,64 -48,-49 -97,-98 -146,-146 86,-88 174,-175 261,-262 -27,-28 -57,-54 -84,-82zm425 -813l1 0c-4,4 -7,7 -11,10 -28,29 -57,57 -85,86l-1 0 0 0 -17 -17c-15,-15 -30,-30 -45,-44l0 -1 -1 -1c9,-8 17,-16 26,-24 19,-20 39,-40 59,-60 -40,-40 -80,-80 -121,-121l0 3c-46,-48 -94,-95 -140,-144 46,-47 94,-93 140,-141l0 3c2,-2 5,-4 7,-6 21,20 42,41 62,62 -23,23 -46,46 -69,69l0 2 -1 0 -13 13 14 14 0 0 0 0c82,82 165,164 246,246 -17,17 -34,34 -51,51zm176 0l3 0c-43,40 -83,83 -124,123 20,21 40,41 61,62 7,7 15,14 23,21 -21,21 -42,43 -63,64l-1 0 0 0c-49,-48 -98,-97 -146,-146l0 0 0 -1c86,-88 173,-174 260,-261 -28,-27 -56,-55 -84,-83 21,-21 42,-42 63,-63 49,49 97,97 146,146 -46,46 -92,92 -138,138zm176 0l2 0c-11,11 -23,22 -34,33l8 8c84,84 168,169 252,252l-3 0 3 2c-49,48 -98,98 -147,146 -20,-21 -41,-42 -62,-63 28,-28 56,-55 83,-83 -30,-32 -61,-63 -92,-95l-1 0c-43,-43 -85,-86 -128,-129l-38 -38 0 0 -1 -1c49,-48 98,-97 146,-145 21,20 42,41 64,61 -18,18 -35,35 -52,52zm178 0l0 0c-3,3 -6,6 -9,9 -8,8 -16,15 -23,23 -22,21 -43,43 -65,64l-11 -11c-12,-12 -24,-24 -36,-37 -5,-5 -10,-10 -15,-15 10,-9 19,-19 29,-29 19,-18 37,-36 55,-54 -85,-89 -174,-174 -260,-262 49,-48 98,-97 146,-145 21,20 42,41 63,62 -27,28 -57,54 -84,82 86,88 175,174 260,263 -17,17 -34,34 -50,50zm175 0l3 0c-42,41 -83,83 -124,124 14,13 28,27 42,41 13,13 25,26 38,39l2 2 0 0 1 1c-21,21 -42,42 -63,63 -49,-48 -98,-98 -147,-147 23,-23 46,-46 69,-69 64,-64 128,-128 192,-192 -28,-28 -55,-55 -83,-83 20,-21 41,-42 61,-64 49,49 98,98 147,147 -46,46 -92,92 -138,138zm176 0l1 0c-3,3 -6,5 -8,8 -9,8 -17,16 -25,24 87,87 173,175 261,261l-3 0 2 3c-48,48 -98,96 -147,144 -21,-21 -41,-41 -62,-62 28,-28 56,-55 84,-83 -87,-88 -175,-174 -260,-263l5 -5c47,-47 94,-94 140,-140 21,20 42,41 63,62 -17,17 -34,34 -51,51zm176 0l2 0c-33,32 -64,65 -97,97 -21,-21 -42,-42 -63,-63l2 -1 -1 -1c28,-27 57,-54 84,-82 -86,-88 -174,-175 -260,-263 49,-48 96,-98 147,-145 20,21 40,42 61,62 -27,28 -55,56 -83,84 85,88 173,175 260,262 -18,17 -35,33 -52,50zm70 108l-15 14c28,28 56,56 84,84l0 0 1 1c-21,21 -42,43 -64,63 -49,-48 -98,-97 -147,-147 39,-38 77,-77 116,-115 48,-48 97,-97 145,-146 -27,-27 -55,-55 -83,-82 19,-23 40,-44 62,-65 49,49 98,98 147,147 -82,82 -164,164 -246,246zm267 -89l0 0c-6,1 -10,3 -12,6l0 0c-1,1 -2,3 -2,4 -2,4 -1,9 2,13 3,2 7,4 12,4l0 1 0 127 0 2c-47,-49 -95,-95 -142,-143 9,-9 19,-19 29,-28 37,-38 76,-75 113,-114l0 109 0 19zm-1159 267c-60,60 -121,121 -181,181 28,29 56,57 84,85 -21,21 -42,42 -62,62 -49,-49 -99,-97 -147,-147 58,-58 116,-116 174,-174l-1 0c5,-4 10,-9 14,-13l20 -20c18,-18 35,-36 53,-53 -28,-28 -56,-56 -84,-84l9 -8c17,-19 35,-38 54,-56 49,49 98,98 147,147 -27,26 -53,54 -80,80zm469 -219c46,47 92,93 139,139l0 0 0 1c-26,26 -51,52 -78,78 -60,61 -121,121 -182,182 28,28 56,56 84,84 -20,21 -41,42 -61,63 -51,-47 -99,-98 -148,-147 58,-58 116,-116 174,-174l0 0c2,-3 5,-5 8,-8 26,-26 52,-52 78,-78 -18,-18 -35,-35 -53,-53 -10,-10 -21,-20 -31,-30 20,-22 41,-43 63,-64l7 7zm460 56l0 0 -1 -1c21,-21 42,-41 63,-62l0 0 0 0c49,49 98,98 147,147 -87,87 -174,174 -261,260 28,28 56,56 84,84 -21,21 -42,42 -63,63 -50,-47 -98,-97 -147,-146 59,-58 117,-117 176,-175l-3 0c20,-19 41,-39 61,-59l27 -27c-22,-23 -45,-45 -68,-68l-15 -16zm-970 254c28,-28 56,-56 84,-84l0 0c2,-2 4,-4 6,-6 19,-19 38,-37 56,-56l0 1 2 -2c21,21 41,43 63,63l-3 0 1 1c-28,28 -56,55 -83,84 87,87 175,173 261,261 -52,46 -98,98 -149,145 -21,-21 -42,-41 -62,-62 29,-28 59,-55 85,-84 -87,-87 -174,-174 -261,-261zm530 1c27,-29 56,-57 84,-85l-1 0c3,-2 5,-4 7,-6 19,-19 37,-37 55,-56l1 1 0 -1c22,20 42,42 64,62l-2 0 0 1c-27,28 -55,55 -83,83 87,86 173,174 259,261 -48,50 -97,98 -146,146 -21,-20 -42,-41 -62,-63 28,-27 56,-56 84,-83 -87,-87 -173,-174 -260,-260zm529 -1c28,-28 56,-56 84,-84l-3 0c21,-19 41,-39 60,-59l0 2 0 57 0 68c-21,-1 -22,38 0,28l0 121 0 7c-48,-46 -94,-93 -141,-140zm-1148 91c21,-21 42,-42 62,-63 48,49 99,97 147,147 -87,86 -174,174 -261,260 29,27 58,54 85,83 -21,21 -42,42 -64,63 -48,-49 -98,-97 -145,-146 87,-87 174,-174 261,-262 -28,-27 -57,-53 -85,-82zm530 0c19,-22 40,-43 61,-63 49,48 98,98 147,146 -85,88 -173,172 -258,260 23,31 54,56 82,83 -20,22 -42,43 -63,64 -49,-48 -97,-97 -146,-145 86,-88 173,-174 260,-261 -27,-28 -55,-56 -83,-84zm528 -1c21,-21 42,-42 63,-62 49,49 98,98 147,147 -87,87 -174,173 -261,260 28,28 56,56 84,84 -21,20 -42,41 -62,62 -50,-48 -99,-98 -148,-147 87,-87 176,-171 261,-260 -28,-27 -56,-55 -84,-84zm-968 254c49,-49 97,-97 146,-145 22,20 42,41 63,62 -28,28 -56,56 -84,83 85,89 173,174 260,262 -50,48 -97,98 -147,145 -21,-21 -41,-42 -62,-63 28,-27 57,-55 83,-84 -87,-85 -174,-172 -259,-260zm529 0c49,-48 97,-96 146,-145 20,21 41,42 63,61 -27,29 -56,57 -84,85 87,87 173,174 260,260 -48,49 -97,98 -146,146 -21,-20 -42,-41 -62,-62 28,-28 55,-56 83,-83 -86,-88 -175,-173 -260,-262zm528 0c49,-45 95,-93 142,-140l0 122c-22,2 -26,39 0,32l0 129c-47,-49 -95,-95 -142,-143zm-1084 28c49,49 99,97 147,147 -87,87 -173,173 -260,260 27,28 55,56 83,83 -21,21 -42,42 -62,63 -49,-49 -99,-98 -147,-147 87,-87 175,-172 261,-259 -28,-29 -57,-57 -85,-85 21,-21 42,-42 63,-62zm467 61c21,-20 41,-41 62,-61 49,48 98,97 146,146 -86,86 -173,173 -260,260 28,28 56,56 85,84 -22,22 -43,43 -65,64 -48,-49 -98,-98 -146,-147 87,-87 173,-175 262,-260 -28,-29 -57,-56 -84,-86zm528 3c20,-22 42,-43 63,-63 48,48 97,97 146,146 -87,86 -174,173 -261,260 29,27 58,55 86,83 -21,22 -42,43 -64,64 -49,-49 -97,-98 -147,-146 86,-88 174,-175 261,-262 -27,-28 -56,-54 -84,-82zm90 252c47,-48 95,-94 141,-141l0 129c-20,1 -20,26 0,27l0 128c-47,-48 -95,-94 -141,-143zm-4606 -2442l3 0c-12,11 -23,22 -34,33l12 13c13,13 26,26 39,39l1 0 1 1c43,43 86,86 129,129 26,26 52,52 78,78l-3 0 2 2c-48,48 -97,97 -146,146 -21,-21 -42,-42 -62,-63 28,-28 56,-56 84,-84 -8,-8 -15,-16 -23,-24 -60,-59 -120,-119 -179,-179l0 0 0 -91 0 -26c28,-31 58,-59 87,-88 22,20 43,41 64,62 -18,17 -35,35 -53,52zm178 0l1 0c-4,4 -7,7 -11,10 -28,29 -57,57 -85,86l-1 0 0 0 -17 -17c-15,-15 -30,-30 -45,-45l0 0 -1 -1c9,-8 17,-17 26,-25 19,-20 39,-39 59,-59 -67,-68 -135,-135 -202,-203l0 -115c28,-31 59,-59 88,-89 21,21 42,42 62,63 -27,28 -55,56 -83,83 87,88 174,174 260,261 -17,17 -34,34 -51,51zm176 0l2 0c-42,40 -82,82 -123,123 20,21 40,41 61,61 7,8 15,15 23,21 -21,22 -42,43 -63,65l-1 -1 0 1c-49,-48 -98,-97 -146,-146l0 -1 0 0c86,-88 173,-174 260,-261 -28,-28 -56,-55 -84,-83 21,-21 42,-42 63,-63 49,49 97,97 146,146 -46,46 -92,92 -138,138zm176 0l2 0c-11,11 -23,22 -34,33l8 8c84,84 168,168 252,252l-3 0 3 2c-49,48 -98,97 -147,146 -20,-21 -41,-42 -62,-63 28,-28 56,-56 83,-84 -31,-31 -62,-63 -93,-94 -42,-43 -85,-85 -127,-128l-39 -39 0 0 -1 -1c49,-49 97,-97 146,-146 21,21 42,42 64,62 -18,18 -35,35 -52,52zm178 0l0 0c-3,3 -6,6 -9,9 -8,8 -16,15 -23,22 -22,22 -43,44 -65,65l-11 -11c-12,-12 -24,-24 -36,-37 -5,-5 -10,-10 -15,-15 10,-10 19,-20 29,-29 19,-18 37,-36 55,-55 -85,-88 -174,-173 -260,-261 49,-48 98,-97 146,-146 21,21 42,42 63,63 -27,28 -57,54 -84,82 86,88 175,174 260,263 -17,17 -34,34 -50,50zm175 0l3 0c-42,40 -83,82 -124,123 14,14 28,28 42,42l0 0c13,13 26,26 38,39l2 2 0 0 1 1c-21,21 -42,42 -63,63 -49,-49 -98,-98 -147,-147 23,-23 46,-46 69,-69 64,-64 128,-128 192,-192 -28,-28 -55,-55 -83,-83 20,-21 41,-42 61,-64 49,49 98,98 147,147 -46,46 -92,92 -138,138zm176 0l1 0c-3,3 -6,5 -8,7 -9,9 -17,17 -25,25 87,87 173,174 261,261l-3 0 2 2c-49,49 -98,97 -147,145 -21,-21 -41,-41 -62,-62 28,-28 56,-56 84,-83 -87,-88 -175,-174 -260,-263l5 -6c47,-46 94,-93 140,-140 21,21 42,42 63,63 -17,17 -34,34 -51,51zm176 0l2 0c-33,31 -64,65 -97,97 -21,-21 -42,-42 -63,-63l2 -1 -1 -1c28,-27 57,-54 84,-82 -86,-88 -174,-175 -260,-263 49,-48 96,-98 147,-145 20,21 40,41 61,61 -27,29 -55,57 -83,84 85,89 173,176 260,263 -18,16 -35,33 -52,50zm71 107l-16 15c28,28 56,56 84,84l1 1c-21,21 -42,42 -64,63 -49,-49 -98,-98 -147,-147 39,-38 77,-77 116,-115 48,-49 97,-97 145,-146 -27,-28 -55,-55 -83,-83 19,-22 40,-43 62,-64 49,49 98,98 147,147 -82,82 -164,164 -245,245zm266 -89l0 1c-1,0 -2,0 -3,0 -4,4 -8,9 -12,13 0,1 0,2 0,3l10 10c2,0 3,0 5,0l0 2 0 2c11,12 22,23 34,35l2 2c43,43 87,86 129,129 26,26 52,52 79,78l-3 0 2 2c-49,48 -98,97 -146,146 -21,-21 -42,-42 -63,-63 28,-28 56,-56 85,-84 -8,-8 -16,-16 -23,-24 -33,-31 -65,-63 -96,-95l0 1c-47,-49 -95,-95 -142,-143 9,-10 19,-19 29,-28 10,-10 20,-20 30,-30l0 -1c28,-31 58,-59 87,-88 21,20 42,41 63,62 -17,17 -35,35 -52,52l2 0c-6,6 -12,11 -17,17l0 1zm-1159 267c-60,61 -121,121 -181,182 28,28 56,56 84,85 -21,21 -42,41 -62,62 -49,-49 -99,-98 -147,-147 58,-58 116,-117 174,-174l-1 0c5,-5 9,-9 14,-13l0 -1 20 -19c18,-18 35,-36 53,-53 -28,-28 -56,-56 -84,-84l9 -8c17,-19 35,-38 54,-56 49,49 98,98 147,147 -27,26 -53,54 -80,79zm469 -217c46,46 93,92 139,138l0 0 0 0c-26,27 -51,53 -78,79 -60,60 -121,121 -182,182 28,28 56,56 84,84 -20,21 -41,42 -61,63 -51,-48 -99,-98 -148,-147 58,-58 116,-116 174,-174l0 0c2,-3 5,-5 7,-8 27,-26 53,-52 79,-79 -18,-17 -35,-35 -53,-52 -10,-10 -21,-20 -31,-31 20,-21 41,-43 63,-63l7 7 0 1zm460 55l0 0 -1 -1c21,-21 42,-41 63,-62l0 0 0 0c28,28 56,56 85,84l0 0c2,3 4,5 6,7 10,10 20,20 30,30 8,8 17,16 25,25l0 0 1 1 -24 23c-13,13 -26,26 -38,40l0 -1c-66,66 -132,132 -199,198 28,28 56,56 84,84 -21,20 -42,41 -63,63 -50,-48 -98,-97 -147,-146 59,-59 117,-117 176,-175l-3 0c20,-20 41,-39 61,-59 9,-9 18,-18 27,-28 -22,-22 -45,-44 -67,-67l-16 -16zm-1379 84l0 0c-20,21 -41,42 -61,63l0 -2 0 -123 0 -1c20,21 41,41 61,62l0 1zm-61 114c9,-10 18,-19 27,-28l-3 0c22,-20 43,-42 64,-63 21,21 41,43 63,63l0 0 1 0c-28,29 -58,56 -86,84 87,87 175,174 261,262 -48,49 -98,97 -148,144 -20,-20 -40,-41 -60,-61 27,-28 55,-56 83,-84 -67,-67 -135,-134 -202,-202l0 -115zm470 56c28,-28 56,-56 84,-84l0 0c2,-2 4,-4 6,-6 19,-19 37,-37 56,-56l0 1 2 -2c21,21 41,43 63,63l-3 0 1 0c-28,28 -56,56 -83,84 87,88 174,174 261,262 -52,46 -98,98 -149,145 -21,-21 -42,-42 -62,-63 29,-27 59,-54 85,-84 -87,-86 -174,-173 -261,-260zm530 0c27,-28 56,-56 84,-84l-1 0c3,-2 5,-5 7,-7 19,-18 37,-36 55,-55l1 0 0 0c22,20 42,41 64,62l-2 0 0 0c-27,28 -55,56 -83,84 87,86 173,173 259,261 -48,49 -97,97 -146,146 -21,-20 -42,-41 -62,-63 28,-28 56,-56 84,-84 -87,-86 -173,-173 -260,-260zm529 0c28,-28 56,-56 84,-84l-2 0 -1 0c21,-19 41,-39 60,-59l0 1 4 -5c22,21 42,43 64,63l0 0 0 0c-22,23 -45,45 -68,67l0 1 -1 0c-5,5 -10,10 -15,14 0,1 0,2 0,3l11 12c2,0 3,-1 5,-2l0 6c81,82 163,163 244,245 -49,49 -98,97 -148,144 -20,-20 -40,-41 -61,-61 28,-28 56,-56 84,-84 -67,-67 -136,-134 -202,-202l0 -1c-20,-20 -39,-39 -58,-58zm-1148 91c21,-21 42,-42 62,-64 48,50 98,98 147,148 -87,86 -174,173 -261,260 29,27 58,54 85,83 -21,21 -42,42 -64,63 -48,-49 -98,-97 -145,-146 87,-88 174,-174 261,-262 -28,-28 -57,-54 -85,-82zm530 0c19,-22 40,-43 61,-64 49,49 98,99 147,147 -85,88 -173,172 -258,260 23,31 54,56 82,83 -20,22 -42,43 -63,64 -49,-48 -97,-97 -146,-145 86,-88 173,-174 260,-261 -27,-28 -55,-56 -83,-84zm528 -1c21,-21 42,-42 63,-63l85 86 0 -2c19,22 41,42 61,63l0 0 1 1c-87,87 -174,173 -261,260 28,28 56,56 84,83 -21,21 -42,42 -62,63 -50,-48 -99,-98 -148,-147 87,-87 176,-171 261,-260 -28,-28 -56,-56 -84,-84zm-1439 21c20,22 41,42 61,63 -20,20 -41,40 -61,62l0 -125zm0 175c28,-30 59,-59 88,-88 21,21 42,42 62,63 -28,27 -55,55 -83,83 85,88 172,174 259,261 -48,49 -97,98 -146,146 -21,-21 -42,-41 -62,-62 27,-28 55,-56 84,-83 -67,-69 -135,-136 -202,-205l0 -115zm471 58c49,-49 97,-97 146,-146 22,20 42,41 63,63 -28,27 -56,56 -84,83 85,88 173,174 260,261 -50,49 -97,99 -147,146 -21,-21 -41,-42 -62,-63 28,-28 57,-55 83,-84 -87,-86 -174,-172 -259,-260zm529 0c49,-48 97,-97 146,-145 20,21 41,42 63,60 -27,30 -56,57 -84,86 87,87 173,173 260,260 -49,49 -97,98 -146,146 -21,-20 -42,-41 -62,-63 28,-27 55,-55 83,-83 -86,-87 -175,-173 -260,-261zm528 0c20,-19 39,-38 59,-57l0 -1c28,-30 58,-59 87,-88 22,21 42,42 63,63 -28,27 -56,55 -83,83l14 14c0,0 1,0 2,0l0 2c80,82 161,164 243,245 -48,49 -98,98 -146,146 -21,-21 -42,-41 -63,-62 28,-28 56,-56 84,-83 -39,-41 -79,-81 -118,-121l0 1c-47,-48 -95,-95 -142,-142zm-1084 27c49,49 99,98 147,148 -87,86 -173,173 -260,260 27,28 55,55 83,83 -21,21 -42,42 -62,63 -49,-49 -99,-98 -147,-147 87,-87 175,-172 261,-260 -28,-28 -57,-56 -85,-84 21,-21 42,-42 63,-63zm467 62c21,-20 41,-41 62,-62 49,49 98,98 146,146 -86,87 -173,174 -260,260 28,29 56,57 85,85 -22,22 -43,43 -65,64 -48,-50 -98,-98 -146,-147 87,-87 173,-175 262,-260 -28,-29 -57,-57 -84,-86zm528 3c20,-22 42,-43 63,-64 28,29 56,57 85,85l0 -1c19,22 41,42 61,63 -21,20 -42,40 -61,62l0 -1c-67,66 -133,132 -200,199 29,27 58,55 86,83 -21,22 -42,43 -64,64 -49,-49 -97,-98 -147,-146 86,-89 174,-175 261,-262 -27,-28 -56,-54 -84,-82zm-1439 20c20,22 41,42 61,63 -20,20 -41,40 -61,62l0 -125zm0 345c19,21 40,41 60,61 -20,21 -41,40 -60,61l0 -122zm1863 -1178l0 0c-3,4 -7,7 -10,10 -29,29 -57,57 -86,86l0 0 0 0 -18 -17c-15,-15 -30,-30 -45,-45l1 0 -1 -1c8,-8 17,-17 25,-25 20,-20 40,-39 60,-59 -40,-40 -80,-79 -119,-119l0 1c-47,-48 -95,-95 -141,-144 26,-26 52,-52 78,-78 8,-8 16,-16 25,-24 12,-13 25,-26 38,-39l0 1 4 -5c21,21 42,42 63,63 -22,23 -45,45 -67,67l0 3c-2,0 -3,1 -4,1l-11 11c0,1 0,2 0,3l13 12c0,0 1,1 2,1l0 1c81,82 163,163 244,245 -17,17 -34,34 -51,51zm175 0l3 0c-42,40 -82,82 -124,123 21,21 41,41 61,61 8,8 16,15 24,21 -21,22 -42,43 -64,65l0 -1 -1 1c-49,-48 -97,-97 -146,-146l1 -1 -1 0c86,-88 174,-174 260,-261 -28,-28 -55,-55 -83,-83 20,-21 41,-42 63,-63 48,49 97,97 146,146 -46,46 -93,92 -139,138zm176 0l3 0c-12,11 -23,22 -34,33l8 8c84,84 167,168 252,252l-3 0 2 2c-49,48 -97,97 -146,146 -21,-21 -42,-42 -62,-63 27,-28 55,-56 83,-84 -31,-31 -62,-63 -93,-94 -43,-43 -85,-86 -128,-129l-38 -38 0 0 -1 -1c49,-49 97,-97 146,-146 21,21 42,42 63,62 -17,18 -35,35 -52,52zm178 0l1 0c-4,3 -7,6 -10,9 -7,8 -15,15 -23,22 -21,22 -42,44 -64,65l-11 -11c-12,-12 -24,-24 -36,-37 -5,-5 -10,-10 -15,-15 9,-10 19,-20 29,-29 18,-18 36,-36 55,-55 -86,-88 -174,-173 -260,-261 49,-48 97,-97 146,-146 21,21 42,42 63,63 -28,28 -57,54 -85,82 86,88 175,174 260,263 -16,17 -33,34 -50,50zm176 0l2 0c-42,40 -82,82 -123,123 13,14 27,28 41,42 13,13 26,25 39,38l2 3 0 0 1 1c-21,21 -42,42 -64,63 -49,-49 -98,-98 -147,-147 23,-23 46,-46 69,-69 64,-64 129,-128 193,-192 -28,-28 -56,-55 -84,-83 21,-21 42,-42 62,-64 49,49 98,98 147,147 -46,46 -92,92 -138,138zm176 0l0 0c-2,3 -5,5 -8,7 -8,9 -16,17 -25,25 87,87 174,174 261,261l-3 0 3 2c-49,49 -98,97 -148,145 -20,-21 -41,-41 -61,-62 28,-28 56,-56 83,-83 -87,-88 -175,-174 -260,-263l6 -6c47,-46 93,-93 140,-140 21,21 42,42 63,63 -17,17 -34,34 -51,51zm175 0l3 0c-33,31 -65,65 -97,97 -21,-21 -42,-42 -63,-63l1 -1 -1 -1c28,-27 57,-54 84,-82 -85,-88 -173,-175 -259,-263 49,-48 96,-98 146,-145 20,21 41,41 62,61 -28,29 -56,57 -84,84 86,89 174,176 261,263 -18,16 -36,33 -53,50zm71 107l-15 15c28,28 56,56 84,84l1 1c-22,21 -43,42 -64,63 -49,-49 -98,-98 -147,-147 38,-38 76,-77 115,-115 49,-49 98,-97 146,-146 -28,-28 -55,-55 -83,-83 19,-22 40,-43 61,-64 29,29 58,58 87,87l0 -1c4,4 7,8 11,12l35 34c5,5 10,10 14,15 -4,5 -9,10 -14,15l-34 33c-4,4 -8,9 -12,13l0 -1c-61,62 -123,124 -185,185zm266 -88l0 0 0 0c-5,5 -9,9 -14,14l12 12c1,0 2,0 2,0l0 2 0 0c13,13 25,25 37,38l1 0 1 1c43,43 86,86 128,129 27,26 53,52 79,78l-3 0 2 2c-48,48 -97,97 -146,146 -21,-21 -42,-42 -62,-63 28,-28 56,-56 84,-84 -8,-8 -15,-16 -23,-24 -33,-32 -65,-64 -98,-97l0 1 0 2c-46,-49 -95,-95 -142,-143 10,-10 19,-19 29,-28 15,-15 29,-30 44,-44 16,-17 33,-33 49,-49 7,-7 14,-14 20,-21l0 1 6 -6c22,20 43,41 64,62 -18,17 -35,35 -53,52l3 0c-7,6 -13,12 -20,19zm-1158 266c-61,61 -121,121 -182,182 28,28 57,56 85,85 -21,21 -42,41 -63,62 -49,-49 -98,-98 -147,-147 58,-58 116,-117 174,-174l0 0c5,-5 9,-9 14,-14 6,-6 13,-13 20,-19 17,-18 35,-36 53,-53 -29,-28 -56,-56 -84,-84l8 -8c18,-19 36,-38 54,-56 49,49 98,98 147,147 -26,26 -52,53 -79,79zm469 -218c46,47 92,93 139,139l0 0 0 0c-26,27 -51,53 -78,79 -61,61 -122,121 -182,182 27,28 55,56 84,84 -20,21 -41,42 -61,63 -51,-48 -99,-98 -149,-147 58,-58 117,-116 175,-174l-1 0c3,-3 5,-5 8,-8 26,-26 53,-52 79,-79 -18,-17 -36,-35 -53,-52 -11,-10 -21,-20 -32,-31 21,-21 42,-43 63,-63l8 7zm460 56l0 0 -1 -1c21,-21 41,-41 62,-62l0 0 1 0c28,29 57,57 86,86l0 -1 0 -1c20,21 41,41 61,62l0 1 0 0c-20,21 -41,42 -61,63l0 -2 0 -1c-67,67 -133,134 -200,200 28,28 56,56 84,84 -22,20 -43,41 -63,63 -50,-48 -99,-97 -147,-146 58,-59 117,-117 175,-175l-3 0c21,-20 41,-39 62,-59 9,-9 18,-18 27,-28 -23,-22 -46,-45 -68,-67l-15 -16zm-970 254c28,-28 56,-56 84,-84l0 0c2,-2 4,-4 6,-6 19,-19 37,-37 56,-56l0 1 2 -2c20,21 40,43 62,63l-2 0 0 0c-27,28 -56,56 -83,84 87,88 175,174 261,262 -52,46 -98,98 -149,145 -20,-21 -41,-42 -61,-63 28,-27 58,-54 85,-84 -88,-86 -174,-173 -261,-260zm530 0c27,-28 55,-56 83,-84l0 0c2,-2 4,-4 7,-7 18,-18 37,-36 55,-55l0 0 1 0c21,20 42,41 64,62l-3 0 1 0c-28,28 -56,56 -84,84 87,86 174,173 259,261 -47,49 -97,97 -145,146 -22,-20 -43,-41 -63,-63 29,-28 56,-56 85,-84 -87,-86 -174,-173 -260,-260zm529 0c28,-28 56,-56 84,-84l-1 0 -2 0c21,-19 40,-39 59,-59l0 2 0 1c2,-3 5,-5 7,-7 21,21 41,43 63,63l0 0 1 0c-28,29 -58,56 -86,84l12 12c1,0 2,0 3,-1l0 4c82,82 165,164 246,247 -48,49 -98,97 -148,144 -20,-20 -40,-41 -60,-61 27,-28 55,-56 83,-84 -53,-53 -106,-105 -159,-158 -34,-35 -68,-69 -102,-103zm-1148 91c21,-21 42,-42 62,-64 48,50 98,98 146,148 -87,86 -173,173 -260,260 29,27 57,54 85,83 -22,21 -43,42 -64,63 -49,-49 -98,-97 -146,-146 87,-88 175,-174 261,-262 -28,-28 -57,-54 -84,-82zm529 0c20,-22 41,-43 62,-64 49,49 97,99 147,147 -85,88 -173,172 -258,260 22,31 54,56 82,83 -21,22 -42,43 -63,64 -49,-48 -97,-97 -147,-145 86,-88 174,-174 260,-261 -27,-28 -55,-56 -83,-84zm529 -1c21,-21 41,-42 62,-63 29,29 58,58 87,87l0 -3c20,22 41,42 61,63l-1 1 0 0 -51 51c-3,3 -6,6 -9,10l0 -1c-67,67 -133,133 -200,200 28,28 56,56 84,83 -21,21 -42,42 -62,63 -50,-48 -99,-98 -148,-147 87,-87 176,-171 261,-260 -28,-28 -57,-56 -84,-84zm-968 254c48,-49 97,-97 145,-146 22,20 43,41 63,63 -28,27 -55,56 -84,83 86,88 174,174 260,261 -49,49 -97,99 -147,146 -20,-21 -41,-42 -61,-63 28,-28 56,-55 83,-84 -87,-86 -174,-172 -259,-260zm529 0c48,-48 97,-97 145,-145 21,21 42,42 64,60 -27,30 -56,57 -85,86 87,87 174,173 261,260 -49,49 -98,98 -146,146 -21,-20 -42,-41 -63,-63 28,-27 56,-55 83,-83 -86,-87 -174,-173 -259,-261zm527 0c24,-22 47,-45 70,-68 15,-15 31,-31 47,-46 8,-9 17,-18 25,-26l0 0 7 -6c21,21 42,42 62,63 -28,27 -55,55 -83,83l14 14 0 0 0 0c81,83 163,165 245,247 -48,49 -97,98 -146,146 -21,-21 -42,-41 -62,-62 27,-28 55,-56 84,-83 -40,-41 -80,-82 -121,-123l0 3c-46,-48 -95,-95 -142,-142zm-1084 27c49,49 99,98 147,148 -87,86 -173,173 -260,260 28,28 56,55 84,83 -21,21 -42,42 -63,63 -49,-49 -98,-98 -147,-147 87,-87 175,-172 261,-260 -28,-28 -56,-56 -84,-84 21,-21 41,-42 62,-63zm467 62c21,-20 42,-41 63,-62 49,49 97,98 146,146 -87,87 -173,174 -260,260 28,29 56,57 84,85 -21,22 -42,43 -64,64 -49,-50 -98,-98 -147,-147 88,-87 174,-175 263,-260 -28,-29 -57,-57 -85,-86zm529 3c20,-22 41,-43 62,-64 29,29 58,58 87,87l0 -3c20,22 41,42 61,63 -20,20 -41,40 -61,62l0 -3c-67,67 -134,134 -201,201 29,27 58,55 85,83 -21,22 -42,43 -64,64 -48,-49 -97,-98 -146,-146 86,-89 174,-175 261,-262 -27,-28 -57,-54 -84,-82zm-1356 -2190l17 0c-6,5 -12,11 -17,17l0 2c-1,0 -2,0 -3,0 -4,4 -8,8 -12,12 0,1 0,2 0,4l11 11c1,0 3,0 4,0l0 3c81,82 163,162 243,245 -49,49 -98,98 -146,146 -21,-20 -42,-41 -63,-62 28,-28 56,-56 85,-84 -40,-40 -80,-80 -119,-120l0 1c-47,-48 -95,-95 -142,-142 11,-11 22,-22 33,-33l26 0 83 0zm1586 0l20 0c-7,6 -13,12 -20,19l0 0 0 0c-5,5 -9,9 -14,14l13 13 1 0 0 1c82,82 165,164 245,247 -48,49 -97,98 -146,146 -21,-20 -42,-41 -62,-62 28,-28 56,-56 84,-84 -40,-41 -80,-81 -121,-121l0 2c-46,-48 -95,-95 -142,-142 11,-11 22,-22 34,-33l27 0 81 0zm195 1377l1 0c-4,4 -7,7 -11,10 -29,29 -57,57 -85,86l-1 0 0 0 -17 -17c-15,-15 -30,-30 -45,-45l0 0 -1 -1c9,-8 17,-17 26,-25 19,-20 39,-39 59,-59 -40,-41 -80,-81 -121,-121l0 3c-46,-48 -94,-95 -140,-144 46,-47 94,-93 140,-141l0 3c2,-2 5,-4 7,-7 21,21 42,42 62,63 -23,23 -46,46 -69,69l0 1 -1 0 -13 13 14 15 0 0 0 0c82,82 165,163 246,246 -17,17 -34,34 -51,51zm176 0l3 0c-43,40 -83,82 -124,123 20,21 40,41 61,61 7,8 15,15 23,21 -21,22 -42,43 -63,65l-1 -1 0 1c-49,-48 -98,-97 -146,-146l0 -1 0 0c86,-88 173,-174 260,-261 -28,-28 -56,-55 -84,-83 21,-21 42,-42 63,-63 49,49 97,97 146,146 -46,46 -92,92 -138,138zm176 0l2 0c-11,11 -23,22 -34,33l8 8c84,84 168,168 252,252l-3 0 3 2c-49,48 -98,97 -147,146 -20,-21 -41,-42 -62,-63 28,-28 56,-56 83,-84 -31,-31 -62,-63 -93,-94 -42,-43 -85,-86 -127,-129l-39 -38 0 0 -1 -1c49,-49 98,-97 146,-146 21,21 42,42 64,62 -18,18 -35,35 -52,52zm178 0l0 0c-3,3 -6,6 -9,9 -8,7 -16,15 -23,22 -22,22 -43,44 -65,65l-11 -11c-12,-12 -24,-24 -36,-37l-15 -15c10,-10 19,-19 29,-29 19,-18 37,-36 55,-55 -85,-88 -174,-173 -260,-261 49,-48 98,-97 146,-146 21,21 42,42 63,63 -27,28 -57,54 -84,82 86,88 175,174 260,263 -17,17 -34,34 -50,50zm175 0l3 0c-42,40 -83,82 -124,123 14,14 28,28 42,42 13,13 26,26 38,39l2 2 0 0 1 1c-21,21 -42,42 -63,63 -49,-49 -98,-98 -147,-147 23,-23 46,-46 69,-69 64,-64 128,-128 192,-192 -28,-28 -55,-55 -83,-83 20,-21 41,-42 61,-64 49,49 98,98 147,147 -46,46 -92,92 -138,138zm176 0l1 0c-3,3 -6,5 -8,7 -9,9 -17,17 -25,25 87,87 173,174 261,261l-3 0 2 2c-48,49 -98,97 -147,145 -21,-21 -41,-41 -62,-62 28,-28 56,-56 84,-83 -87,-88 -175,-174 -260,-263l5 -6c47,-46 94,-93 140,-140 21,21 42,42 63,63 -17,17 -34,34 -51,51zm176 0l2 0c-33,31 -64,65 -97,97 -21,-21 -42,-42 -63,-63l2 -1 -1 -1c28,-27 57,-54 84,-82 -86,-88 -174,-175 -260,-263 49,-48 96,-98 147,-145 20,21 40,41 61,61 -27,29 -55,57 -83,84 85,89 173,176 260,263 -18,16 -35,33 -52,50zm71 107l-16 15c28,28 56,56 84,84l1 1c-21,21 -42,42 -64,63 -49,-49 -98,-98 -147,-147 39,-38 77,-77 116,-115 48,-49 97,-97 145,-146 -27,-28 -55,-55 -83,-83 19,-22 40,-43 62,-64 49,49 98,98 147,147 -82,82 -164,164 -245,245zm266 -89l0 1c-6,1 -10,3 -12,6l0 0 -1 0c0,1 -1,2 -1,4 -2,4 -1,9 2,12 3,3 7,4 12,4l0 2 0 127 0 2c-47,-49 -95,-95 -142,-143 9,-10 19,-19 29,-28 37,-38 76,-75 113,-114l0 109 0 18zm-1159 267c-60,61 -121,121 -181,182 28,28 56,56 84,85 -21,21 -42,41 -62,62 -49,-49 -99,-98 -147,-147 58,-58 116,-117 174,-174l-1 0c5,-5 10,-9 14,-14l20 -19c18,-18 35,-36 53,-53 -28,-28 -56,-56 -84,-84l9 -8c17,-19 35,-38 54,-56 49,49 98,98 147,147 -27,26 -53,53 -80,79zm469 -218c46,47 92,93 139,139l0 0 0 0c-26,27 -51,53 -78,79 -60,60 -121,121 -182,182 28,28 56,56 84,84 -20,21 -41,42 -61,63 -51,-48 -99,-98 -148,-147 58,-58 116,-116 174,-174l0 0c2,-3 5,-5 7,-8 27,-26 53,-52 79,-79 -18,-17 -35,-35 -53,-52 -10,-10 -21,-20 -31,-31 20,-21 41,-43 63,-63l7 7zm460 56l0 0 -1 -1c21,-21 42,-41 63,-62l0 0 0 0c49,49 98,98 147,147 -87,87 -174,173 -261,260 28,28 56,56 84,84 -21,20 -42,41 -63,63 -50,-48 -98,-97 -147,-146 59,-59 117,-117 176,-175l-3 0c20,-20 41,-39 61,-59 9,-9 18,-18 27,-28 -22,-22 -45,-44 -67,-67l-16 -16zm-970 254c28,-28 56,-56 84,-84l0 0c2,-2 4,-4 6,-6 19,-19 37,-37 56,-56l0 1 2 -2c21,21 41,43 63,63l-3 0 1 0c-28,28 -56,56 -83,84 87,88 175,174 261,262 -52,46 -98,98 -149,145 -21,-21 -42,-42 -62,-63 29,-27 59,-54 85,-84 -87,-86 -174,-173 -261,-260zm530 0c27,-28 56,-56 84,-84l-1 0c3,-2 5,-4 7,-7 19,-18 37,-36 55,-55l1 0 0 0c22,20 42,41 64,62l-2 0 0 0c-27,28 -55,56 -83,84 87,86 173,173 259,261 -48,49 -97,97 -146,146 -21,-20 -42,-41 -62,-63 28,-28 56,-56 84,-84 -87,-86 -173,-173 -260,-260zm529 0c28,-28 56,-56 84,-84l-3 0c21,-19 41,-39 60,-59l0 2 0 57 0 68c-21,-1 -22,37 0,27l0 121 0 8c-48,-46 -94,-93 -141,-140zm-1148 91c21,-21 42,-42 62,-64 48,50 99,98 147,148 -87,86 -174,173 -261,260 29,27 58,54 85,83 -21,21 -42,42 -64,63 -48,-49 -98,-97 -145,-146 87,-88 174,-174 261,-262 -28,-28 -57,-54 -85,-82zm530 0c19,-22 40,-43 61,-64 49,49 98,99 147,147 -85,88 -173,172 -258,260 23,31 54,56 82,83 -20,22 -42,43 -63,64 -49,-48 -97,-97 -146,-145 86,-88 173,-174 260,-261 -27,-28 -55,-56 -83,-84zm528 -1c21,-21 42,-42 63,-63 49,49 98,99 147,148 -87,87 -174,173 -261,260 28,28 56,56 84,83 -21,21 -42,42 -62,63 -50,-48 -99,-98 -148,-147 87,-87 176,-171 261,-260 -28,-28 -56,-56 -84,-84zm-968 254c49,-49 97,-97 146,-146 22,20 42,41 63,63 -28,27 -56,56 -84,83 85,88 173,174 260,261 -50,49 -97,99 -147,146 -21,-21 -41,-42 -62,-63 28,-28 57,-55 83,-84 -87,-86 -174,-172 -259,-260zm529 0c49,-48 97,-97 146,-145 20,21 41,42 63,60 -27,30 -56,57 -84,86 87,87 173,173 260,260 -48,49 -97,98 -146,146 -21,-20 -42,-41 -62,-63 28,-27 55,-55 83,-83 -86,-87 -175,-173 -260,-261zm528 0c49,-45 95,-93 142,-140l0 122c-22,2 -26,39 0,32l0 128c-47,-48 -95,-95 -142,-142zm-1084 27c49,49 99,98 147,148 -87,86 -173,173 -260,260 27,28 55,55 83,83 -21,21 -42,42 -62,63 -49,-49 -99,-98 -147,-147 87,-87 175,-172 261,-260 -28,-28 -57,-56 -85,-84 21,-21 42,-42 63,-63zm467 62c21,-20 41,-41 62,-62 49,49 98,98 146,146 -86,87 -173,174 -260,260 28,29 56,57 85,85 -22,22 -43,43 -65,64 -48,-50 -98,-98 -146,-147 87,-87 173,-175 262,-260 -28,-29 -57,-57 -84,-86zm528 3c20,-22 42,-43 63,-64 48,49 97,98 146,146 -87,87 -174,174 -261,261 29,27 58,55 86,83 -21,22 -42,43 -64,64 -49,-49 -97,-98 -147,-146 86,-89 174,-175 261,-262 -27,-28 -56,-54 -84,-82zm90 251c47,-47 95,-93 141,-141l0 130c-20,1 -20,26 0,27l0 128c-47,-48 -95,-95 -141,-144zm-1377 -2441l125 0c-34,31 -64,64 -97,96 -21,-21 -42,-42 -63,-63 12,-11 23,-23 35,-33zm177 0l126 0c-43,40 -83,82 -124,123 27,28 55,56 83,83 -21,22 -42,43 -63,64 -49,-48 -98,-97 -146,-146 41,-41 82,-84 124,-124zm176 0l125 0c-11,11 -23,22 -34,33 86,88 173,175 260,262 -49,48 -98,97 -147,145 -20,-20 -41,-41 -62,-62 28,-28 56,-56 83,-84 -85,-88 -172,-174 -259,-261 11,-11 22,-22 34,-33zm176 0l125 0c-33,31 -64,64 -97,96 -20,-21 -41,-42 -62,-63 11,-11 22,-22 34,-33zm178 0l125 0c-43,41 -83,83 -125,124 29,27 57,54 84,83 -21,21 -42,42 -63,63 -49,-49 -98,-98 -147,-147 41,-42 83,-83 126,-123zm175 0l124 0c-12,10 -23,21 -35,32 87,88 176,174 262,263 -48,49 -98,96 -147,144 -21,-20 -41,-41 -62,-61 28,-28 56,-56 84,-84 -87,-87 -175,-173 -260,-262 11,-11 22,-22 34,-32zm176 0l125 0c-33,31 -64,65 -97,96 -21,-20 -42,-41 -63,-62 12,-12 23,-23 35,-34zm176 0l124 0c-41,41 -82,82 -123,123 28,28 56,57 86,84 -21,21 -42,42 -64,63 -49,-49 -98,-98 -147,-147 41,-41 82,-83 124,-123zm175 0l109 0 0 19c-20,1 -20,26 0,27l0 129c-47,-48 -95,-95 -142,-142 11,-11 22,-22 33,-33zm-1118 61c50,47 98,97 147,145 -87,88 -174,174 -260,261 28,28 56,56 84,85 -21,20 -42,41 -62,62 -49,-49 -99,-98 -147,-147 86,-87 173,-174 261,-260 -29,-28 -57,-56 -85,-84 21,-21 42,-41 62,-62zm468 62c20,-21 41,-42 63,-62 48,48 96,97 145,145 -86,88 -173,174 -260,260 28,29 56,57 84,85 -20,21 -41,42 -61,63 -51,-48 -99,-98 -148,-147 86,-87 174,-174 260,-261 -28,-27 -56,-55 -83,-83zm529 0c21,-21 42,-42 62,-63 49,49 98,97 147,147 -87,86 -174,173 -261,260 28,28 56,56 84,83 -21,21 -42,42 -63,64 -50,-48 -98,-97 -147,-147 88,-86 175,-173 261,-261 -28,-27 -55,-55 -83,-83zm-1440 22c4,5 8,9 12,13 8,9 17,17 25,25 8,8 16,16 24,24 -20,21 -41,41 -61,63l0 -3c-67,67 -133,133 -200,200 28,28 56,56 84,83 -22,21 -43,42 -63,64 -50,-48 -99,-97 -147,-147 87,-86 174,-173 261,-261 -28,-27 -56,-55 -83,-83 21,-21 41,-42 62,-63 28,29 57,57 86,86l0 -1zm81 94l7 -7c21,21 42,41 64,61 -28,29 -58,55 -86,84l12 12c1,0 2,0 3,-1l0 4c82,82 165,164 246,246 -48,50 -98,98 -148,145 -20,-21 -40,-41 -60,-61 27,-28 55,-56 83,-84 -53,-53 -106,-106 -159,-159 -34,-34 -68,-68 -102,-102 46,-48 94,-94 140,-142l0 4zm389 138c48,-49 98,-97 146,-146 21,21 42,41 63,62 -28,28 -56,56 -83,84 87,88 175,174 261,262 -52,46 -98,98 -149,145 -21,-21 -42,-42 -62,-63 29,-27 59,-54 85,-84 -87,-86 -174,-173 -261,-260zm530 0c48,-49 97,-97 145,-146 22,20 42,41 63,62 -27,28 -55,56 -83,84 87,86 173,173 259,260 -48,50 -97,98 -146,147 -21,-20 -42,-41 -62,-63 28,-28 56,-56 84,-84 -87,-86 -173,-173 -260,-260zm529 0c47,-48 95,-94 141,-142l0 126c-21,-1 -22,37 0,27l0 121 0 8c-48,-47 -94,-94 -141,-140zm-1148 91c21,-21 42,-42 62,-64 48,50 99,98 147,148 -87,86 -174,173 -261,260 29,27 58,54 85,82 -21,21 -42,43 -64,64 -48,-49 -98,-97 -145,-147 87,-87 174,-174 261,-261 -28,-28 -57,-54 -85,-82zm530 0c19,-22 40,-43 61,-64 49,49 98,98 147,147 -85,87 -173,172 -258,259 23,32 54,57 82,84 -20,21 -42,43 -63,64 -49,-49 -97,-98 -146,-146 86,-87 173,-173 260,-260 -27,-29 -55,-56 -83,-84zm528 -1c21,-21 42,-42 63,-63 49,49 98,98 147,148 -87,86 -174,173 -261,260 28,28 56,55 84,83 -21,21 -42,42 -62,63 -50,-48 -99,-98 -148,-148 87,-86 176,-171 261,-259 -28,-28 -56,-56 -84,-84zm-1439 21c20,22 41,42 61,62l-1 1 0 1 -51 51c-3,3 -6,6 -9,10l0 -1c-67,67 -133,133 -200,200 28,28 56,55 84,83 -21,21 -42,42 -62,63 -50,-48 -99,-98 -148,-148 87,-86 176,-171 261,-259 -28,-28 -57,-56 -84,-84 21,-21 41,-42 62,-63 29,29 58,58 87,87l0 -3zm9 165c15,-16 31,-31 47,-46 8,-9 17,-18 25,-27l0 1 7 -6c21,20 42,41 62,63 -28,27 -55,55 -83,83l14 13 0 0 0 1c81,83 163,165 245,246 -48,50 -97,98 -146,147 -21,-21 -42,-42 -62,-63 27,-27 55,-55 84,-82 -40,-42 -80,-82 -121,-123l0 3c-46,-48 -95,-95 -142,-143 24,-22 47,-44 70,-67zm462 68c49,-49 97,-97 146,-146 22,20 42,41 63,62 -28,28 -56,56 -84,84 85,88 173,174 260,261 -50,49 -97,98 -147,146 -21,-21 -41,-42 -62,-63 28,-28 57,-55 83,-84 -87,-86 -174,-172 -259,-260zm529 0c49,-48 97,-97 146,-145 20,21 41,41 63,60 -27,29 -56,57 -84,86 87,86 173,173 260,260 -48,49 -97,97 -146,146 -21,-21 -42,-42 -62,-63 28,-27 55,-55 83,-83 -86,-87 -175,-173 -260,-261zm528 -1c49,-45 95,-92 142,-140l0 122c-22,2 -26,40 0,32l0 129c-47,-48 -95,-95 -142,-143zm-1084 28c49,49 99,98 147,148 -87,86 -173,173 -260,259 27,29 55,56 83,84 -21,21 -42,42 -62,63 -49,-49 -99,-98 -147,-148 87,-86 175,-172 261,-259 -28,-28 -57,-56 -85,-84 21,-21 42,-42 63,-63zm467 62c21,-21 41,-41 62,-62 49,49 98,97 146,146 -86,87 -173,174 -260,260 28,29 56,57 85,85 -22,22 -43,43 -65,63 -48,-49 -98,-97 -146,-147 87,-86 173,-174 262,-259 -28,-29 -57,-57 -84,-86zm528 3c20,-22 42,-43 63,-64 48,49 97,98 146,146 -87,87 -174,174 -261,260 29,28 58,55 86,84 -21,22 -42,43 -64,63 -49,-49 -97,-97 -147,-146 86,-88 174,-174 261,-261 -27,-29 -56,-54 -84,-82zm-1439 20c20,21 41,41 61,62 -20,21 -41,41 -61,62l0 -2c-67,67 -134,134 -201,200 29,28 58,55 85,84 -21,22 -42,43 -64,63 -48,-49 -97,-97 -146,-146 86,-88 174,-174 261,-261 -27,-29 -57,-54 -84,-82 20,-22 41,-43 62,-64 29,29 58,58 87,87l0 -3zm1529 231c47,-47 95,-93 141,-141l0 129c-20,2 -20,26 0,28l0 128c-47,-48 -95,-95 -141,-144zm-2966 -1064l125 0c-33,31 -64,64 -96,96 -21,-21 -42,-42 -63,-63 11,-11 22,-23 34,-33zm178 0l125 0c-42,40 -82,82 -124,123 28,28 56,56 84,83 -21,22 -42,43 -64,64 -49,-48 -97,-97 -146,-146 42,-41 82,-84 125,-124zm175 0l126 0c-12,11 -23,22 -34,33 85,88 172,175 259,262 -49,48 -97,97 -146,145 -21,-20 -42,-41 -62,-62 27,-28 55,-56 83,-84 -86,-88 -172,-174 -259,-261 11,-11 22,-22 33,-33zm176 0l126 0c-34,31 -64,64 -97,96 -21,-21 -42,-42 -62,-63 11,-11 22,-22 33,-33zm178 0l125 0c-42,41 -83,83 -124,124 28,27 57,54 84,83 -21,21 -42,42 -64,63 -49,-49 -98,-98 -147,-147 42,-42 83,-83 126,-123zm176 0l123 0c-11,10 -23,21 -34,32 86,88 175,174 262,263 -49,49 -98,96 -148,144 -20,-20 -41,-41 -61,-61 28,-28 56,-56 83,-84 -87,-87 -175,-173 -260,-262 12,-11 23,-22 35,-32zm175 0l126 0c-33,31 -65,65 -97,96 -21,-20 -42,-41 -63,-62 11,-12 23,-23 34,-34zm176 0l125 0c-41,41 -82,82 -123,123 28,28 56,57 86,84 -22,21 -43,42 -64,63 -49,-49 -98,-98 -147,-147 41,-41 81,-83 123,-123zm-942 61c49,47 97,97 146,145 -86,88 -173,174 -260,261 28,28 57,56 85,85 -21,20 -42,41 -63,62 -49,-49 -98,-98 -147,-147 87,-87 173,-174 261,-260 -28,-28 -56,-56 -84,-84 21,-21 41,-41 62,-62zm467 62c21,-21 42,-42 63,-62 49,48 97,97 146,145 -86,88 -174,174 -260,260 27,29 55,57 84,85 -20,21 -41,42 -61,63 -51,-48 -99,-98 -149,-147 87,-87 174,-174 261,-261 -28,-27 -56,-55 -84,-83zm-872 107c-13,13 -26,26 -38,40l0 -1c-66,66 -132,132 -199,198 28,28 56,56 84,83 -21,21 -42,42 -63,64 -50,-48 -98,-97 -147,-147 88,-86 175,-173 261,-261 -28,-27 -55,-55 -83,-83 21,-21 42,-42 62,-63 49,49 98,97 147,147l-24 23zm45 7l4 -5c21,21 42,41 64,61 -22,23 -45,45 -68,67l0 1 -1 0c-5,4 -10,9 -15,14 0,1 0,2 0,3l11 12c2,-1 3,-1 5,-2l0 6c81,81 163,162 244,244 -49,50 -98,98 -148,145 -20,-21 -40,-41 -61,-61 28,-28 56,-56 84,-84 -67,-68 -136,-134 -202,-203l0 -1c-20,-19 -39,-38 -58,-57 47,-48 95,-94 141,-142l0 2zm387 140c48,-49 97,-97 146,-146 21,21 42,41 62,62 -27,28 -56,56 -83,84 87,88 175,174 261,262 -52,46 -98,98 -149,145 -20,-21 -41,-42 -61,-63 28,-27 58,-54 85,-84 -88,-86 -174,-173 -261,-260zm530 0c47,-49 97,-97 145,-146 21,20 42,41 63,62 -28,28 -56,56 -84,84 87,86 174,173 259,260 -47,50 -97,98 -145,147 -22,-20 -43,-41 -63,-63 29,-28 56,-56 85,-84 -87,-86 -174,-173 -260,-260zm-619 91c21,-21 42,-42 62,-64 48,50 98,98 146,148 -87,86 -173,173 -260,260 29,27 57,54 85,82 -22,21 -43,43 -64,64 -49,-49 -98,-97 -146,-147 87,-87 175,-174 261,-261 -28,-28 -57,-54 -84,-82zm529 0c20,-22 41,-43 62,-64 49,49 97,98 147,147 -85,87 -173,172 -258,259 22,32 54,57 82,84 -21,21 -42,43 -63,64 -49,-49 -97,-98 -147,-146 86,-87 174,-173 260,-260 -27,-29 -55,-56 -83,-84zm-910 20c19,22 41,42 61,62l0 1 1 1c-87,86 -174,173 -261,260 28,28 56,55 84,83 -21,21 -42,42 -62,63 -50,-48 -99,-98 -148,-148 87,-86 176,-171 261,-259 -28,-28 -56,-56 -84,-84 21,-21 42,-42 63,-63l85 85 0 -1zm0 175c28,-30 58,-59 87,-88 22,20 42,41 63,63 -28,27 -56,55 -83,83l14 14c0,0 1,0 2,-1l0 3c80,82 161,164 243,244 -48,50 -98,98 -146,147 -21,-21 -42,-42 -63,-63 28,-27 56,-55 84,-82 -39,-41 -79,-81 -118,-121l0 1c-47,-48 -95,-95 -142,-143 20,-18 39,-37 59,-56l0 -1zm471 58c48,-49 97,-97 145,-146 22,20 43,41 63,62 -28,28 -55,56 -84,84 86,88 174,174 260,261 -49,49 -97,98 -147,146 -20,-21 -41,-42 -61,-63 28,-28 56,-55 83,-84 -87,-86 -174,-172 -259,-260zm529 0c48,-48 97,-97 145,-145 21,21 42,41 64,60 -27,29 -56,57 -85,86 87,86 174,173 261,260 -49,49 -98,97 -146,146 -21,-21 -42,-42 -63,-63 28,-27 56,-55 83,-83 -86,-87 -174,-173 -259,-261zm-557 27c49,49 99,98 147,148 -87,86 -173,173 -260,259 28,29 56,56 84,84 -21,21 -42,42 -63,63 -49,-49 -98,-98 -147,-148 87,-86 175,-172 261,-259 -28,-28 -56,-56 -84,-84 21,-21 41,-42 62,-63zm467 62c21,-21 42,-41 63,-62 49,49 97,97 146,146 -87,87 -173,174 -260,260 28,29 56,57 84,85 -21,22 -42,43 -64,63 -49,-49 -98,-97 -147,-147 88,-86 174,-174 263,-259 -28,-29 -57,-57 -85,-86zm-910 23c19,21 41,41 61,62 -21,21 -42,41 -61,62l0 -1c-67,67 -133,133 -200,199 29,28 58,55 86,84 -21,22 -42,43 -64,63 -49,-49 -97,-97 -147,-146 86,-88 174,-174 261,-261 -27,-29 -56,-54 -84,-82 20,-22 42,-43 63,-64 28,28 56,57 85,85l0 -1zm-1435 -833l125 0c-34,31 -64,64 -97,96 -21,-21 -42,-42 -63,-63 12,-11 23,-23 35,-33zm177 0l125 0c-42,40 -82,82 -123,123 27,28 55,56 83,83 -21,22 -42,43 -63,64 -49,-48 -98,-97 -146,-146 41,-41 82,-84 124,-124zm176 0l125 0c-11,11 -23,22 -34,33 86,88 173,175 260,262 -49,48 -98,97 -147,145 -20,-20 -41,-41 -62,-62 28,-28 56,-56 83,-84 -85,-88 -172,-174 -259,-261 11,-11 22,-22 34,-33zm176 0l125 0c-33,31 -64,64 -97,96 -20,-21 -41,-42 -62,-63 11,-11 22,-22 34,-33zm178 0l125 0c-43,41 -83,83 -125,124 29,27 57,54 84,83 -21,21 -42,42 -63,63 -49,-49 -98,-98 -147,-147 41,-42 83,-83 126,-123zm175 0l124 0c-12,10 -23,21 -35,32 87,88 176,174 262,263 -49,49 -98,96 -147,144 -21,-20 -41,-41 -62,-61 28,-28 56,-56 84,-84 -87,-87 -175,-173 -260,-262 11,-11 22,-22 34,-32zm176 0l125 0c-33,31 -64,65 -97,96 -21,-20 -42,-41 -63,-62 12,-12 23,-23 35,-34zm176 0l124 0c-41,41 -82,82 -123,123 28,28 56,57 86,84 -21,21 -42,42 -64,63 -49,-49 -98,-98 -147,-147 41,-41 82,-83 124,-123zm-943 61c50,47 98,97 147,145 -87,88 -174,174 -260,261 28,28 56,56 84,85 -21,20 -42,41 -62,62 -49,-49 -99,-98 -147,-147 86,-87 173,-174 261,-260 -29,-28 -57,-56 -85,-84 21,-21 42,-41 62,-62zm468 62c20,-21 41,-42 63,-62 48,48 96,97 145,145 -86,88 -173,174 -260,260 28,29 56,57 84,85 -20,21 -41,42 -61,63 -51,-48 -99,-98 -148,-147 86,-87 174,-174 260,-261 -28,-27 -56,-55 -83,-83zm-911 22c19,22 41,42 61,62 -20,21 -41,41 -61,63l0 -125zm0 175c28,-30 59,-58 88,-88 21,21 42,41 64,61 -28,29 -58,55 -86,84 87,87 175,174 261,261 -48,50 -98,98 -148,145 -20,-21 -40,-41 -60,-61 27,-28 55,-56 83,-84 -67,-68 -135,-134 -202,-203l0 -115zm470 57c48,-49 97,-97 146,-146 21,21 42,41 63,62 -28,28 -56,56 -83,84 87,88 174,174 261,262 -52,46 -98,98 -149,145 -21,-21 -42,-42 -62,-63 29,-27 59,-54 85,-84 -87,-86 -174,-173 -261,-260zm530 0c48,-49 97,-97 145,-146 22,20 42,41 63,62 -27,28 -55,56 -83,84 87,86 173,173 259,260 -48,50 -97,98 -146,147 -21,-20 -42,-41 -62,-63 28,-28 56,-56 84,-84 -87,-86 -173,-173 -260,-260zm-619 91c21,-21 42,-42 62,-64 48,50 98,98 147,148 -87,86 -174,173 -261,260 29,27 58,54 85,82 -21,21 -42,43 -64,64 -48,-49 -98,-97 -145,-147 87,-87 174,-174 261,-261 -28,-28 -57,-54 -85,-82zm530 0c19,-22 40,-43 61,-64 49,49 98,98 147,147 -85,87 -173,172 -258,259 23,32 54,57 82,84 -20,21 -42,43 -63,64 -49,-49 -97,-98 -146,-146 86,-87 173,-173 260,-260 -27,-29 -55,-56 -83,-84zm-911 20c20,22 41,42 61,62 -20,21 -41,41 -61,63l0 -125zm0 175c28,-30 59,-59 88,-88 21,20 42,41 62,63 -28,27 -55,55 -83,83 85,88 172,174 259,260 -48,50 -97,98 -146,147 -21,-21 -42,-42 -62,-63 27,-27 55,-55 84,-82 -67,-69 -135,-137 -202,-205l0 -115zm471 58c49,-49 97,-97 146,-146 22,20 42,41 63,62 -28,28 -56,56 -84,84 85,88 173,174 260,261 -50,49 -97,98 -147,146 -21,-21 -41,-42 -62,-63 28,-28 57,-55 83,-84 -87,-86 -174,-172 -259,-260zm529 0c49,-48 97,-97 146,-145 20,21 41,41 63,60 -27,29 -56,57 -84,86 87,86 173,173 260,260 -49,49 -97,97 -146,146 -21,-21 -42,-42 -62,-63 28,-27 55,-55 83,-83 -86,-87 -175,-173 -260,-261zm-556 27c49,49 99,98 147,148 -87,86 -173,173 -260,259 27,29 55,56 83,84 -21,21 -42,42 -62,63 -49,-49 -99,-98 -147,-148 87,-86 175,-172 261,-259 -28,-28 -57,-56 -85,-84 21,-21 42,-42 63,-63zm467 62c21,-21 41,-41 62,-62 49,49 98,97 146,146 -86,87 -173,174 -260,260 28,29 56,57 85,85 -22,22 -43,43 -65,63 -48,-49 -98,-97 -146,-147 87,-86 173,-174 262,-259 -28,-29 -57,-57 -84,-86zm-911 23c20,21 41,41 61,62 -20,21 -41,41 -61,62l0 -124zm0 345c19,21 40,41 60,61 -20,20 -41,40 -60,61l0 -122z"/>
  </g>
 </g>
</svg></g></pattern></defs>
 <g id="Layer_x0020_1">
  <metadata id="CorelCorpID_0Corel-Layer"/>
  <path fill="#37C9DA" d="M263 62l16 13c29,26 36,67 31,105 -1,10 -7,39 -11,44 8,17 -1,63 -12,80 -20,31 -62,55 -110,51 -57,-5 -99,-36 -106,-89 -2,-13 -3,-47 6,-55 -5,-10 4,-59 5,-71l-34 4c-9,13 -31,76 -35,94 -10,37 -17,75 -11,115 1,7 2,12 3,19 1,7 3,21 6,27 6,15 1,4 3,18 0,3 0,3 0,5 0,0 1,2 1,2 1,4 -2,1 1,3 -2,6 3,11 3,19 0,8 0,16 0,24 0,7 -1,13 -1,21 0,5 1,6 1,11 0,4 0,8 0,12 0,42 8,128 13,172 3,25 5,38 5,64 0,5 1,11 2,15 1,2 1,3 5,4 8,2 22,1 30,1 6,0 9,1 16,1l33 1c6,0 12,0 17,0 27,1 80,4 103,9l47 7 -2 -35c-1,-23 1,-10 -4,-35 -1,-7 -1,-14 -2,-22 -3,-22 -5,-77 -2,-97 1,-9 2,-37 4,-46 2,-15 4,-28 7,-43l9 -42c2,-7 3,-13 5,-20 1,-4 6,-16 5,-19 2,-2 1,-1 3,-5 14,-45 34,-123 36,-168 0,-9 2,-19 2,-29 -1,-47 0,-65 -14,-107 -9,-28 -19,-53 -35,-77 -1,-2 -2,-3 -4,-5l-8 -3c-1,18 -12,23 -27,27z" id="svg-part-1" data-has-pattern="true" data-pattern-id="pattern-svg-part-1-left" data-pattern-size="50" data-pattern-opacity="100" data-pattern-angle="0" data-pattern-view="left"/>
  <path fill="#37C9DA" d="M82 140c-1,12 -10,61 -5,71 16,-36 79,-33 116,-32 32,2 68,0 93,20 6,6 10,15 13,25 4,-5 10,-34 11,-44 5,-38 -2,-79 -31,-105l-16 -13c-4,0 -9,-3 -13,-5 -5,-1 -9,-3 -14,-4 -64,-19 -119,-4 -146,59 -2,6 -6,24 -8,28z" id="svg-part-2"/>
  <g id="_2884961475440">
   <path fill="#A9ABAE" d="M201 46l-119 93c0,0 0,1 0,1 -1,12 -10,61 -5,71 12,-27 50,-32 84,-32l124 -98c-2,-2 -4,-4 -6,-6l-16 -13c-4,0 -9,-3 -13,-5 -5,-1 -9,-3 -14,-4 -12,-4 -24,-6 -35,-7z" id="svg-part-3"/>
   <path fill="black" d="M237 53l-160 127c-1,14 -2,27 0,31 7,-15 22,-24 40,-28l150 -118 -4 -3c-4,0 -9,-3 -13,-5 -4,-1 -8,-2 -13,-4z" id="svg-part-4"/>
  </g>
  <path fill="#201E1E" d="M86 247c0,-18 6,-27 23,-34 26,-10 66,-7 97,-7 27,0 75,2 75,37 0,31 -9,51 -29,67 -18,14 -49,22 -73,22 -18,0 -51,-11 -64,-25 -10,-9 -13,-13 -19,-25 -4,-8 -10,-25 -10,-35zm-9 -36c-9,8 -8,42 -6,55 7,53 49,84 106,89 48,4 90,-20 110,-51 11,-17 20,-63 12,-80 -3,-10 -7,-19 -13,-25 -25,-20 -61,-18 -93,-20 -37,-1 -100,-4 -116,32z" id="svg-part-5"/>
  <path fill="#37C9DA" d="M76 89l-2 3c-1,1 -1,1 -2,3 -1,3 -2,4 -4,7l-14 27c-2,5 -5,9 -6,15l34 -4c2,-4 6,-22 8,-28 27,-63 82,-78 146,-59 5,1 9,3 14,4 4,2 9,5 13,5 15,-4 26,-9 27,-27 -17,-6 -48,-23 -57,-25 -24,-7 -49,-4 -69,4 -39,15 -70,63 -88,75z" id="svg-part-6"/>
  <g clip-path="url(#id0)">
   <g id="_2884961482512">
    <path id="svg-part-7" fill="#37C9DA" d="M297 11l0 -8 -61 16c1,-2 3,-4 5,-4 1,-1 2,-3 3,-5l-75 28c0,-2 4,-7 6,-9l-21 7c-6,2 -13,4 -20,7l-30 11c-2,1 -6,7 -6,8l59 -21 -9 11c-1,1 -2,2 -3,3 -2,3 -4,5 -6,7 -9,10 -10,10 -21,18 -2,1 -4,3 -7,5l-8 5c3,-1 6,-3 8,-4 13,-6 25,-11 34,-23l5 -6c1,-1 1,-2 2,-3 4,-4 5,-7 9,-8l25 -8c5,-2 30,-9 34,-10 -1,2 -11,13 -14,16 -4,4 -10,9 -15,13 -4,2 -35,19 -37,19 1,0 10,-6 12,-8 6,-3 20,-10 24,-16 2,-2 9,-8 10,-10 -4,0 -43,11 -44,12 0,0 -2,2 -2,2l-11 13c-1,3 -2,3 -4,5 -5,5 -19,10 -25,13 -3,0 -5,1 -7,2 -2,1 -5,2 -7,3 2,-2 4,-3 6,-5 5,-4 11,-10 17,-13 3,-2 9,-7 10,-10 3,-4 5,-8 8,-13 -2,1 -19,8 -23,9 -7,3 -15,6 -22,9 -3,1 -3,1 -5,3l-11 13c-4,4 -14,14 -15,17l59 -13 -6 7c5,0 21,-5 26,-7 9,-2 30,-7 38,-9 4,-2 8,-4 12,-5 20,-7 39,-14 59,-22 4,-1 8,-3 12,-4 2,-1 4,-1 6,-2 2,-1 4,-1 5,-3l12 -22c1,-1 6,-8 7,-10 -6,2 -33,11 -41,14 -5,2 -25,8 -29,10 -3,3 -4,5 -7,8 -4,5 -8,9 -13,14 -5,5 -8,9 -16,11 -7,2 -14,4 -21,6l-21 5c3,-3 14,-6 20,-8 17,-5 24,-5 37,-17 6,-4 9,-9 13,-15 5,-6 7,-10 16,-12 4,-1 8,-2 11,-3 4,-1 7,-2 11,-3 11,-3 32,-9 42,-11zm-247 135c0,1 1,0 0,1l0 0c5,-1 10,-5 13,-7 2,-2 11,-9 11,-10 -5,1 -10,3 -15,4l-11 2c-1,1 -2,1 -2,3l21 -5c-5,4 -9,9 -17,12zm128 -242l-16 0c-1,1 -2,2 -3,2 -1,1 -6,10 -7,11 2,0 5,-2 7,-3l12 -6c2,-1 5,-3 7,-4zm51 18c0,1 0,1 0,1l38 -19 -13 0c-1,2 -25,18 -25,18zm-194 226l0 2c3,0 5,0 7,0 2,0 3,-1 5,-2 0,-1 -1,0 0,-1 0,0 1,0 1,0 1,-1 1,-1 2,-1 3,-2 10,-5 11,-9 -5,1 -10,2 -14,3 -7,2 -7,6 -12,8zm126 -194l1 0 31 -22c8,-6 20,-19 25,-28l-8 0c-8,15 -36,37 -49,50zm45 122c1,0 0,0 1,0 4,0 31,-8 43,-8 9,-1 20,2 29,3 3,1 3,1 5,-1 2,-1 6,-4 7,-5 -4,0 -6,2 -11,1 -12,-3 -19,-8 -35,-5 -11,1 -32,13 -39,15zm-138 50c0,1 0,0 0,0 22,-8 18,-5 34,-20 3,-3 5,-2 11,-3 4,-1 32,-6 33,-6l-9 8c-4,3 -6,5 -11,7 -2,1 -21,8 -24,9 3,-3 12,-5 16,-7 3,-2 5,-3 8,-4 1,-2 4,-4 6,-6 -1,0 -16,2 -18,2 -3,1 -6,2 -9,2 -3,0 -3,0 -4,2 -4,4 -11,11 -16,12 -3,1 -15,5 -17,5 -1,0 0,0 -2,1 -1,0 -2,0 -3,1 1,-2 3,-3 4,-4 1,0 12,-7 14,-7 3,-2 4,-3 6,-5 1,-2 4,-5 5,-7l-31 9c-4,1 -4,1 -6,4 -4,2 -15,12 -16,14 7,0 24,-3 34,-4l3 -1c9,-1 21,-6 25,-6 3,-1 6,-1 9,-2 16,-3 22,-4 33,-15 5,-6 2,-3 8,-8l12 -9 -52 12c2,-2 3,-3 4,-5 -2,0 -36,8 -42,9 -4,1 -8,1 -10,6l40 -9c-1,2 -15,14 -16,15 -2,1 -17,9 -19,10zm89 -103c1,0 0,0 1,0 0,0 1,-1 1,-1 2,0 32,-19 35,-22 5,-3 10,-9 14,-14 4,-6 9,-12 13,-17 2,-3 4,-6 6,-8 1,-3 1,-2 4,-4l46 -18c7,-2 14,-5 20,-8l0 -10 -56 26 8 -14c-2,0 -5,2 -7,3l-46 21c-9,4 -18,7 -27,11 -4,2 -9,4 -13,6 -3,2 -3,3 -5,5 0,2 -3,6 -3,7l77 -34c0,1 -25,36 -30,39 -4,4 -35,30 -38,32zm140 -108l0 -11 -20 0 -43 20c-4,1 -13,6 -15,6 1,-1 2,-2 3,-3 1,-1 3,-2 3,-2 1,-1 0,0 1,-1 2,-2 1,-2 3,-3 0,0 9,-7 11,-8 2,-2 3,-4 5,-5 2,-1 5,-3 6,-4l-29 0 -11 17c-8,10 -20,16 -32,23 -3,1 -5,3 -8,5 -2,1 -7,5 -9,5 0,1 0,0 0,1 -1,0 -1,0 -1,0 -1,1 -1,1 -2,1l-1 1c0,-2 7,-8 8,-10l16 -16c9,-9 17,-13 22,-27l-14 0c0,1 -35,21 -42,25 -3,2 -3,2 -5,5l-28 40c-1,1 -4,4 -5,6l79 -33c-2,4 -6,9 -7,12l80 -37c-1,3 -11,11 -13,14l48 -21zm-138 108c-1,1 0,0 -1,1 0,0 -1,0 -1,1 -1,0 -2,0 -3,0l-1 1c0,-1 0,0 1,-1l13 -13c5,-4 9,-8 14,-13 13,-10 13,-10 19,-22 2,-3 3,-6 5,-9 -2,0 -54,26 -59,28 -3,1 -5,2 -6,4l-35 44c2,0 35,-10 40,-12 3,-1 38,-12 40,-12 -3,3 -6,7 -8,10l81 -28c-3,3 -12,10 -13,12l52 -17 0 -35c-4,4 -12,14 -15,17 -7,6 -12,7 -21,10 -15,6 -30,10 -44,16 -1,0 -2,1 -2,0 6,-5 13,-7 21,-10 13,-5 34,-13 45,-21 3,-2 6,-5 8,-8 2,-1 3,-2 4,-4 2,-1 3,-3 4,-4l0 -16c-3,4 -7,11 -14,18 -15,14 -32,22 -49,32 -2,2 -7,5 -10,6 3,-3 28,-19 32,-22 12,-9 13,-9 21,-20 1,-2 6,-7 6,-8 -2,0 -14,5 -18,6l-36 13c-2,1 -3,1 -4,2 -5,8 -14,20 -19,26 -8,10 -19,14 -31,20l-16 8z"/>
   </g>
  </g>
  <path fill="none" d="M76 89l-2 3c-1,1 -1,1 -2,3 -1,3 -2,4 -4,7l-14 27c-2,5 -5,9 -6,15l34 -4c2,-4 6,-22 8,-28 27,-63 82,-78 146,-59 5,1 9,3 14,4 4,2 9,5 13,5 15,-4 26,-9 27,-27 -17,-6 -48,-23 -57,-25 -24,-7 -49,-4 -69,4 -39,15 -70,63 -88,75z" id="svg-part-8"/>
  <path fill="#201E1E" d="M76 89c18,-12 49,-60 88,-75 20,-8 45,-11 69,-4 9,2 40,19 57,25l8 3c0,-3 -5,-10 -7,-14 -3,-6 -3,-8 -6,-9 -1,-1 -3,-1 -5,-2 -24,-6 -48,-13 -74,-13 -23,0 -34,1 -53,13 -5,2 -9,5 -13,8 -4,3 -9,6 -13,9 -11,9 -12,11 -22,21l-11 12c-4,5 -16,20 -18,26z" id="svg-part-9"/>
 </g>
<g id="pattern-overlay-group"><path fill="url(#pattern-svg-part-1-left)" d="M263 62l16 13c29,26 36,67 31,105 -1,10 -7,39 -11,44 8,17 -1,63 -12,80 -20,31 -62,55 -110,51 -57,-5 -99,-36 -106,-89 -2,-13 -3,-47 6,-55 -5,-10 4,-59 5,-71l-34 4c-9,13 -31,76 -35,94 -10,37 -17,75 -11,115 1,7 2,12 3,19 1,7 3,21 6,27 6,15 1,4 3,18 0,3 0,3 0,5 0,0 1,2 1,2 1,4 -2,1 1,3 -2,6 3,11 3,19 0,8 0,16 0,24 0,7 -1,13 -1,21 0,5 1,6 1,11 0,4 0,8 0,12 0,42 8,128 13,172 3,25 5,38 5,64 0,5 1,11 2,15 1,2 1,3 5,4 8,2 22,1 30,1 6,0 9,1 16,1l33 1c6,0 12,0 17,0 27,1 80,4 103,9l47 7 -2 -35c-1,-23 1,-10 -4,-35 -1,-7 -1,-14 -2,-22 -3,-22 -5,-77 -2,-97 1,-9 2,-37 4,-46 2,-15 4,-28 7,-43l9 -42c2,-7 3,-13 5,-20 1,-4 6,-16 5,-19 2,-2 1,-1 3,-5 14,-45 34,-123 36,-168 0,-9 2,-19 2,-29 -1,-47 0,-65 -14,-107 -9,-28 -19,-53 -35,-77 -1,-2 -2,-3 -4,-5l-8 -3c-1,18 -12,23 -27,27z" id="pattern-overlay-svg-part-1" clip-path="url(#clip-svg-part-1-left)" style="pointer-events: none;"/></g></svg>