<svg xmlns="http://www.w3.org/2000/svg" xmlns:xlink="http://www.w3.org/1999/xlink" xml:space="preserve" width="100%" height="100%" version="1.1" shape-rendering="geometricPrecision" text-rendering="geometricPrecision" image-rendering="optimizeQuality" fill-rule="evenodd" clip-rule="evenodd" viewBox="0 0 159 357"><defs><style data-fonts="true">@font-face { font-family: 'font_1'; src: url('http://127.0.0.1:8000/storage/fonts/5ZIyXfnllvfea2c03RF0XvhB4s9AbiJS5UuPNvgP') format('truetype'); }@font-face { font-family: 'font_2'; src: url('http://127.0.0.1:8000/storage/fonts/HiTBF8CNdPuu1yhMAdkdrafbOxzCEGWugdII81Rt') format('truetype'); }</style></defs>
 <g id="Layer_x0020_1">
  <metadata id="CorelCorpID_0Corel-Layer"/>
  <path id="Body" fill="#0080C5" d="M119 28l7 6c13,11 17,30 14,47 0,5 -3,18 -5,20 4,8 0,29 -5,36 -9,14 -28,25 -50,24 -26,-2 -45,-17 -48,-41 -1,-6 -1,-21 3,-24 -2,-5 2,-27 2,-33l-16 2c-3,6 -13,34 -15,43 -5,17 -8,33 -5,52 0,3 1,5 1,8 1,3 2,10 3,12 3,7 1,2 1,9 0,1 0,1 0,2 1,0 1,1 1,1 0,1 -1,0 0,1 -1,3 2,5 2,9 0,3 0,7 0,10 0,4 -1,6 -1,10 0,2 1,3 1,5 0,2 0,4 0,5 0,20 3,58 5,78 2,11 3,18 3,29 0,2 0,5 1,7 0,1 0,1 2,2 4,1 10,0 14,0 2,0 4,1 7,1l15 0c2,0 5,0 8,0 12,0 35,2 46,4l21 4 -1 -17c0,-10 1,-4 -1,-15 -1,-3 -1,-7 -2,-10 -1,-10 -2,-35 -1,-44 1,-4 2,-17 2,-21 1,-7 2,-13 4,-19l4 -19c0,-3 1,-6 2,-9 1,-2 3,-7 2,-9 1,-1 1,0 1,-2 7,-21 16,-56 17,-76 0,-4 1,-9 1,-13 -1,-22 0,-30 -6,-49 -5,-12 -9,-24 -16,-35 -1,-1 -1,-1 -2,-2l-4 -1c0,8 -5,10 -12,12z"/>
  <path id="Sleeves" fill="#0080C5" d="M37 63c0,6 -4,28 -2,33 7,-17 35,-16 52,-15 15,1 31,0 42,9 3,3 5,7 6,11 2,-2 5,-15 5,-20 3,-17 -1,-36 -14,-47l-7 -6c-2,0 -4,-1 -6,-2 -2,-1 -4,-1 -6,-2 -29,-9 -54,-2 -66,27 -1,2 -3,11 -4,12z"/>
  <path id="Cuffs" fill="#EEAD1E" d="M39 112c0,-8 3,-13 10,-16 12,-4 30,-3 44,-3 12,0 34,1 34,17 0,14 -4,23 -13,30 -8,6 -22,10 -33,10 -8,0 -23,-5 -29,-11 -4,-4 -6,-6 -9,-12 -2,-3 -4,-11 -4,-15zm-4 -16c-4,3 -4,18 -3,24 3,24 22,39 48,41 22,1 41,-10 50,-24 5,-7 9,-28 5,-36 -1,-4 -3,-8 -6,-11 -11,-9 -27,-8 -42,-9 -17,-1 -45,-2 -52,15z"/>
  <path id="Shoulder" fill="#0080C5" d="M34 40l-1 1c0,1 0,1 0,2 -1,1 -1,2 -2,3l-6 12c-2,3 -3,4 -4,7l16 -2c1,-1 3,-10 4,-12 12,-29 37,-36 66,-27 2,1 4,1 6,2 2,1 4,2 6,2 7,-2 12,-4 12,-12 -8,-3 -22,-11 -26,-12 -10,-3 -22,-1 -31,2 -17,7 -32,29 -40,34z"/>
  <path id="Coller" fill="#EEAD1E" d="M34 40c8,-5 23,-27 40,-34 9,-3 21,-5 31,-2 4,1 18,9 26,12l4 1c0,-1 -3,-4 -3,-6 -2,-3 -2,-4 -3,-4 -1,-1 -2,-1 -2,-1 -11,-3 -22,-6 -34,-6 -10,0 -15,1 -24,6 -2,1 -4,2 -6,3 -2,2 -4,3 -5,5 -5,4 -6,4 -11,9l-4 5c-2,3 -8,10 -9,12z"/>
  <path id="Bolts_x0020_Part" fill="#FEFEFE" d="M29 64c10,-38 42,-57 53,-56 8,-2 30,2 47,15 22,17 37,48 6,100l0 0c2,-8 2,-17 0,-22 2,-2 5,-15 5,-20 3,-17 -1,-36 -14,-47l-7 -6c-2,0 -4,-1 -6,-2 -2,-1 -4,-1 -6,-2 -29,-9 -54,-2 -66,27 -1,2 -3,11 -4,12 0,6 -4,28 -2,33 -4,2 -4,14 -3,21l-2 0c-5,-21 -5,-38 -1,-53z"/>
  <path id="Bolts_x0020_Outline" fill="#001331" d="M137 102c1,3 2,7 1,11 9,-16 15,-35 12,-53 -2,-15 -11,-27 -22,-36 -8,-5 -17,-10 -26,-12 -4,-1 -8,-2 -12,-3 -2,0 -5,0 -7,1l0 0 -1 0c-3,-1 -8,1 -10,3 -6,2 -11,6 -15,10 -13,11 -22,25 -26,42 -4,14 -4,28 -1,42 0,-5 1,-9 3,-12 -1,-2 -1,-4 -1,-6 0,-3 1,-7 1,-10 1,-3 1,-7 1,-10 1,-2 1,-4 1,-6l0 0 1 -1c0,0 0,-1 0,-2 1,-1 1,-3 1,-4 1,-1 1,-2 1,-3 1,-1 1,-2 1,-3 5,-11 13,-21 24,-27 14,-6 30,-5 44,-1 2,1 5,1 7,2 1,1 1,1 2,1 1,1 2,1 3,1l1 0 7 6 0 1c14,12 17,31 15,49 0,3 -3,15 -5,20zm-106 -7c0,-2 0,-4 0,-6 0,-4 1,-7 1,-10 0,-4 1,-7 1,-10 1,-2 1,-4 1,-6l0 -1 0 0c1,-1 1,-2 1,-2 0,-2 1,-3 1,-4 0,-1 1,-2 1,-4 0,-1 1,-1 1,-2 1,-3 2,-5 3,-7 -4,7 -7,14 -9,22 -3,11 -3,22 -2,34 0,-2 1,-3 1,-4zm17 -62c4,-4 9,-8 14,-11 15,-6 31,-5 46,-1 2,1 4,1 6,2 1,0 2,1 3,1 1,1 2,1 3,1l0 0 8 7 0 0c14,12 18,32 15,50 0,1 0,3 0,4 -1,2 -1,4 -2,6 0,2 -1,4 -1,6 -1,1 -1,2 -2,4 1,2 2,4 2,6 1,-3 3,-6 4,-10 3,-10 6,-20 6,-31 -1,-2 -1,-4 -1,-7 -3,-14 -11,-26 -22,-35 -8,-5 -17,-10 -26,-12 -3,-1 -7,-2 -11,-2 -2,-1 -5,-1 -7,0l0 0 -1 0c-3,0 -7,1 -10,3 -5,2 -10,6 -15,10 -3,3 -6,6 -9,9z"/>
  <path id="Bolts" fill="#EEAD1E" d="M35 58c-1,1 -1,2 -1,4l0 -1c0,0 0,-1 0,-1 1,-1 1,-1 1,-2zm-2 4c0,1 0,2 0,3 -3,10 -4,20 -3,31 0,-1 1,-1 1,-1 -1,-2 -1,-4 0,-6 0,-4 0,-7 0,-10 1,-4 1,-7 2,-10 0,-2 0,-4 0,-6l0 -1zm25 -38c1,-1 3,-2 4,-2 14,-7 31,-6 46,-2 2,1 4,2 6,2 1,1 2,1 3,2 1,0 2,0 3,1l1 0 8 6 0 0c14,13 17,33 15,51 0,1 -1,3 -1,4 0,2 -1,4 -1,7 -1,1 -1,3 -2,5 0,1 0,2 -1,4 1,1 1,2 1,4 1,-3 2,-5 3,-8 4,-10 6,-20 6,-31 0,-2 0,-4 -1,-7 -2,-14 -10,-26 -22,-34 -7,-6 -16,-10 -25,-13 -3,-1 -7,-1 -11,-2 -2,0 -5,0 -7,0l0 0 -1 0c-3,0 -7,2 -10,3 -5,3 -10,6 -14,10 0,0 0,0 0,0z"/>
 </g>
</svg>