<svg xmlns="http://www.w3.org/2000/svg" xmlns:xlink="http://www.w3.org/1999/xlink" xml:space="preserve" width="100%" height="100%" version="1.1" shape-rendering="geometricPrecision" text-rendering="geometricPrecision" image-rendering="optimizeQuality" fill-rule="evenodd" clip-rule="evenodd" viewBox="0 0 4414 9927"><defs/>
 <g id="Layer_x0020_1">
  <metadata id="CorelCorpID_0Corel-Layer"/>
  <g id="_2884721229808">
   <path fill="black" d="M1101 786l-200 158c-363,323 -456,842 -390,1322 17,126 89,495 144,558 -110,208 5,790 144,1002 258,392 777,691 1387,643 712,-55 1240,-449 1340,-1118 24,-167 28,-595 -80,-691 56,-129 -53,-744 -66,-902l436 50c102,171 382,962 439,1185 121,474 206,944 131,1459 -12,85 -25,150 -37,236 -12,86 -37,260 -68,337 -77,194 -22,52 -41,232 -2,27 -3,26 -7,58 0,4 -3,28 -3,30 -12,39 14,11 -21,34 29,75 -33,142 -33,240 -1,98 1,197 0,296 0,95 13,167 12,273 -1,61 -11,70 -12,131 -1,50 0,102 0,153 0,535 -105,1615 -166,2163 -35,314 -65,487 -63,811 0,58 -7,142 -29,190 -11,26 -7,37 -61,48 -98,20 -279,13 -381,13 -72,0 -113,12 -196,11l-416 11c-71,0 -147,-2 -219,0 -334,10 -999,59 -1294,118l-586 90 23 -448c8,-286 -8,-121 45,-436 15,-92 21,-179 34,-283 34,-268 59,-970 27,-1213 -16,-116 -32,-476 -50,-584 -33,-185 -62,-356 -93,-542l-112 -522c-23,-90 -41,-164 -66,-251 -16,-59 -74,-204 -59,-247 -24,-18 -22,-11 -38,-61 -185,-569 -430,-1553 -454,-2115 -5,-116 -22,-235 -22,-361 1,-602 -10,-820 168,-1351 119,-353 244,-669 445,-977 16,-25 27,-30 43,-55l109 -44c15,226 145,293 336,349z"/>
   <path fill="#ED3237" d="M3380 1758c13,158 122,773 66,902 -206,-459 -995,-423 -1467,-400 -395,19 -852,-1 -1162,251 -84,69 -126,187 -162,313 -55,-63 -127,-432 -144,-558 -66,-480 27,-999 390,-1322l200 -158c47,-8 120,-44 169,-63 59,-22 112,-39 173,-56 805,-236 1502,-46 1833,748 31,74 80,303 104,343z"/>
   <path fill="black" d="M2389 610l0 1638c-147,-1 -289,6 -410,12 -134,6 -275,8 -415,18l0 -1644c297,-71 576,-83 825,-24z"/>
   <path fill="#FEFEFE" d="M3335 3105c0,-215 -77,-335 -291,-420 -326,-130 -836,-94 -1218,-94 -344,0 -951,30 -951,470 0,386 115,647 371,842 224,171 610,273 908,273 238,0 645,-137 817,-308 115,-114 162,-164 240,-318 48,-97 124,-308 124,-445zm111 -445c108,96 104,524 80,691 -100,669 -628,1063 -1340,1118 -610,48 -1129,-251 -1387,-643 -139,-212 -254,-794 -144,-1002 36,-126 78,-244 162,-313 310,-252 767,-232 1162,-251 472,-23 1261,-59 1467,400z"/>
   <path fill="#373435" d="M3455 1116l27 38c12,20 12,20 24,41 18,35 30,53 48,84l178 346c31,67 60,111 84,183l-436 -50c-24,-40 -73,-269 -104,-343 -331,-794 -1028,-984 -1833,-748 -61,17 -114,34 -173,56 -49,19 -122,55 -169,63 -191,-56 -321,-123 -336,-349 214,-71 605,-285 712,-315 303,-86 618,-48 873,53 487,193 886,794 1105,941z"/>
   <path fill="#FEFEFE" d="M881 687c572,-202 1216,-319 1723,-75 523,250 769,740 970,1168l242 28c-2,-3 -3,-7 -4,-10 -226,-385 -489,-815 -927,-1146 -542,-410 -1349,-400 -2103,-113 20,65 53,112 99,148z"/>
   <path fill="#ED3237" d="M837 644c633,-230 1347,-329 1871,-23 490,287 740,756 949,1169l69 8c-217,-402 -471,-856 -937,-1167 -533,-355 -1296,-285 -1981,-29 9,15 18,29 29,42z"/>
   <path fill="#ED3237" d="M3455 1116c-219,-147 -618,-748 -1105,-941 -255,-101 -570,-139 -873,-53 -107,30 -498,244 -712,315l-109 44c10,-43 70,-132 95,-179 39,-73 41,-99 78,-118 13,-6 40,-11 60,-16 298,-82 607,-168 926,-168 292,0 427,14 671,159 60,36 118,66 171,103 50,36 106,78 155,118 137,113 155,133 285,262l128 145c51,65 212,259 230,329z"/>
  </g>
 </g>
</svg>