<svg xmlns="http://www.w3.org/2000/svg" xmlns:xlink="http://www.w3.org/1999/xlink" xml:space="preserve" width="100%" height="100%" version="1.1" shape-rendering="geometricPrecision" text-rendering="geometricPrecision" image-rendering="optimizeQuality" fill-rule="evenodd" clip-rule="evenodd" viewBox="0 0 136 307" preserveAspectRatio="xMidYMid meet"><defs/>
 <g id="Layer_x0020_1">
  <metadata id="CorelCorpID_0Corel-Layer"/>
  <g id="_2474613856400">
   <path fill="#FFEA00" d="M20 15l-8 13c-4,10 -8,22 -10,33 -3,8 -2,32 -1,40 3,21 5,34 11,54l4 15c0,0 1,0 1,0 0,0 0,0 0,0 1,7 3,11 4,19 1,6 2,10 4,18 2,11 2,17 3,29 0,7 0,13 0,21 -1,3 0,7 -1,10l-1 10c0,3 -1,6 -1,9l-1 15c0,3 0,3 0,6 3,0 8,-2 11,-2l8 -1c0,0 1,-1 2,-1 12,-1 25,-3 37,-3 2,0 4,0 6,0 3,0 4,0 7,0 2,0 4,0 6,0 3,0 4,-1 6,-1 3,0 5,0 7,0 2,0 5,0 6,0 1,-1 0,0 1,-1 0,-1 0,-1 0,-2 1,-4 0,-8 1,-12l4 -35c0,-2 0,-3 0,-4 1,-8 1,-17 2,-25 0,-2 0,-5 1,-8 0,-1 0,-3 0,-4 0,-2 0,-2 0,-4 0,-3 0,-6 0,-9 0,-2 1,-5 0,-8 -1,-18 0,-9 2,-24 1,-5 -1,-3 1,-7 2,-4 2,-11 3,-15 3,-21 -1,-41 -7,-60 -2,-4 -3,-8 -5,-13l-5 -12 -14 -2c1,5 4,24 2,28 2,2 3,7 3,10 1,4 0,8 0,12 -3,20 -20,32 -41,34 -17,1 -29,-5 -38,-13 -4,-5 -7,-8 -9,-16 -2,-5 -3,-17 -1,-22 -1,-2 -4,-13 -4,-17 -2,-15 1,-31 12,-41l6 -5c-6,-1 -10,-3 -10,-10l-4 1z" id="svg-part-0" data-part-name="Part 1" class="svg-hoverable" style="cursor: pointer; transition: 0.3s; filter: brightness(1.2);"/>
   <path fill="#177300" d="M34 24l-6 5c-11,10 -14,26 -12,41 0,4 3,15 4,17 1,-4 3,-7 5,-9 10,-8 24,-8 36,-8 15,-1 39,-2 45,12 2,-4 -1,-23 -2,-28 -1,-2 -6,-41 -48,-36 -13,2 -19,6 -22,6z" id="svg-part-1" data-part-name="Part 2" class="svg-hoverable" style="cursor: pointer; transition: 0.3s;"/>
   <path fill="#FFEA00" d="M67 129c-19,0 -40,-10 -40,-32 0,-8 2,-11 10,-14 8,-4 30,-3 40,-3 7,0 19,2 23,7 3,3 3,5 3,9 0,6 -4,14 -7,19 -4,5 -9,8 -15,11 -3,1 -10,3 -14,3zm-47 -42c-2,5 -1,17 1,22 2,8 5,11 9,16 9,8 21,14 38,13 21,-2 38,-14 41,-34 0,-4 1,-8 0,-12 0,-3 -1,-8 -3,-10 -6,-14 -30,-13 -45,-12 -12,0 -26,0 -36,8 -2,2 -4,5 -5,9z" id="svg-part-2" data-part-name="Part 3" class="svg-hoverable" style="cursor: pointer; transition: 0.3s;"/>
   <path fill="#177300" d="M24 14c0,7 4,9 10,10 3,0 9,-4 22,-6 42,-5 47,34 48,36l14 2 -4 -8c0,-1 0,-1 -1,-2l-6 -11 -16 -16c-5,-6 -10,-10 -18,-13 -8,-4 -18,-5 -27,-2 -4,1 -16,7 -22,10z" id="svg-part-3" data-part-name="Part 4" class="svg-hoverable" style="cursor: pointer; transition: 0.3s;"/>
   <path fill="#00990A" d="M40 6l4 1c0,0 -1,-1 -1,-1 0,0 -1,-1 -1,-1 1,0 1,0 1,0l28 10c-1,-1 -2,-3 -3,-4l8 3c3,1 6,2 8,3l7 2 4 4 -20 -7 4 4c0,0 0,0 0,0 -1,0 -2,0 -3,-1 -1,0 -1,-1 -2,-1l-10 -3c-2,-1 -12,-4 -13,-4 0,1 4,5 5,6 0,0 1,1 1,1 0,0 -1,0 -1,0 -1,0 -1,0 -2,1 -1,-1 -1,-2 -2,-3 -2,-3 -3,-4 -6,-5 -2,0 -3,-1 -5,-1 -1,0 -2,-1 -4,-1 0,0 -1,-1 -1,-1 1,0 3,-1 4,-2zm20 12c-1,-1 -1,-1 -1,-2 0,0 3,1 5,2 -1,0 -3,0 -4,0zm37 18c0,0 0,0 0,0 0,0 0,0 0,-1 -3,-5 -8,-9 -14,-13 -1,-1 -1,-1 -1,-2 0,0 7,3 8,4 3,1 6,2 9,3l0 0 7 7c0,0 0,0 1,1l3 5 -12 -3c0,0 -1,-1 -1,-1zm-56 -14c-1,0 -2,-1 -3,-1 -2,-1 -3,-1 -5,-2 0,0 -1,0 -2,-1 -1,0 -1,0 -2,-1l-3 -4c3,-1 6,-3 8,-4 2,1 3,1 3,1 3,1 10,3 12,4 1,1 2,2 2,3 1,1 1,1 2,2 -5,1 -9,2 -12,3zm-8 2c0,0 1,0 1,0 1,0 2,0 3,-1 -1,0 -3,1 -4,1zm66 15c0,0 0,1 0,1l12 3 0 -2c-1,0 -2,0 -3,0 -1,-1 -6,-2 -9,-2zm2 5c0,1 1,1 1,2 1,1 3,1 8,3 0,0 0,0 0,0 -1,0 -7,-3 -7,-4 -1,0 -1,-1 -2,-1zm1 3c1,1 1,2 1,2 1,0 3,1 4,1l1 0c2,0 5,1 8,1l-2 -3c0,-1 0,-1 -1,-2l-1 -1 -11 -4c0,1 1,2 1,3 1,1 2,1 3,2 1,0 5,3 5,3 1,0 1,0 2,1 -1,0 -1,0 -1,0 -1,-1 -1,0 -1,-1 -1,0 -6,-1 -7,-1 0,0 0,-1 -1,-1zm11 8l1 0c-1,0 -3,-2 -4,-3l7 2 -1 -1 -3 -1c-2,0 -4,-1 -5,-1 0,0 3,3 4,3 0,1 0,1 1,1zm2 1l3 0 -1 -2c-1,0 -3,0 -4,-1 0,1 1,2 2,3zm-28 -41c-4,-4 -9,-7 -14,-9 -1,-1 -1,-1 -1,-1l5 5c0,0 0,0 0,0l-1 0c0,0 0,0 -1,0 0,0 0,-1 0,-1 0,0 0,0 0,0l-7 -3c-2,-1 -4,-2 -6,-3 -5,-1 -11,-1 -16,1 0,0 -1,0 -1,0l23 8c-1,-2 -3,-3 -3,-4 0,0 14,4 15,5 1,0 4,1 7,2zm-17 -11c-2,0 -3,0 -4,-1 3,3 8,6 9,6 0,0 0,0 0,0 0,0 0,0 0,0 0,0 -3,-2 -5,-5z" id="svg-part-4" data-part-name="Part 5" class="svg-hoverable" style="cursor: pointer; transition: 0.3s;"/>
   <path fill="#FFEA00" d="M20 15l4 -1c6,-3 18,-9 22,-10 9,-3 19,-2 27,2 8,3 13,7 18,13l16 16c-2,-5 -14,-18 -18,-21 -4,-4 -7,-6 -12,-9 -2,-1 -4,-2 -6,-3 -12,-5 -32,0 -45,4 -2,0 0,0 -1,0 0,0 -1,2 -1,2 0,0 0,1 -1,1 0,1 -1,2 -1,3 -1,1 -1,2 -2,3z" id="svg-part-5" data-part-name="Part 6" class="svg-hoverable" style="cursor: pointer; transition: 0.3s;"/>
  </g>
  <path fill="#FFEA00" d="M117 140c-1,0 -1,0 -1,1 0,1 0,1 1,1 0,0 1,0 1,-1 0,-1 -1,-1 -1,-1zm-5 3c0,0 -1,0 -1,1 0,0 1,1 1,1 1,0 1,-1 1,-1 0,-1 0,-1 -1,-1zm1 19c0,0 -1,1 -1,1 0,1 1,1 1,1 1,0 1,0 1,-1 0,0 0,-1 -1,-1zm0 1c0,0 0,0 0,0 0,0 0,0 0,0 1,0 1,0 1,0 0,0 0,0 -1,0zm0 -6c0,0 -1,1 -1,1 0,1 1,1 1,1 1,0 1,0 1,-1 0,0 0,-1 -1,-1zm0 1c0,0 0,0 0,0 0,0 0,1 0,1 0,0 0,-1 0,-1 0,0 0,0 0,0zm0 -6c-1,0 -1,1 -1,1 0,1 0,1 1,1 0,0 1,0 1,-1 0,0 -1,-1 -1,-1zm0 1c0,0 0,0 0,0 0,1 0,1 0,1 0,0 0,0 0,-1 0,0 0,0 0,0zm0 -6c-1,0 -1,1 -1,1 0,1 0,1 1,1 0,0 1,0 1,-1 0,0 -1,-1 -1,-1zm0 1c-1,0 -1,0 -1,0 0,1 0,1 1,1 0,0 0,0 0,-1 0,0 0,0 0,0zm-1 -5c0,0 0,0 0,1 0,0 0,0 0,0 1,0 1,0 1,0 0,-1 0,-1 -1,-1zm6 21c-1,0 -1,1 -1,1 0,1 0,1 1,1 1,0 1,0 1,-1 0,0 0,-1 -1,-1zm0 1c0,0 0,0 0,0 0,1 0,1 0,1 0,0 0,0 0,-1 0,0 0,0 0,0zm0 -5c-1,0 -1,0 -1,1 0,0 0,1 1,1 0,0 1,-1 1,-1 0,-1 -1,-1 -1,-1zm0 0c0,0 -1,0 -1,1 0,0 1,0 1,0 0,0 0,0 0,0 0,-1 0,-1 0,-1zm-1 -5c0,0 -1,0 -1,1 0,0 1,1 1,1 1,0 1,-1 1,-1 0,-1 0,-1 -1,-1zm0 0c0,0 0,1 0,1 0,0 0,0 0,0 1,0 1,0 1,0 0,0 0,-1 -1,-1zm0 -5c0,0 -1,0 -1,1 0,0 1,1 1,1 1,0 1,-1 1,-1 0,-1 0,-1 -1,-1zm0 0c0,0 0,1 0,1 0,0 0,0 0,0 0,0 1,0 1,0 0,0 -1,-1 -1,-1zm0 -5c-1,0 -1,0 -1,1 0,1 0,1 1,1 1,0 1,0 1,-1 0,-1 0,-1 -1,-1zm0 1c0,0 0,0 0,0 0,0 0,0 0,0 0,0 0,0 0,0 0,0 0,0 0,0zm0 -5c0,0 -1,0 -1,0 0,0 1,0 1,0 0,0 0,0 0,0 0,0 0,0 0,0z" id="svg-part-6" data-part-name="Part 7" class="svg-hoverable" style="cursor: pointer; transition: 0.3s;"/>
 </g>
</svg>