<svg xmlns="http://www.w3.org/2000/svg" xmlns:xlink="http://www.w3.org/1999/xlink" xml:space="preserve" width="100%" height="100%" version="1.1" shape-rendering="geometricPrecision" text-rendering="geometricPrecision" image-rendering="optimizeQuality" fill-rule="evenodd" clip-rule="evenodd" viewBox="0 0 599 785"><defs><style data-fonts="true">@font-face { font-family: 'font_1'; src: url('http://127.0.0.1:8000/storage/fonts/5ZIyXfnllvfea2c03RF0XvhB4s9AbiJS5UuPNvgP') format('truetype'); }@font-face { font-family: 'font_2'; src: url('http://127.0.0.1:8000/storage/fonts/HiTBF8CNdPuu1yhMAdkdrafbOxzCEGWugdII81Rt') format('truetype'); }@font-face { font-family: 'font_3'; src: url('http://127.0.0.1:8000/storage/fonts/NTEl0gVIgAt3bQrdxmwPc3g1o1VAdu4adzElDKs8') format('truetype'); }</style></defs>
 <g id="Layer_x0020_1">
  <metadata id="CorelCorpID_0Corel-Layer"/>
  <path fill="#96989A" d="M45 99c1,5 10,28 14,48 5,26 3,32 0,56 5,6 11,9 14,22 2,8 3,24 4,33 1,16 0,52 -8,63 1,3 3,4 4,7 1,2 2,5 3,8 5,15 1,25 -1,39l0 45c0,6 1,14 1,20 1,20 7,58 10,79 2,14 3,26 5,40l6 61c0,8 1,15 1,22 1,23 4,66 3,86 -1,7 0,11 -2,19 -1,3 -1,7 0,9 2,11 -1,13 7,15l8 3c3,1 6,1 9,1l12 1c16,3 17,1 26,2 3,1 6,2 9,2l75 3c4,0 6,1 11,1 16,0 28,1 44,1 15,0 28,-1 43,-1 5,0 6,-1 10,-1l75 -3c3,-1 6,-2 9,-2 7,0 12,0 21,-1l9 -1c13,-2 6,1 21,-4 6,-1 9,-1 9,-7 2,-11 1,-48 1,-63l4 -84c1,-6 1,-13 2,-20 0,-3 1,-8 1,-10l17 -139c0,-4 0,-7 1,-10l0 -64c-3,-20 -5,-28 2,-46 2,-4 4,-4 5,-8 -9,-11 -10,-48 -9,-64 1,-11 4,-22 6,-32 4,-14 6,-15 13,-23 -6,-14 -4,-40 -1,-55 3,-17 8,-31 14,-46 -40,0 -71,-3 -104,-19 -24,-11 -52,-36 -60,-63l-1 1c-1,0 -1,0 -1,0l0 0c0,1 -1,2 -2,2 -7,7 -24,18 -33,22 -19,8 -31,11 -53,11 -38,0 -56,-12 -81,-30 -3,-3 -6,-5 -9,-7 -2,7 -7,17 -10,22 -5,7 -8,11 -13,17 -6,5 -9,9 -17,14 -35,24 -78,31 -124,28z" id="svg-part-0"/>
  <path fill="#96989A" d="M389 19c8,27 36,52 60,63 33,16 64,19 104,19 2,-7 7,-20 11,-24 -1,-4 -1,-2 -3,-5 -2,-1 -3,-2 -4,-3 -8,-8 -16,-12 -26,-18 -29,-17 -77,-22 -110,-34l-10 -4c-4,-1 -9,-1 -12,-3 -1,2 -3,3 -5,5 -2,1 -3,2 -3,3l0 0 -2 1zm-354 58c1,4 9,20 10,22 46,3 89,-4 124,-28 8,-5 11,-9 17,-14 5,-6 8,-10 13,-17 3,-5 8,-15 10,-22 -3,-2 -7,-5 -11,-7 -5,0 -7,1 -11,3l-32 10c-16,4 -32,7 -47,11 -8,3 -14,4 -22,7 -14,6 -33,16 -45,27 -4,5 -6,5 -6,8z" id="svg-part-1"/>
  <path fill="black" d="M198 11c4,2 8,5 11,7 3,2 6,4 9,7 25,18 43,30 81,30 22,0 34,-3 53,-11 9,-4 26,-15 33,-22 1,0 2,-1 2,-2l0 0c0,0 0,0 1,0l3 -2 0 0c0,-1 1,-2 3,-3 2,-2 4,-3 5,-5 0,0 0,0 0,0l-11 -6c-9,-5 -16,-6 -25,1 -8,7 -13,8 -22,13l-12 4c-18,5 -26,5 -47,3 -8,0 -23,-7 -31,-11 -3,-1 -4,-1 -6,-3l-10 -7c-12,-8 -21,-2 -31,4 -2,1 -4,1 -6,3z" id="svg-part-2"/>
  <path fill="#96989A" d="M4 180c5,3 11,3 16,4 5,1 9,3 14,5 16,5 21,12 25,14 3,-24 5,-30 0,-56 -4,-20 -13,-43 -14,-48 -1,-2 -9,-18 -10,-22 -3,2 -9,18 -11,22 -3,8 -6,17 -9,26 -4,17 -9,35 -11,55zm549 -79c-6,15 -11,29 -14,46 -3,15 -5,41 1,55 3,-1 7,-6 11,-8 5,-2 9,-4 14,-6 10,-4 19,-5 30,-8 -2,-3 -4,-21 -5,-28 -2,-10 -4,-19 -7,-28 -2,-9 -5,-16 -8,-25 -2,-4 -4,-8 -5,-12l-4 -8c-2,-2 -1,-2 -2,-2 -4,4 -9,17 -11,24z" id="svg-part-3"/>
  <path fill="black" d="M69 321c8,-11 9,-47 8,-63 -1,-9 -2,-25 -4,-33 -3,-13 -9,-16 -14,-22 -4,-2 -9,-9 -25,-14 -5,-2 -9,-4 -14,-5 -5,-1 -11,-1 -16,-4 -4,6 -4,22 -4,30 16,-1 42,1 51,17 3,5 4,11 6,17 5,20 2,29 4,42 2,13 -4,14 -1,20 2,3 6,14 9,15zm471 -119c-7,8 -9,9 -13,23 -2,10 -5,21 -6,32 -1,16 0,53 9,64 2,-1 9,-16 9,-18 0,-2 -1,-7 -2,-11 -1,-15 3,-46 9,-61 4,-13 19,-19 35,-21 26,-2 16,6 17,-18 0,-6 -1,-7 -3,-12 -11,3 -20,4 -30,8 -5,2 -9,4 -14,6 -4,2 -8,7 -11,8z" id="svg-part-4"/>
 </g>
<g id="mascot-overlay-group"/><g id="application-group"><text id="app-1776675951222" x="18" y="-36" font-size="365" fill="#96989A" stroke="BLACK" stroke-width="undefined" text-anchor="middle" dominant-baseline="middle" paint-order="stroke fill" stroke-linejoin="round" style="font-family: font_1;">00</text></g></svg>