<svg xmlns="http://www.w3.org/2000/svg" xmlns:xlink="http://www.w3.org/1999/xlink" xml:space="preserve" width="100%" height="100%" version="1.1" shape-rendering="geometricPrecision" text-rendering="geometricPrecision" image-rendering="optimizeQuality" fill-rule="evenodd" clip-rule="evenodd" viewBox="0 0 4414 9927"><defs><linearGradient x1="50%" y1="0%" x2="50%" y2="100%" id="gradient-front-svg-part-0"><stop offset="0%" stop-color="#FF9800"/><stop offset="100%" stop-color="#4CAF50"/></linearGradient><linearGradient x1="50%" y1="0%" x2="50%" y2="100%" id="gradient-front-svg-part-0"><stop offset="0%" stop-color="#FF9800"/><stop offset="100%" stop-color="#4CAF50"/></linearGradient></defs>
 <g id="Layer_x0020_1">
  <metadata id="CorelCorpID_0Corel-Layer"/>
  <g id="_2884727349552">
   <path fill="url(#gradient-right-svg-part-0)" d="M659 485l-255 433c-156,312 -268,701 -355,1044 -66,262 -57,1035 -21,1317 87,680 157,1085 354,1745l151 473c1,3 2,6 3,9 1,2 1,5 2,8 59,225 99,353 147,594 44,218 76,341 116,584 60,363 81,575 99,940 11,235 20,437 0,678 -9,116 -6,228 -19,331l-33 317c-16,110 -33,194 -49,300l-19 505c0,69 -12,91 -12,164 101,0 263,-37 369,-57l246 -37c21,-3 52,-10 85,-15 364,-51 802,-88 1181,-99 67,-2 140,0 208,0 84,0 140,-9 207,-11 68,-2 140,0 208,0 86,1 134,-11 208,-11 69,0 139,0 208,1 83,0 166,-8 197,-22 35,-13 7,16 33,-32 5,-9 13,-34 17,-49 34,-137 1,-263 17,-410l120 -1136c4,-33 7,-86 12,-130 33,-257 44,-523 64,-778 5,-74 11,-192 19,-265 5,-45 0,-95 1,-140 2,-56 12,-68 12,-131 0,-91 -1,-183 -1,-274 1,-88 17,-168 12,-273 -32,-586 -20,-295 48,-771 22,-154 -25,-107 39,-245 50,-107 70,-330 94,-475 113,-670 -14,-1317 -229,-1947 -47,-139 -99,-271 -152,-405l-172 -404 -436 -50c14,158 123,774 66,902 50,44 82,227 92,316 13,119 4,271 -14,384 -105,664 -629,1053 -1337,1109 -550,43 -939,-173 -1207,-432 -148,-144 -227,-261 -305,-514 -49,-158 -102,-547 -20,-699 -57,-64 -129,-442 -146,-567 -65,-479 35,-998 398,-1317l194 -153c-191,-56 -321,-123 -336,-349l-109 44z" id="svg-part-0"/>
   <path fill="#201E1E" d="M1104 790l-194 153c-363,319 -463,838 -398,1317 17,125 89,503 146,567 36,-126 78,-244 162,-313 310,-252 767,-232 1162,-251 472,-23 1261,-59 1467,400 57,-128 -52,-744 -66,-902 -38,-63 -198,-1343 -1568,-1168 -408,51 -619,180 -711,197z" id="svg-part-1"/>
   <path fill="#ED3237" d="M2157 4179c-598,0 -1279,-316 -1279,-1028 0,-256 53,-379 318,-479 276,-104 965,-78 1300,-78 225,0 614,59 745,217 90,106 97,163 97,297 0,188 -117,469 -227,615 -124,167 -294,276 -487,354 -101,41 -334,102 -467,102zm-1499 -1352c-82,152 -29,541 20,699 78,253 157,370 305,514 268,259 657,475 1207,432 708,-56 1232,-445 1337,-1109 18,-113 27,-265 14,-384 -10,-89 -42,-272 -92,-316 -206,-459 -995,-423 -1467,-400 -395,19 -852,-1 -1162,251 -84,69 -126,187 -162,313z" id="svg-part-2"/>
   <path fill="#201E1E" d="M768 441c15,226 145,293 336,349 92,-17 303,-146 711,-197 1370,-175 1530,1105 1568,1168l436 50 -120 -266c-8,-15 -17,-28 -24,-42l-217 -384 -511 -506c-175,-181 -338,-333 -594,-434 -255,-101 -569,-139 -873,-53 -106,30 -498,243 -712,315z" id="svg-part-3"/>
   <path fill="#ED3237" d="M659 485l109 -44c214,-72 606,-285 712,-315 304,-86 618,-48 873,53 256,101 419,253 594,434l511 506c-40,-152 -444,-561 -560,-664 -144,-128 -239,-194 -402,-288 -62,-36 -115,-63 -191,-93 -408,-163 -1048,-24 -1456,109 -55,18 -19,-1 -41,25 -1,1 -22,36 -24,41 -12,21 -17,32 -27,50 -16,32 -31,56 -51,91 -20,35 -37,53 -47,95z" id="svg-part-4"/>
  </g>
 </g>
</svg>