<svg xmlns="http://www.w3.org/2000/svg" xmlns:xlink="http://www.w3.org/1999/xlink" xml:space="preserve" width="100%" height="100%" version="1.1" shape-rendering="geometricPrecision" text-rendering="geometricPrecision" image-rendering="optimizeQuality" fill-rule="evenodd" clip-rule="evenodd" viewBox="0 0 173 448" preserveAspectRatio="xMidYMid meet"><defs><style data-fonts="true">@font-face { font-family: 'font_1'; src: url('http://127.0.0.1:8000/storage/fonts/5ZIyXfnllvfea2c03RF0XvhB4s9AbiJS5UuPNvgP') format('truetype'); }@font-face { font-family: 'font_2'; src: url('http://127.0.0.1:8000/storage/fonts/HiTBF8CNdPuu1yhMAdkdrafbOxzCEGWugdII81Rt') format('truetype'); }@font-face { font-family: 'font_3'; src: url('http://127.0.0.1:8000/storage/fonts/NTEl0gVIgAt3bQrdxmwPc3g1o1VAdu4adzElDKs8') format('truetype'); }</style></defs>
 <g id="Layer_x0020_1">
  <metadata id="CorelCorpID_0Corel-Layer"/>
  <g id="_1976829520112">
   <path id="Front" fill="#000000" fill-rule="nonzero" d="M132 422c6,0 12,-1 17,-2 4,0 8,-2 12,-4 1,-1 2,-1 2,-2 0,-2 0,-3 0,-4 -1,-3 0,-6 0,-8 -1,-3 -1,-5 0,-7 0,-3 0,-5 0,-7 1,-13 3,-26 4,-39 1,-8 1,-15 0,-22 0,-9 -2,-16 -2,-25 0,-5 1,-10 1,-16 0,-5 -1,-11 -2,-16 0,-11 3,-22 2,-33 0,-9 0,-19 1,-28 1,-7 1,-14 0,-22 -1,-9 -1,-18 1,-27 0,-3 1,-5 2,-7 3,-5 3,-11 3,-17 -1,-7 -2,-14 -5,-22 -4,-11 -8,-22 -14,-32 -6,-11 -12,-22 -18,-33 0,-1 0,-2 0,-3l-12 -8c-7,-3 -13,-6 -20,-10l0 0 0 6c2,6 4,11 6,17 4,8 7,17 9,26 3,11 2,22 0,33 -1,5 -3,9 -5,13 -3,4 -7,6 -11,8 -1,1 -2,2 -2,3l0 11 0 0c10,13 16,35 22,57 3,14 5,28 7,43 0,3 0,6 0,8 4,8 4,14 2,20 2,14 3,28 3,42 -1,36 -2,71 -3,107z" data-part-name="Front" class="svg-hoverable" style="cursor: pointer; transition: 0.3s;"/>
   <path id="back" fill="#000000" fill-rule="nonzero" d="M38 300c0,0 0,0 0,0 -1,5 -1,9 -3,13 0,2 -1,4 -2,6 -2,3 -3,7 -4,11 -1,6 -2,13 -5,19 -6,16 -12,32 -13,50 0,0 0,1 0,2 -1,2 -1,4 -1,6 0,2 -1,4 0,5 0,2 2,2 3,3 11,2 21,3 32,5l9 -62c-4,-9 -7,-18 -9,-27 -4,-10 -5,-21 -7,-31zm4 -292c0,0 0,0 -1,1 -1,1 -2,2 -3,4 -1,3 -3,5 -6,8 -3,4 -6,8 -8,12 -4,5 -8,11 -10,17 -2,3 -3,6 -4,9 -4,6 -5,14 -6,21 -2,8 -3,16 -4,24 0,6 0,11 0,16 0,4 0,8 1,12 0,5 2,9 3,13 3,13 7,26 11,39 2,6 4,12 6,19 4,13 8,26 11,39 0,1 0,1 0,1l0 0c-1,-16 -2,-31 -4,-46 -3,-18 -4,-39 -4,-60 0,-1 -1,-3 -2,-4 -4,-5 -8,-12 -12,-21 -1,-5 -1,-11 0,-17 1,-11 3,-22 7,-34 2,-10 6,-20 11,-29 5,-8 11,-16 16,-24l0 0 -2 0z" data-part-name="back" class="svg-hoverable selected" style="cursor: pointer; transition: 0.3s;"/>
   <path id="Sides" fill="#FF0000" fill-rule="nonzero" d="M45 420c0,0 1,0 2,0 4,0 8,1 12,1 6,0 11,0 16,0 -5,-18 -13,-40 -21,-63l-9 62zm73 2c4,0 8,0 12,0 1,0 2,0 2,0 1,-36 2,-71 3,-107 0,-14 -1,-28 -3,-42 2,-6 2,-12 -2,-20 0,-2 0,-5 0,-8 -2,-15 -4,-29 -7,-43 -6,-22 -12,-44 -22,-57l0 0 0 31c0,27 -4,49 -9,67 -1,2 0,3 -1,4 0,1 0,2 -1,3 2,2 1,4 0,6 1,1 1,2 0,4 9,21 13,45 13,75 1,26 6,51 11,75l4 12z" data-part-name="Sides" class="svg-hoverable" style="cursor: pointer; transition: 0.3s;"/>
   <path id="Sleeves" fill="#FF0000" fill-rule="nonzero" d="M32 243c0,4 0,9 0,14 1,4 2,8 3,12 1,5 1,10 1,15 1,4 1,8 2,11 0,2 0,3 0,5 2,10 3,21 7,31 9,31 23,65 30,90l1 0c1,5 2,10 3,15 1,1 0,3 1,5 1,3 1,5 1,7l1 0c6,0 12,-1 17,-3 7,-1 13,-3 19,-6 1,0 3,-1 3,-2 0,-1 -1,-2 -1,-4 -1,-2 0,-4 -1,-6 -1,-2 -1,-3 -2,-5l1 0 -4 -12c-5,-24 -10,-49 -11,-75 0,-30 -4,-54 -13,-75 1,-2 1,-3 0,-4 1,-2 2,-4 0,-6 1,-1 1,-2 1,-3 1,-1 0,-2 1,-4 5,-18 9,-40 9,-67 0,-14 0,-28 0,-42 0,-1 1,-2 2,-3 4,-2 8,-4 11,-8 2,-4 4,-8 5,-13 2,-11 3,-22 0,-33 -2,-9 -5,-18 -9,-26 -2,-6 -4,-11 -6,-17l0 -6 -22 -13c-9,-4 -19,-7 -29,-7l-9 0 0 0c-5,8 -11,16 -16,24 -5,9 -9,19 -11,29 -4,12 -6,23 -7,34 -1,6 -1,12 0,17 4,9 8,16 12,21 1,1 2,3 2,4 0,21 1,42 4,60 2,15 3,30 4,46l0 0z" data-part-name="Sleeves" class="svg-hoverable" style="cursor: pointer; transition: 0.3s;"/>
   <path id="Neck" fill="#FF0000" fill-rule="nonzero" d="M82 8c-8,-5 -18,-8 -28,-8 -2,0 -6,-1 -8,1 -1,2 -2,5 -4,7l11 0c10,0 20,3 29,7 7,5 15,9 22,13 7,4 13,7 20,10l12 8c0,-1 0,-1 0,-1 -1,-2 -2,-3 -2,-4 0,-2 1,-4 0,-6 0,-1 -2,-1 -3,-1 -8,-4 -16,-7 -23,-11 -9,-5 -17,-11 -26,-15z" data-part-name="Neck" class="svg-hoverable" style="cursor: pointer; transition: 0.3s;"/>
  </g>
 </g>
<g id="mascot-overlay-group"/></svg>