<svg xmlns="http://www.w3.org/2000/svg" xmlns:xlink="http://www.w3.org/1999/xlink" xml:space="preserve" width="100%" height="100%" version="1.1" shape-rendering="geometricPrecision" text-rendering="geometricPrecision" image-rendering="optimizeQuality" fill-rule="evenodd" clip-rule="evenodd" viewBox="0 0 7724 10120"><defs><clipPath id="clip-svg-part-0-back"><path fill="black" d="M580 1273c9,62 134,359 181,622 58,331 39,409 3,717 57,81 134,124 177,294 25,101 43,306 50,416 12,205 4,679 -106,820 21,39 38,50 55,87 12,27 30,70 39,103 59,200 10,321 -7,509l-11 569c3,77 21,185 23,262 6,264 91,746 127,1020 24,177 38,341 60,519l75 789c2,93 17,187 22,273 15,298 52,853 31,1114 -8,95 8,144 -24,238 -16,47 -6,90 0,127 24,132 -6,163 92,192l108 34c38,11 74,18 113,17l155 12c210,39 213,14 332,27 41,4 74,18 122,20l962 44c57,1 74,12 141,11 203,-1 367,11 569,11 195,0 359,-8 558,-10 60,-1 69,-12 130,-12l960 -45c37,-4 84,-17 123,-20 84,-6 146,4 270,-14l114 -18c163,-18 81,15 263,-42 77,-25 117,-18 127,-91 22,-151 1,-623 1,-819l58 -1079c10,-76 13,-173 25,-259 6,-42 9,-99 13,-130l217 -1793c6,-45 4,-87 11,-132l8 -818c-37,-266 -69,-366 28,-602 18,-46 45,-51 56,-98 -118,-145 -130,-620 -109,-826 14,-139 41,-277 75,-406 50,-182 70,-199 160,-307 -68,-174 -41,-513 -7,-699 41,-226 105,-405 174,-601 -513,-2 -910,-36 -1335,-235 -310,-145 -675,-468 -772,-821l-20 16c-2,1 -4,3 -6,4l0 0c-6,6 -13,15 -24,25 -94,88 -318,224 -435,277 -234,107 -387,144 -674,146 -488,4 -727,-154 -1052,-392 -40,-29 -71,-59 -117,-82 -19,80 -85,211 -125,272 -61,96 -95,148 -171,223 -68,67 -117,122 -208,185 -459,313 -1009,395 -1605,356z"/></clipPath><pattern id="pattern-svg-part-0-back" patternUnits="userSpaceOnUse" x="580" y="237" width="6544" height="9883" preserveAspectRatio="xMidYMid slice"><g transform="scale(1) rotate(0)" opacity="1"><svg xmlns="http://www.w3.org/2000/svg" xmlns:xlink="http://www.w3.org/1999/xlink" xml:space="preserve" width="6544" height="9883" version="1.1" shape-rendering="geometricPrecision" text-rendering="geometricPrecision" image-rendering="optimizeQuality" fill-rule="evenodd" clip-rule="evenodd" viewBox="0 0 4851 6728" preserveAspectRatio="xMidYMid slice">
 <g id="Layer_x0020_1">
  <metadata id="CorelCorpID_0Corel-Layer"/>
  <g id="_2273969982928">
   <rect fill="#373435" width="4851" height="6728"/>
   <path fill="#EB1C24" fill-rule="nonzero" d="M0 0l4851 0 0 36c-1617,-2 -3234,0 -4851,-1l0 -35zm0 62c1617,0 3234,-1 4851,0l0 68c-1617,0 -3234,0 -4851,0l0 -68zm0 94c1617,0 3234,0 4851,0l0 62c-1617,0 -3234,0 -4851,0l0 -62zm0 90c1617,0 3234,0 4851,0l0 35c-1617,0 -3234,0 -4851,0l0 -35zm0 62c1617,0 3234,0 4851,0l0 67c-1617,0 -3234,0 -4851,0l0 -67zm0 94c1617,0 3234,0 4851,0l0 191c-1617,1 -3234,0 -4851,1l0 -192zm0 221c1617,0 3234,0 4851,0l0 66c-1617,0 -3234,0 -4851,0l0 -66zm0 92c1617,0 3234,1 4851,0l0 35c-1617,0 -3234,0 -4851,0l0 -35zm0 62c1617,0 3234,0 4851,0l0 69c-1617,0 -3234,0 -4851,1l0 -70zm0 95c1617,0 3234,0 4851,0l0 69c-1617,0 -3234,0 -4851,0l0 -69zm0 94c1617,0 3234,0 4851,1l0 36c-1617,0 -3234,0 -4851,0l0 -37zm0 63c1617,0 3234,0 4851,0l0 63c-1617,0 -3234,-1 -4851,0l0 -63zm0 94c1617,0 3234,1 4851,0l0 62c-1617,0 -3234,0 -4851,0l0 -62zm0 91c1617,0 3234,0 4851,1l0 34c-1617,-1 -3234,3 -4851,-2l0 -33zm0 63c1617,0 3234,-1 4851,0l0 39c-1617,0 -3234,0 -4851,0l0 -39zm0 92c1617,0 3234,0 4851,0l0 38c-1617,0 -3234,0 -4851,-1l0 -37zm0 157c1617,0 3234,0 4851,0l0 35c-1617,0 -3234,0 -4851,0l0 -35zm0 96c1617,0 3234,0 4851,0l0 35c-1617,0 -3234,0 -4851,0l0 -35zm0 62c1617,0 3234,0 4851,0l0 66c-1617,0 -3234,0 -4851,0l0 -66zm0 124c1617,0 3234,0 4851,0l0 36c-1617,0 -3234,0 -4851,0l0 -36zm0 189c1617,0 3234,0 4851,0l0 35c-1617,0 -3234,0 -4851,0l0 -35zm0 121c1617,0 3234,0 4851,0l0 36c-1617,0 -3234,0 -4851,0l0 -36zm0 96c1617,0 3234,0 4851,0l0 36c-1617,0 -3234,0 -4851,0l0 -36zm0 121c1617,0 3234,0 4851,0l0 40c-1617,0 -3234,0 -4851,0l0 -40zm0 131c1617,0 3234,0 4851,0l0 35c-1617,0 -3234,0 -4851,0l0 -35zm0 150c1617,0 3234,0 4851,0l0 36c-1617,0 -3234,0 -4851,0l0 -36zm0 95c1617,0 3234,0 4851,0l0 36c-1617,0 -3234,0 -4851,0l0 -36zm0 279c1302,0 2604,1 3906,1 315,9 630,-4 945,-1l0 39c-1617,0 -3234,0 -4851,0l0 -39zm0 129c1617,0 3234,0 4851,0l0 38c-1617,0 -3234,0 -4851,0l0 -38zm0 155c630,5 1260,1 1890,2 987,1 1974,2 2961,-2l0 39c-1617,0 -3234,0 -4851,0l0 -39z"/>
  </g>
 </g>
</svg></g></pattern></defs>
 <g id="Layer_x0020_1">
  <metadata id="CorelCorpID_0Corel-Layer"/>
  <g id="_2884721247472">
   <path fill="black" d="M580 1273c9,62 134,359 181,622 58,331 39,409 3,717 57,81 134,124 177,294 25,101 43,306 50,416 12,205 4,679 -106,820 21,39 38,50 55,87 12,27 30,70 39,103 59,200 10,321 -7,509l-11 569c3,77 21,185 23,262 6,264 91,746 127,1020 24,177 38,341 60,519l75 789c2,93 17,187 22,273 15,298 52,853 31,1114 -8,95 8,144 -24,238 -16,47 -6,90 0,127 24,132 -6,163 92,192l108 34c38,11 74,18 113,17l155 12c210,39 213,14 332,27 41,4 74,18 122,20l962 44c57,1 74,12 141,11 203,-1 367,11 569,11 195,0 359,-8 558,-10 60,-1 69,-12 130,-12l960 -45c37,-4 84,-17 123,-20 84,-6 146,4 270,-14l114 -18c163,-18 81,15 263,-42 77,-25 117,-18 127,-91 22,-151 1,-623 1,-819l58 -1079c10,-76 13,-173 25,-259 6,-42 9,-99 13,-130l217 -1793c6,-45 4,-87 11,-132l8 -818c-37,-266 -69,-366 28,-602 18,-46 45,-51 56,-98 -118,-145 -130,-620 -109,-826 14,-139 41,-277 75,-406 50,-182 70,-199 160,-307 -68,-174 -41,-513 -7,-699 41,-226 105,-405 174,-601 -513,-2 -910,-36 -1335,-235 -310,-145 -675,-468 -772,-821l-20 16c-2,1 -4,3 -6,4l0 0c-6,6 -13,15 -24,25 -94,88 -318,224 -435,277 -234,107 -387,144 -674,146 -488,4 -727,-154 -1052,-392 -40,-29 -71,-59 -117,-82 -19,80 -85,211 -125,272 -61,96 -95,148 -171,223 -68,67 -117,122 -208,185 -459,313 -1009,395 -1605,356z" id="svg-part-0" data-has-pattern="true" data-pattern-id="pattern-svg-part-0-back" data-pattern-size="50" data-pattern-opacity="100" data-pattern-angle="0" data-pattern-view="back"/>
   <path fill="black" d="M5017 243c97,353 462,676 772,821 425,199 822,233 1335,235 36,-82 94,-249 144,-312 -11,-46 -4,-26 -39,-53 -26,-20 -29,-25 -51,-46 -106,-99 -206,-157 -328,-230 -372,-225 -991,-281 -1420,-438l-137 -49c-48,-20 -109,-23 -146,-40 -13,22 -37,41 -66,64 -21,17 -34,22 -43,32l0 0 -21 16zm-4571 751c19,47 115,258 134,279 596,39 1146,-43 1605,-356 91,-63 140,-118 208,-185 76,-75 110,-127 171,-223 40,-61 106,-192 125,-272 -39,-36 -85,-69 -132,-98 -67,7 -89,17 -140,37l-424 134c-205,47 -402,88 -599,144 -110,31 -182,50 -283,89 -186,72 -434,210 -578,350 -59,57 -80,59 -87,101z" id="svg-part-1"/>
   <path fill="#FEFEFE" d="M6834 648l-182 634c-270,-23 -515,-72 -766,-176l204 -710c272,64 542,135 744,252zm-5774 627c271,-17 529,-68 769,-167l-205 -713c-77,18 -153,38 -230,59 -110,31 -182,50 -283,89 -70,27 -150,64 -230,108l179 624z" id="svg-part-2"/>
   <path fill="#ED3237" d="M1139 532l205 712c74,-13 146,-28 218,-47l-210 -731c-78,22 -139,39 -213,66zm5013 666c72,19 144,35 218,48l205 -715c-68,-24 -140,-46 -213,-66l-210 733z" id="svg-part-3"/>
   <path fill="#ED3237" d="M2557 139c47,29 93,62 132,98 46,23 77,53 117,82 325,238 564,396 1052,392 287,-2 440,-39 674,-146 117,-53 341,-189 435,-277 11,-10 18,-19 24,-25l0 0c2,-1 4,-3 6,-4l41 -32 0 0c9,-10 22,-15 43,-32 29,-23 53,-42 66,-64 -2,-2 -5,-7 -6,-5l-135 -72c-115,-65 -211,-81 -320,9 -107,87 -170,106 -284,164l-159 59c-234,60 -337,66 -603,41 -107,-10 -306,-92 -406,-140 -31,-15 -48,-22 -81,-40l-129 -89c-143,-115 -259,-34 -391,40 -30,17 -55,18 -76,41z" id="svg-part-4"/>
   <path fill="#ED3237" d="M55 2323c55,31 133,32 197,48 69,17 126,36 191,60 199,74 265,158 321,181 36,-308 55,-386 -3,-717 -47,-263 -172,-560 -181,-622 -19,-21 -115,-232 -134,-279 -36,30 -112,225 -137,288 -41,103 -82,216 -112,324 -61,220 -117,462 -142,717zm7069 -1024c-69,196 -133,375 -174,601 -34,186 -61,525 7,699 42,-12 99,-66 149,-94 57,-32 112,-55 173,-78 133,-50 246,-67 393,-101 -21,-39 -46,-282 -64,-371 -25,-122 -56,-240 -88,-350 -34,-117 -69,-217 -112,-325 -20,-50 -41,-104 -64,-154l-53 -112c-14,-26 0,-15 -23,-27 -50,63 -108,230 -144,312z" id="svg-part-5"/>
   <path fill="black" d="M567 1253l-308 1120 -7 -2c-64,-16 -142,-17 -197,-48 25,-255 81,-497 142,-717 30,-108 71,-221 112,-324 25,-63 101,-258 137,-288 16,40 88,200 121,259zm6934 1111c53,-12 109,-24 171,-38 -21,-39 -46,-282 -64,-371 -25,-122 -56,-240 -88,-350 -34,-117 -69,-217 -112,-325 -20,-50 -41,-104 -64,-154l-53 -112c-14,-26 0,-15 -23,-27 -31,39 -64,116 -94,189l327 1188z" id="svg-part-6"/>
   <path fill="#FEFEFE" d="M885 4142c110,-141 118,-615 106,-820 -7,-110 -25,-315 -50,-416 -43,-170 -120,-213 -177,-294 -56,-23 -122,-107 -321,-181 -65,-24 -122,-43 -191,-60 -64,-16 -142,-17 -197,-48 -50,75 -55,287 -55,387 207,-17 545,12 652,211 42,77 56,141 78,228 65,260 35,369 60,542 24,169 -53,172 -13,252 18,37 79,177 108,199zm6072 -1543c-90,108 -110,125 -160,307 -34,129 -61,267 -75,406 -21,206 -9,681 109,826 28,-14 118,-211 119,-227 3,-36 -19,-95 -25,-148 -18,-192 42,-587 112,-781 59,-168 246,-251 450,-271 337,-32 215,72 218,-230 1,-86 -6,-98 -33,-155 -147,34 -260,51 -393,101 -61,23 -116,46 -173,78 -50,28 -107,82 -149,94z" id="svg-part-7"/>
  </g>
 </g>
<g id="pattern-overlay-group"><path fill="url(#pattern-svg-part-0-back)" d="M580 1273c9,62 134,359 181,622 58,331 39,409 3,717 57,81 134,124 177,294 25,101 43,306 50,416 12,205 4,679 -106,820 21,39 38,50 55,87 12,27 30,70 39,103 59,200 10,321 -7,509l-11 569c3,77 21,185 23,262 6,264 91,746 127,1020 24,177 38,341 60,519l75 789c2,93 17,187 22,273 15,298 52,853 31,1114 -8,95 8,144 -24,238 -16,47 -6,90 0,127 24,132 -6,163 92,192l108 34c38,11 74,18 113,17l155 12c210,39 213,14 332,27 41,4 74,18 122,20l962 44c57,1 74,12 141,11 203,-1 367,11 569,11 195,0 359,-8 558,-10 60,-1 69,-12 130,-12l960 -45c37,-4 84,-17 123,-20 84,-6 146,4 270,-14l114 -18c163,-18 81,15 263,-42 77,-25 117,-18 127,-91 22,-151 1,-623 1,-819l58 -1079c10,-76 13,-173 25,-259 6,-42 9,-99 13,-130l217 -1793c6,-45 4,-87 11,-132l8 -818c-37,-266 -69,-366 28,-602 18,-46 45,-51 56,-98 -118,-145 -130,-620 -109,-826 14,-139 41,-277 75,-406 50,-182 70,-199 160,-307 -68,-174 -41,-513 -7,-699 41,-226 105,-405 174,-601 -513,-2 -910,-36 -1335,-235 -310,-145 -675,-468 -772,-821l-20 16c-2,1 -4,3 -6,4l0 0c-6,6 -13,15 -24,25 -94,88 -318,224 -435,277 -234,107 -387,144 -674,146 -488,4 -727,-154 -1052,-392 -40,-29 -71,-59 -117,-82 -19,80 -85,211 -125,272 -61,96 -95,148 -171,223 -68,67 -117,122 -208,185 -459,313 -1009,395 -1605,356z" id="pattern-overlay-svg-part-0" clip-path="url(#clip-svg-part-0-back)" style="pointer-events: none;"/></g></svg>