<svg xmlns="http://www.w3.org/2000/svg" xmlns:xlink="http://www.w3.org/1999/xlink" xml:space="preserve" width="100%" height="100%" version="1.1" shape-rendering="geometricPrecision" text-rendering="geometricPrecision" image-rendering="optimizeQuality" fill-rule="evenodd" clip-rule="evenodd" viewBox="0 0 4414 9927">
 <g id="Layer_x0020_1">
  <metadata id="CorelCorpID_0Corel-Layer"/>
  <g id="_2884807361824">
   <path fill="#201E1E" d="M3313 786l200 158c363,323 456,842 390,1322 -17,126 -89,495 -144,558 110,208 -5,790 -144,1002 -258,392 -777,691 -1387,643 -712,-55 -1240,-449 -1340,-1118 -24,-167 -28,-595 80,-691 -56,-129 53,-744 66,-902l-436 50c-102,171 -382,962 -439,1185 -121,474 -206,944 -131,1459 12,85 25,150 37,236 12,86 37,260 68,337 77,194 22,52 41,232 2,27 3,26 7,58 0,4 3,28 3,30 12,39 -14,11 21,34 -29,75 33,142 33,240 1,98 -1,197 0,296 0,95 -13,167 -12,273 1,61 11,70 12,131 1,50 0,102 0,153 0,535 105,1615 166,2163 35,314 65,487 63,811 0,58 7,142 29,190 11,26 7,37 61,48 98,20 279,13 381,13 72,0 113,12 196,11l416 11c71,0 147,-2 219,0 334,10 999,59 1294,118l586 90 -23 -448c-8,-286 8,-121 -44,-436 -16,-92 -21,-179 -35,-283 -34,-268 -59,-970 -26,-1213 15,-116 31,-476 50,-584 32,-185 61,-356 92,-542l112 -522c23,-90 41,-164 66,-251 16,-59 74,-204 59,-247 25,-18 22,-11 38,-61 185,-569 430,-1553 454,-2115 5,-116 22,-235 22,-361 -1,-602 11,-820 -168,-1351 -119,-353 -244,-669 -445,-977 -16,-25 -26,-30 -43,-55l-109 -44c-15,226 -145,293 -336,349z" id="svg-part-0"/>
   <path fill="#201E1E" d="M1034 1758c-13,158 -122,773 -66,902 207,-459 995,-423 1467,-400 395,19 852,-1 1162,251 84,69 126,187 162,313 55,-63 127,-432 144,-558 66,-480 -27,-999 -390,-1322l-200 -158c-47,-8 -120,-44 -169,-63 -59,-22 -112,-39 -173,-56 -805,-236 -1502,-46 -1833,748 -31,74 -80,303 -104,343z" id="svg-part-1"/>
   <path fill="#F58634" d="M1080 3105c0,-215 76,-335 290,-420 326,-130 836,-94 1218,-94 344,0 951,30 951,470 0,386 -115,647 -371,842 -224,171 -610,273 -908,273 -238,0 -645,-137 -817,-308 -115,-114 -162,-164 -240,-318 -48,-97 -123,-308 -123,-445zm-112 -445c-108,96 -104,524 -80,691 100,669 628,1063 1340,1118 610,48 1129,-251 1387,-643 139,-212 254,-794 144,-1002 -36,-126 -78,-244 -162,-313 -310,-252 -767,-232 -1162,-251 -472,-23 -1260,-59 -1467,400z" id="svg-part-2"/>
   <path fill="#201E1E" d="M959 1116l-27 38c-12,20 -12,20 -24,41 -18,35 -30,53 -48,84l-178 346c-31,67 -60,111 -84,183l436 -50c24,-40 73,-269 104,-343 331,-794 1028,-984 1833,-748 61,17 114,34 173,56 49,19 122,55 169,63 191,-56 321,-123 336,-349 -214,-71 -605,-285 -712,-315 -303,-86 -618,-48 -873,53 -487,193 -886,794 -1105,941z" id="svg-part-3"/>
   <path fill="#F58634" d="M959 1116c219,-147 618,-748 1105,-941 255,-101 570,-139 873,-53 107,30 498,244 712,315l109 44c-10,-43 -70,-132 -95,-179 -39,-73 -41,-99 -78,-118 -13,-6 -40,-11 -60,-16 -298,-82 -607,-168 -926,-168 -292,0 -427,14 -671,159 -60,36 -118,66 -171,103 -50,36 -106,78 -155,118 -137,113 -155,133 -285,262l-128 145c-51,65 -212,259 -230,329z" id="svg-part-4"/>
   <path fill="#F58634" d="M3467 728c-499,-353 -1365,-368 -1847,0 -233,178 -447,430 -709,784 145,-369 345,-668 604,-905 576,-530 1499,-510 2080,15 -29,44 -73,78 -128,106zm-1782 692c280,-133 1378,-133 1658,0 -548,-407 -1110,-407 -1658,0zm-576 170c984,-1010 1842,-921 2740,0 -810,-1201 -1848,-1323 -2740,0z" id="svg-part-5"/>
  </g>
 </g>
</svg>