<svg xmlns="http://www.w3.org/2000/svg" xmlns:xlink="http://www.w3.org/1999/xlink" xml:space="preserve" width="100%" height="100%" version="1.1" shape-rendering="geometricPrecision" text-rendering="geometricPrecision" image-rendering="optimizeQuality" fill-rule="evenodd" clip-rule="evenodd" viewBox="0 0 231 550"><defs><style data-fonts="true">@font-face { font-family: 'font_13'; src: url('http://127.0.0.1:8000/storage/fonts/M72Xqrz7uGRInAdTwQ7M88S7HonuK1PQvZPELgEV') format('truetype'); }@font-face { font-family: 'font_14'; src: url('http://127.0.0.1:8000/storage/fonts/qhGt2lzatXmSRAh1ob2yUOC7wColQH9X6gkUIhwK') format('truetype'); }@font-face { font-family: 'font_16'; src: url('http://127.0.0.1:8000/storage/fonts/sEZk4tePDz7nnR492ehE0hxaHQqXLeWjHQc23Dky') format('truetype'); }</style></defs>
 <g id="Layer_x0020_1">
  <metadata id="CorelCorpID_0Corel-Layer"/>
  <g id="_1960201530512">
   <path fill="#0424FC" fill-rule="nonzero" d="M43 3c3,-2 6,-4 9,-3 1,3 2,7 2,10l0 0c13,-4 27,-6 41,-6 18,-1 37,2 53,9 11,4 21,10 30,16 4,4 9,7 14,10 7,3 15,2 21,6 0,-1 0,-2 1,-3 2,-1 5,-1 8,-2 4,1 7,3 8,6 2,3 2,7 0,10 -1,1 -2,3 -4,2 0,3 1,6 0,8 0,-3 0,-5 0,-8l1 0c-1,-2 0,-4 -1,-6 -1,0 -1,-1 -2,-1 -6,-1 -12,-1 -18,-2 0,8 0,16 0,24 5,3 10,3 15,3 0,1 0,2 1,3 1,-1 2,-2 2,-4 1,0 2,0 2,-1l0 0c1,0 2,2 2,3 2,5 2,11 0,16 -1,3 -4,4 -7,4 -2,0 -5,0 -7,-2 0,1 0,2 0,3 2,17 5,34 8,50 2,11 4,22 4,33 0,13 -1,26 -8,38 -1,2 -4,4 -3,7 1,4 4,8 6,12 2,4 3,10 3,15 1,14 1,27 1,41 -1,19 -2,39 -3,58 -2,13 -4,26 -9,38 -3,7 -8,13 -13,18 -3,2 -5,6 -6,9 -2,8 -1,17 1,24 3,14 0,27 -3,40 -3,13 -7,27 -11,40 0,1 -2,2 -1,3 -3,3 -4,7 -6,9 -2,2 -4,3 -5,5 -1,3 -2,7 -3,10 -1,2 -3,2 -5,2 -4,0 -9,0 -13,-1 -13,-2 -26,-4 -39,-8 -14,-4 -27,-9 -40,-16 -2,-1 -5,-2 -7,-5 -2,-2 0,-5 0,-8 1,-4 2,-9 2,-13 0,-11 0,-22 -1,-33 -1,-13 -2,-27 -4,-41 -1,-4 -1,-8 -2,-11 -2,-8 -2,-16 -4,-24 -1,-8 -2,-15 -3,-23 -4,-30 -7,-61 -8,-91 -1,-13 -1,-25 -5,-38 0,-4 -3,-7 -4,-10 -3,-4 -4,-8 -7,-12 -3,-4 -5,-9 -7,-14 -1,0 -1,-1 -1,-2 -2,0 -1,-2 -2,-3 -3,-4 -5,-8 -8,-12 -3,-5 -4,-10 -5,-15 -3,-13 -3,-26 -3,-39 0,-12 2,-25 5,-36 2,-10 5,-20 9,-29 1,-4 3,-8 5,-11 1,-3 2,-5 3,-8 4,-9 8,-18 12,-27 2,-6 5,-12 9,-17z" id="svg-part-0"/>
   <path fill="#F0050F" fill-rule="nonzero" d="M206 49c6,1 12,1 18,2 2,2 2,5 2,7 0,3 0,5 0,8 0,3 -2,6 -1,8 0,0 1,0 1,0 0,1 -1,1 -2,1 0,2 -1,3 -2,4 -1,-1 -1,-2 -1,-3 -5,0 -10,0 -15,-3 0,-8 0,-16 0,-24z" id="svg-part-1"/>
  </g>
 </g>
</svg>