<svg xmlns="http://www.w3.org/2000/svg" xmlns:xlink="http://www.w3.org/1999/xlink" xml:space="preserve" width="100%" height="100%" version="1.1" shape-rendering="geometricPrecision" text-rendering="geometricPrecision" image-rendering="optimizeQuality" fill-rule="evenodd" clip-rule="evenodd" viewBox="0 0 7724 10120"><defs/>
 <g id="Layer_x0020_1">
  <metadata id="CorelCorpID_0Corel-Layer"/>
  <g id="_2884770947040">
   <path fill="#EEAD1E" d="M2557 139c47,29 93,62 132,98 46,23 77,53 117,82 325,238 564,396 1052,392 287,-2 440,-39 674,-146 117,-53 341,-189 435,-277 11,-10 18,-19 24,-25l0 0c2,-1 4,-3 6,-4l41 -32 0 0c9,-10 22,-15 43,-32 29,-23 53,-42 66,-64 -2,-2 -5,-7 -6,-5l-135 -72c-115,-65 -211,-81 -320,9 -107,87 -170,106 -284,164l-159 59c-234,60 -337,66 -603,41 -107,-10 -306,-92 -406,-140 -31,-15 -48,-22 -81,-40l-129 -89c-143,-115 -259,-34 -391,40 -30,17 -55,18 -76,41z" id="svg-part-0"/>
   <path fill="#001331" d="M580 1273c9,62 134,359 181,622 58,331 39,409 3,717 57,81 134,124 177,294 25,101 43,306 50,416 12,205 4,679 -106,820 21,39 38,50 55,87 12,27 30,70 39,103 59,200 10,321 -7,509l-11 569c3,77 21,185 23,262 6,264 91,746 127,1020 24,177 38,341 60,519l75 789c2,93 17,187 22,273 15,298 52,853 31,1114 -8,95 8,144 -24,238 -16,47 -6,90 0,127 24,132 -6,163 92,192l108 34c38,11 74,18 113,17l155 12c210,39 213,14 332,27 41,4 74,18 122,20l962 44c57,1 74,12 141,11 203,-1 367,11 569,11 195,0 359,-8 558,-10 60,-1 69,-12 130,-12l960 -45c37,-4 84,-17 123,-20 84,-6 146,4 270,-14l114 -18c163,-18 81,15 263,-42 77,-25 117,-18 127,-91 22,-151 1,-623 1,-819l58 -1079c10,-76 13,-173 25,-259 6,-42 9,-99 13,-130l217 -1793c6,-45 4,-87 11,-132l8 -818c-37,-266 -69,-366 28,-602 18,-46 45,-51 56,-98 -118,-145 -130,-620 -109,-826 14,-139 41,-277 75,-406 50,-182 70,-199 160,-307 -68,-174 -41,-513 -7,-699 41,-226 105,-405 174,-601 -513,-2 -910,-36 -1335,-235 -310,-145 -675,-468 -772,-821l-20 16c-2,1 -4,3 -6,4l0 0c-6,6 -13,15 -24,25 -94,88 -318,224 -435,277 -234,107 -387,144 -674,146 -488,4 -727,-154 -1052,-392 -40,-29 -71,-59 -117,-82 -19,80 -85,211 -125,272 -61,96 -95,148 -171,223 -68,67 -117,122 -208,185 -459,313 -1009,395 -1605,356z" id="svg-part-1"/>
   <path fill="#0080C5" d="M5017 243c97,353 462,676 772,821 425,199 822,233 1335,235 36,-82 94,-249 144,-312 -11,-46 -4,-26 -39,-53 -26,-20 -29,-25 -51,-46 -106,-99 -206,-157 -328,-230 -372,-225 -991,-281 -1420,-438l-137 -49c-48,-20 -109,-23 -146,-40 -13,22 -37,41 -66,64 -21,17 -34,22 -43,32l0 0 -21 16zm-4571 751c19,47 115,258 134,279 596,39 1146,-43 1605,-356 91,-63 140,-118 208,-185 76,-75 110,-127 171,-223 40,-61 106,-192 125,-272 -39,-36 -85,-69 -132,-98 -67,7 -89,17 -140,37l-424 134c-205,47 -402,88 -599,144 -110,31 -182,50 -283,89 -186,72 -434,210 -578,350 -59,57 -80,59 -87,101z" id="svg-part-2"/>
   <path fill="#0080C5" d="M55 2323c55,31 133,32 197,48 69,17 126,36 191,60 199,74 265,158 321,181 36,-308 55,-386 -3,-717 -47,-263 -172,-560 -181,-622 -19,-21 -115,-232 -134,-279 -36,30 -112,225 -137,288 -41,103 -82,216 -112,324 -61,220 -117,462 -142,717zm7069 -1024c-69,196 -133,375 -174,601 -34,186 -61,525 7,699 42,-12 99,-66 149,-94 57,-32 112,-55 173,-78 133,-50 246,-67 393,-101 -21,-39 -46,-282 -64,-371 -25,-122 -56,-240 -88,-350 -34,-117 -69,-217 -112,-325 -20,-50 -41,-104 -64,-154l-53 -112c-14,-26 0,-15 -23,-27 -50,63 -108,230 -144,312z" id="svg-part-3"/>
   <path fill="#EEAD1E" d="M885 4142c110,-141 118,-615 106,-820 -7,-110 -25,-315 -50,-416 -43,-170 -120,-213 -177,-294 -56,-23 -122,-107 -321,-181 -65,-24 -122,-43 -191,-60 -64,-16 -142,-17 -197,-48 -50,75 -55,287 -55,387 207,-17 545,12 652,211 42,77 56,141 78,228 65,260 35,369 60,542 24,169 -53,172 -13,252 18,37 79,177 108,199zm6072 -1543c-90,108 -110,125 -160,307 -34,129 -61,267 -75,406 -21,206 -9,681 109,826 28,-14 118,-211 119,-227 3,-36 -19,-95 -25,-148 -18,-192 42,-587 112,-781 59,-168 246,-251 450,-271 337,-32 215,72 218,-230 1,-86 -6,-98 -33,-155 -147,34 -260,51 -393,101 -61,23 -116,46 -173,78 -50,28 -107,82 -149,94z" id="svg-part-4"/>
   <path fill="#FEFEFE" d="M1328 1246c-35,-224 -106,-453 -223,-688l-21 -4c-183,75 -414,206 -551,339 -59,57 -80,59 -87,101 19,47 115,258 134,279 9,62 134,359 181,622 58,331 39,409 3,717 57,81 134,124 177,294 17,70 31,189 40,293 245,-672 450,-1295 347,-1953zm5058 0c35,-224 106,-453 223,-688l21 -4c183,75 414,206 551,339 56,54 78,58 86,96 -44,56 -95,193 -130,280 -2,2 -3,3 -4,4 0,2 0,4 -1,6 -3,7 -6,14 -8,20 -69,196 -133,375 -174,601 -10,52 -19,116 -25,186 -6,48 -8,91 -9,132 -4,123 2,248 28,341 2,16 4,32 6,49 -84,100 -105,121 -153,298 -22,84 -41,172 -56,262 -4,10 -7,20 -8,31 -245,-672 -450,-1295 -347,-1953z" id="svg-part-5"/>
   <path fill="#001331" d="M932 1281c-26,12 -56,10 -120,39 10,58 101,200 146,576 3,28 9,39 10,70 0,38 -1,44 1,78 17,283 -11,305 -10,466 77,-151 135,-330 167,-487 45,-213 30,-386 41,-455l66 63c-2,-20 -3,-42 -4,-64 -1,-25 1,-44 -3,-70 -3,-21 -7,-45 -10,-69 -9,-56 -20,-110 -35,-163 -64,-234 -182,-439 -325,-601 13,-7 26,-14 38,-21 154,176 266,369 329,618 13,48 23,98 32,151 11,71 27,233 9,304 -16,0 -43,-38 -62,-55l-2 20 -6 122c-4,42 -6,73 -12,116 -34,229 -138,609 -287,738 3,-55 17,-130 23,-183 30,-250 22,-469 -16,-700 -34,-210 -121,-393 -143,-488l13 -5 84 -36c-125,-145 -240,-248 -353,-324 8,-8 18,-17 30,-28 2,-2 4,-5 7,-7 87,58 175,133 267,237l131 154c-2,2 -4,3 -6,4zm5850 0c26,12 56,10 120,39 -10,58 -101,200 -146,576 -3,28 -9,39 -10,70 -1,38 1,44 -1,78 -17,283 11,305 10,466 -77,-151 -135,-330 -167,-487 -45,-213 -31,-386 -41,-455l-66 63c2,-20 3,-42 4,-64 1,-25 -1,-44 3,-70 2,-21 6,-45 10,-69 9,-56 20,-110 35,-163 64,-234 182,-439 325,-601 -13,-7 -26,-14 -38,-21 -154,176 -266,369 -330,618 -12,48 -22,98 -31,151 -11,71 -27,233 -9,304 16,0 43,-38 62,-55l2 20 6 122c4,42 6,73 12,116 34,229 138,609 287,738 -3,-55 -17,-130 -23,-183 -30,-250 -22,-469 16,-700 34,-210 121,-393 143,-488l-13 -5 -84 -36c125,-145 240,-248 353,-324 -8,-8 -18,-17 -30,-28 -2,-2 -5,-5 -7,-7 -87,58 -175,133 -267,237l-131 154c2,2 4,3 6,4z" id="svg-part-6"/>
   <path fill="#EEAD1E" d="M824 682c25,25 50,52 74,84 106,137 203,316 253,502 1,3 1,6 2,9 14,54 57,233 45,273l-54 -53c-8,33 -5,71 -6,104 -1,93 -8,223 -22,318 -13,87 -67,350 -120,432 15,-145 -1,-376 -17,-516 -23,-197 -125,-480 -125,-499 47,-17 117,-18 144,-24 -5,-11 -11,-22 -18,-33 -83,-144 -252,-297 -420,-412 74,-65 167,-129 264,-185zm6066 0c-25,25 -50,52 -74,84 -106,137 -203,316 -253,502 -1,3 -2,6 -2,9 -14,54 -57,233 -45,273l54 -53c8,33 5,71 6,104 1,93 8,223 22,318 13,87 67,350 120,432 -15,-145 1,-376 17,-516 23,-197 125,-480 125,-499 -47,-17 -117,-18 -144,-24 5,-11 11,-22 17,-33 84,-144 253,-297 420,-412 -73,-65 -166,-129 -263,-185z" id="svg-part-7"/>
  </g>
 </g>
</svg>