<svg xmlns="http://www.w3.org/2000/svg" xmlns:xlink="http://www.w3.org/1999/xlink" xml:space="preserve" width="100%" height="100%" version="1.1" shape-rendering="geometricPrecision" text-rendering="geometricPrecision" image-rendering="optimizeQuality" fill-rule="evenodd" clip-rule="evenodd" viewBox="0 0 1512 1980"><defs><style data-fonts="true">@font-face { font-family: 'font_1'; src: url('http://127.0.0.1:8000/storage/fonts/5ZIyXfnllvfea2c03RF0XvhB4s9AbiJS5UuPNvgP') format('truetype'); }@font-face { font-family: 'font_2'; src: url('http://127.0.0.1:8000/storage/fonts/HiTBF8CNdPuu1yhMAdkdrafbOxzCEGWugdII81Rt') format('truetype'); }@font-face { font-family: 'font_3'; src: url('http://127.0.0.1:8000/storage/fonts/NTEl0gVIgAt3bQrdxmwPc3g1o1VAdu4adzElDKs8') format('truetype'); }</style></defs>
 <g id="Layer_x0020_1">
  <metadata id="CorelCorpID_0Corel-Layer"/>
  <path fill="#55FF00" d="M149 464l0 1c1,3 4,5 6,8 14,18 24,36 31,61 13,48 11,144 4,194 -2,15 -13,75 -19,84 0,4 1,4 2,6 26,39 20,73 14,117 0,6 0,12 0,19 0,6 -1,9 -1,17l0 74c0,13 1,24 1,38l5 69 15 98c1,5 1,11 2,16 1,6 2,11 2,17 6,37 17,136 19,169 0,4 1,12 2,16l8 86c0,13 3,37 4,52l3 54c1,13 3,56 2,72 0,7 2,10 2,17l0 96c0,8 4,27 -1,34 -8,10 -7,14 -5,31 4,33 7,37 34,41 26,4 73,9 101,12l103 10c11,1 24,0 35,2l71 3c7,0 11,1 17,1 7,0 13,0 20,0 13,0 22,1 36,1l190 0c5,0 9,-1 16,-1l36 -1c6,0 13,0 20,0 6,0 9,-1 17,-1l88 -5c5,-1 13,-1 17,-1l54 -4c37,-3 101,-8 135,-14 33,-5 30,-20 34,-42 1,-7 6,-28 -6,-29 0,-49 0,-97 1,-144 0,-6 1,-9 1,-16 0,-7 0,-12 1,-18 0,-5 0,-12 0,-17 0,-8 1,-10 1,-18 0,-12 1,-22 1,-35l6 -85c0,-15 4,-35 4,-50l18 -166c2,-22 10,-68 15,-93 3,-22 11,-76 12,-97 1,-21 4,-49 4,-69 0,-7 1,-9 1,-16 0,-19 1,-56 -1,-72 0,-6 1,-12 0,-18 -1,-10 -2,-23 -3,-34 -4,-20 -5,-46 -2,-68 2,-14 8,-29 14,-41 1,-2 1,-3 3,-6 2,-3 2,-2 3,-7 -6,-9 -18,-70 -20,-85 -5,-32 -6,-67 -5,-100 1,-27 3,-69 10,-94 12,-44 33,-60 36,-69 -2,-12 -3,-31 -4,-44 0,-8 1,-42 0,-45l-1206 0c-1,3 0,37 0,45 -1,14 -2,31 -4,44z" id="svg-part-0"/>
  <path fill="#55FF00" d="M87 177c3,7 7,14 12,21 25,44 50,117 53,169l1 8 1206 0 9 -58c7,-37 17,-65 33,-99l23 -43 1 -3c-8,-4 -30,-23 -52,-34 -4,-2 -6,-4 -11,-6l-48 -22 -52 -18c-42,-12 -69,-17 -113,-26 -5,-1 -10,-1 -14,-2 -5,-2 -9,-3 -14,-4 -24,-5 -57,-16 -81,-23 -5,-1 -9,-3 -13,-4 -8,-2 -8,-3 -15,-3 -6,7 -43,36 -51,42 -111,78 -227,94 -354,31 -21,-10 -40,-22 -58,-34 -9,-6 -49,-33 -53,-39l-51 16c-17,6 -39,11 -55,16 -17,5 -27,6 -43,10 -6,1 -8,2 -14,3 -31,4 -81,16 -112,27 -22,8 -52,21 -73,32 -3,2 -7,4 -11,7 -6,4 -46,29 -50,36z" id="svg-part-1"/>
  <path fill="#55FF00" d="M496 30c4,6 44,33 53,39 18,12 37,24 58,34 127,63 243,47 354,-31 8,-6 45,-35 51,-42 -1,-3 -2,-3 -6,-5l-36 -19c-6,-3 -8,-5 -17,-6l-3 0c-6,0 -11,2 -14,5 -9,7 -4,3 -13,9 -13,9 -53,29 -65,34 -53,20 -104,27 -161,12 -7,-1 -12,-2 -18,-4 -35,-12 -58,-25 -88,-45 -7,-4 -11,-10 -23,-11l-11 0 0 0c-7,1 -24,11 -31,14 -6,3 -26,12 -30,16z" id="svg-part-2"/>
  <path fill="#55FF00" d="M1424 175l-23 43c-16,34 -26,62 -33,99l-9 58c1,3 0,37 0,45 1,13 2,32 4,44 6,-2 9,-7 14,-11 35,-27 80,-44 125,-49l-5 -33c-1,-5 -2,-10 -3,-16 -7,-32 -11,-45 -21,-76 -1,-5 -3,-10 -4,-14 -9,-25 -18,-44 -30,-67 -2,-5 -4,-9 -7,-13 -6,-12 -4,-11 -8,-10zm-1414 229c42,5 99,25 131,54 3,3 2,4 7,6l1 0c2,-13 3,-30 4,-44 0,-8 -1,-42 0,-45l-1 -8c-3,-52 -28,-125 -53,-169 -5,-7 -9,-14 -12,-21 -4,2 -19,30 -21,35l-7 14c-2,4 -4,9 -5,13 -12,28 -15,40 -25,70 -4,13 -19,83 -19,95z" id="svg-part-3"/>
  <path fill="#55FF00" d="M171 812c6,-9 17,-69 19,-84 7,-50 9,-146 -4,-194 -7,-25 -17,-43 -31,-61 -2,-3 -5,-5 -6,-8l-1 -1c-5,-2 -4,-3 -7,-6 -32,-29 -89,-49 -131,-54 -3,5 -4,10 -5,16 -4,24 -5,30 -5,57 29,0 69,5 96,19 34,17 44,61 49,97 2,9 4,17 5,27 3,35 7,89 -2,122 -2,10 -4,3 4,24 1,3 16,43 19,46zm1192 -348c-3,9 -24,25 -36,69 -7,25 -9,67 -10,94 -1,33 0,68 5,100 2,15 14,76 20,85 0,-1 -1,1 1,-2l17 -44c12,-29 3,-5 0,-52 -1,-18 -3,-45 0,-63 0,-5 1,-11 1,-15 1,-6 1,-10 1,-15 1,-10 3,-19 5,-28 6,-40 17,-81 50,-97 21,-11 42,-15 66,-17l29 -3c0,-23 -3,-57 -10,-72 -45,5 -90,22 -125,49 -5,4 -8,9 -14,11z" id="svg-part-4"/>
  <path fill="black" d="M1489 333l-124 0 3 -16c0,-4 1,-8 2,-12l1 -1 -1 0c2,-5 3,-10 4,-15l1 7 3 -6 7 -4 -8 1 -2 -1c2,-8 5,-15 7,-22l4 5 0 8 3 -6 8 -4 -9 0 -6 -3c4,-12 9,-23 14,-35l1 0 -1 0c2,-3 3,-6 5,-9l0 1 3 -6 7 -5 -6 1 7 -13 0 3 3 -6 8 -4 -8 1 9 -17c1,0 1,0 2,0l0 0 0 8 3 -5c1,2 2,4 3,7 1,1 1,2 2,3l-1 -1 2 3c1,1 2,3 2,4l1 7 1 -3c9,18 17,33 24,50l-9 1 -6 -4 4 5 0 9 3 -7 8 -4c2,6 4,11 6,17 0,1 0,1 0,2l-3 0 -7 -4 4 6 1 8 3 -6 3 -2c1,3 3,6 3,10l2 4 -2 -1 2 3 3 10 0 1 1 0c3,13 6,24 10,37zm-103 -26l0 8 3 -6 8 -5 -9 1 -7 -4 5 6zm26 0l0 8 3 -6 8 -5 -9 1 -7 -4 5 6zm25 0l1 8 3 -6 8 -5 -9 1 -7 -4 4 6zm26 0l1 8 3 -6 7 -5 -8 1 -7 -4 4 6zm-63 -19l1 8 3 -6 7 -4 -9 1 -6 -5 4 6zm26 0l0 8 3 -6 8 -4 -9 1 -6 -5 4 6zm26 0l0 8 3 -6 8 -4 -9 1 -6 -5 4 6zm-40 -19l0 8 3 -6 8 -4 -9 0 -7 -4 5 6zm25 0l1 8 3 -6 8 -4 -9 0 -7 -4 4 6zm-37 -19l1 9 3 -7 7 -4 -9 1 -6 -4 4 5zm26 0l0 9 3 -7 8 -4 -9 1 -6 -4 4 5zm-14 -19l0 8 3 -6 8 -4 -9 1 -7 -5 5 6zm25 0l1 8 3 -6 8 -4 -9 1 -7 -5 4 6zm-11 -18l0 8 3 -6 8 -5 -9 1 -6 -4 4 6zm-1373 94l1 8 3 -6 7 -5 -9 1 -6 -4 4 6zm26 0l1 8 2 -6 8 -5 -9 1 -6 -4 4 6zm26 0l0 8 3 -6 8 -5 -9 1 -6 -4 4 6zm-37 -19l0 8 3 -6 8 -4 -9 1 -7 -5 5 6zm26 0l0 8 3 -6 8 -4 -9 1 -7 -5 5 6zm25 0l1 8 3 -6 8 -4 -9 1 -7 -5 4 6zm-66 -19l1 8 3 -6 7 -4 -9 0 -6 -4 4 6zm26 0l1 8 2 -6 8 -4 -9 0 -6 -4 4 6zm26 0l0 8 3 -6 8 -4 -9 0 -6 -4 4 6zm-37 -19l0 9 3 -7 8 -4 -9 1 -7 -4 5 5zm26 0l0 9 3 -7 8 -4 -9 1 -7 -4 5 5zm-15 -19l1 8 2 -6 8 -4 -9 1 -6 -5 4 6zm15 -18l0 8 3 -6 8 -5 -9 1 -7 -4 5 6zm53 120c-1,-9 -4,-19 -6,-28l-7 4 -3 6 0 -8 -4 -6 6 4 8 -1c-3,-9 -6,-19 -9,-29l-1 2 0 -5c-1,-2 -1,-4 -2,-6l-2 -3 1 1c-1,-4 -3,-8 -4,-12l-1 0 -3 7 -1 -9 -4 -5 7 4 0 0c-2,-7 -5,-13 -8,-19l-6 3 -3 6 0 -8 -4 -6 6 5 7 -1c-5,-11 -10,-22 -15,-31 -5,-7 -9,-14 -12,-21 -2,1 -5,6 -9,13l3 2 9 -1 -8 4 -2 6 -1 -8 -2 -2c-3,6 -7,14 -10,18l3 2 9 -1 -8 5 -3 6 0 -8 -2 -2c0,0 0,1 0,1l-7 14c0,1 -1,2 -1,3l6 0 -7 4 -3 6 0 0c-2,3 -3,6 -4,9l3 0 -4 2c-5,12 -8,22 -11,33l6 4 9 -1 -8 4 -3 6 0 -8 -4 -5c-3,6 -5,13 -8,22l8 -1 -7 5 -3 6 0 0c-1,4 -3,11 -5,18l124 0z" id="svg-part-5"/>
 </g>
<g id="mascot-overlay-group"/></svg>