<svg xmlns="http://www.w3.org/2000/svg" xmlns:xlink="http://www.w3.org/1999/xlink" xml:space="preserve" width="100%" height="100%" version="1.1" shape-rendering="geometricPrecision" text-rendering="geometricPrecision" image-rendering="optimizeQuality" fill-rule="evenodd" clip-rule="evenodd" viewBox="0 0 4414 9927"><defs><clipPath id="clip-svg-part-0-left"><path fill="black" d="M3313 786l200 158c363,323 456,842 390,1322 -17,126 -89,495 -144,558 110,208 -5,790 -144,1002 -258,392 -777,691 -1387,643 -712,-55 -1240,-449 -1340,-1118 -24,-167 -28,-595 80,-691 -56,-129 53,-744 66,-902l-436 50c-102,171 -382,962 -439,1185 -121,474 -206,944 -131,1459 12,85 25,150 37,236 12,86 37,260 68,337 77,194 22,52 41,232 2,27 3,26 7,58 0,4 3,28 3,30 12,39 -14,11 21,34 -29,75 33,142 33,240 1,98 -1,197 0,296 0,95 -13,167 -12,273 1,61 11,70 12,131 1,50 0,102 0,153 0,535 105,1615 166,2163 35,314 65,487 63,811 0,58 7,142 29,190 11,26 7,37 61,48 98,20 279,13 381,13 72,0 113,12 196,11l416 11c71,0 147,-2 219,0 334,10 999,59 1294,118l586 90 -23 -448c-8,-286 8,-121 -44,-436 -16,-92 -21,-179 -35,-283 -34,-268 -59,-970 -26,-1213 15,-116 31,-476 50,-584 32,-185 61,-356 92,-542l112 -522c23,-90 41,-164 66,-251 16,-59 74,-204 59,-247 25,-18 22,-11 38,-61 185,-569 430,-1553 454,-2115 5,-116 22,-235 22,-361 -1,-602 11,-820 -168,-1351 -119,-353 -244,-669 -445,-977 -16,-25 -26,-30 -43,-55l-109 -44c-15,226 -145,293 -336,349z" id="svg-part-0"/></clipPath><pattern id="pattern-svg-part-0-left" patternUnits="userSpaceOnUse" x="0" y="0" width="7695" height="10130" preserveAspectRatio="xMidYMid meet"><g transform="scale(1) rotate(0)" opacity="1"><svg xmlns="http://www.w3.org/2000/svg" xmlns:xlink="http://www.w3.org/1999/xlink" xml:space="preserve" width="7695" height="10130" version="1.1" shape-rendering="geometricPrecision" text-rendering="geometricPrecision" image-rendering="optimizeQuality" fill-rule="evenodd" clip-rule="evenodd" viewBox="0 0 4851 6728" preserveAspectRatio="xMidYMid meet">
 <g id="Layer_x0020_1">
  <metadata id="CorelCorpID_0Corel-Layer"/>
  <g id="_2273969982928">
   <rect fill="#373435" width="4851" height="6728" id="svg-part-1"/>
   <path fill="#EB1C24" fill-rule="nonzero" d="M0 0l4851 0 0 36c-1617,-2 -3234,0 -4851,-1l0 -35zm0 62c1617,0 3234,-1 4851,0l0 68c-1617,0 -3234,0 -4851,0l0 -68zm0 94c1617,0 3234,0 4851,0l0 62c-1617,0 -3234,0 -4851,0l0 -62zm0 90c1617,0 3234,0 4851,0l0 35c-1617,0 -3234,0 -4851,0l0 -35zm0 62c1617,0 3234,0 4851,0l0 67c-1617,0 -3234,0 -4851,0l0 -67zm0 94c1617,0 3234,0 4851,0l0 191c-1617,1 -3234,0 -4851,1l0 -192zm0 221c1617,0 3234,0 4851,0l0 66c-1617,0 -3234,0 -4851,0l0 -66zm0 92c1617,0 3234,1 4851,0l0 35c-1617,0 -3234,0 -4851,0l0 -35zm0 62c1617,0 3234,0 4851,0l0 69c-1617,0 -3234,0 -4851,1l0 -70zm0 95c1617,0 3234,0 4851,0l0 69c-1617,0 -3234,0 -4851,0l0 -69zm0 94c1617,0 3234,0 4851,1l0 36c-1617,0 -3234,0 -4851,0l0 -37zm0 63c1617,0 3234,0 4851,0l0 63c-1617,0 -3234,-1 -4851,0l0 -63zm0 94c1617,0 3234,1 4851,0l0 62c-1617,0 -3234,0 -4851,0l0 -62zm0 91c1617,0 3234,0 4851,1l0 34c-1617,-1 -3234,3 -4851,-2l0 -33zm0 63c1617,0 3234,-1 4851,0l0 39c-1617,0 -3234,0 -4851,0l0 -39zm0 92c1617,0 3234,0 4851,0l0 38c-1617,0 -3234,0 -4851,-1l0 -37zm0 157c1617,0 3234,0 4851,0l0 35c-1617,0 -3234,0 -4851,0l0 -35zm0 96c1617,0 3234,0 4851,0l0 35c-1617,0 -3234,0 -4851,0l0 -35zm0 62c1617,0 3234,0 4851,0l0 66c-1617,0 -3234,0 -4851,0l0 -66zm0 124c1617,0 3234,0 4851,0l0 36c-1617,0 -3234,0 -4851,0l0 -36zm0 189c1617,0 3234,0 4851,0l0 35c-1617,0 -3234,0 -4851,0l0 -35zm0 121c1617,0 3234,0 4851,0l0 36c-1617,0 -3234,0 -4851,0l0 -36zm0 96c1617,0 3234,0 4851,0l0 36c-1617,0 -3234,0 -4851,0l0 -36zm0 121c1617,0 3234,0 4851,0l0 40c-1617,0 -3234,0 -4851,0l0 -40zm0 131c1617,0 3234,0 4851,0l0 35c-1617,0 -3234,0 -4851,0l0 -35zm0 150c1617,0 3234,0 4851,0l0 36c-1617,0 -3234,0 -4851,0l0 -36zm0 95c1617,0 3234,0 4851,0l0 36c-1617,0 -3234,0 -4851,0l0 -36zm0 279c1302,0 2604,1 3906,1 315,9 630,-4 945,-1l0 39c-1617,0 -3234,0 -4851,0l0 -39zm0 129c1617,0 3234,0 4851,0l0 38c-1617,0 -3234,0 -4851,0l0 -38zm0 155c630,5 1260,1 1890,2 987,1 1974,2 2961,-2l0 39c-1617,0 -3234,0 -4851,0l0 -39z" id="svg-part-2"/>
  </g>
 </g>
</svg></g></pattern></defs>
 <g id="Layer_x0020_1">
  <metadata id="CorelCorpID_0Corel-Layer"/>
  <g id="_2884721249104">
   <path fill="black" d="M3313 786l200 158c363,323 456,842 390,1322 -17,126 -89,495 -144,558 110,208 -5,790 -144,1002 -258,392 -777,691 -1387,643 -712,-55 -1240,-449 -1340,-1118 -24,-167 -28,-595 80,-691 -56,-129 53,-744 66,-902l-436 50c-102,171 -382,962 -439,1185 -121,474 -206,944 -131,1459 12,85 25,150 37,236 12,86 37,260 68,337 77,194 22,52 41,232 2,27 3,26 7,58 0,4 3,28 3,30 12,39 -14,11 21,34 -29,75 33,142 33,240 1,98 -1,197 0,296 0,95 -13,167 -12,273 1,61 11,70 12,131 1,50 0,102 0,153 0,535 105,1615 166,2163 35,314 65,487 63,811 0,58 7,142 29,190 11,26 7,37 61,48 98,20 279,13 381,13 72,0 113,12 196,11l416 11c71,0 147,-2 219,0 334,10 999,59 1294,118l586 90 -23 -448c-8,-286 8,-121 -44,-436 -16,-92 -21,-179 -35,-283 -34,-268 -59,-970 -26,-1213 15,-116 31,-476 50,-584 32,-185 61,-356 92,-542l112 -522c23,-90 41,-164 66,-251 16,-59 74,-204 59,-247 25,-18 22,-11 38,-61 185,-569 430,-1553 454,-2115 5,-116 22,-235 22,-361 -1,-602 11,-820 -168,-1351 -119,-353 -244,-669 -445,-977 -16,-25 -26,-30 -43,-55l-109 -44c-15,226 -145,293 -336,349z" id="svg-part-3" data-has-pattern="true" data-pattern-id="pattern-svg-part-0-left" data-pattern-size="50" data-pattern-opacity="100" data-pattern-angle="0" data-pattern-view="left"/>
   <path fill="#ED3237" d="M1034 1758c-13,158 -122,773 -66,902 207,-459 995,-423 1467,-400 395,19 852,-1 1162,251 84,69 126,187 162,313 55,-63 127,-432 144,-558 66,-480 -27,-999 -390,-1322l-200 -158c-47,-8 -120,-44 -169,-63 -59,-22 -112,-39 -173,-56 -805,-236 -1502,-46 -1833,748 -31,74 -80,303 -104,343z" id="svg-part-4"/>
   <path fill="black" d="M2025 610l0 1638c147,-1 289,6 410,12 134,6 275,8 415,18l0 -1644c-297,-71 -576,-83 -825,-24z" id="svg-part-5"/>
   <path fill="#FEFEFE" d="M1080 3105c0,-215 76,-335 290,-420 326,-130 836,-94 1218,-94 344,0 951,30 951,470 0,386 -115,647 -371,842 -224,171 -610,273 -908,273 -238,0 -645,-137 -817,-308 -115,-114 -162,-164 -240,-318 -48,-97 -123,-308 -123,-445zm-112 -445c-108,96 -104,524 -80,691 100,669 628,1063 1340,1118 610,48 1129,-251 1387,-643 139,-212 254,-794 144,-1002 -36,-126 -78,-244 -162,-313 -310,-252 -767,-232 -1162,-251 -472,-23 -1260,-59 -1467,400z" id="svg-part-6"/>
   <path fill="#373435" d="M959 1116l-27 38c-12,20 -12,20 -24,41 -18,35 -30,53 -48,84l-178 346c-31,67 -60,111 -84,183l436 -50c24,-40 73,-269 104,-343 331,-794 1028,-984 1833,-748 61,17 114,34 173,56 49,19 122,55 169,63 191,-56 321,-123 336,-349 -214,-71 -605,-285 -712,-315 -303,-86 -618,-48 -873,53 -487,193 -886,794 -1105,941z" id="svg-part-7"/>
   <path fill="#FEFEFE" d="M3533 687c-572,-202 -1216,-319 -1723,-75 -523,250 -769,740 -970,1168l-242 28c2,-3 3,-7 4,-10 226,-385 489,-815 927,-1146 542,-410 1349,-400 2103,-113 -20,65 -53,112 -99,148z" id="svg-part-8"/>
   <path fill="#ED3237" d="M3577 644c-633,-230 -1347,-329 -1871,-23 -490,287 -740,756 -949,1169l-69 8c217,-402 471,-856 937,-1167 533,-355 1296,-285 1981,-29 -8,15 -18,29 -29,42z" id="svg-part-9"/>
   <path fill="#ED3237" d="M959 1116c219,-147 618,-748 1105,-941 255,-101 570,-139 873,-53 107,30 498,244 712,315l109 44c-10,-43 -70,-132 -95,-179 -39,-73 -41,-99 -78,-118 -13,-6 -40,-11 -60,-16 -298,-82 -607,-168 -926,-168 -292,0 -427,14 -671,159 -60,36 -118,66 -171,103 -50,36 -106,78 -155,118 -137,113 -155,133 -285,262l-128 145c-51,65 -212,259 -230,329z" id="svg-part-10"/>
  </g>
 </g>
<g id="pattern-overlay-group"><path fill="url(#pattern-svg-part-0-left)" d="M3313 786l200 158c363,323 456,842 390,1322 -17,126 -89,495 -144,558 110,208 -5,790 -144,1002 -258,392 -777,691 -1387,643 -712,-55 -1240,-449 -1340,-1118 -24,-167 -28,-595 80,-691 -56,-129 53,-744 66,-902l-436 50c-102,171 -382,962 -439,1185 -121,474 -206,944 -131,1459 12,85 25,150 37,236 12,86 37,260 68,337 77,194 22,52 41,232 2,27 3,26 7,58 0,4 3,28 3,30 12,39 -14,11 21,34 -29,75 33,142 33,240 1,98 -1,197 0,296 0,95 -13,167 -12,273 1,61 11,70 12,131 1,50 0,102 0,153 0,535 105,1615 166,2163 35,314 65,487 63,811 0,58 7,142 29,190 11,26 7,37 61,48 98,20 279,13 381,13 72,0 113,12 196,11l416 11c71,0 147,-2 219,0 334,10 999,59 1294,118l586 90 -23 -448c-8,-286 8,-121 -44,-436 -16,-92 -21,-179 -35,-283 -34,-268 -59,-970 -26,-1213 15,-116 31,-476 50,-584 32,-185 61,-356 92,-542l112 -522c23,-90 41,-164 66,-251 16,-59 74,-204 59,-247 25,-18 22,-11 38,-61 185,-569 430,-1553 454,-2115 5,-116 22,-235 22,-361 -1,-602 11,-820 -168,-1351 -119,-353 -244,-669 -445,-977 -16,-25 -26,-30 -43,-55l-109 -44c-15,226 -145,293 -336,349z" id="svg-part-11" clip-path="url(#clip-svg-part-0-left)" style="pointer-events: none;"/></g></svg>