<svg xmlns="http://www.w3.org/2000/svg" xmlns:xlink="http://www.w3.org/1999/xlink" xml:space="preserve" width="100%" height="100%" version="1.1" shape-rendering="geometricPrecision" text-rendering="geometricPrecision" image-rendering="optimizeQuality" fill-rule="evenodd" clip-rule="evenodd" viewBox="0 0 158 356"><defs/>
 <g id="Layer_x0020_1">
  <metadata id="CorelCorpID_0Corel-Layer"/>
  <g id="_2474613902800">
   <path fill="black" d="M135 17l9 16c6,11 10,25 13,37 2,10 2,38 0,48 -3,24 -5,39 -12,62l-6 17c0,0 0,1 0,1 0,0 0,0 0,0 -2,8 -3,13 -5,21 -2,8 -3,13 -4,21 -3,13 -3,21 -4,34 0,8 -1,16 0,24 0,5 0,9 1,12l1 12c1,4 1,7 2,10l0 19c0,2 1,3 1,5 -4,0 -10,-1 -13,-2l-9 -1c-1,0 -2,0 -3,-1 -13,-1 -29,-3 -43,-3 -2,0 -5,0 -7,0 -3,0 -5,0 -8,0 -2,-1 -5,0 -7,0 -3,0 -5,-1 -7,-1 -3,0 -5,0 -8,0 -3,0 -6,0 -7,-1 -1,0 0,1 -1,-1 0,0 -1,-1 -1,-2 -1,-4 0,-9 0,-14l-5 -41c0,-1 0,-3 0,-5 -1,-9 -2,-18 -2,-28 -1,-2 -1,-7 -1,-9 0,-2 0,-4 0,-5 0,-2 -1,-3 -1,-5 0,-3 0,-6 0,-10 0,-3 0,-6 0,-10 1,-21 1,-10 -2,-27 -1,-6 1,-4 -1,-9 -2,-4 -3,-12 -3,-17 -5,-24 0,-47 8,-70 1,-5 3,-10 5,-14l6 -15 16 -2c0,6 -4,28 -2,33 -2,1 -3,8 -4,11 0,4 0,10 1,14 4,24 22,38 48,40 20,1 34,-7 43,-16 5,-5 8,-9 11,-18 2,-6 4,-20 1,-26 2,-2 4,-15 5,-20 2,-17 -1,-36 -14,-47l-7 -6c7,-2 11,-4 12,-12l4 1z"/>
   <path fill="black" d="M119 28l7 6c13,11 16,30 14,47 -1,5 -3,18 -5,20 -2,-4 -3,-8 -6,-11 -11,-9 -28,-8 -42,-9 -17,-1 -45,-2 -52,15 -2,-5 2,-27 2,-33 1,-2 7,-48 56,-42 15,2 22,7 26,7z"/>
   <path fill="black" d="M119 28l7 6c13,11 16,30 14,47 -1,5 -3,18 -5,20 -2,-4 -3,-8 -6,-11 -11,-9 -28,-8 -42,-9 -17,-1 -45,-2 -52,15 -2,-5 2,-27 2,-33 1,-2 7,-48 56,-42 15,2 22,7 26,7z"/>
   <path fill="black" d="M81 150c21,0 46,-11 46,-37 0,-9 -2,-13 -12,-17 -9,-4 -34,-3 -46,-3 -8,0 -22,2 -27,8 -3,4 -3,6 -3,11 0,6 4,16 8,22 4,6 10,10 17,12 4,2 12,4 17,4zm54 -49c3,6 1,20 -1,26 -3,9 -6,13 -11,18 -9,9 -23,17 -43,16 -26,-2 -44,-16 -48,-40 -1,-4 -1,-10 -1,-14 1,-3 2,-10 4,-11 7,-17 35,-16 52,-15 14,1 31,0 42,9 3,3 4,7 6,11z"/>
   <path fill="black" d="M131 16c-1,8 -5,10 -12,12 -4,0 -11,-5 -26,-7 -49,-6 -55,40 -56,42l-16 2 5 -10c0,0 0,-1 1,-1l7 -14 19 -18c6,-6 12,-12 21,-16 9,-3 20,-5 31,-1 4,1 18,8 26,11z"/>
   <path fill="#4B4B4D" d="M121 12c6,3 9,3 15,8l4 7c-9,-7 -11,-8 -19,-15zm0 16l12 8 -9 -10c-4,-3 -8,-6 -9,-6 -9,-4 -18,-5 -27,-5 -4,1 -2,0 -5,3 -2,1 -4,2 -5,2 1,1 6,-1 8,-1 7,-1 15,0 22,2 4,1 9,4 13,7zm25 10l-1 -2c-10,-7 -23,-18 -32,-23 -6,-2 -11,-3 -16,-4 -6,0 -11,1 -16,2 -1,1 -2,1 -4,2 -2,1 -3,1 -3,2 -2,5 -4,3 -4,5 1,-1 7,-3 8,-4 9,-2 17,-3 26,-2 5,2 11,5 17,8 7,6 17,11 25,16zm-1 -3l-3 -5c-6,-5 -10,-8 -16,-13 -1,-1 -2,-2 -3,-3 -1,-1 -3,-2 -4,-3 -4,-2 -8,-4 -11,-5 -2,3 -7,2 -8,2 5,1 10,3 15,6 11,7 18,14 30,21zm-26 -7l0 0c-3,0 -11,-5 -24,-7 1,0 2,0 2,0 2,0 4,0 5,-1 1,0 10,5 17,8zm-28 -7c-4,0 -7,0 -11,0 2,-1 3,-1 4,-1 7,-1 13,-1 14,-1 -1,1 -4,2 -7,2zm-18 1c-8,2 -15,5 -20,10 -4,3 -8,6 -13,9 -1,1 -6,5 -11,9l1 -2c7,-6 14,-12 20,-16 9,-6 17,-11 26,-14 1,-1 6,-2 7,-2 0,1 -2,2 -4,3 -2,1 -4,2 -6,3zm-22 13c-1,0 -1,1 -2,1 -2,2 -5,3 -8,5 -1,1 -2,1 -2,1 4,-2 8,-5 12,-7zm-20 11l1 -2c6,-5 11,-9 16,-13 2,-2 23,-16 25,-16 -1,2 -6,5 -9,7 -2,2 -4,3 -6,4 -3,2 -12,7 -20,14 -2,2 -5,4 -7,6zm2 -4l1 -2 16 -15c4,-4 9,-8 9,-8 0,2 0,4 -5,7 -2,2 -17,14 -21,18zm24 -24c3,-3 6,-5 9,-8 -2,2 -6,5 -9,8zm23 -14c8,-2 17,-2 25,0 -2,2 -7,3 -11,3 -2,0 -4,1 -7,1 -4,1 -8,3 -13,5 -2,1 -13,7 -15,8 3,-3 3,-3 1,-5 1,-1 5,-3 6,-4 3,-2 6,-4 9,-5 1,-1 1,-1 3,-1 0,-1 1,-1 2,-2z"/>
   <path fill="black" d="M135 17l-4 -1c-8,-3 -22,-10 -26,-11 -11,-4 -22,-2 -31,1 -9,4 -15,10 -21,16l-19 18c2,-5 16,-20 20,-24 6,-4 9,-7 15,-10 2,-1 4,-2 7,-3 14,-6 37,-1 52,4 2,0 1,0 1,0 0,1 1,2 1,2 1,1 1,1 1,2 1,1 1,2 2,3 1,1 1,2 2,3z"/>
   <path fill="white" d="M23 163c0,0 1,0 1,1 0,1 -1,1 -1,1 -1,0 -2,0 -2,-1 0,-1 1,-1 2,-1zm5 3c0,0 1,0 1,1 0,1 -1,1 -1,1 -1,0 -1,0 -1,-1 0,-1 0,-1 1,-1zm-1 22c0,0 1,1 1,2 0,0 -1,1 -1,1 -1,0 -2,-1 -2,-1 0,-1 1,-2 2,-2zm0 1c0,0 0,0 0,1 0,0 0,0 0,0 -1,0 -1,0 -1,0 0,-1 0,-1 1,-1zm0 -6c1,0 1,0 1,1 0,1 0,1 -1,1 -1,0 -1,0 -1,-1 0,-1 0,-1 1,-1zm0 1c0,0 0,0 0,0 0,0 0,0 0,0 0,0 -1,0 -1,0 0,0 1,0 1,0zm0 -7c1,0 1,1 1,1 0,1 0,1 -1,1 -1,0 -1,0 -1,-1 0,0 0,-1 1,-1zm0 1c0,0 1,0 1,0 0,0 -1,1 -1,1 0,0 0,-1 0,-1 0,0 0,0 0,0zm0 -7c1,0 2,1 2,2 0,0 -1,1 -2,1 0,0 -1,-1 -1,-1 0,-1 1,-2 1,-2zm0 1c1,0 1,0 1,1 0,0 0,0 -1,0 0,0 0,0 0,0 0,-1 0,-1 0,-1zm1 -5c0,0 0,0 0,0 0,0 0,0 0,0 0,0 -1,0 -1,0 0,0 1,0 1,0zm-7 24c1,0 1,1 1,1 0,1 0,2 -1,2 0,0 -1,-1 -1,-2 0,0 1,-1 1,-1zm0 1c0,0 1,0 1,0 0,1 -1,1 -1,1 0,0 0,0 0,-1 0,0 0,0 0,0zm1 -7c0,0 1,1 1,2 0,0 -1,1 -1,1 -1,0 -2,-1 -2,-1 0,-1 1,-2 2,-2zm0 1c0,0 0,0 0,1 0,0 0,0 0,0 -1,0 -1,0 -1,0 0,-1 0,-1 1,-1zm0 -6c0,0 1,0 1,1 0,1 -1,1 -1,1 -1,0 -1,0 -1,-1 0,-1 0,-1 1,-1zm0 1c0,0 0,0 0,0 0,0 0,0 0,0 0,0 -1,0 -1,0 0,0 1,0 1,0zm0 -7c1,0 1,1 1,1 0,1 0,2 -1,2 -1,0 -1,-1 -1,-2 0,0 0,-1 1,-1zm0 1c0,0 0,0 0,0 0,1 0,1 0,1 0,0 0,0 0,-1 0,0 0,0 0,0zm0 -7c1,0 2,1 2,2 0,0 -1,1 -2,1 0,0 -1,-1 -1,-1 0,-1 1,-2 1,-2zm0 1c1,0 1,0 1,1 0,0 0,0 -1,0 0,0 0,0 0,0 0,-1 0,-1 0,-1zm1 -5c0,0 0,0 0,0 0,0 0,0 0,0 -1,0 -1,0 -1,0 0,0 0,0 1,0z"/>
   <path fill="#4B4B4D" d="M117 31c-1,0 -2,0 -3,-1 -1,0 -3,-1 -5,-2 -5,-2 -11,-3 -16,-4 -17,-2 -33,2 -43,17 -3,4 -6,10 -7,15 -1,2 -2,3 -2,5 0,1 0,1 0,2l92 -14c-2,-5 -5,-9 -9,-13l-7 -5zm-74 14c-4,9 -5,17 -6,18l-16 2 5 -10c0,0 0,-1 1,-1l16 -9 0 0z"/>
   <path fill="white" d="M114 30l0 0 0 0 -2 2 -1 2 2 -1 1 -3zm-56 2c0,0 0,0 0,1l0 0 3 2 -2 -3 -1 0zm-8 9c0,0 0,0 0,0 0,0 0,0 0,0l0 1 3 2 -2 -3 -1 0zm5 20l0 0 -2 -3 -3 -1 2 2 3 2zm7 -1l1 -1 -2 -1 -2 -2 1 2 2 2zm8 -2l1 0 -1 -1 -3 -1 2 2 1 0zm8 -1l1 0 -1 -1 -2 -1 1 2 1 0zm-51 5l-2 -3 2 2 2 2 -2 -1zm8 -1l-2 -2 3 1 1 2 0 0 -2 -1zm-3 -4l1 -2 -2 1 -2 3 3 -2zm12 3l-2 -2 2 1 2 3 -2 -2zm-5 -5l0 1 -1 2 1 -1c0,0 0,-1 0,-2zm10 1l1 -3 -3 2 -1 2 3 -1zm8 -1l1 -3 -2 2 -1 3 2 -2zm9 -1l1 -2 -3 1 -1 3 3 -2zm8 -1l1 -2 -2 1 -2 3 3 -2zm-46 0l1 2 -2 -1 1 -1zm6 -1l-1 -1 0 0 2 0 2 3 -3 -2zm5 -4l1 -1 -2 1 -1 2 2 -2zm12 3l-1 -2 2 1 2 2 -3 -1zm9 -1l-2 -2 3 1 2 2 -3 -1zm-4 -4l1 -2 -2 2 -1 2 2 -2zm12 3l-1 -2 2 1 2 3 -3 -2zm-3 -3l1 -3 -2 2 -2 2 3 -1zm12 2l-2 -2 3 2 1 2 -2 -2zm-4 -3l1 -3 -2 2 -1 3 2 -2zm-14 -3l-2 -3 3 2 2 2 -3 -1zm-4 -4l2 -3 -3 2 -1 3 2 -2zm12 3l-1 -2 2 1 2 2 -3 -1zm-3 -4l1 -2 -2 1 -2 3 3 -2zm12 3l-2 -2 3 1 2 2 -3 -1zm-4 -4l2 -2 -3 2 -1 2 2 -2zm-5 -4l-2 -2 3 1 1 3 -2 -2zm8 0l-2 -3 3 2 2 2 -3 -1zm-3 -4l1 -3 -2 2 -2 3 3 -2zm37 0c-1,0 -2,0 -3,-1l1 2 3 1 -1 -2zm-13 -3c-1,0 -1,0 -1,0l-1 0 -1 3 2 -2 1 -1zm-12 31l2 0 -1 -1 -2 -1 1 2 0 0zm9 -1l1 0 0 0 -3 -2 2 2zm-12 -2l1 -3 -2 2 -2 2 3 -1zm8 -1l2 -3 -3 2 -1 3 2 -2zm9 -1l1 -2 -2 1 -2 3 3 -2zm8 -1l2 -2 -3 1 -1 3 2 -2zm9 -1l1 -2 -2 2 -2 2 3 -2zm8 0l1 -3 -2 2 -1 3 2 -2zm-39 -1l-2 -2 2 1 2 2 -2 -1zm-4 -4l1 -2 -2 1 -1 3 2 -2zm12 3l-2 -2 3 1 2 2 -3 -1zm-3 -4l1 -2 -3 2 -1 2 3 -2zm11 3l-1 -2 2 1 2 3 -3 -2zm-3 -3l1 -3 -2 2 -1 2 2 -1zm12 2l-2 -2 3 2 2 2 -3 -2zm-3 -3l1 -3 -3 2 -1 3 3 -2zm11 3l-1 -2 2 1 2 2 -3 -1zm-3 -4l1 -2 -2 1 -2 3 3 -2zm12 3l-2 -2 3 1 2 2 -3 -1zm-4 -4l2 -2 -3 1 -1 3 2 -2zm-39 -1l-2 -2 3 1 2 3 -3 -2zm-4 -3l2 -3 -3 2 -1 3 2 -2zm12 3l-1 -3 2 2 2 2 -3 -1zm-3 -4l1 -3 -2 2 -2 3 3 -2zm12 3l-2 -2 3 1 2 2 -3 -1zm-4 -4l1 -2 -2 1 -1 3 2 -2zm12 3l-1 -2 2 1 2 2 -3 -1zm-3 -4l1 -2 -2 2 -2 2 3 -2zm12 3l-2 -2 3 1 1 3 -2 -2zm-35 -5l-2 -2 3 1 2 2 -3 -1zm-3 -4l1 -2 -3 1 -1 3 3 -2zm11 3l-1 -2 2 1 2 3 -3 -2zm-3 -4l1 -2 -2 2 -2 2 3 -2zm12 3l-2 -2 3 1 2 3 -3 -2z"/>
  </g>
 </g>
</svg>