<svg xmlns="http://www.w3.org/2000/svg" xmlns:xlink="http://www.w3.org/1999/xlink" xml:space="preserve" width="100%" height="100%" version="1.1" shape-rendering="geometricPrecision" text-rendering="geometricPrecision" image-rendering="optimizeQuality" fill-rule="evenodd" clip-rule="evenodd" viewBox="0 0 744 979" preserveAspectRatio="xMidYMid meet"><defs/>
 <g id="Layer_x0020_1">
  <metadata id="CorelCorpID_0Corel-Layer"/>
  <path fill="#FF0000" d="M98 205c0,7 1,44 -4,51 15,18 22,50 20,80 0,17 -11,71 -19,80 0,8 3,8 2,26 0,19 -8,43 -4,80 2,17 2,34 5,51 2,18 4,33 6,50 5,28 18,145 19,178 0,7 1,19 2,26 1,19 1,36 1,55 0,18 -2,40 0,54 0,7 -1,11 8,19 3,3 6,3 12,5 12,3 31,3 36,4 3,1 5,2 6,2 1,0 1,0 2,0 5,-1 15,4 31,3l46 5c1,0 1,0 2,0 1,0 3,0 4,0 6,0 30,4 35,4 13,-2 49,1 66,1l40 -1c10,-1 17,0 29,-1 3,0 3,0 6,-1l44 -3c3,-1 4,-1 6,-1 9,0 14,-1 21,-3 5,0 11,2 21,-1 3,-1 4,-1 6,-1 2,-1 5,-1 5,-1 6,-1 -5,-1 2,0 5,1 4,-2 13,-2 1,0 2,0 5,0l20 -3c9,-3 18,-1 23,-13l3 -12c1,-8 1,-19 0,-27 -2,-14 1,-78 2,-95l7 -91c4,-35 7,-69 12,-101 5,-27 6,-51 9,-75 3,-16 4,-65 1,-80 -2,-21 -5,-31 0,-50 -5,-5 -11,-29 -13,-37 -7,-29 -10,-59 -3,-88 2,-7 4,-13 7,-19 2,-6 6,-11 8,-16 -5,-6 -2,-44 -1,-54 -6,2 -33,4 -43,6 -14,2 -27,5 -40,8 -47,12 -97,33 -137,58 -32,20 -32,21 -56,41 -6,-2 -84,-83 -231,-106 -14,-2 -28,-3 -42,-5z" id="svg-part-0" data-part-name="Part 1" class="svg-hoverable" style="cursor: pointer; transition: 0.3s; filter: brightness(1.2);"/>
  <path fill="#177300" d="M49 86c5,0 7,7 10,11 15,22 26,46 33,73 2,11 3,24 6,35 14,2 28,3 42,5 147,23 225,104 231,106 24,-20 24,-21 56,-41 40,-25 90,-46 137,-58 13,-3 26,-6 40,-8 10,-2 37,-4 43,-6 2,-9 4,-24 6,-34 3,-11 7,-22 10,-32 9,-21 18,-36 30,-52 -5,-5 -19,-13 -26,-17 -30,-16 -62,-25 -97,-31 -9,-2 -36,-10 -44,-14 0,25 -11,66 -18,89 -9,27 -21,52 -35,72 -14,18 -19,20 -25,28 -4,5 -9,9 -13,14l-63 70c-2,-1 -1,0 -3,-2l-23 -26c-17,-18 -49,-56 -64,-70 -19,-19 -37,-60 -46,-87 -7,-20 -19,-66 -19,-89 -1,3 1,2 -3,3 -18,9 -85,16 -129,39 -7,3 -12,6 -19,10l-17 12z" id="svg-part-1" data-part-name="Part 2" class="svg-hoverable" style="cursor: pointer; transition: 0.3s;"/>
  <path fill="#00990A" d="M674 114l-58 15c2,-1 4,-4 5,-5 2,-1 4,-3 5,-5l-92 34c1,-3 5,-8 7,-12l-25 9c-8,3 -16,6 -24,9l-5 1c-2,4 -3,7 -5,10l37 -13 -10 13c-2,1 -3,2 -4,4 -2,3 -4,5 -7,8 -11,13 -12,12 -25,21 -4,2 -6,4 -9,7l-9 6c3,-1 7,-3 9,-4 15,-8 30,-14 41,-28l6 -8c1,-1 2,-3 3,-4 5,-5 5,-9 11,-10l31 -10c5,-2 36,-11 40,-12 -1,3 -13,16 -16,20 -5,5 -12,11 -19,16 -5,3 -42,23 -45,23 1,0 12,-8 15,-10 7,-3 24,-12 29,-19 3,-2 11,-10 12,-13 -5,1 -52,14 -53,15 0,0 -2,3 -3,3l-13 16c-2,3 -3,4 -5,6 -6,5 -23,12 -31,15 -3,1 -6,2 -8,3 -3,1 -6,3 -8,3 2,-2 4,-4 7,-5 6,-6 13,-12 20,-17 4,-2 11,-7 13,-11 3,-6 6,-10 9,-16 -2,1 -16,6 -23,9 -2,2 -3,4 -4,6 -14,18 -19,20 -25,28 -4,5 -8,9 -11,13l42 -10 -6 9c5,-1 24,-7 31,-9 11,-2 36,-9 46,-12 5,-2 10,-3 15,-5 24,-9 47,-18 72,-26 4,-2 9,-4 14,-6 1,0 2,-1 3,-1 3,-10 6,-19 9,-28 2,-3 3,-6 4,-9 -11,4 -24,8 -29,10 -6,2 -31,10 -36,13 -3,3 -5,5 -8,9 -5,6 -10,12 -16,17 -6,7 -9,11 -20,14 -8,2 -17,4 -25,7l-26 6c4,-4 18,-7 24,-9 22,-6 30,-6 46,-21 7,-5 11,-11 16,-19 6,-7 8,-12 20,-15 4,-1 8,-2 13,-3 4,-1 8,-2 13,-3 8,-3 19,-6 30,-9 2,-4 3,-7 5,-11zm-604 1l55 14c-1,-1 -3,-4 -5,-5 -1,-1 -3,-3 -5,-5l92 34c0,-3 -5,-8 -7,-12l25 9c8,3 17,6 24,9l8 3c2,3 4,6 5,9l-40 -14 11 13c1,1 2,2 3,4 3,3 5,5 8,8 10,13 11,12 25,21 3,2 5,4 8,7l10 6c-3,-1 -7,-3 -10,-4 -15,-8 -30,-14 -41,-28l-6 -8c-1,-1 -2,-3 -3,-4 -4,-5 -5,-9 -10,-10l-31 -10c-6,-2 -36,-11 -41,-12 2,3 14,16 17,20 4,5 12,11 19,16 4,3 42,23 45,23 -2,0 -13,-8 -15,-10 -8,-3 -25,-12 -30,-19 -2,-2 -10,-10 -12,-13 5,1 52,14 54,15 0,0 2,3 2,3l13 16c2,3 3,4 6,6 6,5 22,12 30,15 3,1 6,2 9,3 2,1 5,3 8,3 -3,-2 -5,-4 -7,-5 -7,-6 -14,-12 -20,-17 -4,-2 -11,-7 -14,-11 -3,-6 -5,-10 -8,-16 1,1 20,8 26,10 4,8 9,14 14,19 7,6 16,16 26,28l-46 -11 7 9c-5,-1 -25,-7 -32,-9 -10,-2 -36,-9 -46,-12 -5,-2 -9,-3 -14,-5 -25,-9 -48,-18 -72,-26 -5,-2 -10,-4 -14,-6 -4,-13 -8,-25 -14,-37 11,4 21,8 26,9 7,2 31,10 36,13 4,3 5,5 8,9 5,6 10,12 16,17 7,7 10,11 20,14 8,2 17,4 26,7l25 6c-4,-4 -17,-7 -24,-9 -21,-6 -30,-6 -46,-21 -6,-5 -11,-11 -16,-19 -5,-7 -8,-12 -19,-15 -5,-1 -9,-2 -13,-3 -5,-1 -9,-2 -13,-3 -7,-2 -17,-5 -27,-8 -2,-4 -4,-7 -6,-11zm-19 -29c3,2 6,7 8,11 3,4 5,7 7,11l49 16c-1,-2 -13,-11 -16,-15l98 34c-2,-4 -6,-8 -9,-12 2,0 45,14 48,15 2,0 8,2 16,5 -7,-14 -12,-28 -16,-40 -1,-3 -2,-7 -3,-11 -13,-6 -67,-32 -70,-33 2,4 4,7 6,11 8,15 8,16 23,28 6,5 12,10 17,16l17 15c0,1 0,0 0,1l-1 -1c-1,0 -2,0 -3,0 0,-1 -2,-1 -2,-1 0,-1 0,0 0,-1l-21 -11c-14,-7 -28,-11 -37,-23 -7,-8 -17,-23 -23,-32 -2,-2 -2,-1 -5,-2l-31 -11c-6,2 -13,5 -18,8l-1 0c4,4 8,7 17,13 5,4 35,23 39,28 -4,-2 -9,-6 -12,-8 -17,-10 -34,-18 -49,-30 -4,2 -7,4 -11,6 1,1 2,2 3,2 13,10 38,19 54,25 10,4 19,6 27,13 -1,0 -2,0 -4,-1 -16,-6 -35,-12 -53,-18 -11,-5 -17,-6 -26,-13 -1,-1 -3,-3 -5,-6l-13 9 0 2zm43 95c0,3 1,6 1,9 5,-1 9,-1 14,-1 13,1 47,11 52,10 1,0 0,0 1,0 -9,-2 -34,-17 -48,-19 -8,-1 -15,-1 -20,1zm148 57c11,4 22,9 32,14 1,0 3,1 5,1 4,0 7,1 11,2 5,0 19,6 31,8l3 0c5,1 13,2 20,3 -6,-7 -14,-15 -21,-24l-22 -6c1,2 4,6 6,8 2,3 4,4 7,6 2,1 16,9 17,9 2,1 4,2 5,4 -2,0 -2,-1 -3,-1 -4,-1 -2,0 -3,-1 -2,0 -17,-5 -21,-6 -6,-2 -14,-10 -19,-15 -2,-1 -2,-1 -5,-2 -3,0 -7,-1 -11,-2 -3,0 -21,-3 -22,-3 2,2 6,5 8,7 3,2 6,3 9,5 5,3 16,6 19,8 -3,0 -26,-9 -29,-11 -6,-2 -9,-4 -13,-8l-11 -9c1,-1 35,6 41,7 6,1 9,0 12,4 19,17 15,15 41,24 1,0 1,1 1,0 -2,-1 -20,-11 -23,-13 -2,-1 -18,-15 -19,-17l30 7c-2,-2 -3,-4 -5,-6 -14,-3 -38,-9 -41,-9 2,3 4,4 5,6l-63 -14 15 11c7,5 4,2 10,10 1,1 2,2 3,3zm123 51l-11 -12c-5,-1 -10,-3 -16,-4 2,5 10,9 14,11 1,0 1,0 2,1 0,0 1,1 1,1 1,1 1,0 1,1 2,1 3,2 6,2 1,0 2,0 3,0zm-13 -15l-3 -3 -9 -2c-6,-1 -11,-3 -17,-4 0,1 10,10 13,12 3,3 9,7 15,8l1 0c-1,0 0,0 -1,-1 -9,-3 -14,-9 -20,-15l21 5zm-123 -186c-1,-3 -1,-6 -2,-9 -1,-2 -2,-2 -4,-4 -6,-2 -11,-4 -16,-7 -11,-5 -22,-9 -33,-14l-26 -12c-9,2 -19,5 -29,8l12 5c4,1 4,1 5,4 3,3 5,6 8,10 5,6 10,14 15,20 5,7 12,13 18,18 4,4 39,26 43,27 0,0 0,0 0,0 1,1 1,1 1,0 -4,-2 -41,-33 -46,-38 -5,-4 -36,-47 -36,-48l90 40zm-7 -29c-3,-14 -5,-27 -5,-37 -1,3 1,2 -3,3 -3,2 -9,4 -15,5l11 12c2,3 10,10 11,12l-2 -1c-1,0 -1,0 -2,-1 0,0 -1,0 -1,0 -1,-1 0,-1 -1,-1 -1,-1 -8,-5 -10,-6 -4,-2 -7,-5 -10,-7 -3,-1 -6,-3 -9,-5 -9,2 -19,5 -30,7l36 16c-2,-3 -7,-9 -10,-13l40 16zm-27 -28c-1,1 -3,1 -5,1l26 18 1 0c-6,-5 -13,-12 -22,-19zm274 221c10,-5 19,-9 29,-13 2,-2 3,-3 4,-4 7,-8 4,-5 10,-10l15 -11 -63 14c2,-2 4,-3 5,-6 -2,0 -23,5 -37,8l-5 6 27 -6c-2,2 -18,16 -20,17 -2,2 -20,12 -23,13 0,1 0,0 1,0 26,-9 22,-7 41,-24 4,-4 6,-3 13,-4 5,-1 39,-8 40,-7l-11 9c-4,4 -7,6 -13,8 -3,2 -26,11 -29,11 4,-2 14,-5 19,-8 4,-2 7,-3 10,-5 2,-2 5,-5 7,-7 -1,0 -19,3 -22,3 -4,1 -7,2 -11,2 -3,1 -3,1 -4,2 -6,5 -13,13 -20,15 -3,1 -18,6 -21,6 -1,1 1,0 -2,1 -2,0 -2,1 -4,1 1,-2 4,-3 6,-4 0,0 14,-8 16,-9 4,-2 5,-3 8,-6 1,-2 4,-6 5,-8l-18 5 -22 24c6,0 13,-1 17,-2l4 0c12,-2 25,-8 31,-8 3,-1 6,-2 10,-2 3,0 5,-1 7,-1zm180 -62c1,-3 1,-6 2,-9 -7,-1 -14,-2 -24,-1 -14,2 -39,17 -47,19 0,0 -1,0 0,0 5,1 39,-9 52,-10 6,0 12,0 17,1zm29 -83c4,-6 8,-13 13,-19l0 -5c-3,-2 -8,-6 -13,-8 -2,2 -5,5 -6,6 -9,7 -15,8 -26,13 -17,6 -36,12 -53,18 -2,1 -2,1 -3,1 7,-7 16,-9 26,-13 16,-6 42,-15 54,-25 2,-1 3,-2 4,-3 -2,-1 -5,-3 -7,-4 -1,-1 -2,-1 -4,-2 -15,12 -32,21 -49,31 -4,2 -9,6 -12,8 3,-5 33,-24 38,-28 9,-7 13,-9 18,-14 -6,-3 -12,-5 -19,-8l-32 12c-3,1 -3,0 -5,2 -6,9 -16,24 -22,32 -10,12 -24,16 -38,23l-20 11c-1,1 0,0 -1,1 0,0 -1,0 -1,1 -2,0 -2,0 -3,0l-2 1c0,-1 0,0 1,-1l16 -15c6,-6 11,-11 17,-16 16,-12 15,-13 23,-28 2,-4 4,-7 6,-11 -2,1 -50,24 -67,32 -1,5 -2,9 -3,13 -4,13 -10,26 -15,38 6,-2 10,-4 12,-4 3,-1 46,-15 48,-15 -3,4 -6,8 -9,12l98 -34c-3,4 -14,13 -16,15l52 -17zm-55 -57c-9,-3 -19,-6 -29,-8l-27 12c-11,5 -21,9 -32,14 -5,3 -11,5 -16,7 -1,1 -1,1 -1,1 -1,4 -2,8 -3,11l88 -39c-1,1 -31,44 -37,48 -5,5 -42,36 -46,38 0,1 0,1 1,0 0,0 1,0 1,0 3,-1 39,-23 42,-27 7,-5 13,-11 18,-18 5,-6 10,-14 15,-20 3,-4 5,-7 8,-10 2,-3 2,-3 5,-4l13 -5zm-37 -10c-5,-1 -11,-2 -16,-3 -3,-1 -8,-2 -14,-4 -3,2 -6,4 -9,5 -4,2 -7,5 -10,7 -3,1 -9,5 -11,6 0,0 0,0 0,1 -1,0 -1,0 -2,0 0,1 -1,1 -1,1 -1,2 -1,3 -1,5l37 -15c-2,4 -8,10 -9,13l36 -16zm-34 -8c-2,0 -4,-1 -5,-2 -9,8 -17,15 -22,20l1 0 26 -18zm-9 -2c-7,-3 -14,-5 -17,-7 0,8 -1,18 -3,28 3,-3 7,-7 8,-9l12 -12zm-148 241l-2 3 17 -5c-6,6 -11,12 -20,15 0,1 1,1 -1,1l1 0c6,-1 12,-5 16,-8 2,-2 12,-11 13,-12 -6,1 -12,3 -18,4l-6 2zm-5 5l-11 13c0,0 0,0 0,0 4,0 4,-1 6,-2 1,-1 0,0 1,-1 0,0 1,-1 1,-1 2,-1 1,-1 3,-1 3,-2 12,-6 13,-11 -4,1 -9,2 -13,3z" id="svg-part-2" data-part-name="Part 3" class="svg-hoverable" style="cursor: pointer; transition: 0.3s;"/>
  <path fill="#FFEA00" d="M459 80c-1,8 -13,32 -16,39 -6,11 -12,23 -20,34 -11,16 -23,31 -36,44 -4,4 -12,11 -16,12 -16,-10 -40,-41 -51,-57 -10,-15 -31,-54 -36,-73 36,19 91,26 134,15 7,-2 14,-4 21,-6l20 -8zm0 0l0 0zm-242 -58c0,23 12,69 19,89 9,27 27,68 46,87 15,14 47,52 64,70l23 26c2,2 1,1 3,2l63 -70c4,-5 9,-9 13,-14 6,-8 11,-10 25,-28 14,-20 26,-45 35,-72 7,-23 18,-64 18,-89 0,-3 -6,-3 -14,-6l-29 -10c-25,-11 -8,-8 -32,10 -10,7 -36,19 -48,23 -20,7 -39,6 -60,1 -12,-3 -16,-7 -25,-11l-24 -12 -14 -13c-7,-9 -5,-4 -18,1l-30 11c-4,1 -12,3 -15,5z" id="svg-part-3" data-part-name="Part 4" class="svg-hoverable" style="cursor: pointer; transition: 0.3s;"/>
  <path fill="#FFEA00" d="M95 416c8,-9 19,-63 19,-80 2,-30 -5,-62 -20,-80 -5,-11 -22,-21 -37,-26 -17,-6 -36,-9 -55,-9 -4,8 -2,10 -1,19 1,8 -1,13 -1,21 11,5 18,7 31,16 22,17 22,19 34,44 4,8 10,41 11,51 1,5 1,10 2,14 3,18 4,5 12,20 2,4 3,8 5,10zm553 -159c-2,5 -6,10 -8,16 -3,6 -5,12 -7,19 -7,29 -4,59 3,88 2,8 8,32 13,37 4,-10 4,-12 12,-19 5,-5 3,-4 5,-11l3 -28c1,-15 11,-46 19,-58 7,-10 15,-17 25,-24 8,-5 15,-10 25,-14 6,-2 6,-2 5,-12 -1,-10 1,-18 1,-22 0,-4 -2,-5 -2,-9 -25,0 -59,6 -78,20 -14,11 -8,9 -16,17z" id="svg-part-4" data-part-name="Part 5" class="svg-hoverable" style="cursor: pointer; transition: 0.3s;"/>
  <path fill="#177300" d="M2 221c19,0 38,3 55,9 15,5 32,15 37,26 5,-7 4,-44 4,-51 -3,-11 -4,-24 -6,-35 -7,-27 -18,-51 -33,-73 -3,-4 -5,-11 -10,-11 -5,3 -7,6 -10,12 -7,14 -9,15 -15,31 -3,6 -5,12 -7,17 -3,10 -5,23 -7,29 0,0 0,0 0,0 -6,15 -7,21 -8,36l0 10zm645 -18c-1,10 -4,48 1,54 8,-8 2,-6 16,-17 19,-14 53,-20 78,-20 0,-34 -5,-29 -11,-58 -4,-16 -25,-73 -38,-77 -12,16 -21,31 -30,52 -3,10 -7,21 -10,32 -2,10 -4,25 -6,34z" id="svg-part-5" data-part-name="Part 6" class="svg-hoverable" style="cursor: pointer; transition: 0.3s;"/>
  <path fill="#FFEA00" d="M625 448c2,0 4,2 4,3 0,2 -2,4 -4,4 -1,0 -3,-2 -3,-4 0,-1 2,-3 3,-3zm-507 0c-1,0 -3,2 -3,3 0,2 2,4 3,4 2,0 4,-2 4,-4 0,-1 -2,-3 -4,-3zm-13 8c-2,0 -3,1 -3,3 0,2 1,4 3,4 2,0 3,-2 3,-4 0,-2 -1,-3 -3,-3zm3 61c-2,0 -3,2 -3,3 0,2 1,4 3,4 2,0 3,-2 3,-4 0,-1 -1,-3 -3,-3zm0 2c-1,0 -1,1 -1,1 0,1 0,1 1,1 1,0 1,0 1,-1 0,0 0,-1 -1,-1zm-1 -17c-2,0 -3,1 -3,3 0,2 1,3 3,3 2,0 3,-1 3,-3 0,-2 -1,-3 -3,-3zm0 2c0,0 -1,1 -1,1 0,1 1,1 1,1 1,0 1,0 1,-1 0,0 0,-1 -1,-1zm-1 -17c-1,0 -3,1 -3,3 0,2 2,3 3,3 2,0 4,-1 4,-3 0,-2 -2,-3 -4,-3zm0 2c0,0 -1,0 -1,1 0,0 1,1 1,1 1,0 1,-1 1,-1 0,-1 0,-1 -1,-1zm0 -18c-2,0 -4,2 -4,4 0,1 2,3 4,3 1,0 3,-2 3,-3 0,-2 -2,-4 -3,-4zm0 2c-1,0 -1,1 -1,2 0,0 0,1 1,1 0,0 1,-1 1,-1 0,-1 -1,-2 -1,-2zm-1 -15c-1,0 -1,1 -1,1 0,1 0,1 1,1 0,0 1,0 1,-1 0,0 -1,-1 -1,-1zm17 67c-1,0 -3,1 -3,3 0,2 2,3 3,3 2,0 4,-1 4,-3 0,-2 -2,-3 -4,-3zm0 2c0,0 -1,0 -1,1 0,0 1,1 1,1 1,0 1,-1 1,-1 0,-1 0,-1 -1,-1zm0 -18c-2,0 -4,2 -4,3 0,2 2,4 4,4 1,0 3,-2 3,-4 0,-1 -2,-3 -3,-3zm0 2c-1,0 -1,1 -1,1 0,1 0,2 1,2 0,0 1,-1 1,-2 0,0 -1,-1 -1,-1zm-1 -17c-2,0 -3,1 -3,3 0,2 1,3 3,3 2,0 3,-1 3,-3 0,-2 -1,-3 -3,-3zm0 2c-1,0 -1,1 -1,1 0,1 0,1 1,1 0,0 1,0 1,-1 0,0 -1,-1 -1,-1zm-1 -17c-2,0 -3,1 -3,3 0,2 1,3 3,3 2,0 3,-1 3,-3 0,-2 -1,-3 -3,-3zm0 2c-1,0 -1,0 -1,1 0,1 0,1 1,1 1,0 1,0 1,-1 0,-1 0,-1 -1,-1zm-1 -18c-2,0 -3,2 -3,4 0,1 1,3 3,3 2,0 3,-2 3,-3 0,-2 -1,-4 -3,-4zm0 3c0,0 -1,0 -1,1 0,0 1,1 1,1 1,0 1,-1 1,-1 0,-1 0,-1 -1,-1zm-1 -16c0,0 -1,1 -1,1 0,1 1,1 1,1 1,0 1,0 1,-1 0,0 0,-1 -1,-1zm521 6c2,0 3,1 3,3 0,2 -1,4 -3,4 -2,0 -3,-2 -3,-4 0,-2 1,-3 3,-3zm-3 61c2,0 3,2 3,3 0,2 -1,4 -3,4 -2,0 -3,-2 -3,-4 0,-1 1,-3 3,-3zm0 2c0,0 1,1 1,1 0,1 -1,1 -1,1 -1,0 -1,0 -1,-1 0,0 0,-1 1,-1zm1 -17c1,0 3,1 3,3 0,2 -2,3 -3,3 -2,0 -4,-1 -4,-3 0,-2 2,-3 4,-3zm0 2c0,0 1,1 1,1 0,1 -1,1 -1,1 -1,0 -1,0 -1,-1 0,0 0,-1 1,-1zm0 -17c2,0 4,1 4,3 0,2 -2,3 -4,3 -1,0 -3,-1 -3,-3 0,-2 2,-3 3,-3zm0 2c1,0 1,0 1,1 0,0 0,1 -1,1 0,0 -1,-1 -1,-1 0,-1 1,-1 1,-1zm1 -18c2,0 3,2 3,4 0,1 -1,3 -3,3 -2,0 -3,-2 -3,-3 0,-2 1,-4 3,-4zm0 2c1,0 1,1 1,2 0,0 0,1 -1,1 0,0 -1,-1 -1,-1 0,-1 1,-2 1,-2zm1 -15c1,0 1,1 1,1 0,1 0,1 -1,1 -1,0 -1,0 -1,-1 0,0 0,-1 1,-1zm-18 67c2,0 4,1 4,3 0,2 -2,3 -4,3 -1,0 -3,-1 -3,-3 0,-2 2,-3 3,-3zm0 2c1,0 2,0 2,1 0,0 -1,1 -2,1 0,0 -1,-1 -1,-1 0,-1 1,-1 1,-1zm1 -18c2,0 3,2 3,3 0,2 -1,4 -3,4 -2,0 -3,-2 -3,-4 0,-1 1,-3 3,-3zm0 2c1,0 1,1 1,1 0,1 0,2 -1,2 0,0 -1,-1 -1,-2 0,0 1,-1 1,-1zm1 -17c2,0 3,1 3,3 0,2 -1,3 -3,3 -2,0 -3,-1 -3,-3 0,-2 1,-3 3,-3zm0 2c1,0 1,1 1,1 0,1 0,1 -1,1 -1,0 -1,0 -1,-1 0,0 0,-1 1,-1zm1 -17c2,0 3,1 3,3 0,2 -1,3 -3,3 -2,0 -3,-1 -3,-3 0,-2 1,-3 3,-3zm0 2c0,0 1,0 1,1 0,1 -1,1 -1,1 -1,0 -1,0 -1,-1 0,-1 0,-1 1,-1zm1 -18c1,0 3,2 3,4 0,1 -2,3 -3,3 -2,0 -4,-2 -4,-3 0,-2 2,-4 4,-4zm0 3c0,0 1,0 1,1 0,0 -1,1 -1,1 -1,0 -1,-1 -1,-1 0,-1 0,-1 1,-1zm0 -16c1,0 1,1 1,1 0,1 0,1 -1,1 0,0 -1,0 -1,-1 0,0 1,-1 1,-1z" id="svg-part-6" data-part-name="Part 7" class="svg-hoverable" style="cursor: pointer; transition: 0.3s;"/>
 </g>
</svg>