<svg xmlns="http://www.w3.org/2000/svg" xmlns:xlink="http://www.w3.org/1999/xlink" xml:space="preserve" width="100%" height="100%" version="1.1" shape-rendering="geometricPrecision" text-rendering="geometricPrecision" image-rendering="optimizeQuality" fill-rule="evenodd" clip-rule="evenodd" viewBox="0 0 158 356"><defs><style data-fonts="true">@font-face { font-family: 'font_1'; src: url('http://127.0.0.1:8000/storage/fonts/5ZIyXfnllvfea2c03RF0XvhB4s9AbiJS5UuPNvgP') format('truetype'); }@font-face { font-family: 'font_2'; src: url('http://127.0.0.1:8000/storage/fonts/HiTBF8CNdPuu1yhMAdkdrafbOxzCEGWugdII81Rt') format('truetype'); }@font-face { font-family: 'font_3'; src: url('http://127.0.0.1:8000/storage/fonts/NTEl0gVIgAt3bQrdxmwPc3g1o1VAdu4adzElDKs8') format('truetype'); }</style></defs>
 <g id="Layer_x0020_1">
  <metadata id="CorelCorpID_0Corel-Layer"/>
  <path fill="#96989A" d="M135 17l9 16c6,11 10,25 13,37 2,10 2,38 0,48 -3,24 -5,39 -12,62l-6 17c0,0 0,1 0,1 0,0 0,0 0,0 -2,8 -3,13 -5,21 -2,8 -3,13 -4,21 -3,13 -3,21 -4,34 0,8 -1,16 0,24 0,5 0,9 1,12l1 12c1,4 1,7 2,10l0 19c0,2 1,3 1,5 -4,0 -10,-1 -13,-2l-9 -1c-1,0 -2,0 -3,-1 -13,-1 -29,-3 -43,-3 -2,0 -5,0 -7,0 -3,0 -5,0 -8,0 -2,-1 -5,0 -7,0 -3,0 -5,-1 -7,-1 -3,0 -5,0 -8,0 -3,0 -6,0 -7,-1 -1,0 0,1 -1,-1 0,0 -1,-1 -1,-2 -1,-4 0,-9 0,-14l-5 -41c0,-1 0,-3 0,-5 -1,-9 -2,-18 -2,-28 -1,-2 -1,-7 -1,-9 0,-2 0,-4 0,-5 0,-2 -1,-3 -1,-5 0,-3 0,-6 0,-10 0,-3 0,-6 0,-10 1,-21 1,-10 -2,-27 -1,-6 1,-4 -1,-9 -2,-4 -3,-12 -3,-17 -5,-24 0,-47 8,-70 1,-5 3,-10 5,-14l6 -15 16 -2c0,6 -4,28 -2,33 -2,1 -3,8 -4,11 0,4 0,10 1,14 4,24 22,38 48,40 20,1 34,-7 43,-16 5,-5 8,-9 11,-18 2,-6 4,-20 1,-26 2,-2 4,-15 5,-20 2,-17 -1,-36 -14,-47l-7 -6c7,-2 11,-4 12,-12l4 1z" id="svg-part-0"/>
  <path fill="#96989A" d="M119 28l7 6c13,11 16,30 14,47 -1,5 -3,18 -5,20 -2,-4 -3,-8 -6,-11 -11,-9 -28,-8 -42,-9 -17,-1 -45,-2 -52,15 -2,-5 2,-27 2,-33 1,-2 7,-48 56,-42 15,2 22,7 26,7z" id="svg-part-1"/>
  <path fill="black" d="M81 150c21,0 46,-11 46,-37 0,-9 -2,-13 -12,-17 -9,-4 -34,-3 -46,-3 -8,0 -22,2 -27,8 -3,4 -3,6 -3,11 0,6 4,16 8,22 4,6 10,10 17,12 4,2 12,4 17,4zm54 -49c3,6 1,20 -1,26 -3,9 -6,13 -11,18 -9,9 -23,17 -43,16 -26,-2 -44,-16 -48,-40 -1,-4 -1,-10 -1,-14 1,-3 2,-10 4,-11 7,-17 35,-16 52,-15 14,1 31,0 42,9 3,3 4,7 6,11z" id="svg-part-2"/>
  <path fill="#96989A" d="M131 16c-1,8 -5,10 -12,12 -4,0 -11,-5 -26,-7 -49,-6 -55,40 -56,42l-16 2 5 -10c0,0 0,-1 1,-1l7 -14 19 -18c6,-6 12,-12 21,-16 9,-3 20,-5 31,-1 4,1 18,8 26,11z" id="svg-part-3"/>
  <path fill="black" d="M129 22c0,0 0,1 -1,1 -1,0 -2,0 -3,0 -3,0 -5,0 -8,-1 -4,-2 -7,-4 -11,-5 3,0 7,0 10,0 0,0 0,-1 0,-1 3,1 9,4 13,6zm-32 0c-1,0 -2,-1 -4,-1 -3,0 -7,0 -10,0 -3,-1 -5,-1 -8,-2 3,0 6,-1 9,-2 0,0 0,0 1,0 3,1 11,3 15,5 -1,0 -2,0 -3,0zm-20 -1c-7,1 -12,3 -17,6 3,-2 6,-4 9,-6 1,0 2,1 3,0 2,0 4,0 5,0zm-55 42l0 0c2,-4 4,-8 7,-13l1 -3c5,-5 9,-9 14,-13 -4,5 -8,10 -12,16 -3,4 -6,9 -10,13zm22 -32l9 -9c0,-1 1,-2 2,-2 2,-1 5,-2 8,-3 -4,3 -8,6 -12,9 -3,2 -5,3 -7,5zm15 -15c2,-2 4,-4 7,-6 5,0 10,0 16,0 -4,1 -8,2 -11,4 -4,0 -8,1 -12,2zm19 -11c1,0 3,-1 4,-1 7,1 13,2 19,3 -4,0 -9,1 -13,2 -6,-1 -11,-1 -17,-1 2,-1 4,-2 7,-3zm10 -2c5,0 11,0 16,1 -1,0 -3,1 -4,1 -4,-1 -8,-1 -12,-2zm13 6c-4,0 -8,1 -11,1 4,1 7,3 11,4 2,1 5,1 7,1 2,0 6,0 7,0 -3,-2 -10,-5 -14,-6 0,0 0,0 0,0zm-1 7c-4,0 -7,0 -10,1 4,1 7,2 11,4 2,0 5,1 8,1 1,0 5,1 7,1 -4,-2 -12,-6 -16,-7 0,0 0,0 0,0zm-18 -5c-3,1 -6,2 -9,3 4,0 7,1 11,1 2,0 4,1 7,1 2,-1 6,-1 7,-1 -3,-1 -12,-3 -15,-4 0,0 0,0 -1,0zm-14 5c-3,1 -6,3 -9,5 4,-1 7,-1 10,-2 2,0 5,0 7,-1 2,0 6,-1 7,-2 -3,0 -11,-1 -15,-1 0,0 0,1 0,1zm-16 11c-3,3 -6,6 -9,10 4,-3 8,-6 11,-8 2,-1 5,-3 7,-4 2,-2 4,-3 5,-3 -3,0 -7,1 -10,2 -1,2 -3,2 -4,3z" id="svg-part-4"/>
  <path fill="black" d="M135 17l-4 -1c-8,-3 -22,-10 -26,-11 -11,-4 -22,-2 -31,1 -9,4 -15,10 -21,16l-19 18c2,-5 16,-20 20,-24 6,-4 9,-7 15,-10 2,-1 4,-2 7,-3 14,-6 37,-1 52,4 2,0 1,0 1,0 0,1 1,2 1,2 1,1 1,1 1,2 1,1 1,2 2,3 1,1 1,2 2,3z" id="svg-part-5"/>
  <path fill="black" d="M23 163c0,0 1,0 1,1 0,1 -1,1 -1,1 -1,0 -2,0 -2,-1 0,-1 1,-1 2,-1zm5 3c0,0 1,0 1,1 0,1 -1,1 -1,1 -1,0 -1,0 -1,-1 0,-1 0,-1 1,-1zm-1 22c0,0 1,1 1,2 0,0 -1,1 -1,1 -1,0 -2,-1 -2,-1 0,-1 1,-2 2,-2zm0 1c0,0 0,0 0,1 0,0 0,0 0,0 -1,0 -1,0 -1,0 0,-1 0,-1 1,-1zm0 -6c1,0 1,0 1,1 0,1 0,1 -1,1 -1,0 -1,0 -1,-1 0,-1 0,-1 1,-1zm0 1c0,0 0,0 0,0 0,0 0,0 0,0 0,0 -1,0 -1,0 0,0 1,0 1,0zm0 -7c1,0 1,1 1,1 0,1 0,1 -1,1 -1,0 -1,0 -1,-1 0,0 0,-1 1,-1zm0 1c0,0 1,0 1,0 0,0 -1,1 -1,1 0,0 0,-1 0,-1 0,0 0,0 0,0zm0 -7c1,0 2,1 2,2 0,0 -1,1 -2,1 0,0 -1,-1 -1,-1 0,-1 1,-2 1,-2zm0 1c1,0 1,0 1,1 0,0 0,0 -1,0 0,0 0,0 0,0 0,-1 0,-1 0,-1zm1 -5c0,0 0,0 0,0 0,0 0,0 0,0 0,0 -1,0 -1,0 0,0 1,0 1,0zm-7 24c1,0 1,1 1,1 0,1 0,2 -1,2 0,0 -1,-1 -1,-2 0,0 1,-1 1,-1zm0 1c0,0 1,0 1,0 0,1 -1,1 -1,1 0,0 0,0 0,-1 0,0 0,0 0,0zm1 -7c0,0 1,1 1,2 0,0 -1,1 -1,1 -1,0 -2,-1 -2,-1 0,-1 1,-2 2,-2zm0 1c0,0 0,0 0,1 0,0 0,0 0,0 -1,0 -1,0 -1,0 0,-1 0,-1 1,-1zm0 -6c0,0 1,0 1,1 0,1 -1,1 -1,1 -1,0 -1,0 -1,-1 0,-1 0,-1 1,-1zm0 1c0,0 0,0 0,0 0,0 0,0 0,0 0,0 -1,0 -1,0 0,0 1,0 1,0zm0 -7c1,0 1,1 1,1 0,1 0,2 -1,2 -1,0 -1,-1 -1,-2 0,0 0,-1 1,-1zm0 1c0,0 0,0 0,0 0,1 0,1 0,1 0,0 0,0 0,-1 0,0 0,0 0,0zm0 -7c1,0 2,1 2,2 0,0 -1,1 -2,1 0,0 -1,-1 -1,-1 0,-1 1,-2 1,-2zm0 1c1,0 1,0 1,1 0,0 0,0 -1,0 0,0 0,0 0,0 0,-1 0,-1 0,-1zm1 -5c0,0 0,0 0,0 0,0 0,0 0,0 -1,0 -1,0 -1,0 0,0 0,0 1,0z" id="svg-part-6"/>
 </g>
<g id="mascot-overlay-group"/><g id="application-group"><text id="app-1776184481884" x="-1" y="34" font-size="50" fill="#96989A" stroke="BLACK" stroke-width="undefined" text-anchor="middle" dominant-baseline="middle" paint-order="stroke fill" stroke-linejoin="round" style="font-family: font_1;">00</text></g></svg>