<svg xmlns="http://www.w3.org/2000/svg" xmlns:xlink="http://www.w3.org/1999/xlink" xml:space="preserve" width="100%" height="100%" version="1.1" shape-rendering="geometricPrecision" text-rendering="geometricPrecision" image-rendering="optimizeQuality" fill-rule="evenodd" clip-rule="evenodd" viewBox="0 0 1848 2422"><defs><style data-fonts="true">@font-face { font-family: 'font_2'; src: url('http://127.0.0.1:8000/storage/fonts/37mrW2LoSAz4UV3Fw60rHUYMhqTS29wmTYG7KDOM') format('truetype'); }@font-face { font-family: 'font_3'; src: url('http://127.0.0.1:8000/storage/fonts/6HfvTaKlMgaTqxRG72ZhhoB880t6VVGunu5QHHp6') format('truetype'); }@font-face { font-family: 'font_4'; src: url('http://127.0.0.1:8000/storage/fonts/6q5lPJecyQvh4nloAo6VOQQMEu2p1HTOlzIzSerz') format('truetype'); }@font-face { font-family: 'font_5'; src: url('http://127.0.0.1:8000/storage/fonts/D3O6qgC2TlIuZwX3ThNRuFmGZCdHiNmTJui6cxLU') format('truetype'); }</style></defs>
 <g id="Layer_x0020_1">
  <metadata id="CorelCorpID_0Corel-Layer"/>
  <path fill="#37C9DA" d="M139 305c2,14 32,86 43,148 14,80 9,98 1,172 13,19 32,30 42,70 6,25 10,74 12,100 3,49 1,163 -25,196 5,9 9,12 13,21 3,6 7,17 9,25 14,48 3,77 -1,121l-3 137c1,18 5,44 5,62 2,64 22,179 31,244 6,43 9,82 14,125l18 188c1,23 4,45 5,66 4,71 13,204 8,266 -2,23 2,35 -6,57 -4,12 -1,22 0,31 6,31 -1,39 22,46l26 8c9,2 18,4 27,4l37 3c50,9 51,3 80,6 9,1 17,5 29,5l230 10c14,1 18,3 34,3 48,0 88,3 136,3 46,0 86,-2 133,-3 15,0 17,-2 32,-3l229 -10c9,-1 20,-4 30,-5 20,-2 35,1 64,-3l28 -5c39,-4 19,4 62,-10 19,-6 28,-4 31,-22 5,-36 0,-149 0,-195l14 -259c2,-18 3,-41 6,-62 1,-10 2,-23 3,-31l52 -429c2,-11 1,-21 3,-31l2 -196c-9,-64 -17,-88 6,-144 5,-11 11,-13 14,-24 -29,-34 -31,-148 -26,-197 3,-34 9,-67 18,-98 11,-43 16,-47 38,-73 -16,-42 -10,-123 -2,-167 10,-54 25,-97 42,-144 -123,-1 -218,-9 -320,-56 -74,-35 -161,-112 -184,-197l-5 4c-1,0 -1,1 -2,1l0 0c-1,1 -3,4 -5,6 -23,21 -76,53 -104,66 -56,26 -93,35 -162,35 -116,1 -174,-37 -251,-94 -10,-7 -17,-14 -29,-19 -4,19 -20,50 -29,65 -15,23 -23,35 -41,53 -16,16 -28,29 -50,44 -110,75 -242,95 -384,86z" id="svg-part-0"/>
  <path fill="#37C9DA" d="M1201 58c23,85 110,162 184,197 102,47 197,55 320,56 8,-20 22,-60 34,-75 -2,-11 -1,-6 -9,-12 -6,-5 -7,-7 -12,-12 -26,-23 -50,-37 -79,-55 -89,-53 -237,-67 -339,-104l-33 -12c-12,-5 -26,-5 -35,-10 -3,6 -9,10 -16,16 -5,4 -8,5 -10,7l0 0 -5 4zm-1094 180c4,11 27,62 32,67 142,9 274,-11 384,-86 22,-15 34,-28 50,-44 18,-18 26,-30 41,-53 9,-15 25,-46 29,-65 -9,-9 -20,-17 -31,-24 -16,2 -21,4 -34,9l-101 32c-49,11 -96,21 -143,35 -27,7 -44,12 -68,21 -45,17 -104,50 -139,84 -14,13 -19,14 -20,24z" id="svg-part-1"/>
  <path fill="#201E1E" d="M612 33c11,7 22,15 31,24 12,5 19,12 29,19 77,57 135,95 251,94 69,0 106,-9 162,-35 28,-13 81,-45 104,-66 2,-2 4,-5 5,-6l0 0c1,0 1,-1 2,-1l10 -8 0 0c2,-2 5,-3 10,-7 7,-6 13,-10 16,-16 -1,0 -1,-1 -2,-1l-32 -17c-28,-16 -51,-20 -77,2 -25,21 -40,25 -68,39l-38 15c-56,14 -80,15 -144,9 -26,-2 -73,-22 -97,-33 -8,-4 -12,-5 -19,-10l-31 -21c-35,-28 -62,-8 -94,9 -7,5 -13,5 -18,10z" id="svg-part-2"/>
  <path fill="#37C9DA" d="M13 556c13,7 32,8 47,11 17,4 30,9 46,15 48,17 64,38 77,43 8,-74 13,-92 -1,-172 -11,-62 -41,-134 -43,-148 -5,-5 -28,-56 -32,-67 -9,7 -27,54 -33,69 -10,24 -20,51 -27,77 -15,53 -28,111 -34,172zm1692 -245c-17,47 -32,90 -42,144 -8,44 -14,125 2,167 10,-3 24,-16 36,-23 13,-7 26,-13 41,-18 32,-12 59,-16 94,-24 -5,-10 -11,-68 -15,-89 -6,-29 -14,-58 -21,-84 -8,-28 -17,-52 -27,-78 -5,-12 -10,-25 -15,-37l-13 -26c-4,-7 0,-4 -6,-7 -12,15 -26,55 -34,75z" id="svg-part-3"/>
  <path fill="#A9ABAE" d="M109 244l-12 10c-9,17 -19,42 -23,53 -10,24 -20,51 -27,77 -12,43 -23,89 -30,137l153 -120c-13,-45 -30,-86 -31,-96 -4,-5 -22,-44 -30,-61zm1627 -3l13 10 9 18c5,12 10,25 15,37 10,26 19,50 27,78 7,26 15,55 21,84 2,11 5,32 7,51l-152 -120c8,-31 18,-58 29,-88 8,-18 20,-53 31,-70z" id="svg-part-4"/>
  <path fill="black" d="M135 298l-81 63c-2,8 -5,16 -7,23 -6,21 -11,43 -16,66l123 -97c-8,-24 -14,-42 -15,-48 -1,-1 -2,-4 -4,-7zm1576 -3l81 64c3,8 5,16 8,25 6,21 11,42 16,64l-125 -98c5,-13 9,-26 14,-39 2,-4 4,-10 6,-16z" id="svg-part-5"/>
  <path fill="#201E1E" d="M212 991c26,-33 28,-147 25,-196 -2,-26 -6,-75 -12,-100 -10,-40 -29,-51 -42,-70 -13,-5 -29,-26 -77,-43 -16,-6 -29,-11 -46,-15 -15,-3 -34,-4 -47,-11 -12,18 -13,69 -13,93 49,-5 130,2 156,50 10,18 14,34 19,55 15,62 8,88 14,129 6,41 -13,41 -3,61 4,8 19,42 26,47zm1453 -369c-22,26 -27,30 -38,73 -9,31 -15,64 -18,98 -5,49 -3,163 26,197 6,-3 28,-50 28,-54 1,-9 -4,-23 -6,-36 -4,-45 10,-140 27,-186 14,-40 59,-61 108,-65 80,-8 51,17 52,-55 0,-21 -1,-24 -8,-37 -35,8 -62,12 -94,24 -15,5 -28,11 -41,18 -12,7 -26,20 -36,23z" id="svg-part-6"/>
 </g>
</svg>