<svg xmlns="http://www.w3.org/2000/svg" xmlns:xlink="http://www.w3.org/1999/xlink" xml:space="preserve" width="7.74208in" height="10.1274in" version="1.1" shape-rendering="geometricPrecision" text-rendering="geometricPrecision" image-rendering="optimizeQuality" fill-rule="evenodd" clip-rule="evenodd" viewBox="0 0 3064 4008">
 <g id="Layer_x0020_1">
  <metadata id="CorelCorpID_0Corel-Layer"/>
  <path fill="black" d="M1530 867c-11,0 -49,-42 -58,-51 -6,-6 -8,-8 -12,-14l-64 -76c-64,-81 -98,-140 -149,-236 -7,-13 -13,-22 -19,-35 -7,-13 -12,-23 -18,-37 -18,-35 -24,-53 -35,-76l69 27c24,8 48,15 73,22 169,43 374,27 531,-42 12,-5 26,-12 39,-15 -5,57 -109,240 -150,295 -25,34 -43,62 -71,95l-52 60c-13,14 -76,83 -84,83zm-637 -756c3,62 27,169 43,229 48,183 103,317 215,463l237 266 38 39c35,35 69,75 104,111 35,-36 309,-333 310,-334l6 -8c104,-135 152,-165 259,-462 24,-75 55,-228 56,-311 -5,-20 -40,-26 -61,-32 -24,-8 -45,-16 -69,-24 -38,-14 -91,-40 -98,-42 -25,-8 -24,10 -26,15 -16,40 -179,119 -236,139 -83,28 -146,34 -242,11 -84,-21 -191,-65 -251,-125 -8,-8 -16,-15 -23,-24 -9,-12 -13,-15 -27,-22 -8,8 -12,10 -23,16 -33,16 -138,55 -174,66 -13,3 -22,4 -33,9 -1,5 -1,5 -2,10l-2 8c0,1 -1,2 -1,2z"/>
  <path fill="black" d="M13 804c-11,58 -13,68 -13,132l0 4 74 39c64,32 114,78 141,144 3,7 5,12 9,20 3,8 7,11 9,19l9 14c3,5 4,9 6,15 3,9 8,17 11,28 31,94 49,174 54,277 1,9 2,27 4,38 3,25 1,54 12,71 22,36 31,25 50,94l7 14c8,-21 22,-44 31,-67 64,-159 89,-351 37,-524 -8,-28 -22,-56 -35,-79 -16,-28 -32,-45 -46,-67l-3 -3 -2 -2 -3 -4c-8,-5 -10,-9 -17,-16 -5,-6 -11,-11 -18,-16 -71,-58 -119,-87 -214,-114 -19,-6 -87,-26 -103,-17zm2674 170l0 2 -3 2 -3 3 -2 3c-38,56 -62,82 -82,161 -29,114 -25,465 77,567 10,-33 6,-27 22,-59 41,-83 36,5 45,-121 1,-12 9,-53 8,-63l1 -6c3,-18 0,-58 7,-73 4,-8 4,-3 5,-16 0,-5 -1,-15 0,-20 2,-12 4,-5 6,-14l31 -112c5,-12 8,-20 12,-32 4,-9 9,-18 13,-28l15 -31c1,-2 3,-3 4,-7 18,-38 -10,-2 37,-67 22,-29 30,-29 41,-41 13,-13 0,-8 24,-20 8,-4 7,-4 13,-9l40 -22c20,-10 72,-32 65,-59 -1,-5 -4,-7 -5,-14l-8 -84c0,-3 0,-2 -1,-4 -14,-16 -30,-8 -52,-3 -19,4 -36,8 -54,13 -35,11 -69,22 -100,38 -105,52 -144,110 -156,116z"/>
  <path fill="black" d="M13 804c16,-9 84,11 103,17 95,27 143,56 214,114 7,5 13,10 18,16 7,7 9,11 17,16 -3,-18 3,-74 3,-100 0,-37 -3,-72 -3,-107 -4,-6 -11,-65 -14,-78 -20,-98 -54,-185 -115,-266l-42 -51 -10 0c-16,30 -33,52 -55,97 -55,110 -57,117 -83,223 -6,21 -10,38 -17,59 -5,17 -16,41 -16,60zm2697 -123c-5,19 -12,54 -13,72l0 3c-3,35 -6,68 -7,106 -2,37 -1,75 -3,112 12,-6 51,-64 156,-116 31,-16 65,-27 100,-38 18,-5 35,-9 54,-13 22,-5 38,-13 52,3 0,-11 -13,-50 -17,-61 -3,-9 -9,-19 -11,-28 -2,-13 -2,-23 -5,-36 -15,-64 -60,-173 -90,-231 -9,-20 -36,-72 -51,-89 -6,-5 -5,-5 -15,-5 -5,8 -12,16 -19,25 -74,93 -109,188 -131,296z"/>
  <path fill="#E60000" d="M365 760c0,35 3,70 3,107 0,26 -6,82 -3,100l3 4 2 2c6,0 7,-2 3,3 14,22 30,39 46,67 13,23 27,51 35,79 52,173 27,365 -37,524 -9,23 -23,46 -31,67 14,74 13,123 1,199 -10,61 -6,140 -7,210 0,95 26,311 38,397 21,145 33,241 48,387 7,64 13,133 20,198 7,66 11,159 18,225l6 132c0,16 2,20 2,51l0 189c1,12 3,13 3,26l0 163c0,28 -3,27 14,41 17,15 54,22 82,26l169 16c15,-3 5,-5 21,1 30,11 146,9 201,16 38,5 277,14 313,14 35,0 74,-2 109,0 15,1 33,5 47,4l325 -4c39,0 117,-8 155,-8 68,0 113,-10 153,-10 32,-1 131,-5 153,-11l11 -3c1,0 2,-1 2,-1 13,0 -6,7 27,0 23,-4 116,-8 149,-13 31,-5 62,-12 83,-26 16,-12 15,-13 15,-39l0 -272c0,-73 5,-188 10,-262 3,-33 3,-70 7,-102 2,-13 4,-37 4,-50l49 -495c11,-94 27,-188 39,-286 4,-32 7,-65 11,-98 14,-113 20,-317 9,-415 -3,-34 -10,-59 -10,-99 0,-59 11,-82 11,-102 -102,-102 -106,-453 -77,-567 20,-79 44,-105 82,-161l2 -3 3 -3 3 -2 0 -2c2,-37 1,-75 3,-112 1,-38 4,-71 7,-106l-3 0c-9,7 -409,134 -475,156 -27,8 -54,17 -81,26 -21,7 -57,21 -78,24l-2 2c-64,22 -135,44 -201,65l-201 63 -5 3 -1 0 -8 4c-53,57 -99,106 -112,120 -35,-36 -69,-76 -104,-111l-18 -18c-33,-9 -99,-31 -114,-36 -35,-11 -68,-22 -104,-34 -40,-13 -178,-56 -206,-67 -21,-4 -56,-18 -79,-25 -59,-19 -529,-174 -537,-170 -1,4 0,3 -3,2z"/>
  <path fill="#E60000" d="M2860 360c-27,-41 -174,-107 -230,-127 -114,-42 -156,-52 -281,-79 -40,-9 -158,-37 -185,-56l-3 6c-1,83 -32,236 -56,311 -107,297 -155,327 -259,462l-6 8c0,0 -109,118 -198,214l8 -4 1 0 5 -3 201 -63c66,-21 137,-43 201,-65l2 -2c21,-3 57,-17 78,-24 27,-9 54,-18 81,-26 66,-22 466,-149 475,-156l3 0 0 -3c1,-18 8,-53 13,-72 22,-108 57,-203 131,-296 7,-9 14,-17 19,-25zm-1967 -249c-4,-7 -12,-4 -20,-2 -59,17 -103,33 -167,46 -33,6 -64,14 -97,22 -107,27 -174,45 -269,93 -14,7 -24,14 -38,22 -15,8 -104,58 -108,73l42 51c61,81 95,168 115,266 3,13 10,72 14,78 3,1 2,2 3,-2 8,-4 478,151 537,170 23,7 58,21 79,25 28,11 166,54 206,67 36,12 69,23 104,34 15,5 81,27 114,36l18 18 -38 -39 -237 -266c-112,-146 -167,-280 -215,-463 -16,-60 -40,-167 -43,-229z"/>
  <path fill="black" d="M1404 1086l1 3c-10,-3 -22,-6 -35,-11l-669 -334 492 106 195 219 16 17zm465 -238c-7,9 -15,19 -23,29l-6 8c0,0 -109,118 -198,214l708 -355 -481 104zm93 147c33,-10 65,-21 96,-31l2 -2c21,-3 57,-17 78,-24 27,-9 54,-18 81,-26 66,-22 466,-149 475,-156l3 0 0 -3c1,-18 8,-53 13,-72 6,-30 13,-59 22,-87l0 0 -770 401zm-914 -20l-718 -375c8,26 15,53 21,82 3,13 10,72 14,78 3,1 2,2 3,-2 8,-4 478,151 537,170 23,7 58,21 79,25 11,4 35,12 64,22z"/>
 </g>
</svg>