<svg xmlns="http://www.w3.org/2000/svg" xmlns:xlink="http://www.w3.org/1999/xlink" xml:space="preserve" width="100%" height="100%" version="1.1" shape-rendering="geometricPrecision" text-rendering="geometricPrecision" image-rendering="optimizeQuality" fill-rule="evenodd" clip-rule="evenodd" viewBox="0 0 136 306"><defs><style data-fonts="true">@font-face { font-family: 'font_1'; src: url('http://127.0.0.1:8000/storage/fonts/5ZIyXfnllvfea2c03RF0XvhB4s9AbiJS5UuPNvgP') format('truetype'); }@font-face { font-family: 'font_2'; src: url('http://127.0.0.1:8000/storage/fonts/HiTBF8CNdPuu1yhMAdkdrafbOxzCEGWugdII81Rt') format('truetype'); }</style></defs>
 <g id="Layer_x0020_1">
  <metadata id="CorelCorpID_0Corel-Layer"/>
  <path fill="#96989A" d="M20 15l-8 13c-4,10 -8,22 -10,33 -3,8 -2,32 -1,40 3,21 5,34 11,54l4 15c0,0 1,0 1,0 0,0 0,0 0,0 1,7 3,11 4,19 1,6 2,10 4,18 2,11 2,17 3,29 0,7 0,13 0,21 -1,3 0,7 -1,10l-1 10c0,3 -1,6 -1,9l-1 15c0,3 0,3 0,5 3,0 8,-1 11,-1l8 -1c0,-1 1,-1 2,-1 12,-1 25,-3 37,-3 2,0 4,0 6,0 3,0 4,0 7,0 2,0 4,0 6,0 3,0 4,-1 6,-1 3,0 5,0 7,0 2,0 5,0 6,0 1,-1 0,0 1,-1 0,-1 0,-1 0,-2 1,-4 0,-8 1,-12l4 -35c0,-2 0,-3 0,-5 1,-7 1,-16 2,-24 0,-2 0,-5 1,-8 0,-1 0,-3 0,-4 0,-2 0,-2 0,-4 0,-3 0,-6 0,-9 0,-2 0,-5 0,-8 -1,-18 0,-9 2,-24 0,-5 -1,-3 1,-7 2,-4 2,-11 3,-15 3,-21 -1,-41 -7,-60 -2,-4 -3,-8 -5,-13l-5 -12 -14 -2c1,5 4,24 2,28 2,2 3,7 3,10 1,4 0,8 0,12 -3,20 -20,32 -41,34 -17,1 -29,-5 -38,-13 -4,-5 -7,-8 -9,-16 -2,-5 -3,-17 -1,-22 -1,-2 -4,-13 -4,-17 -2,-15 1,-31 12,-41l6 -5c-6,-1 -10,-3 -10,-10l-4 1z" id="svg-part-0"/>
  <path fill="#96989A" d="M34 24l-6 5c-11,10 -14,26 -12,41 0,4 3,15 4,17 1,-4 3,-7 5,-9 10,-8 24,-8 36,-8 15,-1 39,-2 45,12 2,-4 -1,-23 -2,-28 -1,-2 -6,-41 -48,-36 -13,2 -19,6 -22,6z" id="svg-part-1"/>
  <path fill="black" d="M67 129c-19,0 -40,-10 -40,-32 0,-8 2,-11 10,-15 8,-3 30,-2 40,-2 7,0 19,2 23,7 3,3 3,5 3,9 0,6 -4,14 -7,19 -4,5 -9,8 -15,11 -3,1 -10,3 -14,3zm-47 -42c-2,5 -1,17 1,22 2,8 5,11 9,16 9,8 21,14 38,13 21,-2 38,-14 41,-34 0,-4 1,-8 0,-12 0,-3 -1,-8 -3,-10 -6,-14 -30,-13 -45,-12 -12,0 -26,0 -36,8 -2,2 -4,5 -5,9z" id="svg-part-2"/>
  <path fill="#96989A" d="M24 14c0,7 4,9 10,10 3,0 9,-4 22,-6 42,-5 47,34 48,36l14 2 -4 -8c0,-1 0,-1 -1,-2l-6 -11 -16 -16c-5,-6 -10,-10 -18,-13 -8,-4 -18,-5 -27,-2 -4,1 -16,7 -22,10z" id="svg-part-3"/>
  <path fill="black" d="M25 19c0,0 1,1 1,1 1,0 2,0 3,0 2,0 4,0 6,-1 4,-2 6,-3 10,-5 -3,0 -6,0 -8,0 0,0 0,0 0,0 -3,1 -8,3 -12,5zm28 0c1,0 2,-1 3,-1 3,0 6,0 9,0 2,-1 4,-1 7,-1 -3,-1 -6,-2 -8,-2 0,0 0,-1 0,-1 -4,1 -11,3 -14,5 1,0 2,0 3,0zm17 -1c6,1 11,3 15,5 -3,-2 -5,-3 -8,-5 -1,0 -2,1 -3,0 -1,0 -3,0 -4,0zm47 36l0 0c-2,-4 -4,-7 -5,-11l-2 -2c-4,-5 -7,-9 -11,-12 3,4 6,9 9,14 3,4 6,7 9,11zm-18 -28l-8 -7c-1,-1 -1,-1 -2,-2 -2,-1 -4,-2 -7,-2 4,2 7,4 10,8 3,1 5,2 7,3zm-13 -12c-2,-2 -4,-4 -7,-5 -4,-1 -8,-1 -13,0 3,0 6,1 9,3 4,0 7,1 11,2zm-17 -10c-1,0 -2,0 -4,-1 -5,1 -10,2 -16,3 4,0 8,1 11,1 5,0 10,0 15,0 -2,-1 -4,-2 -6,-3zm-9 -1c-4,-1 -9,-1 -13,1 1,0 2,0 3,0 4,0 7,-1 10,-1zm-10 5c2,0 6,1 9,1 -3,1 -6,2 -9,3 -2,1 -5,1 -7,1 -1,0 -5,0 -6,0 3,-1 9,-4 13,-6 0,1 0,1 0,1zm1 6c2,0 5,0 8,0 -4,1 -6,2 -10,4 -2,0 -4,1 -6,1 -2,0 -5,0 -6,1 3,-2 10,-5 13,-7 0,1 1,1 1,1zm14 -4c3,0 6,1 8,2 -3,0 -6,1 -9,1 -2,0 -4,0 -6,0 -2,0 -5,0 -6,0 3,-1 10,-3 13,-4 0,0 0,1 0,1zm13 3c2,2 5,3 7,5 -3,-1 -5,-1 -8,-1 -2,0 -4,-1 -7,-2 -1,0 -4,-1 -6,-1 4,0 11,-1 14,-1 0,0 0,0 0,0zm13 10c3,2 5,5 8,8 -3,-2 -6,-4 -10,-6 -1,-1 -3,-2 -6,-4 -1,-1 -2,-2 -4,-2 3,0 6,1 9,2 1,1 2,1 3,2z" id="svg-part-4"/>
  <path fill="black" d="M20 15l4 -1c6,-3 18,-9 22,-10 9,-3 19,-2 27,2 8,3 13,7 18,13l16 16c-2,-5 -14,-18 -18,-21 -4,-4 -7,-6 -12,-9 -2,-1 -4,-2 -6,-3 -12,-5 -32,0 -45,4 -2,0 0,0 -1,0 0,0 -1,2 -1,2 0,0 0,1 -1,1 0,1 -1,2 -1,3 -1,1 -1,2 -2,3z" id="svg-part-5"/>
  <path fill="black" d="M117 140c-1,0 -1,0 -1,1 0,1 0,1 1,1 0,0 1,0 1,-1 0,-1 -1,-1 -1,-1zm-5 3c0,0 -1,0 -1,1 0,0 1,1 1,1 1,0 1,-1 1,-1 0,-1 0,-1 -1,-1zm1 19c0,0 -1,0 -1,1 0,1 1,1 1,1 1,0 1,0 1,-1 0,-1 0,-1 -1,-1zm0 1c0,0 0,0 0,0 0,0 0,0 0,0 1,0 1,0 1,0 0,0 0,0 -1,0zm0 -6c0,0 -1,1 -1,1 0,1 1,1 1,1 1,0 1,0 1,-1 0,0 0,-1 -1,-1zm0 1c0,0 0,0 0,0 0,0 0,1 0,1 0,0 0,-1 0,-1 0,0 0,0 0,0zm0 -6c-1,0 -1,1 -1,1 0,1 0,1 1,1 0,0 1,0 1,-1 0,0 -1,-1 -1,-1zm0 1c0,0 0,0 0,0 0,0 0,1 0,1 0,0 0,-1 0,-1 0,0 0,0 0,0zm0 -6c-1,0 -1,1 -1,1 0,1 0,1 1,1 0,0 1,0 1,-1 0,0 -1,-1 -1,-1zm0 1c-1,0 -1,0 -1,0 0,1 0,1 1,1 0,0 0,0 0,-1 0,0 0,0 0,0zm-1 -5c0,0 0,0 0,1 0,0 0,0 0,0 1,0 1,0 1,0 0,-1 0,-1 -1,-1zm6 21c-1,0 -1,1 -1,1 0,1 0,1 1,1 1,0 1,0 1,-1 0,0 0,-1 -1,-1zm0 1c0,0 0,0 0,0 0,1 0,1 0,1 0,0 0,0 0,-1 0,0 0,0 0,0zm0 -5c-1,0 -1,0 -1,1 0,0 0,1 1,1 0,0 1,-1 1,-1 0,-1 -1,-1 -1,-1zm0 0c0,0 -1,0 -1,1 0,0 1,0 1,0 0,0 0,0 0,0 0,-1 0,-1 0,-1zm-1 -5c0,0 -1,0 -1,1 0,0 1,1 1,1 1,0 1,-1 1,-1 0,-1 0,-1 -1,-1zm0 0c0,0 0,0 0,1 0,0 0,0 0,0 1,0 1,0 1,0 0,-1 0,-1 -1,-1zm0 -5c0,0 -1,0 -1,1 0,0 1,1 1,1 1,0 1,-1 1,-1 0,-1 0,-1 -1,-1zm0 0c0,0 0,1 0,1 0,0 0,0 0,0 0,0 1,0 1,0 0,0 -1,-1 -1,-1zm0 -5c-1,0 -1,0 -1,1 0,0 0,1 1,1 1,0 1,-1 1,-1 0,-1 0,-1 -1,-1zm0 1c0,0 0,0 0,0 0,0 0,0 0,0 0,0 0,0 0,0 0,0 0,0 0,0zm0 -5c0,0 -1,0 -1,0 0,0 1,0 1,0 0,0 0,0 0,0 0,0 0,0 0,0z" id="svg-part-6"/>
 </g>
</svg>