<svg xmlns="http://www.w3.org/2000/svg" xmlns:xlink="http://www.w3.org/1999/xlink" xml:space="preserve" width="100%" height="100%" version="1.1" shape-rendering="geometricPrecision" text-rendering="geometricPrecision" image-rendering="optimizeQuality" fill-rule="evenodd" clip-rule="evenodd" viewBox="0 0 3064 4008" preserveAspectRatio="xMidYMid meet"><defs/>
 <g id="Layer_x0020_1">
  <metadata id="CorelCorpID_0Corel-Layer"/>
  <path fill="#55FF00" d="M1530 867c-11,0 -49,-42 -58,-51 -6,-6 -8,-8 -12,-14l-64 -76c-64,-81 -98,-140 -149,-236 -7,-13 -13,-22 -19,-35 -7,-13 -12,-23 -18,-37 -18,-35 -24,-53 -35,-76l69 27c24,8 48,15 73,22 169,43 374,27 531,-42 12,-5 26,-12 39,-15 -5,57 -109,240 -150,295 -25,34 -43,62 -71,95l-52 60c-13,14 -76,83 -84,83zm-637 -756c3,62 27,169 43,229 48,183 103,317 215,463l237 266 38 39c35,35 69,75 104,111 35,-36 309,-333 310,-334l6 -8c104,-135 152,-165 259,-462 24,-75 55,-228 56,-311 -5,-20 -40,-26 -61,-32 -24,-8 -45,-16 -69,-24 -38,-14 -91,-40 -98,-42 -25,-8 -24,10 -26,15 -16,40 -179,119 -236,139 -83,28 -146,34 -242,11 -84,-21 -191,-65 -251,-125 -8,-8 -16,-15 -23,-24 -9,-12 -13,-15 -27,-22 -8,8 -12,10 -23,16 -33,16 -138,55 -174,66 -13,3 -22,4 -33,9 -1,5 -1,5 -2,10l-2 8c0,1 -1,2 -1,2z" id="svg-part-0" data-part-name="Part 1" class="svg-hoverable" style="cursor: pointer; transition: 0.3s;"/>
  <path fill="#55FF00" d="M13 804c-11,58 -13,68 -13,132l0 4 74 39c64,32 114,78 141,144 3,7 5,12 9,20 3,8 7,11 9,19l9 14c3,5 4,9 6,15 3,9 8,17 11,28 31,94 49,174 54,277 1,9 2,27 4,38 3,25 1,54 12,71 22,36 31,25 50,94l7 14c8,-21 22,-44 31,-67 64,-159 89,-351 37,-524 -8,-28 -22,-56 -35,-79 -16,-28 -32,-45 -46,-67l-3 -3 -2 -2 -3 -4c-8,-5 -10,-9 -17,-16 -5,-6 -11,-11 -18,-16 -71,-58 -119,-87 -214,-114 -19,-6 -87,-26 -103,-17zm2674 170l0 2 -3 2 -3 3 -2 3c-38,56 -62,82 -82,161 -29,114 -25,465 77,567 10,-33 6,-27 22,-59 41,-83 36,5 45,-121 1,-12 9,-53 8,-63l1 -6c3,-18 0,-58 7,-73 4,-8 4,-3 5,-16 0,-5 -1,-15 0,-20 2,-12 4,-5 6,-14l31 -112c5,-12 8,-20 12,-32 4,-9 9,-18 13,-28l15 -31c1,-2 3,-3 4,-7 18,-38 -10,-2 37,-67 22,-29 30,-29 41,-41 13,-13 0,-8 24,-20 8,-4 7,-4 13,-9l40 -22c20,-10 72,-32 65,-59 -1,-5 -4,-7 -5,-14l-8 -84c0,-3 0,-2 -1,-4 -14,-16 -30,-8 -52,-3 -19,4 -36,8 -54,13 -35,11 -69,22 -100,38 -105,52 -144,110 -156,116z" id="svg-part-1" data-part-name="Part 2" class="svg-hoverable" style="cursor: pointer; transition: 0.3s;"/>
  <path fill="#55FF00" d="M13 804c16,-9 84,11 103,17 95,27 143,56 214,114 7,5 13,10 18,16 7,7 9,11 17,16 -3,-18 3,-74 3,-100 0,-37 -3,-72 -3,-107 -4,-6 -11,-65 -14,-78 -20,-98 -54,-185 -115,-266l-42 -51 -10 0c-16,30 -33,52 -55,97 -55,110 -57,117 -83,223 -6,21 -10,38 -17,59 -5,17 -16,41 -16,60zm2697 -123c-5,19 -12,54 -13,72l0 3c-3,35 -6,68 -7,106 -2,37 -1,75 -3,112 12,-6 51,-64 156,-116 31,-16 65,-27 100,-38 18,-5 35,-9 54,-13 22,-5 38,-13 52,3 0,-11 -13,-50 -17,-61 -3,-9 -9,-19 -11,-28 -2,-13 -2,-23 -5,-36 -15,-64 -60,-173 -90,-231 -9,-20 -36,-72 -51,-89 -6,-5 -5,-5 -15,-5 -5,8 -12,16 -19,25 -74,93 -109,188 -131,296z" id="svg-part-2" data-part-name="Part 3" class="svg-hoverable" style="cursor: pointer; transition: 0.3s;"/>
  <path fill="BLACK" d="M365 760c0,35 3,70 3,107 0,26 -6,82 -3,100l3 4 2 2c6,0 7,-2 3,3 14,22 30,39 46,67 13,23 27,51 35,79 52,173 27,365 -37,524 -9,23 -23,46 -31,67 14,74 13,123 1,199 -10,61 -6,140 -7,210 0,95 26,311 38,397 21,145 33,241 48,387 7,64 13,133 20,198 7,66 11,159 18,225l6 132c0,16 2,20 2,51l0 189c1,12 3,13 3,26l0 163c0,28 -3,27 14,41 17,15 54,22 82,26l169 16c15,-3 5,-5 21,1 30,11 146,9 201,16 38,5 277,14 313,14 35,0 74,-2 109,0 15,1 33,5 47,4l325 -4c39,0 117,-8 155,-8 68,0 113,-10 153,-10 32,-1 131,-5 153,-11l11 -3c1,0 2,-1 2,-1 13,0 -6,7 27,0 23,-4 116,-8 149,-13 31,-5 62,-12 83,-26 16,-12 15,-13 15,-39l0 -272c0,-73 5,-188 10,-262 3,-33 3,-70 7,-102 2,-13 4,-37 4,-50l49 -495c11,-94 27,-188 39,-286 4,-32 7,-65 11,-98 14,-113 20,-317 9,-415 -3,-34 -10,-59 -10,-99 0,-59 11,-82 11,-102 -102,-102 -106,-453 -77,-567 20,-79 44,-105 82,-161l2 -3 3 -3 3 -2 0 -2c2,-37 1,-75 3,-112 1,-38 4,-71 7,-106l-3 0c-9,7 -409,134 -475,156 -27,8 -54,17 -81,26 -21,7 -57,21 -78,24l-2 2c-64,22 -135,44 -201,65l-201 63 -5 3 -1 0 -8 4c-53,57 -99,106 -112,120 -35,-36 -69,-76 -104,-111l-18 -18c-33,-9 -99,-31 -114,-36 -35,-11 -68,-22 -104,-34 -40,-13 -178,-56 -206,-67 -21,-4 -56,-18 -79,-25 -59,-19 -529,-174 -537,-170 -1,4 0,3 -3,2z" id="svg-part-3" data-part-name="Part 4" class="svg-hoverable" style="cursor: pointer; transition: 0.3s; filter: brightness(1.2);"/>
  <path fill="#55FF00" d="M2860 360c-27,-41 -174,-107 -230,-127 -114,-42 -156,-52 -281,-79 -40,-9 -158,-37 -185,-56l-3 6c-1,83 -32,236 -56,311 -107,297 -155,327 -259,462l-6 8c0,0 -109,118 -198,214l8 -4 1 0 5 -3 201 -63c66,-21 137,-43 201,-65l2 -2c21,-3 57,-17 78,-24 27,-9 54,-18 81,-26 66,-22 466,-149 475,-156l3 0 0 -3c1,-18 8,-53 13,-72 22,-108 57,-203 131,-296 7,-9 14,-17 19,-25zm-1967 -249c-4,-7 -12,-4 -20,-2 -59,17 -103,33 -167,46 -33,6 -64,14 -97,22 -107,27 -174,45 -269,93 -14,7 -24,14 -38,22 -15,8 -104,58 -108,73l42 51c61,81 95,168 115,266 3,13 10,72 14,78 3,1 2,2 3,-2 8,-4 478,151 537,170 23,7 58,21 79,25 28,11 166,54 206,67 36,12 69,23 104,34 15,5 81,27 114,36l18 18 -38 -39 -237 -266c-112,-146 -167,-280 -215,-463 -16,-60 -40,-167 -43,-229z" id="svg-part-4" data-part-name="Part 5" class="svg-hoverable" style="cursor: pointer; transition: 0.3s;"/>
  <path fill="black" d="M631 625c154,91 308,182 462,272 -231,-74 -463,-148 -694,-222 -4,-19 -9,-38 -14,-57l15 8 6 12 0 -16 9 -12 -13 9 -17 -2c-3,-9 -5,-19 -8,-28l0 -4 9 -12 -12 7c-4,-14 -9,-28 -14,-42l3 -5 -4 3c-12,-34 -26,-68 -42,-101l1 0 6 13 1 -17 8 -11 -13 8 -6 0c-4,-9 -9,-18 -13,-26l1 -10 8 -12 -13 9 -2 0c-7,-13 -13,-25 -20,-38l6 -8 -8 5c-5,-10 -11,-20 -17,-30 21,-12 40,-23 46,-26 6,-4 11,-7 16,-10l6 13 1 -17c4,-2 9,-5 15,-8 21,-10 40,-20 59,-28l1 1 6 12 0 -16c25,-10 48,-19 72,-26l3 5 0 -6c7,-2 15,-5 22,-7l2 1c22,68 44,136 67,205 144,102 288,204 433,306 -139,-64 -278,-128 -416,-191 14,33 28,66 42,99zm1805 0c-154,91 -308,182 -462,272 232,-74 463,-148 694,-222 4,-19 9,-38 14,-57l-14 8 -6 12 -1 -16 -9 -12 13 9 17 -2c3,-9 6,-19 8,-28l0 -4 -9 -12 12 7c5,-14 9,-28 15,-42l-4 -5 4 3c13,-34 27,-68 42,-101l-1 0 -6 13 0 -17 -9 -11 13 8 6 0c5,-9 9,-18 13,-26l0 -10 -9 -12 13 9 3 0c6,-13 13,-25 19,-38l-6 -8 8 5c5,-10 11,-19 16,-29 -18,-12 -40,-23 -62,-34l-5 10 0 -13c-27,-13 -54,-26 -77,-35l-4 8 -1 -10c-12,-5 -23,-9 -31,-12 -16,-6 -30,-11 -43,-16l-1 1 0 -1c-8,-3 -16,-6 -24,-8l-66 202c-145,102 -289,204 -433,306 138,-64 277,-128 415,-191 -14,33 -28,66 -42,99zm103 -423c-45,-15 -83,-24 -138,-37l80 52 -38 143 -195 183 237 -153 54 -188zm-88 497l1 16 6 -12 16 -9 -18 1 -14 -8 9 12zm53 0l1 16 6 -12 15 -9 -18 1 -13 -8 9 12zm-75 -27l0 6 6 -13 16 -9 -18 2 -4 14zm52 -11l0 17 7 -13 15 -9 -18 2 -13 -9 9 12zm52 0l1 17 6 -13 16 -9 -19 2 -13 -9 9 12zm52 0l1 17 6 -13 16 -9 -18 2 -13 -9 8 12zm53 0l1 17 6 -13 15 -9 -18 2 -13 -9 9 12zm-187 -39l1 16 6 -12 16 -9 -18 2 -9 -6 -1 2 5 7zm53 0l1 16 6 -12 15 -9 -18 2 -13 -9 9 12zm52 0l1 16 6 -12 16 -9 -18 2 -14 -9 9 12zm52 0l1 16 6 -12 16 -9 -18 2 -13 -9 8 12zm-127 -37l0 16 7 -12 15 -9 -18 2 -13 -9 9 12zm52 0l1 16 6 -12 16 -9 -19 2 -13 -9 9 12zm52 0l1 16 6 -12 16 -9 -18 2 -13 -9 8 12zm53 0l1 16 6 -12 15 -9 -18 2 -13 -9 9 12zm-134 -40l1 17 6 -13 15 -8 -18 1 -13 -9 9 12zm52 0l1 17 6 -13 16 -8 -18 1 -14 -9 9 12zm52 0l1 17 6 -13 16 -8 -18 1 -13 -9 8 12zm53 0l1 17 6 -13 15 -8 -18 1 -13 -9 9 12zm-180 -37l0 16 7 -12 15 -9 -18 2 -4 -3 -2 4 2 2zm52 0l1 16 6 -12 16 -9 -19 2 -13 -9 9 12zm52 0l1 16 6 -12 16 -9 -18 2 -13 -9 8 12zm53 0l1 16 6 -12 15 -9 -18 2 -13 -9 9 12zm52 0l1 16 6 -12 16 -9 -18 2 -14 -9 9 12zm-186 -39l1 16 6 -12 15 -9 -18 2 -13 -9 9 12zm52 0l1 16 6 -12 16 -9 -18 2 -14 -9 9 12zm52 0l1 16 6 -12 16 -9 -18 2 -13 -9 8 12zm53 0l1 16 6 -12 15 -9 -18 2 -13 -9 9 12zm52 0l1 16 6 -12 16 -9 -18 2 -14 -9 9 12zm-180 -38l1 17 6 -13 16 -8 -19 1 -13 -8 9 11zm52 0l1 17 6 -13 16 -8 -18 1 -13 -8 8 11zm53 0l1 17 6 -13 15 -8 -18 1 -13 -8 9 11zm52 0l1 17 6 -13 16 -8 -18 1 -14 -8 9 11zm-134 -39l1 16 6 -12 16 -9 -18 2 -14 -9 9 12zm52 0l1 16 6 -12 16 -9 -18 2 -13 -9 8 12zm53 0l1 16 6 -12 15 -9 -18 2 -13 -9 9 12zm52 0l1 16 6 -12 16 -9 -18 2 -14 -9 9 12zm-180 -37l1 16 6 -12 16 -9 -19 2 -8 -6 -1 2 5 7zm52 0l1 16 6 -12 16 -9 -18 2 -13 -9 8 12zm53 0l1 16 6 -12 15 -9 -18 2 -13 -9 9 12zm52 0l1 16 6 -12 16 -9 -18 2 -14 -9 9 12zm53 0l0 16 6 -12 16 -9 -18 2 -13 -9 9 12zm-187 -40l1 17 6 -13 16 -8 -18 1 -14 -8 9 11zm52 0l1 17 6 -13 16 -8 -18 1 -13 -8 8 11zm53 0l1 17 6 -13 15 -8 -18 1 -13 -8 9 11zm52 0l1 17 6 -13 16 -8 -18 1 -14 -8 9 11zm53 0l0 17 6 -13 16 -8 -18 1 -13 -8 9 11zm-181 -37l1 17 6 -13 16 -9 -18 2 -13 -9 8 12zm53 0l1 17 6 -13 15 -9 -18 2 -13 -9 9 12zm52 0l1 17 6 -13 16 -9 -18 2 -14 -9 9 12zm-133 -25l0 2 6 -12 16 -9 -17 2 -5 17zm51 -14l1 16 6 -12 16 -9 -18 2 -13 -9 8 12zm-1937 -77c-3,1 -7,2 -11,3l-132 34 54 191 237 153 -195 -183 -38 -143 85 -55zm-55 537l-1 16 -6 -12 -15 -9 18 1 13 -8 -9 12zm-52 0l-1 16 -6 -12 -16 -9 18 1 13 -8 -8 12zm74 -27l0 6 -6 -13 -15 -9 17 2 4 14zm-51 -11l-1 17 -6 -13 -16 -9 18 2 13 -9 -8 12zm-53 0l-1 17 -6 -13 -15 -9 18 2 13 -9 -9 12zm-52 0l-1 17 -6 -13 -16 -9 18 2 14 -9 -9 12zm-53 0l0 17 -6 -13 -16 -9 18 2 13 -9 -9 12zm187 -39l-1 16 -6 -12 -15 -9 18 2 8 -6 1 2 -5 7zm-52 0l-1 16 -6 -12 -16 -9 18 2 13 -9 -8 12zm-53 0l-1 16 -6 -12 -15 -9 18 2 13 -9 -9 12zm-52 0l-1 16 -6 -12 -16 -9 18 2 14 -9 -9 12zm128 -37l-1 16 -6 -12 -16 -9 18 2 13 -9 -8 12zm-53 0l-1 16 -6 -12 -15 -9 18 2 13 -9 -9 12zm-52 0l-1 16 -6 -12 -16 -9 18 2 14 -9 -9 12zm-53 0l0 16 -6 -12 -16 -9 18 2 13 -9 -9 12zm135 -40l-1 17 -6 -13 -16 -8 18 1 13 -9 -8 12zm-53 0l-1 17 -6 -13 -15 -8 18 1 13 -9 -9 12zm-52 0l-1 17 -6 -13 -16 -8 18 1 14 -9 -9 12zm-53 0l0 17 -6 -13 -16 -8 18 1 13 -9 -9 12zm181 -37l-1 16 -6 -12 -16 -9 18 2 5 -3 1 4 -1 2zm-53 0l-1 16 -6 -12 -15 -9 18 2 13 -9 -9 12zm-52 0l-1 16 -6 -12 -16 -9 18 2 14 -9 -9 12zm-53 0l0 16 -6 -12 -16 -9 18 2 13 -9 -9 12zm-52 0l-1 16 -6 -12 -15 -9 18 2 13 -9 -9 12zm187 -39l-1 16 -6 -12 -16 -9 18 2 13 -9 -8 12zm-53 0l-1 16 -6 -12 -15 -9 18 2 13 -9 -9 12zm-52 0l-1 16 -6 -12 -16 -9 18 2 14 -9 -9 12zm-53 0l0 16 -6 -12 -16 -9 18 2 13 -9 -9 12zm-52 0l-1 16 -6 -12 -15 -9 18 2 13 -9 -9 12zm180 -38l-1 17 -6 -13 -15 -8 18 1 13 -8 -9 11zm-52 0l-1 17 -6 -13 -16 -8 18 1 14 -8 -9 11zm-53 0l0 17 -6 -13 -16 -8 18 1 13 -8 -9 11zm-52 0l-1 17 -6 -13 -15 -8 18 1 13 -8 -9 11zm134 -39l-1 16 -6 -12 -15 -9 18 2 13 -9 -9 12zm-52 0l-1 16 -6 -12 -16 -9 18 2 14 -9 -9 12zm-53 0l0 16 -6 -12 -16 -9 18 2 13 -9 -9 12zm-52 0l-1 16 -6 -12 -15 -9 18 2 13 -9 -9 12zm180 -37l-1 16 -6 -12 -15 -9 18 2 9 -6 0 2 -5 7zm-52 0l-1 16 -6 -12 -16 -9 18 2 14 -9 -9 12zm-53 0l0 16 -6 -12 -16 -9 18 2 13 -9 -9 12zm-52 0l-1 16 -6 -12 -15 -9 18 2 13 -9 -9 12zm-52 0l-1 16 -6 -12 -16 -9 18 2 13 -9 -8 12zm186 -40l-1 17 -6 -13 -15 -8 18 1 13 -8 -9 11zm-52 0l-1 17 -6 -13 -16 -8 18 1 14 -8 -9 11zm-53 0l0 17 -6 -13 -16 -8 18 1 13 -8 -9 11zm-52 0l-1 17 -6 -13 -15 -8 18 1 13 -8 -9 11zm-52 0l-1 17 -6 -13 -16 -8 18 1 13 -8 -8 11zm180 -37l-1 17 -6 -13 -16 -9 18 2 14 -9 -9 12zm-53 0l0 17 -6 -13 -16 -9 18 2 13 -9 -9 12zm-52 0l-1 17 -6 -13 -15 -9 18 2 13 -9 -9 12zm133 -25l0 2 -6 -12 -15 -9 16 2 5 17zm-51 -14l-1 16 -6 -12 -16 -9 18 2 14 -9 -9 12z" id="svg-part-5" data-part-name="Part 6" class="svg-hoverable" style="cursor: pointer; transition: 0.3s;"/>
  <path fill="black" d="M3014 674l-303 0c3,-13 6,-25 9,-38l5 -11 16 -9 -16 2c10,-39 24,-77 41,-113l4 -3 -3 1c5,-12 11,-24 18,-35l8 -5 -6 1c5,-8 9,-16 14,-23l0 6 6 -13 16 -8 -13 1c4,-7 9,-14 14,-20l0 0 2 -2c3,-4 6,-8 9,-12l11 -7 -7 1 2 -2c4,-6 9,-11 12,-16l1 1 1 -3c2,-3 3,-5 5,-7 10,0 9,0 15,5 4,5 10,13 15,22l-10 1 -13 -9 9 12 1 16 6 -12 9 -5c7,11 14,25 21,37l-3 0 -14 -8 9 11 1 17 6 -13 4 -2c4,9 8,17 10,22 2,3 4,6 5,10l-12 -8 9 12 1 16 6 -12 0 0c7,15 15,32 23,51l0 0 0 0c13,30 27,63 38,94l-11 1 -13 -9 8 12 1 16 6 -12 10 -5c6,19 12,37 17,54zm-243 -53l1 16 6 -12 15 -9 -18 2 -13 -9 9 12zm52 0l1 16 6 -12 16 -9 -18 2 -13 -9 8 12zm53 0l1 16 6 -12 15 -9 -18 2 -13 -9 9 12zm52 0l1 16 6 -12 16 -9 -18 2 -14 -9 9 12zm-180 -37l1 16 6 -12 15 -9 -18 2 -13 -9 9 12zm52 0l1 16 6 -12 16 -9 -18 2 -13 -9 8 12zm53 0l1 16 6 -12 15 -9 -18 2 -13 -9 9 12zm52 0l1 16 6 -12 16 -9 -18 2 -14 -9 9 12zm52 0l1 16 6 -12 16 -9 -18 2 -13 -9 8 12zm-186 -40l1 17 6 -13 15 -8 -18 1 -13 -8 9 11zm52 0l1 17 6 -13 16 -8 -18 1 -13 -8 8 11zm53 0l1 17 6 -13 15 -8 -18 1 -13 -8 9 11zm52 0l1 17 6 -13 16 -8 -18 1 -14 -8 9 11zm-128 -37l1 16 6 -12 16 -9 -18 2 -13 -9 8 12zm53 0l1 16 6 -12 15 -9 -18 2 -13 -9 9 12zm52 0l1 16 6 -12 16 -9 -18 2 -14 -9 9 12zm-82 -39l1 16 6 -12 16 -9 -18 2 -13 -9 8 12zm53 0l1 16 6 -12 15 -9 -18 2 -13 -9 9 12zm-23 -38l1 17 6 -13 15 -8 -18 1 -13 -8 9 11zm-2754 191l1 16 6 -12 16 -9 -18 2 -14 -9 9 12zm53 0l0 16 6 -12 16 -9 -18 2 -13 -9 9 12zm52 0l1 16 6 -12 15 -9 -18 2 -13 -9 9 12zm52 0l1 16 6 -12 16 -9 -18 2 -13 -9 8 12zm53 0l1 16 6 -12 15 -9 -18 2 -13 -9 9 12zm-180 -37l0 16 6 -12 16 -9 -18 2 -13 -9 9 12zm52 0l1 16 6 -12 15 -9 -18 2 -13 -9 9 12zm52 0l1 16 6 -12 16 -9 -18 2 -13 -9 8 12zm53 0l1 16 6 -12 15 -9 -18 2 -13 -9 9 12zm-134 -40l0 17 6 -13 16 -8 -18 1 -13 -8 9 11zm52 0l1 17 6 -13 15 -8 -18 1 -13 -8 9 11zm52 0l1 17 6 -13 16 -8 -18 1 -13 -8 8 11zm-127 -37l0 16 6 -12 16 -9 -18 2 -13 -9 9 12zm52 0l1 16 6 -12 15 -9 -18 2 -13 -9 9 12zm52 0l1 16 6 -12 16 -9 -18 2 -13 -9 8 12zm-81 -39l0 16 6 -12 16 -9 -18 2 -13 -9 9 12zm52 0l1 16 6 -12 15 -9 -18 2 -13 -9 9 12zm-23 -38l1 17 6 -13 15 -8 -18 1 -13 -8 9 11zm168 244c-9,-42 -20,-82 -36,-121l-3 8 -1 -17 -9 -11 7 4c-4,-9 -8,-18 -13,-27l-1 1 -6 12 -1 -16 -9 -12 13 9 1 0c-6,-12 -13,-24 -20,-36l-8 4 -6 12 -1 -16 -8 -12 13 9 7 -1c-6,-11 -14,-22 -21,-33l-7 3 -6 13 -1 -17 -8 -11 13 8 6 0c-3,-4 -5,-7 -8,-11l-20 -24 -5 3 -6 12 -1 -16 -9 -12 13 9 5 0 -19 -23 -10 0 -2 5 0 -1c-4,6 -7,12 -10,18l2 -1 -3 2c-7,12 -15,24 -23,38l3 0 -4 2c-6,10 -12,21 -18,34 -16,31 -27,54 -36,73l11 6 18 -1 -16 8 -6 13 -1 -17 -6 -8c-7,15 -13,28 -17,41l5 4 18 -2 -16 9 -6 12 -1 -16 -2 -3c-4,11 -7,23 -11,36l6 -1 -7 4c-4,15 -8,32 -14,54l301 0z" id="svg-part-6" data-part-name="Part 7" class="svg-hoverable" style="cursor: pointer; transition: 0.3s;"/>
  <path fill="black" d="M2568 1867c8,0 14,5 14,13 0,7 -6,13 -14,13 -7,0 -13,-6 -13,-13 0,-8 6,-13 13,-13zm-2076 0c-7,0 -13,5 -13,13 0,7 6,13 13,13 8,0 14,-6 14,-13 0,-8 -6,-13 -14,-13zm-55 32c-8,0 -13,6 -13,13 0,7 5,13 13,13 7,0 13,-6 13,-13 0,-7 -6,-13 -13,-13zm13 250c-8,0 -13,6 -13,13 0,7 5,13 13,13 7,0 13,-6 13,-13 0,-7 -6,-13 -13,-13zm0 9c-3,0 -5,2 -5,4 0,2 2,4 5,4 2,0 4,-2 4,-4 0,-2 -2,-4 -4,-4zm-3 -72c-8,0 -14,6 -14,14 0,7 6,13 14,13 7,0 13,-6 13,-13 0,-8 -6,-14 -13,-14zm0 9c-3,0 -5,2 -5,5 0,2 2,4 5,4 2,0 4,-2 4,-4 0,-3 -2,-5 -4,-5zm-4 -71c-7,0 -13,6 -13,13 0,7 6,13 13,13 8,0 13,-6 13,-13 0,-7 -5,-13 -13,-13zm0 9c-2,0 -4,2 -4,4 0,2 2,4 4,4 3,0 5,-2 5,-4 0,-2 -2,-4 -5,-4zm-3 -72c-7,0 -13,6 -13,14 0,7 6,13 13,13 7,0 13,-6 13,-13 0,-8 -6,-14 -13,-14zm0 9c-2,0 -4,2 -4,5 0,2 2,4 4,4 2,0 4,-2 4,-4 0,-3 -2,-5 -4,-5zm-3 -62c-3,0 -5,2 -5,4 0,2 2,4 5,4 2,0 4,-2 4,-4 0,-2 -2,-4 -4,-4zm72 271c-8,0 -14,6 -14,13 0,8 6,14 14,14 7,0 13,-6 13,-14 0,-7 -6,-13 -13,-13zm0 9c-3,0 -5,2 -5,4 0,3 2,5 5,5 2,0 4,-2 4,-5 0,-2 -2,-4 -4,-4zm-4 -71c-7,0 -13,6 -13,13 0,7 6,13 13,13 8,0 14,-6 14,-13 0,-7 -6,-13 -14,-13zm0 9c-2,0 -4,2 -4,4 0,2 2,4 4,4 3,0 5,-2 5,-4 0,-2 -2,-4 -5,-4zm-3 -72c-7,0 -13,6 -13,13 0,8 6,14 13,14 7,0 13,-6 13,-14 0,-7 -6,-13 -13,-13zm0 9c-2,0 -4,2 -4,4 0,3 2,5 4,5 3,0 4,-2 4,-5 0,-2 -1,-4 -4,-4zm-3 -71c-7,0 -13,6 -13,13 0,7 6,13 13,13 7,0 13,-6 13,-13 0,-7 -6,-13 -13,-13zm0 9c-2,0 -4,1 -4,4 0,2 2,4 4,4 2,0 4,-2 4,-4 0,-3 -2,-4 -4,-4zm-3 -72c-8,0 -14,6 -14,13 0,8 6,14 14,14 7,0 13,-6 13,-14 0,-7 -6,-13 -13,-13zm0 9c-3,0 -5,2 -5,4 0,3 2,5 5,5 2,0 4,-2 4,-5 0,-2 -2,-4 -4,-4zm-4 -63c-2,0 -4,2 -4,5 0,2 2,4 4,4 3,0 5,-2 5,-4 0,-3 -2,-5 -5,-5zm2132 24c7,0 13,6 13,13 0,7 -6,13 -13,13 -7,0 -13,-6 -13,-13 0,-7 6,-13 13,-13zm-13 250c7,0 13,6 13,13 0,7 -6,13 -13,13 -7,0 -13,-6 -13,-13 0,-7 6,-13 13,-13zm0 9c2,0 4,2 4,4 0,2 -2,4 -4,4 -2,0 -4,-2 -4,-4 0,-2 2,-4 4,-4zm3 -72c7,0 13,6 13,14 0,7 -6,13 -13,13 -7,0 -13,-6 -13,-13 0,-8 6,-14 13,-14zm0 9c3,0 4,2 4,5 0,2 -1,4 -4,4 -2,0 -4,-2 -4,-4 0,-3 2,-5 4,-5zm3 -71c8,0 14,6 14,13 0,7 -6,13 -14,13 -7,0 -13,-6 -13,-13 0,-7 6,-13 13,-13zm0 9c3,0 5,2 5,4 0,2 -2,4 -5,4 -2,0 -4,-2 -4,-4 0,-2 2,-4 4,-4zm4 -72c7,0 13,6 13,14 0,7 -6,13 -13,13 -8,0 -14,-6 -14,-13 0,-8 6,-14 14,-14zm0 9c2,0 4,2 4,5 0,2 -2,4 -4,4 -3,0 -5,-2 -5,-4 0,-3 2,-5 5,-5zm3 -62c2,0 4,2 4,4 0,2 -2,4 -4,4 -2,0 -4,-2 -4,-4 0,-2 2,-4 4,-4zm-72 271c7,0 13,6 13,13 0,8 -6,14 -13,14 -7,0 -13,-6 -13,-14 0,-7 6,-13 13,-13zm0 9c2,0 4,2 4,4 0,3 -2,5 -4,5 -2,0 -4,-2 -4,-5 0,-2 2,-4 4,-4zm3 -71c8,0 13,6 13,13 0,7 -5,13 -13,13 -7,0 -13,-6 -13,-13 0,-7 6,-13 13,-13zm0 9c3,0 5,2 5,4 0,2 -2,4 -5,4 -2,0 -4,-2 -4,-4 0,-2 2,-4 4,-4zm4 -72c7,0 13,6 13,13 0,8 -6,14 -13,14 -8,0 -14,-6 -14,-14 0,-7 6,-13 14,-13zm0 9c2,0 4,2 4,4 0,3 -2,5 -4,5 -3,0 -5,-2 -5,-5 0,-2 2,-4 5,-4zm3 -71c7,0 13,6 13,13 0,7 -6,13 -13,13 -8,0 -13,-6 -13,-13 0,-7 5,-13 13,-13zm0 9c2,0 4,1 4,4 0,2 -2,4 -4,4 -3,0 -5,-2 -5,-4 0,-3 2,-4 5,-4zm3 -72c7,0 13,6 13,13 0,8 -6,14 -13,14 -7,0 -13,-6 -13,-14 0,-7 6,-13 13,-13zm0 9c2,0 4,2 4,4 0,3 -2,5 -4,5 -2,0 -4,-2 -4,-5 0,-2 2,-4 4,-4zm3 -63c3,0 5,2 5,5 0,2 -2,4 -5,4 -2,0 -4,-2 -4,-4 0,-3 2,-5 4,-5z" id="svg-part-7" data-part-name="Part 8" class="svg-hoverable" style="cursor: pointer; transition: 0.3s;"/>
 </g>
</svg>