<svg xmlns="http://www.w3.org/2000/svg" xmlns:xlink="http://www.w3.org/1999/xlink" xml:space="preserve" width="100%" height="100%" version="1.1" shape-rendering="geometricPrecision" text-rendering="geometricPrecision" image-rendering="optimizeQuality" fill-rule="evenodd" clip-rule="evenodd" viewBox="0 0 351 788">
 <defs>
   
 </defs>
 <g id="Layer_x0020_1">
  <metadata id="CorelCorpID_0Corel-Layer"/>
  <path fill="#37C9DA" d="M263 62l16 13c29,26 36,67 31,105 -1,10 -7,39 -11,44 8,17 -1,63 -12,80 -20,31 -62,55 -110,51 -57,-5 -99,-36 -106,-89 -2,-13 -3,-47 6,-55 -5,-10 4,-59 5,-71l-34 4c-9,13 -31,76 -35,94 -10,37 -17,75 -11,115 1,7 2,12 3,19 1,7 3,21 6,27 6,15 1,4 3,18 0,3 0,3 0,5 0,0 1,2 1,2 1,4 -2,1 1,3 -2,6 3,11 3,19 0,8 0,16 0,24 0,7 -1,13 -1,21 0,5 1,6 1,11 0,4 0,8 0,12 0,42 8,128 13,172 3,25 5,38 5,64 0,5 1,11 2,15 1,2 1,3 5,4 8,2 22,1 30,1 6,0 9,1 16,1l33 1c6,0 12,0 17,0 27,1 80,4 103,9l47 7 -2 -35c-1,-23 1,-10 -4,-35 -1,-7 -1,-14 -2,-22 -3,-22 -5,-77 -2,-97 1,-9 2,-37 4,-46 2,-15 4,-28 7,-43l9 -42c2,-7 3,-13 5,-20 1,-4 6,-16 5,-19 2,-2 1,-1 3,-5 14,-45 34,-123 36,-168 0,-9 2,-19 2,-29 -1,-47 0,-65 -14,-107 -9,-28 -19,-53 -35,-77 -1,-2 -2,-3 -4,-5l-8 -3c-1,18 -12,23 -27,27z" id="svg-part-1"/>
  <path fill="#37C9DA" d="M82 140c-1,12 -10,61 -5,71 16,-36 79,-33 116,-32 32,2 68,0 93,20 6,6 10,15 13,25 4,-5 10,-34 11,-44 5,-38 -2,-79 -31,-105l-16 -13c-4,0 -9,-3 -13,-5 -5,-1 -9,-3 -14,-4 -64,-19 -119,-4 -146,59 -2,6 -6,24 -8,28z" id="svg-part-2"/>
  <g id="_2884961475440">
   <path fill="#A9ABAE" d="M201 46l-119 93c0,0 0,1 0,1 -1,12 -10,61 -5,71 12,-27 50,-32 84,-32l124 -98c-2,-2 -4,-4 -6,-6l-16 -13c-4,0 -9,-3 -13,-5 -5,-1 -9,-3 -14,-4 -12,-4 -24,-6 -35,-7z" id="svg-part-3"/>
   <path fill="black" d="M237 53l-160 127c-1,14 -2,27 0,31 7,-15 22,-24 40,-28l150 -118 -4 -3c-4,0 -9,-3 -13,-5 -4,-1 -8,-2 -13,-4z" id="svg-part-4"/>
  </g>
  <path fill="#201E1E" d="M86 247c0,-18 6,-27 23,-34 26,-10 66,-7 97,-7 27,0 75,2 75,37 0,31 -9,51 -29,67 -18,14 -49,22 -73,22 -18,0 -51,-11 -64,-25 -10,-9 -13,-13 -19,-25 -4,-8 -10,-25 -10,-35zm-9 -36c-9,8 -8,42 -6,55 7,53 49,84 106,89 48,4 90,-20 110,-51 11,-17 20,-63 12,-80 -3,-10 -7,-19 -13,-25 -25,-20 -61,-18 -93,-20 -37,-1 -100,-4 -116,32z" id="svg-part-5"/>
  <path fill="#37C9DA" d="M76 89l-2 3c-1,1 -1,1 -2,3 -1,3 -2,4 -4,7l-14 27c-2,5 -5,9 -6,15l34 -4c2,-4 6,-22 8,-28 27,-63 82,-78 146,-59 5,1 9,3 14,4 4,2 9,5 13,5 15,-4 26,-9 27,-27 -17,-6 -48,-23 -57,-25 -24,-7 -49,-4 -69,4 -39,15 -70,63 -88,75z" id="svg-part-6"/>
  <g clip-path="url(#id0)">
   <g id="_2884961482512">
    <path id="svg-part-7" fill="#37C9DA" d="M297 11l0 -8 -61 16c1,-2 3,-4 5,-4 1,-1 2,-3 3,-5l-75 28c0,-2 4,-7 6,-9l-21 7c-6,2 -13,4 -20,7l-30 11c-2,1 -6,7 -6,8l59 -21 -9 11c-1,1 -2,2 -3,3 -2,3 -4,5 -6,7 -9,10 -10,10 -21,18 -2,1 -4,3 -7,5l-8 5c3,-1 6,-3 8,-4 13,-6 25,-11 34,-23l5 -6c1,-1 1,-2 2,-3 4,-4 5,-7 9,-8l25 -8c5,-2 30,-9 34,-10 -1,2 -11,13 -14,16 -4,4 -10,9 -15,13 -4,2 -35,19 -37,19 1,0 10,-6 12,-8 6,-3 20,-10 24,-16 2,-2 9,-8 10,-10 -4,0 -43,11 -44,12 0,0 -2,2 -2,2l-11 13c-1,3 -2,3 -4,5 -5,5 -19,10 -25,13 -3,0 -5,1 -7,2 -2,1 -5,2 -7,3 2,-2 4,-3 6,-5 5,-4 11,-10 17,-13 3,-2 9,-7 10,-10 3,-4 5,-8 8,-13 -2,1 -19,8 -23,9 -7,3 -15,6 -22,9 -3,1 -3,1 -5,3l-11 13c-4,4 -14,14 -15,17l59 -13 -6 7c5,0 21,-5 26,-7 9,-2 30,-7 38,-9 4,-2 8,-4 12,-5 20,-7 39,-14 59,-22 4,-1 8,-3 12,-4 2,-1 4,-1 6,-2 2,-1 4,-1 5,-3l12 -22c1,-1 6,-8 7,-10 -6,2 -33,11 -41,14 -5,2 -25,8 -29,10 -3,3 -4,5 -7,8 -4,5 -8,9 -13,14 -5,5 -8,9 -16,11 -7,2 -14,4 -21,6l-21 5c3,-3 14,-6 20,-8 17,-5 24,-5 37,-17 6,-4 9,-9 13,-15 5,-6 7,-10 16,-12 4,-1 8,-2 11,-3 4,-1 7,-2 11,-3 11,-3 32,-9 42,-11zm-247 135c0,1 1,0 0,1l0 0c5,-1 10,-5 13,-7 2,-2 11,-9 11,-10 -5,1 -10,3 -15,4l-11 2c-1,1 -2,1 -2,3l21 -5c-5,4 -9,9 -17,12zm128 -242l-16 0c-1,1 -2,2 -3,2 -1,1 -6,10 -7,11 2,0 5,-2 7,-3l12 -6c2,-1 5,-3 7,-4zm51 18c0,1 0,1 0,1l38 -19 -13 0c-1,2 -25,18 -25,18zm-194 226l0 2c3,0 5,0 7,0 2,0 3,-1 5,-2 0,-1 -1,0 0,-1 0,0 1,0 1,0 1,-1 1,-1 2,-1 3,-2 10,-5 11,-9 -5,1 -10,2 -14,3 -7,2 -7,6 -12,8zm126 -194l1 0 31 -22c8,-6 20,-19 25,-28l-8 0c-8,15 -36,37 -49,50zm45 122c1,0 0,0 1,0 4,0 31,-8 43,-8 9,-1 20,2 29,3 3,1 3,1 5,-1 2,-1 6,-4 7,-5 -4,0 -6,2 -11,1 -12,-3 -19,-8 -35,-5 -11,1 -32,13 -39,15zm-138 50c0,1 0,0 0,0 22,-8 18,-5 34,-20 3,-3 5,-2 11,-3 4,-1 32,-6 33,-6l-9 8c-4,3 -6,5 -11,7 -2,1 -21,8 -24,9 3,-3 12,-5 16,-7 3,-2 5,-3 8,-4 1,-2 4,-4 6,-6 -1,0 -16,2 -18,2 -3,1 -6,2 -9,2 -3,0 -3,0 -4,2 -4,4 -11,11 -16,12 -3,1 -15,5 -17,5 -1,0 0,0 -2,1 -1,0 -2,0 -3,1 1,-2 3,-3 4,-4 1,0 12,-7 14,-7 3,-2 4,-3 6,-5 1,-2 4,-5 5,-7l-31 9c-4,1 -4,1 -6,4 -4,2 -15,12 -16,14 7,0 24,-3 34,-4l3 -1c9,-1 21,-6 25,-6 3,-1 6,-1 9,-2 16,-3 22,-4 33,-15 5,-6 2,-3 8,-8l12 -9 -52 12c2,-2 3,-3 4,-5 -2,0 -36,8 -42,9 -4,1 -8,1 -10,6l40 -9c-1,2 -15,14 -16,15 -2,1 -17,9 -19,10zm89 -103c1,0 0,0 1,0 0,0 1,-1 1,-1 2,0 32,-19 35,-22 5,-3 10,-9 14,-14 4,-6 9,-12 13,-17 2,-3 4,-6 6,-8 1,-3 1,-2 4,-4l46 -18c7,-2 14,-5 20,-8l0 -10 -56 26 8 -14c-2,0 -5,2 -7,3l-46 21c-9,4 -18,7 -27,11 -4,2 -9,4 -13,6 -3,2 -3,3 -5,5 0,2 -3,6 -3,7l77 -34c0,1 -25,36 -30,39 -4,4 -35,30 -38,32zm140 -108l0 -11 -20 0 -43 20c-4,1 -13,6 -15,6 1,-1 2,-2 3,-3 1,-1 3,-2 3,-2 1,-1 0,0 1,-1 2,-2 1,-2 3,-3 0,0 9,-7 11,-8 2,-2 3,-4 5,-5 2,-1 5,-3 6,-4l-29 0 -11 17c-8,10 -20,16 -32,23 -3,1 -5,3 -8,5 -2,1 -7,5 -9,5 0,1 0,0 0,1 -1,0 -1,0 -1,0 -1,1 -1,1 -2,1l-1 1c0,-2 7,-8 8,-10l16 -16c9,-9 17,-13 22,-27l-14 0c0,1 -35,21 -42,25 -3,2 -3,2 -5,5l-28 40c-1,1 -4,4 -5,6l79 -33c-2,4 -6,9 -7,12l80 -37c-1,3 -11,11 -13,14l48 -21zm-138 108c-1,1 0,0 -1,1 0,0 -1,0 -1,1 -1,0 -2,0 -3,0l-1 1c0,-1 0,0 1,-1l13 -13c5,-4 9,-8 14,-13 13,-10 13,-10 19,-22 2,-3 3,-6 5,-9 -2,0 -54,26 -59,28 -3,1 -5,2 -6,4l-35 44c2,0 35,-10 40,-12 3,-1 38,-12 40,-12 -3,3 -6,7 -8,10l81 -28c-3,3 -12,10 -13,12l52 -17 0 -35c-4,4 -12,14 -15,17 -7,6 -12,7 -21,10 -15,6 -30,10 -44,16 -1,0 -2,1 -2,0 6,-5 13,-7 21,-10 13,-5 34,-13 45,-21 3,-2 6,-5 8,-8 2,-1 3,-2 4,-4 2,-1 3,-3 4,-4l0 -16c-3,4 -7,11 -14,18 -15,14 -32,22 -49,32 -2,2 -7,5 -10,6 3,-3 28,-19 32,-22 12,-9 13,-9 21,-20 1,-2 6,-7 6,-8 -2,0 -14,5 -18,6l-36 13c-2,1 -3,1 -4,2 -5,8 -14,20 -19,26 -8,10 -19,14 -31,20l-16 8z"/>
   </g>
  </g>
  <path fill="none" d="M76 89l-2 3c-1,1 -1,1 -2,3 -1,3 -2,4 -4,7l-14 27c-2,5 -5,9 -6,15l34 -4c2,-4 6,-22 8,-28 27,-63 82,-78 146,-59 5,1 9,3 14,4 4,2 9,5 13,5 15,-4 26,-9 27,-27 -17,-6 -48,-23 -57,-25 -24,-7 -49,-4 -69,4 -39,15 -70,63 -88,75z" id="svg-part-8"/>
  <path fill="#201E1E" d="M76 89c18,-12 49,-60 88,-75 20,-8 45,-11 69,-4 9,2 40,19 57,25l8 3c0,-3 -5,-10 -7,-14 -3,-6 -3,-8 -6,-9 -1,-1 -3,-1 -5,-2 -24,-6 -48,-13 -74,-13 -23,0 -34,1 -53,13 -5,2 -9,5 -13,8 -4,3 -9,6 -13,9 -11,9 -12,11 -22,21l-11 12c-4,5 -16,20 -18,26z" id="svg-part-9"/>
 </g>
</svg>