<svg xmlns="http://www.w3.org/2000/svg" xmlns:xlink="http://www.w3.org/1999/xlink" xml:space="preserve" width="100%" height="100%" version="1.1" shape-rendering="geometricPrecision" text-rendering="geometricPrecision" image-rendering="optimizeQuality" fill-rule="evenodd" clip-rule="evenodd" viewBox="0 0 4414 9927"><defs><style data-fonts="true">@font-face { font-family: 'font_2'; src: url('http://127.0.0.1:8000/storage/fonts/37mrW2LoSAz4UV3Fw60rHUYMhqTS29wmTYG7KDOM') format('truetype'); }@font-face { font-family: 'font_4'; src: url('http://127.0.0.1:8000/storage/fonts/6q5lPJecyQvh4nloAo6VOQQMEu2p1HTOlzIzSerz') format('truetype'); }@font-face { font-family: 'font_5'; src: url('http://127.0.0.1:8000/storage/fonts/D3O6qgC2TlIuZwX3ThNRuFmGZCdHiNmTJui6cxLU') format('truetype'); }</style></defs>
 <g id="Layer_x0020_1">
  <metadata id="CorelCorpID_0Corel-Layer"/>
  <g id="_2884770927808">
   <g>
    <path fill="#0080C5" d="M1101 786l-200 158c-363,323 -456,842 -390,1322 17,126 89,495 144,558 -110,208 5,790 144,1002 258,392 777,691 1387,643 712,-55 1240,-449 1340,-1118 24,-167 28,-595 -80,-691 56,-129 -53,-744 -66,-902l436 50c102,171 382,962 439,1185 121,474 206,944 131,1459 -12,85 -25,150 -37,236 -12,86 -37,260 -68,337 -77,194 -22,52 -41,232 -2,27 -3,26 -7,58 0,4 -3,28 -3,30 -12,39 14,11 -21,34 29,75 -33,142 -33,240 -1,98 1,197 0,296 0,95 13,167 12,273 -1,61 -11,70 -12,131 -1,50 0,102 0,153 0,535 -105,1615 -166,2163 -35,314 -65,487 -63,811 0,58 -7,142 -29,190 -11,26 -7,37 -61,48 -98,20 -279,13 -381,13 -72,0 -113,12 -196,11l-416 11c-71,0 -147,-2 -219,0 -334,10 -999,59 -1294,118l-586 90 23 -448c8,-286 -8,-121 45,-436 15,-92 21,-179 34,-283 34,-268 59,-970 27,-1213 -16,-116 -32,-476 -50,-584 -33,-185 -62,-356 -93,-542l-112 -522c-23,-90 -41,-164 -66,-251 -16,-59 -74,-204 -59,-247 -24,-18 -22,-11 -38,-61 -185,-569 -430,-1553 -454,-2115 -5,-116 -22,-235 -22,-361 1,-602 -10,-820 168,-1351 119,-353 244,-669 445,-977 16,-25 27,-30 43,-55l109 -44c15,226 145,293 336,349z" id="svg-part-0"/>
    <path fill="#0080C5" d="M3380 1758c13,158 122,773 66,902 -206,-459 -995,-423 -1467,-400 -395,19 -852,-1 -1162,251 -84,69 -126,187 -162,313 -55,-63 -127,-432 -144,-558 -66,-480 27,-999 390,-1322l200 -158c47,-8 120,-44 169,-63 59,-22 112,-39 173,-56 805,-236 1502,-46 1833,748 31,74 80,303 104,343z" id="svg-part-1"/>
    <path fill="#EEAD1E" d="M3335 3105c0,-215 -77,-335 -291,-420 -326,-130 -836,-94 -1218,-94 -344,0 -951,30 -951,470 0,386 115,647 371,842 224,171 610,273 908,273 238,0 645,-137 817,-308 115,-114 162,-164 240,-318 48,-97 124,-308 124,-445zm111 -445c108,96 104,524 80,691 -100,669 -628,1063 -1340,1118 -610,48 -1129,-251 -1387,-643 -139,-212 -254,-794 -144,-1002 36,-126 78,-244 162,-313 310,-252 767,-232 1162,-251 472,-23 1261,-59 1467,400z" id="svg-part-2"/>
    <path fill="#0080C5" d="M3455 1116l27 38c12,20 12,20 24,41 18,35 30,53 48,84l178 346c31,67 60,111 84,183l-436 -50c-24,-40 -73,-269 -104,-343 -331,-794 -1028,-984 -1833,-748 -61,17 -114,34 -173,56 -49,19 -122,55 -169,63 -191,-56 -321,-123 -336,-349 214,-71 605,-285 712,-315 303,-86 618,-48 873,53 487,193 886,794 1105,941z" id="svg-part-3"/>
    <path fill="#EEAD1E" d="M3455 1116c-219,-147 -618,-748 -1105,-941 -255,-101 -570,-139 -873,-53 -107,30 -498,244 -712,315l-109 44c10,-43 70,-132 95,-179 39,-73 41,-99 78,-118 13,-6 40,-11 60,-16 298,-82 607,-168 926,-168 292,0 427,14 671,159 60,36 118,66 171,103 50,36 106,78 155,118 137,113 155,133 285,262l128 145c51,65 212,259 230,329z" id="svg-part-4"/>
   </g>
   <path fill="#FEFEFE" d="M3603 1784c-278,-1072 -1173,-1584 -1481,-1569 -222,-51 -815,65 -1291,422 -620,465 -1040,1340 -178,2787l0 0c-50,-229 -63,-478 2,-600 -55,-63 -127,-432 -144,-558 -66,-480 27,-999 390,-1322l200 -158c47,-8 120,-44 169,-63 59,-22 112,-39 173,-56 805,-236 1502,-46 1833,748 31,74 80,303 104,343 13,158 122,773 66,902 92,82 103,406 89,603l49 -3c141,-575 125,-1067 19,-1476z" id="svg-part-5"/>
   <path fill="#001331" d="M595 2828c-35,87 -42,206 -34,323 -235,-453 -405,-977 -323,-1480 68,-412 295,-744 625,-992 213,-160 466,-282 723,-356 101,-29 207,-51 312,-62 66,-6 148,-10 212,5l7 2 7 -1c91,-4 216,45 297,84 151,71 293,171 418,280 350,307 596,716 713,1166 101,389 102,790 37,1182 -9,-128 -32,-260 -84,-332 12,-53 10,-124 9,-171 -4,-95 -14,-190 -25,-284 -11,-87 -22,-174 -34,-261 -8,-58 -18,-119 -23,-177l-1 -12 -6 -11c-7,-13 -15,-43 -20,-58 -10,-36 -20,-73 -30,-109 -8,-32 -17,-63 -26,-94 -7,-25 -15,-51 -25,-75 -133,-321 -345,-592 -663,-745 -385,-185 -833,-151 -1233,-34 -60,17 -118,36 -176,58 -27,10 -53,22 -80,33 -24,10 -55,23 -80,27l-13 3 -212 167 -1 1c-382,340 -474,882 -407,1369 14,105 74,433 136,554zm2945 -188c10,-53 9,-113 7,-165 -4,-96 -14,-192 -25,-287 -11,-87 -23,-174 -35,-261 -8,-59 -17,-117 -22,-176l-1 -20 -10 -16c-6,-12 -13,-38 -17,-51 -10,-36 -20,-73 -30,-109 -8,-32 -17,-63 -26,-95 -8,-26 -16,-53 -26,-78 -28,-67 -60,-133 -95,-195 116,191 203,400 260,618 80,308 97,627 66,943 -12,-40 -26,-77 -46,-108zm-459 -1709c-111,-127 -245,-234 -406,-311 -393,-188 -848,-155 -1256,-36 -61,18 -120,37 -179,59 -27,11 -53,22 -80,33 -23,10 -50,21 -74,26l-21 4 -219 173 -2 1c-391,348 -486,901 -418,1398 5,42 13,83 20,124 11,57 22,114 35,170 12,51 24,102 39,151 11,35 23,73 39,107 -20,54 -29,116 -33,178 -42,-90 -81,-181 -116,-273 -102,-274 -169,-567 -159,-861 3,-66 9,-132 20,-198 66,-403 288,-728 612,-970 210,-159 459,-279 712,-351 100,-28 203,-51 307,-61 62,-6 139,-10 200,4l12 3 12 -1c85,-4 205,44 281,80 148,71 287,169 410,276 96,85 185,177 264,275z" id="svg-part-6"/>
   <path fill="#EEAD1E" d="M3442 1614c12,33 23,67 34,102l-6 -10c-6,-11 -11,-34 -15,-47 -5,-15 -9,-30 -13,-45zm41 125c7,24 13,47 19,71 73,279 93,568 73,855 -5,-10 -10,-19 -16,-28 9,-53 8,-110 6,-163 -4,-96 -14,-192 -25,-288 -11,-87 -23,-175 -34,-262 -8,-58 -18,-116 -22,-174l-1 -11zm-674 -1066c-40,-25 -82,-48 -126,-69 -397,-191 -857,-158 -1269,-37 -61,18 -121,37 -181,59 -27,11 -53,22 -80,33 -22,9 -47,21 -71,25l-25 5 -223 176 -2 2c-395,352 -493,910 -424,1414 6,41 13,83 20,125 11,57 22,114 35,170 12,51 25,102 40,153 10,34 22,69 36,101 -12,35 -19,72 -24,109 -32,-69 -61,-139 -88,-211 -101,-271 -168,-562 -157,-853 2,-66 8,-131 19,-196 65,-398 285,-719 604,-959 210,-157 456,-276 707,-347 99,-29 201,-51 303,-61 61,-6 135,-10 195,4l14 3 14 0c82,-4 200,43 273,78 147,70 284,166 406,273 1,1 3,2 4,3z" id="svg-part-7"/>
  </g>
 </g>
</svg>