<svg xmlns="http://www.w3.org/2000/svg" xmlns:xlink="http://www.w3.org/1999/xlink" xml:space="preserve" width="100%" height="100%" version="1.1" shape-rendering="geometricPrecision" text-rendering="geometricPrecision" image-rendering="optimizeQuality" fill-rule="evenodd" clip-rule="evenodd" viewBox="0 0 143 321"><defs><style data-fonts="true">
                        @font-face {
                            font-family: 'font_1';
                            src: url('http://127.0.0.1:8000/storage/fonts/ItjUij9bTDfywznopiruVXCAsbY2rAq8zSeDhcae') format('truetype');
                        }
                    
                        @font-face {
                            font-family: 'font_2';
                            src: url('http://127.0.0.1:8000/storage/fonts/5jycOirlLmlBhFCXL2MDaHUP4rged3kf2Smt216A') format('truetype');
                        }
                    
                        @font-face {
                            font-family: 'font_3';
                            src: url('http://127.0.0.1:8000/storage/fonts/rqJPEFUVLnBO1w0pcHBmAalw4zQxrENQAvQdGMKg') format('truetype');
                        }
                    
                        @font-face {
                            font-family: 'font_4';
                            src: url('http://127.0.0.1:8000/storage/fonts/Ds634rSYcNxLJZtVJMA6BAmG11svfsYHSbqhwxd7') format('truetype');
                        }
                    </style></defs>
 <g id="Layer_x0020_1">
  <metadata id="CorelCorpID_0Corel-Layer"/>
  <path id="Body" fill="#0080C5" d="M36 25l-7 6c-12,10 -15,27 -12,42 0,4 2,16 4,18 -3,7 0,26 5,33 8,13 25,22 45,21 23,-2 40,-15 43,-37 1,-5 1,-19 -2,-22 1,-4 -2,-24 -3,-29l15 2c3,5 12,31 14,38 4,15 6,30 4,47 0,3 -1,5 -1,8 -1,3 -1,8 -2,11 -3,6 -1,1 -2,7 0,1 0,1 0,2 0,0 0,1 0,1 0,1 0,0 -1,1 1,3 -1,5 -1,8 0,3 0,6 0,9 0,4 1,6 1,9 0,2 -1,3 -1,5 0,1 0,3 0,5 0,17 -3,52 -5,70 -1,10 -2,15 -2,26 0,2 0,4 -1,6 -1,1 0,1 -2,2 -3,0 -9,0 -12,0 -3,0 -4,0 -7,0l-13 1c-3,0 -5,0 -7,0 -11,0 -33,2 -42,3l-19 3 0 -14c1,-9 0,-4 2,-14 0,-3 1,-6 1,-9 1,-9 2,-32 1,-40 -1,-3 -1,-15 -2,-19 -1,-6 -2,-11 -3,-17l-3 -17c-1,-3 -2,-5 -2,-8 -1,-2 -3,-7 -2,-8 -1,-1 -1,-1 -2,-2 -6,-19 -14,-50 -14,-69 0,-3 -1,-7 -1,-11 0,-20 0,-27 5,-44 4,-11 8,-22 15,-32 0,0 1,-1 1,-1l4 -2c0,7 4,10 11,11z"/>
  <path id="Sleeves" fill="#0080C5" d="M109 57c1,5 4,25 3,29 -7,-15 -33,-14 -48,-13 -13,1 -28,0 -38,8 -2,3 -4,6 -5,10 -2,-2 -4,-14 -4,-18 -3,-15 0,-32 12,-42l7 -6c1,0 4,-1 5,-2 2,0 4,-1 6,-1 26,-8 48,-2 59,24 1,2 3,10 3,11z"/>
  <path id="Cuffs" fill="#EEAD1E" d="M108 101c0,-7 -3,-11 -9,-14 -11,-4 -28,-3 -40,-3 -11,0 -31,1 -31,15 0,13 4,21 12,27 8,6 20,9 30,9 7,0 21,-4 26,-10 4,-3 5,-5 8,-10 2,-3 4,-10 4,-14zm4 -15c3,3 3,17 2,22 -3,22 -20,35 -43,37 -20,1 -37,-8 -45,-21 -5,-7 -8,-26 -5,-33 1,-4 3,-7 5,-10 10,-8 25,-7 38,-8 15,-1 41,-2 48,13z"/>
  <path id="Shoulder" fill="#0080C5" d="M112 36l1 1c0,1 0,1 0,2 1,1 1,1 2,2l6 12c1,2 2,3 3,6l-15 -2c0,-1 -2,-9 -3,-11 -11,-26 -33,-32 -59,-24 -2,0 -4,1 -6,1 -1,1 -4,2 -5,2 -7,-1 -11,-4 -11,-11 7,-2 19,-9 23,-10 10,-3 20,-2 28,2 16,6 29,25 36,30z"/>
  <path id="Coller" fill="#EEAD1E" d="M112 36c-7,-5 -20,-24 -36,-30 -8,-4 -18,-5 -28,-2 -4,1 -16,8 -23,10l-4 2c1,-2 3,-5 3,-6 2,-3 2,-3 3,-4 0,0 1,0 2,-1 9,-2 19,-5 30,-5 9,0 14,0 21,5 2,1 4,2 6,3 2,2 3,3 5,4 4,4 5,5 9,9l4 4c2,3 7,9 8,11z"/>
  <path id="Bolts_x0020_Part" fill="#FEFEFE" d="M117 58c-9,-35 -38,-52 -48,-51 -7,-2 -27,2 -42,14 -20,15 -34,43 -6,90l0 0c-1,-8 -2,-16 0,-20 -2,-2 -4,-14 -4,-18 -3,-15 0,-32 12,-42l7 -6c1,0 4,-1 5,-2 2,0 4,-1 6,-1 26,-8 48,-2 59,24 1,2 3,10 3,11 1,5 4,25 3,29 3,3 3,13 2,20l2 0c5,-19 4,-35 1,-48z"/>
  <path id="Bolts_x0020_Outline" fill="#001331" d="M19 92c-1,2 -1,6 -1,10 -7,-15 -13,-32 -10,-48 2,-13 9,-24 20,-32 7,-5 15,-9 23,-12 4,0 7,-1 10,-2 3,0 5,0 7,1l1 0 0 0c3,0 7,1 9,2 5,3 10,6 14,9 11,10 19,24 23,38 3,13 3,26 1,38 0,-4 -1,-8 -3,-10 1,-2 1,-4 1,-6 0,-3 -1,-6 -1,-9 0,-3 -1,-6 -1,-8 0,-2 -1,-4 -1,-6l0 -1 0 0c0,0 -1,-1 -1,-2 0,-1 0,-2 -1,-3 0,-1 0,-2 -1,-3 0,-1 0,-2 0,-3 -5,-10 -12,-19 -22,-24 -12,-6 -27,-5 -40,-1 -2,1 -4,1 -5,2 -1,0 -2,1 -3,1 -1,0 -2,1 -3,1l0 0 -7 5 0 0c-12,11 -15,29 -13,45 0,3 2,14 4,18zm96 -7c0,-1 0,-3 0,-5 0,-3 -1,-6 -1,-9 0,-3 -1,-6 -1,-9 0,-2 -1,-3 -1,-5l0 -1 0 0c0,-1 -1,-2 -1,-2 0,-1 0,-2 -1,-4 0,-1 0,-2 -1,-3 0,-1 0,-1 0,-2 -1,-2 -2,-5 -3,-7 3,7 6,13 8,20 3,10 3,21 2,31 0,-1 -1,-3 -1,-4zm-15 -55c-4,-4 -8,-7 -13,-10 -13,-6 -28,-5 -41,-1 -2,0 -4,1 -6,2 -1,0 -2,1 -2,1 -1,0 -2,1 -3,1l-1 0 -7 5 0 0c-12,12 -15,30 -13,46 0,1 0,2 0,4 1,2 1,3 2,5 0,2 0,4 1,5 0,1 1,3 1,4 -1,1 -1,3 -1,5 -1,-3 -3,-5 -4,-8 -3,-9 -5,-19 -5,-28 0,-2 0,-5 1,-7 2,-13 9,-23 20,-31 6,-5 14,-9 23,-12 3,0 6,-1 10,-1 2,-1 4,-1 6,0l0 0 1 0c3,0 6,1 9,2 5,3 9,6 13,9 3,3 6,6 9,9z"/>
  <path id="Bolts" fill="#EEAD1E" d="M111 52c1,1 1,2 2,4l-1 -1c0,0 0,-1 0,-1 0,-1 0,-1 -1,-2zm2 4c0,1 0,2 0,3 3,9 3,18 3,27 0,0 -1,0 -1,-1 1,-1 0,-3 0,-5 0,-3 0,-6 0,-9 -1,-3 -1,-6 -2,-9 0,-2 0,-3 0,-5l0 -1zm-22 -34c-1,-1 -3,-2 -4,-2 -13,-7 -28,-6 -41,-2 -2,1 -4,2 -6,2 -1,1 -2,1 -3,1 0,1 -1,1 -2,1l-1 0 -7 6 0 0c-13,11 -16,30 -14,46 0,1 1,3 1,4 0,2 1,4 1,5 0,2 1,4 1,5 1,1 1,3 1,4 0,1 0,2 0,3 -1,-2 -2,-4 -3,-7 -3,-8 -6,-18 -5,-27 0,-2 0,-5 0,-7 2,-13 10,-23 20,-31 7,-5 15,-9 23,-11 3,-1 6,-2 10,-2 2,0 4,0 6,0l0 0 1 0c2,0 6,2 9,3 4,2 9,5 13,9 0,0 0,0 0,0z"/>
 </g>
<g id="mascot-overlay-group"/></svg>