<svg xmlns="http://www.w3.org/2000/svg" xmlns:xlink="http://www.w3.org/1999/xlink" xml:space="preserve" width="100%" height="100%" version="1.1" shape-rendering="geometricPrecision" text-rendering="geometricPrecision" image-rendering="optimizeQuality" fill-rule="evenodd" clip-rule="evenodd" viewBox="0 0 322 726">
 <g id="Layer_x0020_1">
  <metadata id="CorelCorpID_0Corel-Layer"/>
  <path fill="BLACK" d="M44 132c-1,0 -3,4 -3,6l-4 8c0,1 0,2 -1,2l-5 13c0,1 -1,2 -1,3l-7 18c-2,6 -5,14 -7,21 -1,1 -1,3 -2,5l-1 5c-3,10 -7,24 -9,34 0,2 0,5 -1,7 0,3 -1,8 -1,12 -2,9 -2,18 -2,27l0 7c0,2 0,4 0,7l0 0c0,6 2,21 3,25 0,2 0,4 1,6 0,2 0,4 1,6 1,8 2,21 7,28 1,2 1,1 1,3 0,2 -1,3 -1,4 0,2 0,4 1,7l0 6c1,4 1,8 3,12 1,2 1,2 1,6 0,9 0,18 0,28 0,9 0,19 0,28 0,1 0,2 0,3l0 7c0,2 0,2 0,4 0,1 0,2 0,3l0 7c1,1 0,2 1,3 0,5 0,9 0,14l1 13c0,2 0,5 0,7 0,1 1,2 1,3l1 16c0,5 1,9 1,13l1 7c0,4 0,9 1,13l2 25c1,3 1,5 1,7 1,4 1,8 1,13l2 12c1,9 1,17 3,26 1,9 1,18 1,27 0,5 0,9 1,13 1,5 3,6 8,6l7 1c2,0 4,0 7,0 1,0 2,0 3,0l7 0c1,0 2,0 3,0 5,0 9,0 14,0 1,0 2,1 3,1 2,0 3,0 4,0 1,-1 2,0 3,0l21 0c1,0 2,0 3,0 2,0 6,0 7,0l28 1 20 2c1,0 2,0 3,0l10 1c10,1 21,2 31,4 2,0 4,0 6,1 8,1 17,2 24,4 4,0 13,3 15,3l4 0 0 0c0,-1 0,-2 0,-3 0,-1 0,-1 0,-2 0,-2 0,-4 0,-5 -1,-5 -1,-11 -1,-15 0,-1 0,-3 0,-5l-1 -14c0,-2 0,-4 0,-5 0,-2 -1,-3 -1,-5l-1 -8c-1,-5 -2,-9 -2,-14 -1,-5 -2,-9 -2,-14l-1 -9c0,-1 0,-4 0,-5l0 -7c0,-1 0,-2 -1,-3 0,-1 0,-3 0,-4 0,-1 0,-2 0,-3 0,-1 0,-1 0,-2 0,-4 0,-7 0,-11 0,-1 -1,-2 0,-4 0,-2 0,-4 0,-5 0,-3 -1,-5 -1,-8 0,-1 0,-1 1,-2 0,-5 0,-20 1,-24 0,-2 0,-3 0,-5 1,-1 1,-3 1,-5 0,-4 2,-30 3,-33l6 -34c2,-6 2,-12 4,-18 1,-8 3,-17 5,-25l2 -8c2,-10 5,-19 8,-28l5 -15c1,-2 1,-3 1,-4 1,-3 2,-5 3,-8l1 -6c2,-6 4,-12 6,-18 0,-2 0,-3 1,-4 0,-2 0,-3 1,-5 0,-4 2,-11 4,-16 5,-23 11,-57 12,-79 1,-4 1,-7 1,-10l1 -20c0,0 0,0 0,-1l0 -27c0,-1 0,-1 0,-2 0,-1 0,-2 0,-3 0,-2 0,-5 0,-7 0,-3 -1,-6 -1,-9 0,-2 0,-8 -1,-9 0,0 0,-1 0,-1 0,0 0,0 0,0 -2,0 -6,1 -8,2 -3,0 -6,0 -9,1 -6,1 -11,2 -17,2l0 0c-1,5 -1,9 -1,14 -1,4 -2,9 -3,13 -1,8 -4,16 -6,24 0,1 1,8 1,10 0,7 0,15 0,22l-2 10 0 0 0 1 0 0c0,2 -1,5 -2,6l0 1 0 0 0 0 0 1 0 0c0,1 -1,3 -1,4l0 0 0 0 -1 1 0 0 0 1c0,1 -1,3 -1,4l-1 0c0,1 -3,8 -4,9 -6,13 -18,25 -30,33 -28,20 -68,23 -102,13 -51,-16 -76,-57 -68,-107 1,-6 3,-17 5,-21 0,-2 0,-6 0,-8 0,-8 1,-17 1,-24 1,-11 2,-21 4,-31 -2,0 -13,0 -16,0 -3,0 -5,1 -8,1 -2,0 -5,1 -7,1z" id="svg-part-0"/>
  <path fill="black" d="M81 106c1,2 -2,10 -3,12 0,2 -2,12 -3,12 -2,10 -3,20 -4,31 0,7 -1,16 -1,24 0,2 0,6 0,8 0,0 1,-2 2,-3 7,-13 26,-20 41,-23 21,-4 43,-3 65,-3 12,1 20,0 33,2 17,2 39,6 52,17 3,3 5,5 8,10 2,2 3,5 4,9 0,1 0,2 1,3 2,-8 5,-16 6,-24 1,-4 2,-9 3,-13 0,-5 0,-9 1,-14l0 0c0,-4 0,-8 0,-12 0,-4 0,-7 -1,-11 -3,-31 -18,-59 -45,-74 -23,-13 -52,-18 -80,-15 -26,3 -46,14 -62,33 -6,7 -14,22 -17,31z" id="svg-part-1"/>
  <path fill="#FB0404" d="M259 226c0,8 -2,20 -5,28 0,1 0,2 -1,4 -1,1 -1,2 -2,3 -5,12 -15,22 -25,28 -3,2 -5,3 -7,4 -3,1 -5,2 -8,3 -1,1 -2,1 -4,2 -1,0 -2,1 -4,1l-12 4c-2,0 -3,0 -5,0 -3,1 -6,1 -9,2 -2,0 -3,0 -5,0 -6,1 -6,1 -12,0 -2,0 -4,0 -6,-1 -10,-1 -19,-4 -28,-8 -1,0 -2,0 -2,-1 -1,0 -2,0 -3,-1l-15 -10c-2,-2 -5,-4 -6,-5 -2,-3 -3,-4 -6,-7 0,-1 -1,-2 -1,-2 -3,-5 -7,-12 -9,-18l-5 -18c-2,-11 -1,-22 7,-30 4,-3 8,-6 13,-8 10,-4 28,-7 39,-7 1,0 1,0 3,0l16 0c3,0 4,0 7,0 8,0 17,0 26,0 4,0 17,1 19,1 4,1 8,1 12,1 4,1 12,3 16,4l4 2c3,2 6,3 8,6 4,3 7,7 8,12 1,3 2,7 2,11zm-189 -33c-2,4 -4,15 -5,21 -8,50 17,91 68,107 34,10 74,7 102,-13 12,-8 24,-20 30,-33 1,-1 4,-8 4,-9l1 0c0,-1 1,-3 1,-4 0,-1 0,-1 0,-1l0 0c0,-1 0,0 1,-1l0 0 0 0c0,-1 1,-3 1,-4 0,-1 0,0 0,0l0 -1 0 0 0 0 0 -1c1,-1 2,-4 2,-6 0,0 0,0 0,0l0 -1 0 0 2 -10c0,-7 0,-15 0,-22 0,-2 -1,-9 -1,-10 -1,-1 -1,-2 -1,-3 -1,-4 -2,-7 -4,-9 -3,-5 -5,-7 -8,-10 -13,-11 -35,-15 -52,-17 -13,-2 -21,-1 -33,-2 -22,0 -44,-1 -65,3 -15,3 -34,10 -41,23 -1,1 -2,3 -2,3z" id="svg-part-2"/>
  <path fill="BLACK" d="M70 82l-4 6c-2,3 -11,19 -11,21l0 0c-1,1 -1,0 -2,2l-6 14c-1,2 -4,6 -3,7 2,0 5,-1 7,-1 3,0 5,-1 8,-1 3,0 14,0 16,0 1,0 3,-10 3,-12 1,-2 4,-10 3,-12 3,-9 11,-24 17,-31 16,-19 36,-30 62,-33 28,-3 57,2 80,15 27,15 42,43 45,74 1,4 1,7 1,11 0,4 0,8 0,12l0 0c6,0 11,-1 17,-2 3,-1 6,-1 9,-1 2,-1 6,-2 8,-2 0,-2 -1,-6 -2,-8 0,-1 0,-3 -1,-4l-6 -23c-1,-5 -4,-11 -5,-15 -1,-2 -1,-3 -1,-4l-6 -14 -8 -17c-2,-4 -5,-9 -7,-13 -2,-3 -6,-11 -8,-14 -1,-1 -1,-1 -2,-1 -2,-1 -4,-2 -6,-3l-20 -9c-7,-3 -22,-11 -27,-13 -21,-7 -47,-7 -67,0 -16,6 -28,17 -41,27l-5 5c-2,2 -5,5 -7,7l-20 19c-1,2 -10,12 -11,13z" id="svg-part-3"/>
  <path fill="#FB0404" d="M52 115l-5 10c-1,2 -4,6 -3,7 2,0 5,-1 7,-1 3,0 5,-1 8,-1 3,0 14,0 16,0 1,0 3,-10 3,-12 1,-2 4,-10 3,-12l-29 9z" id="svg-part-4"/>
  <path fill="#FB0404" d="M70 82c1,-1 10,-11 11,-13l20 -19c2,-2 5,-5 7,-7l5 -5c13,-10 25,-21 41,-27 20,-7 46,-7 67,0 5,2 20,10 27,13l20 9c2,1 4,2 6,3 1,-1 0,-2 -1,-3 -2,-5 -7,-12 -9,-17l-1 -1c0,0 0,0 0,0l0 0c0,-1 0,-1 -1,-1 -2,-1 -3,-1 -4,-1l-16 -5 -21 -4c-1,-1 -2,-1 -4,-1 -1,0 -3,-1 -4,-1 -9,-1 -13,-2 -23,-2l-13 0c-5,0 -9,1 -15,3l-13 5c0,0 -1,0 -1,0l-5 3c-5,2 -13,7 -17,10 -3,2 -7,5 -9,7 -2,2 -4,3 -6,5 0,0 0,0 -1,1l-4 3c-3,4 -7,7 -10,10 -1,1 -2,2 -2,3l-3 3c-2,2 -9,10 -10,12 -2,3 -5,6 -8,10 0,2 -3,6 -3,7z" id="svg-part-5"/>
 </g>
</svg>