<svg xmlns="http://www.w3.org/2000/svg" xmlns:xlink="http://www.w3.org/1999/xlink" xml:space="preserve" width="100%" height="100%" version="1.1" shape-rendering="geometricPrecision" text-rendering="geometricPrecision" image-rendering="optimizeQuality" fill-rule="evenodd" clip-rule="evenodd" viewBox="0 0 199 516"><defs><style data-fonts="true">@font-face { font-family: 'font_1'; src: url('http://127.0.0.1:8000/storage/fonts/5ZIyXfnllvfea2c03RF0XvhB4s9AbiJS5UuPNvgP') format('truetype'); }@font-face { font-family: 'font_2'; src: url('http://127.0.0.1:8000/storage/fonts/HiTBF8CNdPuu1yhMAdkdrafbOxzCEGWugdII81Rt') format('truetype'); }@font-face { font-family: 'font_3'; src: url('http://127.0.0.1:8000/storage/fonts/NTEl0gVIgAt3bQrdxmwPc3g1o1VAdu4adzElDKs8') format('truetype'); }</style><style>@font-face{font-family:'font_1';src:url('http://127.0.0.1:8000/storage/fonts/5ZIyXfnllvfea2c03RF0XvhB4s9AbiJS5UuPNvgP') format('truetype');}@font-face{font-family:'font_2';src:url('http://127.0.0.1:8000/storage/fonts/HiTBF8CNdPuu1yhMAdkdrafbOxzCEGWugdII81Rt') format('truetype');}@font-face{font-family:'font_3';src:url('http://127.0.0.1:8000/storage/fonts/NTEl0gVIgAt3bQrdxmwPc3g1o1VAdu4adzElDKs8') format('truetype');}</style><clipPath id="clip-preview-Sleeves"><path fill="#FF0000" fill-rule="nonzero" d="M162 279c0,6 0,11 0,16 -1,5 -2,9 -3,14 -2,6 -2,12 -2,17 0,5 -1,9 -2,14 0,1 0,3 0,5 -2,12 -4,24 -7,35 -12,37 -27,75 -36,105l0 0c-2,5 -3,10 -4,16 -1,2 0,4 -1,6 -1,3 -1,6 -2,9l-1 0c-6,-1 -13,-2 -19,-4 -8,-1 -15,-4 -22,-7 -1,0 -3,-1 -3,-2 -1,-2 0,-3 1,-5 0,-2 0,-5 2,-7 0,-2 0,-4 1,-5l-1 0 5 -14c6,-28 11,-56 13,-86 -1,-35 4,-63 14,-87 -1,-2 -1,-4 1,-5 -2,-2 -3,-4 0,-7 -1,-1 -2,-1 -2,-3 -1,-1 0,-2 -1,-5 -6,-20 -10,-45 -11,-77 0,-16 1,-32 1,-48 -1,-1 -2,-3 -3,-4 -5,-1 -9,-4 -12,-8 -2,-5 -5,-9 -6,-16 -3,-12 -3,-25 0,-38 2,-10 5,-20 10,-30 3,-6 5,-12 8,-19l0 -7 25 -14c10,-6 21,-9 33,-9l10 0 0 0c6,9 12,18 18,27 7,12 11,23 14,34 4,14 6,26 8,39 0,7 0,14 -1,20 -4,10 -8,19 -14,24 -1,1 -1,3 -2,5 0,24 -1,47 -5,69 -2,17 -3,34 -4,52l0 0z"/></clipPath></defs>
 <g id="Layer_x0020_1">
  <metadata id="CorelCorpID_0Corel-Layer"/>
  <g id="_1976829528304">
   <path id="Front" fill="#000000" fill-rule="nonzero" d="M47 485c-7,0 -13,0 -20,-2 -4,0 -9,-2 -13,-5 -1,0 -2,-1 -2,-2 -1,-2 0,-3 0,-5 1,-3 -1,-6 0,-9 1,-3 0,-5 0,-8 0,-3 -1,-5 -1,-8 0,-15 -2,-30 -4,-45 -1,-8 -2,-17 -1,-25 1,-10 3,-19 3,-28 0,-7 -1,-13 -1,-19 0,-6 2,-12 2,-19 0,-12 -3,-25 -3,-37 1,-11 1,-22 0,-33 -1,-8 -1,-16 0,-24 0,-11 1,-22 -1,-32 -1,-3 -2,-5 -3,-8 -3,-6 -3,-13 -3,-19 1,-9 3,-17 6,-25 4,-13 9,-26 16,-38 7,-12 14,-25 20,-38 1,-1 0,-2 1,-4l13 -8c8,-4 16,-8 23,-12l1 0 0 7c-3,7 -5,13 -8,19 -5,10 -8,20 -10,30 -3,13 -3,26 0,38 1,7 4,11 6,16 3,4 7,7 12,8 1,1 2,3 3,4l0 12 -1 0c-10,16 -17,41 -24,66 -4,16 -6,33 -9,50 0,3 0,6 0,9 -4,9 -4,16 -2,22 -2,16 -3,33 -3,49 1,41 2,82 3,123z"/>
   <path id="back" fill="#000000" fill-rule="nonzero" d="M155 345c0,0 0,0 0,0 1,5 2,10 3,15 1,2 2,5 3,7 2,4 4,8 4,12 2,8 3,15 6,22 7,19 14,38 15,57 0,1 0,2 1,3 0,3 0,5 0,8 0,1 1,3 1,5 0,2 -3,2 -5,3 -11,3 -23,4 -35,6l-11 -71c4,-11 7,-21 11,-32 3,-11 5,-23 7,-35zm-5 -336c1,0 1,1 1,1 2,1 3,3 4,5 2,3 4,6 7,9 3,4 6,9 10,14 4,6 8,13 11,20 2,3 3,6 5,9 4,8 5,17 7,26 1,9 3,18 4,27 0,6 0,12 -1,18 0,5 1,9 0,14 -1,5 -2,10 -4,15 -3,15 -8,30 -12,45 -2,7 -5,14 -7,21 -5,15 -10,30 -13,46 0,0 0,0 0,0l0 0c1,-18 2,-35 4,-52 4,-22 5,-45 5,-69 1,-2 1,-4 2,-5 6,-5 10,-14 14,-24 1,-6 1,-13 1,-20 -2,-13 -4,-25 -8,-39 -3,-11 -7,-22 -14,-34 -6,-9 -12,-18 -18,-27l0 0 2 0z"/>
   <path id="Sides" fill="#FF0000" fill-rule="nonzero" d="M148 483c-1,0 -2,0 -3,0 -5,0 -10,1 -14,1 -6,0 -13,0 -19,1 6,-22 16,-47 25,-73l11 71zm-85 3c-5,0 -9,-1 -14,-1 -1,0 -1,0 -2,0 -1,-41 -2,-82 -3,-123 0,-16 1,-33 3,-49 -2,-6 -2,-13 2,-22 0,-3 0,-6 0,-9 3,-17 5,-34 9,-50 7,-25 14,-50 24,-66l1 0 -1 36c1,32 5,57 11,77 1,3 0,4 1,5 0,2 1,2 2,3 -3,3 -2,5 0,7 -2,1 -2,3 -1,5 -10,24 -15,52 -14,87 -2,30 -7,58 -13,86l-5 14z"/>
   <path id="Sleeves" fill="#FF0000" fill-rule="nonzero" d="M162 279c0,6 0,11 0,16 -1,5 -2,9 -3,14 -2,6 -2,12 -2,17 0,5 -1,9 -2,14 0,1 0,3 0,5 -2,12 -4,24 -7,35 -12,37 -27,75 -36,105l0 0c-2,5 -3,10 -4,16 -1,2 0,4 -1,6 -1,3 -1,6 -2,9l-1 0c-6,-1 -13,-2 -19,-4 -8,-1 -15,-4 -22,-7 -1,0 -3,-1 -3,-2 -1,-2 0,-3 1,-5 0,-2 0,-5 2,-7 0,-2 0,-4 1,-5l-1 0 5 -14c6,-28 11,-56 13,-86 -1,-35 4,-63 14,-87 -1,-2 -1,-4 1,-5 -2,-2 -3,-4 0,-7 -1,-1 -2,-1 -2,-3 -1,-1 0,-2 -1,-5 -6,-20 -10,-45 -11,-77 0,-16 1,-32 1,-48 -1,-1 -2,-3 -3,-4 -5,-1 -9,-4 -12,-8 -2,-5 -5,-9 -6,-16 -3,-12 -3,-25 0,-38 2,-10 5,-20 10,-30 3,-6 5,-12 8,-19l0 -7 25 -14c10,-6 21,-9 33,-9l10 0 0 0c6,9 12,18 18,27 7,12 11,23 14,34 4,14 6,26 8,39 0,7 0,14 -1,20 -4,10 -8,19 -14,24 -1,1 -1,3 -2,5 0,24 -1,47 -5,69 -2,17 -3,34 -4,52l0 0z"/>
   <path id="Neck" fill="#FF0000" fill-rule="nonzero" d="M104 9c10,-6 21,-9 33,-9 3,0 6,-1 9,1 1,3 2,6 4,8l-12 0c-12,0 -23,3 -33,9 -9,4 -17,9 -26,14 -7,4 -15,8 -23,12l-13 8c0,0 0,0 0,-1 1,-1 1,-2 1,-4 1,-2 0,-4 0,-7 1,-1 3,-1 4,-1 9,-4 18,-8 27,-13 10,-5 19,-12 29,-17z"/>
  </g>
 </g>
<g id="mascot-overlay-group"/><g clip-path="url(#clip-preview-Sleeves)"><text id="app-1775913680344" x="4" y="-165" font-size="87" fill="#000000" stroke="#FF0000" stroke-width="undefined" text-anchor="middle" dominant-baseline="middle" paint-order="stroke fill" stroke-linejoin="round" style="font-family: font_1;">00</text></g></svg>