<svg xmlns="http://www.w3.org/2000/svg" xmlns:xlink="http://www.w3.org/1999/xlink" xml:space="preserve" width="100%" height="100%" version="1.1" shape-rendering="geometricPrecision" text-rendering="geometricPrecision" image-rendering="optimizeQuality" fill-rule="evenodd" clip-rule="evenodd" viewBox="0 0 1250 2811">
 <defs>
   <clipPath id="id0">
    <path d="M313 224l-55 43c-103,90 -131,237 -113,373 5,35 25,142 41,161 11,-36 23,-70 46,-89 88,-71 217,-66 329,-71 134,-6 357,-17 416,113 16,-36 -15,-210 -19,-255 -11,-18 -56,-381 -444,-331 -115,14 -175,51 -201,56z" id="svg-part-0"/>
   </clipPath>
   <clipPath id="id1">
    <path d="M218 125c4,64 41,83 95,99 26,-5 86,-42 201,-56 388,-50 433,313 444,331l124 14 -34 -76c-3,-4 -5,-8 -7,-11l-62 -109 -144 -143c-50,-52 -96,-95 -169,-123 -72,-29 -161,-40 -247,-15 -30,8 -141,69 -201,89z" id="svg-part-1"/>
   </clipPath>
 <clipPath id="clip-svg-part-2-right"><path fill="#37C9DA" d="M187 137l-73 123c-44,88 -76,198 -100,296 -19,74 -16,293 -6,373 24,192 44,307 100,494l43 134c0,1 1,1 1,2 0,1 0,2 0,3 17,63 28,100 42,168 12,62 22,96 33,165 17,103 23,163 28,266 3,67 6,124 0,192 -3,33 -2,65 -6,94l-9 90c-4,31 -9,55 -14,85l-5 143c0,20 -3,26 -3,46 28,0 74,-10 104,-16l70 -10c6,-1 14,-3 24,-4 103,-15 227,-25 334,-29 19,0 40,1 59,1 24,0 40,-3 59,-4 19,0 39,0 59,0 24,1 38,-3 58,-3 20,0 40,0 59,0 24,1 48,-2 56,-6 10,-3 2,5 10,-9 1,-2 3,-9 4,-14 10,-39 1,-74 5,-116l34 -321c1,-10 2,-25 4,-37 9,-73 12,-148 18,-221 1,-21 3,-54 5,-75 2,-12 0,-26 1,-39 0,-16 3,-19 3,-37 0,-26 0,-52 0,-78 0,-25 4,-48 3,-77 -9,-166 -6,-84 14,-219 6,-43 -8,-30 11,-69 14,-30 19,-94 26,-134 32,-190 -4,-374 -65,-552 -13,-39 -28,-77 -43,-115l-48 -114 -124 -14c4,45 35,219 19,255 14,13 23,64 26,90 4,33 1,76 -4,108 -30,189 -178,299 -379,314 -156,13 -266,-48 -342,-122 -42,-41 -64,-74 -86,-145 -14,-45 -29,-155 -6,-198 -16,-19 -36,-126 -41,-161 -18,-136 10,-283 113,-373l55 -43c-54,-16 -91,-35 -95,-99l-31 12z" id="svg-part-2"/></clipPath><pattern id="pattern-svg-part-2-right" patternUnits="userSpaceOnUse" x="0.0956411361694336" y="125" width="1249.83251953125" height="2686" preserveAspectRatio="xMidYMid meet"><g transform="scale(1) rotate(0)" opacity="1"><svg xmlns="http://www.w3.org/2000/svg" xmlns:xlink="http://www.w3.org/1999/xlink" xml:space="preserve" width="1249.83251953125" height="2686" version="1.1" shape-rendering="geometricPrecision" text-rendering="geometricPrecision" image-rendering="optimizeQuality" fill-rule="evenodd" clip-rule="evenodd" viewBox="0 0 4851 6728" preserveAspectRatio="xMidYMid meet">
 <g id="Layer_x0020_1">
  <metadata id="CorelCorpID_0Corel-Layer"/>
  <g id="_2273969982928">
   <rect fill="#373435" width="4851" height="6728" id="svg-part-3"/>
   <path fill="#EB1C24" fill-rule="nonzero" d="M0 0l4851 0 0 36c-1617,-2 -3234,0 -4851,-1l0 -35zm0 62c1617,0 3234,-1 4851,0l0 68c-1617,0 -3234,0 -4851,0l0 -68zm0 94c1617,0 3234,0 4851,0l0 62c-1617,0 -3234,0 -4851,0l0 -62zm0 90c1617,0 3234,0 4851,0l0 35c-1617,0 -3234,0 -4851,0l0 -35zm0 62c1617,0 3234,0 4851,0l0 67c-1617,0 -3234,0 -4851,0l0 -67zm0 94c1617,0 3234,0 4851,0l0 191c-1617,1 -3234,0 -4851,1l0 -192zm0 221c1617,0 3234,0 4851,0l0 66c-1617,0 -3234,0 -4851,0l0 -66zm0 92c1617,0 3234,1 4851,0l0 35c-1617,0 -3234,0 -4851,0l0 -35zm0 62c1617,0 3234,0 4851,0l0 69c-1617,0 -3234,0 -4851,1l0 -70zm0 95c1617,0 3234,0 4851,0l0 69c-1617,0 -3234,0 -4851,0l0 -69zm0 94c1617,0 3234,0 4851,1l0 36c-1617,0 -3234,0 -4851,0l0 -37zm0 63c1617,0 3234,0 4851,0l0 63c-1617,0 -3234,-1 -4851,0l0 -63zm0 94c1617,0 3234,1 4851,0l0 62c-1617,0 -3234,0 -4851,0l0 -62zm0 91c1617,0 3234,0 4851,1l0 34c-1617,-1 -3234,3 -4851,-2l0 -33zm0 63c1617,0 3234,-1 4851,0l0 39c-1617,0 -3234,0 -4851,0l0 -39zm0 92c1617,0 3234,0 4851,0l0 38c-1617,0 -3234,0 -4851,-1l0 -37zm0 157c1617,0 3234,0 4851,0l0 35c-1617,0 -3234,0 -4851,0l0 -35zm0 96c1617,0 3234,0 4851,0l0 35c-1617,0 -3234,0 -4851,0l0 -35zm0 62c1617,0 3234,0 4851,0l0 66c-1617,0 -3234,0 -4851,0l0 -66zm0 124c1617,0 3234,0 4851,0l0 36c-1617,0 -3234,0 -4851,0l0 -36zm0 189c1617,0 3234,0 4851,0l0 35c-1617,0 -3234,0 -4851,0l0 -35zm0 121c1617,0 3234,0 4851,0l0 36c-1617,0 -3234,0 -4851,0l0 -36zm0 96c1617,0 3234,0 4851,0l0 36c-1617,0 -3234,0 -4851,0l0 -36zm0 121c1617,0 3234,0 4851,0l0 40c-1617,0 -3234,0 -4851,0l0 -40zm0 131c1617,0 3234,0 4851,0l0 35c-1617,0 -3234,0 -4851,0l0 -35zm0 150c1617,0 3234,0 4851,0l0 36c-1617,0 -3234,0 -4851,0l0 -36zm0 95c1617,0 3234,0 4851,0l0 36c-1617,0 -3234,0 -4851,0l0 -36zm0 279c1302,0 2604,1 3906,1 315,9 630,-4 945,-1l0 39c-1617,0 -3234,0 -4851,0l0 -39zm0 129c1617,0 3234,0 4851,0l0 38c-1617,0 -3234,0 -4851,0l0 -38zm0 155c630,5 1260,1 1890,2 987,1 1974,2 2961,-2l0 39c-1617,0 -3234,0 -4851,0l0 -39z" id="svg-part-4"/>
  </g>
 </g>
</svg></g></pattern></defs>
 <g id="Layer_x0020_1">
  <metadata id="CorelCorpID_0Corel-Layer"/>
  <path fill="#37C9DA" d="M187 137l-73 123c-44,88 -76,198 -100,296 -19,74 -16,293 -6,373 24,192 44,307 100,494l43 134c0,1 1,1 1,2 0,1 0,2 0,3 17,63 28,100 42,168 12,62 22,96 33,165 17,103 23,163 28,266 3,67 6,124 0,192 -3,33 -2,65 -6,94l-9 90c-4,31 -9,55 -14,85l-5 143c0,20 -3,26 -3,46 28,0 74,-10 104,-16l70 -10c6,-1 14,-3 24,-4 103,-15 227,-25 334,-29 19,0 40,1 59,1 24,0 40,-3 59,-4 19,0 39,0 59,0 24,1 38,-3 58,-3 20,0 40,0 59,0 24,1 48,-2 56,-6 10,-3 2,5 10,-9 1,-2 3,-9 4,-14 10,-39 1,-74 5,-116l34 -321c1,-10 2,-25 4,-37 9,-73 12,-148 18,-221 1,-21 3,-54 5,-75 2,-12 0,-26 1,-39 0,-16 3,-19 3,-37 0,-26 0,-52 0,-78 0,-25 4,-48 3,-77 -9,-166 -6,-84 14,-219 6,-43 -8,-30 11,-69 14,-30 19,-94 26,-134 32,-190 -4,-374 -65,-552 -13,-39 -28,-77 -43,-115l-48 -114 -124 -14c4,45 35,219 19,255 14,13 23,64 26,90 4,33 1,76 -4,108 -30,189 -178,299 -379,314 -156,13 -266,-48 -342,-122 -42,-41 -64,-74 -86,-145 -14,-45 -29,-155 -6,-198 -16,-19 -36,-126 -41,-161 -18,-136 10,-283 113,-373l55 -43c-54,-16 -91,-35 -95,-99l-31 12z" id="svg-part-5" data-has-pattern="true" data-pattern-id="pattern-svg-part-2-right" data-pattern-size="50" data-pattern-opacity="100" data-pattern-angle="0" data-pattern-view="right"/>
  <path fill="#00AFEF" d="M313 224l-55 43c-103,90 -131,237 -113,373 5,35 25,142 41,161 11,-36 23,-70 46,-89 88,-71 217,-66 329,-71 134,-6 357,-17 416,113 16,-36 -15,-210 -19,-255 -11,-18 -56,-381 -444,-331 -115,14 -175,51 -201,56z" id="svg-part-6"/>
  <g clip-path="url(#id0)">
   <g id="_2884961478608">
    <g>
     <rect fill="#A9ABAE" stroke="#373435" stroke-width="1.96683" transform="matrix(0.909623 -0 1.15358 0.909156 -81.1206 38.4991)" width="503" height="975" id="svg-part-7"/>
     <rect fill="black" stroke="#373435" stroke-width="1.96683" transform="matrix(0.909623 -0 1.15358 0.909156 54.8378 38.4991)" width="173" height="975" id="svg-part-8"/>
    </g>
    <g>
     <rect fill="#A9ABAE" stroke="#373435" stroke-width="1.96683" transform="matrix(-0.909623 -0 -1.15358 0.909156 3085.43 38.4991)" width="503" height="975" id="svg-part-9"/>
     <rect fill="black" stroke="#373435" stroke-width="1.96683" transform="matrix(-0.909623 -0 -1.15358 0.909156 2949.47 38.4991)" width="173" height="975" id="svg-part-10"/>
    </g>
   </g>
  </g>
  <path fill="none" d="M313 224l-55 43c-103,90 -131,237 -113,373 5,35 25,142 41,161 11,-36 23,-70 46,-89 88,-71 217,-66 329,-71 134,-6 357,-17 416,113 16,-36 -15,-210 -19,-255 -11,-18 -56,-381 -444,-331 -115,14 -175,51 -201,56z" id="svg-part-11"/>
  <path fill="#201E1E" d="M611 1183c-169,0 -362,-89 -362,-291 0,-72 15,-107 90,-135 78,-30 273,-22 368,-22 64,0 174,16 211,61 25,30 27,46 27,84 0,54 -33,133 -64,174 -35,48 -83,79 -138,101 -28,11 -94,28 -132,28zm-425 -382c-23,43 -8,153 6,198 22,71 44,104 86,145 76,74 186,135 342,122 201,-15 349,-125 379,-314 5,-32 8,-75 4,-108 -3,-26 -12,-77 -26,-90 -59,-130 -282,-119 -416,-113 -112,5 -241,0 -329,71 -23,19 -35,53 -46,89z" id="svg-part-12"/>
  <path fill="#37C9DA" d="M218 125c4,64 41,83 95,99 26,-5 86,-42 201,-56 388,-50 433,313 444,331l124 14 -34 -76c-3,-4 -5,-8 -7,-11l-62 -109 -144 -143c-50,-52 -96,-95 -169,-123 -72,-29 -161,-40 -247,-15 -30,8 -141,69 -201,89z" id="svg-part-13"/>
  <g clip-path="url(#id1)">
   <g id="_2884961479408">
    <path id="svg-part-14" fill="#37C9DA" d="M190 39l0 -28 218 57c-4,-5 -10,-12 -15,-14 -4,-5 -10,-10 -14,-16l270 99c-2,-7 -16,-24 -21,-34l73 25c24,9 49,17 71,26l107 39c9,3 22,25 23,30l-209 -75 31 38c3,4 7,7 11,11 6,10 12,17 21,26 31,36 34,34 73,62 10,5 17,11 26,18l27 18c-9,-1 -21,-9 -29,-12 -43,-21 -86,-41 -118,-82l-19 -23c-2,-4 -5,-8 -9,-11 -13,-14 -14,-25 -31,-30l-90 -28c-17,-5 -106,-32 -119,-35 4,7 40,47 49,56 13,16 34,34 55,47 14,10 123,68 131,69 -3,-1 -35,-23 -43,-28 -22,-11 -72,-37 -86,-57 -8,-7 -31,-31 -35,-38 13,3 152,41 156,44 0,0 6,7 7,9l39 46c6,9 8,11 16,18 17,16 67,34 90,44 9,3 16,6 24,10 7,1 17,7 23,8 -6,-5 -14,-11 -20,-16 -18,-16 -41,-36 -59,-48 -11,-7 -32,-23 -38,-34 -10,-16 -18,-30 -26,-45 4,1 68,26 79,31 27,11 54,21 80,32 10,4 11,3 19,10l39 46c11,15 49,51 54,63l-212 -47 20 24c-15,-1 -72,-18 -92,-24 -31,-7 -106,-27 -136,-35 -14,-6 -27,-12 -42,-16 -72,-25 -139,-52 -211,-77 -13,-6 -28,-12 -42,-16 -6,-3 -13,-5 -21,-8 -8,-3 -13,-3 -18,-10l-44 -78c-4,-5 -22,-29 -24,-35 20,4 117,40 145,48 19,7 91,28 105,38 11,9 15,16 23,25 15,19 30,36 47,53 20,18 29,31 58,39 25,7 51,13 76,20l74 20c-11,-13 -51,-22 -70,-29 -62,-18 -87,-18 -135,-60 -19,-16 -31,-34 -46,-55 -16,-23 -24,-37 -57,-44 -14,-3 -26,-6 -38,-10 -14,-3 -26,-7 -39,-10 -41,-11 -115,-34 -152,-41zm881 483c2,2 -2,1 3,2l-3 0c-17,-2 -36,-15 -45,-25 -8,-6 -38,-30 -39,-34 17,3 35,9 52,13l41 8c5,2 6,5 7,10l-75 -18c17,17 32,34 59,44zm-454 -863l56 0c2,4 7,5 11,8 5,3 21,35 23,40 -7,-2 -17,-9 -23,-12l-45 -24c-5,-2 -17,-8 -22,-12zm-183 63c0,3 1,3 -1,3l-134 -66 46 0c3,5 88,63 89,63zm691 807l0 8c-8,0 -15,-1 -23,-1 -10,-2 -11,-5 -17,-6 -1,-4 1,-1 -3,-4 0,0 -3,-2 -3,-2 -4,-2 -3,-2 -6,-4 -10,-5 -36,-17 -40,-32 17,5 35,10 52,14 25,7 22,18 40,27zm-449 -693l-2 0 -110 -76c-29,-22 -72,-67 -89,-101l26 0c28,53 130,132 175,177zm-160 436c-2,0 1,0 -3,0 -14,1 -113,-27 -152,-30 -34,-1 -72,7 -104,13 -10,2 -10,4 -17,-3 -8,-4 -24,-15 -28,-21 15,3 23,9 41,4 43,-11 68,-26 123,-18 41,6 115,49 140,55zm493 178c0,3 0,1 -2,1 -77,-28 -64,-20 -121,-72 -10,-10 -18,-8 -36,-11 -18,-3 -115,-23 -119,-21l32 28c13,10 21,17 37,24 10,6 77,31 87,32 -11,-8 -42,-17 -57,-25 -10,-4 -19,-8 -27,-14 -6,-6 -16,-14 -23,-20 4,-1 56,7 66,9 10,2 21,4 32,5 9,2 8,2 13,7 16,14 38,38 57,44 9,3 54,17 61,16 3,2 -2,1 8,4 4,0 5,1 10,3 -4,-7 -10,-10 -16,-13 -2,0 -42,-24 -49,-27 -9,-6 -14,-8 -22,-17 -4,-5 -13,-17 -16,-22l110 29c14,3 15,6 22,14 12,9 54,44 57,50 -24,0 -87,-10 -122,-14l-10 -2c-35,-4 -74,-21 -90,-22 -10,-2 -20,-5 -31,-6 -57,-11 -81,-14 -118,-54 -18,-21 -10,-12 -30,-28l-43 -34 184 44c-3,-8 -9,-11 -13,-18 10,0 129,28 150,34 13,2 29,2 38,21l-144 -33c4,6 52,48 57,51 8,6 61,34 68,37zm-319 -368c-1,1 0,1 -2,0 0,0 -3,-2 -3,-2 -10,-1 -114,-67 -125,-77 -18,-14 -38,-34 -52,-52 -15,-20 -30,-41 -44,-61 -8,-11 -15,-20 -23,-30 -5,-8 -5,-7 -15,-11l-164 -65c-22,-8 -48,-20 -72,-28l0 -37 201 92 -28 -49c8,1 16,7 24,10l166 74c31,14 62,28 94,43 15,7 32,14 47,21 11,5 11,8 17,18 3,7 11,18 13,24l-277 -123c2,5 92,129 108,141 14,14 124,105 135,112zm-500 -382l0 -41 74 0 154 70c11,4 43,21 52,23 -3,-4 -8,-7 -11,-10 -3,-3 -9,-7 -12,-10 -2,-3 0,0 -3,-3 -6,-5 -4,-5 -9,-8 -2,0 -35,-27 -39,-31 -7,-6 -13,-12 -20,-16 -5,-4 -16,-11 -20,-15l103 0 39 60c29,36 73,58 114,82 10,6 20,13 30,18 6,3 26,17 31,19 1,1 0,0 1,3 1,0 2,1 4,1 2,1 3,1 6,3l5 3c-3,-7 -25,-27 -31,-36l-55 -56c-32,-32 -61,-48 -80,-97l50 0c2,3 126,76 149,89 11,7 11,7 19,16l101 144c4,5 14,16 15,21l-281 -115c6,11 24,31 27,39l-288 -129c6,8 41,39 47,48l-172 -72zm495 383c1,3 0,2 3,3 0,0 3,1 3,3 4,1 7,1 9,3l5 1c-1,-3 0,0 -3,-3l-47 -45c-17,-15 -32,-31 -50,-46 -46,-36 -45,-37 -67,-81 -6,-11 -13,-21 -17,-32 7,1 193,93 209,100 10,5 17,8 23,15l123 158c-8,0 -125,-38 -141,-43 -10,-3 -136,-44 -143,-44 9,13 20,24 28,36l-289 -101c10,13 43,38 47,45l-188 -61 0 -125c15,14 43,51 55,61 25,19 44,24 76,36 51,19 107,36 155,55 5,2 7,3 10,2 -22,-20 -48,-27 -77,-38 -47,-17 -122,-44 -160,-72 -12,-9 -21,-19 -30,-28 -5,-5 -10,-10 -14,-16 -8,-6 -10,-11 -15,-16l0 -55c12,13 27,40 53,64 53,49 112,77 172,114 10,7 25,18 36,23 -10,-13 -99,-69 -114,-81 -41,-31 -45,-32 -74,-72 -5,-5 -21,-22 -22,-28 8,2 52,19 64,23l129 46c9,3 10,2 15,7 18,27 48,71 67,93 28,36 68,48 110,70l59 29z"/>
   </g>
  </g>
  <path fill="none" d="M218 125c4,64 41,83 95,99 26,-5 86,-42 201,-56 388,-50 433,313 444,331l124 14 -34 -76c-3,-4 -5,-8 -7,-11l-62 -109 -144 -143c-50,-52 -96,-95 -169,-123 -72,-29 -161,-40 -247,-15 -30,8 -141,69 -201,89z" id="svg-part-15"/>
  <path fill="black" d="M187 137l31 -12c60,-20 171,-81 201,-89 86,-25 175,-14 247,15 73,28 119,71 169,123l144 143c-11,-43 -126,-159 -158,-188 -41,-37 -68,-55 -114,-82 -18,-10 -33,-17 -54,-26 -116,-46 -297,-7 -413,31 -15,5 -5,0 -11,7 0,0 -6,10 -7,11 -3,6 -5,10 -7,15 -5,9 -10,16 -15,25 -6,10 -11,15 -13,27z" id="svg-part-16"/>
  <path fill="#37C9DA" d="M313 224l-55 43c-103,90 -131,237 -113,373 5,35 25,142 41,161 11,-36 23,-70 46,-89 88,-71 217,-66 329,-71 134,-6 357,-17 416,113 16,-36 -15,-210 -19,-255 -11,-18 -56,-381 -444,-331 -115,14 -175,51 -201,56z" id="svg-part-17"/>
  <path fill="#A9ABAE" d="M538 165l419 331c0,1 1,2 1,3 4,45 35,219 19,255 -43,-96 -177,-115 -298,-116l-443 -350c7,-7 14,-14 22,-21l55 -43c26,-5 86,-42 201,-56 8,-1 16,-2 24,-3z" id="svg-part-18"/>
  <path fill="black" d="M406 191l570 450c6,49 8,96 1,113 -25,-54 -78,-84 -141,-100l-535 -421 12 -9c16,-3 45,-18 93,-33z" id="svg-part-19"/>
 </g>
<g id="pattern-overlay-group"><path fill="url(#pattern-svg-part-2-right)" d="M187 137l-73 123c-44,88 -76,198 -100,296 -19,74 -16,293 -6,373 24,192 44,307 100,494l43 134c0,1 1,1 1,2 0,1 0,2 0,3 17,63 28,100 42,168 12,62 22,96 33,165 17,103 23,163 28,266 3,67 6,124 0,192 -3,33 -2,65 -6,94l-9 90c-4,31 -9,55 -14,85l-5 143c0,20 -3,26 -3,46 28,0 74,-10 104,-16l70 -10c6,-1 14,-3 24,-4 103,-15 227,-25 334,-29 19,0 40,1 59,1 24,0 40,-3 59,-4 19,0 39,0 59,0 24,1 38,-3 58,-3 20,0 40,0 59,0 24,1 48,-2 56,-6 10,-3 2,5 10,-9 1,-2 3,-9 4,-14 10,-39 1,-74 5,-116l34 -321c1,-10 2,-25 4,-37 9,-73 12,-148 18,-221 1,-21 3,-54 5,-75 2,-12 0,-26 1,-39 0,-16 3,-19 3,-37 0,-26 0,-52 0,-78 0,-25 4,-48 3,-77 -9,-166 -6,-84 14,-219 6,-43 -8,-30 11,-69 14,-30 19,-94 26,-134 32,-190 -4,-374 -65,-552 -13,-39 -28,-77 -43,-115l-48 -114 -124 -14c4,45 35,219 19,255 14,13 23,64 26,90 4,33 1,76 -4,108 -30,189 -178,299 -379,314 -156,13 -266,-48 -342,-122 -42,-41 -64,-74 -86,-145 -14,-45 -29,-155 -6,-198 -16,-19 -36,-126 -41,-161 -18,-136 10,-283 113,-373l55 -43c-54,-16 -91,-35 -95,-99l-31 12z" id="svg-part-20" clip-path="url(#clip-svg-part-2-right)" style="pointer-events: none;"/></g></svg>