<svg xmlns="http://www.w3.org/2000/svg" xmlns:xlink="http://www.w3.org/1999/xlink" xml:space="preserve" width="100%" height="100%" version="1.1" shape-rendering="geometricPrecision" text-rendering="geometricPrecision" image-rendering="optimizeQuality" fill-rule="evenodd" clip-rule="evenodd" viewBox="0 0 244 550"><defs><style data-fonts="true">@font-face { font-family: 'font_1'; src: url('http://127.0.0.1:8000/storage/fonts/5ZIyXfnllvfea2c03RF0XvhB4s9AbiJS5UuPNvgP') format('truetype'); }@font-face { font-family: 'font_2'; src: url('http://127.0.0.1:8000/storage/fonts/HiTBF8CNdPuu1yhMAdkdrafbOxzCEGWugdII81Rt') format('truetype'); }@font-face { font-family: 'font_3'; src: url('http://127.0.0.1:8000/storage/fonts/NTEl0gVIgAt3bQrdxmwPc3g1o1VAdu4adzElDKs8') format('truetype'); }</style></defs>
 <g id="Layer_x0020_1">
  <metadata id="CorelCorpID_0Corel-Layer"/>
  <path fill="#FB0404" d="M211 100c1,0 2,3 2,4l3 7c0,0 0,1 1,1l4 10c0,1 0,1 0,2l6 14c2,4 3,11 5,15 1,2 1,3 1,5l2 4c2,7 4,18 6,25 0,2 0,4 1,5 0,3 1,6 1,9 1,8 1,14 1,21l0 5c0,2 0,4 0,5l0 1c0,4 -1,15 -2,19 0,1 0,3 -1,4 0,2 0,3 0,5 -1,6 -2,16 -6,21 0,1 0,1 0,2 0,1 0,2 0,3 0,2 0,3 0,5l-1 5c0,3 -1,6 -2,9 0,2 -1,2 -1,4 0,8 1,14 1,22 0,7 0,14 0,21 0,1 -1,1 -1,2l0 6c0,1 0,1 0,2 0,1 0,2 0,3l0 5c0,1 0,2 0,3 0,3 0,7 -1,10l0 10c0,2 0,3 -1,5 0,1 0,2 0,3l-1 12c0,3 0,7 0,10l-1 5c0,3 0,6 -1,10l-2 19c0,2 0,3 0,5 -1,3 -1,6 -1,10l-1 9c-1,7 -2,13 -2,19 -1,7 -1,14 -1,21 0,4 0,7 -1,10 -1,4 -3,5 -6,5l-5 0c-2,0 -4,0 -6,0 -1,0 -1,0 -2,0l-5 0c-1,0 -2,0 -3,0 -4,0 -7,0 -11,0 0,0 -1,1 -2,1 -1,0 -2,0 -3,0 -1,0 -1,0 -2,0l-16 0c-1,0 -1,0 -2,0 -2,0 -4,0 -6,0l-21 1 -15 1c0,0 -1,0 -2,0l-7 1c-8,1 -16,2 -24,3 -2,0 -3,0 -5,0 -6,1 -12,3 -18,4 -3,0 -10,2 -11,2l-3 0 0 0c0,-1 0,-1 0,-2 0,-1 0,-1 0,-2 0,-1 0,-2 0,-4 0,-3 0,-8 0,-11 1,-1 0,-2 1,-3l0 -12c0,-1 0,-2 0,-3 0,-1 1,-3 1,-4l1 -6c1,-4 1,-7 2,-10 0,-4 0,-7 1,-11l0 -7c0,-1 0,-3 0,-4l1 -5c0,-1 0,-1 0,-2 0,-1 0,-3 0,-4 0,0 0,-1 0,-2 0,0 0,0 0,-1 0,-3 0,-5 0,-8 0,-2 1,-2 1,-4 0,-1 0,-2 0,-4 0,-2 0,-3 0,-5 0,-1 0,-1 0,-2 0,-3 -1,-15 -2,-18 0,-1 0,-3 0,-4 0,-1 0,-2 0,-3 0,-4 -2,-23 -2,-25l-5 -26c-1,-5 -2,-9 -3,-14 -1,-6 -2,-13 -4,-19l-1 -6c-2,-7 -4,-14 -7,-21l-3 -12c-1,-1 -1,-2 -1,-3 -1,-2 -2,-4 -2,-6l-1 -4c-2,-5 -3,-9 -4,-14 0,-1 -1,-2 -1,-3 0,-1 -1,-2 -1,-3 0,-3 -2,-9 -3,-13 -4,-17 -8,-43 -10,-60 0,-2 0,-5 0,-7l-1 -15c0,0 0,0 0,-1l0 -20c0,-1 0,-1 0,-2 0,-1 0,-1 0,-2 0,-2 1,-4 0,-6 0,-2 1,-5 1,-7 0,-1 0,-6 1,-7 0,0 0,0 0,0 0,0 0,0 0,0 2,0 4,1 6,1 2,0 4,1 7,1 4,1 8,1 13,2l0 0c0,3 0,7 1,10 0,4 1,7 1,10 2,6 3,13 5,18 0,1 0,7 0,8 -1,6 -1,11 0,17l1 7 0 0 0 1 0 0c0,1 1,4 1,5l0 0 0 0 0 0 0 1 1 0c0,1 0,2 0,3l0 0 0 0 1 1 0 0 0 0c0,1 1,2 1,3l0 1c0,1 3,5 3,6 5,10 14,19 23,26 22,15 52,17 78,9 38,-12 57,-43 51,-81 -1,-4 -2,-13 -4,-16 0,-2 0,-4 0,-6 0,-6 0,-13 -1,-18 0,-8 -1,-16 -3,-23 2,-1 10,0 13,0 2,0 4,0 5,0 2,0 4,1 6,1z" id="svg-part-0"/>
  <path fill="black" d="M183 80c-1,2 1,8 2,10 0,1 2,8 2,9 2,7 3,15 3,23 1,5 1,12 1,18 0,2 0,4 0,6 0,0 -1,-1 -1,-2 -6,-10 -20,-15 -31,-17 -16,-4 -33,-3 -50,-3 -9,1 -15,0 -25,1 -13,2 -29,5 -39,14 -2,2 -4,4 -6,7 -1,2 -2,4 -3,7 0,1 0,2 -1,2 -2,-5 -3,-12 -5,-18 0,-3 -1,-6 -1,-10 -1,-3 -1,-7 -1,-10l0 0c0,-3 -1,-6 0,-9 0,-3 0,-6 0,-9 3,-23 14,-45 34,-56 18,-10 40,-13 61,-11 20,2 35,10 47,25 4,5 11,17 13,23z" id="svg-part-1"/>
  <path fill="black" d="M48 171c0,6 1,16 3,21 1,1 1,2 2,3 0,1 0,2 1,3 4,9 11,16 19,21 2,1 4,2 6,3 1,1 3,2 5,3 1,0 2,0 3,1 1,0 2,0 3,1l10 2c1,1 2,1 3,1 3,0 5,1 7,1 1,0 3,0 4,0 4,1 5,1 9,0 2,0 3,0 5,0 7,-2 14,-4 21,-7 1,0 1,0 2,0 0,-1 1,-1 1,-1l12 -8c1,-1 3,-3 4,-4 2,-2 3,-2 5,-5 0,-1 0,-1 1,-2 2,-3 5,-9 7,-13l3 -14c2,-8 1,-16 -5,-22 -3,-3 -6,-5 -9,-6 -8,-4 -22,-6 -30,-6 -1,0 -1,0 -2,0l-13 0c-2,0 -3,0 -5,0 -6,0 -13,0 -20,0 -2,0 -13,1 -14,1 -3,0 -6,1 -9,1 -4,1 -9,2 -12,3l-4 2c-2,1 -4,2 -6,4 -2,2 -5,5 -6,9 0,2 -1,5 -1,8zm143 -25c2,3 3,12 4,16 6,38 -13,69 -51,81 -26,8 -56,6 -78,-9 -9,-7 -18,-16 -23,-26 0,-1 -3,-5 -3,-6l0 -1c0,-1 -1,-2 -1,-3 0,0 0,0 0,0l0 0c0,-1 0,-1 -1,-1l0 0 0 0c0,-1 0,-2 0,-3 0,-1 0,0 -1,0l0 -1 0 0 0 0 0 0c0,-1 -1,-4 -1,-5 0,0 0,0 0,0l0 -1 0 0 -1 -7c-1,-6 -1,-11 0,-17 0,-1 0,-7 0,-8 1,0 1,-1 1,-2 1,-3 2,-5 3,-7 2,-3 4,-5 6,-7 10,-9 26,-12 39,-14 10,-1 16,0 25,-1 17,0 34,-1 50,3 11,2 25,7 31,17 0,1 1,2 1,2z" id="svg-part-2"/>
  <path fill="black" d="M191 62l4 5c1,2 8,14 8,16l-1 0c1,0 1,0 2,1l5 11c1,1 2,4 2,5 -2,0 -4,-1 -6,-1 -1,0 -3,0 -5,0 -3,0 -11,-1 -13,0 0,-1 -2,-8 -2,-9 -1,-2 -3,-8 -2,-10 -2,-6 -9,-18 -13,-23 -12,-15 -27,-23 -47,-25 -21,-2 -43,1 -61,11 -20,11 -31,33 -34,56 0,3 0,6 0,9 -1,3 0,6 0,9l0 0c-5,-1 -9,-1 -13,-2 -3,0 -5,-1 -7,-1 -2,0 -4,-1 -6,-1 0,-1 1,-5 1,-6 0,-1 1,-2 1,-3l5 -18c1,-3 2,-8 3,-11 1,-1 1,-2 1,-3l5 -11 6 -13c1,-3 3,-7 5,-9 1,-3 5,-9 6,-11 1,-1 1,0 1,-1 2,-1 4,-1 5,-2l16 -7c5,-2 16,-8 20,-9 16,-6 35,-6 51,-1 12,5 21,13 30,21l4 3c2,2 4,4 6,6l15 15c1,1 8,8 8,9z" id="svg-part-3"/>
  <path fill="black" d="M191 62c0,-1 -7,-8 -8,-9l-15 -15c-2,-2 -4,-4 -6,-6l-4 -3c-9,-8 -18,-16 -30,-21 -16,-5 -35,-5 -51,1 -4,1 -15,7 -20,9l-16 7c-1,1 -3,1 -5,2 0,-1 1,-1 1,-2 2,-4 5,-9 7,-13l1 0c0,0 0,0 0,0l0 -1c0,0 0,0 1,-1 1,0 2,0 3,0l12 -4 16 -3c1,0 2,-1 3,-1 1,0 2,0 3,0 7,-1 10,-2 17,-2l10 0c4,0 7,1 11,2l10 4c1,0 1,0 1,0l4 2c4,2 10,6 13,8 2,2 5,4 7,5 1,1 3,2 4,4 0,0 0,0 1,1l3 2c3,3 5,5 8,8 0,1 1,1 1,2l2 2c2,1 7,8 8,9 2,3 3,5 6,8 0,1 2,4 2,5z" id="svg-part-4"/>
  <g id="_2474613849488">
   <g>
    <path fill="#FFD500" d="M177 67l-139 0c-2,5 -4,9 -6,14l151 0c0,0 0,0 0,-1 -1,-3 -4,-8 -6,-13z" id="svg-part-5"/>
    <path fill="#FB0404" d="M178 70l-141 0c-2,3 -3,5 -4,8l149 0c-1,-2 -2,-5 -4,-8z" id="svg-part-6"/>
   </g>
   <g>
    <path fill="#FFD500" d="M185 89l-155 0c-1,4 -1,7 -2,10 0,1 0,3 0,4l160 0c0,-2 0,-3 -1,-4 0,-1 -2,-8 -2,-9l0 -1z" id="svg-part-7"/>
    <path fill="#FB0404" d="M185 92l-156 0c0,2 -1,5 -1,7 0,1 0,1 0,1l160 0c-1,0 -1,-1 -1,-1 0,-1 -1,-5 -2,-7z" id="svg-part-8"/>
   </g>
  </g>
 </g>
<g id="mascot-overlay-group"/></svg>