<svg xmlns="http://www.w3.org/2000/svg" xmlns:xlink="http://www.w3.org/1999/xlink" xml:space="preserve" width="100%" height="100%" version="1.1" shape-rendering="geometricPrecision" text-rendering="geometricPrecision" image-rendering="optimizeQuality" fill-rule="evenodd" clip-rule="evenodd" viewBox="0 0 7724 10120"><defs/>
 <g id="Layer_x0020_1">
  <metadata id="CorelCorpID_0Corel-Layer"/>
  <g id="_2884809054544">
   <path fill="#201E1E" d="M580 1273c9,62 134,359 181,622 58,331 39,409 3,717 57,81 134,124 177,294 25,101 43,306 50,416 12,205 4,679 -106,820 21,39 38,50 55,87 12,27 30,70 39,103 59,200 10,321 -7,509l-11 569c3,77 21,185 23,262 6,264 91,746 127,1020 24,177 38,341 60,519l75 789c2,93 17,187 22,273 15,298 52,853 31,1114 -8,95 8,144 -24,238 -16,47 -6,90 0,127 24,132 -6,163 92,192l108 34c38,11 74,18 113,17l155 12c210,39 213,14 332,27 41,4 74,18 122,20l962 44c57,1 74,12 141,11 203,-1 367,11 569,11 195,0 359,-8 558,-10 60,-1 69,-12 130,-12l960 -45c37,-4 84,-17 123,-20 84,-6 146,4 270,-14l114 -18c163,-18 81,15 263,-42 77,-25 117,-18 127,-91 22,-151 1,-623 1,-819l58 -1079c10,-76 13,-173 25,-259 6,-42 9,-99 13,-130l217 -1793c6,-45 4,-87 11,-132l8 -818c-37,-266 -69,-366 28,-602 18,-46 45,-51 56,-98 -118,-145 -130,-620 -109,-826 14,-139 41,-277 75,-406 50,-182 70,-199 160,-307 -68,-174 -41,-513 -7,-699 41,-226 105,-405 174,-601 -513,-2 -910,-36 -1335,-235 -310,-145 -675,-468 -772,-821l-20 16c-2,1 -4,3 -6,4l0 0c-6,6 -13,15 -24,25 -94,88 -318,224 -435,277 -234,107 -387,144 -674,146 -488,4 -727,-154 -1052,-392 -40,-29 -71,-59 -117,-82 -19,80 -85,211 -125,272 -61,96 -95,148 -171,223 -68,67 -117,122 -208,185 -459,313 -1009,395 -1605,356z" id="svg-part-0"/>
   <path fill="#ED3237" d="M2557 139c47,29 93,62 132,98 46,23 77,53 117,82 325,238 564,396 1052,392 287,-2 440,-39 674,-146 117,-53 341,-189 435,-277 11,-10 18,-19 24,-25l0 0c2,-1 4,-3 6,-4l41 -32 0 0c9,-10 22,-15 43,-32 29,-23 53,-42 66,-64 -2,-2 -5,-7 -6,-5l-135 -72c-115,-65 -211,-81 -320,9 -107,87 -170,106 -284,164l-159 59c-234,60 -337,66 -603,41 -107,-10 -306,-92 -406,-140 -31,-15 -48,-22 -81,-40l-129 -89c-143,-115 -259,-34 -391,40 -30,17 -55,18 -76,41z" id="svg-part-1"/>
   <path fill="#201E1E" d="M5017 243c97,353 462,676 772,821 425,199 822,233 1335,235 36,-82 94,-249 144,-312 -11,-46 -4,-26 -39,-53 -26,-20 -29,-25 -51,-46 -106,-99 -206,-157 -328,-230 -372,-225 -991,-281 -1420,-438l-137 -49c-48,-20 -109,-23 -146,-40 -13,22 -37,41 -66,64 -21,17 -34,22 -43,32l0 0 -21 16zm-4571 751c19,47 115,258 134,279 596,39 1146,-43 1605,-356 91,-63 140,-118 208,-185 76,-75 110,-127 171,-223 40,-61 106,-192 125,-272 -39,-36 -85,-69 -132,-98 -67,7 -89,17 -140,37l-424 134c-205,47 -402,88 -599,144 -110,31 -182,50 -283,89 -186,72 -434,210 -578,350 -59,57 -80,59 -87,101z" id="svg-part-2"/>
   <path fill="#201E1E" d="M55 2323c55,31 133,32 197,48 69,17 126,36 191,60 199,74 265,158 321,181 36,-308 55,-386 -3,-717 -47,-263 -172,-560 -181,-622 -19,-21 -115,-232 -134,-279 -36,30 -112,225 -137,288 -41,103 -82,216 -112,324 -61,220 -117,462 -142,717zm7069 -1024c-69,196 -133,375 -174,601 -34,186 -61,525 7,699 42,-12 99,-66 149,-94 57,-32 112,-55 173,-78 133,-50 246,-67 393,-101 -21,-39 -46,-282 -64,-371 -25,-122 -56,-240 -88,-350 -34,-117 -69,-217 -112,-325 -20,-50 -41,-104 -64,-154l-53 -112c-14,-26 0,-15 -23,-27 -50,63 -108,230 -144,312z" id="svg-part-3"/>
   <path fill="#ED3237" d="M885 4142c110,-141 118,-615 106,-820 -7,-110 -25,-315 -50,-416 -43,-170 -120,-213 -177,-294 -56,-23 -122,-107 -321,-181 -65,-24 -122,-43 -191,-60 -64,-16 -142,-17 -197,-48 -50,75 -55,287 -55,387 207,-17 545,12 652,211 42,77 56,141 78,228 65,260 35,369 60,542 24,169 -53,172 -13,252 18,37 79,177 108,199zm6072 -1543c-90,108 -110,125 -160,307 -34,129 -61,267 -75,406 -21,206 -9,681 109,826 28,-14 118,-211 119,-227 3,-36 -19,-95 -25,-148 -18,-192 42,-587 112,-781 59,-168 246,-251 450,-271 337,-32 215,72 218,-230 1,-86 -6,-98 -33,-155 -147,34 -260,51 -393,101 -61,23 -116,46 -173,78 -50,28 -107,82 -149,94z" id="svg-part-4"/>
   <path fill="#ED3237" d="M513 1143l-147 0c-24,55 -46,110 -57,139 -41,103 -82,216 -112,324 -44,158 -85,326 -114,503l708 0c-5,-60 -15,-129 -30,-214 -47,-263 -172,-560 -181,-622 -9,-10 -38,-69 -67,-130zm6839 0l-164 0c-24,58 -47,117 -64,156 -69,196 -133,375 -174,601 -11,58 -21,131 -27,209l709 0c-9,-61 -17,-119 -24,-154 -25,-122 -56,-240 -88,-350 -34,-117 -69,-217 -112,-325 -17,-44 -36,-92 -56,-137z" id="svg-part-5"/>
   <path fill="#FEFEFE" d="M7480 1474l-417 0c-33,98 -63,196 -88,304l592 0c-14,-60 -30,-117 -47,-173 -13,-45 -26,-88 -40,-131zm-6835 0l-408 0c-14,44 -28,89 -40,132 -16,56 -31,113 -45,172l584 0c-27,-108 -61,-215 -91,-304z" id="svg-part-6"/>
  </g>
 </g>
</svg>