<svg xmlns="http://www.w3.org/2000/svg" xmlns:xlink="http://www.w3.org/1999/xlink" xml:space="preserve" width="100%" height="100%" version="1.1" shape-rendering="geometricPrecision" text-rendering="geometricPrecision" image-rendering="optimizeQuality" fill-rule="evenodd" clip-rule="evenodd" viewBox="0 0 1512 1980" preserveAspectRatio="xMidYMid meet"><defs><style data-fonts="true">@font-face { font-family: 'font_1'; src: url('http://127.0.0.1:8000/storage/fonts/5ZIyXfnllvfea2c03RF0XvhB4s9AbiJS5UuPNvgP') format('truetype'); }@font-face { font-family: 'font_2'; src: url('http://127.0.0.1:8000/storage/fonts/HiTBF8CNdPuu1yhMAdkdrafbOxzCEGWugdII81Rt') format('truetype'); }@font-face { font-family: 'font_3'; src: url('http://127.0.0.1:8000/storage/fonts/NTEl0gVIgAt3bQrdxmwPc3g1o1VAdu4adzElDKs8') format('truetype'); }</style><clipPath id="clip-app-1776169316088"><path fill="black" d="M149 464l0 1c1,3 4,5 6,8 14,18 24,36 31,61 13,48 11,144 4,194 -2,15 -13,75 -19,84 0,4 1,4 2,6 26,39 20,73 14,117 0,6 0,12 0,19 0,6 -1,9 -1,17l0 74c0,13 1,24 1,38l5 69 15 98c1,5 1,11 2,16 1,6 2,11 2,17 6,37 17,136 19,169 0,4 1,12 2,16l8 86c0,13 3,37 4,52l3 54c1,13 3,56 2,72 0,7 2,10 2,17l0 96c0,8 4,27 -1,34 -8,10 -7,14 -5,31 4,33 7,37 34,41 26,4 73,9 101,12l103 10c11,1 24,0 35,2l71 3c7,0 11,1 17,1 7,0 13,0 20,0 13,0 22,1 36,1l190 0c5,0 9,-1 16,-1l36 -1c6,0 13,0 20,0 6,0 9,-1 17,-1l88 -5c5,-1 13,-1 17,-1l54 -4c37,-3 101,-8 135,-14 33,-5 30,-20 34,-42 1,-7 6,-28 -6,-29 0,-49 0,-97 1,-144 0,-6 1,-9 1,-16 0,-7 0,-12 1,-18 0,-5 0,-12 0,-17 0,-8 1,-10 1,-18 0,-12 1,-22 1,-35l6 -85c0,-15 4,-35 4,-50l18 -166c2,-22 10,-68 15,-93 3,-22 11,-76 12,-97 1,-21 4,-49 4,-69 0,-7 1,-9 1,-16 0,-19 1,-56 -1,-72 0,-6 1,-12 0,-18 -1,-10 -2,-23 -3,-34 -4,-20 -5,-46 -2,-68 2,-14 8,-29 14,-41 1,-2 1,-3 3,-6 2,-3 2,-2 3,-7 -6,-9 -18,-70 -20,-85 -5,-32 -6,-67 -5,-100 1,-27 3,-69 10,-94 12,-44 33,-60 36,-69 -2,-12 -3,-31 -4,-44 0,-8 1,-42 0,-45l-1206 0c-1,3 0,37 0,45 -1,14 -2,31 -4,44z" data-part-name="svg-part-0" class="svg-hoverable" style="cursor: pointer; transition: 0.3s;" id="svg-part-0"/></clipPath><clipPath id="clip-app-1776169337336"><path fill="black" d="M87 177c3,7 7,14 12,21 25,44 50,117 53,169l1 8 1206 0 9 -58c7,-37 17,-65 33,-99l23 -43 1 -3c-8,-4 -30,-23 -52,-34 -4,-2 -6,-4 -11,-6l-48 -22 -52 -18c-42,-12 -69,-17 -113,-26 -5,-1 -10,-1 -14,-2 -5,-2 -9,-3 -14,-4 -24,-5 -57,-16 -81,-23 -5,-1 -9,-3 -13,-4 -8,-2 -8,-3 -15,-3 -6,7 -43,36 -51,42 -111,78 -227,94 -354,31 -21,-10 -40,-22 -58,-34 -9,-6 -49,-33 -53,-39l-51 16c-17,6 -39,11 -55,16 -17,5 -27,6 -43,10 -6,1 -8,2 -14,3 -31,4 -81,16 -112,27 -22,8 -52,21 -73,32 -3,2 -7,4 -11,7 -6,4 -46,29 -50,36z" data-part-name="svg-part-1" class="svg-hoverable" style="cursor: pointer; transition: 0.3s;" id="svg-part-1"/></clipPath></defs>
 <g id="Layer_x0020_1">
  <metadata id="CorelCorpID_0Corel-Layer"/>
  <path fill="black" d="M149 464l0 1c1,3 4,5 6,8 14,18 24,36 31,61 13,48 11,144 4,194 -2,15 -13,75 -19,84 0,4 1,4 2,6 26,39 20,73 14,117 0,6 0,12 0,19 0,6 -1,9 -1,17l0 74c0,13 1,24 1,38l5 69 15 98c1,5 1,11 2,16 1,6 2,11 2,17 6,37 17,136 19,169 0,4 1,12 2,16l8 86c0,13 3,37 4,52l3 54c1,13 3,56 2,72 0,7 2,10 2,17l0 96c0,8 4,27 -1,34 -8,10 -7,14 -5,31 4,33 7,37 34,41 26,4 73,9 101,12l103 10c11,1 24,0 35,2l71 3c7,0 11,1 17,1 7,0 13,0 20,0 13,0 22,1 36,1l190 0c5,0 9,-1 16,-1l36 -1c6,0 13,0 20,0 6,0 9,-1 17,-1l88 -5c5,-1 13,-1 17,-1l54 -4c37,-3 101,-8 135,-14 33,-5 30,-20 34,-42 1,-7 6,-28 -6,-29 0,-49 0,-97 1,-144 0,-6 1,-9 1,-16 0,-7 0,-12 1,-18 0,-5 0,-12 0,-17 0,-8 1,-10 1,-18 0,-12 1,-22 1,-35l6 -85c0,-15 4,-35 4,-50l18 -166c2,-22 10,-68 15,-93 3,-22 11,-76 12,-97 1,-21 4,-49 4,-69 0,-7 1,-9 1,-16 0,-19 1,-56 -1,-72 0,-6 1,-12 0,-18 -1,-10 -2,-23 -3,-34 -4,-20 -5,-46 -2,-68 2,-14 8,-29 14,-41 1,-2 1,-3 3,-6 2,-3 2,-2 3,-7 -6,-9 -18,-70 -20,-85 -5,-32 -6,-67 -5,-100 1,-27 3,-69 10,-94 12,-44 33,-60 36,-69 -2,-12 -3,-31 -4,-44 0,-8 1,-42 0,-45l-1206 0c-1,3 0,37 0,45 -1,14 -2,31 -4,44z" id="svg-part-0" data-part-name="svg-part-0" class="svg-hoverable" style="cursor: pointer; transition: 0.3s;"/>
  <path fill="black" d="M87 177c3,7 7,14 12,21 25,44 50,117 53,169l1 8 1206 0 9 -58c7,-37 17,-65 33,-99l23 -43 1 -3c-8,-4 -30,-23 -52,-34 -4,-2 -6,-4 -11,-6l-48 -22 -52 -18c-42,-12 -69,-17 -113,-26 -5,-1 -10,-1 -14,-2 -5,-2 -9,-3 -14,-4 -24,-5 -57,-16 -81,-23 -5,-1 -9,-3 -13,-4 -8,-2 -8,-3 -15,-3 -6,7 -43,36 -51,42 -111,78 -227,94 -354,31 -21,-10 -40,-22 -58,-34 -9,-6 -49,-33 -53,-39l-51 16c-17,6 -39,11 -55,16 -17,5 -27,6 -43,10 -6,1 -8,2 -14,3 -31,4 -81,16 -112,27 -22,8 -52,21 -73,32 -3,2 -7,4 -11,7 -6,4 -46,29 -50,36z" id="svg-part-1" data-part-name="svg-part-1" class="svg-hoverable" style="cursor: pointer; transition: 0.3s;"/>
  <path fill="black" d="M496 30c4,6 44,33 53,39 18,12 37,24 58,34 127,63 243,47 354,-31 8,-6 45,-35 51,-42 -1,-3 -2,-3 -6,-5l-36 -19c-6,-3 -8,-5 -17,-6l-3 0c-6,0 -11,2 -14,5 -9,7 -4,3 -13,9 -13,9 -53,29 -65,34 -53,20 -104,27 -161,12 -7,-1 -12,-2 -18,-4 -35,-12 -58,-25 -88,-45 -7,-4 -11,-10 -23,-11l-11 0 0 0c-7,1 -24,11 -31,14 -6,3 -26,12 -30,16z" id="svg-part-2" data-part-name="svg-part-2" class="svg-hoverable" style="cursor: pointer; transition: 0.3s;"/>
  <path fill="black" d="M1424 175l-23 43c-16,34 -26,62 -33,99l-9 58c1,3 0,37 0,45 1,13 2,32 4,44 6,-2 9,-7 14,-11 35,-27 80,-44 125,-49l-5 -33c-1,-5 -2,-10 -3,-16 -7,-32 -11,-45 -21,-76 -1,-5 -3,-10 -4,-14 -9,-25 -18,-44 -30,-67 -2,-5 -4,-9 -7,-13 -6,-12 -4,-11 -8,-10zm-1414 229c42,5 99,25 131,54 3,3 2,4 7,6l1 0c2,-13 3,-30 4,-44 0,-8 -1,-42 0,-45l-1 -8c-3,-52 -28,-125 -53,-169 -5,-7 -9,-14 -12,-21 -4,2 -19,30 -21,35l-7 14c-2,4 -4,9 -5,13 -12,28 -15,40 -25,70 -4,13 -19,83 -19,95z" id="svg-part-3" data-part-name="svg-part-3" class="svg-hoverable" style="cursor: pointer; transition: 0.3s;"/>
  <path fill="black" d="M171 812c6,-9 17,-69 19,-84 7,-50 9,-146 -4,-194 -7,-25 -17,-43 -31,-61 -2,-3 -5,-5 -6,-8l-1 -1c-5,-2 -4,-3 -7,-6 -32,-29 -89,-49 -131,-54 -3,5 -4,10 -5,16 -4,24 -5,30 -5,57 29,0 69,5 96,19 34,17 44,61 49,97 2,9 4,17 5,27 3,35 7,89 -2,122 -2,10 -4,3 4,24 1,3 16,43 19,46zm1192 -348c-3,9 -24,25 -36,69 -7,25 -9,67 -10,94 -1,33 0,68 5,100 2,15 14,76 20,85 0,-1 -1,1 1,-2l17 -44c12,-29 3,-5 0,-52 -1,-18 -3,-45 0,-63 0,-5 1,-11 1,-15 1,-6 1,-10 1,-15 1,-10 3,-19 5,-28 6,-40 17,-81 50,-97 21,-11 42,-15 66,-17l29 -3c0,-23 -3,-57 -10,-72 -45,5 -90,22 -125,49 -5,4 -8,9 -14,11z" id="svg-part-4" data-part-name="svg-part-4" class="svg-hoverable" style="cursor: pointer; transition: 0.3s;"/>
  <g id="_2475996850960">
   <g>
    <path fill="#FFD500" d="M1460 242l-70 0c-6,16 -12,32 -16,49l103 0c-1,-4 -2,-8 -4,-12 -1,-5 -3,-10 -4,-14 -3,-8 -6,-16 -9,-23zm-1340 0l-68 0c-8,20 -12,32 -17,49l102 0c-5,-17 -11,-33 -17,-49z" id="svg-part-5" data-part-name="svg-part-5" class="svg-hoverable" style="cursor: pointer; transition: 0.3s;"/>
    <path fill="#FB0404" d="M1464 251l-77 0c-4,10 -8,21 -11,31l99 0 -2 -3c-1,-5 -3,-10 -4,-14 -2,-5 -4,-9 -5,-14zm-1341 0l-74 0c-5,12 -8,21 -11,31l96 0c-3,-10 -7,-21 -11,-31z" id="svg-part-6" data-part-name="svg-part-6" class="svg-hoverable" style="cursor: pointer; transition: 0.3s;"/>
   </g>
   <g>
    <path fill="#FFD500" d="M1486 321l-119 0 -7 49 137 0c-1,-5 -2,-9 -3,-15 -3,-14 -6,-24 -8,-34zm-1341 0l-119 0c-3,13 -7,32 -11,49l137 0 0 -3c-1,-14 -4,-30 -7,-46z" id="svg-part-7" data-part-name="svg-part-7" class="svg-hoverable" style="cursor: pointer; transition: 0.3s;"/>
    <path fill="#FB0404" d="M1488 330l-122 0 -5 31 134 0c0,-2 0,-4 -1,-6 -2,-9 -4,-18 -6,-25zm-1341 0l-123 0c-2,10 -5,21 -7,31l134 0c-1,-9 -2,-20 -4,-31z" id="svg-part-8" data-part-name="svg-part-8" class="svg-hoverable" style="cursor: pointer; transition: 0.3s;"/>
   </g>
  </g>
 </g>
<g id="mascot-overlay-group"/><g id="app-group-app-1776169316088" clip-path="url(#clip-app-1776169316088)"><text id="app-1776169316088" x="781" y="723.5" font-size="500" fill="#FFFFFF" text-anchor="middle" dominant-baseline="middle" paint-order="stroke fill" stroke-linejoin="miter" style="font-family: font_1; cursor: move;">05</text></g><g id="app-group-app-1776169337336" clip-path="url(#clip-app-1776169337336)"><text id="app-1776169337336" x="772" y="310.5" font-size="157" fill="#FFFFFF" text-anchor="middle" dominant-baseline="middle" paint-order="stroke fill" stroke-linejoin="miter" style="font-family: font_1; cursor: move; filter: none;">PLAYER</text></g><g id="application-group"><text id="app-1776169316088" x="39" y="-392" font-size="500" fill="BLACK" stroke="#FFD500" stroke-width="undefined" text-anchor="middle" dominant-baseline="middle" paint-order="stroke fill" stroke-linejoin="round" style="font-family: font_1;">05</text><text id="app-1776169337336" x="16" y="108" font-size="157" fill="BLACK" stroke="#FFD500" stroke-width="undefined" text-anchor="middle" dominant-baseline="middle" paint-order="stroke fill" stroke-linejoin="round" style="font-family: font_1;">PLAYER</text><text id="app-1776169316088" x="39" y="-392" font-size="500" fill="BLACK" stroke="#FFD500" stroke-width="undefined" text-anchor="middle" dominant-baseline="middle" paint-order="stroke fill" stroke-linejoin="round" style="font-family: font_1;">05</text><text id="app-1776169337336" x="16" y="108" font-size="157" fill="BLACK" stroke="#FFD500" stroke-width="undefined" text-anchor="middle" dominant-baseline="middle" paint-order="stroke fill" stroke-linejoin="round" style="font-family: font_1;">PLAYER</text><text id="app-1776169316088" x="1" y="450" font-size="500" fill="BLACK" stroke="#FFD500" stroke-width="undefined" text-anchor="middle" dominant-baseline="middle" paint-order="stroke fill" stroke-linejoin="round" style="font-family: font_1;">05</text><text id="app-1776169337336" x="51" y="54" font-size="157" fill="BLACK" stroke="#FFD500" stroke-width="undefined" text-anchor="middle" dominant-baseline="middle" paint-order="stroke fill" stroke-linejoin="round" style="font-family: font_1;">PLAYER</text></g></svg>