<svg xmlns="http://www.w3.org/2000/svg" xmlns:xlink="http://www.w3.org/1999/xlink" xml:space="preserve" width="100%" height="100%" version="1.1" shape-rendering="geometricPrecision" text-rendering="geometricPrecision" image-rendering="optimizeQuality" fill-rule="evenodd" clip-rule="evenodd" viewBox="0 0 7724 10120"><defs><linearGradient x1="50%" y1="0%" x2="50%" y2="100%" id="gradient-front-svg-part-0"><stop offset="0%" stop-color="#797661"/><stop offset="64%" stop-color="#FF9800"/><stop offset="100%" stop-color="#ED3237"/></linearGradient><linearGradient x1="50%" y1="0%" x2="50%" y2="100%" id="gradient-front-svg-part-0"><stop offset="0%" stop-color="#797661"/><stop offset="64%" stop-color="#FF9800"/><stop offset="100%" stop-color="#ED3237"/></linearGradient><linearGradient x1="50%" y1="0%" x2="50%" y2="100%" id="gradient-back-svg-part-0"><stop offset="0%" stop-color="#797661"/><stop offset="64%" stop-color="#FF9800"/><stop offset="100%" stop-color="#ED3237"/></linearGradient></defs>
 <g id="Layer_x0020_1">
  <metadata id="CorelCorpID_0Corel-Layer"/>
  <g id="_2884727348496">
   <path fill="url(#gradient-back-svg-part-0)" d="M580 1273c9,62 134,359 181,622 58,331 39,409 3,717 57,81 134,124 177,294 25,101 43,306 50,416 12,205 4,679 -106,820 21,39 38,50 55,87 12,27 30,70 39,103 59,200 10,321 -7,509l-11 569c3,77 21,185 23,262 6,264 91,746 127,1020 24,177 38,341 60,519l75 789c2,93 17,187 22,273 15,298 52,853 31,1114 -8,95 8,144 -24,238 -16,47 -6,90 0,127 24,132 -6,163 92,192l108 34c38,11 74,18 113,17l155 12c210,39 213,14 332,27 41,4 74,18 122,20l962 44c57,1 74,12 141,11 203,-1 367,11 569,11 195,0 359,-8 558,-10 60,-1 69,-12 130,-12l960 -45c37,-4 84,-17 123,-20 84,-6 146,4 270,-14l114 -18c163,-18 81,15 263,-42 77,-25 117,-18 127,-91 22,-151 1,-623 1,-819l58 -1079c10,-76 13,-173 25,-259 6,-42 9,-99 13,-130l217 -1793c6,-45 4,-87 11,-132l8 -818c-37,-266 -69,-366 28,-602 18,-46 45,-51 56,-98 -118,-145 -130,-620 -109,-826 14,-139 41,-277 75,-406 50,-182 70,-199 160,-307 -68,-174 -41,-513 -7,-699 41,-226 105,-405 174,-601 -513,-2 -910,-36 -1335,-235 -310,-145 -675,-468 -772,-821l-20 16c-2,1 -4,3 -6,4l0 0c-6,6 -13,15 -24,25 -94,88 -318,224 -435,277 -234,107 -387,144 -674,146 -488,4 -727,-154 -1052,-392 -40,-29 -71,-59 -117,-82 -19,80 -85,211 -125,272 -61,96 -95,148 -171,223 -68,67 -117,122 -208,185 -459,313 -1009,395 -1605,356z" id="svg-part-0"/>
   <path fill="#ED3237" d="M2557 139c47,29 93,62 132,98 46,23 77,53 117,82 325,238 564,396 1052,392 287,-2 440,-39 674,-146 117,-53 341,-189 435,-277 11,-10 18,-19 24,-25l0 0c2,-1 4,-3 6,-4l41 -32 0 0c9,-10 22,-15 43,-32 29,-23 53,-42 66,-64 -2,-2 -5,-7 -6,-5l-135 -72c-115,-65 -211,-81 -320,9 -107,87 -170,106 -284,164l-159 59c-234,60 -337,66 -603,41 -107,-10 -306,-92 -406,-140 -31,-15 -48,-22 -81,-40l-129 -89c-143,-115 -259,-34 -391,40 -30,17 -55,18 -76,41z" id="svg-part-1"/>
   <g>
    <path fill="#201E1E" d="M5017 243c97,353 462,676 772,821 425,199 822,233 1335,235 36,-82 94,-249 144,-312 -11,-46 -4,-26 -39,-53 -26,-20 -29,-25 -51,-46 -106,-99 -206,-157 -328,-230 -372,-225 -991,-281 -1420,-438l-137 -49c-48,-20 -109,-23 -146,-40 -13,22 -37,41 -66,64 -21,17 -34,22 -43,32l0 0 -21 16zm-4571 751c19,47 115,258 134,279 596,39 1146,-43 1605,-356 91,-63 140,-118 208,-185 76,-75 110,-127 171,-223 40,-61 106,-192 125,-272 -39,-36 -85,-69 -132,-98 -67,7 -89,17 -140,37l-424 134c-205,47 -402,88 -599,144 -110,31 -182,50 -283,89 -186,72 -434,210 -578,350 -59,57 -80,59 -87,101z" id="svg-part-2"/>
    <path fill="#201E1E" d="M55 2323c55,31 133,32 197,48 69,17 126,36 191,60 199,74 265,158 321,181 36,-308 55,-386 -3,-717 -47,-263 -172,-560 -181,-622 -19,-21 -115,-232 -134,-279 -36,30 -112,225 -137,288 -41,103 -82,216 -112,324 -61,220 -117,462 -142,717zm7069 -1024c-69,196 -133,375 -174,601 -34,186 -61,525 7,699 42,-12 99,-66 149,-94 57,-32 112,-55 173,-78 133,-50 246,-67 393,-101 -21,-39 -46,-282 -64,-371 -25,-122 -56,-240 -88,-350 -34,-117 -69,-217 -112,-325 -20,-50 -41,-104 -64,-154l-53 -112c-14,-26 0,-15 -23,-27 -50,63 -108,230 -144,312z" id="svg-part-3"/>
   </g>
   <path fill="#ED3237" d="M885 4142c110,-141 118,-615 106,-820 -7,-110 -25,-315 -50,-416 -43,-170 -120,-213 -177,-294 -56,-23 -122,-107 -321,-181 -65,-24 -122,-43 -191,-60 -64,-16 -142,-17 -197,-48 -50,75 -55,287 -55,387 207,-17 545,12 652,211 42,77 56,141 78,228 65,260 35,369 60,542 24,169 -53,172 -13,252 18,37 79,177 108,199zm6072 -1543c-90,108 -110,125 -160,307 -34,129 -61,267 -75,406 -21,206 -9,681 109,826 28,-14 118,-211 119,-227 3,-36 -19,-95 -25,-148 -18,-192 42,-587 112,-781 59,-168 246,-251 450,-271 337,-32 215,72 218,-230 1,-86 -6,-98 -33,-155 -147,34 -260,51 -393,101 -61,23 -116,46 -173,78 -50,28 -107,82 -149,94z" id="svg-part-4"/>
   <g>
    <path fill="#ED3237" d="M6157 412c-12,30 -24,16 -51,47 -36,52 -9,14 -16,68 -5,40 -21,31 -24,71l-16 2c-9,56 -37,331 -62,358 9,167 -4,67 -5,151 9,-14 6,-2 11,-23 2,-6 3,-19 4,-25 9,-62 16,-92 59,-132 2,-75 -13,-52 10,-121 5,-43 20,-62 15,-106 75,-74 64,-38 85,-164 7,-44 25,-49 48,-76 9,-11 17,-20 24,-30 -27,-7 -54,-13 -82,-20zm767 290c-13,-8 -27,-16 -41,-24 -4,4 -7,5 -21,14 -4,54 13,66 -23,93l6 51c-19,23 -8,19 -29,37 -5,24 -4,35 -7,57 -1,4 -6,24 -6,24 2,37 -11,6 15,27 8,-34 30,-111 27,-145 2,-2 4,-8 6,-6 2,3 7,-23 58,-45 -9,-29 -8,-14 5,-17 -1,-21 3,-44 10,-66zm-317 -159c-30,-11 -61,-22 -92,-32 -17,31 3,29 -11,57 -7,72 -16,26 -52,119 -39,99 -10,37 -15,137l33 -20c-6,-65 12,-73 48,-107 18,-25 9,-10 25,-22 -2,-34 -5,-20 16,-34 15,-77 28,-77 48,-98zm-765 -205c-17,-5 -35,-9 -53,-13 -3,7 -6,14 -10,22 -56,103 -26,130 -50,188 -9,19 -5,9 -11,16 -17,36 -35,167 -21,193l28 -126c13,-48 24,-29 42,-71 34,-81 -45,-27 58,-182 13,-20 6,-1 15,-26l2 -1zm546 547c0,34 -5,6 -11,57 -4,39 4,37 -22,68l-3 133c8,-16 5,-18 9,-33 11,-39 5,2 14,-50 11,-70 25,-114 72,-153 4,-29 6,-47 -3,-83 -49,24 -27,18 -56,61z" id="svg-part-5"/>
    <path fill="#ED3237" d="M1591 402c13,43 25,23 54,57 36,52 10,14 16,68 5,40 21,31 24,71l16 2c9,56 38,331 63,358 -9,167 4,67 5,151 -9,-14 -6,-2 -12,-23 -1,-6 -2,-19 -3,-25 -9,-62 -17,-92 -60,-132 -1,-75 14,-52 -10,-121 -5,-43 -20,-62 -14,-106 -75,-74 -64,-38 -85,-164 -8,-44 -25,-49 -48,-76 -12,-14 -23,-25 -30,-38 28,-8 56,-15 84,-22zm368 -84c-20,4 -39,9 -59,13 3,2 7,5 11,8 10,25 3,6 16,26 102,155 23,101 58,182 18,42 29,23 42,71l27 126c14,-26 -3,-157 -20,-193 -6,-7 -3,3 -11,-16 -25,-58 5,-85 -50,-188 -6,-10 -10,-20 -14,-29zm-729 183c-30,10 -61,20 -94,33 25,31 40,20 57,107 21,14 17,0 15,34 17,12 8,-3 25,22 36,34 55,42 48,107l34 20c-5,-100 23,-38 -16,-137 -36,-93 -44,-47 -51,-119 -15,-28 6,-25 -13,-59 -1,-3 -3,-6 -5,-8zm-374 163c-12,7 -24,13 -36,20 12,27 18,57 18,84 12,3 14,-12 4,17 51,22 57,48 59,45 1,-2 4,4 6,6 -4,34 18,111 26,145 26,-21 13,10 15,-27 0,0 -5,-20 -5,-24 -4,-22 -3,-33 -7,-57 -22,-18 -11,-14 -29,-37l6 -51c-37,-27 -19,-39 -24,-93 -21,-14 -16,-8 -33,-28zm507 221c0,34 6,6 11,57 4,39 -4,37 23,68l3 133c-8,-16 -6,-18 -10,-33 -10,-39 -5,2 -14,-50 -10,-70 -25,-114 -71,-153 -4,-29 -7,-47 2,-83 49,24 28,18 56,61z" id="svg-part-6"/>
   </g>
  </g>
 </g>
</svg>