<svg xmlns="http://www.w3.org/2000/svg" xmlns:xlink="http://www.w3.org/1999/xlink" xml:space="preserve" width="100%" height="100%" version="1.1" shape-rendering="geometricPrecision" text-rendering="geometricPrecision" image-rendering="optimizeQuality" fill-rule="evenodd" clip-rule="evenodd" viewBox="0 0 1965 2808"><defs><style data-fonts="true">@font-face { font-family: 'font_13'; src: url('http://127.0.0.1:8000/storage/fonts/M72Xqrz7uGRInAdTwQ7M88S7HonuK1PQvZPELgEV') format('truetype'); }@font-face { font-family: 'font_14'; src: url('http://127.0.0.1:8000/storage/fonts/qhGt2lzatXmSRAh1ob2yUOC7wColQH9X6gkUIhwK') format('truetype'); }@font-face { font-family: 'font_16'; src: url('http://127.0.0.1:8000/storage/fonts/sEZk4tePDz7nnR492ehE0hxaHQqXLeWjHQc23Dky') format('truetype'); }</style></defs>
 <g id="Layer_x0020_1">
  <metadata id="CorelCorpID_0Corel-Layer"/>
  <path fill="#0024FF" fill-rule="nonzero" d="M867 13c22,-5 46,-5 68,-11 31,-3 62,-2 94,-1 29,8 60,7 88,17 37,10 71,29 101,53 15,13 36,10 55,9 58,-6 117,-15 175,-25 77,-13 154,-34 232,-36 14,0 30,1 38,12 10,13 13,28 16,42 7,42 17,82 23,124 6,42 11,86 22,128 5,16 9,33 12,50 32,103 48,210 70,316 13,70 30,139 40,210 8,63 7,127 10,191 2,17 -11,32 -13,48 -6,36 -2,73 10,106 37,80 45,168 53,254 4,99 5,197 4,296 -5,37 -10,73 -19,109 -5,28 -16,55 -28,81 -4,8 -3,18 -3,27 0,99 -2,198 8,296 2,25 10,49 15,73 6,32 11,63 16,94 5,39 3,79 2,118 -1,28 3,55 3,82 1,14 -4,27 -13,37 -38,41 -92,64 -146,78 -81,20 -168,22 -251,5 -23,-6 -49,-10 -70,-23 -21,-18 -21,-49 -29,-73 -22,-40 -34,-85 -53,-126 -10,-20 -13,-43 -24,-63 -13,-34 -26,-69 -39,-104 -8,-24 -16,-49 -27,-73 -24,-73 -49,-146 -71,-220 -23,-73 -52,-144 -83,-214 -4,-12 -11,-23 -18,-34 -29,-73 -58,-146 -82,-221 -23,-73 -37,-149 -51,-224 -10,-40 -4,-83 -18,-123 -17,36 -10,78 -19,116 -14,74 -28,148 -49,220 -23,73 -50,144 -79,214 -5,19 -19,34 -25,54 -26,57 -50,116 -70,176 -20,59 -38,119 -58,179 -8,23 -16,47 -23,71 -17,35 -27,73 -41,109 -12,30 -21,62 -35,91 -6,15 -9,31 -16,45 -19,42 -31,86 -53,126 -8,22 -9,46 -22,65 -9,13 -25,18 -40,23 -81,24 -167,26 -249,12 -54,-9 -107,-26 -152,-57 -14,-10 -28,-22 -39,-36 -11,-17 -8,-38 -6,-56 5,-61 -5,-122 4,-182 7,-38 13,-76 22,-114 8,-32 10,-64 13,-97 5,-87 4,-175 3,-262 -8,-24 -21,-47 -26,-72 -7,-33 -17,-67 -19,-101 -6,-19 -4,-40 -5,-60 0,-45 0,-90 1,-135 1,-62 1,-125 9,-187 7,-59 17,-118 38,-174 19,-38 27,-82 20,-125 -3,-17 -16,-31 -13,-49 2,-77 1,-155 16,-231 19,-99 40,-198 58,-297 14,-62 24,-124 44,-184 7,-34 17,-67 23,-101 8,-44 12,-88 21,-131 6,-28 11,-56 17,-84 3,-15 8,-32 22,-40 13,-7 28,-5 42,-5 45,4 91,10 135,20 72,13 145,29 218,37 28,3 56,6 84,-1 13,-4 24,-13 35,-21 29,-20 62,-34 97,-41z" id="svg-part-0"/>
 </g>
</svg>