<svg xmlns="http://www.w3.org/2000/svg" xmlns:xlink="http://www.w3.org/1999/xlink" xml:space="preserve" width="100%" height="100%" version="1.1" shape-rendering="geometricPrecision" text-rendering="geometricPrecision" image-rendering="optimizeQuality" fill-rule="evenodd" clip-rule="evenodd" viewBox="0 0 7724 10120"><defs><clipPath id="clip-svg-part-0-back"><path fill="#FF9800" d="M580 1273c9,62 134,359 181,622 58,331 39,409 3,717 57,81 134,124 177,294 25,101 43,306 50,416 12,205 4,679 -106,820 21,39 38,50 55,87 12,27 30,70 39,103 59,200 10,321 -7,509l-11 569c3,77 21,185 23,262 6,264 91,746 127,1020 24,177 38,341 60,519l75 789c2,93 17,187 22,273 15,298 52,853 31,1114 -8,95 8,144 -24,238 -16,47 -6,90 0,127 24,132 -6,163 92,192l108 34c38,11 74,18 113,17l155 12c210,39 213,14 332,27 41,4 74,18 122,20l962 44c57,1 74,12 141,11 203,-1 367,11 569,11 195,0 359,-8 558,-10 60,-1 69,-12 130,-12l960 -45c37,-4 84,-17 123,-20 84,-6 146,4 270,-14l114 -18c163,-18 81,15 263,-42 77,-25 117,-18 127,-91 22,-151 1,-623 1,-819l58 -1079c10,-76 13,-173 25,-259 6,-42 9,-99 13,-130l217 -1793c6,-45 4,-87 11,-132l8 -818c-37,-266 -69,-366 28,-602 18,-46 45,-51 56,-98 -118,-145 -130,-620 -109,-826 14,-139 41,-277 75,-406 50,-182 70,-199 160,-307 -68,-174 -41,-513 -7,-699 41,-226 105,-405 174,-601 -513,-2 -910,-36 -1335,-235 -310,-145 -675,-468 -772,-821l-20 16c-2,1 -4,3 -6,4l0 0c-6,6 -13,15 -24,25 -94,88 -318,224 -435,277 -234,107 -387,144 -674,146 -488,4 -727,-154 -1052,-392 -40,-29 -71,-59 -117,-82 -19,80 -85,211 -125,272 -61,96 -95,148 -171,223 -68,67 -117,122 -208,185 -459,313 -1009,395 -1605,356z" id="svg-part-0"/></clipPath><pattern id="pattern-svg-part-0-back" patternUnits="userSpaceOnUse" x="580" y="237" width="6544" height="9883" preserveAspectRatio="xMidYMid slice"><g transform="scale(1) rotate(0)" opacity="1"><svg xmlns="http://www.w3.org/2000/svg" xmlns:xlink="http://www.w3.org/1999/xlink" xml:space="preserve" width="6544" height="9883" version="1.1" shape-rendering="geometricPrecision" text-rendering="geometricPrecision" image-rendering="optimizeQuality" fill-rule="evenodd" clip-rule="evenodd" viewBox="0 0 4851 6728" preserveAspectRatio="xMidYMid slice">
 <g id="Layer_x0020_1">
  <metadata id="CorelCorpID_0Corel-Layer"/>
  <g id="_2274116326992">
   <rect fill="#00168E" x="6" y="9" width="4845" height="6719" id="svg-part-1"/>
   <path fill="#FF9800" fill-rule="nonzero" d="M0 0l101 0c-12,11 -23,22 -34,33 87,87 174,173 259,261 -48,49 -97,98 -146,146 -21,-20 -42,-41 -62,-62 28,-28 56,-56 84,-84 -67,-69 -135,-135 -202,-203l0 -91zm98 5509l3 0c-12,10 -23,22 -34,33l12 12c13,13 26,26 39,39l1 1 1 1c43,43 86,85 129,129 26,26 52,52 78,77l-3 0 2 2c-48,49 -97,97 -146,146 -21,-20 -42,-41 -62,-62 28,-29 56,-57 84,-85 -8,-8 -16,-15 -23,-23 -60,-60 -120,-119 -179,-179l0 -1 0 -90 0 -27c28,-30 58,-58 87,-88 22,21 43,41 64,62 -18,18 -35,35 -53,53zm178 0l1 0c-4,3 -7,6 -11,10 -28,28 -57,57 -85,86l-1 -1 0 0 -17 -17c-15,-15 -30,-29 -45,-44l0 -1 -1 0c9,-9 17,-17 26,-25 19,-20 39,-40 59,-60 -67,-67 -135,-134 -202,-202l0 -115c28,-31 59,-59 88,-89 21,21 42,42 62,63 -27,27 -55,55 -83,83 87,87 174,173 260,261 -17,17 -34,34 -51,51zm176 0l2 0c-42,40 -82,82 -123,123 20,20 40,41 61,61 7,7 15,14 23,21 -21,22 -42,43 -63,64l-1 0 0 1c-49,-49 -98,-97 -146,-146l0 -1 0 -1c86,-87 173,-173 260,-260 -28,-28 -56,-56 -84,-83 21,-22 42,-43 63,-63 49,48 97,97 146,146 -46,46 -92,92 -138,138zm176 0l2 0c-11,10 -23,21 -34,33l8 8c84,84 168,168 252,251l-3 0 3 2c-49,49 -98,98 -147,146 -20,-21 -41,-41 -62,-62 28,-28 56,-56 83,-84 -31,-32 -62,-63 -93,-95 -42,-42 -85,-85 -127,-128l-39 -38 0 0 -1 -1c49,-49 97,-98 146,-146 21,21 42,41 64,62 -18,17 -35,34 -52,52zm178 0l0 0c-3,3 -6,6 -9,9l-1 0c-7,7 -15,15 -22,22 -22,21 -43,43 -65,64l-11 -11c-12,-12 -24,-24 -35,-36l-1 0c-5,-5 -10,-10 -15,-15l0 0 0 -1c10,-9 20,-19 29,-28 19,-19 37,-37 55,-55 -85,-88 -174,-173 -260,-261 49,-49 98,-97 146,-146 21,21 42,42 63,63 -27,28 -57,54 -84,81 86,89 175,174 260,264 -17,17 -34,33 -50,50zm175 0l3 0c-42,40 -83,82 -124,123 14,14 28,28 42,42l0 0c13,13 26,25 38,38l2 2 0 0 1 1c-21,22 -42,43 -63,64 -49,-49 -98,-98 -147,-147 23,-23 46,-46 69,-69 64,-64 128,-128 192,-192 -28,-28 -55,-56 -83,-83 20,-22 41,-42 61,-64 49,49 98,98 147,147 -46,46 -92,92 -138,138zm176 0l1 0c-3,2 -6,5 -8,7 -9,8 -17,17 -25,25 87,87 173,174 261,260l-3 0 2 3c-49,49 -98,96 -147,144 -21,-20 -41,-41 -62,-61 28,-28 56,-56 84,-84 -87,-87 -175,-173 -260,-263l5 -5c47,-46 94,-93 140,-140 21,21 42,41 63,62 -17,18 -34,35 -51,52zm176 0l2 0c-33,31 -64,64 -97,96 -21,-20 -42,-41 -63,-62l2 -2 -1 -1c28,-27 57,-53 84,-81 -86,-89 -174,-176 -260,-264 49,-48 96,-98 147,-145 20,21 40,42 61,62 -27,29 -55,56 -83,84 85,89 173,175 260,263 -18,16 -35,33 -52,50zm70 107l-15 15c28,28 56,56 84,84l1 1c-21,21 -42,42 -64,63 -49,-49 -98,-98 -147,-147 39,-38 77,-78 116,-116 48,-48 97,-97 145,-145 -27,-28 -55,-56 -83,-83 19,-23 40,-44 62,-64 49,49 98,98 147,147 -82,82 -164,164 -246,245zm267 -89l0 1c-1,0 -2,0 -3,0 -4,4 -8,8 -12,12 0,1 0,2 0,3l10 11c2,0 3,0 5,0l0 1 0 3c11,11 22,23 34,34l2 3c43,43 87,85 129,129 26,26 52,52 79,77l-3 0 2 2c-49,49 -98,97 -146,146 -21,-20 -42,-41 -63,-62 28,-29 56,-57 85,-85 -8,-7 -16,-15 -24,-23 -32,-32 -64,-64 -95,-95l0 0c-47,-48 -95,-95 -142,-142 9,-10 19,-20 29,-29 10,-10 20,-20 30,-30l0 -1c28,-30 58,-58 87,-88 21,21 42,41 63,62 -17,18 -35,35 -52,53l2 0c-6,5 -12,11 -17,17l0 1zm-1159 267c-60,61 -121,121 -181,182 28,28 56,56 84,84 -21,21 -42,42 -62,63 -49,-49 -99,-98 -147,-147 58,-59 116,-117 174,-175l-1 0c5,-4 10,-8 14,-13l20 -19c17,-18 35,-36 53,-54 -28,-27 -56,-55 -84,-83l9 -8c17,-20 35,-39 54,-57 49,49 98,98 147,147 -27,27 -53,54 -80,80zm468 -219c47,47 93,93 140,140l0 0 0 0c-26,26 -51,53 -78,78 -60,61 -121,121 -182,182 28,29 56,57 84,84 -20,22 -41,42 -61,64 -51,-48 -99,-99 -148,-147 58,-59 116,-117 174,-175l0 0c2,-2 5,-5 8,-7 26,-26 52,-53 78,-79 -18,-17 -35,-35 -53,-52 -10,-11 -21,-21 -31,-31 20,-22 41,-43 63,-64l6 7zm461 57l0 0 -1 -1c21,-21 42,-42 63,-63l0 1 0 -1c28,29 56,57 85,85l0 0c2,2 4,5 7,7 9,10 19,19 29,29 8,9 17,17 25,25l0 1 1 1 -24 23c-13,13 -26,26 -38,40l0 -1c-66,66 -132,132 -199,198 28,28 56,55 84,83 -21,21 -42,42 -63,64 -50,-48 -98,-97 -147,-147 59,-58 117,-116 176,-175l-3 0c20,-19 41,-39 61,-59 9,-9 18,-18 27,-27 -22,-22 -45,-45 -67,-67l-16 -16zm-1379 83l0 1c-20,21 -41,41 -61,63l0 -2 0 -123 0 -1c20,21 41,41 61,61l0 1zm-61 114c9,-9 18,-19 27,-28l-3 0c22,-20 43,-42 64,-62 21,20 41,42 63,62l0 0 1 1c-28,28 -58,55 -86,83 87,88 175,174 261,262 -48,49 -98,97 -148,145 -20,-21 -40,-41 -60,-62 27,-27 55,-55 83,-83 -67,-68 -135,-134 -202,-203l0 -115zm470 57c28,-29 56,-57 84,-85l0 0c2,-2 4,-4 6,-6 19,-18 37,-37 56,-55l0 0 2 -1c21,21 41,42 63,62l-3 0 1 1c-28,28 -56,56 -83,84 87,87 174,174 261,262 -52,46 -98,98 -149,145 -21,-21 -42,-42 -62,-63 29,-28 59,-54 85,-84 -87,-86 -174,-173 -261,-260zm530 0c27,-29 56,-57 84,-85l-1 0c3,-2 5,-4 7,-6 19,-18 37,-37 55,-55l1 0 0 -1c22,21 42,42 64,62l-2 0 0 1c-27,28 -55,56 -83,84 87,86 173,173 259,260 -48,50 -97,98 -146,147 -21,-21 -42,-41 -62,-63 28,-28 56,-56 84,-84 -87,-86 -173,-173 -260,-260zm529 0c28,-29 56,-57 84,-85l-2 0 -1 0c21,-18 41,-38 60,-59l0 1 4 -4c22,20 42,42 64,62l0 0 0 1c-22,23 -45,44 -68,67l0 0 -1 0c-5,5 -10,10 -15,15 0,1 0,2 0,3l11 11c2,0 3,0 5,-1l0 6c81,81 163,162 244,244 -49,49 -98,97 -148,145 -20,-21 -40,-41 -61,-62 28,-27 56,-55 84,-83 -67,-68 -136,-134 -202,-203l0 -1c-20,-19 -39,-38 -58,-57zm-1148 91c21,-21 42,-42 62,-64 48,50 98,98 147,148 -87,86 -174,173 -261,259 29,27 58,55 85,83 -21,21 -42,43 -64,64 -48,-49 -98,-97 -145,-147 87,-87 174,-174 261,-262 -28,-27 -57,-53 -85,-81zm530 0c19,-22 40,-43 61,-64 49,49 98,98 147,147 -85,87 -173,172 -258,259 23,32 54,57 82,83 -20,22 -42,43 -63,65 -49,-49 -97,-98 -146,-146 86,-87 173,-174 260,-260 -27,-29 -55,-56 -83,-84zm528 -2c21,-20 42,-41 63,-62l85 85 0 -1c19,21 41,41 61,62l0 0 1 1c-87,87 -174,174 -261,261 28,27 56,55 84,83 -21,21 -42,41 -62,63 -50,-49 -99,-98 -148,-148 87,-87 176,-171 261,-259 -28,-28 -56,-56 -84,-85zm-1439 22c20,21 41,41 61,62 -20,21 -41,41 -61,62l0 -124zm0 175c28,-31 59,-59 88,-89 21,21 42,42 62,64 -28,27 -55,55 -83,82 85,88 172,175 259,261 -48,50 -97,98 -146,147 -21,-21 -42,-42 -62,-63 27,-28 55,-56 84,-83 -67,-69 -135,-136 -202,-204l0 -115zm471 57c49,-48 97,-97 146,-145 22,20 42,41 63,62 -28,28 -56,56 -84,84 85,88 173,173 260,261 -50,48 -97,98 -147,146 -21,-21 -41,-42 -62,-63 28,-28 57,-55 83,-84 -87,-86 -174,-172 -259,-261zm529 1c49,-48 97,-97 146,-146 20,21 41,42 63,61 -27,29 -56,57 -84,86 87,86 173,173 260,260 -49,49 -97,97 -146,146 -21,-21 -42,-42 -62,-63 28,-28 55,-55 83,-83 -86,-87 -175,-173 -260,-261zm528 -1c20,-18 39,-37 59,-56l0 -1c28,-31 58,-59 87,-89 22,21 42,42 63,64 -28,27 -56,55 -83,82l14 15c0,-1 1,-1 2,-1l0 3c80,82 161,163 243,244 -48,50 -98,98 -146,147 -21,-21 -42,-42 -63,-63 28,-28 56,-56 84,-83 -39,-40 -79,-80 -118,-120l0 1c-47,-49 -95,-95 -142,-143zm-1084 28c49,49 99,97 147,148 -87,86 -173,173 -260,259 21,22 42,43 63,64l-125 0c-22,-22 -43,-43 -64,-65 87,-86 175,-172 261,-259 -28,-28 -57,-56 -85,-85 21,-20 42,-41 63,-62zm467 62c21,-21 41,-41 62,-62 49,49 98,97 146,146 -86,87 -173,174 -260,260 21,22 43,43 65,65l-128 0c-21,-21 -42,-42 -63,-64 87,-87 173,-175 262,-260 -28,-28 -57,-56 -84,-85zm528 2c20,-21 42,-42 63,-63 28,28 56,57 85,85l0 -1c19,21 41,41 61,62 -21,21 -42,41 -61,62l0 -1c-67,67 -133,133 -200,199 22,21 45,42 66,64l-127 0c-21,-21 -42,-42 -64,-63 86,-88 174,-175 261,-262 -27,-28 -56,-54 -84,-82zm-1439 21c20,21 41,41 61,62 -20,21 -41,41 -61,62l0 -124zm0 175c28,-31 59,-59 88,-89 21,21 42,42 62,63 -27,28 -55,55 -83,83 51,52 103,103 154,154l-126 0c-32,-32 -64,-64 -95,-96l0 -115zm471 57c49,-48 98,-97 146,-146 21,21 42,42 63,63 -27,28 -57,54 -84,82 51,52 102,103 154,155l-125 0c-51,-51 -103,-102 -154,-154zm529 -1c49,-48 96,-99 147,-145 20,21 40,41 61,61 -27,29 -55,56 -83,84 50,52 101,104 152,155l-123 0c-52,-52 -103,-103 -154,-155zm529 0c26,-26 52,-52 78,-78 8,-8 16,-16 24,-24 13,-13 26,-26 39,-39l0 1 4 -5c21,21 42,42 63,63 -22,22 -45,45 -67,67l0 3c-2,0 -3,0 -4,1l-11 11c0,1 0,2 0,2l13 13c0,0 1,0 2,0l0 2c45,46 91,92 137,138l-125 0 -12 -12 0 1c-47,-48 -95,-95 -141,-144zm-1148 92c21,-22 42,-43 63,-63 42,42 84,84 126,126l-125 0c-21,-21 -42,-42 -64,-63zm530 0c20,-21 41,-42 61,-64 43,42 85,85 127,127l-125 0c-21,-21 -42,-42 -63,-63zm529 0c19,-22 40,-44 62,-64 42,42 85,85 127,127l-2 0 -40 0 -83 0c-21,-21 -42,-42 -64,-63zm-1440 22c13,14 27,27 40,41l-40 0 0 -41zm1863 -1178l0 0c-3,3 -7,6 -10,10 -29,28 -57,57 -86,86l0 -1 0 0 -18 -17c-15,-15 -30,-29 -45,-44l1 -1 -1 0c8,-9 17,-17 25,-25 20,-20 40,-40 60,-60 -40,-39 -80,-79 -119,-119l0 2c-47,-48 -95,-95 -141,-144 26,-26 52,-52 78,-78 8,-8 16,-16 24,-24 13,-13 26,-26 39,-39l0 1 4 -5c21,21 42,42 63,63 -22,22 -45,45 -67,67l0 3c-2,0 -3,0 -4,0l-11 12c0,1 0,1 0,2l13 13c0,0 1,0 2,0l0 2c81,82 163,163 244,245 -17,17 -34,34 -51,51zm175 0l3 0c-42,40 -82,82 -124,123 21,20 41,41 61,61 8,7 16,14 24,21 -21,22 -42,43 -64,64l0 0 -1 1c-49,-49 -97,-97 -146,-146l1 -1 -1 -1c86,-87 174,-173 260,-260 -28,-28 -55,-56 -83,-83 20,-22 41,-43 63,-63 48,48 97,97 146,146 -46,46 -93,92 -139,138zm176 0l3 0c-12,10 -23,21 -34,33l8 8c84,83 167,168 252,251l-3 0 2 2c-49,49 -97,98 -146,146 -21,-21 -42,-41 -62,-62 27,-28 55,-56 83,-84 -31,-32 -62,-63 -93,-95 -43,-43 -86,-85 -128,-128l-38 -38 0 0 -1 -1c49,-49 97,-98 146,-146 21,21 42,41 63,62 -17,17 -34,34 -52,52zm178 0l1 0c-4,3 -7,6 -10,9l0 0c-8,7 -15,15 -23,22 -21,21 -42,43 -64,64l-11 -11c-12,-12 -24,-24 -36,-36l0 0c-5,-5 -10,-10 -15,-15l0 0 0 -1c10,-9 19,-19 29,-28 18,-19 36,-37 55,-55 -86,-88 -174,-173 -260,-261 49,-49 97,-97 146,-146 21,21 42,42 63,63 -28,28 -57,54 -85,81 86,89 175,174 260,264 -16,17 -33,33 -50,50zm176 0l2 0c-42,40 -82,82 -123,123 13,14 27,28 41,42 13,12 26,25 39,38l2 2 0 0 1 1c-21,22 -42,43 -64,64 -49,-49 -98,-98 -147,-147 23,-23 46,-46 69,-69 64,-64 129,-128 193,-192 -28,-28 -56,-56 -84,-83 21,-22 42,-42 62,-64 49,49 98,98 147,147 -46,46 -92,92 -138,138zm176 0l0 0c-2,2 -5,5 -8,7 -8,8 -16,16 -25,25 87,87 174,174 261,260l-3 0 3 3c-49,49 -98,96 -148,144 -20,-20 -41,-41 -61,-61 28,-28 56,-56 83,-84 -87,-87 -175,-173 -260,-263l6 -5c47,-46 93,-93 140,-140 21,21 42,41 63,62 -17,18 -34,35 -51,52zm175 0l3 0c-33,31 -65,64 -97,96 -21,-20 -42,-41 -63,-62l1 -2 -1 -1c28,-27 57,-53 84,-81 -85,-89 -173,-176 -259,-264 49,-48 96,-98 146,-145 20,21 41,42 62,62 -28,29 -56,56 -84,84 86,89 174,175 261,263 -18,16 -36,33 -53,50zm71 107l-15 15c28,28 56,56 84,84l1 1c-22,21 -43,42 -64,63 -49,-49 -98,-98 -147,-147 38,-38 76,-78 115,-116 49,-48 98,-97 146,-145 -28,-28 -55,-56 -83,-83 19,-23 40,-44 61,-64 29,29 58,57 87,86l0 0c4,3 7,7 11,11l35 35c5,5 10,10 14,15 -4,5 -9,9 -14,14l-34 34c-4,4 -8,8 -12,13l0 -1c-62,62 -123,123 -185,185zm266 -89l0 1 0 0c-5,4 -9,9 -14,14l12 12 0 0 0 0c1,0 2,0 2,0l0 1 0 1c13,12 25,25 37,37l2 1 0 1c43,43 86,85 129,129 26,26 52,52 78,77l-3 0 2 2c-48,49 -97,97 -146,146 -21,-20 -42,-41 -62,-62 28,-29 56,-57 84,-85 -8,-8 -16,-16 -23,-23 -33,-33 -65,-65 -98,-97l0 0 0 2c-46,-48 -95,-95 -142,-142 10,-10 19,-20 29,-29 15,-14 29,-29 44,-43 16,-17 33,-33 49,-50 7,-7 14,-13 20,-20l0 0 6 -6c22,21 43,41 64,62 -18,18 -35,35 -53,53l3 0c-7,6 -13,12 -20,18zm-1158 267c-61,61 -121,121 -182,182 28,28 57,56 85,84 -21,21 -42,42 -63,63 -49,-49 -98,-98 -147,-147 58,-59 116,-117 174,-175l0 0c5,-4 9,-9 14,-13 6,-6 13,-13 19,-19 18,-18 36,-36 54,-54 -29,-27 -56,-55 -84,-83l8 -9c18,-19 36,-38 54,-56 49,49 98,98 147,147 -26,27 -52,54 -79,80zm468 -219c46,47 93,94 140,140l0 0 0 0c-26,26 -51,53 -78,78 -60,61 -122,121 -182,182 27,29 55,57 84,84 -20,22 -41,42 -61,64 -51,-48 -99,-99 -149,-147 58,-59 117,-117 175,-175l-1 0c3,-2 5,-5 8,-7 26,-26 53,-53 79,-79 -18,-17 -36,-35 -53,-52 -11,-11 -21,-21 -32,-31 21,-22 42,-43 63,-64l7 7zm461 57l0 0 -1 -1c21,-21 41,-42 62,-63l0 1 1 -1c28,29 57,58 86,87l0 -1 0 -1c20,21 41,41 61,61l0 1 0 1c-20,21 -41,41 -61,63l0 -2 0 -1c-67,66 -133,133 -200,200 28,28 56,55 84,83 -22,21 -43,42 -63,64 -50,-48 -99,-97 -147,-147 58,-58 117,-116 175,-175l-3 0c21,-19 42,-39 62,-59 9,-9 18,-18 27,-27 -23,-23 -46,-45 -68,-68l-15 -15zm-970 254c28,-29 56,-57 84,-85l0 0c2,-2 4,-4 6,-6 19,-18 37,-37 56,-55l0 0 2 -1c20,21 40,42 62,62l-2 0 0 1c-27,28 -56,56 -83,84 87,87 175,174 261,262 -52,46 -98,98 -149,145 -20,-21 -41,-42 -61,-63 28,-28 58,-54 85,-84 -88,-86 -174,-173 -261,-260zm530 0c27,-29 55,-57 83,-85l0 0c2,-2 4,-4 7,-6 18,-18 37,-37 55,-55l0 0 1 -1c21,21 42,42 64,62l-3 0 1 1c-28,28 -56,56 -84,84 87,86 174,173 259,260 -47,50 -97,98 -145,147 -22,-21 -43,-41 -63,-63 29,-28 56,-56 85,-84 -87,-86 -174,-173 -260,-260zm529 0c28,-29 56,-57 84,-85l-1 0 -2 0c21,-18 40,-38 59,-59l0 2 0 1c2,-2 5,-4 7,-6 21,20 41,42 63,62l0 0 1 1c-28,28 -58,55 -86,83l12 13c1,0 2,0 3,-1l0 4c82,82 165,164 246,246 -48,49 -98,97 -148,145 -20,-21 -40,-41 -60,-62 27,-27 55,-55 83,-83 -53,-53 -106,-106 -159,-159 -34,-34 -68,-68 -102,-102zm-1148 91c21,-21 42,-42 62,-64 48,50 98,98 146,148 -87,86 -173,173 -260,259 29,27 57,55 85,83 -22,21 -43,43 -64,64 -49,-49 -98,-97 -146,-147 87,-87 175,-174 261,-262 -28,-27 -57,-53 -84,-81zm529 0c20,-22 41,-43 62,-64 49,49 97,98 147,147 -85,87 -173,172 -258,259 22,32 54,57 82,83 -21,22 -42,43 -63,65 -49,-49 -97,-98 -147,-146 86,-87 174,-174 260,-260 -27,-29 -55,-56 -83,-84zm529 -2c21,-20 41,-41 62,-62 29,29 58,58 87,87l0 -3c20,21 41,41 61,62l-1 1 0 0 -51 52c-3,3 -6,6 -9,9l0 0c-67,66 -133,133 -200,200 28,27 56,55 84,83 -21,21 -42,41 -62,63 -50,-49 -99,-98 -148,-148 87,-87 176,-171 261,-259 -28,-28 -57,-56 -84,-85zm-968 254c48,-48 97,-97 145,-145 22,20 43,41 63,62 -28,28 -55,56 -84,84 86,88 174,173 260,261 -49,48 -97,98 -147,146 -20,-21 -41,-42 -61,-63 28,-28 56,-55 83,-84 -87,-86 -174,-172 -259,-261zm529 1c48,-48 97,-97 145,-146 21,21 42,42 64,61 -27,29 -56,57 -85,86 87,86 174,173 261,260 -49,49 -98,97 -146,146 -21,-21 -42,-42 -63,-63 28,-28 56,-55 83,-83 -86,-87 -174,-173 -259,-261zm527 -1c24,-22 47,-44 70,-67 15,-16 31,-31 47,-47 8,-8 17,-17 25,-26l0 1 7 -7c21,21 42,42 62,64 -28,27 -55,55 -83,82l14 14 0 0 0 1c81,83 163,165 245,246 -48,50 -97,98 -146,147 -21,-21 -42,-42 -62,-63 27,-28 55,-56 84,-83 -40,-41 -80,-81 -121,-122l0 3c-46,-49 -95,-95 -142,-143zm-1084 28c49,49 99,97 147,148 -87,86 -173,173 -260,259 21,22 43,43 64,64l-126 0c-21,-22 -43,-43 -64,-65 87,-86 175,-172 261,-259 -28,-28 -56,-56 -84,-85 21,-20 41,-41 62,-62zm467 62c21,-21 42,-41 63,-62 49,49 97,97 146,146 -87,87 -173,174 -260,260 21,22 43,43 64,65l-127 0c-21,-21 -43,-42 -64,-64 88,-87 174,-175 263,-260 -28,-28 -57,-56 -85,-85zm529 2c20,-21 41,-42 62,-63 29,29 58,58 87,87l0 -3c20,21 41,41 61,62 -20,21 -41,41 -61,62l0 -3c-67,67 -134,135 -201,201 22,21 44,42 66,64l-128 0c-21,-21 -42,-42 -63,-63 86,-88 174,-175 261,-262 -27,-28 -57,-54 -84,-82zm-968 253c49,-48 97,-97 146,-146 21,21 42,42 63,63 -28,28 -57,54 -85,82 51,52 103,103 155,155l-125 0c-52,-51 -103,-102 -154,-154zm529 -1c49,-48 96,-99 146,-145 20,21 41,41 62,61 -28,29 -56,56 -84,84 51,52 102,104 153,155l-124 0c-51,-52 -102,-103 -153,-155zm529 0c46,-47 94,-93 140,-141l0 3c2,-2 5,-4 7,-7 21,21 42,42 62,63 -23,23 -46,46 -69,69l0 1 -1 0 -13 13 14 14 0 0 0 0c47,47 93,93 140,140l-126 0 -14 -14 0 3c-46,-48 -94,-95 -140,-144zm-1148 92c20,-22 41,-43 63,-63 42,42 84,84 126,126l-126 0c-21,-21 -42,-42 -63,-63zm529 0c21,-21 42,-42 62,-64 42,42 85,85 127,127l-125 0c-21,-21 -42,-42 -64,-63zm530 0c19,-22 40,-44 61,-64 29,29 58,58 87,87l0 -1c4,4 7,7 11,11l29 30 0 0 -40 0 -85 0c-21,-21 -42,-42 -63,-63zm424 -1156l1 0c-4,3 -7,6 -11,10 -28,28 -57,57 -85,86l-1 -1 0 0 -17 -17c-15,-15 -30,-29 -45,-44l0 -1 -1 0c9,-9 17,-17 26,-25 19,-20 39,-40 59,-60 -40,-40 -80,-80 -121,-120l0 3c-46,-48 -94,-95 -140,-144 46,-47 94,-93 140,-141l0 3c2,-2 5,-5 7,-7 21,21 42,42 62,63 -23,23 -46,46 -69,69l0 1 -1 0 -13 13 14 14 0 0 0 0c82,82 165,164 246,247 -17,17 -34,34 -51,51zm176 0l3 0c-43,40 -83,82 -124,123 20,20 40,41 61,61 7,7 15,14 23,21 -21,22 -42,43 -63,64l-1 0 0 1c-49,-49 -98,-97 -146,-146l0 -1 0 -1c86,-87 173,-173 260,-260 -28,-28 -56,-56 -84,-83 21,-22 42,-43 63,-63 49,48 97,97 146,146 -46,46 -92,92 -138,138zm176 0l2 0c-11,10 -23,21 -34,33l8 7c84,84 168,169 252,252l-3 0 3 2c-49,49 -98,98 -147,146 -20,-21 -41,-41 -62,-62 28,-28 56,-56 83,-84 -30,-32 -61,-63 -92,-94l-1 -1c-43,-43 -85,-85 -128,-128l-38 -38 0 0 -1 -1c49,-49 98,-98 146,-146 21,21 42,41 64,62 -18,17 -35,34 -52,52zm178 0l0 0c-3,3 -6,6 -9,9 -8,7 -16,14 -23,22 -22,21 -43,43 -65,64l-11 -11c-12,-12 -24,-24 -35,-36l-1 0c-5,-5 -10,-10 -15,-15l0 0 0 0 0 -1c10,-9 19,-19 29,-28 19,-19 37,-37 55,-55 -85,-88 -174,-173 -260,-261 49,-49 98,-97 146,-146 21,21 42,42 63,63 -27,28 -57,54 -84,81 86,89 175,174 260,264 -17,17 -34,33 -50,50zm175 0l3 0c-42,40 -83,82 -124,123 14,14 28,28 42,42 13,12 25,25 38,38l2 2 0 0 1 1c-21,22 -42,43 -63,64 -49,-49 -98,-98 -147,-147 23,-23 46,-46 69,-69 64,-64 128,-128 192,-192 -28,-28 -55,-56 -83,-83 20,-22 41,-42 61,-64 49,49 98,98 147,147 -46,46 -92,92 -138,138zm176 0l1 0c-3,2 -6,5 -8,7 -9,8 -17,17 -25,25 87,87 173,174 261,260l-3 0 2 3c-48,49 -98,96 -147,144 -21,-20 -41,-41 -62,-61 28,-28 56,-56 84,-84 -87,-87 -175,-173 -260,-263l5 -5c47,-46 94,-93 140,-140 21,21 42,41 63,62 -17,18 -34,35 -51,52zm176 0l2 0c-33,31 -64,64 -97,96 -21,-20 -42,-41 -63,-62l2 -2 -1 -1c28,-27 57,-53 84,-81 -86,-89 -174,-176 -260,-264 49,-48 96,-98 147,-145 20,21 40,42 61,62 -27,29 -55,56 -83,84 85,89 173,175 260,263 -18,16 -35,33 -52,50zm70 107l-15 15c28,28 56,56 84,84l1 1c-21,21 -42,42 -64,63 -49,-49 -98,-98 -147,-147 39,-38 77,-78 116,-116 48,-48 97,-97 145,-145 -27,-28 -55,-56 -83,-83 19,-23 40,-44 62,-64 49,49 98,98 147,147 -82,82 -164,164 -246,245zm267 -89l0 1c-6,0 -10,2 -12,5l0 1 -1 0c0,1 -1,2 -1,3 -2,5 -1,9 2,13 3,2 7,4 12,4l0 1 0 127 0 2c-47,-48 -95,-95 -142,-142 9,-10 19,-20 29,-29 37,-38 76,-75 113,-113l0 109 0 18zm-1159 267c-60,61 -121,121 -181,182 28,28 56,56 84,84 -21,21 -42,42 -62,63 -49,-49 -99,-98 -147,-147 58,-59 116,-117 174,-175l-1 0c5,-4 10,-9 14,-13l20 -19c18,-18 35,-36 53,-54 -28,-27 -56,-55 -84,-83l9 -9c17,-19 35,-38 54,-56 49,49 98,98 147,147 -27,27 -53,54 -80,80zm468 -219c47,47 93,94 140,140l0 0 0 0c-26,26 -51,53 -78,78 -60,61 -121,121 -182,182 28,29 56,57 84,84 -20,22 -41,42 -61,64 -51,-48 -99,-99 -148,-147 58,-59 116,-117 174,-175l0 0c2,-2 5,-5 8,-7 26,-26 52,-53 78,-79 -18,-17 -35,-35 -53,-53 -10,-10 -21,-20 -31,-30 20,-22 41,-43 63,-64l6 7zm461 57l0 0 -1 -1c21,-21 42,-42 63,-63l0 1 0 -1c49,50 98,98 147,148 -87,86 -174,173 -261,260 28,28 56,55 84,83 -21,21 -42,42 -63,64 -50,-48 -98,-97 -147,-147 59,-58 117,-116 176,-175l-3 0c20,-19 41,-39 61,-59l27 -27c-23,-22 -45,-45 -68,-68l-15 -15zm-970 254c28,-29 56,-57 84,-85l0 0c2,-2 4,-4 6,-6 19,-18 38,-37 56,-55l0 0 2 -1c21,21 41,42 63,62l-3 0 1 1c-28,28 -56,56 -83,84 87,87 175,174 261,262 -52,46 -98,98 -149,145 -21,-21 -42,-42 -62,-63 29,-28 59,-54 85,-84 -87,-86 -174,-173 -261,-260zm530 0c27,-29 56,-57 84,-85l-1 0c3,-2 5,-4 7,-6 19,-18 37,-37 55,-55l1 0 0 -1c22,21 42,42 64,62l-2 0 0 1c-27,28 -55,56 -83,84 87,86 173,173 259,260 -48,50 -97,98 -146,147 -21,-21 -42,-41 -62,-63 28,-28 56,-56 84,-84 -87,-86 -173,-173 -260,-260zm529 0c28,-29 56,-57 84,-85l-3 0c21,-18 41,-38 60,-59l0 2 0 57 0 68c-21,0 -22,38 0,28l0 121 0 8c-48,-47 -94,-94 -141,-140zm-1148 91c21,-21 42,-42 62,-64 48,50 99,98 147,148 -87,86 -174,173 -261,259 29,27 58,55 85,83 -21,21 -42,43 -64,64 -48,-49 -98,-97 -145,-147 87,-87 174,-174 261,-262 -28,-27 -57,-53 -85,-81zm530 0c19,-22 40,-43 61,-64 49,49 98,98 147,147 -85,87 -173,172 -258,259 23,32 54,57 82,83 -20,22 -42,43 -63,65 -49,-49 -97,-98 -146,-146 86,-87 173,-174 260,-260 -27,-29 -55,-56 -83,-84zm528 -2c21,-20 42,-41 63,-62 49,49 98,98 147,147 -87,87 -174,174 -261,261 28,27 56,55 84,83 -21,21 -42,41 -62,63 -50,-49 -99,-98 -148,-148 87,-87 176,-171 261,-259 -28,-28 -56,-56 -84,-85zm-968 254c49,-48 97,-97 146,-145 22,20 42,41 63,62 -28,28 -56,56 -84,84 85,88 173,173 260,261 -50,48 -97,98 -147,146 -21,-21 -41,-42 -62,-63 28,-28 57,-55 83,-84 -87,-86 -174,-172 -259,-261zm529 1c49,-48 97,-97 146,-146 20,21 41,42 63,61 -27,29 -56,57 -84,86 87,86 173,173 260,260 -48,49 -97,97 -146,146 -21,-21 -42,-42 -62,-63 28,-28 55,-55 83,-83 -86,-87 -175,-173 -260,-261zm528 -1c49,-45 95,-92 142,-140l0 122c-22,2 -26,40 0,32l0 129c-47,-49 -95,-95 -142,-143zm-1084 28c49,49 99,97 147,148 -87,86 -173,173 -260,259 21,22 42,43 63,64l-125 0c-22,-22 -43,-43 -64,-65 87,-86 175,-172 261,-259 -28,-28 -57,-56 -85,-85 21,-20 42,-41 63,-62zm467 62c21,-21 41,-41 62,-62 49,49 98,97 146,146 -86,87 -173,174 -260,260 21,22 43,43 65,65l-128 0c-21,-21 -42,-42 -63,-64 87,-87 173,-175 262,-260 -28,-28 -57,-56 -84,-85zm528 2c20,-21 42,-42 63,-63 48,49 97,97 146,146 -87,87 -174,174 -261,260 22,21 45,42 66,64l-127 0c-21,-21 -42,-42 -64,-63 86,-88 174,-175 261,-262 -27,-28 -56,-54 -84,-82zm-968 253c49,-48 98,-97 146,-146 21,21 42,42 63,63 -27,28 -57,54 -84,82 51,52 103,103 154,155l-125 0c-51,-51 -103,-102 -154,-154zm529 -1c49,-48 96,-99 147,-145 20,21 40,41 61,61 -27,29 -55,56 -83,84 50,52 101,104 152,155l-123 0c-52,-52 -103,-103 -154,-155zm529 0c47,-47 95,-93 141,-141l0 129c-20,1 -20,26 0,27l0 129c-47,-48 -95,-95 -141,-144zm-1148 92c21,-22 42,-43 63,-63 42,42 84,84 126,126l-125 0c-21,-21 -42,-42 -64,-63zm530 0c20,-21 41,-42 61,-64 43,42 85,85 127,127l-125 0c-21,-21 -42,-42 -63,-63zm529 0c19,-22 40,-44 62,-64 42,42 85,85 127,127l-125 0c-21,-21 -42,-42 -64,-63zm-4517 -2533l3 0c-12,10 -23,21 -34,32l11 12 1 1c13,13 26,26 39,39l1 1 1 0c43,43 86,86 129,130 26,26 52,51 78,77l-3 0 2 2c-48,49 -97,97 -146,146 -21,-21 -42,-42 -62,-63 28,-28 56,-56 84,-84 -8,-8 -16,-16 -24,-24 -59,-59 -119,-118 -178,-179l0 0 0 -90 0 -27c28,-30 58,-58 87,-88 22,20 43,41 64,62 -18,18 -35,35 -53,53zm178 0l1 0c-4,3 -7,6 -11,9 -28,29 -57,58 -85,86l-1 0 0 0 -17 -17c-15,-15 -30,-30 -45,-44l0 -1 -1 -1c9,-8 17,-16 26,-24 19,-20 39,-40 59,-60 -67,-68 -135,-134 -202,-203l0 -115c28,-30 59,-58 88,-88 21,21 42,42 62,63 -27,27 -55,55 -83,83 87,87 174,173 260,260 -17,18 -34,35 -51,52zm176 0l2 0c-42,40 -82,82 -123,123 20,20 40,41 61,61 7,7 15,14 23,21 -21,22 -42,43 -63,64l-1 0 0 1c-49,-49 -98,-97 -146,-146l0 -1 0 -1c86,-87 173,-174 260,-261 -28,-27 -56,-55 -84,-82 21,-22 42,-43 63,-64 49,49 97,98 146,146 -46,47 -92,93 -138,139zm176 0l2 0c-11,10 -23,21 -34,32l8 8c84,84 168,169 252,252l-3 0 3 2c-49,49 -98,98 -147,146 -20,-21 -41,-42 -62,-63 28,-27 56,-55 83,-83 -31,-32 -62,-63 -93,-95 -42,-42 -85,-85 -127,-128l-39 -39 0 0 -1 -1c49,-48 97,-97 146,-145 21,21 42,41 64,62 -18,17 -35,34 -52,52zm178 0l0 0c-3,3 -6,5 -9,8l-1 1c-7,7 -15,14 -22,22 -22,21 -43,43 -65,64l-10 -11c-13,-12 -25,-24 -37,-36 -5,-5 -10,-10 -15,-15 10,-10 19,-20 29,-30 19,-18 37,-36 55,-54 -85,-88 -174,-174 -260,-262 49,-48 98,-97 146,-145 21,21 42,42 63,63 -27,27 -57,53 -84,81 86,89 175,174 260,263 -17,17 -34,34 -50,51zm175 0l3 0c-42,40 -83,82 -124,123 14,14 28,28 42,41l0 1c13,12 26,25 38,38l2 2 0 0 1 1c-21,21 -42,43 -63,64 -49,-49 -98,-98 -147,-147 23,-23 46,-47 69,-69 64,-64 128,-128 192,-193 -28,-27 -55,-55 -83,-83 20,-21 41,-42 61,-63 49,48 98,97 147,146 -46,47 -92,93 -138,139zm176 0l1 0c-3,2 -6,4 -8,7 -9,8 -17,16 -25,25 87,86 173,174 261,260l-3 0 2 3c-49,48 -98,96 -147,144 -21,-21 -41,-41 -62,-62 28,-27 56,-55 84,-83 -87,-87 -175,-174 -260,-263l5 -5c47,-47 94,-93 140,-140 21,20 42,41 63,62 -17,17 -34,35 -51,52zm176 0l2 0c-33,31 -64,64 -97,96 -21,-21 -42,-41 -63,-62l2 -2 -1 -1c28,-27 57,-53 84,-82 -86,-88 -174,-175 -260,-263 49,-48 96,-98 147,-145 20,21 40,42 61,62 -27,28 -55,56 -83,84 85,89 173,175 260,262 -18,17 -35,34 -52,51zm71 106l-16 16c28,28 56,55 84,83l1 1c-21,22 -42,43 -64,64 -49,-49 -98,-98 -147,-147 39,-39 77,-78 116,-116 48,-48 97,-97 145,-146 -27,-27 -55,-55 -83,-82 19,-23 40,-44 62,-64 49,48 98,97 147,146 -82,82 -164,164 -245,245zm266 -88l0 1c-1,0 -2,0 -3,0 -4,4 -8,8 -12,12 0,1 0,2 0,3l10 10c2,1 3,1 5,1l0 1 0 3c12,12 24,24 36,36 43,43 86,86 129,129 26,26 52,52 79,78l-3 0 2 2c-49,49 -98,97 -146,146 -21,-21 -42,-42 -63,-63 28,-28 56,-56 85,-84 -8,-8 -16,-16 -24,-24 -32,-31 -64,-63 -95,-95l0 1c-47,-48 -95,-95 -142,-143 9,-9 19,-19 29,-28 10,-10 20,-20 30,-30l0 -1c28,-30 58,-58 87,-88 21,20 42,41 63,62 -17,18 -35,35 -52,53l2 0c-6,5 -12,11 -17,16l0 2zm-1159 267c-60,60 -121,121 -181,182 28,28 56,56 84,84 -21,21 -42,42 -62,63 -49,-50 -99,-98 -147,-148 58,-58 116,-116 174,-174l-1 0c5,-4 9,-9 14,-13 7,-6 13,-13 20,-20 18,-17 35,-35 53,-53 -28,-27 -56,-55 -84,-83l9 -9c17,-19 35,-38 54,-56 49,49 98,98 147,147 -27,27 -53,54 -80,80zm469 -219c46,47 92,93 139,139l0 1 0 0c-26,26 -51,53 -78,78 -60,61 -121,121 -182,182 28,29 56,57 84,84 -20,22 -41,42 -61,63 -51,-47 -99,-98 -148,-146 58,-59 116,-117 174,-175l0 0c2,-2 5,-5 7,-7 27,-27 53,-53 79,-79 -18,-18 -35,-35 -53,-53 -10,-10 -21,-20 -31,-30 20,-22 41,-43 63,-64l7 7zm460 57l0 -1 -1 -1c21,-20 42,-41 63,-62l0 0 0 0c28,29 56,57 85,85l0 0c2,2 4,4 6,7 10,10 20,19 30,29 8,8 17,17 25,25l0 0 1 1 -23 23c-13,14 -27,27 -39,40l0 -1c-66,66 -132,133 -199,199 28,27 56,55 84,83 -21,21 -42,42 -63,63 -50,-47 -98,-97 -147,-146 59,-58 117,-116 176,-175l-3 0c20,-19 41,-39 61,-59 9,-9 18,-18 27,-27 -22,-23 -45,-45 -67,-68l-16 -15zm-1379 83l0 1c-20,21 -41,41 -61,62l0 -1 0 -123 0 -1c20,21 41,41 61,61l0 1zm-61 114c9,-9 18,-19 27,-28l-3 0c22,-20 43,-42 64,-63 21,21 41,43 63,63l0 0 1 1c-28,28 -58,55 -86,83 87,88 175,174 261,262 -48,49 -98,97 -148,145 -20,-21 -40,-41 -60,-62 27,-28 55,-55 83,-83 -67,-68 -135,-135 -202,-203l0 -115zm470 57c28,-29 56,-57 84,-85l0 0c2,-2 4,-4 6,-6 19,-18 37,-37 56,-55l0 0 2 -1c21,21 41,42 63,62l-3 0 1 1c-28,28 -56,55 -83,84 87,87 174,174 261,262 -52,45 -98,98 -149,144 -21,-20 -42,-41 -62,-62 29,-28 59,-54 85,-84 -87,-86 -174,-174 -261,-260zm530 0c27,-29 56,-57 84,-85l-1 0c3,-2 5,-4 7,-6 19,-19 37,-37 55,-55l1 0 0 -1c22,20 42,42 64,62l-2 0 0 1c-27,28 -55,55 -83,83 87,87 173,174 259,261 -48,50 -97,98 -146,147 -21,-21 -42,-42 -62,-63 28,-28 56,-57 84,-84 -87,-87 -173,-174 -260,-260zm529 -1c28,-28 56,-56 84,-84l-2 0 -1 0c21,-19 41,-38 60,-59l0 1 4 -5c22,21 42,43 64,63l0 0 0 1c-22,22 -45,44 -68,66l0 1 -1 0c-5,5 -10,10 -15,15 0,1 0,1 0,2l11 12c2,0 3,0 5,-1l0 5c81,82 163,163 244,245 -49,49 -98,97 -148,145 -20,-21 -40,-41 -61,-62 28,-28 56,-55 84,-83 -67,-68 -136,-135 -202,-203l0 -1c-20,-19 -39,-38 -58,-58zm-1148 92c21,-21 42,-42 62,-64 48,50 98,98 147,147 -87,87 -174,174 -261,260 29,27 58,54 85,83 -21,21 -42,42 -64,63 -48,-48 -98,-96 -145,-146 87,-87 174,-174 261,-262 -28,-27 -57,-53 -85,-81zm530 0c19,-22 40,-44 61,-64 49,49 98,98 147,147 -85,87 -173,171 -258,259 23,31 54,56 82,83 -20,22 -42,43 -63,64 -49,-48 -97,-97 -146,-145 86,-88 173,-174 260,-261 -27,-28 -55,-55 -83,-83zm528 -2c21,-21 42,-41 63,-62l85 85 0 -1c19,21 41,41 61,62l0 0 1 1c-87,87 -174,174 -261,260 28,28 56,56 84,84 -21,21 -42,41 -62,62 -50,-48 -99,-98 -148,-147 87,-87 176,-171 261,-259 -28,-28 -56,-56 -84,-85zm-1439 22c20,21 41,41 61,62 -20,21 -41,41 -61,62l0 -124zm0 175c28,-31 59,-59 88,-89 21,21 42,42 62,63 -28,28 -55,55 -83,83 85,88 172,175 259,261 -48,50 -97,98 -146,147 -21,-21 -42,-42 -62,-63 27,-28 55,-56 84,-83 -67,-69 -135,-136 -202,-204l0 -115zm471 57c49,-48 97,-97 146,-145 22,20 42,41 63,62 -28,28 -56,56 -84,84 85,88 173,173 260,261 -50,48 -97,98 -147,146 -21,-21 -41,-42 -62,-63 28,-28 57,-56 83,-84 -87,-86 -174,-173 -259,-261zm529 1c49,-49 97,-97 146,-146 20,21 41,42 63,61 -27,29 -56,57 -84,85 87,87 173,174 260,261 -49,48 -97,97 -146,146 -21,-21 -42,-42 -62,-63 28,-28 55,-56 83,-83 -86,-88 -175,-173 -260,-261zm528 -1c20,-18 39,-37 59,-56l0 -1c28,-31 58,-59 87,-89 22,21 42,42 63,63 -28,28 -56,55 -83,83l14 14c0,0 1,0 2,0l0 2c80,83 161,164 243,245 -48,50 -98,98 -146,147 -21,-21 -42,-42 -63,-63 28,-28 56,-56 84,-83 -39,-40 -79,-80 -118,-120l0 1c-47,-49 -95,-95 -142,-143zm-1084 28c49,49 99,97 147,148 -87,86 -173,173 -260,259 27,28 55,56 83,84 -21,21 -42,42 -62,62 -49,-49 -99,-97 -147,-147 87,-86 175,-172 261,-259 -28,-28 -57,-57 -85,-85 21,-21 42,-41 63,-62zm467 62c21,-21 41,-42 62,-62 49,48 98,97 146,146 -86,87 -173,173 -260,260 28,28 56,56 85,85 -22,21 -43,42 -65,63 -48,-49 -98,-98 -146,-147 87,-87 173,-175 262,-260 -28,-29 -57,-56 -84,-85zm528 2c20,-21 42,-42 63,-63 28,28 56,56 85,85l0 -2c19,22 41,42 61,63 -21,21 -42,41 -61,62l0 -1c-67,66 -133,133 -200,199 29,28 58,55 86,84 -21,21 -42,42 -64,63 -49,-49 -97,-98 -147,-146 86,-88 174,-175 261,-262 -27,-28 -56,-54 -84,-82zm-1439 20c20,22 41,42 61,63 -20,21 -41,41 -61,62l0 -125zm0 346c19,21 40,40 60,61 -20,20 -41,40 -60,61l0 -122zm1863 -1178l0 0c-3,3 -7,6 -10,10 -29,28 -57,57 -86,85l0 0 0 0 -18 -17c-15,-15 -30,-30 -45,-44l1 -1 -1 -1c8,-8 17,-16 25,-24 20,-20 40,-40 60,-60 -40,-40 -80,-79 -119,-119l0 1c-47,-48 -95,-94 -141,-143 26,-26 52,-52 78,-78 8,-8 16,-16 25,-25 12,-12 25,-25 38,-38l0 1 4 -5c21,21 42,42 63,63 -22,22 -45,44 -67,67l0 3c-2,0 -3,0 -4,0l-11 11c0,1 0,2 0,3l13 13c0,0 1,0 2,0l0 2c81,81 163,162 244,244 -17,18 -34,35 -51,52zm175 0l3 0c-42,40 -82,82 -124,123 21,20 41,40 61,61 8,7 16,14 24,21 -21,22 -42,43 -64,64l0 0 -1 1c-49,-49 -97,-97 -146,-146l1 -1 -1 -1c86,-87 174,-174 260,-261 -28,-27 -55,-55 -83,-82 20,-22 41,-43 63,-64 48,49 97,98 146,146 -46,47 -93,93 -139,139zm176 0l3 0c-12,10 -23,21 -34,32l8 8c84,84 167,169 252,252l-3 0 2 2c-49,49 -97,98 -146,146 -21,-21 -42,-42 -62,-63 27,-27 55,-55 83,-83 -31,-32 -62,-63 -93,-95 -43,-43 -85,-85 -128,-128l-38 -39 0 0 -1 -1c49,-48 97,-97 146,-145 21,21 42,41 63,62 -17,17 -35,34 -52,52zm178 0l1 0c-4,3 -7,5 -10,8l0 1c-8,7 -15,14 -23,22 -21,21 -42,43 -64,64l-11 -11c-12,-12 -24,-24 -36,-36l0 0 -15 -15c9,-10 19,-20 29,-30 18,-18 36,-36 55,-54 -86,-88 -174,-174 -260,-262 49,-48 97,-97 146,-145 21,21 42,42 63,63 -28,27 -57,53 -85,81 86,89 175,174 260,263 -16,17 -33,34 -50,51zm176 0l2 0c-42,40 -82,82 -123,123 13,14 27,28 41,41 13,13 26,26 39,39l2 2 0 0 1 1c-21,21 -42,43 -64,64 -49,-49 -98,-98 -147,-147 23,-23 46,-47 69,-69 64,-64 129,-128 193,-193 -28,-27 -56,-55 -84,-83 21,-21 42,-42 62,-63 49,48 98,97 147,146 -46,47 -92,93 -138,139zm176 0l0 0c-2,2 -5,4 -8,7 -8,8 -16,16 -25,25 87,86 174,174 261,260l-3 0 3 3c-49,48 -98,96 -148,144 -20,-21 -41,-41 -61,-62 28,-27 56,-55 83,-83 -87,-87 -175,-174 -260,-263l6 -5c47,-47 93,-93 140,-140 21,20 42,41 63,62 -17,17 -34,35 -51,52zm175 0l3 0c-33,31 -65,64 -97,96 -21,-21 -42,-41 -63,-62l1 -2 -1 -1c28,-27 57,-53 84,-82 -85,-88 -173,-175 -259,-263 49,-48 96,-98 146,-145 20,21 41,42 62,62 -28,28 -56,56 -84,84 86,89 174,175 261,262 -18,17 -36,34 -53,51zm71 106l-15 16c28,28 56,55 84,83l0 0 1 1c-22,22 -43,43 -64,64 -49,-49 -98,-98 -147,-147 38,-39 76,-78 115,-116 49,-48 98,-97 146,-146 -28,-27 -55,-55 -83,-82 19,-23 40,-44 61,-64 29,28 58,57 87,86l0 -1c4,4 7,8 11,12l35 35c5,5 10,10 14,14 -4,5 -9,10 -14,15l-34 34c-4,4 -8,8 -12,13l0 -1c-61,61 -123,123 -185,184zm266 -88l0 1 0 0c-5,4 -9,9 -14,13l12 13 0 0c1,0 2,0 2,0l0 1 0 1c13,13 26,25 39,38l0 0c43,43 86,86 128,129 26,26 53,52 79,78l-3 0 2 2c-48,49 -97,97 -146,146 -21,-21 -42,-42 -62,-63 28,-28 56,-56 84,-84 -8,-8 -16,-16 -24,-24 -32,-32 -64,-64 -97,-96l0 0 0 2c-46,-48 -95,-95 -142,-143 10,-9 19,-19 29,-28 15,-15 29,-29 44,-43 16,-17 33,-34 49,-50 7,-7 14,-14 20,-21l0 1 6 -6c22,20 43,41 64,62 -18,18 -35,35 -53,53l3 0c-7,6 -13,12 -20,18zm-1158 267c-61,60 -121,121 -182,182 28,28 57,56 85,84 -21,21 -42,42 -63,63 -49,-50 -98,-98 -147,-148 58,-58 116,-116 174,-174l0 0c5,-4 9,-9 14,-13 6,-7 13,-13 20,-20 17,-17 35,-35 53,-53 -29,-27 -56,-55 -84,-83l8 -9c18,-19 36,-38 54,-56 49,49 98,98 147,147 -26,27 -52,54 -79,80zm468 -219c47,47 93,93 140,139l0 1 0 0c-26,26 -51,53 -78,78 -60,61 -122,121 -182,182 27,29 55,57 84,84 -20,22 -41,42 -61,63 -51,-47 -99,-98 -149,-146 58,-59 117,-117 175,-175l-1 0c3,-2 5,-5 8,-7 26,-27 53,-53 79,-79 -18,-18 -36,-35 -53,-53 -11,-10 -21,-20 -32,-30 21,-22 42,-43 63,-64l7 7zm461 57l0 -1 -1 -1c21,-20 41,-41 62,-62l0 0 1 0c28,29 57,58 86,87l0 -1 0 -1c20,21 41,41 61,61l0 1 0 1c-20,21 -41,41 -61,62l0 -1 0 -1c-67,66 -133,133 -200,200 28,27 56,55 84,83 -22,21 -43,42 -63,63 -50,-47 -99,-97 -147,-146 58,-58 117,-116 175,-175l-3 0c21,-19 42,-39 62,-59 9,-9 18,-18 27,-27 -23,-23 -46,-45 -68,-68l-15 -15zm-970 254c28,-29 56,-57 84,-85l0 0c2,-2 4,-4 6,-6 19,-18 37,-37 56,-55l0 0 2 -1c20,21 40,42 62,62l-2 0 0 1c-27,28 -56,55 -83,84 87,87 175,174 261,262 -52,45 -98,98 -149,144 -20,-20 -41,-41 -61,-62 28,-28 58,-54 85,-84 -88,-86 -174,-174 -261,-260zm530 0c27,-29 55,-57 83,-85l0 0c2,-2 4,-4 7,-6 18,-19 37,-37 55,-55l0 0 1 -1c21,20 42,42 64,62l-3 0 1 1c-28,28 -56,55 -84,83 87,87 174,174 259,261 -47,50 -97,98 -145,147 -22,-21 -43,-42 -63,-63 29,-28 56,-57 85,-84 -87,-87 -174,-174 -260,-260zm529 -1c28,-28 56,-56 84,-84l-1 0 -2 0c21,-19 40,-38 59,-59l0 2 0 1c2,-2 5,-4 7,-7 21,21 41,43 63,63l0 0 1 1c-28,28 -58,55 -86,83l12 13c1,0 2,-1 3,-1l0 4c82,82 165,163 246,246 -48,49 -98,97 -148,145 -20,-21 -40,-41 -60,-62 27,-28 55,-55 83,-83 -53,-53 -106,-106 -159,-159 -34,-34 -68,-69 -102,-103zm-1148 92c21,-21 42,-42 62,-64 48,50 98,98 146,147 -87,87 -173,174 -260,260 29,27 57,54 85,83 -22,21 -43,42 -64,63 -49,-48 -98,-96 -146,-146 87,-87 175,-174 261,-262 -28,-27 -57,-53 -84,-81zm529 0c20,-22 41,-44 62,-64 49,49 97,98 147,147 -85,87 -173,171 -258,259 22,31 54,56 82,83 -21,22 -42,43 -63,64 -49,-48 -97,-97 -147,-145 86,-88 174,-174 260,-261 -27,-28 -55,-55 -83,-83zm529 -2c21,-21 41,-41 62,-62 29,29 58,58 87,87l0 -3c20,21 41,41 61,62l-1 1 0 0 -51 51c-3,3 -6,7 -9,10l0 0c-67,66 -133,133 -200,199 28,28 56,56 84,84 -21,21 -42,41 -62,62 -50,-48 -99,-98 -148,-147 87,-87 176,-171 261,-259 -28,-28 -57,-56 -84,-85zm-968 254c48,-48 97,-97 145,-145 22,20 43,41 63,62 -28,28 -55,56 -84,84 86,88 174,173 260,261 -49,48 -97,98 -147,146 -20,-21 -41,-42 -61,-63 28,-28 56,-56 83,-84 -87,-86 -174,-173 -259,-261zm529 1c48,-49 97,-97 145,-146 21,21 42,42 64,61 -27,29 -56,57 -85,85 87,87 174,174 261,261 -49,48 -98,97 -146,146 -21,-21 -42,-42 -63,-63 28,-28 56,-56 83,-83 -86,-88 -174,-173 -259,-261zm527 -1c24,-22 47,-44 70,-67 15,-16 31,-31 47,-47 8,-9 17,-17 25,-26l0 1 7 -7c21,21 42,42 62,63 -28,28 -55,55 -83,83l14 14 0 0 0 1c81,83 163,165 245,246 -48,50 -97,98 -146,147 -21,-21 -42,-42 -62,-63 27,-28 55,-56 84,-83 -40,-41 -80,-82 -121,-122l0 3c-46,-49 -95,-95 -142,-143zm-1084 28c49,49 99,97 147,148 -87,86 -173,173 -260,259 28,28 56,56 84,84 -21,21 -42,42 -63,62 -49,-49 -98,-97 -147,-147 87,-86 175,-172 261,-259 -28,-28 -56,-57 -84,-85 21,-21 41,-41 62,-62zm467 62c21,-21 42,-42 63,-62 49,48 97,97 146,146 -87,87 -173,173 -260,260 28,28 56,56 84,85 -21,21 -42,42 -64,63 -49,-49 -98,-98 -147,-147 88,-87 174,-175 263,-260 -28,-29 -57,-56 -85,-85zm529 2c20,-21 41,-42 62,-63 29,29 58,58 87,87l0 -4c20,22 41,42 61,63 -20,21 -41,41 -61,62l0 -3c-67,67 -134,134 -201,201 29,28 58,55 85,84 -21,21 -42,42 -64,63 -48,-49 -97,-98 -146,-146 86,-88 174,-175 261,-262 -27,-28 -57,-54 -84,-82zm425 -812l1 0c-4,3 -7,6 -11,10 -28,28 -57,57 -85,85l-1 0 0 0 -17 -17c-15,-15 -30,-30 -45,-44l0 -1 -1 -1c9,-8 17,-16 26,-24 19,-20 39,-40 59,-60 -40,-40 -80,-80 -121,-120l0 2c-46,-48 -94,-94 -140,-143 46,-48 94,-94 140,-141l0 3c2,-3 5,-5 7,-7 21,21 42,42 62,63 -23,23 -46,46 -69,69l0 1 -1 0 -13 13 14 14 0 0 0 0c82,82 165,164 246,246 -17,18 -34,35 -51,52zm176 0l3 0c-43,40 -83,82 -124,123 20,20 40,40 61,61 7,7 15,14 23,21 -21,22 -42,43 -63,64l-1 0 0 1c-49,-49 -98,-97 -146,-146l0 -1 0 -1c86,-87 173,-174 260,-261 -28,-27 -56,-55 -84,-82 21,-22 42,-43 63,-64 49,49 97,98 146,146 -46,47 -92,93 -138,139zm176 0l2 0c-11,10 -23,21 -34,32l8 8c84,84 168,169 252,252l-3 0 3 2c-49,49 -98,98 -147,146 -20,-21 -41,-42 -62,-63 28,-27 56,-55 83,-83 -30,-32 -61,-63 -92,-95l-1 0c-42,-43 -85,-85 -127,-128l-39 -39 0 0 -1 -1c49,-48 98,-97 146,-145 21,21 42,41 64,62 -18,17 -35,34 -52,52zm178 0l0 0c-3,3 -6,5 -9,8 -8,8 -16,15 -23,23 -22,21 -43,43 -65,64l-10 -11c-13,-12 -25,-24 -37,-36 -5,-5 -10,-10 -15,-15 10,-10 19,-20 29,-30 19,-18 37,-36 55,-54 -85,-88 -174,-174 -260,-262 49,-48 98,-97 146,-145 21,21 42,42 63,63 -27,27 -57,53 -84,81 86,89 175,174 260,263 -17,17 -34,34 -50,51zm175 0l3 0c-42,40 -83,82 -124,123 14,14 28,28 42,41 13,13 25,26 38,39l2 2 0 0 1 1c-21,21 -42,43 -63,64 -49,-49 -98,-98 -147,-147 23,-23 46,-47 69,-69 64,-64 128,-128 192,-193 -28,-27 -55,-55 -83,-83 20,-21 41,-42 61,-63 49,48 98,97 147,146 -46,47 -92,93 -138,139zm176 0l1 0c-3,2 -6,4 -8,7 -9,8 -17,16 -25,25 87,86 173,174 261,260l-3 0 2 3c-48,48 -98,96 -147,144 -21,-21 -41,-41 -62,-62 28,-27 56,-55 84,-83 -87,-87 -175,-174 -260,-263l5 -5c47,-47 94,-93 140,-140 21,20 42,41 63,62 -17,17 -34,35 -51,52zm176 0l2 0c-33,31 -64,64 -97,96 -21,-21 -42,-41 -63,-62l2 -2 -1 -1c28,-27 57,-53 84,-82 -86,-88 -174,-175 -260,-263 49,-48 96,-98 147,-145 20,21 40,42 61,62 -27,28 -55,56 -83,84 85,89 173,175 260,262 -18,17 -35,34 -52,51zm71 106l-16 16c28,28 56,55 84,83l0 0 1 1c-21,22 -42,43 -64,64 -49,-49 -98,-98 -147,-147 39,-39 77,-78 116,-116 48,-48 97,-97 145,-146 -27,-27 -55,-55 -83,-82 19,-23 40,-44 62,-64 49,48 98,97 147,146 -82,82 -164,164 -245,245zm266 -88l0 1c-6,0 -10,2 -12,5l0 0c-1,2 -2,3 -2,4 -2,4 -1,9 2,13 3,2 7,4 12,4l0 1 0 127 0 2c-47,-48 -95,-95 -142,-143 9,-9 19,-19 29,-28 37,-38 76,-75 113,-114l0 110 0 18zm-1159 267c-60,60 -121,121 -181,182 28,28 56,56 84,84 -21,21 -42,42 -62,63 -49,-50 -99,-98 -147,-148 58,-58 116,-116 174,-174l-1 0c5,-4 10,-9 14,-13l20 -20c18,-17 35,-35 53,-53 -28,-27 -56,-55 -84,-83l9 -9c17,-19 35,-38 54,-56 49,49 98,98 147,147 -27,27 -53,54 -80,80zm469 -219c46,47 92,93 139,139l0 1 0 0c-26,26 -51,53 -78,78 -60,61 -121,121 -182,182 28,29 56,57 84,84 -20,22 -41,42 -61,63 -51,-47 -99,-98 -148,-146 58,-59 116,-117 174,-175l0 0c2,-2 5,-5 7,-7 27,-27 53,-53 79,-79 -18,-18 -35,-35 -53,-53 -10,-10 -21,-20 -31,-30 20,-22 41,-43 63,-64l7 7zm460 57l0 -1 -1 -1c21,-20 42,-41 63,-62l0 0 0 0c49,49 98,98 147,147 -87,87 -174,174 -261,261 28,27 56,55 84,83 -21,21 -42,42 -63,63 -50,-47 -98,-97 -147,-146 59,-58 117,-116 176,-175l-3 0c20,-19 41,-39 61,-59 9,-9 18,-18 27,-27 -22,-23 -45,-45 -68,-68l-15 -15zm-970 254c28,-29 56,-57 84,-85l0 0c2,-2 4,-4 6,-6 19,-18 37,-37 56,-55l0 0 2 -1c21,21 41,42 63,62l-3 0 1 1c-28,28 -56,55 -83,84 87,87 175,174 261,262 -52,45 -98,98 -149,144 -21,-20 -42,-41 -62,-62 29,-28 59,-54 85,-84 -87,-86 -174,-174 -261,-260zm530 0c27,-29 56,-57 84,-85l-1 0c3,-2 5,-4 7,-6 19,-19 37,-37 55,-55l1 0 0 -1c22,20 42,42 64,62l-2 0 0 1c-27,28 -55,55 -83,83 87,87 173,174 259,261 -48,50 -97,98 -146,147 -21,-21 -42,-42 -62,-63 28,-28 56,-57 84,-84 -87,-87 -173,-174 -260,-260zm529 -1c28,-28 56,-56 84,-84l-3 0c21,-19 41,-38 60,-59l0 2 0 57 0 68c-21,-1 -22,38 0,28l0 121 0 8c-48,-47 -94,-94 -141,-141zm-1148 92c21,-21 42,-42 62,-64 48,50 99,98 147,147 -87,87 -174,174 -261,260 29,27 58,54 85,83 -21,21 -42,42 -64,63 -48,-48 -98,-96 -145,-146 87,-87 174,-174 261,-262 -28,-27 -57,-53 -85,-81zm530 0c19,-22 40,-44 61,-64 49,49 98,98 147,147 -85,87 -173,171 -258,259 23,31 54,56 82,83 -20,22 -42,43 -63,64 -49,-48 -97,-97 -146,-145 86,-88 173,-174 260,-261 -27,-28 -55,-55 -83,-83zm528 -2c21,-21 42,-41 63,-62 49,49 98,98 147,147 -87,87 -174,174 -261,260 28,28 56,56 84,84 -21,21 -42,41 -62,62 -50,-48 -99,-98 -148,-147 87,-87 176,-171 261,-259 -28,-28 -56,-56 -84,-85zm-968 254c49,-48 97,-97 146,-145 22,20 42,41 63,62 -28,28 -56,56 -84,84 85,88 173,173 260,261 -50,48 -97,98 -147,146 -21,-21 -41,-42 -62,-63 28,-28 57,-56 83,-84 -87,-86 -174,-173 -259,-261zm529 1c49,-49 97,-97 146,-146 20,21 41,42 63,61 -27,29 -56,57 -84,85 87,87 173,174 260,261 -48,48 -97,97 -146,146 -21,-21 -42,-42 -62,-63 28,-28 55,-56 83,-83 -86,-88 -175,-173 -260,-261zm528 -1c49,-45 95,-92 142,-140l0 122c-22,2 -26,39 0,32l0 129c-47,-49 -95,-95 -142,-143zm-1084 28c49,49 99,97 147,148 -87,86 -173,173 -260,259 27,28 55,56 83,84 -21,21 -42,42 -62,62 -49,-49 -99,-97 -147,-147 87,-86 175,-172 261,-259 -28,-28 -57,-57 -85,-85 21,-21 42,-41 63,-62zm467 62c21,-21 41,-42 62,-62 49,48 98,97 146,146 -86,87 -173,173 -260,260 28,28 56,56 85,85 -22,21 -43,42 -65,63 -48,-49 -98,-98 -146,-147 87,-87 173,-175 262,-260 -28,-29 -57,-56 -84,-85zm528 2c20,-21 42,-42 63,-63 48,48 97,97 146,146 -87,87 -174,174 -261,260 29,28 58,55 86,84 -21,21 -42,42 -64,63 -49,-49 -97,-98 -147,-146 86,-88 174,-175 261,-262 -27,-28 -56,-54 -84,-82zm90 252c47,-47 95,-93 141,-141l0 129c-20,1 -20,26 0,27l0 129c-47,-48 -95,-95 -141,-144zm-4606 -2442l3 0c-12,11 -23,22 -34,33l13 13c12,13 25,25 38,38 43,44 87,87 131,131 26,26 52,52 78,78l-3 0 2 2c-48,49 -97,97 -146,146 -21,-21 -42,-42 -62,-63 28,-28 56,-56 84,-84 -8,-8 -16,-16 -23,-24 -60,-59 -120,-119 -179,-179l0 0 0 -91 0 -26c28,-30 58,-59 87,-88 22,20 43,41 64,62 -18,17 -35,35 -53,52zm178 0l1 0c-4,4 -7,7 -11,10 -28,29 -57,57 -85,86l-1 0 0 0 -17 -17c-15,-15 -30,-30 -45,-44l0 -1 -1 -1c9,-8 17,-16 26,-24 19,-20 39,-40 59,-60 -67,-68 -135,-134 -202,-203l0 -115c28,-30 59,-59 88,-88 21,20 42,41 62,62 -27,28 -55,56 -83,84 87,87 174,173 260,260 -17,17 -34,34 -51,51zm176 0l2 0c-42,40 -82,83 -123,123 20,21 40,41 61,62 7,7 15,14 23,21 -21,21 -42,43 -63,64l-1 0 0 0c-49,-48 -98,-97 -146,-146l0 0 0 -1c86,-88 173,-174 260,-261 -28,-27 -56,-55 -84,-83 21,-21 42,-42 63,-63 49,49 97,97 146,146 -46,46 -92,92 -138,138zm176 0l2 0c-11,11 -23,22 -34,33l8 8c84,84 168,169 252,252l-3 0 3 2c-49,48 -98,98 -147,146 -20,-21 -41,-42 -62,-63 28,-28 56,-55 83,-83 -31,-32 -62,-64 -93,-95 -42,-43 -85,-86 -127,-128l-39 -39 0 0 -1 -1c49,-48 97,-97 146,-145 21,20 42,41 64,61 -18,18 -35,35 -52,52zm178 0l0 0c-3,3 -6,6 -9,9 -8,8 -16,15 -23,23 -22,21 -43,43 -65,64l-11 -11c-12,-12 -24,-24 -36,-37 -5,-5 -10,-10 -15,-15 10,-9 19,-19 29,-29 19,-18 37,-36 55,-54 -85,-89 -174,-174 -260,-262 49,-48 98,-97 146,-145 21,20 42,41 63,62 -27,28 -57,54 -84,82 86,88 175,174 260,263 -17,17 -34,34 -50,50zm175 0l3 0c-42,41 -83,83 -124,124 14,13 28,27 42,41l0 1c13,12 26,25 38,38l2 2 0 0 1 1c-21,21 -42,42 -63,63 -49,-48 -98,-98 -147,-147 23,-23 46,-46 69,-68 64,-65 128,-129 192,-193 -28,-28 -55,-55 -83,-83 20,-21 41,-42 61,-64 49,49 98,98 147,147 -46,46 -92,92 -138,138zm176 0l1 0c-3,3 -6,5 -8,8 -9,8 -17,16 -25,24 87,87 173,175 261,261l-3 0 2 3c-49,48 -98,96 -147,144 -21,-21 -41,-41 -62,-62 28,-28 56,-55 84,-83 -87,-88 -175,-174 -260,-263l5 -5c47,-47 94,-93 140,-140 21,20 42,41 63,62 -17,17 -34,34 -51,51zm176 0l2 0c-33,32 -64,65 -97,97 -21,-21 -42,-42 -63,-63l2 -1 -1 -1c28,-27 57,-54 84,-82 -86,-88 -174,-175 -260,-263 49,-48 96,-98 147,-145 20,21 40,42 61,62 -27,28 -55,56 -83,84 85,88 173,175 260,262 -18,17 -35,33 -52,50zm70 108l-15 14c28,28 56,56 84,84l1 1c-21,21 -42,43 -64,63 -49,-48 -98,-97 -147,-147 39,-38 77,-77 116,-115 48,-49 97,-97 145,-146 -27,-27 -55,-55 -83,-82 19,-23 40,-44 62,-65 49,49 98,98 147,147 -82,82 -164,164 -246,246zm267 -89l0 0c-1,0 -2,1 -3,1 -4,4 -8,8 -12,12 0,1 0,2 0,3l10 10c2,0 3,1 5,1l0 1 0 2c11,12 22,23 34,35l2 2c43,43 87,86 129,129 26,26 52,52 79,78l-3 0 2 2c-49,49 -98,97 -146,146 -21,-21 -42,-42 -63,-63 28,-28 56,-56 85,-84 -8,-8 -16,-16 -24,-24 -32,-31 -64,-63 -95,-95l0 1c-47,-49 -95,-95 -142,-143 9,-9 19,-19 29,-28 10,-10 20,-20 30,-30l0 -1c28,-30 58,-59 87,-88 21,20 42,41 63,62 -17,17 -35,35 -52,52l2 0c-6,6 -12,12 -17,17l0 2zm-1159 267c-60,60 -121,121 -181,181 28,29 56,57 84,85 -21,21 -42,42 -62,62 -49,-49 -99,-97 -147,-147 58,-58 116,-116 174,-174l-1 0c5,-4 9,-9 14,-13 7,-7 13,-13 20,-20 18,-17 35,-36 53,-53 -28,-28 -56,-56 -84,-84l9 -8c17,-19 35,-38 54,-56 49,49 98,98 147,147 -27,26 -53,54 -80,80zm469 -219c46,47 92,93 139,139l0 0 0 1c-26,26 -51,52 -78,78 -60,61 -121,121 -182,182 28,28 56,56 84,84 -20,21 -41,42 -61,63 -51,-47 -99,-98 -148,-147 58,-58 116,-116 174,-174l0 0c2,-3 5,-5 8,-8 26,-26 52,-52 78,-78 -18,-18 -35,-35 -53,-53 -10,-10 -21,-20 -31,-30 20,-22 41,-43 63,-64l7 7zm460 56l0 0 -1 -1c21,-21 42,-41 63,-62l0 0 0 0c28,28 56,56 85,85l0 -1c2,3 4,5 6,7 10,10 20,20 30,30 8,8 17,17 25,25l0 0 1 1 -24 23c-13,14 -26,27 -38,40l0 -1c-66,66 -132,132 -199,198 28,28 56,56 84,84 -21,21 -42,42 -63,63 -50,-47 -98,-97 -147,-146 59,-58 117,-117 176,-175l-3 0c20,-19 41,-39 61,-59l27 -27c-22,-23 -45,-45 -67,-68l-16 -16zm-1379 84l0 0c-20,22 -41,42 -61,63l0 -2 0 -122 0 -2c20,21 41,41 61,62l0 1zm-61 114c9,-10 18,-19 27,-28l-3 0c22,-20 43,-42 64,-63 21,21 41,43 63,63l0 0 1 0c-28,29 -58,56 -86,84 87,87 175,174 261,262 -48,49 -98,97 -148,144 -20,-20 -40,-41 -60,-61 27,-28 55,-56 83,-83 -67,-68 -135,-135 -202,-203l0 -115zm470 56c28,-28 56,-56 84,-84l0 0c2,-2 4,-4 6,-6 19,-19 37,-37 56,-56l0 1 2 -2c21,21 41,43 63,63l-3 0 1 1c-28,28 -56,55 -83,84 87,87 174,173 261,261 -52,46 -98,98 -149,145 -21,-21 -42,-41 -62,-62 29,-28 59,-55 85,-84 -87,-87 -174,-174 -261,-261zm530 1c27,-29 56,-57 84,-85l-1 0c3,-2 5,-4 7,-6 19,-19 37,-37 55,-56l1 1 0 -1c22,20 42,42 64,62l-2 0 0 1c-27,28 -55,55 -83,83 87,86 173,174 259,261 -48,50 -97,98 -146,146 -21,-20 -42,-41 -62,-63 28,-27 56,-56 84,-83 -87,-87 -173,-174 -260,-260zm529 -1c28,-28 56,-56 84,-84l-2 0 -1 0c21,-19 41,-39 60,-59l0 1 4 -5c22,21 42,43 64,63l0 0 0 0c-22,23 -45,45 -68,67l0 1 -1 0c-5,5 -10,10 -15,15 0,0 0,1 0,2l11 12c2,0 3,-1 5,-1l0 5c81,82 163,163 244,245 -49,49 -98,97 -148,144 -20,-20 -40,-41 -61,-61 28,-28 56,-56 84,-83 -67,-68 -136,-135 -202,-203l0 -1c-20,-19 -39,-39 -58,-58zm-1148 91c21,-21 42,-42 62,-63 48,49 98,97 147,147 -87,86 -174,174 -261,260 29,27 58,54 85,83 -21,21 -42,42 -64,63 -48,-49 -98,-97 -145,-146 87,-87 174,-174 261,-262 -28,-27 -57,-53 -85,-82zm530 0c19,-22 40,-43 61,-63 49,48 98,98 147,146 -85,88 -173,172 -258,260 23,31 54,56 82,83 -20,22 -42,43 -63,64 -49,-48 -97,-97 -146,-145 86,-88 173,-174 260,-261 -27,-28 -55,-56 -83,-84zm528 -1c21,-21 42,-42 63,-62l85 85 0 -2c19,22 41,42 61,63l0 0 1 1c-87,87 -174,173 -261,260 28,28 56,56 84,84 -21,20 -42,41 -62,62 -50,-48 -99,-98 -148,-147 87,-87 176,-171 261,-260 -28,-27 -56,-55 -84,-84zm-1439 21c20,22 41,42 61,63 -20,21 -41,40 -61,62l0 -125zm0 176c28,-31 59,-59 88,-89 21,21 42,42 62,63 -28,27 -55,55 -83,83 85,88 172,175 259,261 -48,49 -97,98 -146,146 -21,-20 -42,-41 -62,-62 27,-28 55,-56 84,-83 -67,-69 -135,-136 -202,-204l0 -115zm471 57c49,-49 97,-97 146,-145 22,20 42,41 63,62 -28,28 -56,56 -84,83 85,89 173,174 260,262 -50,48 -97,98 -147,145 -21,-21 -41,-42 -62,-63 28,-27 57,-55 83,-84 -87,-85 -174,-172 -259,-260zm529 0c49,-48 97,-96 146,-145 20,21 41,42 63,61 -27,29 -56,57 -84,85 87,87 173,174 260,260 -49,49 -97,98 -146,146 -21,-20 -42,-41 -62,-62 28,-28 55,-56 83,-83 -86,-88 -175,-173 -260,-262zm528 0c20,-19 39,-37 59,-56l0 -1c28,-31 58,-59 87,-89 22,21 42,42 63,63 -28,27 -56,55 -83,83l14 14c0,0 1,0 2,0l0 2c80,83 161,164 243,245 -48,49 -98,98 -146,146 -21,-20 -42,-41 -63,-62 28,-28 56,-56 84,-83 -39,-41 -79,-81 -118,-121l0 2c-47,-49 -95,-95 -142,-143zm-1084 28c49,49 99,97 147,147 -87,87 -173,173 -260,260 27,28 55,56 83,83 -21,21 -42,42 -62,63 -49,-49 -99,-98 -147,-147 87,-87 175,-172 261,-259 -28,-29 -57,-57 -85,-85 21,-21 42,-42 63,-62zm467 61c21,-20 41,-41 62,-61 49,48 98,97 146,146 -86,86 -173,173 -260,260 28,28 56,56 85,84 -22,22 -43,43 -65,64 -48,-49 -98,-98 -146,-147 87,-87 173,-175 262,-260 -28,-29 -57,-56 -84,-86zm528 3c20,-22 42,-43 63,-63 28,28 56,56 85,85l0 -2c19,22 41,42 61,63 -21,20 -42,40 -61,62l0 -1c-67,66 -133,133 -200,199 29,27 58,55 86,83 -21,22 -42,43 -64,64 -49,-49 -97,-98 -147,-146 86,-88 174,-175 261,-262 -27,-28 -56,-54 -84,-82zm-1439 20c20,22 41,42 61,63 -20,20 -41,40 -61,62l0 -125zm0 345c19,21 40,41 60,61 -20,21 -41,40 -60,62l0 -123zm1863 -1178l0 0c-3,4 -7,7 -10,10 -29,29 -57,57 -86,86l0 0 0 0 -18 -17c-15,-15 -30,-30 -45,-44l1 -1 -1 -1c8,-8 17,-16 25,-24 20,-20 40,-40 60,-60 -40,-40 -80,-79 -119,-119l0 1c-47,-48 -95,-95 -141,-144 26,-26 52,-51 78,-77 8,-8 16,-17 25,-25 12,-13 25,-26 38,-39l0 2 4 -5c21,20 42,41 63,62 -22,23 -45,45 -67,68l0 3c-2,0 -3,0 -4,0l-11 11c0,1 0,2 0,3l13 13c0,0 1,0 2,0l0 2c81,81 163,162 244,244 -17,17 -34,34 -51,51zm175 0l3 0c-42,40 -82,83 -124,123 21,21 41,41 61,62 8,7 16,14 24,21 -21,21 -42,43 -64,64l0 0 -1 0c-49,-48 -97,-97 -146,-146l1 0 -1 -1c86,-88 174,-174 260,-261 -28,-27 -55,-55 -83,-83 20,-21 41,-42 63,-63 48,49 97,97 146,146 -46,46 -93,92 -139,138zm176 0l3 0c-12,11 -23,22 -34,33l8 8c84,84 167,169 252,252l-3 0 2 2c-49,48 -97,98 -146,146 -21,-21 -42,-42 -62,-63 27,-28 55,-55 83,-83 -31,-32 -62,-64 -93,-95 -43,-43 -86,-86 -128,-129l-38 -38 0 0 -1 -1c49,-48 97,-97 146,-145 21,20 42,41 63,61 -17,18 -34,35 -52,52zm178 0l1 0c-4,3 -7,6 -10,9 -7,8 -15,15 -23,23 -21,21 -42,43 -64,64l-11 -11c-12,-12 -24,-24 -36,-36 -5,-5 -10,-10 -15,-16 9,-9 19,-19 29,-29 18,-18 36,-36 55,-54 -86,-89 -174,-174 -260,-262 49,-48 97,-97 146,-145 21,20 42,41 63,62 -28,28 -57,54 -85,82 86,88 175,174 260,263 -16,17 -33,34 -50,50zm176 0l2 0c-42,41 -82,83 -123,124 13,13 27,27 41,41 13,13 26,26 39,38l2 3 0 0 1 1c-21,21 -42,42 -64,63 -49,-48 -98,-98 -147,-147 23,-23 46,-46 69,-68 65,-65 129,-129 193,-193 -28,-28 -56,-55 -84,-83 21,-21 42,-42 62,-64 49,49 98,98 147,147 -46,46 -92,92 -138,138zm176 0l0 0c-2,3 -5,5 -8,8 -8,8 -16,16 -25,24 87,87 174,175 261,261l-3 0 3 3c-49,48 -98,96 -148,144 -20,-21 -41,-41 -61,-62 28,-28 56,-55 83,-83 -87,-88 -175,-174 -260,-263l6 -5c47,-47 93,-94 140,-140 21,20 42,41 63,62 -17,17 -34,34 -51,51zm175 0l3 0c-33,32 -65,65 -97,97 -21,-21 -42,-42 -63,-63l1 -1 -1 -1c28,-27 57,-54 84,-82 -85,-88 -173,-175 -259,-263 49,-48 96,-98 146,-145 20,21 41,42 62,62 -28,28 -56,56 -84,84 86,88 174,175 261,262 -18,17 -36,33 -53,50zm71 108l-15 14c28,28 56,56 84,84l0 0 1 1c-22,21 -43,43 -64,63 -49,-48 -98,-97 -147,-147 38,-38 76,-77 115,-115 49,-49 98,-97 146,-146 -28,-27 -55,-55 -83,-82 19,-23 40,-44 61,-65 29,29 58,58 87,87l0 -1c4,4 7,8 11,12l35 35c5,5 10,9 14,14 -4,5 -9,10 -14,15l-34 33c-4,5 -8,9 -12,13l0 0c-62,61 -123,123 -185,185zm266 -89l0 0 0 0c-5,5 -9,10 -14,14l12 13 0 0 0 0c1,0 2,0 2,0l0 1 0 1c12,12 25,24 37,36 43,44 87,87 131,131 26,26 52,52 78,78l-3 0 2 2c-48,49 -97,97 -146,146 -21,-21 -42,-42 -62,-63 28,-28 56,-56 84,-84 -8,-8 -16,-16 -23,-24 -33,-32 -65,-64 -98,-97l0 1 0 2c-46,-49 -95,-95 -142,-143 10,-9 19,-19 29,-28 15,-15 29,-29 44,-44 16,-17 33,-33 49,-49 7,-7 14,-14 20,-21l0 1 6 -6c22,20 43,41 64,62 -18,17 -35,35 -53,52l3 0c-7,6 -13,13 -20,19zm-1158 267c-61,60 -121,121 -182,181 28,29 57,57 85,85 -21,21 -42,42 -63,62 -49,-49 -98,-97 -147,-147 58,-58 116,-116 174,-174l0 0c5,-4 9,-9 14,-13 6,-7 13,-13 20,-20 17,-18 35,-36 53,-53 -29,-28 -56,-56 -84,-84l8 -8c18,-19 36,-38 54,-56 49,49 98,98 147,147 -26,26 -52,54 -79,80zm468 -219c47,47 93,93 140,139l0 0 0 1c-26,26 -51,52 -78,78 -60,61 -122,121 -182,182 27,28 55,56 84,84 -20,21 -41,42 -61,63 -51,-47 -99,-98 -149,-147 58,-58 117,-116 175,-174l-1 0c3,-3 5,-5 8,-8 26,-26 53,-52 79,-78 -18,-18 -36,-35 -53,-53 -11,-10 -21,-20 -32,-30 21,-22 42,-43 63,-64l7 7zm461 56l0 0 -1 -1c21,-21 41,-41 62,-62l0 0 1 0c28,29 57,58 86,86l0 0 0 -2c20,21 41,41 61,62l0 1 0 0c-20,22 -41,42 -61,63l0 -2 0 -1c-67,67 -133,134 -200,200 28,28 56,56 84,84 -22,21 -43,42 -63,63 -50,-47 -99,-97 -147,-146 58,-58 117,-117 175,-175l-3 0c21,-19 41,-39 62,-59 9,-9 18,-18 27,-27 -23,-23 -46,-45 -68,-68l-15 -16zm-970 254c28,-28 56,-56 84,-84l0 0c2,-2 4,-4 6,-6 19,-19 37,-37 56,-56l0 1 2 -2c20,21 40,43 62,63l-2 0 0 1c-27,28 -56,55 -83,84 87,87 175,173 261,261 -52,46 -98,98 -149,145 -20,-21 -41,-41 -61,-62 28,-28 58,-55 85,-84 -88,-87 -174,-174 -261,-261zm530 1c27,-29 55,-57 83,-85l0 0c2,-2 4,-4 7,-6 18,-19 37,-37 55,-56l0 1 1 -1c21,20 42,42 64,62l-3 0 1 1c-28,28 -56,55 -84,83 87,86 174,174 259,261 -47,50 -97,98 -145,146 -22,-20 -43,-41 -63,-63 29,-27 56,-56 85,-83 -87,-87 -174,-174 -260,-260zm529 -1c28,-28 56,-56 84,-84l-1 0 -2 0c21,-19 40,-39 59,-59l0 2 0 1c2,-2 5,-5 7,-7 21,21 41,43 63,63l0 0 1 0c-28,29 -58,56 -86,84l12 13c1,-1 2,-1 3,-1l0 3c82,83 165,164 246,247 -48,49 -98,97 -148,144 -20,-20 -40,-41 -60,-61 27,-28 55,-56 83,-83 -52,-53 -106,-106 -158,-159l0 0 0 0c-35,-34 -69,-69 -103,-103zm-1148 91c21,-21 42,-42 62,-63 48,49 98,97 146,147 -87,86 -173,174 -260,260 29,27 57,54 85,83 -22,21 -43,42 -64,63 -49,-49 -98,-97 -146,-146 87,-87 175,-174 261,-262 -28,-27 -57,-53 -84,-82zm529 0c20,-22 41,-43 62,-63 49,48 97,98 147,146 -85,88 -173,172 -258,260 22,31 54,56 82,83 -21,22 -42,43 -63,64 -49,-48 -97,-97 -147,-145 86,-88 174,-174 260,-261 -27,-28 -55,-56 -83,-84zm529 -1c21,-21 41,-42 62,-62 29,29 58,58 87,86l0 -3c20,22 41,42 61,63l-1 1 0 0 -51 51c-3,3 -6,7 -9,10l0 -1c-67,67 -133,134 -200,200 28,28 56,56 84,84 -21,20 -42,41 -62,62 -50,-48 -99,-98 -148,-147 87,-87 176,-171 261,-260 -28,-27 -57,-55 -84,-84zm-968 254c48,-49 97,-97 145,-145 22,20 43,41 63,62 -28,28 -55,56 -84,83 86,89 174,174 260,262 -49,48 -97,98 -147,145 -20,-21 -41,-42 -61,-63 28,-27 56,-55 83,-84 -87,-85 -174,-172 -259,-260zm529 0c48,-48 97,-96 145,-145 21,21 42,42 64,61 -27,29 -56,57 -85,85 87,87 174,174 261,260 -49,49 -98,98 -146,146 -21,-20 -42,-41 -63,-62 28,-28 56,-56 83,-83 -86,-88 -174,-173 -259,-262zm527 0c24,-22 47,-45 70,-67 15,-16 31,-32 47,-47 8,-9 17,-17 25,-26l0 1c2,-3 5,-5 7,-7 21,21 42,42 62,63 -28,27 -55,55 -83,83l14 14 0 0 0 0c81,83 163,165 245,247 -48,49 -97,98 -146,146 -21,-20 -42,-41 -62,-62 27,-28 55,-56 84,-83 -40,-41 -80,-82 -121,-122l0 3c-46,-49 -95,-95 -142,-143zm-1084 28c49,49 99,97 147,147 -87,87 -173,173 -260,260 28,28 56,56 84,83 -21,21 -42,42 -63,63 -49,-49 -98,-98 -147,-147 87,-87 175,-172 261,-259 -28,-29 -56,-57 -84,-85 21,-21 41,-42 62,-62zm467 61c21,-20 42,-41 63,-61 49,48 97,97 146,146 -87,86 -173,173 -260,260 28,28 56,56 84,84 -21,22 -42,43 -64,64 -49,-49 -98,-98 -147,-147 88,-87 174,-175 263,-260 -28,-29 -57,-56 -85,-86zm529 3c20,-22 41,-43 62,-63 29,28 58,57 87,86l0 -3c20,22 41,42 61,63 -20,20 -41,40 -61,62l0 -3c-67,67 -134,134 -201,201 29,27 58,55 85,83 -21,22 -42,43 -64,64 -48,-49 -97,-98 -146,-146 86,-88 174,-175 261,-262 -27,-28 -57,-54 -84,-82zm425 -813l1 0c-4,4 -7,7 -11,10 -28,29 -57,57 -85,86l-1 0 0 0 -17 -17c-15,-15 -30,-30 -45,-44l0 -1 -1 -1c9,-8 17,-16 26,-24 19,-20 39,-40 59,-60 -40,-40 -80,-80 -121,-121l0 3c-46,-48 -94,-95 -140,-144 46,-47 94,-93 140,-141l0 3c2,-2 5,-4 7,-6 21,20 42,41 62,62 -23,23 -46,46 -69,69l0 2 -1 0 -13 13 14 14 0 0 0 0c82,82 165,164 246,246 -17,17 -34,34 -51,51zm176 0l3 0c-43,40 -83,83 -124,123 20,21 40,41 61,62 7,7 15,14 23,21 -21,21 -42,43 -63,64l-1 0 0 0c-49,-48 -98,-97 -146,-146l0 0 0 -1c86,-88 173,-174 260,-261 -28,-27 -56,-55 -84,-83 21,-21 42,-42 63,-63 49,49 97,97 146,146 -46,46 -92,92 -138,138zm176 0l2 0c-11,11 -23,22 -34,33l8 8c84,84 168,169 252,252l-3 0 3 2c-49,48 -98,98 -147,146 -20,-21 -41,-42 -62,-63 28,-28 56,-55 83,-83 -30,-32 -61,-63 -92,-95l-1 0c-43,-43 -85,-86 -128,-129l-38 -38 0 0 -1 -1c49,-48 98,-97 146,-145 21,20 42,41 64,61 -18,18 -35,35 -52,52zm178 0l0 0c-3,3 -6,6 -9,9 -8,8 -16,15 -23,23 -22,21 -43,43 -65,64l-11 -11c-12,-12 -24,-24 -36,-37 -5,-5 -10,-10 -15,-15 10,-9 19,-19 29,-29 19,-18 37,-36 55,-54 -85,-89 -174,-174 -260,-262 49,-48 98,-97 146,-145 21,20 42,41 63,62 -27,28 -57,54 -84,82 86,88 175,174 260,263 -17,17 -34,34 -50,50zm175 0l3 0c-42,41 -83,83 -124,124 14,13 28,27 42,41 13,13 25,26 38,39l2 2 0 0 1 1c-21,21 -42,42 -63,63 -49,-48 -98,-98 -147,-147 23,-23 46,-46 69,-69 64,-64 128,-128 192,-192 -28,-28 -55,-55 -83,-83 20,-21 41,-42 61,-64 49,49 98,98 147,147 -46,46 -92,92 -138,138zm176 0l1 0c-3,3 -6,5 -8,8 -9,8 -17,16 -25,24 87,87 173,175 261,261l-3 0 2 3c-48,48 -98,96 -147,144 -21,-21 -41,-41 -62,-62 28,-28 56,-55 84,-83 -87,-88 -175,-174 -260,-263l5 -5c47,-47 94,-94 140,-140 21,20 42,41 63,62 -17,17 -34,34 -51,51zm176 0l2 0c-33,32 -64,65 -97,97 -21,-21 -42,-42 -63,-63l2 -1 -1 -1c28,-27 57,-54 84,-82 -86,-88 -174,-175 -260,-263 49,-48 96,-98 147,-145 20,21 40,42 61,62 -27,28 -55,56 -83,84 85,88 173,175 260,262 -18,17 -35,33 -52,50zm70 108l-15 14c28,28 56,56 84,84l0 0 1 1c-21,21 -42,43 -64,63 -49,-48 -98,-97 -147,-147 39,-38 77,-77 116,-115 48,-48 97,-97 145,-146 -27,-27 -55,-55 -83,-82 19,-23 40,-44 62,-65 49,49 98,98 147,147 -82,82 -164,164 -246,246zm267 -89l0 0c-6,1 -10,3 -12,6l0 0c-1,1 -2,3 -2,4 -2,4 -1,9 2,13 3,2 7,4 12,4l0 1 0 127 0 2c-47,-49 -95,-95 -142,-143 9,-9 19,-19 29,-28 37,-38 76,-75 113,-114l0 109 0 19zm-1159 267c-60,60 -121,121 -181,181 28,29 56,57 84,85 -21,21 -42,42 -62,62 -49,-49 -99,-97 -147,-147 58,-58 116,-116 174,-174l-1 0c5,-4 10,-9 14,-13l20 -20c18,-18 35,-36 53,-53 -28,-28 -56,-56 -84,-84l9 -8c17,-19 35,-38 54,-56 49,49 98,98 147,147 -27,26 -53,54 -80,80zm469 -219c46,47 92,93 139,139l0 0 0 1c-26,26 -51,52 -78,78 -60,61 -121,121 -182,182 28,28 56,56 84,84 -20,21 -41,42 -61,63 -51,-47 -99,-98 -148,-147 58,-58 116,-116 174,-174l0 0c2,-3 5,-5 8,-8 26,-26 52,-52 78,-78 -18,-18 -35,-35 -53,-53 -10,-10 -21,-20 -31,-30 20,-22 41,-43 63,-64l7 7zm460 56l0 0 -1 -1c21,-21 42,-41 63,-62l0 0 0 0c49,49 98,98 147,147 -87,87 -174,174 -261,260 28,28 56,56 84,84 -21,21 -42,42 -63,63 -50,-47 -98,-97 -147,-146 59,-58 117,-117 176,-175l-3 0c20,-19 41,-39 61,-59l27 -27c-22,-23 -45,-45 -68,-68l-15 -16zm-970 254c28,-28 56,-56 84,-84l0 0c2,-2 4,-4 6,-6 19,-19 38,-37 56,-56l0 1 2 -2c21,21 41,43 63,63l-3 0 1 1c-28,28 -56,55 -83,84 87,87 175,173 261,261 -52,46 -98,98 -149,145 -21,-21 -42,-41 -62,-62 29,-28 59,-55 85,-84 -87,-87 -174,-174 -261,-261zm530 1c27,-29 56,-57 84,-85l-1 0c3,-2 5,-4 7,-6 19,-19 37,-37 55,-56l1 1 0 -1c22,20 42,42 64,62l-2 0 0 1c-27,28 -55,55 -83,83 87,86 173,174 259,261 -48,50 -97,98 -146,146 -21,-20 -42,-41 -62,-63 28,-27 56,-56 84,-83 -87,-87 -173,-174 -260,-260zm529 -1c28,-28 56,-56 84,-84l-3 0c21,-19 41,-39 60,-59l0 2 0 57 0 68c-21,-1 -22,38 0,28l0 121 0 7c-48,-46 -94,-93 -141,-140zm-1148 91c21,-21 42,-42 62,-63 48,49 99,97 147,147 -87,86 -174,174 -261,260 29,27 58,54 85,83 -21,21 -42,42 -64,63 -48,-49 -98,-97 -145,-146 87,-87 174,-174 261,-262 -28,-27 -57,-53 -85,-82zm530 0c19,-22 40,-43 61,-63 49,48 98,98 147,146 -85,88 -173,172 -258,260 23,31 54,56 82,83 -20,22 -42,43 -63,64 -49,-48 -97,-97 -146,-145 86,-88 173,-174 260,-261 -27,-28 -55,-56 -83,-84zm528 -1c21,-21 42,-42 63,-62 49,49 98,98 147,147 -87,87 -174,173 -261,260 28,28 56,56 84,84 -21,20 -42,41 -62,62 -50,-48 -99,-98 -148,-147 87,-87 176,-171 261,-260 -28,-27 -56,-55 -84,-84zm-968 254c49,-49 97,-97 146,-145 22,20 42,41 63,62 -28,28 -56,56 -84,83 85,89 173,174 260,262 -50,48 -97,98 -147,145 -21,-21 -41,-42 -62,-63 28,-27 57,-55 83,-84 -87,-85 -174,-172 -259,-260zm529 0c49,-48 97,-96 146,-145 20,21 41,42 63,61 -27,29 -56,57 -84,85 87,87 173,174 260,260 -48,49 -97,98 -146,146 -21,-20 -42,-41 -62,-62 28,-28 55,-56 83,-83 -86,-88 -175,-173 -260,-262zm528 0c49,-45 95,-93 142,-140l0 122c-22,2 -26,39 0,32l0 129c-47,-49 -95,-95 -142,-143zm-1084 28c49,49 99,97 147,147 -87,87 -173,173 -260,260 27,28 55,56 83,83 -21,21 -42,42 -62,63 -49,-49 -99,-98 -147,-147 87,-87 175,-172 261,-259 -28,-29 -57,-57 -85,-85 21,-21 42,-42 63,-62zm467 61c21,-20 41,-41 62,-61 49,48 98,97 146,146 -86,86 -173,173 -260,260 28,28 56,56 85,84 -22,22 -43,43 -65,64 -48,-49 -98,-98 -146,-147 87,-87 173,-175 262,-260 -28,-29 -57,-56 -84,-86zm528 3c20,-22 42,-43 63,-63 48,48 97,97 146,146 -87,86 -174,173 -261,260 29,27 58,55 86,83 -21,22 -42,43 -64,64 -49,-49 -97,-98 -147,-146 86,-88 174,-175 261,-262 -27,-28 -56,-54 -84,-82zm90 252c47,-48 95,-94 141,-141l0 129c-20,1 -20,26 0,27l0 128c-47,-48 -95,-94 -141,-143zm-4606 -2442l3 0c-12,11 -23,22 -34,33l12 13c13,13 26,26 39,39l1 0 1 1c43,43 86,86 129,129 26,26 52,52 78,78l-3 0 2 2c-48,48 -97,97 -146,146 -21,-21 -42,-42 -62,-63 28,-28 56,-56 84,-84 -8,-8 -15,-16 -23,-24 -60,-59 -120,-119 -179,-179l0 0 0 -91 0 -26c28,-31 58,-59 87,-88 22,20 43,41 64,62 -18,17 -35,35 -53,52zm178 0l1 0c-4,4 -7,7 -11,10 -28,29 -57,57 -85,86l-1 0 0 0 -17 -17c-15,-15 -30,-30 -45,-45l0 0 -1 -1c9,-8 17,-17 26,-25 19,-20 39,-39 59,-59 -67,-68 -135,-135 -202,-203l0 -115c28,-31 59,-59 88,-89 21,21 42,42 62,63 -27,28 -55,56 -83,83 87,88 174,174 260,261 -17,17 -34,34 -51,51zm176 0l2 0c-42,40 -82,82 -123,123 20,21 40,41 61,61 7,8 15,15 23,21 -21,22 -42,43 -63,65l-1 -1 0 1c-49,-48 -98,-97 -146,-146l0 -1 0 0c86,-88 173,-174 260,-261 -28,-28 -56,-55 -84,-83 21,-21 42,-42 63,-63 49,49 97,97 146,146 -46,46 -92,92 -138,138zm176 0l2 0c-11,11 -23,22 -34,33l8 8c84,84 168,168 252,252l-3 0 3 2c-49,48 -98,97 -147,146 -20,-21 -41,-42 -62,-63 28,-28 56,-56 83,-84 -31,-31 -62,-63 -93,-94 -42,-43 -85,-85 -127,-128l-39 -39 0 0 -1 -1c49,-49 97,-97 146,-146 21,21 42,42 64,62 -18,18 -35,35 -52,52zm178 0l0 0c-3,3 -6,6 -9,9 -8,8 -16,15 -23,22 -22,22 -43,44 -65,65l-11 -11c-12,-12 -24,-24 -36,-37 -5,-5 -10,-10 -15,-15 10,-10 19,-20 29,-29 19,-18 37,-36 55,-55 -85,-88 -174,-173 -260,-261 49,-48 98,-97 146,-146 21,21 42,42 63,63 -27,28 -57,54 -84,82 86,88 175,174 260,263 -17,17 -34,34 -50,50zm175 0l3 0c-42,40 -83,82 -124,123 14,14 28,28 42,42l0 0c13,13 26,26 38,39l2 2 0 0 1 1c-21,21 -42,42 -63,63 -49,-49 -98,-98 -147,-147 23,-23 46,-46 69,-69 64,-64 128,-128 192,-192 -28,-28 -55,-55 -83,-83 20,-21 41,-42 61,-64 49,49 98,98 147,147 -46,46 -92,92 -138,138zm176 0l1 0c-3,3 -6,5 -8,7 -9,9 -17,17 -25,25 87,87 173,174 261,261l-3 0 2 2c-49,49 -98,97 -147,145 -21,-21 -41,-41 -62,-62 28,-28 56,-56 84,-83 -87,-88 -175,-174 -260,-263l5 -6c47,-46 94,-93 140,-140 21,21 42,42 63,63 -17,17 -34,34 -51,51zm176 0l2 0c-33,31 -64,65 -97,97 -21,-21 -42,-42 -63,-63l2 -1 -1 -1c28,-27 57,-54 84,-82 -86,-88 -174,-175 -260,-263 49,-48 96,-98 147,-145 20,21 40,41 61,61 -27,29 -55,57 -83,84 85,89 173,176 260,263 -18,16 -35,33 -52,50zm71 107l-16 15c28,28 56,56 84,84l1 1c-21,21 -42,42 -64,63 -49,-49 -98,-98 -147,-147 39,-38 77,-77 116,-115 48,-49 97,-97 145,-146 -27,-28 -55,-55 -83,-83 19,-22 40,-43 62,-64 49,49 98,98 147,147 -82,82 -164,164 -245,245zm266 -89l0 1c-1,0 -2,0 -3,0 -4,4 -8,9 -12,13 0,1 0,2 0,3l10 10c2,0 3,0 5,0l0 2 0 2c11,12 22,23 34,35l2 2c43,43 87,86 129,129 26,26 52,52 79,78l-3 0 2 2c-49,48 -98,97 -146,146 -21,-21 -42,-42 -63,-63 28,-28 56,-56 85,-84 -8,-8 -16,-16 -23,-24 -33,-31 -65,-63 -96,-95l0 1c-47,-49 -95,-95 -142,-143 9,-10 19,-19 29,-28 10,-10 20,-20 30,-30l0 -1c28,-31 58,-59 87,-88 21,20 42,41 63,62 -17,17 -35,35 -52,52l2 0c-6,6 -12,11 -17,17l0 1zm-1159 267c-60,61 -121,121 -181,182 28,28 56,56 84,85 -21,21 -42,41 -62,62 -49,-49 -99,-98 -147,-147 58,-58 116,-117 174,-174l-1 0c5,-5 9,-9 14,-13l0 -1 20 -19c18,-18 35,-36 53,-53 -28,-28 -56,-56 -84,-84l9 -8c17,-19 35,-38 54,-56 49,49 98,98 147,147 -27,26 -53,54 -80,79zm469 -217c46,46 93,92 139,138l0 0 0 0c-26,27 -51,53 -78,79 -60,60 -121,121 -182,182 28,28 56,56 84,84 -20,21 -41,42 -61,63 -51,-48 -99,-98 -148,-147 58,-58 116,-116 174,-174l0 0c2,-3 5,-5 7,-8 27,-26 53,-52 79,-79 -18,-17 -35,-35 -53,-52 -10,-10 -21,-20 -31,-31 20,-21 41,-43 63,-63l7 7 0 1zm460 55l0 0 -1 -1c21,-21 42,-41 63,-62l0 0 0 0c28,28 56,56 85,84l0 0c2,3 4,5 6,7 10,10 20,20 30,30 8,8 17,16 25,25l0 0 1 1 -24 23c-13,13 -26,26 -38,40l0 -1c-66,66 -132,132 -199,198 28,28 56,56 84,84 -21,20 -42,41 -63,63 -50,-48 -98,-97 -147,-146 59,-59 117,-117 176,-175l-3 0c20,-20 41,-39 61,-59 9,-9 18,-18 27,-28 -22,-22 -45,-44 -67,-67l-16 -16zm-1379 84l0 0c-20,21 -41,42 -61,63l0 -2 0 -123 0 -1c20,21 41,41 61,62l0 1zm-61 114c9,-10 18,-19 27,-28l-3 0c22,-20 43,-42 64,-63 21,21 41,43 63,63l0 0 1 0c-28,29 -58,56 -86,84 87,87 175,174 261,262 -48,49 -98,97 -148,144 -20,-20 -40,-41 -60,-61 27,-28 55,-56 83,-84 -67,-67 -135,-134 -202,-202l0 -115zm470 56c28,-28 56,-56 84,-84l0 0c2,-2 4,-4 6,-6 19,-19 37,-37 56,-56l0 1 2 -2c21,21 41,43 63,63l-3 0 1 0c-28,28 -56,56 -83,84 87,88 174,174 261,262 -52,46 -98,98 -149,145 -21,-21 -42,-42 -62,-63 29,-27 59,-54 85,-84 -87,-86 -174,-173 -261,-260zm530 0c27,-28 56,-56 84,-84l-1 0c3,-2 5,-5 7,-7 19,-18 37,-36 55,-55l1 0 0 0c22,20 42,41 64,62l-2 0 0 0c-27,28 -55,56 -83,84 87,86 173,173 259,261 -48,49 -97,97 -146,146 -21,-20 -42,-41 -62,-63 28,-28 56,-56 84,-84 -87,-86 -173,-173 -260,-260zm529 0c28,-28 56,-56 84,-84l-2 0 -1 0c21,-19 41,-39 60,-59l0 1 4 -5c22,21 42,43 64,63l0 0 0 0c-22,23 -45,45 -68,67l0 1 -1 0c-5,5 -10,10 -15,14 0,1 0,2 0,3l11 12c2,0 3,-1 5,-2l0 6c81,82 163,163 244,245 -49,49 -98,97 -148,144 -20,-20 -40,-41 -61,-61 28,-28 56,-56 84,-84 -67,-67 -136,-134 -202,-202l0 -1c-20,-20 -39,-39 -58,-58zm-1148 91c21,-21 42,-42 62,-64 48,50 98,98 147,148 -87,86 -174,173 -261,260 29,27 58,54 85,83 -21,21 -42,42 -64,63 -48,-49 -98,-97 -145,-146 87,-88 174,-174 261,-262 -28,-28 -57,-54 -85,-82zm530 0c19,-22 40,-43 61,-64 49,49 98,99 147,147 -85,88 -173,172 -258,260 23,31 54,56 82,83 -20,22 -42,43 -63,64 -49,-48 -97,-97 -146,-145 86,-88 173,-174 260,-261 -27,-28 -55,-56 -83,-84zm528 -1c21,-21 42,-42 63,-63l85 86 0 -2c19,22 41,42 61,63l0 0 1 1c-87,87 -174,173 -261,260 28,28 56,56 84,83 -21,21 -42,42 -62,63 -50,-48 -99,-98 -148,-147 87,-87 176,-171 261,-260 -28,-28 -56,-56 -84,-84zm-1439 21c20,22 41,42 61,63 -20,20 -41,40 -61,62l0 -125zm0 175c28,-30 59,-59 88,-88 21,21 42,42 62,63 -28,27 -55,55 -83,83 85,88 172,174 259,261 -48,49 -97,98 -146,146 -21,-21 -42,-41 -62,-62 27,-28 55,-56 84,-83 -67,-69 -135,-136 -202,-205l0 -115zm471 58c49,-49 97,-97 146,-146 22,20 42,41 63,63 -28,27 -56,56 -84,83 85,88 173,174 260,261 -50,49 -97,99 -147,146 -21,-21 -41,-42 -62,-63 28,-28 57,-55 83,-84 -87,-86 -174,-172 -259,-260zm529 0c49,-48 97,-97 146,-145 20,21 41,42 63,60 -27,30 -56,57 -84,86 87,87 173,173 260,260 -49,49 -97,98 -146,146 -21,-20 -42,-41 -62,-63 28,-27 55,-55 83,-83 -86,-87 -175,-173 -260,-261zm528 0c20,-19 39,-38 59,-57l0 -1c28,-30 58,-59 87,-88 22,21 42,42 63,63 -28,27 -56,55 -83,83l14 14c0,0 1,0 2,0l0 2c80,82 161,164 243,245 -48,49 -98,98 -146,146 -21,-21 -42,-41 -63,-62 28,-28 56,-56 84,-83 -39,-41 -79,-81 -118,-121l0 1c-47,-48 -95,-95 -142,-142zm-1084 27c49,49 99,98 147,148 -87,86 -173,173 -260,260 27,28 55,55 83,83 -21,21 -42,42 -62,63 -49,-49 -99,-98 -147,-147 87,-87 175,-172 261,-260 -28,-28 -57,-56 -85,-84 21,-21 42,-42 63,-63zm467 62c21,-20 41,-41 62,-62 49,49 98,98 146,146 -86,87 -173,174 -260,260 28,29 56,57 85,85 -22,22 -43,43 -65,64 -48,-50 -98,-98 -146,-147 87,-87 173,-175 262,-260 -28,-29 -57,-57 -84,-86zm528 3c20,-22 42,-43 63,-64 28,29 56,57 85,85l0 -1c19,22 41,42 61,63 -21,20 -42,40 -61,62l0 -1c-67,66 -133,132 -200,199 29,27 58,55 86,83 -21,22 -42,43 -64,64 -49,-49 -97,-98 -147,-146 86,-89 174,-175 261,-262 -27,-28 -56,-54 -84,-82zm-1439 20c20,22 41,42 61,63 -20,20 -41,40 -61,62l0 -125zm0 345c19,21 40,41 60,61 -20,21 -41,40 -60,61l0 -122zm1863 -1178l0 0c-3,4 -7,7 -10,10 -29,29 -57,57 -86,86l0 0 0 0 -18 -17c-15,-15 -30,-30 -45,-45l1 0 -1 -1c8,-8 17,-17 25,-25 20,-20 40,-39 60,-59 -40,-40 -80,-79 -119,-119l0 1c-47,-48 -95,-95 -141,-144 26,-26 52,-52 78,-78 8,-8 16,-16 25,-24 12,-13 25,-26 38,-39l0 1 4 -5c21,21 42,42 63,63 -22,23 -45,45 -67,67l0 3c-2,0 -3,1 -4,1l-11 11c0,1 0,2 0,3l13 12c0,0 1,1 2,1l0 1c81,82 163,163 244,245 -17,17 -34,34 -51,51zm175 0l3 0c-42,40 -82,82 -124,123 21,21 41,41 61,61 8,8 16,15 24,21 -21,22 -42,43 -64,65l0 -1 -1 1c-49,-48 -97,-97 -146,-146l1 -1 -1 0c86,-88 174,-174 260,-261 -28,-28 -55,-55 -83,-83 20,-21 41,-42 63,-63 48,49 97,97 146,146 -46,46 -93,92 -139,138zm176 0l3 0c-12,11 -23,22 -34,33l8 8c84,84 167,168 252,252l-3 0 2 2c-49,48 -97,97 -146,146 -21,-21 -42,-42 -62,-63 27,-28 55,-56 83,-84 -31,-31 -62,-63 -93,-94 -43,-43 -85,-86 -128,-129l-38 -38 0 0 -1 -1c49,-49 97,-97 146,-146 21,21 42,42 63,62 -17,18 -35,35 -52,52zm178 0l1 0c-4,3 -7,6 -10,9 -7,8 -15,15 -23,22 -21,22 -42,44 -64,65l-11 -11c-12,-12 -24,-24 -36,-37 -5,-5 -10,-10 -15,-15 9,-10 19,-20 29,-29 18,-18 36,-36 55,-55 -86,-88 -174,-173 -260,-261 49,-48 97,-97 146,-146 21,21 42,42 63,63 -28,28 -57,54 -85,82 86,88 175,174 260,263 -16,17 -33,34 -50,50zm176 0l2 0c-42,40 -82,82 -123,123 13,14 27,28 41,42 13,13 26,25 39,38l2 3 0 0 1 1c-21,21 -42,42 -64,63 -49,-49 -98,-98 -147,-147 23,-23 46,-46 69,-69 64,-64 129,-128 193,-192 -28,-28 -56,-55 -84,-83 21,-21 42,-42 62,-64 49,49 98,98 147,147 -46,46 -92,92 -138,138zm176 0l0 0c-2,3 -5,5 -8,7 -8,9 -16,17 -25,25 87,87 174,174 261,261l-3 0 3 2c-49,49 -98,97 -148,145 -20,-21 -41,-41 -61,-62 28,-28 56,-56 83,-83 -87,-88 -175,-174 -260,-263l6 -6c47,-46 93,-93 140,-140 21,21 42,42 63,63 -17,17 -34,34 -51,51zm175 0l3 0c-33,31 -65,65 -97,97 -21,-21 -42,-42 -63,-63l1 -1 -1 -1c28,-27 57,-54 84,-82 -85,-88 -173,-175 -259,-263 49,-48 96,-98 146,-145 20,21 41,41 62,61 -28,29 -56,57 -84,84 86,89 174,176 261,263 -18,16 -36,33 -53,50zm71 107l-15 15c28,28 56,56 84,84l1 1c-22,21 -43,42 -64,63 -49,-49 -98,-98 -147,-147 38,-38 76,-77 115,-115 49,-49 98,-97 146,-146 -28,-28 -55,-55 -83,-83 19,-22 40,-43 61,-64 29,29 58,58 87,87l0 -1c4,4 7,8 11,12l35 34c5,5 10,10 14,15 -4,5 -9,10 -14,15l-34 33c-4,4 -8,9 -12,13l0 -1c-61,62 -123,124 -185,185zm266 -88l0 0 0 0c-5,5 -9,9 -14,14l12 12c1,0 2,0 2,0l0 2 0 0c13,13 25,25 37,38l1 0 1 1c43,43 86,86 128,129 27,26 53,52 79,78l-3 0 2 2c-48,48 -97,97 -146,146 -21,-21 -42,-42 -62,-63 28,-28 56,-56 84,-84 -8,-8 -15,-16 -23,-24 -33,-32 -65,-64 -98,-97l0 1 0 2c-46,-49 -95,-95 -142,-143 10,-10 19,-19 29,-28 15,-15 29,-30 44,-44 16,-17 33,-33 49,-49 7,-7 14,-14 20,-21l0 1 6 -6c22,20 43,41 64,62 -18,17 -35,35 -53,52l3 0c-7,6 -13,12 -20,19zm-1158 266c-61,61 -121,121 -182,182 28,28 57,56 85,85 -21,21 -42,41 -63,62 -49,-49 -98,-98 -147,-147 58,-58 116,-117 174,-174l0 0c5,-5 9,-9 14,-14 6,-6 13,-13 20,-19 17,-18 35,-36 53,-53 -29,-28 -56,-56 -84,-84l8 -8c18,-19 36,-38 54,-56 49,49 98,98 147,147 -26,26 -52,53 -79,79zm469 -218c46,47 92,93 139,139l0 0 0 0c-26,27 -51,53 -78,79 -61,61 -122,121 -182,182 27,28 55,56 84,84 -20,21 -41,42 -61,63 -51,-48 -99,-98 -149,-147 58,-58 117,-116 175,-174l-1 0c3,-3 5,-5 8,-8 26,-26 53,-52 79,-79 -18,-17 -36,-35 -53,-52 -11,-10 -21,-20 -32,-31 21,-21 42,-43 63,-63l8 7zm460 56l0 0 -1 -1c21,-21 41,-41 62,-62l0 0 1 0c28,29 57,57 86,86l0 -1 0 -1c20,21 41,41 61,62l0 1 0 0c-20,21 -41,42 -61,63l0 -2 0 -1c-67,67 -133,134 -200,200 28,28 56,56 84,84 -22,20 -43,41 -63,63 -50,-48 -99,-97 -147,-146 58,-59 117,-117 175,-175l-3 0c21,-20 41,-39 62,-59 9,-9 18,-18 27,-28 -23,-22 -46,-45 -68,-67l-15 -16zm-970 254c28,-28 56,-56 84,-84l0 0c2,-2 4,-4 6,-6 19,-19 37,-37 56,-56l0 1 2 -2c20,21 40,43 62,63l-2 0 0 0c-27,28 -56,56 -83,84 87,88 175,174 261,262 -52,46 -98,98 -149,145 -20,-21 -41,-42 -61,-63 28,-27 58,-54 85,-84 -88,-86 -174,-173 -261,-260zm530 0c27,-28 55,-56 83,-84l0 0c2,-2 4,-4 7,-7 18,-18 37,-36 55,-55l0 0 1 0c21,20 42,41 64,62l-3 0 1 0c-28,28 -56,56 -84,84 87,86 174,173 259,261 -47,49 -97,97 -145,146 -22,-20 -43,-41 -63,-63 29,-28 56,-56 85,-84 -87,-86 -174,-173 -260,-260zm529 0c28,-28 56,-56 84,-84l-1 0 -2 0c21,-19 40,-39 59,-59l0 2 0 1c2,-3 5,-5 7,-7 21,21 41,43 63,63l0 0 1 0c-28,29 -58,56 -86,84l12 12c1,0 2,0 3,-1l0 4c82,82 165,164 246,247 -48,49 -98,97 -148,144 -20,-20 -40,-41 -60,-61 27,-28 55,-56 83,-84 -53,-53 -106,-105 -159,-158 -34,-35 -68,-69 -102,-103zm-1148 91c21,-21 42,-42 62,-64 48,50 98,98 146,148 -87,86 -173,173 -260,260 29,27 57,54 85,83 -22,21 -43,42 -64,63 -49,-49 -98,-97 -146,-146 87,-88 175,-174 261,-262 -28,-28 -57,-54 -84,-82zm529 0c20,-22 41,-43 62,-64 49,49 97,99 147,147 -85,88 -173,172 -258,260 22,31 54,56 82,83 -21,22 -42,43 -63,64 -49,-48 -97,-97 -147,-145 86,-88 174,-174 260,-261 -27,-28 -55,-56 -83,-84zm529 -1c21,-21 41,-42 62,-63 29,29 58,58 87,87l0 -3c20,22 41,42 61,63l-1 1 0 0 -51 51c-3,3 -6,6 -9,10l0 -1c-67,67 -133,133 -200,200 28,28 56,56 84,83 -21,21 -42,42 -62,63 -50,-48 -99,-98 -148,-147 87,-87 176,-171 261,-260 -28,-28 -57,-56 -84,-84zm-968 254c48,-49 97,-97 145,-146 22,20 43,41 63,63 -28,27 -55,56 -84,83 86,88 174,174 260,261 -49,49 -97,99 -147,146 -20,-21 -41,-42 -61,-63 28,-28 56,-55 83,-84 -87,-86 -174,-172 -259,-260zm529 0c48,-48 97,-97 145,-145 21,21 42,42 64,60 -27,30 -56,57 -85,86 87,87 174,173 261,260 -49,49 -98,98 -146,146 -21,-20 -42,-41 -63,-63 28,-27 56,-55 83,-83 -86,-87 -174,-173 -259,-261zm527 0c24,-22 47,-45 70,-68 15,-15 31,-31 47,-46 8,-9 17,-18 25,-26l0 0 7 -6c21,21 42,42 62,63 -28,27 -55,55 -83,83l14 14 0 0 0 0c81,83 163,165 245,247 -48,49 -97,98 -146,146 -21,-21 -42,-41 -62,-62 27,-28 55,-56 84,-83 -40,-41 -80,-82 -121,-123l0 3c-46,-48 -95,-95 -142,-142zm-1084 27c49,49 99,98 147,148 -87,86 -173,173 -260,260 28,28 56,55 84,83 -21,21 -42,42 -63,63 -49,-49 -98,-98 -147,-147 87,-87 175,-172 261,-260 -28,-28 -56,-56 -84,-84 21,-21 41,-42 62,-63zm467 62c21,-20 42,-41 63,-62 49,49 97,98 146,146 -87,87 -173,174 -260,260 28,29 56,57 84,85 -21,22 -42,43 -64,64 -49,-50 -98,-98 -147,-147 88,-87 174,-175 263,-260 -28,-29 -57,-57 -85,-86zm529 3c20,-22 41,-43 62,-64 29,29 58,58 87,87l0 -3c20,22 41,42 61,63 -20,20 -41,40 -61,62l0 -3c-67,67 -134,134 -201,201 29,27 58,55 85,83 -21,22 -42,43 -64,64 -48,-49 -97,-98 -146,-146 86,-89 174,-175 261,-262 -27,-28 -57,-54 -84,-82zm-1356 -2190l17 0c-6,5 -12,11 -17,17l0 2c-1,0 -2,0 -3,0 -4,4 -8,8 -12,12 0,1 0,2 0,4l11 11c1,0 3,0 4,0l0 3c81,82 163,162 243,245 -49,49 -98,98 -146,146 -21,-20 -42,-41 -63,-62 28,-28 56,-56 85,-84 -40,-40 -80,-80 -119,-120l0 1c-47,-48 -95,-95 -142,-142 11,-11 22,-22 33,-33l26 0 83 0zm1586 0l20 0c-7,6 -13,12 -20,19l0 0 0 0c-5,5 -9,9 -14,14l13 13 1 0 0 1c82,82 165,164 245,247 -48,49 -97,98 -146,146 -21,-20 -42,-41 -62,-62 28,-28 56,-56 84,-84 -40,-41 -80,-81 -121,-121l0 2c-46,-48 -95,-95 -142,-142 11,-11 22,-22 34,-33l27 0 81 0zm195 1377l1 0c-4,4 -7,7 -11,10 -29,29 -57,57 -85,86l-1 0 0 0 -17 -17c-15,-15 -30,-30 -45,-45l0 0 -1 -1c9,-8 17,-17 26,-25 19,-20 39,-39 59,-59 -40,-41 -80,-81 -121,-121l0 3c-46,-48 -94,-95 -140,-144 46,-47 94,-93 140,-141l0 3c2,-2 5,-4 7,-7 21,21 42,42 62,63 -23,23 -46,46 -69,69l0 1 -1 0 -13 13 14 15 0 0 0 0c82,82 165,163 246,246 -17,17 -34,34 -51,51zm176 0l3 0c-43,40 -83,82 -124,123 20,21 40,41 61,61 7,8 15,15 23,21 -21,22 -42,43 -63,65l-1 -1 0 1c-49,-48 -98,-97 -146,-146l0 -1 0 0c86,-88 173,-174 260,-261 -28,-28 -56,-55 -84,-83 21,-21 42,-42 63,-63 49,49 97,97 146,146 -46,46 -92,92 -138,138zm176 0l2 0c-11,11 -23,22 -34,33l8 8c84,84 168,168 252,252l-3 0 3 2c-49,48 -98,97 -147,146 -20,-21 -41,-42 -62,-63 28,-28 56,-56 83,-84 -31,-31 -62,-63 -93,-94 -42,-43 -85,-86 -127,-129l-39 -38 0 0 -1 -1c49,-49 98,-97 146,-146 21,21 42,42 64,62 -18,18 -35,35 -52,52zm178 0l0 0c-3,3 -6,6 -9,9 -8,7 -16,15 -23,22 -22,22 -43,44 -65,65l-11 -11c-12,-12 -24,-24 -36,-37l-15 -15c10,-10 19,-19 29,-29 19,-18 37,-36 55,-55 -85,-88 -174,-173 -260,-261 49,-48 98,-97 146,-146 21,21 42,42 63,63 -27,28 -57,54 -84,82 86,88 175,174 260,263 -17,17 -34,34 -50,50zm175 0l3 0c-42,40 -83,82 -124,123 14,14 28,28 42,42 13,13 26,26 38,39l2 2 0 0 1 1c-21,21 -42,42 -63,63 -49,-49 -98,-98 -147,-147 23,-23 46,-46 69,-69 64,-64 128,-128 192,-192 -28,-28 -55,-55 -83,-83 20,-21 41,-42 61,-64 49,49 98,98 147,147 -46,46 -92,92 -138,138zm176 0l1 0c-3,3 -6,5 -8,7 -9,9 -17,17 -25,25 87,87 173,174 261,261l-3 0 2 2c-48,49 -98,97 -147,145 -21,-21 -41,-41 -62,-62 28,-28 56,-56 84,-83 -87,-88 -175,-174 -260,-263l5 -6c47,-46 94,-93 140,-140 21,21 42,42 63,63 -17,17 -34,34 -51,51zm176 0l2 0c-33,31 -64,65 -97,97 -21,-21 -42,-42 -63,-63l2 -1 -1 -1c28,-27 57,-54 84,-82 -86,-88 -174,-175 -260,-263 49,-48 96,-98 147,-145 20,21 40,41 61,61 -27,29 -55,57 -83,84 85,89 173,176 260,263 -18,16 -35,33 -52,50zm71 107l-16 15c28,28 56,56 84,84l1 1c-21,21 -42,42 -64,63 -49,-49 -98,-98 -147,-147 39,-38 77,-77 116,-115 48,-49 97,-97 145,-146 -27,-28 -55,-55 -83,-83 19,-22 40,-43 62,-64 49,49 98,98 147,147 -82,82 -164,164 -245,245zm266 -89l0 1c-6,1 -10,3 -12,6l0 0 -1 0c0,1 -1,2 -1,4 -2,4 -1,9 2,12 3,3 7,4 12,4l0 2 0 127 0 2c-47,-49 -95,-95 -142,-143 9,-10 19,-19 29,-28 37,-38 76,-75 113,-114l0 109 0 18zm-1159 267c-60,61 -121,121 -181,182 28,28 56,56 84,85 -21,21 -42,41 -62,62 -49,-49 -99,-98 -147,-147 58,-58 116,-117 174,-174l-1 0c5,-5 10,-9 14,-14l20 -19c18,-18 35,-36 53,-53 -28,-28 -56,-56 -84,-84l9 -8c17,-19 35,-38 54,-56 49,49 98,98 147,147 -27,26 -53,53 -80,79zm469 -218c46,47 92,93 139,139l0 0 0 0c-26,27 -51,53 -78,79 -60,60 -121,121 -182,182 28,28 56,56 84,84 -20,21 -41,42 -61,63 -51,-48 -99,-98 -148,-147 58,-58 116,-116 174,-174l0 0c2,-3 5,-5 7,-8 27,-26 53,-52 79,-79 -18,-17 -35,-35 -53,-52 -10,-10 -21,-20 -31,-31 20,-21 41,-43 63,-63l7 7zm460 56l0 0 -1 -1c21,-21 42,-41 63,-62l0 0 0 0c49,49 98,98 147,147 -87,87 -174,173 -261,260 28,28 56,56 84,84 -21,20 -42,41 -63,63 -50,-48 -98,-97 -147,-146 59,-59 117,-117 176,-175l-3 0c20,-20 41,-39 61,-59 9,-9 18,-18 27,-28 -22,-22 -45,-44 -67,-67l-16 -16zm-970 254c28,-28 56,-56 84,-84l0 0c2,-2 4,-4 6,-6 19,-19 37,-37 56,-56l0 1 2 -2c21,21 41,43 63,63l-3 0 1 0c-28,28 -56,56 -83,84 87,88 175,174 261,262 -52,46 -98,98 -149,145 -21,-21 -42,-42 -62,-63 29,-27 59,-54 85,-84 -87,-86 -174,-173 -261,-260zm530 0c27,-28 56,-56 84,-84l-1 0c3,-2 5,-4 7,-7 19,-18 37,-36 55,-55l1 0 0 0c22,20 42,41 64,62l-2 0 0 0c-27,28 -55,56 -83,84 87,86 173,173 259,261 -48,49 -97,97 -146,146 -21,-20 -42,-41 -62,-63 28,-28 56,-56 84,-84 -87,-86 -173,-173 -260,-260zm529 0c28,-28 56,-56 84,-84l-3 0c21,-19 41,-39 60,-59l0 2 0 57 0 68c-21,-1 -22,37 0,27l0 121 0 8c-48,-46 -94,-93 -141,-140zm-1148 91c21,-21 42,-42 62,-64 48,50 99,98 147,148 -87,86 -174,173 -261,260 29,27 58,54 85,83 -21,21 -42,42 -64,63 -48,-49 -98,-97 -145,-146 87,-88 174,-174 261,-262 -28,-28 -57,-54 -85,-82zm530 0c19,-22 40,-43 61,-64 49,49 98,99 147,147 -85,88 -173,172 -258,260 23,31 54,56 82,83 -20,22 -42,43 -63,64 -49,-48 -97,-97 -146,-145 86,-88 173,-174 260,-261 -27,-28 -55,-56 -83,-84zm528 -1c21,-21 42,-42 63,-63 49,49 98,99 147,148 -87,87 -174,173 -261,260 28,28 56,56 84,83 -21,21 -42,42 -62,63 -50,-48 -99,-98 -148,-147 87,-87 176,-171 261,-260 -28,-28 -56,-56 -84,-84zm-968 254c49,-49 97,-97 146,-146 22,20 42,41 63,63 -28,27 -56,56 -84,83 85,88 173,174 260,261 -50,49 -97,99 -147,146 -21,-21 -41,-42 -62,-63 28,-28 57,-55 83,-84 -87,-86 -174,-172 -259,-260zm529 0c49,-48 97,-97 146,-145 20,21 41,42 63,60 -27,30 -56,57 -84,86 87,87 173,173 260,260 -48,49 -97,98 -146,146 -21,-20 -42,-41 -62,-63 28,-27 55,-55 83,-83 -86,-87 -175,-173 -260,-261zm528 0c49,-45 95,-93 142,-140l0 122c-22,2 -26,39 0,32l0 128c-47,-48 -95,-95 -142,-142zm-1084 27c49,49 99,98 147,148 -87,86 -173,173 -260,260 27,28 55,55 83,83 -21,21 -42,42 -62,63 -49,-49 -99,-98 -147,-147 87,-87 175,-172 261,-260 -28,-28 -57,-56 -85,-84 21,-21 42,-42 63,-63zm467 62c21,-20 41,-41 62,-62 49,49 98,98 146,146 -86,87 -173,174 -260,260 28,29 56,57 85,85 -22,22 -43,43 -65,64 -48,-50 -98,-98 -146,-147 87,-87 173,-175 262,-260 -28,-29 -57,-57 -84,-86zm528 3c20,-22 42,-43 63,-64 48,49 97,98 146,146 -87,87 -174,174 -261,261 29,27 58,55 86,83 -21,22 -42,43 -64,64 -49,-49 -97,-98 -147,-146 86,-89 174,-175 261,-262 -27,-28 -56,-54 -84,-82zm90 251c47,-47 95,-93 141,-141l0 130c-20,1 -20,26 0,27l0 128c-47,-48 -95,-95 -141,-144zm-1377 -2441l125 0c-34,31 -64,64 -97,96 -21,-21 -42,-42 -63,-63 12,-11 23,-23 35,-33zm177 0l126 0c-43,40 -83,82 -124,123 27,28 55,56 83,83 -21,22 -42,43 -63,64 -49,-48 -98,-97 -146,-146 41,-41 82,-84 124,-124zm176 0l125 0c-11,11 -23,22 -34,33 86,88 173,175 260,262 -49,48 -98,97 -147,145 -20,-20 -41,-41 -62,-62 28,-28 56,-56 83,-84 -85,-88 -172,-174 -259,-261 11,-11 22,-22 34,-33zm176 0l125 0c-33,31 -64,64 -97,96 -20,-21 -41,-42 -62,-63 11,-11 22,-22 34,-33zm178 0l125 0c-43,41 -83,83 -125,124 29,27 57,54 84,83 -21,21 -42,42 -63,63 -49,-49 -98,-98 -147,-147 41,-42 83,-83 126,-123zm175 0l124 0c-12,10 -23,21 -35,32 87,88 176,174 262,263 -48,49 -98,96 -147,144 -21,-20 -41,-41 -62,-61 28,-28 56,-56 84,-84 -87,-87 -175,-173 -260,-262 11,-11 22,-22 34,-32zm176 0l125 0c-33,31 -64,65 -97,96 -21,-20 -42,-41 -63,-62 12,-12 23,-23 35,-34zm176 0l124 0c-41,41 -82,82 -123,123 28,28 56,57 86,84 -21,21 -42,42 -64,63 -49,-49 -98,-98 -147,-147 41,-41 82,-83 124,-123zm175 0l109 0 0 19c-20,1 -20,26 0,27l0 129c-47,-48 -95,-95 -142,-142 11,-11 22,-22 33,-33zm-1118 61c50,47 98,97 147,145 -87,88 -174,174 -260,261 28,28 56,56 84,85 -21,20 -42,41 -62,62 -49,-49 -99,-98 -147,-147 86,-87 173,-174 261,-260 -29,-28 -57,-56 -85,-84 21,-21 42,-41 62,-62zm468 62c20,-21 41,-42 63,-62 48,48 96,97 145,145 -86,88 -173,174 -260,260 28,29 56,57 84,85 -20,21 -41,42 -61,63 -51,-48 -99,-98 -148,-147 86,-87 174,-174 260,-261 -28,-27 -56,-55 -83,-83zm529 0c21,-21 42,-42 62,-63 49,49 98,97 147,147 -87,86 -174,173 -261,260 28,28 56,56 84,83 -21,21 -42,42 -63,64 -50,-48 -98,-97 -147,-147 88,-86 175,-173 261,-261 -28,-27 -55,-55 -83,-83zm-1440 22c4,5 8,9 12,13 8,9 17,17 25,25 8,8 16,16 24,24 -20,21 -41,41 -61,63l0 -3c-67,67 -133,133 -200,200 28,28 56,56 84,83 -22,21 -43,42 -63,64 -50,-48 -99,-97 -147,-147 87,-86 174,-173 261,-261 -28,-27 -56,-55 -83,-83 21,-21 41,-42 62,-63 28,29 57,57 86,86l0 -1zm81 94l7 -7c21,21 42,41 64,61 -28,29 -58,55 -86,84l12 12c1,0 2,0 3,-1l0 4c82,82 165,164 246,246 -48,50 -98,98 -148,145 -20,-21 -40,-41 -60,-61 27,-28 55,-56 83,-84 -53,-53 -106,-106 -159,-159 -34,-34 -68,-68 -102,-102 46,-48 94,-94 140,-142l0 4zm389 138c48,-49 98,-97 146,-146 21,21 42,41 63,62 -28,28 -56,56 -83,84 87,88 175,174 261,262 -52,46 -98,98 -149,145 -21,-21 -42,-42 -62,-63 29,-27 59,-54 85,-84 -87,-86 -174,-173 -261,-260zm530 0c48,-49 97,-97 145,-146 22,20 42,41 63,62 -27,28 -55,56 -83,84 87,86 173,173 259,260 -48,50 -97,98 -146,147 -21,-20 -42,-41 -62,-63 28,-28 56,-56 84,-84 -87,-86 -173,-173 -260,-260zm529 0c47,-48 95,-94 141,-142l0 126c-21,-1 -22,37 0,27l0 121 0 8c-48,-47 -94,-94 -141,-140zm-1148 91c21,-21 42,-42 62,-64 48,50 99,98 147,148 -87,86 -174,173 -261,260 29,27 58,54 85,82 -21,21 -42,43 -64,64 -48,-49 -98,-97 -145,-147 87,-87 174,-174 261,-261 -28,-28 -57,-54 -85,-82zm530 0c19,-22 40,-43 61,-64 49,49 98,98 147,147 -85,87 -173,172 -258,259 23,32 54,57 82,84 -20,21 -42,43 -63,64 -49,-49 -97,-98 -146,-146 86,-87 173,-173 260,-260 -27,-29 -55,-56 -83,-84zm528 -1c21,-21 42,-42 63,-63 49,49 98,98 147,148 -87,86 -174,173 -261,260 28,28 56,55 84,83 -21,21 -42,42 -62,63 -50,-48 -99,-98 -148,-148 87,-86 176,-171 261,-259 -28,-28 -56,-56 -84,-84zm-1439 21c20,22 41,42 61,62l-1 1 0 1 -51 51c-3,3 -6,6 -9,10l0 -1c-67,67 -133,133 -200,200 28,28 56,55 84,83 -21,21 -42,42 -62,63 -50,-48 -99,-98 -148,-148 87,-86 176,-171 261,-259 -28,-28 -57,-56 -84,-84 21,-21 41,-42 62,-63 29,29 58,58 87,87l0 -3zm9 165c15,-16 31,-31 47,-46 8,-9 17,-18 25,-27l0 1 7 -6c21,20 42,41 62,63 -28,27 -55,55 -83,83l14 13 0 0 0 1c81,83 163,165 245,246 -48,50 -97,98 -146,147 -21,-21 -42,-42 -62,-63 27,-27 55,-55 84,-82 -40,-42 -80,-82 -121,-123l0 3c-46,-48 -95,-95 -142,-143 24,-22 47,-44 70,-67zm462 68c49,-49 97,-97 146,-146 22,20 42,41 63,62 -28,28 -56,56 -84,84 85,88 173,174 260,261 -50,49 -97,98 -147,146 -21,-21 -41,-42 -62,-63 28,-28 57,-55 83,-84 -87,-86 -174,-172 -259,-260zm529 0c49,-48 97,-97 146,-145 20,21 41,41 63,60 -27,29 -56,57 -84,86 87,86 173,173 260,260 -48,49 -97,97 -146,146 -21,-21 -42,-42 -62,-63 28,-27 55,-55 83,-83 -86,-87 -175,-173 -260,-261zm528 -1c49,-45 95,-92 142,-140l0 122c-22,2 -26,40 0,32l0 129c-47,-48 -95,-95 -142,-143zm-1084 28c49,49 99,98 147,148 -87,86 -173,173 -260,259 27,29 55,56 83,84 -21,21 -42,42 -62,63 -49,-49 -99,-98 -147,-148 87,-86 175,-172 261,-259 -28,-28 -57,-56 -85,-84 21,-21 42,-42 63,-63zm467 62c21,-21 41,-41 62,-62 49,49 98,97 146,146 -86,87 -173,174 -260,260 28,29 56,57 85,85 -22,22 -43,43 -65,63 -48,-49 -98,-97 -146,-147 87,-86 173,-174 262,-259 -28,-29 -57,-57 -84,-86zm528 3c20,-22 42,-43 63,-64 48,49 97,98 146,146 -87,87 -174,174 -261,260 29,28 58,55 86,84 -21,22 -42,43 -64,63 -49,-49 -97,-97 -147,-146 86,-88 174,-174 261,-261 -27,-29 -56,-54 -84,-82zm-1439 20c20,21 41,41 61,62 -20,21 -41,41 -61,62l0 -2c-67,67 -134,134 -201,200 29,28 58,55 85,84 -21,22 -42,43 -64,63 -48,-49 -97,-97 -146,-146 86,-88 174,-174 261,-261 -27,-29 -57,-54 -84,-82 20,-22 41,-43 62,-64 29,29 58,58 87,87l0 -3zm1529 231c47,-47 95,-93 141,-141l0 129c-20,2 -20,26 0,28l0 128c-47,-48 -95,-95 -141,-144zm-2966 -1064l125 0c-33,31 -64,64 -96,96 -21,-21 -42,-42 -63,-63 11,-11 22,-23 34,-33zm178 0l125 0c-42,40 -82,82 -124,123 28,28 56,56 84,83 -21,22 -42,43 -64,64 -49,-48 -97,-97 -146,-146 42,-41 82,-84 125,-124zm175 0l126 0c-12,11 -23,22 -34,33 85,88 172,175 259,262 -49,48 -97,97 -146,145 -21,-20 -42,-41 -62,-62 27,-28 55,-56 83,-84 -86,-88 -172,-174 -259,-261 11,-11 22,-22 33,-33zm176 0l126 0c-34,31 -64,64 -97,96 -21,-21 -42,-42 -62,-63 11,-11 22,-22 33,-33zm178 0l125 0c-42,41 -83,83 -124,124 28,27 57,54 84,83 -21,21 -42,42 -64,63 -49,-49 -98,-98 -147,-147 42,-42 83,-83 126,-123zm176 0l123 0c-11,10 -23,21 -34,32 86,88 175,174 262,263 -49,49 -98,96 -148,144 -20,-20 -41,-41 -61,-61 28,-28 56,-56 83,-84 -87,-87 -175,-173 -260,-262 12,-11 23,-22 35,-32zm175 0l126 0c-33,31 -65,65 -97,96 -21,-20 -42,-41 -63,-62 11,-12 23,-23 34,-34zm176 0l125 0c-41,41 -82,82 -123,123 28,28 56,57 86,84 -22,21 -43,42 -64,63 -49,-49 -98,-98 -147,-147 41,-41 81,-83 123,-123zm-942 61c49,47 97,97 146,145 -86,88 -173,174 -260,261 28,28 57,56 85,85 -21,20 -42,41 -63,62 -49,-49 -98,-98 -147,-147 87,-87 173,-174 261,-260 -28,-28 -56,-56 -84,-84 21,-21 41,-41 62,-62zm467 62c21,-21 42,-42 63,-62 49,48 97,97 146,145 -86,88 -174,174 -260,260 27,29 55,57 84,85 -20,21 -41,42 -61,63 -51,-48 -99,-98 -149,-147 87,-87 174,-174 261,-261 -28,-27 -56,-55 -84,-83zm-872 107c-13,13 -26,26 -38,40l0 -1c-66,66 -132,132 -199,198 28,28 56,56 84,83 -21,21 -42,42 -63,64 -50,-48 -98,-97 -147,-147 88,-86 175,-173 261,-261 -28,-27 -55,-55 -83,-83 21,-21 42,-42 62,-63 49,49 98,97 147,147l-24 23zm45 7l4 -5c21,21 42,41 64,61 -22,23 -45,45 -68,67l0 1 -1 0c-5,4 -10,9 -15,14 0,1 0,2 0,3l11 12c2,-1 3,-1 5,-2l0 6c81,81 163,162 244,244 -49,50 -98,98 -148,145 -20,-21 -40,-41 -61,-61 28,-28 56,-56 84,-84 -67,-68 -136,-134 -202,-203l0 -1c-20,-19 -39,-38 -58,-57 47,-48 95,-94 141,-142l0 2zm387 140c48,-49 97,-97 146,-146 21,21 42,41 62,62 -27,28 -56,56 -83,84 87,88 175,174 261,262 -52,46 -98,98 -149,145 -20,-21 -41,-42 -61,-63 28,-27 58,-54 85,-84 -88,-86 -174,-173 -261,-260zm530 0c47,-49 97,-97 145,-146 21,20 42,41 63,62 -28,28 -56,56 -84,84 87,86 174,173 259,260 -47,50 -97,98 -145,147 -22,-20 -43,-41 -63,-63 29,-28 56,-56 85,-84 -87,-86 -174,-173 -260,-260zm-619 91c21,-21 42,-42 62,-64 48,50 98,98 146,148 -87,86 -173,173 -260,260 29,27 57,54 85,82 -22,21 -43,43 -64,64 -49,-49 -98,-97 -146,-147 87,-87 175,-174 261,-261 -28,-28 -57,-54 -84,-82zm529 0c20,-22 41,-43 62,-64 49,49 97,98 147,147 -85,87 -173,172 -258,259 22,32 54,57 82,84 -21,21 -42,43 -63,64 -49,-49 -97,-98 -147,-146 86,-87 174,-173 260,-260 -27,-29 -55,-56 -83,-84zm-910 20c19,22 41,42 61,62l0 1 1 1c-87,86 -174,173 -261,260 28,28 56,55 84,83 -21,21 -42,42 -62,63 -50,-48 -99,-98 -148,-148 87,-86 176,-171 261,-259 -28,-28 -56,-56 -84,-84 21,-21 42,-42 63,-63l85 85 0 -1zm0 175c28,-30 58,-59 87,-88 22,20 42,41 63,63 -28,27 -56,55 -83,83l14 14c0,0 1,0 2,-1l0 3c80,82 161,164 243,244 -48,50 -98,98 -146,147 -21,-21 -42,-42 -63,-63 28,-27 56,-55 84,-82 -39,-41 -79,-81 -118,-121l0 1c-47,-48 -95,-95 -142,-143 20,-18 39,-37 59,-56l0 -1zm471 58c48,-49 97,-97 145,-146 22,20 43,41 63,62 -28,28 -55,56 -84,84 86,88 174,174 260,261 -49,49 -97,98 -147,146 -20,-21 -41,-42 -61,-63 28,-28 56,-55 83,-84 -87,-86 -174,-172 -259,-260zm529 0c48,-48 97,-97 145,-145 21,21 42,41 64,60 -27,29 -56,57 -85,86 87,86 174,173 261,260 -49,49 -98,97 -146,146 -21,-21 -42,-42 -63,-63 28,-27 56,-55 83,-83 -86,-87 -174,-173 -259,-261zm-557 27c49,49 99,98 147,148 -87,86 -173,173 -260,259 28,29 56,56 84,84 -21,21 -42,42 -63,63 -49,-49 -98,-98 -147,-148 87,-86 175,-172 261,-259 -28,-28 -56,-56 -84,-84 21,-21 41,-42 62,-63zm467 62c21,-21 42,-41 63,-62 49,49 97,97 146,146 -87,87 -173,174 -260,260 28,29 56,57 84,85 -21,22 -42,43 -64,63 -49,-49 -98,-97 -147,-147 88,-86 174,-174 263,-259 -28,-29 -57,-57 -85,-86zm-910 23c19,21 41,41 61,62 -21,21 -42,41 -61,62l0 -1c-67,67 -133,133 -200,199 29,28 58,55 86,84 -21,22 -42,43 -64,63 -49,-49 -97,-97 -147,-146 86,-88 174,-174 261,-261 -27,-29 -56,-54 -84,-82 20,-22 42,-43 63,-64 28,28 56,57 85,85l0 -1zm-1435 -833l125 0c-34,31 -64,64 -97,96 -21,-21 -42,-42 -63,-63 12,-11 23,-23 35,-33zm177 0l125 0c-42,40 -82,82 -123,123 27,28 55,56 83,83 -21,22 -42,43 -63,64 -49,-48 -98,-97 -146,-146 41,-41 82,-84 124,-124zm176 0l125 0c-11,11 -23,22 -34,33 86,88 173,175 260,262 -49,48 -98,97 -147,145 -20,-20 -41,-41 -62,-62 28,-28 56,-56 83,-84 -85,-88 -172,-174 -259,-261 11,-11 22,-22 34,-33zm176 0l125 0c-33,31 -64,64 -97,96 -20,-21 -41,-42 -62,-63 11,-11 22,-22 34,-33zm178 0l125 0c-43,41 -83,83 -125,124 29,27 57,54 84,83 -21,21 -42,42 -63,63 -49,-49 -98,-98 -147,-147 41,-42 83,-83 126,-123zm175 0l124 0c-12,10 -23,21 -35,32 87,88 176,174 262,263 -49,49 -98,96 -147,144 -21,-20 -41,-41 -62,-61 28,-28 56,-56 84,-84 -87,-87 -175,-173 -260,-262 11,-11 22,-22 34,-32zm176 0l125 0c-33,31 -64,65 -97,96 -21,-20 -42,-41 -63,-62 12,-12 23,-23 35,-34zm176 0l124 0c-41,41 -82,82 -123,123 28,28 56,57 86,84 -21,21 -42,42 -64,63 -49,-49 -98,-98 -147,-147 41,-41 82,-83 124,-123zm-943 61c50,47 98,97 147,145 -87,88 -174,174 -260,261 28,28 56,56 84,85 -21,20 -42,41 -62,62 -49,-49 -99,-98 -147,-147 86,-87 173,-174 261,-260 -29,-28 -57,-56 -85,-84 21,-21 42,-41 62,-62zm468 62c20,-21 41,-42 63,-62 48,48 96,97 145,145 -86,88 -173,174 -260,260 28,29 56,57 84,85 -20,21 -41,42 -61,63 -51,-48 -99,-98 -148,-147 86,-87 174,-174 260,-261 -28,-27 -56,-55 -83,-83zm-911 22c19,22 41,42 61,62 -20,21 -41,41 -61,63l0 -125zm0 175c28,-30 59,-58 88,-88 21,21 42,41 64,61 -28,29 -58,55 -86,84 87,87 175,174 261,261 -48,50 -98,98 -148,145 -20,-21 -40,-41 -60,-61 27,-28 55,-56 83,-84 -67,-68 -135,-134 -202,-203l0 -115zm470 57c48,-49 97,-97 146,-146 21,21 42,41 63,62 -28,28 -56,56 -83,84 87,88 174,174 261,262 -52,46 -98,98 -149,145 -21,-21 -42,-42 -62,-63 29,-27 59,-54 85,-84 -87,-86 -174,-173 -261,-260zm530 0c48,-49 97,-97 145,-146 22,20 42,41 63,62 -27,28 -55,56 -83,84 87,86 173,173 259,260 -48,50 -97,98 -146,147 -21,-20 -42,-41 -62,-63 28,-28 56,-56 84,-84 -87,-86 -173,-173 -260,-260zm-619 91c21,-21 42,-42 62,-64 48,50 98,98 147,148 -87,86 -174,173 -261,260 29,27 58,54 85,82 -21,21 -42,43 -64,64 -48,-49 -98,-97 -145,-147 87,-87 174,-174 261,-261 -28,-28 -57,-54 -85,-82zm530 0c19,-22 40,-43 61,-64 49,49 98,98 147,147 -85,87 -173,172 -258,259 23,32 54,57 82,84 -20,21 -42,43 -63,64 -49,-49 -97,-98 -146,-146 86,-87 173,-173 260,-260 -27,-29 -55,-56 -83,-84zm-911 20c20,22 41,42 61,62 -20,21 -41,41 -61,63l0 -125zm0 175c28,-30 59,-59 88,-88 21,20 42,41 62,63 -28,27 -55,55 -83,83 85,88 172,174 259,260 -48,50 -97,98 -146,147 -21,-21 -42,-42 -62,-63 27,-27 55,-55 84,-82 -67,-69 -135,-137 -202,-205l0 -115zm471 58c49,-49 97,-97 146,-146 22,20 42,41 63,62 -28,28 -56,56 -84,84 85,88 173,174 260,261 -50,49 -97,98 -147,146 -21,-21 -41,-42 -62,-63 28,-28 57,-55 83,-84 -87,-86 -174,-172 -259,-260zm529 0c49,-48 97,-97 146,-145 20,21 41,41 63,60 -27,29 -56,57 -84,86 87,86 173,173 260,260 -49,49 -97,97 -146,146 -21,-21 -42,-42 -62,-63 28,-27 55,-55 83,-83 -86,-87 -175,-173 -260,-261zm-556 27c49,49 99,98 147,148 -87,86 -173,173 -260,259 27,29 55,56 83,84 -21,21 -42,42 -62,63 -49,-49 -99,-98 -147,-148 87,-86 175,-172 261,-259 -28,-28 -57,-56 -85,-84 21,-21 42,-42 63,-63zm467 62c21,-21 41,-41 62,-62 49,49 98,97 146,146 -86,87 -173,174 -260,260 28,29 56,57 85,85 -22,22 -43,43 -65,63 -48,-49 -98,-97 -146,-147 87,-86 173,-174 262,-259 -28,-29 -57,-57 -84,-86zm-911 23c20,21 41,41 61,62 -20,21 -41,41 -61,62l0 -124zm0 345c19,21 40,41 60,61 -20,20 -41,40 -60,61l0 -122z" id="svg-part-2"/>
  </g>
 </g>
</svg></g></pattern></defs>
 <g id="Layer_x0020_1">
  <metadata id="CorelCorpID_0Corel-Layer"/>
  <g id="_2884721247472">
   <path fill="#FF9800" d="M580 1273c9,62 134,359 181,622 58,331 39,409 3,717 57,81 134,124 177,294 25,101 43,306 50,416 12,205 4,679 -106,820 21,39 38,50 55,87 12,27 30,70 39,103 59,200 10,321 -7,509l-11 569c3,77 21,185 23,262 6,264 91,746 127,1020 24,177 38,341 60,519l75 789c2,93 17,187 22,273 15,298 52,853 31,1114 -8,95 8,144 -24,238 -16,47 -6,90 0,127 24,132 -6,163 92,192l108 34c38,11 74,18 113,17l155 12c210,39 213,14 332,27 41,4 74,18 122,20l962 44c57,1 74,12 141,11 203,-1 367,11 569,11 195,0 359,-8 558,-10 60,-1 69,-12 130,-12l960 -45c37,-4 84,-17 123,-20 84,-6 146,4 270,-14l114 -18c163,-18 81,15 263,-42 77,-25 117,-18 127,-91 22,-151 1,-623 1,-819l58 -1079c10,-76 13,-173 25,-259 6,-42 9,-99 13,-130l217 -1793c6,-45 4,-87 11,-132l8 -818c-37,-266 -69,-366 28,-602 18,-46 45,-51 56,-98 -118,-145 -130,-620 -109,-826 14,-139 41,-277 75,-406 50,-182 70,-199 160,-307 -68,-174 -41,-513 -7,-699 41,-226 105,-405 174,-601 -513,-2 -910,-36 -1335,-235 -310,-145 -675,-468 -772,-821l-20 16c-2,1 -4,3 -6,4l0 0c-6,6 -13,15 -24,25 -94,88 -318,224 -435,277 -234,107 -387,144 -674,146 -488,4 -727,-154 -1052,-392 -40,-29 -71,-59 -117,-82 -19,80 -85,211 -125,272 -61,96 -95,148 -171,223 -68,67 -117,122 -208,185 -459,313 -1009,395 -1605,356z" id="svg-part-3" data-has-pattern="true" data-pattern-id="pattern-svg-part-0-back" data-pattern-size="50" data-pattern-opacity="100" data-pattern-angle="0" data-pattern-view="back"/>
   <path fill="black" d="M5017 243c97,353 462,676 772,821 425,199 822,233 1335,235 36,-82 94,-249 144,-312 -11,-46 -4,-26 -39,-53 -26,-20 -29,-25 -51,-46 -106,-99 -206,-157 -328,-230 -372,-225 -991,-281 -1420,-438l-137 -49c-48,-20 -109,-23 -146,-40 -13,22 -37,41 -66,64 -21,17 -34,22 -43,32l0 0 -21 16zm-4571 751c19,47 115,258 134,279 596,39 1146,-43 1605,-356 91,-63 140,-118 208,-185 76,-75 110,-127 171,-223 40,-61 106,-192 125,-272 -39,-36 -85,-69 -132,-98 -67,7 -89,17 -140,37l-424 134c-205,47 -402,88 -599,144 -110,31 -182,50 -283,89 -186,72 -434,210 -578,350 -59,57 -80,59 -87,101z" id="svg-part-4"/>
   <path fill="#FEFEFE" d="M6834 648l-182 634c-270,-23 -515,-72 -766,-176l204 -710c272,64 542,135 744,252zm-5774 627c271,-17 529,-68 769,-167l-205 -713c-77,18 -153,38 -230,59 -110,31 -182,50 -283,89 -70,27 -150,64 -230,108l179 624z" id="svg-part-5"/>
   <path fill="#ED3237" d="M1139 532l205 712c74,-13 146,-28 218,-47l-210 -731c-78,22 -139,39 -213,66zm5013 666c72,19 144,35 218,48l205 -715c-68,-24 -140,-46 -213,-66l-210 733z" id="svg-part-6"/>
   <path fill="#ED3237" d="M2557 139c47,29 93,62 132,98 46,23 77,53 117,82 325,238 564,396 1052,392 287,-2 440,-39 674,-146 117,-53 341,-189 435,-277 11,-10 18,-19 24,-25l0 0c2,-1 4,-3 6,-4l41 -32 0 0c9,-10 22,-15 43,-32 29,-23 53,-42 66,-64 -2,-2 -5,-7 -6,-5l-135 -72c-115,-65 -211,-81 -320,9 -107,87 -170,106 -284,164l-159 59c-234,60 -337,66 -603,41 -107,-10 -306,-92 -406,-140 -31,-15 -48,-22 -81,-40l-129 -89c-143,-115 -259,-34 -391,40 -30,17 -55,18 -76,41z" id="svg-part-7"/>
   <path fill="#ED3237" d="M55 2323c55,31 133,32 197,48 69,17 126,36 191,60 199,74 265,158 321,181 36,-308 55,-386 -3,-717 -47,-263 -172,-560 -181,-622 -19,-21 -115,-232 -134,-279 -36,30 -112,225 -137,288 -41,103 -82,216 -112,324 -61,220 -117,462 -142,717zm7069 -1024c-69,196 -133,375 -174,601 -34,186 -61,525 7,699 42,-12 99,-66 149,-94 57,-32 112,-55 173,-78 133,-50 246,-67 393,-101 -21,-39 -46,-282 -64,-371 -25,-122 -56,-240 -88,-350 -34,-117 -69,-217 -112,-325 -20,-50 -41,-104 -64,-154l-53 -112c-14,-26 0,-15 -23,-27 -50,63 -108,230 -144,312z" id="svg-part-8"/>
   <path fill="black" d="M567 1253l-308 1120 -7 -2c-64,-16 -142,-17 -197,-48 25,-255 81,-497 142,-717 30,-108 71,-221 112,-324 25,-63 101,-258 137,-288 16,40 88,200 121,259zm6934 1111c53,-12 109,-24 171,-38 -21,-39 -46,-282 -64,-371 -25,-122 -56,-240 -88,-350 -34,-117 -69,-217 -112,-325 -20,-50 -41,-104 -64,-154l-53 -112c-14,-26 0,-15 -23,-27 -31,39 -64,116 -94,189l327 1188z" id="svg-part-9"/>
   <path fill="#FEFEFE" d="M885 4142c110,-141 118,-615 106,-820 -7,-110 -25,-315 -50,-416 -43,-170 -120,-213 -177,-294 -56,-23 -122,-107 -321,-181 -65,-24 -122,-43 -191,-60 -64,-16 -142,-17 -197,-48 -50,75 -55,287 -55,387 207,-17 545,12 652,211 42,77 56,141 78,228 65,260 35,369 60,542 24,169 -53,172 -13,252 18,37 79,177 108,199zm6072 -1543c-90,108 -110,125 -160,307 -34,129 -61,267 -75,406 -21,206 -9,681 109,826 28,-14 118,-211 119,-227 3,-36 -19,-95 -25,-148 -18,-192 42,-587 112,-781 59,-168 246,-251 450,-271 337,-32 215,72 218,-230 1,-86 -6,-98 -33,-155 -147,34 -260,51 -393,101 -61,23 -116,46 -173,78 -50,28 -107,82 -149,94z" id="svg-part-10"/>
  </g>
 </g>
<g id="pattern-overlay-group"><path fill="url(#pattern-svg-part-0-back)" d="M580 1273c9,62 134,359 181,622 58,331 39,409 3,717 57,81 134,124 177,294 25,101 43,306 50,416 12,205 4,679 -106,820 21,39 38,50 55,87 12,27 30,70 39,103 59,200 10,321 -7,509l-11 569c3,77 21,185 23,262 6,264 91,746 127,1020 24,177 38,341 60,519l75 789c2,93 17,187 22,273 15,298 52,853 31,1114 -8,95 8,144 -24,238 -16,47 -6,90 0,127 24,132 -6,163 92,192l108 34c38,11 74,18 113,17l155 12c210,39 213,14 332,27 41,4 74,18 122,20l962 44c57,1 74,12 141,11 203,-1 367,11 569,11 195,0 359,-8 558,-10 60,-1 69,-12 130,-12l960 -45c37,-4 84,-17 123,-20 84,-6 146,4 270,-14l114 -18c163,-18 81,15 263,-42 77,-25 117,-18 127,-91 22,-151 1,-623 1,-819l58 -1079c10,-76 13,-173 25,-259 6,-42 9,-99 13,-130l217 -1793c6,-45 4,-87 11,-132l8 -818c-37,-266 -69,-366 28,-602 18,-46 45,-51 56,-98 -118,-145 -130,-620 -109,-826 14,-139 41,-277 75,-406 50,-182 70,-199 160,-307 -68,-174 -41,-513 -7,-699 41,-226 105,-405 174,-601 -513,-2 -910,-36 -1335,-235 -310,-145 -675,-468 -772,-821l-20 16c-2,1 -4,3 -6,4l0 0c-6,6 -13,15 -24,25 -94,88 -318,224 -435,277 -234,107 -387,144 -674,146 -488,4 -727,-154 -1052,-392 -40,-29 -71,-59 -117,-82 -19,80 -85,211 -125,272 -61,96 -95,148 -171,223 -68,67 -117,122 -208,185 -459,313 -1009,395 -1605,356z" id="svg-part-11" clip-path="url(#clip-svg-part-0-back)" style="pointer-events: none;"/><path fill="url(#pattern-svg-part-0-back)" d="M580 1273c9,62 134,359 181,622 58,331 39,409 3,717 57,81 134,124 177,294 25,101 43,306 50,416 12,205 4,679 -106,820 21,39 38,50 55,87 12,27 30,70 39,103 59,200 10,321 -7,509l-11 569c3,77 21,185 23,262 6,264 91,746 127,1020 24,177 38,341 60,519l75 789c2,93 17,187 22,273 15,298 52,853 31,1114 -8,95 8,144 -24,238 -16,47 -6,90 0,127 24,132 -6,163 92,192l108 34c38,11 74,18 113,17l155 12c210,39 213,14 332,27 41,4 74,18 122,20l962 44c57,1 74,12 141,11 203,-1 367,11 569,11 195,0 359,-8 558,-10 60,-1 69,-12 130,-12l960 -45c37,-4 84,-17 123,-20 84,-6 146,4 270,-14l114 -18c163,-18 81,15 263,-42 77,-25 117,-18 127,-91 22,-151 1,-623 1,-819l58 -1079c10,-76 13,-173 25,-259 6,-42 9,-99 13,-130l217 -1793c6,-45 4,-87 11,-132l8 -818c-37,-266 -69,-366 28,-602 18,-46 45,-51 56,-98 -118,-145 -130,-620 -109,-826 14,-139 41,-277 75,-406 50,-182 70,-199 160,-307 -68,-174 -41,-513 -7,-699 41,-226 105,-405 174,-601 -513,-2 -910,-36 -1335,-235 -310,-145 -675,-468 -772,-821l-20 16c-2,1 -4,3 -6,4l0 0c-6,6 -13,15 -24,25 -94,88 -318,224 -435,277 -234,107 -387,144 -674,146 -488,4 -727,-154 -1052,-392 -40,-29 -71,-59 -117,-82 -19,80 -85,211 -125,272 -61,96 -95,148 -171,223 -68,67 -117,122 -208,185 -459,313 -1009,395 -1605,356z" id="svg-part-12" clip-path="url(#clip-svg-part-0-back)" style="pointer-events: none;"/></g></svg>