<svg xmlns="http://www.w3.org/2000/svg" xmlns:xlink="http://www.w3.org/1999/xlink" xml:space="preserve" width="100%" height="100%" version="1.1" shape-rendering="geometricPrecision" text-rendering="geometricPrecision" image-rendering="optimizeQuality" fill-rule="evenodd" clip-rule="evenodd" viewBox="0 0 744 979" preserveAspectRatio="xMidYMid meet"><defs><style data-fonts="true">@font-face { font-family: 'font_1'; src: url('http://127.0.0.1:8000/storage/fonts/5ZIyXfnllvfea2c03RF0XvhB4s9AbiJS5UuPNvgP') format('truetype'); }@font-face { font-family: 'font_2'; src: url('http://127.0.0.1:8000/storage/fonts/HiTBF8CNdPuu1yhMAdkdrafbOxzCEGWugdII81Rt') format('truetype'); }@font-face { font-family: 'font_3'; src: url('http://127.0.0.1:8000/storage/fonts/NTEl0gVIgAt3bQrdxmwPc3g1o1VAdu4adzElDKs8') format('truetype'); }</style><clipPath id="clip-app-1776275757775"><path fill="#96989A" d="M98 205c0,7 1,44 -4,51 15,18 22,50 20,80 0,17 -11,71 -19,80 0,8 3,8 2,26 0,19 -8,43 -4,80 2,17 2,34 5,51 2,18 4,33 6,50 5,28 18,145 19,178 0,7 1,19 2,26 1,19 1,36 1,55 0,18 -2,40 0,54 0,7 -1,11 8,19 3,3 6,3 12,5 12,3 31,3 36,4 3,1 5,2 6,2 1,0 1,0 2,0 5,-1 15,4 31,3l46 5c1,0 1,0 2,0 1,0 3,0 4,0 6,0 30,4 35,4 13,-2 49,1 66,1l40 -1c10,-1 17,0 29,-1 3,0 3,0 6,-1l44 -3c3,-1 4,-1 6,-1 9,0 14,-1 21,-3 5,0 11,2 21,-1 3,-1 4,-1 6,-1 2,-1 5,-1 5,-1 6,-1 -5,-1 2,0 5,1 4,-2 13,-2 1,0 2,0 5,0l20 -3c9,-3 18,-1 23,-13l3 -12c1,-8 1,-19 0,-27 -2,-14 1,-78 2,-95l7 -91c4,-35 7,-69 12,-101 5,-27 6,-51 9,-75 3,-16 4,-65 1,-80 -2,-21 -5,-31 0,-50 -5,-5 -11,-29 -13,-37 -7,-29 -10,-59 -3,-88 2,-7 4,-13 7,-19 2,-6 6,-11 8,-16 -5,-6 -2,-44 -1,-54 -6,2 -33,4 -43,6 -14,2 -27,5 -40,8 -47,12 -97,33 -137,58 -32,20 -32,21 -56,41 -6,-2 -84,-83 -231,-106 -14,-2 -28,-3 -42,-5z" data-part-name="svg-part-0" class="svg-hoverable" style="cursor: pointer; transition: 0.3s;" id="svg-part-0"/></clipPath><clipPath id="preview-clip-app-1776275757775"><path fill="#96989A" d="M98 205c0,7 1,44 -4,51 15,18 22,50 20,80 0,17 -11,71 -19,80 0,8 3,8 2,26 0,19 -8,43 -4,80 2,17 2,34 5,51 2,18 4,33 6,50 5,28 18,145 19,178 0,7 1,19 2,26 1,19 1,36 1,55 0,18 -2,40 0,54 0,7 -1,11 8,19 3,3 6,3 12,5 12,3 31,3 36,4 3,1 5,2 6,2 1,0 1,0 2,0 5,-1 15,4 31,3l46 5c1,0 1,0 2,0 1,0 3,0 4,0 6,0 30,4 35,4 13,-2 49,1 66,1l40 -1c10,-1 17,0 29,-1 3,0 3,0 6,-1l44 -3c3,-1 4,-1 6,-1 9,0 14,-1 21,-3 5,0 11,2 21,-1 3,-1 4,-1 6,-1 2,-1 5,-1 5,-1 6,-1 -5,-1 2,0 5,1 4,-2 13,-2 1,0 2,0 5,0l20 -3c9,-3 18,-1 23,-13l3 -12c1,-8 1,-19 0,-27 -2,-14 1,-78 2,-95l7 -91c4,-35 7,-69 12,-101 5,-27 6,-51 9,-75 3,-16 4,-65 1,-80 -2,-21 -5,-31 0,-50 -5,-5 -11,-29 -13,-37 -7,-29 -10,-59 -3,-88 2,-7 4,-13 7,-19 2,-6 6,-11 8,-16 -5,-6 -2,-44 -1,-54 -6,2 -33,4 -43,6 -14,2 -27,5 -40,8 -47,12 -97,33 -137,58 -32,20 -32,21 -56,41 -6,-2 -84,-83 -231,-106 -14,-2 -28,-3 -42,-5z" data-part-name="svg-part-1" class="svg-hoverable" style="cursor: pointer; transition: 0.3s;" id="svg-part-1"/></clipPath></defs>
 <g id="Layer_x0020_1">
  <metadata id="CorelCorpID_0Corel-Layer"/>
  <path fill="#96989A" d="M98 205c0,7 1,44 -4,51 15,18 22,50 20,80 0,17 -11,71 -19,80 0,8 3,8 2,26 0,19 -8,43 -4,80 2,17 2,34 5,51 2,18 4,33 6,50 5,28 18,145 19,178 0,7 1,19 2,26 1,19 1,36 1,55 0,18 -2,40 0,54 0,7 -1,11 8,19 3,3 6,3 12,5 12,3 31,3 36,4 3,1 5,2 6,2 1,0 1,0 2,0 5,-1 15,4 31,3l46 5c1,0 1,0 2,0 1,0 3,0 4,0 6,0 30,4 35,4 13,-2 49,1 66,1l40 -1c10,-1 17,0 29,-1 3,0 3,0 6,-1l44 -3c3,-1 4,-1 6,-1 9,0 14,-1 21,-3 5,0 11,2 21,-1 3,-1 4,-1 6,-1 2,-1 5,-1 5,-1 6,-1 -5,-1 2,0 5,1 4,-2 13,-2 1,0 2,0 5,0l20 -3c9,-3 18,-1 23,-13l3 -12c1,-8 1,-19 0,-27 -2,-14 1,-78 2,-95l7 -91c4,-35 7,-69 12,-101 5,-27 6,-51 9,-75 3,-16 4,-65 1,-80 -2,-21 -5,-31 0,-50 -5,-5 -11,-29 -13,-37 -7,-29 -10,-59 -3,-88 2,-7 4,-13 7,-19 2,-6 6,-11 8,-16 -5,-6 -2,-44 -1,-54 -6,2 -33,4 -43,6 -14,2 -27,5 -40,8 -47,12 -97,33 -137,58 -32,20 -32,21 -56,41 -6,-2 -84,-83 -231,-106 -14,-2 -28,-3 -42,-5z" id="svg-part-0" data-part-name="svg-part-0" class="svg-hoverable" style="cursor: pointer; transition: 0.3s;"/>
  <path fill="#96989A" d="M49 86c5,0 7,7 10,11 15,22 26,46 33,73 2,11 3,24 6,35 14,2 28,3 42,5 147,23 225,104 231,106 24,-20 24,-21 56,-41 40,-25 90,-46 137,-58 13,-3 26,-6 40,-8 10,-2 37,-4 43,-6 2,-9 4,-24 6,-34 3,-11 7,-22 10,-32 9,-21 18,-36 30,-52 -5,-5 -19,-13 -26,-17 -30,-16 -62,-25 -97,-31 -9,-2 -36,-10 -44,-14 0,25 -11,66 -18,89 -9,27 -21,52 -35,72 -14,18 -19,20 -25,28 -4,5 -9,9 -13,14l-63 70c-2,-1 -1,0 -3,-2l-23 -26c-17,-18 -49,-56 -64,-70 -19,-19 -37,-60 -46,-87 -7,-20 -19,-66 -19,-89 -1,3 1,2 -3,3 -18,9 -85,16 -129,39 -7,3 -12,6 -19,10l-17 12z" id="svg-part-1" data-part-name="svg-part-1" class="svg-hoverable" style="cursor: pointer; transition: 0.3s;"/>
  <path fill="black" d="M459 80c-1,8 -13,32 -16,39 -6,11 -12,23 -20,34 -11,16 -23,31 -36,44 -4,4 -12,11 -16,12 -16,-10 -40,-41 -51,-57 -10,-15 -31,-54 -36,-73 36,19 91,26 134,15 7,-2 14,-4 21,-6l20 -8zm0 0l0 0zm-242 -58c0,23 12,69 19,89 9,27 27,68 46,87 15,14 47,52 64,70l23 26c2,2 1,1 3,2l63 -70c4,-5 9,-9 13,-14 6,-8 11,-10 25,-28 14,-20 26,-45 35,-72 7,-23 18,-64 18,-89 0,-3 -6,-3 -14,-6l-29 -10c-25,-11 -8,-8 -32,10 -10,7 -36,19 -48,23 -20,7 -39,6 -60,1 -12,-3 -16,-7 -25,-11l-24 -12 -14 -13c-7,-9 -5,-4 -18,1l-30 11c-4,1 -12,3 -15,5z" id="svg-part-2" data-part-name="svg-part-2" class="svg-hoverable" style="cursor: pointer; transition: 0.3s;"/>
  <path fill="black" d="M95 416c8,-9 19,-63 19,-80 2,-30 -5,-62 -20,-80 -5,-11 -22,-21 -37,-26 -17,-6 -36,-9 -55,-9 -4,8 -2,10 -1,19 1,8 -1,13 -1,21 11,5 18,7 31,16 22,17 22,19 34,44 4,8 10,41 11,51 1,5 1,10 2,14 3,18 4,5 12,20 2,4 3,8 5,10zm553 -159c-2,5 -6,10 -8,16 -3,6 -5,12 -7,19 -7,29 -4,59 3,88 2,8 8,32 13,37 4,-10 4,-12 12,-19 5,-5 3,-4 5,-11l3 -28c1,-15 11,-46 19,-58 7,-10 15,-17 25,-24 8,-5 15,-10 25,-14 6,-2 6,-2 5,-12 -1,-10 1,-18 1,-22 0,-4 -2,-5 -2,-9 -25,0 -59,6 -78,20 -14,11 -8,9 -16,17z" id="svg-part-3" data-part-name="svg-part-3" class="svg-hoverable" style="cursor: pointer; transition: 0.3s;"/>
  <path fill="#96989A" d="M2 221c19,0 38,3 55,9 15,5 32,15 37,26 5,-7 4,-44 4,-51 -3,-11 -4,-24 -6,-35 -7,-27 -18,-51 -33,-73 -3,-4 -5,-11 -10,-11 -5,3 -7,6 -10,12 -7,14 -9,15 -15,31 -3,6 -5,12 -7,17 -3,10 -5,23 -7,29 0,0 0,0 0,0 -6,15 -7,21 -8,36l0 10zm645 -18c-1,10 -4,48 1,54 8,-8 2,-6 16,-17 19,-14 53,-20 78,-20 0,-34 -5,-29 -11,-58 -4,-16 -25,-73 -38,-77 -12,16 -21,31 -30,52 -3,10 -7,21 -10,32 -2,10 -4,25 -6,34z" id="svg-part-4" data-part-name="svg-part-4" class="svg-hoverable" style="cursor: pointer; transition: 0.3s;"/>
  <path fill="black" d="M625 448c2,0 4,2 4,3 0,2 -2,4 -4,4 -1,0 -3,-2 -3,-4 0,-1 2,-3 3,-3zm-507 0c-1,0 -3,2 -3,3 0,2 2,4 3,4 2,0 4,-2 4,-4 0,-1 -2,-3 -4,-3zm-13 8c-2,0 -3,1 -3,3 0,2 1,4 3,4 2,0 3,-2 3,-4 0,-2 -1,-3 -3,-3zm3 61c-2,0 -3,2 -3,3 0,2 1,4 3,4 2,0 3,-2 3,-4 0,-1 -1,-3 -3,-3zm0 2c-1,0 -1,1 -1,1 0,1 0,1 1,1 1,0 1,0 1,-1 0,0 0,-1 -1,-1zm-1 -17c-2,0 -3,1 -3,3 0,2 1,3 3,3 2,0 3,-1 3,-3 0,-2 -1,-3 -3,-3zm0 2c0,0 -1,1 -1,1 0,1 1,1 1,1 1,0 1,0 1,-1 0,0 0,-1 -1,-1zm-1 -17c-1,0 -3,1 -3,3 0,2 2,3 3,3 2,0 4,-1 4,-3 0,-2 -2,-3 -4,-3zm0 2c0,0 -1,0 -1,1 0,0 1,1 1,1 1,0 1,-1 1,-1 0,-1 0,-1 -1,-1zm0 -18c-2,0 -4,2 -4,4 0,1 2,3 4,3 1,0 3,-2 3,-3 0,-2 -2,-4 -3,-4zm0 2c-1,0 -1,1 -1,2 0,0 0,1 1,1 0,0 1,-1 1,-1 0,-1 -1,-2 -1,-2zm-1 -15c-1,0 -1,1 -1,1 0,1 0,1 1,1 0,0 1,0 1,-1 0,0 -1,-1 -1,-1zm17 67c-1,0 -3,1 -3,3 0,2 2,3 3,3 2,0 4,-1 4,-3 0,-2 -2,-3 -4,-3zm0 2c0,0 -1,0 -1,1 0,0 1,1 1,1 1,0 1,-1 1,-1 0,-1 0,-1 -1,-1zm0 -18c-2,0 -4,2 -4,3 0,2 2,4 4,4 1,0 3,-2 3,-4 0,-1 -2,-3 -3,-3zm0 2c-1,0 -1,1 -1,1 0,1 0,2 1,2 0,0 1,-1 1,-2 0,0 -1,-1 -1,-1zm-1 -17c-2,0 -3,1 -3,3 0,2 1,3 3,3 2,0 3,-1 3,-3 0,-2 -1,-3 -3,-3zm0 2c-1,0 -1,1 -1,1 0,1 0,1 1,1 0,0 1,0 1,-1 0,0 -1,-1 -1,-1zm-1 -17c-2,0 -3,1 -3,3 0,2 1,3 3,3 2,0 3,-1 3,-3 0,-2 -1,-3 -3,-3zm0 2c-1,0 -1,0 -1,1 0,1 0,1 1,1 1,0 1,0 1,-1 0,-1 0,-1 -1,-1zm-1 -18c-2,0 -3,2 -3,4 0,1 1,3 3,3 2,0 3,-2 3,-3 0,-2 -1,-4 -3,-4zm0 3c0,0 -1,0 -1,1 0,0 1,1 1,1 1,0 1,-1 1,-1 0,-1 0,-1 -1,-1zm-1 -16c0,0 -1,1 -1,1 0,1 1,1 1,1 1,0 1,0 1,-1 0,0 0,-1 -1,-1zm521 6c2,0 3,1 3,3 0,2 -1,4 -3,4 -2,0 -3,-2 -3,-4 0,-2 1,-3 3,-3zm-3 61c2,0 3,2 3,3 0,2 -1,4 -3,4 -2,0 -3,-2 -3,-4 0,-1 1,-3 3,-3zm0 2c0,0 1,1 1,1 0,1 -1,1 -1,1 -1,0 -1,0 -1,-1 0,0 0,-1 1,-1zm1 -17c1,0 3,1 3,3 0,2 -2,3 -3,3 -2,0 -4,-1 -4,-3 0,-2 2,-3 4,-3zm0 2c0,0 1,1 1,1 0,1 -1,1 -1,1 -1,0 -1,0 -1,-1 0,0 0,-1 1,-1zm0 -17c2,0 4,1 4,3 0,2 -2,3 -4,3 -1,0 -3,-1 -3,-3 0,-2 2,-3 3,-3zm0 2c1,0 1,0 1,1 0,0 0,1 -1,1 0,0 -1,-1 -1,-1 0,-1 1,-1 1,-1zm1 -18c2,0 3,2 3,4 0,1 -1,3 -3,3 -2,0 -3,-2 -3,-3 0,-2 1,-4 3,-4zm0 2c1,0 1,1 1,2 0,0 0,1 -1,1 0,0 -1,-1 -1,-1 0,-1 1,-2 1,-2zm1 -15c1,0 1,1 1,1 0,1 0,1 -1,1 -1,0 -1,0 -1,-1 0,0 0,-1 1,-1zm-18 67c2,0 4,1 4,3 0,2 -2,3 -4,3 -1,0 -3,-1 -3,-3 0,-2 2,-3 3,-3zm0 2c1,0 2,0 2,1 0,0 -1,1 -2,1 0,0 -1,-1 -1,-1 0,-1 1,-1 1,-1zm1 -18c2,0 3,2 3,3 0,2 -1,4 -3,4 -2,0 -3,-2 -3,-4 0,-1 1,-3 3,-3zm0 2c1,0 1,1 1,1 0,1 0,2 -1,2 0,0 -1,-1 -1,-2 0,0 1,-1 1,-1zm1 -17c2,0 3,1 3,3 0,2 -1,3 -3,3 -2,0 -3,-1 -3,-3 0,-2 1,-3 3,-3zm0 2c1,0 1,1 1,1 0,1 0,1 -1,1 -1,0 -1,0 -1,-1 0,0 0,-1 1,-1zm1 -17c2,0 3,1 3,3 0,2 -1,3 -3,3 -2,0 -3,-1 -3,-3 0,-2 1,-3 3,-3zm0 2c0,0 1,0 1,1 0,1 -1,1 -1,1 -1,0 -1,0 -1,-1 0,-1 0,-1 1,-1zm1 -18c1,0 3,2 3,4 0,1 -2,3 -3,3 -2,0 -4,-2 -4,-3 0,-2 2,-4 4,-4zm0 3c0,0 1,0 1,1 0,0 -1,1 -1,1 -1,0 -1,-1 -1,-1 0,-1 0,-1 1,-1zm0 -16c1,0 1,1 1,1 0,1 0,1 -1,1 0,0 -1,0 -1,-1 0,0 1,-1 1,-1z" id="svg-part-5" data-part-name="svg-part-5" class="svg-hoverable" style="cursor: pointer; transition: 0.3s;"/>
  <path fill="black" d="M385 282l48 -17 24 -37 -36 14 -36 40zm-27 0l-47 -17 -24 -37 36 15c9,9 17,18 23,25l12 14zm-55 -63c-8,-9 -15,-16 -21,-21 -5,-5 -9,-11 -14,-18l-26 -10 24 37 37 12zm-46 -57c-5,-11 -11,-23 -15,-34l-35 -16 16 34 34 16zm-22 -53c-3,-10 -7,-23 -10,-37l-46 -21 19 40 37 18zm-13 -50c-2,-12 -4,-23 -4,-32l-4 -2c-5,3 -15,5 -27,8l8 13 27 13zm-100 -10c-7,2 -14,5 -21,7 2,3 4,5 5,7 6,7 13,13 22,16 18,7 34,9 52,15 -6,-9 -12,-23 -17,-32l4 -4c-11,-2 -29,-6 -45,-9zm-33 12c-1,1 -3,2 -4,3 -4,1 -7,3 -10,5 8,2 15,4 23,6l-9 -14zm-24 13l-12 9c1,2 2,4 3,5 6,8 14,13 23,17 17,6 34,8 51,15 -5,-10 -11,-19 -17,-28l4 -3c-12,-3 -33,-9 -52,-15zm128 42c5,9 12,19 17,28 -17,-6 -34,-10 -52,-16 -9,-4 -16,-9 -22,-16 -4,-5 -10,-15 -14,-20 18,5 57,16 75,21l-4 3zm-53 20c6,9 11,18 17,28 -17,-7 -34,-9 -51,-15 -10,-4 -17,-9 -23,-16 -3,-5 -10,-16 -13,-21 18,5 56,16 74,21l-4 3zm79 23c6,9 11,18 17,27 -17,-6 -34,-8 -51,-14 -10,-4 -17,-10 -23,-17 -3,-5 -10,-15 -13,-20 18,5 55,17 73,22l-3 2zm-47 21c6,9 12,18 17,27 -17,-6 -34,-12 -52,-18 -9,-4 -16,-10 -22,-17 -4,-5 -7,-9 -10,-14 17,5 35,10 53,15 0,4 7,6 14,7zm82 28c6,9 12,18 17,28 -17,-7 -34,-14 -52,-21 -9,-4 -16,-10 -22,-18 -4,-4 -7,-9 -10,-14 18,5 35,11 53,17 0,4 7,6 14,8zm437 -125c-3,-2 -8,-6 -13,-8 -18,5 -39,11 -51,14l4 3c-6,9 -12,18 -18,28 18,-7 35,-9 52,-15 9,-4 17,-9 22,-17 1,-1 3,-3 4,-5zm-22 -14c-1,0 -1,-1 -2,-1 -4,-2 -8,-4 -13,-6l-8 13c7,-2 15,-4 23,-6zm-27 -13c-6,-2 -13,-5 -20,-7 -17,3 -34,7 -45,9l4 4c-6,9 -11,23 -17,32 17,-6 34,-8 51,-15 10,-3 17,-9 23,-16 1,-2 3,-4 4,-7zm-86 -23c-9,-2 -20,-5 -26,-8l-4 2c0,9 -2,21 -5,32l28 -13 7 -13zm-37 39c-4,14 -7,27 -10,37l37 -18 19 -40 -46 21zm-17 56c-4,12 -10,23 -16,34l35 -16 16 -34 -35 16zm-27 52c0,1 -1,2 -2,4 -14,18 -19,20 -25,28 -2,3 -4,5 -6,7l35 -12 24 -37 -26 10zm76 -64c-6,9 -12,19 -18,28 18,-6 35,-10 52,-16 10,-4 17,-9 23,-16 3,-5 10,-15 13,-20 -18,5 -56,16 -74,21l4 3zm53 20c-6,9 -12,18 -18,28 18,-7 35,-9 52,-15 9,-4 17,-9 22,-16 4,-5 11,-16 14,-21 -18,5 -56,16 -74,21l4 3zm-79 23c-6,9 -12,18 -18,27 18,-6 35,-8 52,-14 9,-4 17,-10 22,-17 4,-5 11,-15 14,-20 -18,5 -56,17 -74,22l4 2zm47 21c-6,9 -12,18 -18,27 18,-6 35,-12 52,-18 10,-4 17,-10 23,-17 3,-5 7,-9 10,-14 -18,5 -36,10 -54,15 1,4 -6,6 -13,7zm-82 28c-6,9 -12,18 -18,28 18,-7 35,-14 52,-21 10,-4 17,-10 23,-18 3,-4 7,-9 10,-14 -18,5 -36,11 -54,17 1,4 -6,6 -13,8z" id="svg-part-6" data-part-name="svg-part-6" class="svg-hoverable" style="cursor: pointer; transition: 0.3s;"/>
 </g>
<g id="mascot-overlay-group"/><g id="preview-group-app-1776275757775" clip-path="url(#preview-clip-app-1776275757775)"><text id="app-1776275757775" x="392.34569549560547" y="578" font-size="500" fill="#96989A" stroke="BLACK" stroke-width="undefined" text-anchor="middle" dominant-baseline="middle" paint-order="stroke fill" stroke-linejoin="round" style="font-family: font_1; letter-spacing: 0px;">00</text></g></svg>