<svg xmlns="http://www.w3.org/2000/svg" xmlns:xlink="http://www.w3.org/1999/xlink" xml:space="preserve" width="100%" height="100%" version="1.1" shape-rendering="geometricPrecision" text-rendering="geometricPrecision" image-rendering="optimizeQuality" fill-rule="evenodd" clip-rule="evenodd" viewBox="0 0 7695 10130"><defs><linearGradient x1="100%" y1="50%" x2="0%" y2="50%" id="gradient-front-svg-part-0"><stop offset="0%" stop-color="#FFC000"/><stop offset="100%" stop-color="#228B22"/></linearGradient><radialGradient cx="50%" cy="50%" r="50%" id="gradient-front-svg-part-3"><stop offset="4%" stop-color="#797661"/><stop offset="100%" stop-color="#FF9800"/><stop offset="100%" stop-color="#ED3237"/><stop offset="100%" stop-color="#FF9800"/></radialGradient><linearGradient x1="100%" y1="50%" x2="0%" y2="50%" id="gradient-front-svg-part-0"><stop offset="31%" stop-color="#FFC000"/><stop offset="50%" stop-color="#228B22"/><stop offset="72%" stop-color="#673AB7"/></linearGradient><radialGradient cx="50%" cy="50%" r="50%" id="gradient-front-svg-part-3"><stop offset="4%" stop-color="#797661"/><stop offset="100%" stop-color="#FF9800"/><stop offset="100%" stop-color="#ED3237"/><stop offset="100%" stop-color="#FF9800"/></radialGradient></defs>
 <g id="Layer_x0020_1">
  <metadata id="CorelCorpID_0Corel-Layer"/>
  <g id="_2884727410736">
   <path fill="url(#gradient-front-svg-part-0)" d="M1009 2120c3,70 18,460 -33,530 155,189 224,519 208,827 -9,174 -114,732 -199,827 0,84 28,83 23,267 -6,199 -86,448 -43,828 19,173 23,357 47,533 24,180 39,337 67,512 47,295 182,1503 190,1842 2,78 18,196 22,273 11,190 11,370 11,569 0,185 -17,406 -2,559 7,68 -12,110 86,198 29,26 67,30 127,45 122,30 319,36 371,47 27,5 47,14 59,15 10,2 10,1 20,0 58,-4 156,43 326,38l471 46c8,0 10,-1 24,0 8,0 27,1 37,2 64,3 311,40 362,35 137,-12 512,19 687,17l412 -14c107,-9 173,5 304,-8 27,-3 30,-3 60,-8l455 -37c28,-6 42,-10 57,-10 101,-2 145,-12 217,-23 53,-8 115,14 223,-16 29,-8 35,-6 66,-12 14,-3 44,-12 46,-12 58,-3 -50,-5 17,3 56,6 42,-20 137,-21 16,0 21,1 50,-2l209 -32c90,-23 190,-7 244,-128l28 -125c4,-82 7,-202 -5,-280 -22,-146 12,-809 26,-988l76 -942c37,-358 67,-707 123,-1045 47,-279 57,-527 92,-771 24,-163 34,-671 11,-833 -28,-208 -56,-314 -6,-517 -50,-48 -114,-290 -136,-379 -74,-295 -98,-610 -25,-909 17,-70 39,-136 65,-197 28,-63 63,-114 86,-170 -50,-62 -19,-453 -11,-555 -64,27 -342,47 -443,63 -141,23 -281,51 -416,85 -489,122 -1002,336 -1416,596 -326,204 -324,215 -577,425 -60,-22 -871,-855 -2390,-1097 -149,-23 -292,-31 -440,-51z" id="svg-part-0"/>
   <path fill="#ED3237" d="M4745 833c-6,75 -130,325 -164,393 -62,123 -127,240 -203,354 -111,165 -238,324 -379,463 -34,34 -119,113 -161,123 -164,-110 -414,-424 -525,-590 -104,-157 -328,-567 -371,-754 366,193 938,262 1385,151 74,-19 143,-40 212,-62l206 -78zm0 0l0 0zm-2496 -601c-2,232 122,706 191,917 92,283 282,707 481,896 156,148 478,538 660,727l240 274c21,20 5,8 28,20l655 -725c42,-51 85,-95 127,-147 67,-84 123,-102 262,-295 146,-204 271,-465 359,-745 72,-229 189,-660 192,-912 0,-34 -66,-38 -143,-64l-305 -110c-259,-114 -83,-76 -332,104 -98,71 -370,202 -491,241 -208,68 -409,63 -624,9 -121,-31 -161,-68 -262,-109l-242 -130 -144 -130c-79,-96 -59,-43 -192,12l-305 110c-48,13 -127,28 -155,57z" id="svg-part-1"/>
   <path fill="#ED3237" d="M985 4304c85,-95 190,-653 199,-827 16,-308 -53,-638 -208,-827 -59,-119 -226,-220 -386,-274 -173,-59 -368,-89 -566,-92 -40,84 -20,108 -12,200 7,77 -10,133 -10,217 110,53 186,68 315,166 227,172 230,191 355,453 41,86 107,420 116,529 4,51 12,104 19,145 36,190 38,56 123,205 24,41 34,87 55,105zm5717 -1650c-23,56 -58,107 -86,170 -26,61 -48,127 -65,197 -73,299 -49,614 25,909 22,89 86,331 136,379 46,-101 43,-119 123,-195 51,-48 36,-38 51,-113l34 -282c13,-156 113,-477 202,-607 73,-105 146,-170 250,-242 85,-60 162,-107 259,-146 64,-25 68,-20 55,-122 -12,-105 11,-191 9,-228 -1,-43 -17,-52 -21,-96 -257,0 -604,55 -806,208 -143,107 -86,86 -166,168z" id="svg-part-2"/>
   <path fill="url(#gradient-front-svg-part-3)" d="M504 885c50,10 79,74 106,115 156,232 268,480 337,757 29,118 35,248 62,363 148,20 291,28 440,51 1519,242 2330,1075 2390,1097 253,-210 251,-221 577,-425 414,-260 927,-474 1416,-596 135,-34 275,-62 416,-85 101,-16 379,-36 443,-63 27,-93 42,-247 69,-355 27,-113 65,-223 104,-322 87,-218 185,-375 301,-546 -47,-45 -193,-134 -260,-171 -313,-170 -647,-257 -1006,-327 -96,-18 -379,-96 -455,-136 -3,252 -120,683 -192,912 -88,280 -213,541 -359,745 -139,193 -195,211 -262,295 -42,52 -85,96 -127,147l-655 725c-23,-12 -7,0 -28,-20l-240 -274c-182,-189 -504,-579 -660,-727 -199,-189 -389,-613 -481,-896 -69,-211 -193,-685 -191,-917 -18,27 1,11 -33,28 -187,93 -880,167 -1340,398 -70,35 -121,65 -189,106l-183 121z" id="svg-part-3"/>
   <path fill="#201E1E" d="M24 2284c198,3 393,33 566,92 160,54 327,155 386,274 51,-70 36,-460 33,-530 -27,-115 -33,-245 -62,-363 -69,-277 -181,-525 -337,-757 -27,-41 -56,-105 -106,-115 -48,39 -72,70 -102,130 -72,144 -89,154 -157,323 -23,58 -48,121 -67,174 -38,106 -57,240 -76,295 -1,3 -2,5 -3,8 -57,153 -70,215 -78,369l3 100zm6667 -185c-8,102 -39,493 11,555 80,-82 23,-61 166,-168 202,-153 549,-208 806,-208 0,-351 -48,-300 -114,-599 -37,-170 -255,-761 -395,-803 -116,171 -214,328 -301,546 -39,99 -77,209 -104,322 -27,108 -42,262 -69,355z" id="svg-part-4"/>
   <path fill="#ED3237" d="M5878 885c4,167 -25,163 -57,303 -15,65 -26,35 -58,74 -37,52 -10,14 -16,67 -5,41 -21,31 -24,71l-16 3c-9,56 -38,331 -63,358 9,167 -4,67 -5,151 9,-14 6,-2 12,-24 1,-5 2,-19 3,-25 9,-62 17,-91 60,-131 1,-76 -14,-53 9,-121 5,-43 21,-62 15,-106 75,-75 64,-38 85,-164 8,-44 25,-50 48,-77 24,-27 41,-42 40,-87 35,-52 17,-40 78,-104 67,-70 32,-26 57,-116l-2 -42c22,-21 15,-9 39,-26l0 -92 69 -33c33,-21 8,-15 45,-22l27 -68c66,-56 -1,-49 61,-110 42,-41 52,-31 54,-84 -41,-11 -83,-22 -125,-33 -50,42 -44,96 -78,133 -16,19 -15,12 -28,26l-90 82c-16,30 5,42 -32,79 -35,35 -38,12 -55,60 -18,54 7,34 -53,58zm-4061 0c-4,167 25,163 57,303 15,65 26,35 58,74 36,52 9,14 16,67 5,41 21,31 24,71l16 3c9,56 38,331 63,358 -10,167 4,67 5,151 -9,-14 -6,-2 -12,-24 -1,-5 -2,-19 -3,-25 -9,-62 -17,-91 -60,-131 -1,-76 14,-53 -10,-121 -5,-43 -20,-62 -14,-106 -75,-75 -64,-38 -85,-164 -8,-44 -25,-50 -48,-77 -24,-27 -41,-42 -40,-87 -35,-52 -17,-40 -79,-104 -67,-70 -31,-26 -56,-116l2 -42c-22,-21 -15,-9 -39,-26l0 -92 -69 -33c-33,-21 -8,-15 -46,-22l-26 -68c-66,-56 1,-49 -61,-110 -42,-40 -52,-31 -54,-83 42,-11 84,-23 126,-33 48,42 43,95 77,132 16,19 15,12 28,26l90 82c16,30 -5,42 32,79 34,35 38,12 55,60 18,54 -8,34 53,58zm47 -526c-19,4 -38,8 -57,13l9 17 3 42c17,22 12,25 18,57 80,35 65,40 77,69 1,2 3,5 3,7l6 10 24 89c7,9 6,8 15,18l46 42c48,35 53,47 35,136 14,38 52,44 69,74 15,25 2,21 24,49 16,21 14,12 31,40 11,26 8,28 10,60 4,57 -8,38 21,60 10,25 3,6 16,26 102,154 23,100 58,182 17,42 28,22 42,70l27 127c14,-27 -3,-158 -21,-193 -5,-7 -2,3 -10,-17 -25,-57 5,-84 -50,-187 -51,-95 -14,-140 -28,-233 -13,-36 -18,-2 -69,-82 -2,-2 -7,-10 -9,-13 -24,-7 -16,-3 -42,-19 -14,-58 19,-83 -35,-126 -113,-89 31,-42 -136,-197 -75,-69 -34,-64 -69,-98 -4,-17 0,-11 -8,-23zm-773 207c-38,14 -75,29 -111,44 3,3 6,6 10,9 120,101 95,30 124,121 24,79 26,24 -5,99 19,25 21,16 36,38 41,61 -13,4 63,84 60,63 -34,57 51,130 31,27 36,50 78,56 28,15 53,22 57,58 7,59 -23,30 8,96 38,79 56,33 78,143 21,14 17,0 15,34 17,11 8,-3 25,22 36,33 54,41 48,107l34 20c-5,-101 23,-39 -16,-138 -36,-92 -44,-46 -51,-119 -15,-28 6,-25 -13,-58 -17,-32 -27,2 -33,-56 -8,-75 -10,-108 -62,-117 -3,-21 2,-7 -5,-32l-21 -4c-7,-111 -21,-47 -61,-189 -11,-40 -15,-24 -31,-51 -1,-2 -3,-5 -4,-7 -1,-2 -2,-5 -3,-7l-6 -24c-1,-3 -13,-28 -13,-28 -37,-62 -123,-74 -136,-119 -11,-36 14,-17 -8,-61 -13,-26 -31,-41 -48,-51zm-346 296c-26,-14 -13,7 -20,-27 -9,-7 -16,-8 -23,-17 -23,-26 -9,-9 -21,-34 40,24 39,13 44,51 41,19 14,2 20,27 40,9 29,15 48,35 22,23 26,12 43,42 53,92 22,27 80,84 19,29 24,49 39,79 32,68 95,58 102,147 5,64 9,52 32,82 -3,60 12,85 54,136 17,20 12,13 33,27 5,54 -13,67 24,93l-6 51c18,24 7,20 29,38 4,23 3,35 7,56 0,4 5,24 5,25 -2,36 11,6 -15,27 -8,-35 -30,-112 -26,-146 -2,-2 -5,-7 -6,-6 -2,4 -8,-22 -59,-45 10,-28 8,-14 -4,-16 0,-40 -12,-87 -38,-117 -51,-59 -5,-26 -52,-51l-5 -7 -12 1c-2,-2 -4,-8 -5,-6 0,0 -19,1 -8,-63l-67 -42c-21,-31 -29,-21 -49,-67 13,-6 15,-1 22,-10l-1 -74 -17 -38c-47,-53 -19,-43 -58,-71 -67,-50 -5,-24 -61,-82 -8,-36 -6,-4 -20,-36 -7,-17 -8,-35 -9,-46zm905 825c0,35 6,7 11,57 4,40 -4,38 23,68l3 134c-8,-17 -6,-18 -10,-34 -10,-39 -5,2 -14,-49 -10,-70 -25,-115 -71,-153 -4,-29 -7,-47 2,-83 49,23 27,18 56,60zm5063 -1075c-37,-16 -73,-31 -111,-45 -16,10 -33,24 -46,50 -23,44 3,25 -8,61 -13,45 -99,57 -137,119 0,0 -11,25 -12,28l-7 24c-1,2 -2,5 -3,7 -1,2 -2,5 -3,7 -16,27 -20,11 -31,51 -40,142 -54,78 -61,189l-22 4c-6,25 -1,11 -4,32 -52,9 -54,42 -62,117 -6,58 -16,24 -34,56 -18,33 3,30 -12,58 -7,73 -15,27 -52,119 -38,99 -10,37 -15,138l34 -20c-7,-66 12,-74 48,-107 17,-25 8,-11 25,-22 -3,-34 -6,-20 15,-34 21,-110 39,-64 77,-143 32,-66 2,-37 9,-96 4,-36 29,-43 57,-58 41,-6 47,-29 78,-56 85,-73 -9,-67 51,-130 76,-80 22,-23 63,-84 15,-22 17,-13 36,-38 -31,-75 -29,-20 -5,-99 28,-91 4,-20 123,-121 4,-2 6,-5 9,-7zm-827 -236c-16,-4 -35,-8 -57,-14 -5,8 -2,5 -6,20 -36,34 6,29 -69,98 -167,155 -23,108 -136,197 -54,43 -22,68 -35,126 -26,16 -18,12 -42,19 -2,3 -8,11 -9,13 -51,80 -56,46 -69,82 -14,93 23,138 -28,233 -55,103 -25,130 -50,187 -9,20 -5,10 -11,17 -17,35 -34,166 -20,193l27 -127c13,-48 24,-28 42,-70 35,-82 -44,-28 58,-182 13,-20 6,-1 15,-26 30,-22 18,-3 22,-60 2,-32 -2,-34 10,-60 16,-28 15,-19 31,-40 22,-28 9,-24 23,-49 18,-30 55,-36 70,-74 -18,-89 -13,-101 35,-136l46 -42c9,-10 8,-9 14,-18l25 -89 6 -10c0,-2 2,-5 3,-7 12,-29 -3,-34 77,-69 6,-32 1,-36 18,-57l3 -42 7 -13zm1064 486c26,-14 13,7 20,-27 9,-7 15,-8 23,-17 23,-26 9,-9 20,-34 -39,24 -38,13 -43,51 -41,19 -14,2 -20,27 -41,9 -29,15 -48,35 -22,23 -26,12 -43,42 -53,92 -22,27 -80,84 -19,29 -25,49 -39,79 -32,68 -95,58 -102,147 -5,64 -9,52 -32,82 3,60 -12,85 -54,136 -17,20 -12,13 -33,27 -5,54 13,67 -24,93l6 51c-19,24 -8,20 -29,38 -5,23 -3,35 -7,56 0,4 -5,24 -5,25 1,36 -11,6 14,27 8,-35 31,-112 27,-146 2,-2 5,-7 6,-6 2,4 8,-22 58,-45 -9,-28 -7,-14 5,-16 -1,-40 12,-87 38,-117 51,-59 5,-26 52,-51l4 -7 13 1c1,-2 4,-8 5,-6 0,0 19,1 8,-63l67 -42c21,-31 28,-21 49,-67 -14,-6 -15,-1 -22,-10l1 -74 16 -38c48,-53 20,-43 59,-71 67,-50 5,-24 61,-82 8,-36 5,-4 19,-36 8,-17 8,-35 10,-46zm-905 825c0,35 -6,7 -11,57 -4,40 4,38 -23,68l-3 134c8,-17 6,-18 10,-34 10,-39 4,2 14,-49 10,-70 25,-115 71,-153 4,-29 7,-47 -2,-83 -50,23 -28,18 -56,60z" id="svg-part-5"/>
  </g>
 </g>
</svg>