<svg xmlns="http://www.w3.org/2000/svg" xmlns:xlink="http://www.w3.org/1999/xlink" xml:space="preserve" width="100%" height="100%" version="1.1" shape-rendering="geometricPrecision" text-rendering="geometricPrecision" image-rendering="optimizeQuality" fill-rule="evenodd" clip-rule="evenodd" viewBox="0 0 136 307">
 <g id="Layer_x0020_1">
  <metadata id="CorelCorpID_0Corel-Layer"/>
  <path fill="#03A9F4" d="M20 15l-8 13c-4,10 -8,22 -10,33 -3,8 -2,32 -1,40 3,21 5,34 11,54l4 15c0,0 1,0 1,0 0,0 0,0 0,0 1,7 3,11 4,19 1,6 2,10 4,18 2,11 2,17 3,29 0,7 0,13 0,21 -1,3 0,7 -1,10l-1 10c0,3 -1,6 -1,9l-1 15c0,3 0,3 0,6 3,0 8,-2 11,-2l8 -1c0,0 1,-1 2,-1 12,-1 25,-3 37,-3 2,0 4,0 6,0 3,0 4,0 7,0 2,0 4,0 6,0 3,0 4,-1 6,-1 3,0 5,0 7,0 2,0 5,0 6,0 1,-1 0,0 1,-1 0,-1 0,-1 0,-2 1,-4 0,-8 1,-12l4 -35c0,-2 0,-3 0,-4 1,-8 1,-17 2,-25 0,-2 0,-5 1,-8 0,-1 0,-3 0,-4 0,-2 0,-2 0,-4 0,-3 0,-6 0,-9 0,-2 1,-5 0,-8 -1,-18 0,-9 2,-24 1,-5 -1,-3 1,-7 2,-4 2,-11 3,-15 3,-21 -1,-41 -7,-60 -2,-4 -3,-8 -5,-13l-5 -12 -14 -2c1,5 4,24 2,28 2,2 3,7 3,10 1,4 0,8 0,12 -3,20 -20,32 -41,34 -17,1 -29,-5 -38,-13 -4,-5 -7,-8 -9,-16 -2,-5 -3,-17 -1,-22 -1,-2 -4,-13 -4,-17 -2,-15 1,-31 12,-41l6 -5c-6,-1 -10,-3 -10,-10l-4 1z" id="svg-part-0"/>
  <path fill="black" d="M34 24l-6 5c-11,10 -14,26 -12,41 0,4 3,15 4,17 1,-4 3,-7 5,-9 10,-8 24,-8 36,-8 15,-1 39,-2 45,12 2,-4 -1,-23 -2,-28 -1,-2 -6,-41 -48,-36 -13,2 -19,6 -22,6z" id="svg-part-1"/>
  <path fill="black" d="M34 24l-6 5c-11,10 -14,26 -12,41 0,4 3,15 4,17 1,-4 3,-7 5,-9 10,-8 24,-8 36,-8 15,-1 39,-2 45,12 2,-4 -1,-23 -2,-28 -1,-2 -6,-41 -48,-36 -13,2 -19,6 -22,6z" id="svg-part-2"/>
  <path fill="black" d="M67 129c-19,0 -40,-10 -40,-32 0,-8 2,-11 10,-14 8,-4 30,-3 40,-3 7,0 19,2 23,7 3,3 3,5 3,9 0,6 -4,14 -7,19 -4,5 -9,8 -15,11 -3,1 -10,3 -14,3zm-47 -42c-2,5 -1,17 1,22 2,8 5,11 9,16 9,8 21,14 38,13 21,-2 38,-14 41,-34 0,-4 1,-8 0,-12 0,-3 -1,-8 -3,-10 -6,-14 -30,-13 -45,-12 -12,0 -26,0 -36,8 -2,2 -4,5 -5,9z" id="svg-part-3"/>
  <path fill="black" d="M24 14c0,7 4,9 10,10 3,0 9,-4 22,-6 42,-5 47,34 48,36l14 2 -4 -8c0,-1 0,-1 -1,-2l-6 -11 -16 -16c-5,-6 -10,-10 -18,-13 -8,-4 -18,-5 -27,-2 -4,1 -16,7 -22,10z" id="svg-part-4"/>
  <path fill="#4B4B4D" d="M32 10c-5,3 -8,3 -13,7l-4 6c9,-6 10,-6 17,-13zm0 14l-11 7 8 -8c4,-3 7,-6 8,-6 8,-4 15,-4 24,-4 3,0 1,0 4,2 1,2 3,2 4,2 -1,1 -5,-1 -6,-1 -7,0 -13,0 -20,2 -3,1 -7,3 -11,6zm-22 9l1 -2c10,-6 21,-15 28,-20 5,-2 10,-3 14,-3 5,0 9,0 14,2 1,0 2,0 3,1 2,1 3,1 3,2 1,4 3,3 3,4 -1,0 -6,-3 -7,-3 -7,-2 -15,-2 -22,-2 -5,2 -10,4 -14,7 -7,5 -16,9 -23,14zm2 -3l2 -4c5,-4 9,-7 14,-12 1,-1 1,-1 2,-2 2,-1 3,-2 4,-3 3,-1 7,-3 9,-4 2,3 6,2 7,2 -4,1 -9,3 -13,5 -9,6 -15,12 -25,18zm22 -6l0 0c3,0 9,-4 21,-6 -1,0 -2,0 -2,0 -2,0 -3,0 -5,-1 0,0 -8,4 -14,7zm24 -6c3,0 6,0 9,0 -1,0 -2,-1 -3,-1 -6,-1 -11,-1 -12,0 1,0 3,1 6,1zm15 1c8,1 13,5 17,9 4,2 8,4 12,7 1,1 5,4 9,8l-1 -2c-6,-5 -11,-10 -17,-14 -7,-5 -15,-9 -22,-12 -1,0 -5,-2 -6,-2 0,1 2,3 3,3 2,1 3,2 5,3zm20 11c0,0 0,1 1,1 2,1 4,3 7,4 1,1 1,1 2,1 -4,-2 -7,-4 -10,-6zm17 10l-1 -2c-5,-4 -10,-8 -14,-12 -2,-1 -20,-13 -22,-13 1,2 5,4 8,6 2,1 4,2 6,3 2,2 9,7 16,12 2,2 5,4 7,6zm-2 -4l-1 -1 -14 -14c-3,-3 -7,-6 -8,-7 0,3 1,4 4,7 2,1 15,12 19,15zm-20 -20c-3,-3 -6,-5 -9,-7 2,1 5,4 9,7zm-21 -12c-7,-2 -14,-2 -21,0 1,1 6,2 10,2 1,0 3,1 5,1 4,1 8,2 12,4 2,1 10,6 12,7 -2,-3 -2,-3 -1,-4 -1,-1 -3,-3 -5,-4 -2,-1 -5,-3 -7,-4 -1,0 -2,-1 -2,-1 -1,0 -2,-1 -3,-1z" id="svg-part-5"/>
  <path fill="black" d="M20 15l4 -1c6,-3 18,-9 22,-10 9,-3 19,-2 27,2 8,3 13,7 18,13l16 16c-2,-5 -14,-18 -18,-21 -4,-4 -7,-6 -12,-9 -2,-1 -4,-2 -6,-3 -12,-5 -32,0 -45,4 -2,0 0,0 -1,0 0,0 -1,2 -1,2 0,0 0,1 -1,1 0,1 -1,2 -1,3 -1,1 -1,2 -2,3z" id="svg-part-6"/>
  <path fill="white" d="M117 140c-1,0 -1,0 -1,1 0,1 0,1 1,1 0,0 1,0 1,-1 0,-1 -1,-1 -1,-1zm-5 3c0,0 -1,0 -1,1 0,0 1,1 1,1 1,0 1,-1 1,-1 0,-1 0,-1 -1,-1zm1 19c0,0 -1,1 -1,1 0,1 1,1 1,1 1,0 1,0 1,-1 0,0 0,-1 -1,-1zm0 1c0,0 0,0 0,0 0,0 0,0 0,0 1,0 1,0 1,0 0,0 0,0 -1,0zm0 -6c0,0 -1,1 -1,1 0,1 1,1 1,1 1,0 1,0 1,-1 0,0 0,-1 -1,-1zm0 1c0,0 0,0 0,0 0,0 0,1 0,1 0,0 0,-1 0,-1 0,0 0,0 0,0zm0 -6c-1,0 -1,1 -1,1 0,1 0,1 1,1 0,0 1,0 1,-1 0,0 -1,-1 -1,-1zm0 1c0,0 0,0 0,0 0,1 0,1 0,1 0,0 0,0 0,-1 0,0 0,0 0,0zm0 -6c-1,0 -1,1 -1,1 0,1 0,1 1,1 0,0 1,0 1,-1 0,0 -1,-1 -1,-1zm0 1c-1,0 -1,0 -1,0 0,1 0,1 1,1 0,0 0,0 0,-1 0,0 0,0 0,0zm-1 -5c0,0 0,0 0,1 0,0 0,0 0,0 1,0 1,0 1,0 0,-1 0,-1 -1,-1zm6 21c-1,0 -1,1 -1,1 0,1 0,1 1,1 1,0 1,0 1,-1 0,0 0,-1 -1,-1zm0 1c0,0 0,0 0,0 0,1 0,1 0,1 0,0 0,0 0,-1 0,0 0,0 0,0zm0 -5c-1,0 -1,0 -1,1 0,0 0,1 1,1 0,0 1,-1 1,-1 0,-1 -1,-1 -1,-1zm0 0c0,0 -1,0 -1,1 0,0 1,0 1,0 0,0 0,0 0,0 0,-1 0,-1 0,-1zm-1 -5c0,0 -1,0 -1,1 0,0 1,1 1,1 1,0 1,-1 1,-1 0,-1 0,-1 -1,-1zm0 0c0,0 0,1 0,1 0,0 0,0 0,0 1,0 1,0 1,0 0,0 0,-1 -1,-1zm0 -5c0,0 -1,0 -1,1 0,0 1,1 1,1 1,0 1,-1 1,-1 0,-1 0,-1 -1,-1zm0 0c0,0 0,1 0,1 0,0 0,0 0,0 0,0 1,0 1,0 0,0 -1,-1 -1,-1zm0 -5c-1,0 -1,0 -1,1 0,1 0,1 1,1 1,0 1,0 1,-1 0,-1 0,-1 -1,-1zm0 1c0,0 0,0 0,0 0,0 0,0 0,0 0,0 0,0 0,0 0,0 0,0 0,0zm0 -5c0,0 -1,0 -1,0 0,0 1,0 1,0 0,0 0,0 0,0 0,0 0,0 0,0z" id="svg-part-7"/>
  <path fill="#4B4B4D" d="M35 27c1,0 2,-1 3,-1 1,-1 3,-1 4,-2 5,-1 10,-2 14,-3 15,-2 28,2 37,14 3,4 5,8 7,13 0,2 1,3 1,5 0,0 0,1 0,1l-79 -12c2,-4 4,-8 8,-11l5 -4zm64 12c4,8 5,15 5,15l14 2 -4 -8c0,-1 0,-1 -1,-2l-14 -7 0 0z" id="svg-part-8"/>
  <path fill="white" d="M38 26l0 0 0 0 2 1 1 3 -2 -2 -1 -2zm48 1c0,1 0,1 1,1l-1 1 -2 1 1 -2 1 -1zm7 8c0,0 0,0 0,0 0,0 1,0 1,1l-1 0 -3 2 2 -2 1 -1zm-4 17l0 0 2 -2 2 -1 -1 2 -3 1zm-7 -1l0 0 1 -2 3 -1 -2 2 -2 1zm-6 -1l-1 0 1 -1 2 -1 -1 2 -1 0zm-7 -1l-1 0 1 -1 2 -1 -1 2 -1 0zm44 4l2 -2 -2 1 -2 2 2 -1zm-7 -1l1 -2 -2 2 -1 1 0 0 2 -1zm3 -3l-1 -2 2 1 1 3 -2 -2zm-10 3l1 -2 -2 1 -2 2 3 -1zm3 -4l1 0 1 2 -1 -1c0,0 0,-1 -1,-1zm-8 0l-1 -2 2 1 2 2 -3 -1zm-7 -1l-1 -2 2 1 1 3 -2 -2zm-7 -1l-1 -2 2 2 1 2 -2 -2zm-7 0l-1 -2 2 1 1 2 -2 -1zm39 0l0 1 1 -1 -1 0zm-5 -1l1 -1 0 -1 -2 1 -2 2 3 -1zm-5 -4l0 0 2 1 1 1 -3 -2zm-10 3l2 -2 -3 1 -1 2 2 -1zm-7 -1l1 -2 -2 1 -2 2 3 -1zm3 -3l-1 -2 2 1 1 3 -2 -2zm-10 2l1 -1 -2 1 -2 2 3 -2zm3 -3l-1 -2 1 2 2 2 -2 -2zm-11 3l2 -2 -2 1 -2 2 2 -1zm3 -3l-1 -3 2 2 1 2 -2 -1zm13 -3l1 -2 -2 1 -2 2 3 -1zm3 -3l-2 -2 2 1 2 2 -2 -1zm-11 2l2 -2 -3 1 -1 2 2 -1zm3 -3l-1 -2 2 1 1 3 -2 -2zm-10 2l1 -1 -2 1 -1 2 2 -2zm3 -3l-1 -2 2 2 1 2 -2 -2zm5 -3l1 -2 -2 1 -1 2 2 -1zm-7 -1l1 -2 -2 1 -2 2 3 -1zm3 -3l-1 -2 2 1 1 3 -2 -2zm-32 0c0,0 1,0 2,0l-1 1 -3 1 2 -2zm11 -3c0,0 0,0 1,0l0 0 1 3 -2 -2 0 -1zm10 27l-2 0 1 0 2 -1 -1 1 0 0zm-7 -1l-2 0 1 0 2 -1 -1 1zm10 -2l-1 -2 2 2 1 2 -2 -2zm-8 0l-1 -3 2 2 2 2 -3 -1zm-7 -1l-1 -2 2 1 1 3 -2 -2zm-7 -1l-1 -2 2 1 1 3 -2 -2zm-7 -1l-2 -2 2 2 2 2 -2 -2zm-8 0l-1 -2 2 1 1 2 -2 -1zm34 -1l2 -2 -2 1 -2 2 2 -1zm3 -3l-1 -2 2 1 2 3 -3 -2zm-10 2l2 -1 -3 1 -1 2 2 -2zm3 -3l-1 -2 2 2 1 2 -2 -2zm-10 3l1 -2 -2 1 -2 2 3 -1zm3 -3l-1 -2 2 1 1 2 -2 -1zm-10 2l1 -2 -2 1 -2 2 3 -1zm2 -3l-1 -2 2 1 2 3 -3 -2zm-10 2l2 -1 -3 1 -1 2 2 -2zm3 -3l-1 -2 2 2 1 2 -2 -2zm-10 3l1 -2 -2 1 -1 2 2 -1zm3 -3l-1 -3 2 2 1 2 -2 -1zm34 -1l1 -2 -2 1 -1 2 2 -1zm3 -3l-1 -2 2 1 1 2 -2 -1zm-10 2l1 -2 -2 1 -2 2 3 -1zm3 -3l-1 -2 2 1 1 3 -2 -2zm-11 3l2 -2 -2 1 -2 2 2 -1zm3 -4l-1 -2 2 2 2 2 -3 -2zm-10 3l2 -2 -3 1 -1 2 2 -1zm3 -3l-1 -2 2 1 1 2 -2 -1zm-10 2l1 -2 -2 1 -2 2 3 -1zm30 -4l1 -2 -2 1 -2 2 3 -1zm3 -4l-1 -2 2 2 1 2 -2 -2zm-11 3l2 -2 -2 1 -2 2 2 -1zm3 -3l-1 -2 2 1 2 2 -3 -1zm-10 2l2 -2 -3 1 -1 3 2 -2z" id="svg-part-9"/>
 </g>
</svg>