<svg xmlns="http://www.w3.org/2000/svg" xmlns:xlink="http://www.w3.org/1999/xlink" xml:space="preserve" width="100%" height="100%" version="1.1" shape-rendering="geometricPrecision" text-rendering="geometricPrecision" image-rendering="optimizeQuality" fill-rule="evenodd" clip-rule="evenodd" viewBox="0 0 598 784"><defs><style data-fonts="true">@font-face { font-family: 'font_1'; src: url('http://127.0.0.1:8000/storage/fonts/5ZIyXfnllvfea2c03RF0XvhB4s9AbiJS5UuPNvgP') format('truetype'); }@font-face { font-family: 'font_2'; src: url('http://127.0.0.1:8000/storage/fonts/HiTBF8CNdPuu1yhMAdkdrafbOxzCEGWugdII81Rt') format('truetype'); }@font-face { font-family: 'font_3'; src: url('http://127.0.0.1:8000/storage/fonts/NTEl0gVIgAt3bQrdxmwPc3g1o1VAdu4adzElDKs8') format('truetype'); }</style></defs>
 <g id="Layer_x0020_1">
  <metadata id="CorelCorpID_0Corel-Layer"/>
  <g id="_2272912153136">
   <path id="Back-Body" fill="#0080C5" d="M45 98c1,5 10,28 14,49 4,25 3,31 0,55 4,7 10,10 14,23 2,8 3,24 4,32 1,16 0,53 -8,64l0 0 0 0 0 0c1,2 3,4 4,7 1,2 2,5 3,8 2,7 2,13 2,20 -1,7 -2,13 -3,19l0 44c0,7 1,14 1,20 0,7 1,13 2,19 0,7 1,15 3,22 1,13 3,26 5,39 2,13 3,26 5,40l6 61c0,7 1,14 1,21 1,14 2,27 2,41 1,8 1,17 1,25 0,7 0,14 0,20 -1,4 0,7 -1,10 0,3 0,6 -1,9 -1,3 -1,6 0,10 0,2 1,5 1,7 0,2 0,3 1,5 1,1 3,2 5,3l8 2c3,1 6,2 9,1l12 1c4,1 8,2 11,2 3,0 5,0 7,0 3,0 5,0 8,0 3,1 6,2 9,2l75 3c1,0 3,1 4,1 2,0 5,0 7,0 14,0 29,1 44,1 14,0 29,-1 43,-1 2,0 3,0 5,0 2,0 3,-1 5,-1l74 -3c4,0 7,-1 10,-2 2,0 3,0 5,0 2,0 5,0 7,0 3,0 6,0 9,-1l9 -1c2,0 4,-1 6,-1 1,0 2,0 3,0 1,0 2,0 4,0 2,-1 5,-2 7,-2 2,-1 3,-1 5,-2 1,0 2,0 3,-1 1,-1 2,-3 2,-4 0,-2 0,-4 0,-6 1,-3 1,-6 1,-8 0,-7 0,-13 0,-20 -1,-10 -1,-20 -1,-30l4 -83c1,-7 1,-14 2,-20 1,-4 1,-7 1,-11l17 -139c1,-3 1,-6 1,-10l1 -63c-1,-5 -2,-10 -2,-15 -1,-3 -1,-7 -1,-11 0,-7 2,-14 5,-21 0,-2 1,-3 2,-4 1,-1 2,-2 2,-3l0 -1 0 0c-9,-11 -10,-48 -8,-63 1,-11 3,-22 6,-32 4,-14 5,-15 12,-24 -5,-13 -3,-39 0,-54 3,-17 8,-31 13,-46 -40,-1 -70,-3 -103,-19 -24,-11 -53,-36 -60,-63l-2 1c0,0 0,0 0,0l0 0c-1,1 -1,1 -2,2 -7,7 -25,17 -34,22 -18,8 -30,11 -52,11 -38,0 -56,-12 -82,-30 -3,-3 -5,-5 -9,-7 -1,6 -6,17 -9,21 -5,8 -8,12 -14,18 -5,5 -9,9 -16,14 -35,24 -78,31 -124,27z"/>
   <path id="Shoulder" fill="#0080C5" d="M389 19c7,27 36,52 60,63 33,16 63,18 103,19 3,-7 7,-20 11,-25l0 0 0 0c0,0 0,-2 -1,-2 0,0 -1,-1 -1,-1l-1 -1c-1,-1 -3,-2 -4,-3l-1 -1 0 -1 -1 0 -1 -1 0 0 -1 -1 0 0c-1,-1 -2,-1 -3,-2l0 -1 -2 -1 0 0c-1,-1 -3,-2 -4,-2l0 -1 -1 0 -1 -1 -1 0 -1 -1 -1 -1 -2 -1 -2 -1 -3 -2c-1,0 -1,-1 -2,-1l0 0c-8,-5 -18,-8 -27,-11 -10,-4 -21,-6 -31,-9 -9,-2 -17,-4 -26,-6 -8,-2 -16,-4 -24,-7l-11 -4c-1,0 -2,-1 -3,-1 -3,0 -6,-1 -8,-2 -1,2 -3,3 -5,5 -2,1 -3,2 -4,2l0 0 -1 2zm-191 -8l0 0 0 0 0 0c-2,0 -4,0 -7,1 -1,1 -2,1 -4,2l-33 10c-15,4 -31,7 -46,11 -7,2 -15,4 -22,7 -6,2 -12,5 -18,8l0 0 0 0c0,0 -1,1 -1,1l-5 3 -2 1 -1 1 -1 0 -1 1 -1 1 -1 0 -1 1c-1,0 -2,1 -3,2l-2 1 0 1c-1,1 -2,1 -3,2l-1 1 -1 1 -1 0 0 1 -1 1 0 0c-2,1 -3,2 -4,3l-1 1 0 0c-1,1 -2,2 -2,3 0,0 0,0 0,0l0 0 -1 1 0 0c0,0 0,0 0,0 2,4 9,20 11,21 46,4 89,-3 124,-27 7,-5 11,-9 16,-14 6,-6 9,-10 14,-18 3,-4 8,-15 9,-21 -3,-3 -6,-5 -10,-7z"/>
   <path id="Coller" fill="#EEAD1E" d="M198 11c4,2 7,4 10,7 4,2 6,4 9,7 26,18 44,30 82,30 22,0 34,-3 52,-11 9,-5 27,-15 34,-22 1,-1 1,-1 2,-2l0 0c0,0 0,0 0,0l3 -3 0 0c1,0 2,-1 4,-2 2,-2 4,-3 5,-5l0 0c0,0 0,0 -1,0l0 0 -10 -6c-9,-5 -16,-6 -25,1 -3,3 -7,5 -11,7 -4,2 -7,4 -11,6l-12 4c-7,2 -14,3 -21,4 -9,1 -17,0 -26,-1 -3,0 -5,-1 -8,-1 -3,-1 -6,-2 -9,-3 -5,-2 -10,-4 -15,-7 -2,-1 -4,-1 -6,-3l-10 -7c-4,-3 -8,-4 -12,-4 -7,1 -13,5 -18,8 -2,1 -4,1 -6,3z"/>
   <path id="Sleeves" fill="#0080C5" d="M4 180c4,2 11,2 15,4 6,1 10,2 15,4 16,6 21,13 25,14 3,-24 4,-30 0,-55 -4,-21 -13,-44 -14,-49 -2,-1 -9,-17 -11,-21 0,0 0,0 0,0l0 0 0 0c-1,1 -2,3 -2,5 -2,2 -3,4 -4,6 -1,4 -3,8 -4,11 -3,8 -6,17 -9,25 -5,19 -9,37 -11,56l0 0 0 0zm590 0c0,-1 -1,-4 -1,-6 -1,-3 -1,-6 -2,-9 0,-5 -1,-9 -2,-14 -1,-9 -4,-18 -6,-27 -3,-8 -6,-17 -9,-25 -2,-4 -3,-8 -5,-12l-4 -8c0,-1 -1,-1 -1,-2 0,0 0,0 0,0 0,0 0,0 0,0l-1 0 0 -1c-4,5 -8,18 -11,25 -5,15 -10,29 -13,46 -3,15 -5,41 0,54 3,-1 8,-5 12,-7 4,-2 8,-4 13,-6 10,-4 19,-5 30,-8z"/>
   <path id="Cuffs" fill="#EEAD1E" d="M69 321c8,-11 9,-48 8,-64 -1,-8 -2,-24 -4,-32 -4,-13 -10,-16 -14,-23 -4,-1 -9,-8 -25,-14 -5,-2 -9,-3 -15,-4 -4,-2 -11,-2 -15,-4l0 0c-4,6 -4,22 -4,30 7,-1 15,-1 23,1 10,1 22,5 28,15 3,6 4,12 6,18 1,6 2,12 3,18 0,4 0,8 0,13 0,4 1,7 1,11 1,3 1,7 0,10 0,2 -1,3 -2,5 0,2 1,3 1,4 2,3 6,14 9,16zm460 -1l0 0c2,0 5,-6 5,-8 1,-2 2,-4 3,-6 1,-1 1,-2 1,-3 1,-2 0,-6 -1,-8 0,-1 0,-2 0,-3 -1,-5 -1,-10 0,-15 0,-6 1,-11 1,-17 1,-5 2,-11 3,-16 1,-4 3,-9 4,-13 5,-14 21,-20 35,-21 5,-1 9,-1 14,-1 1,0 4,1 4,0 1,-1 0,-4 0,-4 -1,-5 -1,-9 -1,-13 0,-2 0,-5 -1,-7 0,-2 -1,-3 -2,-5l0 0c-11,3 -20,4 -30,8 -5,2 -9,4 -13,6 -4,2 -9,6 -12,7 -7,9 -8,10 -12,24 -3,10 -5,21 -6,32 -2,15 -1,52 8,63z"/>
   <path id="Bolts_x0020_Part" fill="#FEFEFE" d="M103 96c-3,-17 -8,-35 -18,-53l-1 0c-14,6 -32,16 -43,26 -4,4 -6,5 -7,8 2,4 9,20 11,21 1,5 10,28 14,49 4,25 3,31 0,55 4,7 10,10 14,23 1,6 2,15 3,23 19,-52 35,-101 27,-152zm392 0c3,-17 8,-35 17,-53l2 0c14,6 32,16 42,26 5,4 7,5 7,7 -3,5 -7,15 -10,22 0,0 0,0 0,0 0,1 0,1 0,1 -1,1 -1,1 -1,2 -5,15 -10,29 -13,46 -1,4 -2,9 -2,15 -1,3 -1,7 -1,10 0,9 0,19 2,26 0,1 0,3 1,4 -7,8 -9,9 -12,23 -2,7 -3,13 -5,20 0,1 0,2 0,3 -19,-52 -35,-101 -27,-152z"/>
   <path id="Bolt_x0020_Outline" fill="#001331" d="M72 99c-2,1 -4,1 -9,3 1,5 8,16 11,45 0,2 1,3 1,5 0,3 0,4 0,6 1,22 -1,24 -1,36 6,-11 11,-25 13,-37 4,-17 2,-30 3,-36l5 5c0,-1 0,-3 0,-5 0,-2 0,-3 0,-5 0,-2 -1,-4 -1,-5 -1,-5 -1,-9 -3,-13 -5,-18 -14,-34 -25,-47 1,0 2,-1 3,-1 12,13 21,28 26,48 1,3 1,7 2,11 1,6 2,18 1,24 -1,0 -4,-3 -5,-4l0 1 -1 10c0,3 0,5 -1,9 -2,17 -10,47 -22,57 0,-4 2,-10 2,-14 2,-20 2,-37 -1,-55 -3,-16 -10,-30 -11,-37l1 -1 6 -3c-10,-11 -18,-19 -27,-25 0,0 1,-1 2,-2 0,0 0,0 1,0 6,4 13,10 20,18l11 12c-1,0 -1,0 -1,0zm454 0c2,1 4,1 9,3 -1,5 -8,16 -11,45 -1,2 -1,3 -1,5 0,3 0,4 0,6 -2,22 1,24 0,36 -6,-11 -10,-25 -13,-37 -3,-17 -2,-30 -3,-36l-5 5c0,-1 0,-3 1,-5 0,-2 -1,-3 0,-5 0,-2 0,-4 1,-5 0,-5 1,-9 2,-13 5,-18 14,-34 25,-47 -1,0 -2,-1 -3,-1 -11,13 -20,28 -25,48 -1,3 -2,7 -2,11 -1,6 -3,18 -1,24 1,0 3,-3 5,-4l0 1 0 10c1,3 1,5 1,9 3,17 11,47 22,57 0,-4 -1,-10 -1,-14 -3,-20 -2,-37 1,-55 2,-16 9,-30 11,-37l-1 -1 -7 -3c10,-11 19,-19 28,-25 -1,0 -2,-1 -3,-2 0,0 0,0 0,0 -7,4 -14,10 -21,18l-10 12c0,0 0,0 1,0z"/>
   <path id="Bolts" fill="#EEAD1E" d="M64 53c2,2 4,4 5,6 9,11 16,25 20,39 0,0 0,1 0,1 1,4 5,18 4,21l-4 -4c-1,2 -1,5 -1,8 0,7 -1,17 -2,25 -1,6 -5,27 -9,33 1,-11 0,-29 -1,-40 -2,-15 -10,-37 -10,-39 4,-1 9,-1 11,-1 0,-1 -1,-2 -1,-3 -7,-11 -20,-23 -33,-32 6,-5 13,-10 21,-14zm470 0c-2,2 -4,4 -6,6 -8,11 -16,25 -19,39 0,0 -1,1 -1,1 -1,4 -4,18 -3,21l4 -4c1,2 1,5 1,8 0,7 0,17 1,25 1,6 5,27 10,33 -2,-11 0,-29 1,-40 2,-15 10,-37 10,-39 -4,-1 -9,-1 -12,-1 1,-1 1,-2 2,-3 6,-11 19,-23 32,-32 -5,-5 -13,-10 -20,-14z"/>
  </g>
 </g>
</svg>